<svg width="16000" height="9099" viewBox="0 0 16000 9099" xmlns="http://www.w3.org/2000/svg" xmlns:xlink="http://www.w3.org/1999/xlink">

    <style>
        .building { fill: #f0f4f8; stroke: #d1dce5; stroke-width: 2; }
        .room     { fill: #ffffff; fill-opacity: 0.8; stroke: #bcccdc; stroke-width: 1; }
        .label    { font-family: "Noto Sans TC", sans-serif; font-size: 24px; fill: #334e68; font-weight: 500; text-anchor: middle; dominant-baseline: middle; }
    </style>
      <g id="gis_gis_building_geom">
    <path class="building" d="M 2949.26,4010.03 L 4140.85,4021.56 L 4142.10,4292.67 L 4130.90,4292.64 L 4130.40,4356.44 L 3226.66,4355.84 L 3226.31,4812.55 L 3401.68,4811.80 L 3401.95,5141.81 L 2942.28,5141.31 L 2949.26,4010.03 Z" />
    <path class="building" d="M 7088.12,2560.89 L 7700.72,2562.04 L 7700.87,2481.66 L 8148.51,2483.00 L 8147.15,2562.88 L 8693.32,2563.92 L 8721.63,2695.28 L 8721.63,2695.28 L 8715.57,3280.48 L 8690.90,3280.61 L 8690.48,3403.55 L 7085.32,3389.98 L 7085.31,3204.63 L 7000.35,3203.97 L 7003.43,2738.84 L 7087.35,2738.26 L 7088.12,2560.89 Z" />
    <path class="building" d="M 4843.51,1956.47 L 4844.51,1787.79 L 4906.35,1787.49 L 4905.24,1712.44 L 5766.54,1719.44 L 5767.05,1759.83 L 6027.80,1762.57 L 6041.22,1778.35 L 6040.91,2113.44 L 5920.93,2113.62 L 5921.58,2180.69 L 4855.22,2175.20 L 4857.61,1956.59 L 4843.51,1956.47 Z" />
    <path class="building" d="M 3188.76,5839.04 L 3184.44,6132.85 L 3009.51,6131.08 L 3010.12,5838.90 L 3188.76,5839.04 Z" />
    <path class="building" d="M 8161.26,3799.06 L 8661.34,3802.64 L 8661.72,3865.86 L 8759.20,3866.25 L 8755.51,3995.61 L 8806.86,3995.16 L 8806.05,4079.95 L 8850.04,4079.42 L 8848.57,4261.53 L 8807.12,4260.63 L 8806.31,4341.05 L 8464.87,4337.40 L 8462.68,4793.00 L 8947.00,4797.31 L 8944.64,5163.38 L 9070.07,5164.43 L 9068.88,5256.28 L 8943.78,5254.69 L 8940.58,5624.81 L 8458.26,5621.41 L 8453.24,6072.52 L 9133.83,6077.89 L 9126.51,6745.48 L 8044.27,6736.86 L 8045.15,6541.70 L 7946.95,6541.19 L 7947.74,6409.27 L 7850.08,6409.19 L 7850.29,6387.18 L 7663.94,6386.98 L 7662.42,6294.92 L 7365.94,6294.05 L 7367.40,6164.56 L 7219.73,6164.20 L 7220.56,6079.32 L 7176.49,6078.82 L 7179.52,5914.56 L 7222.17,5914.94 L 7222.98,5832.54 L 7863.48,5840.16 L 7863.88,5617.56 L 7754.27,5617.59 L 7754.43,5521.38 L 7739.08,5522.23 L 7740.67,5376.11 L 7755.56,5376.17 L 7756.55,5277.27 L 7785.97,5276.79 L 7786.18,5127.15 L 7757.98,5127.35 L 7758.14,5028.99 L 7743.59,5028.70 L 7745.39,4886.44 L 7759.72,4886.75 L 7760.11,4786.55 L 7849.88,4787.63 L 7849.21,4560.97 L 7233.65,4557.12 L 7234.22,4480.71 L 7180.57,4480.46 L 7181.34,4311.50 L 7235.49,4311.75 L 7236.10,4231.20 L 7381.06,4231.84 L 7382.58,4106.09 L 7678.18,4106.93 L 7679.62,4016.64 L 7870.79,4014.88 L 7870.93,3994.82 L 7966.89,3995.55 L 7968.35,3863.10 L 8160.60,3863.87 L 8161.26,3799.06 Z" />
    <path class="building" d="M 1785.34,1818.91 L 1846.80,1820.11 L 1846.08,1868.88 L 1915.10,1869.87 L 1914.84,1881.19 L 1956.32,1881.91 L 1956.29,1947.64 L 1913.30,1947.43 L 1912.91,1964.27 L 1844.69,1963.82 L 1844.25,1993.82 L 2113.96,1996.73 L 2111.80,2313.15 L 1638.41,2309.74 L 1638.57,2369.36 L 1402.42,2370.43 L 1402.86,2308.05 L 913.25,2304.52 L 921.14,1983.86 L 1782.78,1993.15 L 1785.34,1818.91 Z" />
    <path class="building" d="M 1233.29,3176.04 L 1233.24,3086.16 L 1689.31,3086.09 L 1689.85,3178.73 L 2105.12,3181.86 L 2100.21,3742.07 L 811.22,3734.26 L 816.44,3173.49 L 1233.29,3176.04 Z" />
    <path class="building" d="M 4422.39,3825.20 L 4557.45,3823.98 L 4558.56,3948.97 L 4423.51,3950.19 L 4422.39,3825.20 Z" />
    <path class="building" d="M 5454.09,3024.68 L 5470.25,3024.58 L 5470.20,3032.77 L 5776.10,3034.35 L 5777.47,2956.96 L 5982.23,2956.10 L 5981.83,3035.41 L 6304.16,3037.07 L 6307.16,3777.27 L 6169.76,3776.65 L 6170.26,3825.65 L 5997.21,3824.78 L 5999.79,3339.48 L 5451.60,3336.55 L 5454.09,3024.68 Z" />
    <path class="building" d="M 810.23,4162.32 L 2094.03,4174.33 L 2089.09,4719.68 L 2050.10,4719.24 L 2050.20,4746.64 L 1713.11,4742.66 L 1713.39,4715.41 L 805.90,4705.09 L 810.23,4162.32 Z" />
    <path class="building" d="M 5154.02,4923.99 L 5174.31,4923.63 L 5174.75,4823.71 L 5156.69,4823.06 L 5158.73,4730.00 L 5153.87,4730.05 L 5153.30,4532.71 L 4982.76,4534.29 L 4982.12,4520.32 L 4753.21,4517.98 L 4752.95,4206.61 L 5867.58,4215.65 L 5865.18,4622.01 L 5896.39,4622.08 L 5894.82,4763.49 L 6306.89,4767.17 L 6301.07,5688.40 L 5887.43,5691.03 L 5886.89,5832.41 L 5854.54,5832.37 L 5853.47,6070.58 L 5399.78,6064.30 L 5405.55,5280.53 L 5376.56,5280.37 L 5376.79,5215.40 L 5151.84,5213.08 L 5151.97,5219.13 L 5154.02,4923.99 Z" />
    <path class="building" d="M 3393.95,5787.13 L 3442.50,5787.21 L 3442.68,5774.53 L 3630.52,5775.89 L 3631.48,5739.98 L 4112.97,5745.69 L 4113.00,5779.38 L 4284.12,5780.62 L 4284.41,5744.13 L 4286.78,5744.18 L 4286.73,5683.26 L 4511.51,5688.82 L 4511.10,5748.44 L 4600.29,5750.13 L 4600.37,5781.26 L 4984.14,5785.27 L 4983.80,5976.74 L 5219.32,5978.53 L 5219.88,6039.07 L 5265.74,6038.84 L 5260.63,6205.34 L 5217.18,6206.06 L 5217.99,6267.47 L 5167.99,6267.69 L 5166.59,6358.65 L 4403.43,6352.99 L 4402.67,6219.38 L 4187.82,6220.82 L 4189.74,6082.55 L 3392.66,6074.33 L 3392.93,6015.46 L 3346.48,6015.69 L 3345.67,5846.07 L 3393.69,5845.84 L 3393.95,5787.13 Z" />
    <path class="building" d="M 3480.58,1049.19 L 3478.99,999.72 L 3622.50,1000.51 L 3623.18,1050.84 L 3766.99,1052.51 L 3767.46,1154.80 L 3876.62,1155.69 L 3876.12,1302.54 L 4088.23,1299.59 L 4089.53,1365.74 L 4257.77,1366.48 L 4254.19,1531.73 L 3773.89,1529.93 L 3775.24,1614.55 L 3768.91,1632.60 L 3503.68,1632.43 L 3508.43,1214.67 L 3463.89,1214.91 L 3467.11,1049.03 L 3480.58,1049.19 Z" />
    <path class="building" d="M 936.26,5355.33 L 938.67,5282.05 L 1124.06,5283.51 L 1124.24,5251.09 L 1291.35,5250.09 L 1307.39,5242.52 L 1325.18,5238.63 L 1356.16,5233.68 L 1377.43,5232.40 L 1405.24,5235.72 L 1428.02,5240.86 L 1440.65,5244.93 L 1460.13,5252.19 L 1607.57,5253.53 L 1607.60,5288.52 L 1776.51,5290.71 L 1776.60,5240.34 L 2103.44,5244.81 L 2103.50,5356.82 L 2205.45,5356.56 L 2205.38,5378.57 L 2282.83,5379.22 L 2285.51,5565.09 L 2894.09,5569.40 L 2893.37,5633.72 L 2936.68,5633.51 L 2937.52,5803.75 L 2846.36,5804.20 L 2846.34,5953.33 L 2559.91,5955.61 L 2546.09,5965.10 L 2519.95,5972.97 L 2488.77,5982.33 L 2463.81,5984.39 L 2436.80,5986.16 L 2402.61,5984.38 L 2377.54,5982.72 L 2340.87,5977.26 L 2314.70,5972.21 L 2285.31,5960.47 L 2259.99,5947.24 L 1985.67,5944.67 L 1985.29,5908.44 L 1769.65,5909.19 L 1773.26,5665.81 L 1597.93,5664.92 L 1599.05,5851.91 L 1024.38,5845.83 L 1022.48,5808.99 L 1001.29,5809.19 L 1000.42,5661.87 L 882.09,5661.27 L 883.76,5439.25 L 856.33,5438.30 L 859.12,5355.29 L 936.26,5355.33 Z" />
    <path class="building" d="M 13529.99,6560.54 L 14941.59,6571.40 L 14932.04,7144.65 L 14992.06,7145.75 L 14993.21,7490.04 L 14952.13,7489.30 L 14951.20,7527.87 L 13628.49,7517.89 L 13629.06,7497.74 L 13464.17,7496.13 L 13468.50,7115.25 L 13528.85,7116.51 L 13530.83,6851.87 L 13480.99,6851.93 L 13479.73,6621.87 L 13530.11,6622.39 L 13529.99,6560.54 Z" />
    <path class="building" d="M 5093.05,7797.46 L 5095.59,7780.54 L 6087.61,7941.33 L 6022.66,8306.95 L 5960.86,8299.45 L 5951.07,8349.55 L 4941.17,8184.55 L 4984.12,7921.91 L 5034.25,7929.51 L 5057.02,7792.95 L 5093.05,7797.46 Z" />
    <path class="building" d="M 924.06,1000.40 L 1568.36,1012.99 L 1566.57,922.99 L 1880.10,928.66 L 1881.99,1019.12 L 2136.51,1024.09 L 2121.00,1825.46 L 908.59,1801.77 L 924.06,1000.40 Z" />
    <path class="building" d="M 3553.73,1653.86 L 4853.30,1652.82 L 4852.16,1787.86 L 4844.51,1787.79 L 4843.51,1956.47 L 4850.75,1956.53 L 4849.40,2118.29 L 4411.37,2114.16 L 4411.76,2160.24 L 4465.88,2160.87 L 4465.14,2276.87 L 4231.13,2277.71 L 4231.03,2158.16 L 4287.83,2158.82 L 4287.44,2113.00 L 3550.76,2106.07 L 3553.73,1653.86 Z" />
    <path class="building" d="M 2268.76,1003.93 L 2280.78,984.64 L 2301.22,961.02 L 2328.14,932.78 L 2376.93,892.39 L 2432.02,852.59 L 2456.33,836.30 L 2492.30,816.65 L 2492.65,812.32 L 2497.05,801.30 L 2505.95,790.96 L 2517.92,784.39 L 2534.43,781.93 L 2543.82,782.04 L 2553.79,783.27 L 2558.23,785.09 L 2561.34,783.57 L 2614.81,766.10 L 2654.80,754.95 L 2736.40,738.94 L 2774.76,736.02 L 2819.06,734.40 L 2864.17,735.02 L 2912.73,739.61 L 2955.40,745.85 L 2999.31,756.53 L 3064.54,776.64 L 3111.23,795.03 L 3147.21,812.60 L 3190.74,836.66 L 3245.03,874.91 L 3335.46,950.82 L 3362.11,979.42 L 3379.06,1004.60 L 3316.60,1050.11 L 3330.09,1064.69 L 3312.34,1077.80 L 3355.45,1126.80 L 3354.12,1319.70 L 3355.49,1799.51 L 2657.61,1799.22 L 2649.90,2029.27 L 3171.26,2031.80 L 3172.51,1971.58 L 3282.84,1972.96 L 3284.07,2032.35 L 3345.52,2032.65 L 3344.64,2341.85 L 3195.08,2340.34 L 3194.82,2358.50 L 3161.99,2359.41 L 3162.40,2340.50 L 2293.87,2340.13 L 2291.91,1914.68 L 2445.18,1915.40 L 2446.50,1799.14 L 2286.94,1799.08 L 2288.75,1126.37 L 2343.08,1060.46 L 2268.76,1003.93 Z" />
    <path class="building" d="M 2375.15,3011.39 L 2703.50,3012.59 L 2706.21,2927.10 L 2908.80,2929.26 L 2907.77,3013.34 L 3224.19,3014.50 L 3221.87,3314.69 L 2675.53,3316.31 L 2672.14,3806.07 L 2611.01,3805.78 L 2611.50,3752.93 L 2369.52,3750.98 L 2375.15,3011.39 Z" />
    <path class="building" d="M 3481.73,3013.15 L 4216.24,3018.45 L 4216.72,2932.76 L 4466.90,2931.38 L 4468.50,3020.27 L 5200.00,3025.54 L 5196.12,3341.16 L 4532.93,3336.21 L 4533.28,3456.98 L 4146.26,3455.47 L 4145.86,3333.24 L 3480.74,3325.73 L 3481.73,3013.15 Z" />
    <path class="building" d="M 2359.65,4017.52 L 2682.41,4014.00 L 2683.31,4054.59 L 2674.47,4054.84 L 2667.93,4437.03 L 2763.04,4437.67 L 2761.52,4667.51 L 2664.01,4666.86 L 2654.87,5374.86 L 2660.54,5374.70 L 2659.91,5389.96 L 2344.25,5388.14 L 2359.65,4017.52 Z" />
    <path class="building" d="M 3502.33,4517.98 L 3587.32,4518.98 L 3587.05,4474.73 L 3922.02,4476.01 L 3922.52,4509.52 L 4982.12,4520.32 L 4982.76,4534.29 L 5153.30,4532.71 L 5153.87,4730.05 L 5158.73,4730.00 L 5156.69,4823.06 L 5174.75,4823.71 L 5174.31,4923.63 L 5154.02,4923.99 L 5151.97,5219.13 L 5071.20,5219.60 L 5070.35,5272.40 L 4665.04,5270.50 L 4665.31,5225.67 L 3579.55,5215.95 L 3579.14,5204.15 L 3499.71,5204.74 L 3500.84,4914.76 L 3479.18,4914.22 L 3480.73,4807.81 L 3501.94,4807.89 L 3502.33,4517.98 Z" />
    <path class="building" d="M 11448.31,2608.09 L 11443.96,2519.88 L 11936.57,2495.70 L 11937.54,2522.91 L 11969.51,2521.23 L 11973.77,2620.44 L 11941.10,2622.40 L 11943.56,2691.25 L 12023.28,2687.38 L 12021.53,2652.29 L 12212.21,2643.62 L 12214.73,2678.07 L 12292.75,2675.69 L 12289.42,2607.07 L 12255.82,2608.91 L 12251.93,2505.72 L 12284.43,2504.26 L 12283.18,2478.69 L 13428.92,2422.45 L 13435.62,2613.62 L 13468.77,2612.12 L 13467.35,2556.10 L 13646.50,2547.86 L 13649.47,2603.90 L 13684.37,2602.32 L 13671.86,2410.52 L 14152.96,2386.91 L 14170.11,2736.81 L 13904.32,2750.00 L 13914.52,2942.80 L 13340.66,2974.61 L 13352.87,3252.74 L 12426.20,3299.52 L 12409.53,3017.41 L 11743.24,3054.12 L 11741.45,3028.15 L 11711.32,3029.36 L 11704.20,2926.92 L 11734.35,2925.31 L 11729.77,2858.79 L 11461.38,2873.15 L 11457.02,2784.77 L 11415.95,2786.12 L 11410.15,2609.07 L 11448.31,2608.09 Z" />
  </g>
  <g id="gis_room_A6T_B5">
    <path class="room" d="M 2312.87,1916.15 L 2313.23,1825.63 L 2314.78,1825.63 L 2314.79,1823.67 L 2396.01,1824.00 L 2395.64,1918.43 L 2314.42,1918.11 L 2314.43,1916.15 L 2312.87,1916.15 Z" />
    <text x="2354.44" y="1871.05" class="label">樓梯</text>
    <path class="room" d="M 2301.78,2168.80 L 2302.02,2107.58 L 2372.24,2107.86 L 2372.00,2169.08 L 2301.78,2168.80 Z" />
    <text x="2337.01" y="2138.33" class="label">電梯</text>
    <path class="room" d="M 2376.52,1938.54 L 2376.60,1918.35 L 2397.97,1918.44 L 2397.89,1938.63 L 2376.52,1938.54 Z" />
    <text x="2387.25" y="1928.49" class="label">機電</text>
    <path class="room" d="M 3169.78,2320.08 L 3170.11,2236.07 L 3321.02,2236.66 L 3320.94,2258.16 L 3332.60,2258.20 L 3332.45,2295.98 L 3325.97,2295.95 L 3325.79,2342.19 L 3191.07,2341.66 L 3191.15,2320.16 L 3169.78,2320.08 Z" />
    <text x="3251.19" y="2289.13" class="label">特別安全梯</text>
    <path class="room" d="M 2372.00,2169.08 L 2372.24,2107.86 L 2438.68,2108.12 L 2438.44,2169.34 L 2372.00,2169.08 Z" />
    <text x="2405.34" y="2138.60" class="label">電梯</text>
    <path class="room" d="M 3232.69,2132.76 L 3233.07,2035.72 L 3321.81,2036.08 L 3321.72,2057.57 L 3327.94,2057.59 L 3327.77,2101.88 L 3295.64,2101.75 L 3295.52,2133.01 L 3232.69,2132.76 Z M 3321.72,2057.57 L 3321.72,2057.57 L 3321.81,2036.08 L 3321.81,2036.08 L 3321.72,2057.57 Z" />
    <text x="3280.32" y="2084.37" class="label">儲藏室</text>
  </g>
  <g id="gis_room_HR_B5">
    <path class="room" d="M 3034.96,1517.04 L 3036.29,1179.68 L 3150.28,1180.14 L 3148.96,1517.49 L 3034.96,1517.04 Z" />
    <text x="3092.62" y="1348.59" class="label">自來水箱室</text>
    <path class="room" d="M 3246.84,1499.13 L 3247.50,1331.10 L 3323.28,1331.40 L 3323.19,1355.50 L 3331.22,1355.53 L 3330.60,1511.84 L 3322.57,1511.80 L 3322.48,1535.90 L 3279.08,1535.73 L 3279.22,1499.26 L 3246.84,1499.13 Z" />
    <text x="3289.03" y="1433.50" class="label">特別安全梯</text>
    <path class="room" d="M 3259.15,1663.95 L 3259.39,1602.08 L 3335.17,1602.38 L 3334.93,1664.25 L 3259.15,1663.95 Z" />
    <text x="3297.16" y="1633.17" class="label">電梯</text>
    <path class="room" d="M 2303.79,1656.16 L 2304.01,1598.29 L 2379.80,1598.59 L 2379.57,1656.46 L 2303.79,1656.16 Z" />
    <text x="2341.79" y="1627.38" class="label">電梯</text>
    <path class="room" d="M 2303.35,1768.27 L 2303.56,1713.19 L 2379.35,1713.49 L 2379.04,1792.67 L 2316.21,1792.42 L 2316.30,1768.32 L 2303.35,1768.27 Z" />
    <text x="2341.35" y="1752.93" class="label">電梯</text>
    <path class="room" d="M 2309.29,1507.79 L 2309.90,1351.48 L 2317.94,1351.51 L 2318.03,1327.42 L 2393.81,1327.72 L 2393.16,1495.74 L 2360.77,1495.62 L 2360.63,1532.08 L 2317.23,1531.91 L 2317.32,1507.82 L 2309.29,1507.79 Z" />
    <text x="2351.55" y="1429.75" class="label">特別安全梯</text>
    <path class="room" d="M 3308.97,1279.25 L 3309.27,1205.39 L 3336.73,1205.50 L 3336.44,1279.35 L 3308.97,1279.25 Z" />
    <text x="3322.85" y="1242.37" class="label">撒水</text>
    <path class="room" d="M 2303.56,1713.19 L 2303.79,1656.16 L 2379.57,1656.46 L 2379.35,1713.49 L 2303.56,1713.19 Z" />
    <text x="2341.57" y="1684.83" class="label">電梯</text>
    <path class="room" d="M 2989.27,1770.99 L 2989.94,1601.01 L 3171.30,1601.73 L 3170.63,1771.71 L 3168.69,1771.70 L 3168.68,1773.66 L 3013.23,1773.04 L 3013.24,1771.09 L 2989.27,1770.99 Z" />
    <text x="3080.29" y="1687.33" class="label">資源回收處理室</text>
    <path class="room" d="M 2456.21,1768.88 L 2457.13,1534.42 L 2470.08,1534.47 L 2470.18,1508.42 L 2468.24,1508.41 L 2468.85,1352.11 L 2470.80,1352.12 L 2470.90,1326.07 L 2468.96,1326.06 L 2469.64,1151.89 L 2476.07,1144.25 L 3166.69,1146.98 L 3173.05,1154.68 L 3172.37,1328.85 L 3170.43,1328.84 L 3170.32,1354.89 L 3172.27,1354.90 L 3171.66,1511.20 L 3169.71,1511.20 L 3169.61,1537.25 L 3171.55,1537.26 L 3171.30,1601.73 L 2989.94,1601.01 L 2989.27,1770.99 L 2987.33,1770.98 L 2987.24,1795.08 L 2911.45,1794.78 L 2911.49,1784.75 L 2831.82,1784.43 L 2831.88,1770.37 L 2805.97,1770.26 L 2805.92,1783.29 L 2650.47,1782.67 L 2650.52,1769.65 L 2624.61,1769.55 L 2624.56,1783.61 L 2544.89,1783.30 L 2544.85,1793.33 L 2469.07,1793.03 L 2469.16,1768.93 L 2456.21,1768.88 Z M 2625.53,1535.09 L 2651.44,1535.19 L 2651.54,1509.14 L 2625.63,1509.04 L 2625.53,1535.09 Z M 2626.25,1352.74 L 2652.16,1352.84 L 2652.26,1326.79 L 2626.35,1326.69 L 2626.25,1352.74 Z M 2806.89,1535.81 L 2832.80,1535.91 L 2832.90,1509.86 L 2806.99,1509.76 L 2806.89,1535.81 Z M 2807.61,1353.46 L 2833.52,1353.56 L 2833.62,1327.51 L 2807.71,1327.40 L 2807.61,1353.46 Z M 2988.25,1536.53 L 3014.16,1536.63 L 3014.26,1510.58 L 2988.35,1510.48 L 2988.25,1536.53 Z M 2988.97,1354.17 L 3014.87,1354.28 L 3014.98,1328.23 L 2989.07,1328.12 L 2988.97,1354.17 Z M 3034.96,1517.04 L 3148.96,1517.49 L 3150.28,1180.14 L 3036.29,1179.68 L 3034.96,1517.04 Z" />
    <text x="2814.63" y="1469.66" class="label">停車場</text>
    <path class="room" d="M 2709.14,803.09 L 2721.91,800.88 L 2721.65,799.34 L 2735.04,797.43 L 2748.48,795.80 L 2761.94,794.45 L 2775.43,793.39 L 2788.94,792.60 L 2802.47,792.09 L 2816.00,791.86 L 2829.53,791.92 L 2843.06,792.25 L 2856.58,792.87 L 2870.08,793.76 L 2883.56,794.94 L 2897.02,796.39 L 2910.44,798.13 L 2923.82,800.14 L 2923.55,801.67 L 2949.04,806.30 L 2949.32,804.76 L 2962.56,807.58 L 2975.74,810.67 L 2988.85,814.04 L 3001.89,817.67 L 3014.85,821.58 L 3027.73,825.75 L 3040.53,830.19 L 3053.22,834.89 L 3065.82,839.86 L 3078.32,845.09 L 3090.70,850.57 L 3102.97,856.31 L 3115.12,862.31 L 3127.14,868.55 L 3139.03,875.05 L 3138.25,876.39 L 3149.44,882.95 L 3064.73,1029.15 L 3053.54,1022.59 L 3040.49,1045.10 L 3051.69,1051.66 L 2996.84,1146.31 L 2767.79,1145.40 L 2742.11,995.51 L 2754.87,993.30 L 2750.48,967.62 L 2737.71,969.83 L 2709.14,803.09 Z M 2889.07,993.83 L 2914.57,998.45 L 2919.17,972.82 L 2893.67,968.19 L 2889.07,993.83 Z" />
    <text x="2929.29" y="969.09" class="label">自設變電站</text>
  </g>
  <g id="gis_room_PK_B5">
    <path class="room" d="M 3338.80,2987.91 L 3339.35,2846.98 L 3341.95,2846.99 L 3342.03,2825.11 L 3404.21,2825.35 L 3404.13,2847.24 L 3415.78,2847.28 L 3415.24,2986.65 L 3408.76,2986.63 L 3408.75,2988.19 L 3338.80,2987.91 Z" />
    <text x="3377.29" y="2906.65" class="label">樓梯</text>
    <path class="room" d="M 7122.72,3824.59 L 7122.91,3776.40 L 7144.28,3776.48 L 7144.37,3754.99 L 7289.45,3755.57 L 7289.37,3777.06 L 7290.92,3777.06 L 7290.73,3825.26 L 7289.18,3825.25 L 7289.13,3838.54 L 7144.04,3837.96 L 7144.09,3824.67 L 7122.72,3824.59 Z" />
    <text x="7206.82" y="3796.76" class="label">樓梯</text>
    <path class="room" d="M 6800.63,2387.26 L 6800.85,2331.90 L 6811.86,2331.94 L 6811.90,2320.22 L 6856.60,2320.40 L 6856.33,2387.48 L 6800.63,2387.26 Z" />
    <text x="6828.61" y="2353.85" class="label">電梯</text>
    <path class="room" d="M 5324.82,2957.76 L 5325.37,2818.39 L 5337.03,2818.44 L 5337.12,2796.56 L 5399.30,2796.80 L 5399.21,2818.69 L 5410.87,2818.73 L 5410.32,2958.10 L 5403.85,2958.08 L 5403.83,2961.33 L 5331.29,2961.05 L 5331.30,2957.79 L 5324.82,2957.76 Z" />
    <text x="5367.85" y="2878.95" class="label">樓梯</text>
    <path class="room" d="M 5028.07,2488.32 L 5028.72,2323.29 L 5116.16,2323.64 L 5116.15,2325.20 L 5118.10,2325.21 L 5117.59,2455.46 L 5115.64,2455.45 L 5115.55,2478.90 L 5117.49,2478.91 L 5117.46,2488.68 L 5028.07,2488.32 Z" />
    <text x="5073.09" y="2405.98" class="label">樓梯</text>
    <path class="room" d="M 6897.25,2524.80 L 6897.48,2464.49 L 6992.70,2464.87 L 6992.63,2481.15 L 6994.19,2481.16 L 6994.02,2525.18 L 6897.25,2524.80 Z M 6897.25,2524.80 L 6897.25,2524.80 L 6897.36,2496.27 L 6897.36,2496.27 L 6897.25,2524.80 Z" />
    <text x="6945.72" y="2494.84" class="label">女廁</text>
    <path class="room" d="M 3344.03,2316.60 L 3406.21,2316.85 L 3406.20,2318.41 L 3429.52,2318.51 L 3429.52,2316.94 L 3691.20,2317.98 L 3691.19,2319.54 L 3714.51,2319.63 L 3714.52,2318.07 L 3976.19,2319.11 L 3976.19,2320.68 L 3987.84,2320.72 L 3987.33,2450.97 L 3975.67,2450.93 L 3975.58,2474.37 L 3777.25,2473.59 L 3777.34,2452.09 L 3713.99,2451.84 L 3714.00,2449.89 L 3690.68,2449.80 L 3690.67,2451.77 L 3428.86,2487.20 L 3428.86,2485.23 L 3344.03,2316.60 Z M 3406.20,2318.41 L 3429.52,2318.51 L 3406.20,2318.41 L 3406.20,2318.41 Z" />
    <text x="3665.94" y="2401.90" class="label">汽車車道</text>
    <path class="room" d="M 6800.09,2524.41 L 6800.24,2486.90 L 6811.25,2486.94 L 6811.34,2464.15 L 6862.51,2464.35 L 6862.38,2496.13 L 6897.36,2496.27 L 6897.25,2524.80 L 6800.09,2524.41 Z" />
    <text x="6848.73" y="2494.47" class="label">男廁</text>
    <path class="room" d="M 6637.21,4153.76 L 6731.85,3962.40 L 6804.15,3962.70 L 6815.42,3962.24 L 6826.62,3960.77 L 6837.63,3958.31 L 6848.39,3954.88 L 6858.80,3950.50 L 6868.78,3945.21 L 6878.26,3939.05 L 6887.15,3932.06 L 6895.40,3924.31 L 6902.92,3915.85 L 6909.67,3906.76 L 6915.59,3897.10 L 6920.64,3886.95 L 6924.76,3876.38 L 6927.94,3865.49 L 6930.19,3865.50 L 6930.23,3853.74 L 6930.36,3822.00 L 7120.78,3822.76 L 7120.68,3848.03 L 7122.24,3848.03 L 7121.83,3951.97 L 7120.28,3951.96 L 7120.21,3967.95 L 7108.93,3979.21 L 7110.02,3980.31 L 6934.96,4154.95 L 6932.93,4154.94 L 6932.94,4153.38 L 6909.62,4153.28 L 6909.62,4154.85 L 6673.85,4153.91 L 6673.86,4152.35 L 6650.54,4152.25 L 6650.53,4153.82 L 6637.21,4153.76 Z M 6887.16,3932.06 L 6887.16,3932.06 L 6895.40,3924.31 L 6902.92,3915.85 L 6909.67,3906.76 L 6915.59,3897.10 L 6920.64,3886.95 L 6924.76,3876.38 L 6927.94,3865.49 L 6924.76,3876.38 L 6920.64,3886.95 L 6915.59,3897.10 L 6909.67,3906.76 L 6902.92,3915.85 L 6895.40,3924.31 L 6887.16,3932.06 Z" />
    <text x="6879.72" y="3988.48" class="label">汽車車道</text>
    <path class="room" d="M 6800.34,2460.85 L 6800.63,2387.26 L 6856.33,2387.48 L 6856.60,2320.40 L 6993.26,2320.94 L 6993.24,2327.45 L 6999.72,2327.48 L 6999.40,2408.89 L 6897.71,2408.48 L 6897.36,2496.27 L 6862.38,2496.13 L 6862.51,2464.35 L 6811.34,2464.15 L 6811.35,2460.89 L 6800.34,2460.85 Z M 6897.36,2496.27 L 6897.36,2496.27 L 6897.49,2464.49 L 6897.48,2464.49 L 6897.36,2496.27 Z" />
    <text x="6900.03" y="2408.33" class="label">樓梯</text>
    <path class="room" d="M 2309.33,2819.45 L 2309.84,2689.19 L 2311.40,2689.20 L 2311.49,2665.75 L 2309.93,2665.74 L 2310.14,2613.65 L 2311.69,2613.66 L 2311.89,2564.16 L 2310.33,2564.15 L 2310.57,2504.24 L 2312.12,2504.24 L 2312.21,2480.80 L 2310.66,2480.79 L 2311.21,2340.12 L 2312.76,2340.13 L 2312.77,2338.17 L 2442.31,2338.69 L 2442.31,2340.64 L 2465.62,2340.73 L 2465.72,2317.29 L 2463.77,2317.28 L 2464.80,2054.17 L 2466.75,2054.18 L 2466.84,2030.73 L 2464.90,2030.72 L 2465.25,1940.20 L 2467.20,1940.21 L 2467.28,1918.72 L 2627.26,1919.35 L 2627.63,1826.87 L 2649.00,1826.95 L 2649.09,1803.51 L 2625.78,1803.41 L 2625.74,1813.18 L 2467.70,1812.56 L 2467.73,1802.79 L 2465.79,1802.78 L 2465.82,1794.97 L 2546.78,1795.29 L 2546.82,1785.26 L 2624.55,1785.57 L 2624.51,1795.59 L 2650.42,1795.70 L 2650.46,1784.63 L 2805.91,1785.24 L 2805.87,1796.32 L 2831.78,1796.42 L 2831.82,1786.39 L 2909.54,1786.70 L 2909.50,1796.73 L 2990.47,1797.05 L 2990.44,1804.86 L 2988.49,1804.85 L 2988.46,1814.62 L 2830.41,1814.00 L 2830.45,1804.23 L 2807.13,1804.14 L 2807.04,1827.58 L 2828.42,1827.66 L 2828.05,1920.14 L 2989.98,1920.79 L 2989.75,1978.75 L 3171.11,1979.47 L 3170.90,2033.52 L 3168.96,2033.52 L 3168.95,2035.47 L 3010.91,2034.84 L 3010.92,2032.89 L 2987.60,2032.80 L 2987.51,2056.24 L 2989.45,2056.25 L 2988.42,2319.36 L 2986.47,2319.35 L 2986.38,2342.80 L 3009.70,2342.89 L 3009.71,2340.94 L 3167.75,2341.56 L 3167.74,2343.52 L 3191.06,2343.61 L 3191.07,2341.66 L 3325.79,2342.19 L 3325.78,2344.15 L 3343.92,2344.22 L 3344.03,2316.60 L 3428.86,2485.23 L 3428.86,2487.20 L 3690.67,2451.77 L 3690.59,2473.24 L 3713.91,2473.33 L 3713.99,2451.84 L 3777.34,2452.09 L 3777.25,2473.59 L 3998.90,2474.46 L 3998.99,2451.02 L 3987.33,2450.97 L 3987.84,2320.72 L 3999.50,2320.77 L 3999.51,2319.20 L 4261.18,2320.24 L 4261.18,2321.80 L 4284.49,2321.90 L 4284.50,2320.33 L 4546.18,2321.37 L 4546.17,2322.94 L 4569.49,2323.03 L 4569.49,2321.47 L 4831.17,2322.51 L 4831.16,2324.07 L 4854.48,2324.16 L 4854.48,2322.60 L 5028.72,2323.29 L 5028.07,2488.32 L 5117.46,2488.68 L 5117.49,2478.91 L 5138.87,2478.99 L 5138.96,2455.55 L 5117.59,2455.46 L 5117.94,2366.24 L 5204.73,2366.58 L 5204.90,2323.99 L 5401.15,2324.77 L 5401.15,2326.33 L 5424.46,2326.43 L 5424.47,2324.86 L 5686.14,2325.90 L 5686.14,2327.47 L 5709.46,2327.56 L 5709.46,2326.00 L 5971.14,2327.04 L 5971.13,2328.60 L 5973.07,2328.61 L 5972.56,2458.86 L 5970.62,2458.85 L 5970.53,2482.30 L 5993.85,2482.39 L 5993.85,2480.44 L 6125.99,2480.96 L 6125.98,2482.91 L 6149.30,2483.01 L 6149.39,2459.56 L 6147.44,2459.55 L 6147.96,2329.30 L 6149.90,2329.31 L 6149.91,2327.75 L 6397.33,2328.73 L 6397.32,2330.29 L 6423.23,2330.40 L 6423.24,2328.83 L 6785.96,2330.28 L 6785.95,2331.84 L 6800.85,2331.90 L 6800.34,2460.85 L 6785.44,2460.79 L 6785.34,2486.84 L 6786.90,2486.85 L 6786.27,2645.75 L 6784.72,2645.75 L 6784.61,2671.80 L 6786.17,2671.81 L 6785.66,2799.45 L 6784.11,2799.44 L 6784.01,2825.50 L 6785.56,2825.50 L 6784.73,3036.51 L 6783.18,3036.50 L 6783.08,3062.56 L 6784.63,3062.56 L 6783.80,3273.57 L 6782.25,3273.56 L 6782.14,3299.61 L 6783.70,3299.62 L 6782.95,3488.49 L 6781.40,3488.48 L 6781.29,3517.13 L 6809.79,3517.25 L 6809.79,3515.68 L 6910.83,3516.09 L 6910.83,3517.65 L 6936.74,3517.75 L 6936.74,3516.19 L 7121.99,3516.93 L 7121.98,3518.49 L 7123.53,3518.50 L 7123.32,3572.94 L 7290.17,3573.60 L 7290.17,3575.17 L 7291.72,3575.18 L 7291.02,3753.62 L 7289.46,3753.61 L 7289.45,3755.57 L 7144.37,3754.99 L 7144.38,3753.04 L 7121.06,3752.94 L 7120.97,3776.39 L 7122.91,3776.40 L 7122.72,3824.59 L 7120.78,3824.58 L 7120.78,3822.76 L 6930.94,3822.01 L 6929.07,3809.69 L 6926.02,3797.62 L 6921.81,3785.90 L 6916.49,3774.65 L 6910.10,3763.97 L 6902.71,3753.98 L 6894.38,3744.75 L 6885.20,3736.39 L 6875.25,3728.96 L 6864.63,3722.55 L 6853.44,3717.20 L 6841.79,3712.98 L 6829.77,3709.92 L 6817.52,3708.06 L 6805.15,3707.40 L 6733.91,3707.12 L 6714.91,3708.48 L 6696.33,3712.68 L 6678.58,3719.63 L 6662.07,3729.17 L 6647.16,3741.09 L 6634.19,3755.12 L 6623.46,3770.94 L 6615.20,3788.19 L 6609.60,3806.50 L 6606.79,3825.44 L 6606.83,3844.58 L 6609.71,3863.51 L 6615.38,3881.79 L 6623.71,3899.02 L 6634.50,3914.79 L 6633.49,3916.00 L 6667.12,3944.59 L 6667.65,3943.96 L 6671.55,3946.23 L 6675.52,3948.37 L 6679.56,3950.36 L 6683.67,3952.21 L 6687.85,3953.91 L 6692.08,3955.46 L 6696.36,3956.86 L 6700.69,3958.10 L 6705.07,3959.19 L 6709.47,3960.12 L 6713.91,3960.90 L 6718.37,3961.51 L 6722.85,3961.97 L 6727.35,3962.27 L 6731.85,3962.40 L 6637.21,4153.76 L 6599.28,4153.61 L 6425.60,3977.59 L 6426.70,3976.49 L 6415.51,3965.15 L 6415.57,3949.16 L 6414.02,3949.15 L 6414.42,3846.52 L 6417.27,3846.53 L 6417.37,3820.48 L 6415.82,3820.48 L 6417.01,3516.99 L 6418.57,3517.00 L 6418.67,3490.94 L 6417.11,3490.94 L 6417.87,3298.16 L 6419.43,3298.17 L 6419.53,3272.12 L 6417.98,3272.12 L 6418.80,3061.11 L 6420.36,3061.11 L 6420.46,3035.06 L 6418.91,3035.06 L 6419.72,2827.95 L 6421.27,2827.96 L 6421.39,2799.31 L 6392.89,2799.19 L 6392.88,2800.75 L 6148.05,2799.78 L 6148.06,2798.22 L 6124.74,2798.12 L 6124.73,2799.69 L 5992.60,2799.16 L 5992.61,2797.60 L 5969.29,2797.51 L 5969.28,2799.07 L 5707.61,2798.03 L 5707.61,2796.47 L 5684.30,2796.38 L 5684.29,2797.94 L 5422.62,2796.90 L 5422.62,2795.33 L 5399.30,2795.24 L 5399.30,2796.80 L 5337.12,2796.56 L 5337.12,2794.99 L 5313.81,2794.90 L 5313.80,2796.46 L 5137.62,2795.76 L 5137.63,2794.20 L 5114.31,2794.11 L 5114.31,2795.67 L 4852.63,2794.63 L 4852.64,2793.07 L 4829.32,2792.98 L 4829.31,2794.54 L 4567.64,2793.50 L 4567.65,2791.94 L 4546.27,2791.85 L 4546.78,2661.60 L 4568.16,2661.69 L 4568.25,2638.24 L 4544.93,2638.15 L 4544.85,2659.64 L 4465.18,2659.32 L 4464.65,2793.09 L 4282.65,2792.37 L 4282.65,2790.81 L 4259.34,2790.72 L 4259.33,2792.28 L 3997.66,2791.24 L 3997.66,2789.68 L 3974.34,2789.58 L 3974.34,2791.15 L 3712.66,2790.11 L 3712.67,2788.54 L 3689.35,2788.45 L 3689.35,2790.03 L 3416.53,2823.84 L 3404.22,2823.79 L 3404.21,2825.35 L 3342.03,2825.11 L 3342.04,2823.54 L 3318.72,2823.45 L 3318.71,2825.01 L 3189.17,2824.50 L 3189.18,2822.94 L 3165.86,2822.85 L 3165.85,2824.41 L 3007.81,2823.78 L 3007.82,2822.22 L 2984.50,2822.13 L 2984.50,2823.69 L 2826.45,2823.06 L 2826.46,2821.50 L 2803.14,2821.41 L 2803.14,2822.97 L 2645.10,2822.34 L 2645.10,2820.78 L 2621.79,2820.69 L 2621.78,2822.25 L 2463.74,2821.62 L 2463.74,2820.06 L 2440.43,2819.97 L 2440.42,2821.53 L 2310.88,2821.02 L 2310.88,2819.46 L 2309.33,2819.45 Z M 2440.43,2819.97 L 2463.74,2820.06 L 2463.74,2820.06 L 2440.43,2819.97 Z M 2440.94,2689.71 L 2464.25,2689.80 L 2464.35,2666.35 L 2441.03,2666.26 L 2440.94,2689.71 Z M 2441.66,2504.76 L 2464.98,2504.85 L 2465.07,2481.40 L 2441.75,2481.31 L 2441.66,2504.76 Z M 2543.99,2506.47 L 2569.90,2506.57 L 2570.00,2480.52 L 2544.10,2480.42 L 2543.99,2506.47 Z M 2622.29,2690.43 L 2645.61,2690.52 L 2645.71,2667.08 L 2622.39,2666.98 L 2622.29,2690.43 Z M 2623.66,2341.36 L 2646.98,2341.45 L 2647.07,2318.00 L 2623.76,2317.91 L 2623.66,2341.36 Z M 2624.79,2054.80 L 2648.11,2054.90 L 2648.20,2031.45 L 2624.88,2031.36 L 2624.79,2054.80 Z M 2803.65,2691.15 L 2826.97,2691.24 L 2827.06,2667.79 L 2803.75,2667.70 L 2803.65,2691.15 Z M 2805.02,2342.08 L 2828.34,2342.17 L 2828.43,2318.73 L 2805.11,2318.63 L 2805.02,2342.08 Z M 2806.15,2055.52 L 2829.46,2055.62 L 2829.56,2032.17 L 2806.24,2032.08 L 2806.15,2055.52 Z M 2880.80,2507.80 L 2906.71,2507.90 L 2906.82,2481.85 L 2880.91,2481.75 L 2880.80,2507.80 Z M 2985.01,2691.87 L 3008.33,2691.96 L 3008.42,2668.51 L 2985.10,2668.42 L 2985.01,2691.87 Z M 2985.74,2506.91 L 3009.05,2507.01 L 3009.15,2483.56 L 2985.83,2483.47 L 2985.74,2506.91 Z M 3166.37,2692.59 L 3189.69,2692.68 L 3189.78,2669.23 L 3166.46,2669.14 L 3166.37,2692.59 Z M 3167.10,2507.64 L 3190.41,2507.73 L 3190.51,2484.28 L 3167.19,2484.19 L 3167.10,2507.64 Z M 3319.23,2693.19 L 3342.55,2693.28 L 3342.64,2669.84 L 3319.32,2669.75 L 3319.23,2693.19 Z M 3319.96,2508.24 L 3343.27,2508.33 L 3343.37,2484.89 L 3320.05,2484.80 L 3319.96,2508.24 Z M 3404.73,2693.53 L 3428.05,2693.62 L 3428.14,2670.18 L 3404.82,2670.09 L 3404.73,2693.53 Z M 3405.46,2508.58 L 3428.77,2508.67 L 3428.86,2485.23 L 3405.55,2485.14 L 3405.46,2508.58 Z M 3689.86,2658.20 L 3713.18,2658.29 L 3713.27,2634.85 L 3689.95,2634.75 L 3689.86,2658.20 Z M 3974.86,2659.33 L 3998.17,2659.42 L 3998.26,2635.98 L 3974.95,2635.89 L 3974.86,2659.33 Z M 4259.85,2660.46 L 4283.17,2660.55 L 4283.26,2637.11 L 4259.94,2637.02 L 4259.85,2660.46 Z M 4260.57,2475.50 L 4283.89,2475.60 L 4283.98,2452.15 L 4260.67,2452.06 L 4260.57,2475.50 Z M 4545.56,2476.63 L 4568.88,2476.73 L 4568.98,2453.28 L 4545.66,2453.19 L 4545.56,2476.63 Z M 4829.83,2662.73 L 4853.15,2662.82 L 4853.24,2639.37 L 4829.92,2639.28 L 4829.83,2662.73 Z M 4830.56,2477.77 L 4853.88,2477.86 L 4853.97,2454.41 L 4830.65,2454.32 L 4830.56,2477.77 Z M 5114.82,2663.86 L 5138.14,2663.95 L 5138.23,2640.51 L 5114.92,2640.41 L 5114.82,2663.86 Z M 5313.81,2794.90 L 5337.12,2794.99 L 5313.81,2794.90 L 5313.81,2794.90 Z M 5399.82,2664.99 L 5423.13,2665.08 L 5423.23,2641.64 L 5399.91,2641.55 L 5399.82,2664.99 Z M 5400.54,2480.03 L 5423.86,2480.12 L 5423.95,2456.68 L 5400.64,2456.59 L 5400.54,2480.03 Z M 5684.81,2666.12 L 5708.12,2666.22 L 5708.22,2642.77 L 5684.90,2642.68 L 5684.81,2666.12 Z M 5685.53,2481.16 L 5708.85,2481.26 L 5708.94,2457.81 L 5685.63,2457.72 L 5685.53,2481.16 Z M 6125.25,2667.87 L 6148.57,2667.97 L 6148.66,2644.52 L 6125.34,2644.43 L 6125.25,2667.87 Z M 6395.98,2671.55 L 6421.89,2671.66 L 6421.99,2645.61 L 6396.08,2645.51 L 6395.98,2671.55 Z M 6396.71,2485.29 L 6422.62,2485.40 L 6422.73,2459.35 L 6396.82,2459.24 L 6396.71,2485.29 Z" />
    <path class="room" d="M 6417.98,3272.12 L 6418.80,3061.11 L 6420.36,3061.11 L 6420.44,3040.92 L 6485.86,3041.18 L 6484.87,3292.57 L 6419.45,3292.31 L 6419.53,3272.12 L 6417.98,3272.12 Z" />
    <text x="4800.52" y="2969.20" class="label">停車場</text>
  </g>
</svg>