<svg width="16000" height="9099" viewBox="0 0 16000 9099" xmlns="http://www.w3.org/2000/svg" xmlns:xlink="http://www.w3.org/1999/xlink">

    <style>
        .building { fill: #f0f4f8; stroke: #d1dce5; stroke-width: 2; }
        .room     { fill: #ffffff; fill-opacity: 0.8; stroke: #bcccdc; stroke-width: 1; }
        .label    { font-family: "Noto Sans TC", sans-serif; font-size: 24px; fill: #334e68; font-weight: 500; text-anchor: middle; dominant-baseline: middle; }
    </style>
      <g id="gis_gis_building_geom">
    <path class="building" d="M 2949.26,4010.03 L 4140.85,4021.56 L 4142.10,4292.67 L 4130.90,4292.64 L 4130.40,4356.44 L 3226.66,4355.84 L 3226.31,4812.55 L 3401.68,4811.80 L 3401.95,5141.81 L 2942.28,5141.31 L 2949.26,4010.03 Z" />
    <path class="building" d="M 7088.12,2560.89 L 7700.72,2562.04 L 7700.87,2481.66 L 8148.51,2483.00 L 8147.15,2562.88 L 8693.32,2563.92 L 8721.63,2695.28 L 8721.63,2695.28 L 8715.57,3280.48 L 8690.90,3280.61 L 8690.48,3403.55 L 7085.32,3389.98 L 7085.31,3204.63 L 7000.35,3203.97 L 7003.43,2738.84 L 7087.35,2738.26 L 7088.12,2560.89 Z" />
    <path class="building" d="M 4843.51,1956.47 L 4844.51,1787.79 L 4906.35,1787.49 L 4905.24,1712.44 L 5766.54,1719.44 L 5767.05,1759.83 L 6027.80,1762.57 L 6041.22,1778.35 L 6040.91,2113.44 L 5920.93,2113.62 L 5921.58,2180.69 L 4855.22,2175.20 L 4857.61,1956.59 L 4843.51,1956.47 Z" />
    <path class="building" d="M 3188.76,5839.04 L 3184.44,6132.85 L 3009.51,6131.08 L 3010.12,5838.90 L 3188.76,5839.04 Z" />
    <path class="building" d="M 8161.26,3799.06 L 8661.34,3802.64 L 8661.72,3865.86 L 8759.20,3866.25 L 8755.51,3995.61 L 8806.86,3995.16 L 8806.05,4079.95 L 8850.04,4079.42 L 8848.57,4261.53 L 8807.12,4260.63 L 8806.31,4341.05 L 8464.87,4337.40 L 8462.68,4793.00 L 8947.00,4797.31 L 8944.64,5163.38 L 9070.07,5164.43 L 9068.88,5256.28 L 8943.78,5254.69 L 8940.58,5624.81 L 8458.26,5621.41 L 8453.24,6072.52 L 9133.83,6077.89 L 9126.51,6745.48 L 8044.27,6736.86 L 8045.15,6541.70 L 7946.95,6541.19 L 7947.74,6409.27 L 7850.08,6409.19 L 7850.29,6387.18 L 7663.94,6386.98 L 7662.42,6294.92 L 7365.94,6294.05 L 7367.40,6164.56 L 7219.73,6164.20 L 7220.56,6079.32 L 7176.49,6078.82 L 7179.52,5914.56 L 7222.17,5914.94 L 7222.98,5832.54 L 7863.48,5840.16 L 7863.88,5617.56 L 7754.27,5617.59 L 7754.43,5521.38 L 7739.08,5522.23 L 7740.67,5376.11 L 7755.56,5376.17 L 7756.55,5277.27 L 7785.97,5276.79 L 7786.18,5127.15 L 7757.98,5127.35 L 7758.14,5028.99 L 7743.59,5028.70 L 7745.39,4886.44 L 7759.72,4886.75 L 7760.11,4786.55 L 7849.88,4787.63 L 7849.21,4560.97 L 7233.65,4557.12 L 7234.22,4480.71 L 7180.57,4480.46 L 7181.34,4311.50 L 7235.49,4311.75 L 7236.10,4231.20 L 7381.06,4231.84 L 7382.58,4106.09 L 7678.18,4106.93 L 7679.62,4016.64 L 7870.79,4014.88 L 7870.93,3994.82 L 7966.89,3995.55 L 7968.35,3863.10 L 8160.60,3863.87 L 8161.26,3799.06 Z" />
    <path class="building" d="M 1785.34,1818.91 L 1846.80,1820.11 L 1846.08,1868.88 L 1915.10,1869.87 L 1914.84,1881.19 L 1956.32,1881.91 L 1956.29,1947.64 L 1913.30,1947.43 L 1912.91,1964.27 L 1844.69,1963.82 L 1844.25,1993.82 L 2113.96,1996.73 L 2111.80,2313.15 L 1638.41,2309.74 L 1638.57,2369.36 L 1402.42,2370.43 L 1402.86,2308.05 L 913.25,2304.52 L 921.14,1983.86 L 1782.78,1993.15 L 1785.34,1818.91 Z" />
    <path class="building" d="M 1233.29,3176.04 L 1233.24,3086.16 L 1689.31,3086.09 L 1689.85,3178.73 L 2105.12,3181.86 L 2100.21,3742.07 L 811.22,3734.26 L 816.44,3173.49 L 1233.29,3176.04 Z" />
    <path class="building" d="M 4422.39,3825.20 L 4557.45,3823.98 L 4558.56,3948.97 L 4423.51,3950.19 L 4422.39,3825.20 Z" />
    <path class="building" d="M 5454.09,3024.68 L 5470.25,3024.58 L 5470.20,3032.77 L 5776.10,3034.35 L 5777.47,2956.96 L 5982.23,2956.10 L 5981.83,3035.41 L 6304.16,3037.07 L 6307.16,3777.27 L 6169.76,3776.65 L 6170.26,3825.65 L 5997.21,3824.78 L 5999.79,3339.48 L 5451.60,3336.55 L 5454.09,3024.68 Z" />
    <path class="building" d="M 810.23,4162.32 L 2094.03,4174.33 L 2089.09,4719.68 L 2050.10,4719.24 L 2050.20,4746.64 L 1713.11,4742.66 L 1713.39,4715.41 L 805.90,4705.09 L 810.23,4162.32 Z" />
    <path class="building" d="M 5154.02,4923.99 L 5174.31,4923.63 L 5174.75,4823.71 L 5156.69,4823.06 L 5158.73,4730.00 L 5153.87,4730.05 L 5153.30,4532.71 L 4982.76,4534.29 L 4982.12,4520.32 L 4753.21,4517.98 L 4752.95,4206.61 L 5867.58,4215.65 L 5865.18,4622.01 L 5896.39,4622.08 L 5894.82,4763.49 L 6306.89,4767.17 L 6301.07,5688.40 L 5887.43,5691.03 L 5886.89,5832.41 L 5854.54,5832.37 L 5853.47,6070.58 L 5399.78,6064.30 L 5405.55,5280.53 L 5376.56,5280.37 L 5376.79,5215.40 L 5151.84,5213.08 L 5151.97,5219.13 L 5154.02,4923.99 Z" />
    <path class="building" d="M 3393.95,5787.13 L 3442.50,5787.21 L 3442.68,5774.53 L 3630.52,5775.89 L 3631.48,5739.98 L 4112.97,5745.69 L 4113.00,5779.38 L 4284.12,5780.62 L 4284.41,5744.13 L 4286.78,5744.18 L 4286.73,5683.26 L 4511.51,5688.82 L 4511.10,5748.44 L 4600.29,5750.13 L 4600.37,5781.26 L 4984.14,5785.27 L 4983.80,5976.74 L 5219.32,5978.53 L 5219.88,6039.07 L 5265.74,6038.84 L 5260.63,6205.34 L 5217.18,6206.06 L 5217.99,6267.47 L 5167.99,6267.69 L 5166.59,6358.65 L 4403.43,6352.99 L 4402.67,6219.38 L 4187.82,6220.82 L 4189.74,6082.55 L 3392.66,6074.33 L 3392.93,6015.46 L 3346.48,6015.69 L 3345.67,5846.07 L 3393.69,5845.84 L 3393.95,5787.13 Z" />
    <path class="building" d="M 3480.58,1049.19 L 3478.99,999.72 L 3622.50,1000.51 L 3623.18,1050.84 L 3766.99,1052.51 L 3767.46,1154.80 L 3876.62,1155.69 L 3876.12,1302.54 L 4088.23,1299.59 L 4089.53,1365.74 L 4257.77,1366.48 L 4254.19,1531.73 L 3773.89,1529.93 L 3775.24,1614.55 L 3768.91,1632.60 L 3503.68,1632.43 L 3508.43,1214.67 L 3463.89,1214.91 L 3467.11,1049.03 L 3480.58,1049.19 Z" />
    <path class="building" d="M 936.26,5355.33 L 938.67,5282.05 L 1124.06,5283.51 L 1124.24,5251.09 L 1291.35,5250.09 L 1307.39,5242.52 L 1325.18,5238.63 L 1356.16,5233.68 L 1377.43,5232.40 L 1405.24,5235.72 L 1428.02,5240.86 L 1440.65,5244.93 L 1460.13,5252.19 L 1607.57,5253.53 L 1607.60,5288.52 L 1776.51,5290.71 L 1776.60,5240.34 L 2103.44,5244.81 L 2103.50,5356.82 L 2205.45,5356.56 L 2205.38,5378.57 L 2282.83,5379.22 L 2285.51,5565.09 L 2894.09,5569.40 L 2893.37,5633.72 L 2936.68,5633.51 L 2937.52,5803.75 L 2846.36,5804.20 L 2846.34,5953.33 L 2559.91,5955.61 L 2546.09,5965.10 L 2519.95,5972.97 L 2488.77,5982.33 L 2463.81,5984.39 L 2436.80,5986.16 L 2402.61,5984.38 L 2377.54,5982.72 L 2340.87,5977.26 L 2314.70,5972.21 L 2285.31,5960.47 L 2259.99,5947.24 L 1985.67,5944.67 L 1985.29,5908.44 L 1769.65,5909.19 L 1773.26,5665.81 L 1597.93,5664.92 L 1599.05,5851.91 L 1024.38,5845.83 L 1022.48,5808.99 L 1001.29,5809.19 L 1000.42,5661.87 L 882.09,5661.27 L 883.76,5439.25 L 856.33,5438.30 L 859.12,5355.29 L 936.26,5355.33 Z" />
    <path class="building" d="M 13529.99,6560.54 L 14941.59,6571.40 L 14932.04,7144.65 L 14992.06,7145.75 L 14993.21,7490.04 L 14952.13,7489.30 L 14951.20,7527.87 L 13628.49,7517.89 L 13629.06,7497.74 L 13464.17,7496.13 L 13468.50,7115.25 L 13528.85,7116.51 L 13530.83,6851.87 L 13480.99,6851.93 L 13479.73,6621.87 L 13530.11,6622.39 L 13529.99,6560.54 Z" />
    <path class="building" d="M 5093.05,7797.46 L 5095.59,7780.54 L 6087.61,7941.33 L 6022.66,8306.95 L 5960.86,8299.45 L 5951.07,8349.55 L 4941.17,8184.55 L 4984.12,7921.91 L 5034.25,7929.51 L 5057.02,7792.95 L 5093.05,7797.46 Z" />
    <path class="building" d="M 924.06,1000.40 L 1568.36,1012.99 L 1566.57,922.99 L 1880.10,928.66 L 1881.99,1019.12 L 2136.51,1024.09 L 2121.00,1825.46 L 908.59,1801.77 L 924.06,1000.40 Z" />
    <path class="building" d="M 3553.73,1653.86 L 4853.30,1652.82 L 4852.16,1787.86 L 4844.51,1787.79 L 4843.51,1956.47 L 4850.75,1956.53 L 4849.40,2118.29 L 4411.37,2114.16 L 4411.76,2160.24 L 4465.88,2160.87 L 4465.14,2276.87 L 4231.13,2277.71 L 4231.03,2158.16 L 4287.83,2158.82 L 4287.44,2113.00 L 3550.76,2106.07 L 3553.73,1653.86 Z" />
    <path class="building" d="M 2268.76,1003.93 L 2280.78,984.64 L 2301.22,961.02 L 2328.14,932.78 L 2376.93,892.39 L 2432.02,852.59 L 2456.33,836.30 L 2492.30,816.65 L 2492.65,812.32 L 2497.05,801.30 L 2505.95,790.96 L 2517.92,784.39 L 2534.43,781.93 L 2543.82,782.04 L 2553.79,783.27 L 2558.23,785.09 L 2561.34,783.57 L 2614.81,766.10 L 2654.80,754.95 L 2736.40,738.94 L 2774.76,736.02 L 2819.06,734.40 L 2864.17,735.02 L 2912.73,739.61 L 2955.40,745.85 L 2999.31,756.53 L 3064.54,776.64 L 3111.23,795.03 L 3147.21,812.60 L 3190.74,836.66 L 3245.03,874.91 L 3335.46,950.82 L 3362.11,979.42 L 3379.06,1004.60 L 3316.60,1050.11 L 3330.09,1064.69 L 3312.34,1077.80 L 3355.45,1126.80 L 3354.12,1319.70 L 3355.49,1799.51 L 2657.61,1799.22 L 2649.90,2029.27 L 3171.26,2031.80 L 3172.51,1971.58 L 3282.84,1972.96 L 3284.07,2032.35 L 3345.52,2032.65 L 3344.64,2341.85 L 3195.08,2340.34 L 3194.82,2358.50 L 3161.99,2359.41 L 3162.40,2340.50 L 2293.87,2340.13 L 2291.91,1914.68 L 2445.18,1915.40 L 2446.50,1799.14 L 2286.94,1799.08 L 2288.75,1126.37 L 2343.08,1060.46 L 2268.76,1003.93 Z" />
    <path class="building" d="M 2375.15,3011.39 L 2703.50,3012.59 L 2706.21,2927.10 L 2908.80,2929.26 L 2907.77,3013.34 L 3224.19,3014.50 L 3221.87,3314.69 L 2675.53,3316.31 L 2672.14,3806.07 L 2611.01,3805.78 L 2611.50,3752.93 L 2369.52,3750.98 L 2375.15,3011.39 Z" />
    <path class="building" d="M 3481.73,3013.15 L 4216.24,3018.45 L 4216.72,2932.76 L 4466.90,2931.38 L 4468.50,3020.27 L 5200.00,3025.54 L 5196.12,3341.16 L 4532.93,3336.21 L 4533.28,3456.98 L 4146.26,3455.47 L 4145.86,3333.24 L 3480.74,3325.73 L 3481.73,3013.15 Z" />
    <path class="building" d="M 2359.65,4017.52 L 2682.41,4014.00 L 2683.31,4054.59 L 2674.47,4054.84 L 2667.93,4437.03 L 2763.04,4437.67 L 2761.52,4667.51 L 2664.01,4666.86 L 2654.87,5374.86 L 2660.54,5374.70 L 2659.91,5389.96 L 2344.25,5388.14 L 2359.65,4017.52 Z" />
    <path class="building" d="M 3502.33,4517.98 L 3587.32,4518.98 L 3587.05,4474.73 L 3922.02,4476.01 L 3922.52,4509.52 L 4982.12,4520.32 L 4982.76,4534.29 L 5153.30,4532.71 L 5153.87,4730.05 L 5158.73,4730.00 L 5156.69,4823.06 L 5174.75,4823.71 L 5174.31,4923.63 L 5154.02,4923.99 L 5151.97,5219.13 L 5071.20,5219.60 L 5070.35,5272.40 L 4665.04,5270.50 L 4665.31,5225.67 L 3579.55,5215.95 L 3579.14,5204.15 L 3499.71,5204.74 L 3500.84,4914.76 L 3479.18,4914.22 L 3480.73,4807.81 L 3501.94,4807.89 L 3502.33,4517.98 Z" />
    <path class="building" d="M 11448.31,2608.09 L 11443.96,2519.88 L 11936.57,2495.70 L 11937.54,2522.91 L 11969.51,2521.23 L 11973.77,2620.44 L 11941.10,2622.40 L 11943.56,2691.25 L 12023.28,2687.38 L 12021.53,2652.29 L 12212.21,2643.62 L 12214.73,2678.07 L 12292.75,2675.69 L 12289.42,2607.07 L 12255.82,2608.91 L 12251.93,2505.72 L 12284.43,2504.26 L 12283.18,2478.69 L 13428.92,2422.45 L 13435.62,2613.62 L 13468.77,2612.12 L 13467.35,2556.10 L 13646.50,2547.86 L 13649.47,2603.90 L 13684.37,2602.32 L 13671.86,2410.52 L 14152.96,2386.91 L 14170.11,2736.81 L 13904.32,2750.00 L 13914.52,2942.80 L 13340.66,2974.61 L 13352.87,3252.74 L 12426.20,3299.52 L 12409.53,3017.41 L 11743.24,3054.12 L 11741.45,3028.15 L 11711.32,3029.36 L 11704.20,2926.92 L 11734.35,2925.31 L 11729.77,2858.79 L 11461.38,2873.15 L 11457.02,2784.77 L 11415.95,2786.12 L 11410.15,2609.07 L 11448.31,2608.09 Z" />
  </g>
  <g id="gis_room_AM_12F">
    <path class="room" d="M 5111.34,8155.43 L 5121.62,8095.09 L 5181.63,8105.43 L 5171.35,8165.77 L 5111.34,8155.43 Z" />
    <text x="5146.48" y="8130.43" class="label">行動不便兼親子廁所</text>
    <path class="room" d="M 5821.60,8707.33 L 5827.51,8672.67 L 5857.52,8677.84 L 5857.19,8679.77 L 5862.94,8680.76 L 5857.36,8713.49 L 5821.60,8707.33 Z" />
    <text x="5842.27" y="8693.08" class="label">陽台</text>
    <path class="room" d="M 5809.69,8522.78 L 5836.59,8365.00 L 5881.28,8372.70 L 5883.68,8358.58 L 5911.14,8363.31 L 5906.65,8389.63 L 5913.67,8390.84 L 5888.85,8536.42 L 5809.69,8522.78 Z" />
    <text x="5861.68" y="8447.50" class="label">乙梯</text>
    <path class="room" d="M 5051.92,8503.98 L 5061.88,8445.56 L 5141.04,8459.21 L 5130.75,8519.55 L 5075.21,8509.97 L 5075.54,8508.05 L 5051.92,8503.98 Z" />
    <text x="5096.48" y="8482.56" class="label">行動不便電梯L2</text>
    <path class="room" d="M 4970.68,8502.53 L 5000.66,8326.65 L 5158.98,8353.94 L 5153.08,8388.60 L 5073.91,8374.96 L 5051.92,8503.98 L 5050.01,8503.65 L 5047.92,8515.84 L 4970.68,8502.53 Z" />
    <text x="5064.83" y="8421.25" class="label">甲梯</text>
    <path class="room" d="M 5061.88,8445.56 L 5073.91,8374.96 L 5153.08,8388.60 L 5141.04,8459.21 L 5061.88,8445.56 Z" />
    <text x="5107.48" y="8417.08" class="label">緊急升降機L1兼用行動不便電梯</text>
    <path class="room" d="M 5348.02,8370.66 L 5365.31,8269.24 L 5445.11,8282.99 L 5440.18,8311.88 L 5449.12,8313.42 L 5436.76,8385.95 L 5348.02,8370.66 Z" />
    <text x="5398.57" y="8327.60" class="label">會議室</text>
    <path class="room" d="M 5262.73,8300.46 L 5270.83,8252.96 L 5365.31,8269.24 L 5348.02,8370.66 L 5266.31,8356.58 L 5275.50,8302.66 L 5262.73,8300.46 Z" />
    <text x="5314.02" y="8311.81" class="label">會議室</text>
    <path class="room" d="M 5079.82,8340.29 L 5094.82,8252.35 L 5118.43,8256.43 L 5123.36,8227.54 L 5215.93,8243.49 L 5210.02,8278.16 L 5190.87,8274.86 L 5176.86,8357.02 L 5079.82,8340.29 Z" />
    <text x="5147.87" y="8292.28" class="label">女廁</text>
    <path class="room" d="M 5217.21,8567.49 L 5225.60,8518.27 L 5239.01,8520.58 L 5263.99,8374.02 L 5263.35,8373.91 L 5266.31,8356.58 L 5436.76,8385.95 L 5405.35,8570.18 L 5396.41,8568.64 L 5391.49,8597.52 L 5217.21,8567.49 Z" />
    <text x="5326.98" y="8477.05" class="label">會議室</text>
    <path class="room" d="M 5474.89,7965.68 L 5480.80,7931.01 L 5516.55,7937.18 L 5510.97,7969.91 L 5498.84,7967.82 L 5498.51,7969.75 L 5474.89,7965.68 Z" />
    <text x="5495.72" y="7950.46" class="label">陽台</text>
    <path class="room" d="M 5704.71,8005.29 L 5710.62,7970.63 L 5746.37,7976.79 L 5740.46,8011.45 L 5704.71,8005.29 Z" />
    <text x="5725.54" y="7991.04" class="label">陽台</text>
    <path class="room" d="M 5934.53,8044.90 L 5940.44,8010.23 L 5976.19,8016.40 L 5970.61,8049.13 L 5964.86,8048.14 L 5964.54,8050.07 L 5934.53,8044.90 Z" />
    <text x="5955.36" y="8030.15" class="label">陽台</text>
    <path class="room" d="M 5052.24,8293.91 L 5063.84,8225.87 L 5065.76,8226.20 L 5066.09,8224.28 L 5083.32,8227.25 L 5071.40,8297.21 L 5052.24,8293.91 Z" />
    <text x="5067.78" y="8260.75" class="label">花臺</text>
    <path class="room" d="M 5589.80,7985.48 L 5595.71,7950.82 L 5631.46,7956.98 L 5625.55,7991.64 L 5589.80,7985.48 Z" />
    <text x="5610.63" y="7971.23" class="label">陽台</text>
    <path class="room" d="M 5108.82,8170.19 L 5111.34,8155.43 L 5144.53,8161.15 L 5142.02,8175.91 L 5108.82,8170.19 Z" />
    <text x="5126.68" y="8165.67" class="label">資源回收</text>
    <path class="room" d="M 5121.62,8095.09 L 5139.79,7988.54 L 5244.49,8006.58 L 5232.23,8078.47 L 5187.54,8070.77 L 5181.63,8105.43 L 5121.62,8095.09 Z" />
    <text x="5183.05" y="8046.98" class="label">男廁</text>
    <path class="room" d="M 5032.58,8332.15 L 5039.48,8291.71 L 5086.72,8299.85 L 5079.82,8340.29 L 5032.58,8332.15 Z" />
    <text x="5059.65" y="8316.00" class="label">花臺</text>
    <path class="room" d="M 5142.02,8175.91 L 5144.53,8161.15 L 5171.35,8165.77 L 5168.83,8180.53 L 5142.02,8175.91 Z" />
    <text x="5156.68" y="8170.84" class="label">飲水</text>
    <path class="room" d="M 5245.07,7926.07 L 5250.97,7891.41 L 5286.73,7897.57 L 5280.82,7932.23 L 5245.07,7926.07 Z" />
    <text x="5265.90" y="7911.82" class="label">陽台</text>
    <path class="room" d="M 5359.98,7945.87 L 5365.89,7911.21 L 5401.64,7917.37 L 5395.73,7952.03 L 5359.98,7945.87 Z" />
    <text x="5380.81" y="7931.62" class="label">陽台</text>
    <path class="room" d="M 5883.68,8358.58 L 5893.10,8303.38 L 5944.17,8312.18 L 5935.08,8365.46 L 5911.47,8361.39 L 5911.14,8363.31 L 5883.68,8358.58 Z" />
    <text x="5913.93" y="8334.42" class="label">陽臺</text>
    <path class="room" d="M 5247.05,8608.31 L 5252.96,8573.65 L 5288.71,8579.81 L 5282.80,8614.47 L 5247.05,8608.31 Z" />
    <text x="5267.88" y="8594.06" class="label">陽台</text>
    <path class="room" d="M 5819.62,8025.09 L 5825.53,7990.43 L 5861.28,7996.59 L 5855.70,8029.33 L 5843.57,8027.24 L 5843.24,8029.16 L 5819.62,8025.09 Z" />
    <text x="5840.45" y="8009.88" class="label">陽台</text>
    <path class="room" d="M 5361.96,8628.11 L 5367.87,8593.45 L 5391.49,8597.52 L 5391.16,8599.45 L 5403.29,8601.54 L 5397.71,8634.27 L 5361.96,8628.11 Z" />
    <text x="5382.63" y="8613.86" class="label">陽台</text>
    <path class="room" d="M 5051.55,8213.18 L 5060.63,8159.90 L 5074.67,8162.33 L 5065.59,8215.60 L 5051.55,8213.18 Z" />
    <text x="5063.11" y="8187.75" class="label">花臺</text>
    <path class="room" d="M 5213.21,8186.20 L 5225.68,8113.02 L 5273.56,8121.28 L 5261.09,8194.45 L 5213.21,8186.20 Z" />
    <text x="5243.39" y="8153.74" class="label">電力/弱電</text>
    <path class="room" d="M 5706.69,8687.53 L 5712.60,8652.86 L 5736.22,8656.93 L 5735.90,8658.86 L 5748.02,8660.95 L 5742.44,8693.69 L 5706.69,8687.53 Z" />
    <text x="5727.36" y="8673.28" class="label">陽台</text>
    <path class="room" d="M 5591.78,8667.72 L 5597.69,8633.06 L 5633.44,8639.22 L 5627.53,8673.88 L 5591.78,8667.72 Z" />
    <text x="5612.61" y="8653.47" class="label">陽台</text>
    <path class="room" d="M 5476.87,8647.92 L 5482.78,8613.25 L 5518.53,8619.42 L 5512.62,8654.08 L 5476.87,8647.92 Z" />
    <text x="5497.70" y="8633.67" class="label">陽台</text>
    <path class="room" d="M 5065.59,8215.60 L 5074.67,8162.33 L 5109.15,8168.27 L 5100.07,8221.54 L 5098.15,8221.21 L 5092.90,8252.02 L 5094.82,8252.35 L 5086.72,8299.85 L 5071.40,8297.21 L 5083.32,8227.25 L 5066.09,8224.28 L 5067.51,8215.93 L 5065.59,8215.60 Z" />
    <text x="5087.37" y="8231.09" class="label">陽臺</text>
  </g>
  <g id="gis_room_B2D_12F">
    <path class="room" d="M 13392.79,2642.91 L 13459.16,2639.09 L 13462.68,2701.01 L 13396.31,2704.82 L 13392.79,2642.91 Z" />
    <text x="13427.73" y="2671.96" class="label">電梯</text>
    <path class="room" d="M 13765.95,2816.20 L 13856.48,2810.99 L 13863.79,2939.50 L 13857.13,2939.89 L 13857.70,2949.93 L 13780.49,2954.37 L 13779.92,2944.33 L 13773.26,2944.71 L 13765.95,2816.20 Z" />
    <text x="13814.87" y="2882.68" class="label">寢室</text>
    <path class="room" d="M 13356.36,2839.74 L 13447.03,2834.53 L 13454.34,2963.04 L 13447.08,2963.46 L 13447.65,2973.50 L 13370.43,2977.94 L 13369.86,2967.90 L 13363.67,2968.25 L 13356.36,2839.74 Z" />
    <text x="13405.35" y="2906.24" class="label">寢室</text>
    <path class="room" d="M 13447.03,2834.53 L 13537.69,2829.32 L 13545.00,2957.83 L 13537.61,2958.25 L 13538.18,2968.29 L 13460.96,2972.74 L 13460.39,2962.70 L 13454.34,2963.04 L 13447.03,2834.53 Z" />
    <text x="13496.01" y="2901.03" class="label">寢室</text>
    <path class="room" d="M 13265.70,2844.95 L 13356.36,2839.74 L 13363.67,2968.25 L 13356.55,2968.67 L 13357.12,2978.70 L 13279.90,2983.14 L 13279.33,2973.10 L 13273.00,2973.47 L 13265.70,2844.95 Z" />
    <text x="13314.68" y="2911.44" class="label">寢室</text>
    <path class="room" d="M 13475.74,2581.71 L 13708.90,2568.31 L 13711.15,2607.82 L 13477.99,2621.22 L 13475.74,2581.71 Z M 13525.70,2618.35 L 13525.71,2618.48 L 13545.68,2617.33 L 13545.67,2617.20 L 13525.70,2618.35 Z M 13643.46,2611.71 L 13643.46,2611.71 L 13663.43,2610.56 L 13663.43,2610.56 L 13643.46,2611.71 Z" />
    <text x="13593.44" y="2594.77" class="label">曬衣間</text>
    <path class="room" d="M 13537.69,2829.32 L 13675.42,2821.40 L 13682.73,2949.91 L 13676.07,2950.30 L 13676.64,2960.34 L 13551.49,2967.53 L 13550.92,2957.49 L 13545.00,2957.83 L 13537.69,2829.32 Z" />
    <text x="13610.21" y="2894.47" class="label">休憩區</text>
    <path class="room" d="M 13675.42,2821.40 L 13765.95,2816.20 L 13773.26,2944.71 L 13766.60,2945.09 L 13767.17,2955.13 L 13689.96,2959.57 L 13689.38,2949.53 L 13682.73,2949.91 L 13675.42,2821.40 Z" />
    <text x="13724.34" y="2887.88" class="label">寢室</text>
    <path class="room" d="M 13856.48,2810.99 L 13947.15,2805.78 L 13954.46,2934.29 L 13947.67,2934.68 L 13948.24,2944.72 L 13871.02,2949.16 L 13870.45,2939.12 L 13863.79,2939.50 L 13856.48,2810.99 Z" />
    <text x="13905.47" y="2877.47" class="label">寢室</text>
    <path class="room" d="M 13734.47,2685.38 L 13801.04,2681.56 L 13804.44,2741.46 L 13737.88,2745.29 L 13734.47,2685.38 Z" />
    <text x="13769.46" y="2713.42" class="label">電梯</text>
    <path class="room" d="M 13525.71,2618.48 L 13663.43,2610.56 L 13672.30,2766.52 L 13534.57,2774.43 L 13525.71,2618.48 Z M 13533.75,2759.87 L 13534.57,2774.41 L 13552.69,2773.39 L 13551.87,2758.85 L 13533.75,2759.87 Z M 13643.46,2611.71 L 13644.22,2625.10 L 13664.19,2623.95 L 13663.43,2610.56 L 13643.46,2611.71 Z M 13653.35,2753.00 L 13654.18,2767.54 L 13672.29,2766.52 L 13672.30,2766.52 L 13671.47,2751.98 L 13653.35,2753.00 Z" />
    <path class="room" d="M 13525.71,2618.48 L 13545.68,2617.33 L 13546.43,2630.59 L 13526.46,2631.73 L 13525.92,2622.34 L 13525.71,2618.48 Z" />
    <text x="13599.00" y="2692.50" class="label">廁所</text>
    <path class="room" d="M 12941.21,2556.23 L 12976.28,2554.21 L 12970.64,2454.98 L 13447.13,2427.59 L 13458.20,2622.36 L 13253.71,2634.12 L 13262.13,2782.17 L 12990.13,2797.80 L 12981.71,2649.75 L 12946.64,2651.77 L 12941.21,2556.23 Z M 13253.71,2634.12 L 13262.13,2782.17 L 13262.13,2782.17 L 13253.71,2634.12 Z M 13253.71,2634.12 L 13326.20,2629.95 L 13376.52,2627.06 L 13326.20,2629.95 L 13253.71,2634.12 Z M 13376.52,2627.06 L 13376.52,2627.06 L 13458.20,2622.36 L 13458.20,2622.36 L 13376.52,2627.06 Z" />
    <text x="13199.71" y="2612.70" class="label">露台</text>
    <path class="room" d="M 13719.42,2420.66 L 13726.08,2420.28 L 13725.58,2411.58 L 14195.55,2384.56 L 14201.19,2483.81 L 14236.26,2481.79 L 14243.91,2616.26 L 14208.84,2618.28 L 14215.04,2727.38 L 13943.44,2743.00 L 13935.03,2594.95 L 13730.00,2606.73 L 13719.42,2420.66 Z M 13935.03,2594.95 L 13943.44,2743.00 L 13943.44,2743.00 L 13935.03,2594.95 L 13935.03,2594.95 Z" />
    <text x="13981.66" y="2563.78" class="label">露台</text>
    <path class="room" d="M 13253.71,2634.12 L 13326.20,2629.95 L 13335.07,2785.90 L 13262.58,2790.07 L 13253.71,2634.12 Z M 13326.20,2629.95 L 13335.07,2785.90 L 13326.20,2629.95 L 13326.20,2629.95 Z" />
    <text x="13294.39" y="2710.01" class="label">樓梯</text>
    <path class="room" d="M 13862.07,2599.14 L 13935.03,2594.95 L 13943.90,2750.90 L 13870.94,2755.10 L 13862.07,2599.14 Z" />
    <text x="13902.98" y="2675.02" class="label">樓梯</text>
    <path class="room" d="M 13396.31,2704.82 L 13462.68,2701.01 L 13466.08,2760.91 L 13399.71,2764.73 L 13396.31,2704.82 Z" />
    <text x="13431.19" y="2732.87" class="label">電梯</text>
    <path class="room" d="M 13730.95,2623.47 L 13797.52,2619.64 L 13801.04,2681.56 L 13734.47,2685.38 L 13730.95,2623.47 Z" />
    <text x="13766.00" y="2652.51" class="label">電梯</text>
  </g>
  <g id="gis_room_EL_12F">
    <path class="room" d="M 14252.30,7306.58 L 14274.58,7306.67 L 14274.80,7250.92 L 14352.01,7251.23 L 14351.54,7369.89 L 14252.05,7369.49 L 14252.30,7306.58 Z" />
    <text x="14302.03" y="7310.40" class="label">國際講座教師辦公室</text>
    <path class="room" d="M 14768.09,6991.48 L 14768.51,6885.58 L 14899.09,6886.10 L 14898.97,6915.80 L 14906.74,6915.83 L 14906.54,6967.93 L 14901.36,6967.91 L 14901.26,6992.01 L 14768.09,6991.48 Z" />
    <text x="14837.42" y="6938.80" class="label">討論室</text>
    <path class="room" d="M 14599.92,6898.98 L 14673.63,6899.27 L 14673.26,6993.05 L 14682.46,6993.09 L 14682.29,7036.46 L 14599.38,7036.13 L 14599.92,6898.98 Z" />
    <text x="14640.92" y="6967.72" class="label">檔案室</text>
    <path class="room" d="M 14366.81,6817.94 L 14367.48,6647.96 L 14464.77,6648.35 L 14464.74,6656.17 L 14472.51,6656.20 L 14471.87,6818.36 L 14366.81,6817.94 Z" />
    <text x="14419.66" y="6733.16" class="label">王立邦博士研究室</text>
    <path class="room" d="M 14919.01,7253.50 L 14919.26,7189.41 L 14921.20,7189.42 L 14921.26,7175.75 L 14973.77,7175.95 L 14972.69,7437.76 L 14920.22,7437.55 L 14920.33,7410.20 L 14937.82,7410.27 L 14938.44,7253.57 L 14919.01,7253.50 Z" />
    <text x="14946.39" y="7306.75" class="label">陽台</text>
    <path class="room" d="M 14472.51,6656.20 L 14488.05,6656.26 L 14488.14,6634.77 L 14674.67,6635.51 L 14674.56,6664.82 L 14703.71,6664.94 L 14703.53,6709.48 L 14675.94,6709.37 L 14675.80,6744.93 L 14472.16,6744.11 L 14472.51,6656.20 Z" />
    <text x="14587.93" y="6689.85" class="label">乙樓梯間</text>
    <path class="room" d="M 14144.93,6647.07 L 14145.13,6596.27 L 14255.50,6596.71 L 14255.36,6631.88 L 14243.31,6631.83 L 14243.25,6647.46 L 14144.93,6647.07 Z" />
    <text x="14200.22" y="6621.87" class="label">陽台</text>
    <path class="room" d="M 14035.79,6631.00 L 14035.93,6595.84 L 14145.13,6596.27 L 14144.93,6647.07 L 14045.05,6646.67 L 14045.12,6631.04 L 14035.79,6631.00 Z" />
    <text x="14090.46" y="6621.45" class="label">陽台</text>
    <path class="room" d="M 13610.63,7353.51 L 13610.86,7293.47 L 13680.81,7293.74 L 13680.58,7353.79 L 13610.63,7353.51 Z" />
    <text x="13645.72" y="7323.63" class="label">無障礙廁所</text>
    <path class="room" d="M 14688.93,6633.62 L 14689.00,6616.68 L 14909.22,6617.56 L 14909.15,6634.50 L 14688.93,6633.62 Z" />
    <text x="14799.08" y="6625.59" class="label">花台</text>
    <path class="room" d="M 13515.48,7402.62 L 13515.91,7293.08 L 13610.86,7293.45 L 13610.57,7367.06 L 13645.81,7367.20 L 13645.54,7434.41 L 13611.86,7434.27 L 13611.94,7413.43 L 13583.44,7413.32 L 13583.42,7418.53 L 13536.79,7418.34 L 13536.85,7402.71 L 13515.48,7402.62 Z" />
    <text x="13580.64" y="7363.75" class="label">女廁</text>
    <path class="room" d="M 14351.54,7369.89 L 14352.01,7251.23 L 14665.50,7252.48 L 14665.03,7371.14 L 14351.54,7369.89 Z" />
    <text x="14508.52" y="7311.19" class="label">資源回收與環境淨化研究室</text>
    <path class="room" d="M 14022.66,6904.48 L 14044.04,6904.57 L 14044.07,6896.75 L 14242.26,6897.55 L 14242.23,6905.36 L 14265.55,6905.45 L 14265.58,6897.64 L 14323.61,6897.87 L 14323.36,6961.69 L 14362.48,6961.85 L 14362.20,7033.49 L 14022.16,7032.13 L 14022.66,6904.48 Z M 14362.20,7033.49 L 14362.20,7033.49 L 14362.48,6961.85 L 14362.20,7033.49 Z" />
    <text x="14192.32" y="6965.12" class="label">環境創新及氣膠科技實驗室</text>
    <path class="room" d="M 13610.46,6968.61 L 13610.75,6895.02 L 13684.59,6895.32 L 13684.30,6968.91 L 13610.46,6968.61 Z" />
    <text x="13647.53" y="6931.96" class="label">電梯</text>
    <path class="room" d="M 14819.98,6745.51 L 14820.35,6649.77 L 14900.02,6650.09 L 14899.96,6665.72 L 14913.56,6665.77 L 14913.24,6745.88 L 14819.98,6745.51 Z" />
    <text x="14866.77" y="6697.83" class="label">緊急升降機</text>
    <path class="room" d="M 13530.82,6962.43 L 13531.02,6910.33 L 13538.80,6910.36 L 13538.86,6894.73 L 13610.75,6895.02 L 13610.46,6968.61 L 13535.98,6968.31 L 13536.00,6962.45 L 13530.82,6962.43 Z" />
    <text x="13570.79" y="6931.67" class="label">電梯</text>
    <path class="room" d="M 14472.06,6768.47 L 14541.37,6768.75 L 14541.17,6818.63 L 14471.87,6818.36 L 14472.06,6768.47 Z" />
    <text x="14506.62" y="6793.55" class="label">影印室</text>
    <path class="room" d="M 14101.61,7250.23 L 14230.24,7250.74 L 14230.02,7306.49 L 14252.30,7306.58 L 14252.05,7369.49 L 14251.88,7413.38 L 14240.22,7413.34 L 14240.14,7434.83 L 14229.90,7434.79 L 14229.83,7454.33 L 14100.80,7453.81 L 14101.61,7250.23 Z M 14240.22,7413.34 L 14240.22,7413.34 L 14246.16,7413.36 L 14240.22,7413.34 Z" />
    <path class="room" d="M 14100.80,7453.81 L 14100.80,7453.81 L 14229.83,7454.33 L 14229.83,7454.33 L 14100.80,7453.81 Z" />
    <text x="14176.55" y="7352.28" class="label">環境所辦公室</text>
    <path class="room" d="M 14023.01,6816.56 L 14023.65,6654.40 L 14045.02,6654.49 L 14045.05,6646.67 L 14144.54,6647.07 L 14143.87,6817.05 L 14023.01,6816.56 Z" />
    <text x="14083.78" y="6731.86" class="label">楊任軒博士研究室</text>
    <path class="room" d="M 13989.38,7418.98 L 14018.68,7419.09 L 14018.62,7435.90 L 14041.93,7435.99 L 14041.94,7434.04 L 14056.06,7434.09 L 14055.98,7453.63 L 14229.83,7454.33 L 14229.90,7434.79 L 14240.14,7434.83 L 14240.13,7436.78 L 14263.45,7436.88 L 14263.51,7420.07 L 14296.68,7420.21 L 14296.41,7487.55 L 13989.11,7486.32 L 13989.38,7418.98 Z" />
    <text x="14142.89" y="7453.26" class="label">陽台</text>
    <path class="room" d="M 14020.65,7412.46 L 14021.29,7249.91 L 14101.61,7250.23 L 14100.80,7453.81 L 14055.98,7453.63 L 14056.06,7434.09 L 14041.94,7434.04 L 14042.03,7412.54 L 14020.65,7412.46 Z M 14041.94,7434.04 L 14056.06,7434.09 L 14055.98,7453.63 L 14100.80,7453.81 L 14100.80,7453.81 L 14055.98,7453.63 L 14056.06,7434.09 L 14041.94,7434.04 L 14041.94,7434.04 Z" />
    <text x="14061.13" y="7351.86" class="label">所長室/所辦公室</text>
    <path class="room" d="M 13645.54,7434.41 L 13645.81,7367.20 L 13649.43,7367.21 L 13649.49,7353.66 L 13680.58,7353.79 L 13680.81,7293.74 L 13776.29,7294.13 L 13775.85,7403.67 L 13754.48,7403.58 L 13754.42,7419.21 L 13707.78,7419.02 L 13707.80,7413.82 L 13679.30,7413.70 L 13679.22,7434.54 L 13645.54,7434.41 Z" />
    <text x="13710.91" y="7364.14" class="label">男廁</text>
    <path class="room" d="M 14022.16,7032.13 L 14021.64,7162.38 L 14043.02,7162.47 L 14042.99,7170.28 L 14241.18,7171.07 L 14241.21,7163.26 L 14264.53,7163.35 L 14264.50,7171.16 L 14322.53,7171.40 L 14322.79,7107.57 L 14361.91,7107.73 L 14362.20,7033.49 L 14022.16,7032.13 Z" />
    <path class="room" d="M 14022.16,7032.13 L 14362.20,7033.49 L 14362.20,7033.49 L 14022.16,7032.13 Z" />
    <text x="14191.92" y="7101.76" class="label">室內環境品質研究中心</text>
    <path class="room" d="M 13530.07,7152.60 L 13530.27,7100.50 L 13535.45,7100.52 L 13535.55,7076.42 L 13758.36,7077.31 L 13758.26,7101.41 L 13763.45,7101.43 L 13763.24,7153.53 L 13755.47,7153.50 L 13755.35,7182.80 L 13704.18,7182.60 L 13704.23,7169.58 L 13537.77,7168.91 L 13537.84,7152.63 L 13530.07,7152.60 Z" />
    <text x="13646.76" y="7129.61" class="label">甲樓梯間</text>
    <path class="room" d="M 13684.30,6968.91 L 13684.59,6895.32 L 13756.49,6895.60 L 13756.43,6911.23 L 13764.20,6911.26 L 13763.99,6963.37 L 13758.81,6963.34 L 13758.79,6969.21 L 13684.30,6968.91 Z" />
    <text x="13724.25" y="6932.26" class="label">電梯</text>
    <path class="room" d="M 14255.50,6596.71 L 14368.07,6597.16 L 14367.87,6647.96 L 14266.57,6647.56 L 14266.63,6631.93 L 14255.36,6631.88 L 14255.50,6596.71 Z" />
    <text x="14311.72" y="6622.34" class="label">陽台</text>
    <path class="room" d="M 14362.20,7033.49 L 14362.48,6961.85 L 14401.60,6962.01 L 14401.86,6898.18 L 14463.78,6898.43 L 14463.74,6906.25 L 14487.06,6906.34 L 14487.09,6898.53 L 14599.92,6898.98 L 14599.39,7034.44 L 14362.20,7033.49 Z" />
    <text x="14481.06" y="6966.31" class="label">永續資源及環境奈米材料實驗室</text>
    <path class="room" d="M 14709.39,7423.03 L 14710.06,7252.66 L 14767.06,7252.89 L 14767.74,7081.35 L 14900.90,7081.88 L 14900.81,7105.98 L 14905.99,7106.00 L 14905.78,7158.10 L 14898.01,7158.07 L 14897.89,7189.33 L 14919.26,7189.41 L 14919.01,7253.50 L 14938.44,7253.57 L 14937.82,7410.27 L 14920.33,7410.20 L 14920.34,7408.24 L 14897.02,7408.15 L 14896.96,7423.78 L 14709.39,7423.03 Z M 14937.82,7410.27 L 14938.44,7253.57 L 14938.44,7253.57 L 14937.82,7410.27 Z" />
    <text x="14823.91" y="7252.57" class="label">1205企業永續暨及系統化管理究室/1206環境及永續性評估研究室</text>
    <path class="room" d="M 14254.24,6817.49 L 14254.88,6655.32 L 14266.54,6655.37 L 14266.57,6647.56 L 14367.48,6647.96 L 14366.81,6817.94 L 14254.24,6817.49 Z" />
    <text x="14310.86" y="6732.75" class="label">林文印博士研究室</text>
    <path class="room" d="M 14362.20,7033.49 L 14599.39,7034.44 L 14598.84,7172.50 L 14486.01,7172.05 L 14486.04,7164.24 L 14462.73,7164.14 L 14462.70,7171.96 L 14400.77,7171.71 L 14401.03,7107.89 L 14361.91,7107.73 L 14362.20,7033.49 Z M 14362.20,7033.49 L 14599.39,7034.44 L 14599.39,7034.44 L 14362.20,7033.49 Z" />
    <text x="14480.65" y="7102.99" class="label">資源回收與環境淨化實驗室</text>
    <path class="room" d="M 14143.87,6817.05 L 14144.54,6647.07 L 14243.25,6647.46 L 14243.22,6655.28 L 14254.88,6655.32 L 14254.24,6817.49 L 14143.87,6817.05 Z" />
    <text x="14199.37" y="6732.28" class="label">胡憲倫博士研究室</text>
    <path class="room" d="M 14367.87,6647.96 L 14368.07,6597.16 L 14690.37,6598.45 L 14921.63,6599.38 L 14921.46,6634.55 L 14909.15,6634.50 L 14909.22,6617.56 L 14689.00,6616.68 L 14688.93,6633.62 L 14674.68,6633.56 L 14674.67,6635.51 L 14488.14,6634.77 L 14488.14,6632.81 L 14464.83,6632.72 L 14464.77,6648.35 L 14367.87,6647.96 Z" />
    <text x="14644.75" y="6622.76" class="label">陽台</text>
  </g>
  <g id="gis_room_HR_12F">
    <path class="room" d="M 2291.41,1507.71 L 2292.03,1351.41 L 2317.94,1351.51 L 2318.04,1325.46 L 2393.82,1325.76 L 2393.16,1495.74 L 2358.18,1495.60 L 2358.03,1532.08 L 2317.23,1531.91 L 2317.32,1507.82 L 2291.41,1507.71 Z" />
    <text x="2342.62" y="1428.77" class="label">特別安全梯</text>
    <path class="room" d="M 3170.63,1771.71 L 3170.88,1707.89 L 3242.13,1708.17 L 3241.78,1798.04 L 3194.50,1797.86 L 3194.60,1771.81 L 3170.63,1771.71 Z" />
    <text x="3206.38" y="1752.97" class="label">無障礙廁所</text>
    <path class="room" d="M 3259.14,1664.60 L 3259.39,1602.08 L 3332.45,1602.37 L 3332.36,1624.51 L 3348.04,1624.58 L 3347.88,1664.95 L 3259.14,1664.60 Z" />
    <text x="3303.59" y="1633.52" class="label">電梯</text>
    <path class="room" d="M 2290.39,1768.22 L 2290.61,1712.22 L 2379.35,1712.57 L 2379.12,1770.53 L 2395.96,1770.60 L 2395.87,1794.69 L 2316.20,1794.37 L 2316.30,1768.32 L 2290.39,1768.22 Z" />
    <text x="2343.18" y="1753.45" class="label">電梯</text>
    <path class="room" d="M 2290.61,1712.22 L 2290.83,1656.21 L 2379.57,1656.57 L 2379.35,1712.57 L 2290.61,1712.22 Z" />
    <text x="2335.09" y="1684.39" class="label">電梯</text>
    <path class="room" d="M 3246.84,1498.96 L 3247.50,1329.15 L 3323.29,1329.46 L 3323.19,1355.50 L 3349.09,1355.60 L 3348.48,1511.91 L 3322.57,1511.80 L 3322.48,1535.90 L 3281.67,1535.74 L 3281.81,1499.09 L 3246.84,1498.96 Z" />
    <text x="3297.97" y="1432.53" class="label">特別安全梯</text>
    <path class="room" d="M 2467.22,1768.92 L 2467.89,1596.99 L 2627.23,1597.62 L 2626.56,1769.55 L 2624.61,1769.55 L 2624.51,1795.59 L 2469.06,1794.98 L 2469.16,1768.93 L 2467.22,1768.92 Z" />
    <text x="2547.22" y="1696.29" class="label">展覽室</text>
    <path class="room" d="M 3001.31,1510.53 L 3001.92,1354.23 L 3014.87,1354.28 L 3014.98,1328.23 L 3170.43,1328.84 L 3170.32,1354.89 L 3183.28,1354.94 L 3182.67,1511.25 L 3169.71,1511.20 L 3169.62,1535.29 L 3014.17,1534.68 L 3014.26,1510.58 L 3001.31,1510.53 Z" />
    <text x="3092.29" y="1431.76" class="label">應用計算實驗室</text>
    <path class="room" d="M 2819.95,1509.81 L 2820.56,1353.51 L 2833.52,1353.56 L 2833.62,1327.51 L 2989.07,1328.12 L 2988.97,1354.17 L 3001.92,1354.23 L 3001.31,1510.53 L 2988.35,1510.48 L 2988.26,1534.57 L 2832.81,1533.96 L 2832.90,1509.86 L 2819.95,1509.81 Z" />
    <text x="2910.93" y="1431.04" class="label">智慧終端與崁入式系統教學實驗室</text>
    <path class="room" d="M 3222.88,1496.17 L 3222.98,1472.20 L 3246.94,1472.30 L 3246.85,1496.26 L 3222.88,1496.17 Z" />
    <text x="3234.91" y="1484.23" class="label">撒水</text>
    <path class="room" d="M 2626.56,1769.55 L 2627.22,1599.57 L 2819.59,1600.33 L 2818.93,1770.32 L 2805.97,1770.26 L 2805.87,1796.32 L 2650.42,1795.70 L 2650.52,1769.65 L 2626.56,1769.55 Z" />
    <text x="2723.07" y="1697.94" class="label">智慧型系統實驗室</text>
    <path class="room" d="M 2290.83,1656.21 L 2291.07,1596.29 L 2315.03,1596.38 L 2315.03,1598.33 L 2379.80,1598.59 L 2379.57,1656.57 L 2290.83,1656.21 Z" />
    <text x="2335.31" y="1626.43" class="label">電梯</text>
    <path class="room" d="M 2818.93,1770.32 L 2819.59,1600.33 L 3171.30,1601.73 L 3170.63,1771.71 L 3168.69,1771.70 L 3168.59,1797.75 L 3013.14,1797.14 L 3013.24,1771.09 L 2987.33,1770.98 L 2987.23,1797.03 L 2831.78,1796.42 L 2831.88,1770.37 L 2818.93,1770.32 Z" />
    <text x="2995.11" y="1699.04" class="label">應用軟體教學實驗室</text>
    <path class="room" d="M 2457.23,1508.37 L 2457.84,1352.07 L 2470.80,1352.12 L 2470.90,1326.07 L 2626.35,1326.69 L 2626.25,1352.74 L 2639.20,1352.79 L 2652.16,1352.84 L 2652.26,1326.79 L 2807.71,1327.40 L 2807.61,1353.46 L 2820.56,1353.51 L 2819.95,1509.81 L 2806.99,1509.76 L 2806.90,1533.86 L 2651.45,1533.24 L 2651.54,1509.14 L 2638.59,1509.09 L 2625.63,1509.04 L 2625.54,1533.14 L 2470.09,1532.52 L 2470.18,1508.42 L 2457.23,1508.37 Z M 2470.09,1532.52 L 2625.54,1533.14 L 2625.54,1533.14 L 2470.09,1532.52 Z" />
    <text x="2638.89" y="1429.96" class="label">智慧終端與崁入式系統教學實驗室</text>
    <path class="room" d="M 3241.78,1798.04 L 3242.13,1708.17 L 3266.74,1708.27 L 3266.91,1664.63 L 3347.88,1664.95 L 3347.46,1772.41 L 3321.55,1772.31 L 3321.45,1798.36 L 3241.78,1798.04 Z" />
    <text x="3294.83" y="1731.50" class="label">男廁</text>
    <path class="room" d="M 3222.73,1535.51 L 3222.88,1496.17 L 3246.85,1496.26 L 3246.69,1535.60 L 3222.73,1535.51 Z" />
    <text x="3234.79" y="1515.88" class="label">電力</text>
  </g>
</svg>