<svg width="16000" height="9099" viewBox="0 0 16000 9099" xmlns="http://www.w3.org/2000/svg" xmlns:xlink="http://www.w3.org/1999/xlink">

    <style>
        .building { fill: #f0f4f8; stroke: #d1dce5; stroke-width: 2; }
        .room     { fill: #ffffff; fill-opacity: 0.8; stroke: #bcccdc; stroke-width: 1; }
        .label    { font-family: "Noto Sans TC", sans-serif; font-size: 24px; fill: #334e68; font-weight: 500; text-anchor: middle; dominant-baseline: middle; }
    </style>
      <g id="gis_gis_building_geom">
    <path class="building" d="M 2949.26,4010.03 L 4140.85,4021.56 L 4142.10,4292.67 L 4130.90,4292.64 L 4130.40,4356.44 L 3226.66,4355.84 L 3226.31,4812.55 L 3401.68,4811.80 L 3401.95,5141.81 L 2942.28,5141.31 L 2949.26,4010.03 Z" />
    <path class="building" d="M 7088.12,2560.89 L 7700.72,2562.04 L 7700.87,2481.66 L 8148.51,2483.00 L 8147.15,2562.88 L 8693.32,2563.92 L 8721.63,2695.28 L 8721.63,2695.28 L 8715.57,3280.48 L 8690.90,3280.61 L 8690.48,3403.55 L 7085.32,3389.98 L 7085.31,3204.63 L 7000.35,3203.97 L 7003.43,2738.84 L 7087.35,2738.26 L 7088.12,2560.89 Z" />
    <path class="building" d="M 4843.51,1956.47 L 4844.51,1787.79 L 4906.35,1787.49 L 4905.24,1712.44 L 5766.54,1719.44 L 5767.05,1759.83 L 6027.80,1762.57 L 6041.22,1778.35 L 6040.91,2113.44 L 5920.93,2113.62 L 5921.58,2180.69 L 4855.22,2175.20 L 4857.61,1956.59 L 4843.51,1956.47 Z" />
    <path class="building" d="M 3188.76,5839.04 L 3184.44,6132.85 L 3009.51,6131.08 L 3010.12,5838.90 L 3188.76,5839.04 Z" />
    <path class="building" d="M 8161.26,3799.06 L 8661.34,3802.64 L 8661.72,3865.86 L 8759.20,3866.25 L 8755.51,3995.61 L 8806.86,3995.16 L 8806.05,4079.95 L 8850.04,4079.42 L 8848.57,4261.53 L 8807.12,4260.63 L 8806.31,4341.05 L 8464.87,4337.40 L 8462.68,4793.00 L 8947.00,4797.31 L 8944.64,5163.38 L 9070.07,5164.43 L 9068.88,5256.28 L 8943.78,5254.69 L 8940.58,5624.81 L 8458.26,5621.41 L 8453.24,6072.52 L 9133.83,6077.89 L 9126.51,6745.48 L 8044.27,6736.86 L 8045.15,6541.70 L 7946.95,6541.19 L 7947.74,6409.27 L 7850.08,6409.19 L 7850.29,6387.18 L 7663.94,6386.98 L 7662.42,6294.92 L 7365.94,6294.05 L 7367.40,6164.56 L 7219.73,6164.20 L 7220.56,6079.32 L 7176.49,6078.82 L 7179.52,5914.56 L 7222.17,5914.94 L 7222.98,5832.54 L 7863.48,5840.16 L 7863.88,5617.56 L 7754.27,5617.59 L 7754.43,5521.38 L 7739.08,5522.23 L 7740.67,5376.11 L 7755.56,5376.17 L 7756.55,5277.27 L 7785.97,5276.79 L 7786.18,5127.15 L 7757.98,5127.35 L 7758.14,5028.99 L 7743.59,5028.70 L 7745.39,4886.44 L 7759.72,4886.75 L 7760.11,4786.55 L 7849.88,4787.63 L 7849.21,4560.97 L 7233.65,4557.12 L 7234.22,4480.71 L 7180.57,4480.46 L 7181.34,4311.50 L 7235.49,4311.75 L 7236.10,4231.20 L 7381.06,4231.84 L 7382.58,4106.09 L 7678.18,4106.93 L 7679.62,4016.64 L 7870.79,4014.88 L 7870.93,3994.82 L 7966.89,3995.55 L 7968.35,3863.10 L 8160.60,3863.87 L 8161.26,3799.06 Z" />
    <path class="building" d="M 1785.34,1818.91 L 1846.80,1820.11 L 1846.08,1868.88 L 1915.10,1869.87 L 1914.84,1881.19 L 1956.32,1881.91 L 1956.29,1947.64 L 1913.30,1947.43 L 1912.91,1964.27 L 1844.69,1963.82 L 1844.25,1993.82 L 2113.96,1996.73 L 2111.80,2313.15 L 1638.41,2309.74 L 1638.57,2369.36 L 1402.42,2370.43 L 1402.86,2308.05 L 913.25,2304.52 L 921.14,1983.86 L 1782.78,1993.15 L 1785.34,1818.91 Z" />
    <path class="building" d="M 1233.29,3176.04 L 1233.24,3086.16 L 1689.31,3086.09 L 1689.85,3178.73 L 2105.12,3181.86 L 2100.21,3742.07 L 811.22,3734.26 L 816.44,3173.49 L 1233.29,3176.04 Z" />
    <path class="building" d="M 4422.39,3825.20 L 4557.45,3823.98 L 4558.56,3948.97 L 4423.51,3950.19 L 4422.39,3825.20 Z" />
    <path class="building" d="M 5454.09,3024.68 L 5470.25,3024.58 L 5470.20,3032.77 L 5776.10,3034.35 L 5777.47,2956.96 L 5982.23,2956.10 L 5981.83,3035.41 L 6304.16,3037.07 L 6307.16,3777.27 L 6169.76,3776.65 L 6170.26,3825.65 L 5997.21,3824.78 L 5999.79,3339.48 L 5451.60,3336.55 L 5454.09,3024.68 Z" />
    <path class="building" d="M 810.23,4162.32 L 2094.03,4174.33 L 2089.09,4719.68 L 2050.10,4719.24 L 2050.20,4746.64 L 1713.11,4742.66 L 1713.39,4715.41 L 805.90,4705.09 L 810.23,4162.32 Z" />
    <path class="building" d="M 5154.02,4923.99 L 5174.31,4923.63 L 5174.75,4823.71 L 5156.69,4823.06 L 5158.73,4730.00 L 5153.87,4730.05 L 5153.30,4532.71 L 4982.76,4534.29 L 4982.12,4520.32 L 4753.21,4517.98 L 4752.95,4206.61 L 5867.58,4215.65 L 5865.18,4622.01 L 5896.39,4622.08 L 5894.82,4763.49 L 6306.89,4767.17 L 6301.07,5688.40 L 5887.43,5691.03 L 5886.89,5832.41 L 5854.54,5832.37 L 5853.47,6070.58 L 5399.78,6064.30 L 5405.55,5280.53 L 5376.56,5280.37 L 5376.79,5215.40 L 5151.84,5213.08 L 5151.97,5219.13 L 5154.02,4923.99 Z" />
    <path class="building" d="M 3393.95,5787.13 L 3442.50,5787.21 L 3442.68,5774.53 L 3630.52,5775.89 L 3631.48,5739.98 L 4112.97,5745.69 L 4113.00,5779.38 L 4284.12,5780.62 L 4284.41,5744.13 L 4286.78,5744.18 L 4286.73,5683.26 L 4511.51,5688.82 L 4511.10,5748.44 L 4600.29,5750.13 L 4600.37,5781.26 L 4984.14,5785.27 L 4983.80,5976.74 L 5219.32,5978.53 L 5219.88,6039.07 L 5265.74,6038.84 L 5260.63,6205.34 L 5217.18,6206.06 L 5217.99,6267.47 L 5167.99,6267.69 L 5166.59,6358.65 L 4403.43,6352.99 L 4402.67,6219.38 L 4187.82,6220.82 L 4189.74,6082.55 L 3392.66,6074.33 L 3392.93,6015.46 L 3346.48,6015.69 L 3345.67,5846.07 L 3393.69,5845.84 L 3393.95,5787.13 Z" />
    <path class="building" d="M 3480.58,1049.19 L 3478.99,999.72 L 3622.50,1000.51 L 3623.18,1050.84 L 3766.99,1052.51 L 3767.46,1154.80 L 3876.62,1155.69 L 3876.12,1302.54 L 4088.23,1299.59 L 4089.53,1365.74 L 4257.77,1366.48 L 4254.19,1531.73 L 3773.89,1529.93 L 3775.24,1614.55 L 3768.91,1632.60 L 3503.68,1632.43 L 3508.43,1214.67 L 3463.89,1214.91 L 3467.11,1049.03 L 3480.58,1049.19 Z" />
    <path class="building" d="M 936.26,5355.33 L 938.67,5282.05 L 1124.06,5283.51 L 1124.24,5251.09 L 1291.35,5250.09 L 1307.39,5242.52 L 1325.18,5238.63 L 1356.16,5233.68 L 1377.43,5232.40 L 1405.24,5235.72 L 1428.02,5240.86 L 1440.65,5244.93 L 1460.13,5252.19 L 1607.57,5253.53 L 1607.60,5288.52 L 1776.51,5290.71 L 1776.60,5240.34 L 2103.44,5244.81 L 2103.50,5356.82 L 2205.45,5356.56 L 2205.38,5378.57 L 2282.83,5379.22 L 2285.51,5565.09 L 2894.09,5569.40 L 2893.37,5633.72 L 2936.68,5633.51 L 2937.52,5803.75 L 2846.36,5804.20 L 2846.34,5953.33 L 2559.91,5955.61 L 2546.09,5965.10 L 2519.95,5972.97 L 2488.77,5982.33 L 2463.81,5984.39 L 2436.80,5986.16 L 2402.61,5984.38 L 2377.54,5982.72 L 2340.87,5977.26 L 2314.70,5972.21 L 2285.31,5960.47 L 2259.99,5947.24 L 1985.67,5944.67 L 1985.29,5908.44 L 1769.65,5909.19 L 1773.26,5665.81 L 1597.93,5664.92 L 1599.05,5851.91 L 1024.38,5845.83 L 1022.48,5808.99 L 1001.29,5809.19 L 1000.42,5661.87 L 882.09,5661.27 L 883.76,5439.25 L 856.33,5438.30 L 859.12,5355.29 L 936.26,5355.33 Z" />
    <path class="building" d="M 13529.99,6560.54 L 14941.59,6571.40 L 14932.04,7144.65 L 14992.06,7145.75 L 14993.21,7490.04 L 14952.13,7489.30 L 14951.20,7527.87 L 13628.49,7517.89 L 13629.06,7497.74 L 13464.17,7496.13 L 13468.50,7115.25 L 13528.85,7116.51 L 13530.83,6851.87 L 13480.99,6851.93 L 13479.73,6621.87 L 13530.11,6622.39 L 13529.99,6560.54 Z" />
    <path class="building" d="M 5093.05,7797.46 L 5095.59,7780.54 L 6087.61,7941.33 L 6022.66,8306.95 L 5960.86,8299.45 L 5951.07,8349.55 L 4941.17,8184.55 L 4984.12,7921.91 L 5034.25,7929.51 L 5057.02,7792.95 L 5093.05,7797.46 Z" />
    <path class="building" d="M 924.06,1000.40 L 1568.36,1012.99 L 1566.57,922.99 L 1880.10,928.66 L 1881.99,1019.12 L 2136.51,1024.09 L 2121.00,1825.46 L 908.59,1801.77 L 924.06,1000.40 Z" />
    <path class="building" d="M 3553.73,1653.86 L 4853.30,1652.82 L 4852.16,1787.86 L 4844.51,1787.79 L 4843.51,1956.47 L 4850.75,1956.53 L 4849.40,2118.29 L 4411.37,2114.16 L 4411.76,2160.24 L 4465.88,2160.87 L 4465.14,2276.87 L 4231.13,2277.71 L 4231.03,2158.16 L 4287.83,2158.82 L 4287.44,2113.00 L 3550.76,2106.07 L 3553.73,1653.86 Z" />
    <path class="building" d="M 2268.76,1003.93 L 2280.78,984.64 L 2301.22,961.02 L 2328.14,932.78 L 2376.93,892.39 L 2432.02,852.59 L 2456.33,836.30 L 2492.30,816.65 L 2492.65,812.32 L 2497.05,801.30 L 2505.95,790.96 L 2517.92,784.39 L 2534.43,781.93 L 2543.82,782.04 L 2553.79,783.27 L 2558.23,785.09 L 2561.34,783.57 L 2614.81,766.10 L 2654.80,754.95 L 2736.40,738.94 L 2774.76,736.02 L 2819.06,734.40 L 2864.17,735.02 L 2912.73,739.61 L 2955.40,745.85 L 2999.31,756.53 L 3064.54,776.64 L 3111.23,795.03 L 3147.21,812.60 L 3190.74,836.66 L 3245.03,874.91 L 3335.46,950.82 L 3362.11,979.42 L 3379.06,1004.60 L 3316.60,1050.11 L 3330.09,1064.69 L 3312.34,1077.80 L 3355.45,1126.80 L 3354.12,1319.70 L 3355.49,1799.51 L 2657.61,1799.22 L 2649.90,2029.27 L 3171.26,2031.80 L 3172.51,1971.58 L 3282.84,1972.96 L 3284.07,2032.35 L 3345.52,2032.65 L 3344.64,2341.85 L 3195.08,2340.34 L 3194.82,2358.50 L 3161.99,2359.41 L 3162.40,2340.50 L 2293.87,2340.13 L 2291.91,1914.68 L 2445.18,1915.40 L 2446.50,1799.14 L 2286.94,1799.08 L 2288.75,1126.37 L 2343.08,1060.46 L 2268.76,1003.93 Z" />
    <path class="building" d="M 2375.15,3011.39 L 2703.50,3012.59 L 2706.21,2927.10 L 2908.80,2929.26 L 2907.77,3013.34 L 3224.19,3014.50 L 3221.87,3314.69 L 2675.53,3316.31 L 2672.14,3806.07 L 2611.01,3805.78 L 2611.50,3752.93 L 2369.52,3750.98 L 2375.15,3011.39 Z" />
    <path class="building" d="M 3481.73,3013.15 L 4216.24,3018.45 L 4216.72,2932.76 L 4466.90,2931.38 L 4468.50,3020.27 L 5200.00,3025.54 L 5196.12,3341.16 L 4532.93,3336.21 L 4533.28,3456.98 L 4146.26,3455.47 L 4145.86,3333.24 L 3480.74,3325.73 L 3481.73,3013.15 Z" />
    <path class="building" d="M 2359.65,4017.52 L 2682.41,4014.00 L 2683.31,4054.59 L 2674.47,4054.84 L 2667.93,4437.03 L 2763.04,4437.67 L 2761.52,4667.51 L 2664.01,4666.86 L 2654.87,5374.86 L 2660.54,5374.70 L 2659.91,5389.96 L 2344.25,5388.14 L 2359.65,4017.52 Z" />
    <path class="building" d="M 3502.33,4517.98 L 3587.32,4518.98 L 3587.05,4474.73 L 3922.02,4476.01 L 3922.52,4509.52 L 4982.12,4520.32 L 4982.76,4534.29 L 5153.30,4532.71 L 5153.87,4730.05 L 5158.73,4730.00 L 5156.69,4823.06 L 5174.75,4823.71 L 5174.31,4923.63 L 5154.02,4923.99 L 5151.97,5219.13 L 5071.20,5219.60 L 5070.35,5272.40 L 4665.04,5270.50 L 4665.31,5225.67 L 3579.55,5215.95 L 3579.14,5204.15 L 3499.71,5204.74 L 3500.84,4914.76 L 3479.18,4914.22 L 3480.73,4807.81 L 3501.94,4807.89 L 3502.33,4517.98 Z" />
    <path class="building" d="M 11448.31,2608.09 L 11443.96,2519.88 L 11936.57,2495.70 L 11937.54,2522.91 L 11969.51,2521.23 L 11973.77,2620.44 L 11941.10,2622.40 L 11943.56,2691.25 L 12023.28,2687.38 L 12021.53,2652.29 L 12212.21,2643.62 L 12214.73,2678.07 L 12292.75,2675.69 L 12289.42,2607.07 L 12255.82,2608.91 L 12251.93,2505.72 L 12284.43,2504.26 L 12283.18,2478.69 L 13428.92,2422.45 L 13435.62,2613.62 L 13468.77,2612.12 L 13467.35,2556.10 L 13646.50,2547.86 L 13649.47,2603.90 L 13684.37,2602.32 L 13671.86,2410.52 L 14152.96,2386.91 L 14170.11,2736.81 L 13904.32,2750.00 L 13914.52,2942.80 L 13340.66,2974.61 L 13352.87,3252.74 L 12426.20,3299.52 L 12409.53,3017.41 L 11743.24,3054.12 L 11741.45,3028.15 L 11711.32,3029.36 L 11704.20,2926.92 L 11734.35,2925.31 L 11729.77,2858.79 L 11461.38,2873.15 L 11457.02,2784.77 L 11415.95,2786.12 L 11410.15,2609.07 L 11448.31,2608.09 Z" />
  </g>
  <g id="gis_room_AD_11F">
    <path class="room" d="M 5903.00,5619.92 L 5903.50,5492.40 L 6006.16,5492.81 L 6006.15,5495.87 L 6023.19,5495.94 L 6022.69,5620.40 L 5903.00,5619.92 Z" />
    <text x="5963.09" y="5556.40" class="label">樓梯</text>
    <path class="room" d="M 6016.42,5306.13 L 6017.12,5127.30 L 6026.64,5127.34 L 6026.72,5108.19 L 6017.20,5108.15 L 6017.36,5065.89 L 6060.11,5066.06 L 6058.67,5433.50 L 6127.06,5433.77 L 6126.58,5555.68 L 6022.95,5555.27 L 6023.19,5495.94 L 6025.19,5495.95 L 6025.27,5476.80 L 6023.26,5476.79 L 6023.86,5325.31 L 6025.86,5325.32 L 6025.94,5306.17 L 6016.42,5306.13 Z" />
    <text x="6071.74" y="5310.78" class="label">陽台</text>
    <path class="room" d="M 5799.99,5065.02 L 5800.03,5056.43 L 6006.77,5057.25 L 6006.74,5065.84 L 6017.36,5065.89 L 6017.20,5108.15 L 6007.68,5108.11 L 6007.60,5127.26 L 6017.12,5127.30 L 6016.71,5231.83 L 5806.85,5230.99 L 5807.26,5127.70 L 5818.01,5127.74 L 5818.10,5106.12 L 5807.35,5106.08 L 5807.51,5065.05 L 5799.99,5065.02 Z" />
    <text x="5908.68" y="5144.13" class="label">檔案庫房</text>
    <path class="room" d="M 5984.48,5257.75 L 6016.61,5257.88 L 6016.42,5306.13 L 6006.90,5306.10 L 6006.83,5323.23 L 5984.22,5323.14 L 5984.48,5257.75 Z" />
    <text x="6000.42" y="5290.49" class="label">門廊</text>
    <path class="room" d="M 5799.99,5065.02 L 5800.42,4957.04 L 5818.68,4957.12 L 5818.77,4935.50 L 5800.50,4935.42 L 5800.93,4825.36 L 6007.68,4826.18 L 6007.25,4936.24 L 6007.12,4936.24 L 6007.03,4957.86 L 6007.16,4957.87 L 6006.74,5065.84 L 5799.99,5065.02 Z" />
    <text x="5903.84" y="4945.60" class="label">冷卻水塔區</text>
    <path class="room" d="M 5806.56,5305.30 L 5806.85,5230.99 L 6016.71,5231.83 L 6016.61,5257.88 L 5984.48,5257.75 L 5984.22,5323.14 L 5816.02,5322.47 L 5816.08,5305.34 L 5806.56,5305.30 Z" />
    <text x="5911.64" y="5277.06" class="label">檔案庫房閱覽室</text>
    <path class="room" d="M 5798.38,5475.90 L 5798.97,5324.42 L 5816.01,5324.48 L 5816.02,5322.47 L 5970.75,5323.08 L 5970.09,5492.67 L 5903.50,5492.40 L 5903.00,5619.92 L 5797.81,5619.50 L 5798.30,5495.05 L 5815.34,5495.11 L 5815.41,5475.97 L 5798.38,5475.90 Z" />
    <text x="5884.28" y="5471.19" class="label">機械房</text>
  </g>
  <g id="gis_room_AM_11F">
    <path class="room" d="M 5714.08,8116.32 L 5732.21,8009.98 L 5819.60,8025.04 L 5801.47,8131.38 L 5714.08,8116.32 Z" />
    <text x="5766.84" y="8070.68" class="label">副主任辦公室</text>
    <path class="room" d="M 5079.82,8340.29 L 5093.94,8257.49 L 5122.67,8262.44 L 5128.41,8228.76 L 5216.08,8243.87 L 5210.17,8278.55 L 5191.00,8275.24 L 5177.05,8357.05 L 5079.82,8340.29 Z" />
    <text x="5147.95" y="8292.90" class="label">女廁</text>
    <path class="room" d="M 4970.68,8502.53 L 5000.66,8326.65 L 5159.16,8353.97 L 5153.17,8389.12 L 5073.90,8375.46 L 5051.99,8503.99 L 5050.01,8503.65 L 5047.92,8515.84 L 4970.68,8502.53 Z" />
    <text x="5064.92" y="8421.25" class="label">甲梯</text>
    <path class="room" d="M 5061.84,8446.23 L 5073.90,8375.46 L 5153.17,8389.12 L 5141.11,8459.89 L 5061.84,8446.23 Z" />
    <text x="5107.50" y="8417.68" class="label">緊急升降機L1兼用行動不便電梯</text>
    <path class="room" d="M 5947.64,8511.53 L 5971.15,8373.66 L 6013.92,8381.03 L 6023.33,8325.82 L 5980.56,8318.45 L 6000.36,8202.27 L 5963.97,8196.00 L 5983.67,8080.46 L 5985.59,8080.79 L 5990.08,8054.42 L 6083.92,8070.60 L 6007.01,8521.77 L 5947.64,8511.53 Z" />
    <text x="6015.78" y="8288.10" class="label">露臺</text>
    <path class="room" d="M 5741.52,8622.83 L 5758.75,8521.76 L 5809.15,8530.44 L 5807.84,8538.13 L 5887.10,8551.80 L 5887.20,8551.21 L 5903.80,8554.07 L 5886.47,8655.74 L 5859.45,8651.08 L 5854.96,8677.40 L 5764.31,8661.78 L 5770.11,8627.76 L 5741.52,8622.83 Z" />
    <text x="5822.66" y="8599.58" class="label">會議室B</text>
    <path class="room" d="M 5139.85,7988.60 L 5147.41,7944.26 L 5176.07,7949.20 L 5181.87,7915.13 L 5281.59,7932.32 L 5268.35,8010.01 L 5244.84,8005.96 L 5244.72,8006.67 L 5139.85,7988.60 Z" />
    <text x="5210.72" y="7962.57" class="label">會議室C</text>
    <path class="room" d="M 5810.34,8523.44 L 5837.28,8365.45 L 5878.67,8372.59 L 5881.08,8358.48 L 5908.53,8363.21 L 5904.10,8389.19 L 5914.52,8390.98 L 5889.61,8537.10 L 5810.34,8523.44 Z" />
    <text x="5862.43" y="8447.79" class="label">乙梯</text>
    <path class="room" d="M 5298.09,8191.31 L 5340.51,7942.47 L 5495.96,7969.26 L 5490.16,8003.33 L 5504.59,8005.82 L 5467.97,8220.59 L 5298.09,8191.31 Z" />
    <text x="5401.34" y="8081.53" class="label">會議室A</text>
    <path class="room" d="M 5108.89,8170.20 L 5111.36,8155.76 L 5144.56,8161.48 L 5142.10,8175.93 L 5108.89,8170.20 Z" />
    <text x="5126.72" y="8165.84" class="label">資源回收</text>
    <path class="room" d="M 5142.10,8175.93 L 5144.56,8161.48 L 5171.45,8166.12 L 5168.98,8180.56 L 5142.10,8175.93 Z" />
    <text x="5156.77" y="8171.02" class="label">飲水</text>
    <path class="room" d="M 5589.81,7985.44 L 5595.71,7950.82 L 5631.46,7956.98 L 5625.56,7991.60 L 5589.81,7985.44 Z" />
    <text x="5610.63" y="7971.21" class="label">陽台</text>
    <path class="room" d="M 5704.72,8005.24 L 5710.62,7970.63 L 5746.37,7976.79 L 5740.47,8011.40 L 5704.72,8005.24 Z" />
    <text x="5725.54" y="7991.01" class="label">陽台</text>
    <path class="room" d="M 5819.63,8025.05 L 5825.53,7990.43 L 5861.28,7996.59 L 5855.70,8029.33 L 5841.02,8026.80 L 5840.70,8028.68 L 5819.63,8025.05 Z" />
    <text x="5840.45" y="8009.88" class="label">陽台</text>
    <path class="room" d="M 5934.54,8044.85 L 5940.44,8010.23 L 5976.19,8016.40 L 5970.61,8049.13 L 5962.31,8047.70 L 5961.99,8049.58 L 5934.54,8044.85 Z" />
    <text x="5955.37" y="8029.91" class="label">陽台</text>
    <path class="room" d="M 5111.36,8155.76 L 5121.66,8095.34 L 5181.75,8105.69 L 5171.45,8166.12 L 5111.36,8155.76 Z" />
    <text x="5146.55" y="8130.73" class="label">行動不便兼親子廁所</text>
    <path class="room" d="M 5121.66,8095.34 L 5139.85,7988.60 L 5244.72,8006.67 L 5232.44,8078.73 L 5187.66,8071.02 L 5181.75,8105.69 L 5121.66,8095.34 Z" />
    <text x="5183.19" y="8047.15" class="label">男廁</text>
    <path class="room" d="M 5245.07,7926.02 L 5250.97,7891.41 L 5286.73,7897.57 L 5280.82,7932.18 L 5245.07,7926.02 Z" />
    <text x="5265.90" y="7911.79" class="label">陽台</text>
    <path class="room" d="M 5476.87,8647.92 L 5482.78,8613.26 L 5518.53,8619.42 L 5512.62,8654.08 L 5476.87,8647.92 Z" />
    <text x="5497.70" y="8633.67" class="label">陽台</text>
    <path class="room" d="M 5464.88,8610.17 L 5475.69,8546.72 L 5529.32,8555.96 L 5518.50,8619.41 L 5464.88,8610.17 Z" />
    <text x="5497.10" y="8583.06" class="label">會議室E</text>
    <path class="room" d="M 5881.08,8358.48 L 5890.49,8303.23 L 5944.12,8312.47 L 5963.97,8196.00 L 6000.36,8202.27 L 5947.64,8511.53 L 6007.01,8521.77 L 5976.90,8698.41 L 5883.05,8682.24 L 5887.54,8655.92 L 5886.47,8655.74 L 5901.82,8565.71 L 5968.23,8577.15 L 5972.61,8551.41 L 5906.21,8539.96 L 5903.80,8554.07 L 5887.20,8551.21 L 5914.52,8390.98 L 5932.19,8394.03 L 5937.00,8365.79 L 5908.91,8360.95 L 5908.53,8363.21 L 5881.08,8358.48 Z" />
    <text x="5944.04" y="8447.21" class="label">陽臺</text>
    <path class="room" d="M 5051.99,8503.99 L 5061.84,8446.23 L 5141.11,8459.89 L 5130.82,8520.19 L 5080.21,8511.47 L 5080.65,8508.93 L 5051.99,8503.99 Z" />
    <text x="5096.55" y="8483.21" class="label">行動不便電梯L2</text>
    <path class="room" d="M 5247.05,8608.31 L 5252.96,8573.65 L 5288.71,8579.81 L 5282.80,8614.47 L 5247.05,8608.31 Z" />
    <text x="5267.88" y="8594.06" class="label">陽台</text>
    <path class="room" d="M 5591.78,8667.72 L 5597.69,8633.06 L 5633.44,8639.22 L 5627.53,8673.88 L 5591.78,8667.72 Z" />
    <text x="5612.61" y="8653.47" class="label">陽台</text>
    <path class="room" d="M 5821.60,8707.33 L 5827.51,8672.67 L 5854.96,8677.40 L 5854.64,8679.33 L 5862.94,8680.76 L 5857.36,8713.49 L 5821.60,8707.33 Z" />
    <text x="5842.27" y="8693.08" class="label">陽台</text>
    <path class="room" d="M 5396.40,8563.35 L 5401.42,8533.91 L 5475.69,8546.72 L 5464.88,8610.17 L 5419.58,8602.36 L 5425.38,8568.34 L 5396.40,8563.35 Z" />
    <text x="5436.05" y="8572.04" class="label">會議室D</text>
    <path class="room" d="M 5627.26,8101.36 L 5645.39,7995.02 L 5732.21,8009.98 L 5714.08,8116.32 L 5627.26,8101.36 Z" />
    <text x="5679.73" y="8055.67" class="label">副主任辦公室</text>
    <path class="room" d="M 5790.75,8194.29 L 5819.60,8025.04 L 5840.70,8028.68 L 5834.89,8062.74 L 5865.53,8068.02 L 5871.34,8033.96 L 5961.99,8049.58 L 5957.50,8075.95 L 5983.67,8080.46 L 5975.03,8131.17 L 5885.65,8115.76 L 5869.94,8207.94 L 5790.75,8194.29 Z" />
    <text x="5887.21" y="8116.49" class="label">主任辦公室</text>
    <path class="room" d="M 5777.18,8273.88 L 5790.75,8194.29 L 5869.94,8207.94 L 5856.37,8287.53 L 5777.18,8273.88 Z" />
    <text x="5823.56" y="8240.91" class="label">休息室</text>
    <path class="room" d="M 5217.21,8567.49 L 5225.60,8518.27 L 5239.01,8520.58 L 5278.58,8288.41 L 5436.91,8315.70 L 5436.76,8316.57 L 5438.42,8316.86 L 5401.42,8533.91 L 5396.40,8563.35 L 5394.74,8563.06 L 5388.94,8597.08 L 5217.21,8567.49 Z" />
    <text x="5327.82" y="8442.75" class="label">先進密碼研究實驗室</text>
    <path class="room" d="M 5706.69,8687.53 L 5712.60,8652.86 L 5733.67,8656.50 L 5733.34,8658.42 L 5748.02,8660.95 L 5742.44,8693.69 L 5706.69,8687.53 Z" />
    <text x="5727.36" y="8673.28" class="label">陽台</text>
    <path class="room" d="M 5359.98,7945.83 L 5365.89,7911.21 L 5401.64,7917.37 L 5395.74,7951.99 L 5359.98,7945.83 Z" />
    <text x="5380.81" y="7931.60" class="label">陽台</text>
    <path class="room" d="M 5213.34,8186.52 L 5225.82,8113.29 L 5273.76,8121.55 L 5261.27,8194.79 L 5213.34,8186.52 Z" />
    <text x="5243.55" y="8154.04" class="label">電力/弱電</text>
    <path class="room" d="M 5361.96,8628.11 L 5367.87,8593.45 L 5388.94,8597.08 L 5388.61,8599.01 L 5403.29,8601.54 L 5397.71,8634.27 L 5361.96,8628.11 Z" />
    <text x="5382.63" y="8613.86" class="label">陽台</text>
    <path class="room" d="M 5467.97,8220.59 L 5504.59,8005.82 L 5520.80,8008.61 L 5526.61,7974.54 L 5645.39,7995.02 L 5627.26,8101.36 L 5801.47,8131.38 L 5777.18,8273.88 L 5467.97,8220.59 Z" />
    <text x="5634.72" y="8124.21" class="label">行政室</text>
    <path class="room" d="M 5401.42,8533.91 L 5438.42,8316.86 L 5467.40,8321.85 L 5473.24,8287.58 L 5619.56,8312.79 L 5591.52,8477.25 L 5544.13,8469.08 L 5529.32,8555.96 L 5401.42,8533.91 Z" />
    <text x="5510.49" y="8421.77" class="label">網路數據分析實驗室</text>
    <path class="room" d="M 5474.90,7965.63 L 5480.80,7931.01 L 5516.55,7937.18 L 5510.96,7969.91 L 5496.28,7967.38 L 5495.96,7969.26 L 5474.90,7965.63 Z" />
    <text x="5495.72" y="7950.46" class="label">陽台</text>
    <path class="room" d="M 5051.55,8213.18 L 5060.63,8159.90 L 5074.67,8162.33 L 5065.59,8215.60 L 5051.55,8213.18 Z" />
    <text x="5063.11" y="8187.75" class="label">花台</text>
    <path class="room" d="M 5040.49,8093.00 L 5070.48,7917.12 L 5147.72,7930.43 L 5145.42,7943.91 L 5147.41,7944.26 L 5142.48,7973.20 L 5109.85,7967.58 L 5111.28,7959.17 L 5080.63,7953.89 L 5078.89,7964.16 L 5107.61,7969.12 L 5087.48,8087.22 L 5058.75,8082.27 L 5057.00,8092.54 L 5085.73,8097.49 L 5085.18,8100.70 L 5040.49,8093.00 Z M 5085.18,8100.70 L 5085.18,8100.70 L 5085.73,8097.49 L 5085.18,8100.70 Z M 5087.48,8087.22 L 5087.48,8087.22 L 5107.61,7969.12 L 5107.61,7969.12 L 5087.48,8087.22 Z" />
    <text x="5094.11" y="8008.91" class="label">露台</text>
    <path class="room" d="M 5518.50,8619.41 L 5544.13,8469.08 L 5591.52,8477.25 L 5619.56,8312.79 L 5787.33,8341.71 L 5781.49,8375.99 L 5783.54,8376.34 L 5741.52,8622.83 L 5739.47,8622.48 L 5733.67,8656.50 L 5518.50,8619.41 Z" />
    <text x="5652.92" y="8484.64" class="label">網路威脅防禦實驗室</text>
    <path class="room" d="M 5065.59,8215.60 L 5085.18,8100.70 L 5085.73,8097.49 L 5087.64,8097.82 L 5089.39,8087.55 L 5087.48,8087.22 L 5107.61,7969.12 L 5109.53,7969.44 L 5109.85,7967.58 L 5142.48,7973.20 L 5100.14,8221.56 L 5098.15,8221.21 L 5097.82,8223.14 L 5067.18,8217.86 L 5067.51,8215.93 L 5065.59,8215.60 Z" />
    <text x="5104.03" y="8095.36" class="label">陽台</text>
  </g>
  <g id="gis_room_B2D_11F">
    <path class="room" d="M 13392.79,2642.91 L 13459.16,2639.09 L 13462.68,2701.01 L 13396.31,2704.82 L 13392.79,2642.91 Z" />
    <text x="13427.73" y="2671.96" class="label">電梯</text>
    <path class="room" d="M 13475.74,2581.71 L 13708.90,2568.31 L 13711.15,2607.82 L 13477.99,2621.22 L 13475.74,2581.71 Z M 13643.46,2611.71 L 13643.46,2611.71 L 13663.43,2610.56 L 13643.46,2611.71 Z" />
    <text x="13593.44" y="2594.77" class="label">陽台</text>
    <path class="room" d="M 13734.47,2685.38 L 13801.04,2681.56 L 13804.44,2741.46 L 13737.88,2745.29 L 13734.47,2685.38 Z" />
    <text x="13769.46" y="2713.42" class="label">電梯</text>
    <path class="room" d="M 13356.29,2839.75 L 13446.43,2834.57 L 13453.73,2963.08 L 13447.08,2963.46 L 13447.65,2973.50 L 13370.43,2977.94 L 13369.86,2967.90 L 13363.60,2968.26 L 13356.29,2839.75 Z" />
    <text x="13405.01" y="2906.25" class="label">寢室</text>
    <path class="room" d="M 13663.43,2610.56 L 13730.00,2606.73 L 13738.87,2762.69 L 13672.30,2766.52 L 13663.43,2610.56 Z M 13671.47,2751.98 L 13672.30,2766.52 L 13671.47,2751.98 L 13671.47,2751.98 Z" />
    <text x="13701.15" y="2686.63" class="label">寢室</text>
    <path class="room" d="M 13833.99,2415.42 L 13840.65,2415.03 L 13840.08,2405.00 L 13917.30,2400.56 L 13917.87,2410.60 L 13924.53,2410.22 L 13931.86,2539.30 L 13841.33,2544.51 L 13833.99,2415.42 Z M 13917.87,2410.60 L 13917.87,2410.60 L 13924.53,2410.22 L 13924.53,2410.22 L 13917.87,2410.60 Z" />
    <text x="13882.93" y="2472.53" class="label">寢室</text>
    <path class="room" d="M 14015.06,2405.01 L 14021.71,2404.63 L 14021.14,2394.59 L 14098.36,2390.15 L 14098.85,2398.85 L 14105.51,2398.47 L 14112.93,2528.90 L 14022.40,2534.10 L 14015.06,2405.01 Z" />
    <text x="14063.99" y="2462.12" class="label">寢室</text>
    <path class="room" d="M 13675.42,2821.40 L 13765.95,2816.20 L 13773.26,2944.71 L 13766.60,2945.09 L 13767.17,2955.13 L 13689.96,2959.57 L 13689.38,2949.53 L 13682.73,2949.91 L 13675.42,2821.40 Z" />
    <text x="13724.34" y="2887.88" class="label">寢室</text>
    <path class="room" d="M 13765.95,2816.20 L 13856.48,2810.99 L 13863.79,2939.50 L 13857.13,2939.89 L 13857.70,2949.93 L 13780.49,2954.37 L 13779.92,2944.33 L 13773.26,2944.71 L 13765.95,2816.20 Z" />
    <text x="13814.87" y="2882.68" class="label">寢室</text>
    <path class="room" d="M 12982.62,2665.69 L 12991.87,2665.15 L 12990.96,2649.22 L 13072.44,2644.54 L 13080.23,2782.56 L 13073.23,2782.96 L 13073.80,2792.99 L 12997.12,2797.40 L 12996.53,2787.10 L 12989.53,2787.50 L 12982.62,2665.69 Z" />
    <path class="room" d="M 12983.61,2683.11 L 12983.92,2688.68 L 12983.92,2688.68 L 12983.61,2683.11 Z" />
    <text x="13031.42" y="2720.97" class="label">廁所</text>
    <path class="room" d="M 13163.24,2639.32 L 13253.57,2634.12 L 13261.41,2772.01 L 13254.56,2772.40 L 13255.14,2782.58 L 13178.18,2787.00 L 13177.61,2776.82 L 13170.88,2777.21 L 13163.24,2639.32 Z" />
    <text x="13212.33" y="2710.56" class="label">寢室</text>
    <path class="room" d="M 13856.48,2810.99 L 13947.02,2805.79 L 13954.46,2934.29 L 13947.67,2934.68 L 13948.24,2944.72 L 13871.02,2949.16 L 13870.45,2939.12 L 13863.79,2939.50 L 13856.48,2810.99 Z" />
    <text x="13905.47" y="2877.47" class="label">寢室</text>
    <path class="room" d="M 13396.31,2704.82 L 13462.68,2701.01 L 13466.08,2760.91 L 13399.71,2764.73 L 13396.31,2704.82 Z" />
    <text x="13431.19" y="2732.87" class="label">電梯</text>
    <path class="room" d="M 13265.56,2844.96 L 13356.29,2839.75 L 13363.60,2968.26 L 13356.55,2968.67 L 13357.12,2978.70 L 13279.90,2983.14 L 13279.33,2973.10 L 13272.87,2973.47 L 13265.56,2844.96 Z" />
    <text x="13314.58" y="2911.45" class="label">寢室</text>
    <path class="room" d="M 13524.97,2618.52 L 13663.43,2610.56 L 13672.30,2766.52 L 13533.84,2774.48 L 13524.97,2618.52 Z M 13643.46,2611.71 L 13644.22,2625.10 L 13664.19,2623.95 L 13663.43,2610.56 L 13643.46,2611.71 Z M 13653.35,2753.00 L 13654.18,2767.54 L 13672.30,2766.52 L 13671.47,2751.98 L 13653.35,2753.00 Z" />
    <path class="room" d="M 13524.97,2618.52 L 13544.94,2617.38 L 13545.70,2630.76 L 13525.73,2631.91 L 13524.97,2618.52 Z" />
    <path class="room" d="M 13533.01,2759.92 L 13551.13,2758.90 L 13551.96,2773.44 L 13533.84,2774.48 L 13533.01,2759.92 Z" />
    <text x="13598.63" y="2692.52" class="label">廁所</text>
    <path class="room" d="M 13446.43,2834.57 L 13536.96,2829.36 L 13544.27,2957.87 L 13537.61,2958.25 L 13538.18,2968.29 L 13460.96,2972.74 L 13460.39,2962.69 L 13453.73,2963.08 L 13446.43,2834.57 Z" />
    <text x="13495.35" y="2901.05" class="label">寢室</text>
    <path class="room" d="M 13253.57,2634.12 L 13326.20,2629.95 L 13335.07,2785.90 L 13268.90,2789.71 L 13267.87,2771.63 L 13261.41,2772.01 L 13253.57,2634.12 Z" />
    <text x="13294.32" y="2709.83" class="label">樓梯</text>
    <path class="room" d="M 13930.61,2399.79 L 14007.83,2395.35 L 14008.40,2405.39 L 14015.06,2405.01 L 14022.40,2534.10 L 13931.86,2539.30 L 13924.53,2410.22 L 13931.18,2409.83 L 13930.61,2399.79 Z" />
    <text x="13973.46" y="2467.33" class="label">寢室</text>
    <path class="room" d="M 14105.51,2398.47 L 14112.17,2398.09 L 14111.67,2389.38 L 14188.89,2384.94 L 14189.46,2394.99 L 14196.12,2394.60 L 14203.46,2523.69 L 14112.93,2528.90 L 14105.51,2398.47 Z" />
    <text x="14154.49" y="2456.92" class="label">寢室</text>
    <path class="room" d="M 14025.56,2589.75 L 14116.09,2584.54 L 14123.93,2722.42 L 14117.27,2722.81 L 14117.85,2732.98 L 14040.63,2737.42 L 14040.06,2727.24 L 14033.40,2727.63 L 14025.56,2589.75 Z" />
    <text x="14074.75" y="2660.98" class="label">寢室</text>
    <path class="room" d="M 13072.44,2644.54 L 13163.24,2639.32 L 13170.88,2777.21 L 13163.89,2777.61 L 13164.47,2787.78 L 13087.79,2792.18 L 13087.21,2782.16 L 13080.23,2782.56 L 13072.44,2644.54 Z M 13163.24,2639.32 L 13170.88,2777.21 L 13170.88,2777.21 L 13163.24,2639.32 Z M 13163.89,2777.61 L 13164.47,2787.78 L 13164.47,2787.78 L 13163.89,2777.61 L 13163.89,2777.61 Z" />
    <text x="13121.66" y="2715.75" class="label">寢室</text>
    <path class="room" d="M 12941.21,2556.23 L 12976.26,2554.21 L 12978.53,2594.11 L 13002.92,2592.71 L 13006.08,2648.35 L 12981.70,2649.75 L 12983.92,2688.68 L 12948.86,2690.70 L 12941.21,2556.23 Z" />
    <text x="12973.65" y="2622.46" class="label">曬衣間</text>
    <path class="room" d="M 13458.20,2622.36 L 13524.97,2618.52 L 13533.84,2774.48 L 13467.07,2778.32 L 13458.20,2622.36 Z" />
    <text x="13496.02" y="2698.42" class="label">寢室</text>
    <path class="room" d="M 13536.96,2829.36 L 13675.42,2821.40 L 13682.73,2949.91 L 13676.07,2950.30 L 13676.64,2960.34 L 13551.49,2967.53 L 13550.92,2957.49 L 13544.27,2957.87 L 13536.96,2829.36 Z" />
    <text x="13609.84" y="2894.47" class="label">寢室</text>
    <path class="room" d="M 14116.09,2584.54 L 14197.36,2579.87 L 14198.29,2595.80 L 14207.53,2595.27 L 14214.46,2717.22 L 14207.81,2717.60 L 14208.39,2727.78 L 14131.17,2732.21 L 14130.59,2722.04 L 14123.93,2722.42 L 14116.09,2584.54 Z" />
    <text x="14165.28" y="2656.04" class="label">廁所</text>
    <path class="room" d="M 14179.09,2525.09 L 14203.46,2523.69 L 14201.19,2483.81 L 14236.26,2481.79 L 14243.91,2616.26 L 14208.84,2618.28 L 14206.62,2579.34 L 14182.25,2580.74 L 14179.09,2525.09 Z" />
    <text x="14211.50" y="2550.03" class="label">曬衣間</text>
    <path class="room" d="M 13730.95,2623.47 L 13797.52,2619.64 L 13801.04,2681.56 L 13734.47,2685.38 L 13730.95,2623.47 Z" />
    <text x="13766.00" y="2652.51" class="label">電梯</text>
    <path class="room" d="M 13862.07,2599.14 L 13935.03,2594.95 L 13942.87,2732.83 L 13936.21,2733.21 L 13937.24,2751.29 L 13870.94,2755.10 L 13862.07,2599.14 Z" />
    <text x="13902.47" y="2675.02" class="label">樓梯</text>
    <path class="room" d="M 13935.03,2594.95 L 14025.56,2589.75 L 14033.40,2727.63 L 14026.74,2728.01 L 14027.32,2738.18 L 13950.10,2742.62 L 13949.53,2732.45 L 13942.87,2732.83 L 13935.03,2594.95 Z" />
    <text x="13984.21" y="2666.18" class="label">寢室</text>
  </g>
  <g id="gis_room_EL_11F">
    <path class="room" d="M 14110.02,6793.44 L 14110.69,6623.07 L 14185.50,6623.37 L 14184.83,6793.74 L 14110.02,6793.44 Z" />
    <text x="14147.76" y="6708.40" class="label">彭朋群老師研究室</text>
    <path class="room" d="M 14031.91,7462.62 L 14032.11,7412.09 L 14054.14,7412.17 L 14068.26,7412.23 L 14068.19,7429.82 L 14242.03,7430.51 L 14242.10,7412.93 L 14275.65,7413.06 L 14275.74,7389.61 L 14264.08,7389.57 L 14264.26,7345.69 L 14699.12,7347.41 L 14698.98,7383.49 L 14683.82,7383.43 L 14683.70,7414.69 L 14697.95,7414.75 L 14697.88,7431.68 L 14918.10,7432.56 L 14918.17,7415.63 L 14930.47,7415.68 L 14930.34,7448.89 L 14713.36,7448.02 L 14713.30,7465.35 L 14473.65,7464.39 L 14241.90,7463.46 L 14031.91,7462.62 Z" />
    <text x="14481.19" y="7405.52" class="label">室外空中交誼區</text>
    <path class="room" d="M 14185.50,6623.37 L 14185.70,6572.57 L 14260.51,6572.87 L 14260.37,6608.04 L 14255.52,6608.02 L 14255.46,6623.65 L 14185.50,6623.37 Z" />
    <text x="14223.01" y="6598.11" class="label">陽台</text>
    <path class="room" d="M 14110.69,6623.07 L 14110.89,6572.27 L 14185.70,6572.57 L 14185.50,6623.37 L 14110.69,6623.07 Z" />
    <text x="14148.20" y="6597.82" class="label">陽台</text>
    <path class="room" d="M 14335.12,6623.97 L 14335.32,6573.17 L 14410.13,6573.47 L 14409.93,6624.26 L 14335.12,6623.97 Z M 14409.91,6624.26 L 14409.93,6624.26 L 14410.13,6573.47 L 14410.12,6573.47 L 14409.91,6624.26 Z" />
    <text x="14372.63" y="6598.72" class="label">陽台/緊急進口</text>
    <path class="room" d="M 14264.51,7282.76 L 14286.79,7282.85 L 14287.01,7227.11 L 14482.35,7227.89 L 14481.88,7346.54 L 14264.26,7345.69 L 14264.26,7343.72 L 14264.51,7282.76 Z" />
    <text x="14373.31" y="7286.83" class="label">光電實務研討室(I)</text>
    <path class="room" d="M 14780.29,6967.66 L 14780.71,6861.77 L 14911.29,6862.29 L 14911.17,6891.99 L 14918.95,6892.02 L 14918.74,6944.12 L 14913.56,6944.10 L 14913.46,6968.19 L 14780.29,6967.66 Z" />
    <text x="14849.62" y="6914.98" class="label">材料分析研究室</text>
    <path class="room" d="M 14034.35,7009.62 L 14034.86,6880.67 L 14056.24,6880.75 L 14056.27,6872.94 L 14254.46,6873.73 L 14254.43,6881.54 L 14277.75,6881.64 L 14277.78,6873.82 L 14335.82,6874.05 L 14335.56,6937.88 L 14374.69,6938.03 L 14374.40,7010.98 L 14034.35,7009.62 Z" />
    <text x="14204.52" y="6941.96" class="label">半導體材料暨光電元件製程實驗室</text>
    <path class="room" d="M 14033.50,7226.09 L 14242.45,7226.93 L 14242.23,7282.67 L 14264.51,7282.76 L 14264.26,7343.72 L 14264.08,7389.57 L 14252.43,7389.52 L 14252.33,7412.97 L 14242.10,7412.93 L 14242.03,7430.51 L 14068.19,7429.82 L 14068.26,7412.23 L 14054.14,7412.17 L 14054.23,7388.73 L 14032.85,7388.64 L 14033.50,7226.09 Z M 14252.43,7389.52 L 14252.43,7389.52 L 14264.08,7389.57 L 14252.43,7389.52 Z" />
    <text x="14148.68" y="7328.30" class="label">薄膜與奈米材料實驗室</text>
    <path class="room" d="M 13542.27,7128.78 L 13542.48,7076.68 L 13547.66,7076.70 L 13547.75,7052.61 L 13770.56,7053.50 L 13770.47,7077.59 L 13775.65,7077.61 L 13775.44,7129.71 L 13767.67,7129.68 L 13767.55,7158.99 L 13716.39,7158.79 L 13716.44,7145.76 L 13549.98,7145.09 L 13550.04,7128.81 L 13542.27,7128.78 Z" />
    <text x="13658.96" y="7105.80" class="label">甲樓梯間</text>
    <path class="room" d="M 14832.18,6721.69 L 14832.56,6625.96 L 14912.22,6626.27 L 14912.16,6641.90 L 14925.76,6641.96 L 14925.45,6722.06 L 14832.18,6721.69 Z" />
    <text x="14878.97" y="6674.01" class="label">緊急升降機</text>
    <path class="room" d="M 13543.02,6938.62 L 13543.23,6886.52 L 13551.00,6886.55 L 13551.06,6870.92 L 13622.96,6871.20 L 13622.66,6944.80 L 13548.18,6944.50 L 13548.20,6938.64 L 13543.02,6938.62 Z" />
    <text x="13582.99" y="6907.86" class="label">電梯</text>
    <path class="room" d="M 14374.40,7010.98 L 14611.59,7011.92 L 14611.04,7148.68 L 14498.21,7148.23 L 14498.24,7140.42 L 14474.93,7140.33 L 14474.90,7148.14 L 14412.98,7147.89 L 14413.23,7084.07 L 14374.11,7083.92 L 14374.40,7010.98 Z" />
    <text x="14492.85" y="7079.83" class="label">光電元件與材料實驗室</text>
    <path class="room" d="M 14047.99,6607.19 L 14048.13,6572.02 L 14110.89,6572.27 L 14110.69,6623.07 L 14057.26,6622.86 L 14057.32,6607.22 L 14047.99,6607.19 Z" />
    <text x="14079.44" y="6597.54" class="label">陽台</text>
    <path class="room" d="M 13529.75,6855.20 L 13530.73,6607.07 L 13791.11,6608.11 L 13791.00,6636.12 L 13558.47,6635.19 L 13557.54,6870.94 L 13551.06,6870.92 L 13551.12,6855.29 L 13529.75,6855.20 Z" />
    <text x="13660.43" y="6739.01" class="label">花台</text>
    <path class="room" d="M 14034.35,7009.62 L 14253.92,7010.49 L 14253.41,7139.44 L 14253.38,7147.25 L 14055.19,7146.46 L 14055.22,7138.65 L 14033.84,7138.56 L 14034.35,7009.62 Z" />
    <text x="14143.88" y="7078.43" class="label">薄膜量測實驗室</text>
    <path class="room" d="M 14931.21,7229.68 L 14931.46,7165.60 L 14933.41,7165.61 L 14933.51,7151.93 L 14985.98,7152.14 L 14984.89,7413.94 L 14932.43,7413.73 L 14932.53,7386.38 L 14950.02,7386.32 L 14950.64,7229.76 L 14931.21,7229.68 Z" />
    <text x="14958.59" y="7282.94" class="label">陽台</text>
    <path class="room" d="M 13657.74,7410.59 L 13658.01,7343.38 L 13661.64,7343.40 L 13661.69,7329.85 L 13692.78,7329.97 L 13693.02,7269.93 L 13788.49,7270.31 L 13788.05,7379.85 L 13766.68,7379.77 L 13766.62,7395.39 L 13719.98,7395.21 L 13720.00,7390.00 L 13691.51,7389.88 L 13691.42,7410.72 L 13657.74,7410.59 Z" />
    <text x="13723.12" y="7340.33" class="label">男廁</text>
    <path class="room" d="M 13622.66,6944.80 L 13622.96,6871.20 L 13696.79,6871.50 L 13696.50,6945.09 L 13622.66,6944.80 Z" />
    <text x="13659.73" y="6908.15" class="label">電梯</text>
    <path class="room" d="M 13622.83,7329.69 L 13623.06,7269.65 L 13693.02,7269.93 L 13692.78,7329.97 L 13622.83,7329.69 Z" />
    <text x="13657.92" y="7299.81" class="label">無障礙廁所</text>
    <path class="room" d="M 14409.91,6624.26 L 14410.12,6573.47 L 14486.48,6573.77 L 14486.34,6608.94 L 14477.01,6608.90 L 14476.95,6624.53 L 14409.91,6624.26 Z" />
    <text x="14448.20" y="6599.00" class="label">陽台</text>
    <path class="room" d="M 14721.59,7399.21 L 14722.26,7228.85 L 14950.64,7229.76 L 14950.02,7386.45 L 14932.53,7386.38 L 14932.54,7384.43 L 14905.34,7384.32 L 14905.28,7399.95 L 14721.59,7399.21 Z M 14932.53,7386.38 L 14950.02,7386.45 L 14950.64,7229.76 L 14950.64,7229.76 L 14950.02,7386.32 L 14932.53,7386.38 Z" />
    <text x="14836.12" y="7314.40" class="label">光電元件與材料實驗室(I)</text>
    <path class="room" d="M 14334.45,6794.34 L 14335.12,6623.97 L 14409.93,6624.26 L 14409.26,6794.63 L 14334.45,6794.34 Z" />
    <text x="14372.19" y="6709.30" class="label">董容辰老師研究室</text>
    <path class="room" d="M 14484.71,6632.38 L 14500.26,6632.44 L 14500.34,6610.95 L 14686.88,6611.70 L 14686.76,6641.00 L 14715.91,6641.12 L 14715.73,6685.67 L 14688.14,6685.56 L 14688.00,6721.11 L 14484.36,6720.30 L 14484.71,6632.38 Z" />
    <text x="14600.14" y="6666.03" class="label">乙樓梯間</text>
    <path class="room" d="M 13696.50,6945.09 L 13696.79,6871.50 L 13768.69,6871.79 L 13768.63,6887.42 L 13776.40,6887.45 L 13776.19,6939.55 L 13771.01,6939.53 L 13770.99,6945.39 L 13696.50,6945.09 Z" />
    <text x="13736.45" y="6908.44" class="label">電梯</text>
    <path class="room" d="M 14260.51,6572.87 L 14335.32,6573.17 L 14335.12,6623.97 L 14278.77,6623.74 L 14278.83,6608.11 L 14260.37,6608.04 L 14260.51,6572.87 Z" />
    <text x="14297.85" y="6598.42" class="label">陽台</text>
    <path class="room" d="M 14184.83,6793.74 L 14185.50,6623.37 L 14255.46,6623.65 L 14255.42,6631.46 L 14260.28,6631.48 L 14259.64,6794.03 L 14184.83,6793.74 Z" />
    <text x="14222.55" y="6708.70" class="label">陳隆建老師研究室</text>
    <path class="room" d="M 14482.35,7227.89 L 14677.70,7228.67 L 14677.23,7347.32 L 14481.88,7346.54 L 14482.35,7227.89 Z" />
    <text x="14579.79" y="7287.60" class="label">光電實務研討室(II)</text>
    <path class="room" d="M 14409.26,6794.63 L 14409.93,6624.26 L 14476.97,6624.53 L 14476.94,6632.35 L 14484.71,6632.38 L 14484.07,6794.93 L 14409.26,6794.63 Z" />
    <text x="14446.98" y="6709.60" class="label">教師研究室</text>
    <path class="room" d="M 14253.41,7139.44 L 14253.92,7010.49 L 14374.40,7010.98 L 14374.11,7083.92 L 14334.99,7083.76 L 14334.73,7147.58 L 14276.70,7147.35 L 14276.73,7139.53 L 14253.41,7139.44 Z" />
    <text x="14313.91" y="7079.04" class="label">光電元件與材料實驗室(II)</text>
    <path class="room" d="M 14374.40,7010.98 L 14374.69,6938.03 L 14413.81,6938.19 L 14414.06,6874.37 L 14475.98,6874.61 L 14476.04,6858.98 L 14499.36,6859.08 L 14499.30,6874.71 L 14685.83,6875.45 L 14685.46,6969.23 L 14694.66,6969.27 L 14694.49,7012.26 L 14611.59,7011.92 L 14374.40,7010.98 Z M 14475.95,6882.43 L 14499.26,6882.52 L 14499.36,6859.08 L 14476.04,6858.98 L 14475.95,6882.43 Z" />
    <text x="14534.53" y="6935.62" class="label">電子顯微鏡實驗室</text>
    <path class="room" d="M 14697.88,7431.68 L 14697.95,7414.75 L 14918.17,7415.63 L 14918.10,7432.56 L 14697.88,7431.68 Z" />
    <text x="14808.03" y="7423.66" class="label">花台</text>
    <path class="room" d="M 13527.68,7378.81 L 13528.11,7269.27 L 13623.06,7269.64 L 13622.78,7343.24 L 13658.01,7343.38 L 13657.74,7410.59 L 13624.06,7410.45 L 13624.14,7389.61 L 13595.65,7389.50 L 13595.63,7394.71 L 13548.99,7394.53 L 13549.05,7378.89 L 13527.68,7378.81 Z" />
    <text x="13592.84" y="7339.93" class="label">女廁</text>
    <path class="room" d="M 14035.21,6793.14 L 14035.85,6630.58 L 14057.23,6630.67 L 14057.26,6622.86 L 14110.69,6623.07 L 14110.02,6793.44 L 14035.21,6793.14 Z" />
    <text x="14072.95" y="6708.15" class="label">林家弘老師研究室</text>
    <path class="room" d="M 14259.64,6794.03 L 14260.28,6631.48 L 14278.74,6631.56 L 14278.77,6623.74 L 14335.12,6623.97 L 14334.45,6794.34 L 14259.64,6794.03 Z" />
    <text x="14297.38" y="6709.04" class="label">王耀德老師研究室</text>
    <path class="room" d="M 14779.52,7163.43 L 14779.94,7057.53 L 14913.10,7058.07 L 14913.01,7082.16 L 14918.19,7082.18 L 14917.99,7134.28 L 14910.21,7134.25 L 14910.10,7163.95 L 14779.52,7163.43 Z" />
    <text x="14848.86" y="7110.74" class="label">光子技術模擬實驗室</text>
    <path class="room" d="M 13557.54,6870.94 L 13558.47,6635.19 L 13791.00,6636.12 L 13790.21,6768.97 L 13776.87,6768.92 L 13776.52,6856.19 L 13768.75,6856.16 L 13768.69,6871.79 L 13739.67,6871.67 L 13739.77,6845.62 L 13579.14,6844.98 L 13579.04,6871.03 L 13557.54,6870.94 Z" />
    <text x="13674.27" y="6753.49" class="label">露台/緊急進口</text>
  </g>
  <g id="gis_room_HR_11F">
    <path class="room" d="M 2818.93,1770.32 L 2819.59,1600.34 L 2910.27,1600.70 L 2909.50,1796.73 L 2831.78,1796.42 L 2831.88,1770.37 L 2818.93,1770.32 Z" />
    <text x="2864.60" y="1698.53" class="label">田芳治老師研究室</text>
    <path class="room" d="M 2819.95,1509.81 L 2820.56,1353.51 L 2833.52,1353.56 L 2833.62,1327.51 L 2911.34,1327.82 L 2910.53,1534.27 L 2832.81,1533.96 L 2832.90,1509.86 L 2819.95,1509.81 Z" />
    <text x="2865.64" y="1430.89" class="label">林益辰老師研究室</text>
    <path class="room" d="M 2290.83,1656.21 L 2291.06,1598.24 L 2379.80,1598.59 L 2379.57,1656.57 L 2290.83,1656.21 Z" />
    <text x="2335.31" y="1627.40" class="label">電梯</text>
    <path class="room" d="M 3246.84,1498.96 L 3247.50,1331.11 L 3323.28,1331.41 L 3323.19,1355.50 L 3349.09,1355.60 L 3348.48,1511.91 L 3322.57,1511.80 L 3322.48,1535.90 L 3281.67,1535.74 L 3281.81,1499.09 L 3246.84,1498.96 Z" />
    <text x="3297.97" y="1433.51" class="label">特別安全梯</text>
    <path class="room" d="M 3222.73,1535.50 L 3222.88,1496.17 L 3246.85,1496.26 L 3246.69,1535.60 L 3222.73,1535.50 Z" />
    <text x="3234.79" y="1515.88" class="label">電力</text>
    <path class="room" d="M 3222.88,1496.17 L 3222.98,1472.20 L 3246.94,1472.30 L 3246.85,1496.26 L 3222.88,1496.17 Z" />
    <text x="3234.91" y="1484.23" class="label">撒水</text>
    <path class="room" d="M 2546.78,1795.29 L 2547.55,1599.26 L 2627.22,1599.57 L 2626.56,1769.55 L 2624.61,1769.55 L 2624.51,1795.59 L 2546.78,1795.29 Z" />
    <text x="2587.00" y="1697.43" class="label">林淑玲老師研究室</text>
    <path class="room" d="M 2909.50,1796.73 L 2910.27,1600.70 L 3000.95,1601.06 L 3000.29,1771.03 L 2987.33,1770.98 L 2987.23,1797.03 L 2909.50,1796.73 Z" />
    <text x="2955.23" y="1698.87" class="label">王河星老師研究室</text>
    <path class="room" d="M 3001.31,1510.53 L 3001.92,1354.23 L 3014.87,1354.28 L 3014.98,1328.23 L 3092.70,1328.53 L 3091.89,1534.98 L 3014.17,1534.68 L 3014.26,1510.58 L 3001.31,1510.53 Z" />
    <text x="3047.00" y="1431.61" class="label">吳國棟老師研究室</text>
    <path class="room" d="M 2638.59,1509.09 L 2639.20,1352.79 L 2652.16,1352.84 L 2652.26,1326.79 L 2729.98,1327.10 L 2729.17,1533.55 L 2651.45,1533.24 L 2651.54,1509.14 L 2638.59,1509.09 Z" />
    <text x="2684.29" y="1430.17" class="label">林榮禾老師研究室</text>
    <path class="room" d="M 2446.22,1508.33 L 2446.83,1352.02 L 2470.80,1352.12 L 2470.90,1326.07 L 2543.12,1326.36 L 2542.31,1532.81 L 2470.09,1532.52 L 2470.18,1508.42 L 2446.22,1508.33 Z" />
    <text x="2494.67" y="1429.44" class="label">邱垂昱老師研究室</text>
    <path class="room" d="M 3165.01,1328.82 L 3165.73,1145.54 L 3281.78,1048.41 L 3349.59,1130.32 L 3349.20,1329.55 L 3323.29,1329.46 L 3323.28,1331.41 L 3196.33,1330.91 L 3196.34,1328.95 L 3165.01,1328.82 Z M 3170.43,1328.84 L 3196.34,1328.95 L 3170.43,1328.84 L 3170.43,1328.84 Z M 3323.29,1329.46 L 3349.20,1329.55 L 3323.29,1329.45 L 3323.29,1329.46 Z" />
    <text x="3257.30" y="1189.91" class="label">露台</text>
    <path class="room" d="M 3241.79,1796.09 L 3242.13,1708.17 L 3266.74,1708.27 L 3266.91,1664.63 L 3345.94,1664.95 L 3345.51,1772.40 L 3321.55,1772.31 L 3321.45,1796.41 L 3241.79,1796.09 Z" />
    <text x="3293.86" y="1730.52" class="label">女廁</text>
    <path class="room" d="M 2292.13,1325.36 L 2293.30,1126.13 L 2361.75,1044.76 L 2477.04,1142.81 L 2476.32,1326.09 L 2444.99,1325.97 L 2444.98,1327.92 L 2318.03,1327.42 L 2318.04,1325.46 L 2292.13,1325.36 Z M 2444.99,1325.97 L 2470.90,1326.07 L 2470.90,1326.07 L 2444.99,1325.97 Z" />
    <text x="2384.58" y="1186.34" class="label">露台</text>
    <path class="room" d="M 2291.41,1507.71 L 2292.03,1351.41 L 2317.94,1351.51 L 2318.03,1327.42 L 2393.81,1327.72 L 2393.16,1495.74 L 2358.18,1495.60 L 2358.03,1532.11 L 2317.23,1531.91 L 2317.32,1507.82 L 2291.41,1507.71 Z" />
    <text x="2342.61" y="1429.76" class="label">特別安全梯</text>
    <path class="room" d="M 2467.22,1768.92 L 2467.89,1598.94 L 2547.55,1599.26 L 2546.78,1795.29 L 2469.06,1794.98 L 2469.16,1768.93 L 2467.22,1768.92 Z" />
    <text x="2507.39" y="1697.11" class="label">呂怜樺老師研究室</text>
    <path class="room" d="M 2290.39,1768.22 L 2290.61,1712.22 L 2379.35,1712.57 L 2379.12,1770.53 L 2392.08,1770.59 L 2391.99,1792.72 L 2316.21,1792.42 L 2316.30,1768.32 L 2290.39,1768.22 Z" />
    <text x="2341.23" y="1752.47" class="label">電梯</text>
    <path class="room" d="M 2910.53,1534.27 L 2911.34,1327.82 L 2989.07,1328.12 L 2988.97,1354.17 L 3001.92,1354.23 L 3001.31,1510.53 L 2988.35,1510.48 L 2988.26,1534.57 L 2910.53,1534.27 Z" />
    <text x="2956.23" y="1431.19" class="label">蔡榮發老師研究室</text>
    <path class="room" d="M 2626.56,1769.55 L 2627.22,1599.57 L 2728.91,1599.98 L 2728.14,1796.01 L 2650.42,1795.70 L 2650.52,1769.65 L 2626.56,1769.55 Z" />
    <text x="2677.73" y="1697.79" class="label">陳凱瀛老師研究室</text>
    <path class="room" d="M 3091.89,1534.98 L 3092.70,1328.53 L 3170.43,1328.84 L 3170.32,1354.89 L 3194.29,1354.99 L 3193.68,1511.29 L 3169.71,1511.20 L 3169.62,1535.29 L 3091.89,1534.98 Z" />
    <text x="3143.09" y="1431.91" class="label">李鎮宇老師研究室</text>
    <path class="room" d="M 2542.31,1532.81 L 2543.12,1326.36 L 2626.35,1326.69 L 2626.25,1352.74 L 2639.20,1352.79 L 2638.59,1509.09 L 2625.63,1509.04 L 2625.54,1533.14 L 2542.31,1532.81 Z" />
    <text x="2590.76" y="1429.75" class="label">劉建浩老師研究室</text>
    <path class="room" d="M 3170.63,1771.71 L 3170.88,1707.89 L 3242.13,1708.17 L 3241.79,1796.09 L 3194.50,1795.90 L 3194.60,1771.81 L 3170.63,1771.71 Z" />
    <text x="3206.38" y="1751.99" class="label">無障礙廁所</text>
    <path class="room" d="M 3259.14,1664.60 L 3259.39,1602.08 L 3332.45,1602.37 L 3332.36,1624.51 L 3346.10,1624.57 L 3345.94,1664.95 L 3259.14,1664.60 Z" />
    <text x="3302.62" y="1633.51" class="label">電梯</text>
    <path class="room" d="M 2290.61,1712.22 L 2290.83,1656.21 L 2379.57,1656.57 L 2379.35,1712.57 L 2290.61,1712.22 Z" />
    <text x="2335.09" y="1684.39" class="label">電梯</text>
    <path class="room" d="M 3000.29,1771.03 L 3000.95,1601.06 L 3091.63,1601.41 L 3090.86,1797.45 L 3013.14,1797.14 L 3013.24,1771.09 L 3000.29,1771.03 Z" />
    <text x="3045.96" y="1699.25" class="label">張文華老師研究室</text>
    <path class="room" d="M 3090.86,1797.45 L 3091.63,1601.41 L 3171.30,1601.73 L 3170.63,1771.71 L 3168.69,1771.70 L 3168.59,1797.75 L 3090.86,1797.45 Z" />
    <text x="3131.08" y="1699.58" class="label">林雅惠老師研究室</text>
    <path class="room" d="M 2728.14,1796.01 L 2728.91,1599.98 L 2819.59,1600.34 L 2818.93,1770.32 L 2805.97,1770.26 L 2805.87,1796.32 L 2728.14,1796.01 Z" />
    <text x="2773.87" y="1698.15" class="label">劉祐綸老師研究室</text>
    <path class="room" d="M 2729.17,1533.55 L 2729.98,1327.10 L 2807.71,1327.40 L 2807.61,1353.46 L 2820.56,1353.51 L 2819.95,1509.81 L 2806.99,1509.76 L 2806.90,1533.86 L 2729.17,1533.55 Z" />
    <text x="2774.87" y="1430.48" class="label">吳建文老師研究室</text>
  </g>
  <g id="gis_room_LY_11F">
    <path class="room" d="M -23628.85,-3034.19 L -23590.09,-3183.55 L -23453.45,-3147.69 L -23458.69,-3127.52 L -23447.41,-3124.56 L -23480.94,-2995.38 L -23628.85,-3034.19 Z" />
    <text x="-23538.13" y="-3089.46" class="label">空間2</text>
    <path class="room" d="M -23765.92,-3225.64 L -23723.56,-3388.86 L -23591.94,-3354.32 L -23631.36,-3202.45 L -23652.05,-3207.88 L -23654.99,-3196.53 L -23742.74,-3219.56 L -23742.41,-3220.82 L -23761.21,-3225.75 L -23761.54,-3224.49 L -23765.92,-3225.64 Z" />
    <text x="-23678.93" y="-3292.69" class="label">空間3</text>
    <path class="room" d="M -23803.70,-3080.07 L -23765.92,-3225.64 L -23761.54,-3224.49 L -23765.14,-3210.63 L -23746.34,-3205.69 L -23742.74,-3219.56 L -23654.99,-3196.53 L -23657.93,-3185.19 L -23637.25,-3179.76 L -23672.09,-3045.54 L -23803.70,-3080.07 Z" />
    <text x="-23720.48" y="-3135.59" class="label">空間4</text>
    <path class="room" d="M -23496.15,-2936.77 L -23447.41,-3124.56 L -23436.12,-3121.60 L -23427.62,-3154.37 L -23438.90,-3157.33 L -23401.28,-3302.27 L -23390.00,-3299.31 L -23389.51,-3301.20 L -23357.55,-3292.81 L -23459.94,-2898.32 L -23491.90,-2906.71 L -23484.87,-2933.81 L -23496.15,-2936.77 Z" />
    <text x="-23426.85" y="-3100.30" class="label">陽台</text>
    <path class="room" d="M -23820.96,-3005.85 L -23801.82,-3079.58 L -23672.09,-3045.54 L -23681.25,-3010.25 L -23700.05,-3015.18 L -23708.72,-2981.78 L -23718.12,-2984.25 L -23721.06,-2972.90 L -23803.79,-2994.61 L -23802.16,-3000.92 L -23820.96,-3005.85 Z" />
    <text x="-23746.53" y="-3026.24" class="label">樓梯</text>
    <path class="room" d="M -23862.40,-3070.57 L -23766.06,-3441.74 L -23713.42,-3427.93 L -23803.70,-3080.07 L -23801.82,-3079.58 L -23807.88,-3056.26 L -23862.40,-3070.57 Z" />
    <text x="-23787.91" y="-3249.00" class="label">陽台</text>
    <path class="room" d="M -23723.56,-3388.86 L -23708.51,-3446.83 L -23597.58,-3417.72 L -23600.69,-3405.75 L -23580.00,-3400.32 L -23591.94,-3354.32 L -23723.56,-3388.86 Z" />
    <text x="-23651.78" y="-3400.58" class="label">儲藏室</text>
    <path class="room" d="M -23726.06,-3451.44 L -23702.31,-3542.94 L -23553.15,-3503.80 L -23572.81,-3428.05 L -23593.49,-3433.48 L -23597.58,-3417.72 L -23726.06,-3451.44 Z" />
    <text x="-23639.60" y="-3480.33" class="label">樓梯</text>
    <path class="room" d="M -23465.34,-3321.10 L -23449.32,-3382.86 L -23396.04,-3368.88 L -23398.82,-3358.16 L -23396.94,-3357.67 L -23406.76,-3319.86 L -23408.64,-3320.35 L -23412.07,-3307.12 L -23465.34,-3321.10 Z" />
    <text x="-23430.69" y="-3344.99" class="label">電梯</text>
    <path class="room" d="M -23666.55,-2958.60 L -23654.93,-3003.34 L -23589.75,-2986.24 L -23601.36,-2941.49 L -23666.55,-2958.60 Z" />
    <text x="-23628.15" y="-2972.42" class="label">男廁</text>
    <path class="room" d="M -23520.50,-3335.57 L -23504.47,-3397.33 L -23449.32,-3382.86 L -23465.34,-3321.10 L -23520.50,-3335.57 Z" />
    <text x="-23484.91" y="-3359.21" class="label">電梯</text>
    <path class="room" d="M -23590.09,-3183.55 L -23548.71,-3342.97 L -23412.07,-3307.12 L -23412.56,-3305.23 L -23401.28,-3302.27 L -23438.90,-3157.33 L -23450.18,-3160.29 L -23453.45,-3147.69 L -23590.09,-3183.55 Z" />
    <text x="-23495.68" y="-3245.33" class="label">空間1</text>
    <path class="room" d="M -23608.55,-2991.17 L -23599.39,-3026.46 L -23480.94,-2995.38 L -23496.15,-2936.77 L -23507.43,-2939.73 L -23512.99,-2918.30 L -23575.04,-2934.59 L -23562.82,-2981.66 L -23589.14,-2988.57 L -23589.75,-2986.24 L -23608.55,-2991.17 Z" />
    <text x="-23544.74" y="-2972.38" class="label">女廁</text>
  </g>
</svg>