<svg width="16000" height="9099" viewBox="0 0 16000 9099" xmlns="http://www.w3.org/2000/svg" xmlns:xlink="http://www.w3.org/1999/xlink">

    <style>
        .building { fill: #f0f4f8; stroke: #d1dce5; stroke-width: 2; }
        .room     { fill: #ffffff; fill-opacity: 0.8; stroke: #bcccdc; stroke-width: 1; }
        .label    { font-family: "Noto Sans TC", sans-serif; font-size: 24px; fill: #334e68; font-weight: 500; text-anchor: middle; dominant-baseline: middle; }
    </style>
      <g id="gis_gis_building_geom">
    <path class="building" d="M 2949.26,4010.03 L 4140.85,4021.56 L 4142.10,4292.67 L 4130.90,4292.64 L 4130.40,4356.44 L 3226.66,4355.84 L 3226.31,4812.55 L 3401.68,4811.80 L 3401.95,5141.81 L 2942.28,5141.31 L 2949.26,4010.03 Z" />
    <path class="building" d="M 7088.12,2560.89 L 7700.72,2562.04 L 7700.87,2481.66 L 8148.51,2483.00 L 8147.15,2562.88 L 8693.32,2563.92 L 8721.63,2695.28 L 8721.63,2695.28 L 8715.57,3280.48 L 8690.90,3280.61 L 8690.48,3403.55 L 7085.32,3389.98 L 7085.31,3204.63 L 7000.35,3203.97 L 7003.43,2738.84 L 7087.35,2738.26 L 7088.12,2560.89 Z" />
    <path class="building" d="M 4843.51,1956.47 L 4844.51,1787.79 L 4906.35,1787.49 L 4905.24,1712.44 L 5766.54,1719.44 L 5767.05,1759.83 L 6027.80,1762.57 L 6041.22,1778.35 L 6040.91,2113.44 L 5920.93,2113.62 L 5921.58,2180.69 L 4855.22,2175.20 L 4857.61,1956.59 L 4843.51,1956.47 Z" />
    <path class="building" d="M 3188.76,5839.04 L 3184.44,6132.85 L 3009.51,6131.08 L 3010.12,5838.90 L 3188.76,5839.04 Z" />
    <path class="building" d="M 8161.26,3799.06 L 8661.34,3802.64 L 8661.72,3865.86 L 8759.20,3866.25 L 8755.51,3995.61 L 8806.86,3995.16 L 8806.05,4079.95 L 8850.04,4079.42 L 8848.57,4261.53 L 8807.12,4260.63 L 8806.31,4341.05 L 8464.87,4337.40 L 8462.68,4793.00 L 8947.00,4797.31 L 8944.64,5163.38 L 9070.07,5164.43 L 9068.88,5256.28 L 8943.78,5254.69 L 8940.58,5624.81 L 8458.26,5621.41 L 8453.24,6072.52 L 9133.83,6077.89 L 9126.51,6745.48 L 8044.27,6736.86 L 8045.15,6541.70 L 7946.95,6541.19 L 7947.74,6409.27 L 7850.08,6409.19 L 7850.29,6387.18 L 7663.94,6386.98 L 7662.42,6294.92 L 7365.94,6294.05 L 7367.40,6164.56 L 7219.73,6164.20 L 7220.56,6079.32 L 7176.49,6078.82 L 7179.52,5914.56 L 7222.17,5914.94 L 7222.98,5832.54 L 7863.48,5840.16 L 7863.88,5617.56 L 7754.27,5617.59 L 7754.43,5521.38 L 7739.08,5522.23 L 7740.67,5376.11 L 7755.56,5376.17 L 7756.55,5277.27 L 7785.97,5276.79 L 7786.18,5127.15 L 7757.98,5127.35 L 7758.14,5028.99 L 7743.59,5028.70 L 7745.39,4886.44 L 7759.72,4886.75 L 7760.11,4786.55 L 7849.88,4787.63 L 7849.21,4560.97 L 7233.65,4557.12 L 7234.22,4480.71 L 7180.57,4480.46 L 7181.34,4311.50 L 7235.49,4311.75 L 7236.10,4231.20 L 7381.06,4231.84 L 7382.58,4106.09 L 7678.18,4106.93 L 7679.62,4016.64 L 7870.79,4014.88 L 7870.93,3994.82 L 7966.89,3995.55 L 7968.35,3863.10 L 8160.60,3863.87 L 8161.26,3799.06 Z" />
    <path class="building" d="M 1785.34,1818.91 L 1846.80,1820.11 L 1846.08,1868.88 L 1915.10,1869.87 L 1914.84,1881.19 L 1956.32,1881.91 L 1956.29,1947.64 L 1913.30,1947.43 L 1912.91,1964.27 L 1844.69,1963.82 L 1844.25,1993.82 L 2113.96,1996.73 L 2111.80,2313.15 L 1638.41,2309.74 L 1638.57,2369.36 L 1402.42,2370.43 L 1402.86,2308.05 L 913.25,2304.52 L 921.14,1983.86 L 1782.78,1993.15 L 1785.34,1818.91 Z" />
    <path class="building" d="M 1233.29,3176.04 L 1233.24,3086.16 L 1689.31,3086.09 L 1689.85,3178.73 L 2105.12,3181.86 L 2100.21,3742.07 L 811.22,3734.26 L 816.44,3173.49 L 1233.29,3176.04 Z" />
    <path class="building" d="M 4422.39,3825.20 L 4557.45,3823.98 L 4558.56,3948.97 L 4423.51,3950.19 L 4422.39,3825.20 Z" />
    <path class="building" d="M 5454.09,3024.68 L 5470.25,3024.58 L 5470.20,3032.77 L 5776.10,3034.35 L 5777.47,2956.96 L 5982.23,2956.10 L 5981.83,3035.41 L 6304.16,3037.07 L 6307.16,3777.27 L 6169.76,3776.65 L 6170.26,3825.65 L 5997.21,3824.78 L 5999.79,3339.48 L 5451.60,3336.55 L 5454.09,3024.68 Z" />
    <path class="building" d="M 810.23,4162.32 L 2094.03,4174.33 L 2089.09,4719.68 L 2050.10,4719.24 L 2050.20,4746.64 L 1713.11,4742.66 L 1713.39,4715.41 L 805.90,4705.09 L 810.23,4162.32 Z" />
    <path class="building" d="M 5154.02,4923.99 L 5174.31,4923.63 L 5174.75,4823.71 L 5156.69,4823.06 L 5158.73,4730.00 L 5153.87,4730.05 L 5153.30,4532.71 L 4982.76,4534.29 L 4982.12,4520.32 L 4753.21,4517.98 L 4752.95,4206.61 L 5867.58,4215.65 L 5865.18,4622.01 L 5896.39,4622.08 L 5894.82,4763.49 L 6306.89,4767.17 L 6301.07,5688.40 L 5887.43,5691.03 L 5886.89,5832.41 L 5854.54,5832.37 L 5853.47,6070.58 L 5399.78,6064.30 L 5405.55,5280.53 L 5376.56,5280.37 L 5376.79,5215.40 L 5151.84,5213.08 L 5151.97,5219.13 L 5154.02,4923.99 Z" />
    <path class="building" d="M 3393.95,5787.13 L 3442.50,5787.21 L 3442.68,5774.53 L 3630.52,5775.89 L 3631.48,5739.98 L 4112.97,5745.69 L 4113.00,5779.38 L 4284.12,5780.62 L 4284.41,5744.13 L 4286.78,5744.18 L 4286.73,5683.26 L 4511.51,5688.82 L 4511.10,5748.44 L 4600.29,5750.13 L 4600.37,5781.26 L 4984.14,5785.27 L 4983.80,5976.74 L 5219.32,5978.53 L 5219.88,6039.07 L 5265.74,6038.84 L 5260.63,6205.34 L 5217.18,6206.06 L 5217.99,6267.47 L 5167.99,6267.69 L 5166.59,6358.65 L 4403.43,6352.99 L 4402.67,6219.38 L 4187.82,6220.82 L 4189.74,6082.55 L 3392.66,6074.33 L 3392.93,6015.46 L 3346.48,6015.69 L 3345.67,5846.07 L 3393.69,5845.84 L 3393.95,5787.13 Z" />
    <path class="building" d="M 3480.58,1049.19 L 3478.99,999.72 L 3622.50,1000.51 L 3623.18,1050.84 L 3766.99,1052.51 L 3767.46,1154.80 L 3876.62,1155.69 L 3876.12,1302.54 L 4088.23,1299.59 L 4089.53,1365.74 L 4257.77,1366.48 L 4254.19,1531.73 L 3773.89,1529.93 L 3775.24,1614.55 L 3768.91,1632.60 L 3503.68,1632.43 L 3508.43,1214.67 L 3463.89,1214.91 L 3467.11,1049.03 L 3480.58,1049.19 Z" />
    <path class="building" d="M 936.26,5355.33 L 938.67,5282.05 L 1124.06,5283.51 L 1124.24,5251.09 L 1291.35,5250.09 L 1307.39,5242.52 L 1325.18,5238.63 L 1356.16,5233.68 L 1377.43,5232.40 L 1405.24,5235.72 L 1428.02,5240.86 L 1440.65,5244.93 L 1460.13,5252.19 L 1607.57,5253.53 L 1607.60,5288.52 L 1776.51,5290.71 L 1776.60,5240.34 L 2103.44,5244.81 L 2103.50,5356.82 L 2205.45,5356.56 L 2205.38,5378.57 L 2282.83,5379.22 L 2285.51,5565.09 L 2894.09,5569.40 L 2893.37,5633.72 L 2936.68,5633.51 L 2937.52,5803.75 L 2846.36,5804.20 L 2846.34,5953.33 L 2559.91,5955.61 L 2546.09,5965.10 L 2519.95,5972.97 L 2488.77,5982.33 L 2463.81,5984.39 L 2436.80,5986.16 L 2402.61,5984.38 L 2377.54,5982.72 L 2340.87,5977.26 L 2314.70,5972.21 L 2285.31,5960.47 L 2259.99,5947.24 L 1985.67,5944.67 L 1985.29,5908.44 L 1769.65,5909.19 L 1773.26,5665.81 L 1597.93,5664.92 L 1599.05,5851.91 L 1024.38,5845.83 L 1022.48,5808.99 L 1001.29,5809.19 L 1000.42,5661.87 L 882.09,5661.27 L 883.76,5439.25 L 856.33,5438.30 L 859.12,5355.29 L 936.26,5355.33 Z" />
    <path class="building" d="M 13529.99,6560.54 L 14941.59,6571.40 L 14932.04,7144.65 L 14992.06,7145.75 L 14993.21,7490.04 L 14952.13,7489.30 L 14951.20,7527.87 L 13628.49,7517.89 L 13629.06,7497.74 L 13464.17,7496.13 L 13468.50,7115.25 L 13528.85,7116.51 L 13530.83,6851.87 L 13480.99,6851.93 L 13479.73,6621.87 L 13530.11,6622.39 L 13529.99,6560.54 Z" />
    <path class="building" d="M 5093.05,7797.46 L 5095.59,7780.54 L 6087.61,7941.33 L 6022.66,8306.95 L 5960.86,8299.45 L 5951.07,8349.55 L 4941.17,8184.55 L 4984.12,7921.91 L 5034.25,7929.51 L 5057.02,7792.95 L 5093.05,7797.46 Z" />
    <path class="building" d="M 924.06,1000.40 L 1568.36,1012.99 L 1566.57,922.99 L 1880.10,928.66 L 1881.99,1019.12 L 2136.51,1024.09 L 2121.00,1825.46 L 908.59,1801.77 L 924.06,1000.40 Z" />
    <path class="building" d="M 3553.73,1653.86 L 4853.30,1652.82 L 4852.16,1787.86 L 4844.51,1787.79 L 4843.51,1956.47 L 4850.75,1956.53 L 4849.40,2118.29 L 4411.37,2114.16 L 4411.76,2160.24 L 4465.88,2160.87 L 4465.14,2276.87 L 4231.13,2277.71 L 4231.03,2158.16 L 4287.83,2158.82 L 4287.44,2113.00 L 3550.76,2106.07 L 3553.73,1653.86 Z" />
    <path class="building" d="M 2268.76,1003.93 L 2280.78,984.64 L 2301.22,961.02 L 2328.14,932.78 L 2376.93,892.39 L 2432.02,852.59 L 2456.33,836.30 L 2492.30,816.65 L 2492.65,812.32 L 2497.05,801.30 L 2505.95,790.96 L 2517.92,784.39 L 2534.43,781.93 L 2543.82,782.04 L 2553.79,783.27 L 2558.23,785.09 L 2561.34,783.57 L 2614.81,766.10 L 2654.80,754.95 L 2736.40,738.94 L 2774.76,736.02 L 2819.06,734.40 L 2864.17,735.02 L 2912.73,739.61 L 2955.40,745.85 L 2999.31,756.53 L 3064.54,776.64 L 3111.23,795.03 L 3147.21,812.60 L 3190.74,836.66 L 3245.03,874.91 L 3335.46,950.82 L 3362.11,979.42 L 3379.06,1004.60 L 3316.60,1050.11 L 3330.09,1064.69 L 3312.34,1077.80 L 3355.45,1126.80 L 3354.12,1319.70 L 3355.49,1799.51 L 2657.61,1799.22 L 2649.90,2029.27 L 3171.26,2031.80 L 3172.51,1971.58 L 3282.84,1972.96 L 3284.07,2032.35 L 3345.52,2032.65 L 3344.64,2341.85 L 3195.08,2340.34 L 3194.82,2358.50 L 3161.99,2359.41 L 3162.40,2340.50 L 2293.87,2340.13 L 2291.91,1914.68 L 2445.18,1915.40 L 2446.50,1799.14 L 2286.94,1799.08 L 2288.75,1126.37 L 2343.08,1060.46 L 2268.76,1003.93 Z" />
    <path class="building" d="M 2375.15,3011.39 L 2703.50,3012.59 L 2706.21,2927.10 L 2908.80,2929.26 L 2907.77,3013.34 L 3224.19,3014.50 L 3221.87,3314.69 L 2675.53,3316.31 L 2672.14,3806.07 L 2611.01,3805.78 L 2611.50,3752.93 L 2369.52,3750.98 L 2375.15,3011.39 Z" />
    <path class="building" d="M 3481.73,3013.15 L 4216.24,3018.45 L 4216.72,2932.76 L 4466.90,2931.38 L 4468.50,3020.27 L 5200.00,3025.54 L 5196.12,3341.16 L 4532.93,3336.21 L 4533.28,3456.98 L 4146.26,3455.47 L 4145.86,3333.24 L 3480.74,3325.73 L 3481.73,3013.15 Z" />
    <path class="building" d="M 2359.65,4017.52 L 2682.41,4014.00 L 2683.31,4054.59 L 2674.47,4054.84 L 2667.93,4437.03 L 2763.04,4437.67 L 2761.52,4667.51 L 2664.01,4666.86 L 2654.87,5374.86 L 2660.54,5374.70 L 2659.91,5389.96 L 2344.25,5388.14 L 2359.65,4017.52 Z" />
    <path class="building" d="M 3502.33,4517.98 L 3587.32,4518.98 L 3587.05,4474.73 L 3922.02,4476.01 L 3922.52,4509.52 L 4982.12,4520.32 L 4982.76,4534.29 L 5153.30,4532.71 L 5153.87,4730.05 L 5158.73,4730.00 L 5156.69,4823.06 L 5174.75,4823.71 L 5174.31,4923.63 L 5154.02,4923.99 L 5151.97,5219.13 L 5071.20,5219.60 L 5070.35,5272.40 L 4665.04,5270.50 L 4665.31,5225.67 L 3579.55,5215.95 L 3579.14,5204.15 L 3499.71,5204.74 L 3500.84,4914.76 L 3479.18,4914.22 L 3480.73,4807.81 L 3501.94,4807.89 L 3502.33,4517.98 Z" />
    <path class="building" d="M 11448.31,2608.09 L 11443.96,2519.88 L 11936.57,2495.70 L 11937.54,2522.91 L 11969.51,2521.23 L 11973.77,2620.44 L 11941.10,2622.40 L 11943.56,2691.25 L 12023.28,2687.38 L 12021.53,2652.29 L 12212.21,2643.62 L 12214.73,2678.07 L 12292.75,2675.69 L 12289.42,2607.07 L 12255.82,2608.91 L 12251.93,2505.72 L 12284.43,2504.26 L 12283.18,2478.69 L 13428.92,2422.45 L 13435.62,2613.62 L 13468.77,2612.12 L 13467.35,2556.10 L 13646.50,2547.86 L 13649.47,2603.90 L 13684.37,2602.32 L 13671.86,2410.52 L 14152.96,2386.91 L 14170.11,2736.81 L 13904.32,2750.00 L 13914.52,2942.80 L 13340.66,2974.61 L 13352.87,3252.74 L 12426.20,3299.52 L 12409.53,3017.41 L 11743.24,3054.12 L 11741.45,3028.15 L 11711.32,3029.36 L 11704.20,2926.92 L 11734.35,2925.31 L 11729.77,2858.79 L 11461.38,2873.15 L 11457.02,2784.77 L 11415.95,2786.12 L 11410.15,2609.07 L 11448.31,2608.09 Z" />
  </g>
  <g id="gis_room_A6T_8F">
    <path class="room" d="M 2255.21,2129.77 L 2255.59,2032.34 L 2293.91,2032.49 L 2293.80,2052.29 L 2296.39,2052.30 L 2296.09,2129.93 L 2255.21,2129.77 Z M 2293.80,2052.29 L 2293.91,2032.49 L 2293.88,2032.49 L 2293.80,2052.29 Z" />
    <text x="2275.80" y="2081.14" class="label">陽台</text>
    <path class="room" d="M 2295.98,2158.46 L 2296.18,2106.36 L 2443.21,2106.94 L 2442.95,2173.37 L 2309.65,2172.84 L 2309.71,2158.51 L 2295.98,2158.46 Z" />
    <text x="2369.59" y="2139.86" class="label">儲藏室</text>
    <path class="room" d="M 3262.38,2240.14 L 3262.48,2214.39 L 3339.88,2214.70 L 3339.81,2233.59 L 3324.26,2233.52 L 3324.24,2240.38 L 3262.38,2240.14 Z" />
    <text x="3301.13" y="2227.39" class="label">空調</text>
    <path class="room" d="M 2378.52,2051.32 L 2378.60,2031.14 L 2398.95,2031.21 L 2398.87,2051.40 L 2378.52,2051.32 Z" />
    <text x="2388.74" y="2041.27" class="label">機電</text>
    <path class="room" d="M 2296.19,1938.33 L 2317.57,1938.41 L 2317.65,1916.92 L 2447.19,1917.43 L 2447.11,1938.93 L 2468.48,1939.01 L 2468.19,2029.54 L 2446.75,2029.45 L 2446.75,2031.41 L 2317.21,2030.89 L 2317.21,2028.96 L 2295.84,2028.84 L 2296.19,1938.33 Z M 2303.50,2028.88 L 2317.21,2028.96 L 2317.21,2028.94 L 2303.50,2028.88 Z" />
    <text x="2382.16" y="1974.16" class="label">安全梯</text>
    <path class="room" d="M 2292.77,2315.40 L 2295.26,2175.39 L 2309.64,2175.44 L 2309.65,2172.84 L 2453.96,2173.41 L 2454.01,2160.39 L 2471.63,2160.46 L 2471.86,2102.49 L 2455.73,2102.43 L 2455.93,2052.93 L 2469.98,2052.99 L 2470.07,2029.54 L 2468.19,2029.54 L 2468.48,1939.00 L 2470.43,1939.01 L 2470.52,1915.57 L 2447.20,1915.48 L 2447.56,1824.95 L 2470.88,1825.05 L 2470.97,1801.60 L 2447.65,1801.51 L 2447.68,1793.69 L 2627.87,1794.41 L 2627.61,1826.97 L 2648.21,1827.05 L 2647.41,2030.25 L 2628.11,2030.17 L 2628.02,2053.62 L 2651.34,2053.71 L 2651.40,2038.08 L 2809.44,2038.70 L 2809.38,2054.34 L 2832.70,2054.43 L 2832.76,2038.80 L 2988.21,2039.41 L 2987.03,2339.65 L 2831.58,2339.07 L 2831.66,2317.54 L 2808.35,2317.44 L 2808.26,2338.94 L 2650.22,2338.31 L 2650.31,2316.82 L 2626.99,2316.73 L 2626.91,2338.22 L 2468.86,2337.59 L 2468.95,2316.10 L 2445.63,2316.01 L 2445.55,2337.50 L 2316.00,2336.98 L 2316.09,2315.49 L 2292.77,2315.40 Z M 2453.95,2176.02 L 2469.50,2176.08 L 2469.56,2160.45 L 2454.01,2160.39 L 2453.95,2176.02 Z M 2627.61,1826.97 L 2627.82,1800.92 L 2627.72,1800.92 L 2627.61,1826.97 Z M 2468.48,1939.00 L 2468.48,1939.01 L 2470.43,1939.02 L 2470.43,1939.01 L 2468.48,1939.00 Z" />
    <path class="room" d="M 2447.20,1915.48 L 2447.20,1915.48 L 2470.52,1915.57 L 2447.20,1915.48 Z" />
    <path class="room" d="M 2447.65,1801.51 L 2447.65,1801.51 L 2470.97,1801.60 L 2470.97,1801.60 L 2447.65,1801.51 Z" />
    <path class="room" d="M 2831.58,2339.07 L 2831.66,2317.54 L 2831.58,2339.07 L 2831.58,2339.07 Z" />
    <text x="2640.49" y="2066.67" class="label">木平台</text>
  </g>
  <g id="gis_room_AD_8F">
    <path class="room" d="M 6015.53,5532.97 L 6015.67,5495.91 L 6025.19,5495.95 L 6025.27,5476.80 L 6015.75,5476.76 L 6015.92,5431.89 L 6116.45,5432.29 L 6116.00,5546.39 L 6039.31,5546.09 L 6039.36,5533.06 L 6015.53,5532.97 Z" />
    <text x="6065.99" y="5489.14" class="label">廁所</text>
    <path class="room" d="M 5839.92,5454.12 L 5840.21,5379.09 L 5911.20,5379.37 L 5910.90,5454.40 L 5839.92,5454.12 Z" />
    <text x="5875.56" y="5416.75" class="label">電梯</text>
    <path class="room" d="M 5594.75,5077.62 L 5594.92,5032.82 L 5667.99,5033.11 L 5667.81,5077.91 L 5594.75,5077.62 Z" />
    <text x="5631.37" y="5055.36" class="label">廁所</text>
    <path class="room" d="M 6008.62,5379.76 L 6008.83,5325.25 L 6025.86,5325.32 L 6025.93,5308.19 L 6208.97,5308.92 L 6208.91,5326.05 L 6218.43,5326.09 L 6218.34,5348.03 L 6228.96,5348.07 L 6228.54,5455.66 L 6217.92,5455.62 L 6217.83,5477.57 L 6208.31,5477.53 L 6208.27,5487.10 L 6116.23,5486.74 L 6116.65,5380.19 L 6008.62,5379.76 Z" />
    <text x="6118.79" y="5397.65" class="label">主秘室</text>
    <path class="room" d="M 5910.90,5454.40 L 5911.20,5379.37 L 5982.19,5379.66 L 5981.89,5454.68 L 5910.90,5454.40 Z" />
    <text x="5946.55" y="5417.03" class="label">電梯</text>
    <path class="room" d="M 6008.90,5306.11 L 6009.61,5127.27 L 6026.64,5127.34 L 6026.72,5108.19 L 6009.68,5108.12 L 6010.27,4957.88 L 6028.54,4957.95 L 6028.58,4947.14 L 6209.16,4947.86 L 6209.12,4958.67 L 6219.87,4958.71 L 6219.79,4979.42 L 6230.41,4979.46 L 6229.99,5087.05 L 6219.37,5087.01 L 6219.28,5108.95 L 6209.76,5108.92 L 6209.69,5126.05 L 6181.39,5125.93 L 6180.67,5308.81 L 6025.93,5308.19 L 6025.94,5306.17 L 6008.90,5306.11 Z" />
    <text x="6119.66" y="5127.97" class="label">秘書室</text>
    <path class="room" d="M 5706.32,5563.52 L 5707.04,5378.56 L 5798.76,5378.93 L 5798.56,5431.03 L 5813.58,5431.09 L 5813.40,5475.96 L 5796.37,5475.89 L 5796.29,5495.04 L 5813.33,5495.11 L 5813.12,5548.32 L 5797.58,5548.25 L 5797.51,5563.88 L 5706.32,5563.52 Z" />
    <text x="5759.95" y="5471.22" class="label">廁所</text>
    <path class="room" d="M 5910.24,5623.73 L 5910.90,5454.40 L 5981.89,5454.68 L 5981.98,5431.76 L 6015.92,5431.89 L 6015.75,5476.76 L 6006.23,5476.73 L 6006.15,5495.87 L 6015.67,5495.91 L 6015.17,5624.14 L 5990.04,5624.04 L 5990.10,5607.89 L 5966.26,5607.80 L 5966.20,5623.95 L 5910.24,5623.73 Z" />
    <text x="5963.08" y="5527.95" class="label">樓梯</text>
    <path class="room" d="M 5705.37,5078.06 L 5705.90,4945.86 L 5797.22,4946.22 L 5797.18,4957.03 L 5818.68,4957.12 L 5818.77,4935.50 L 5809.57,4935.46 L 5810.05,4813.67 L 5833.37,4813.76 L 5833.31,4828.87 L 5856.63,4828.97 L 5856.68,4813.86 L 5970.16,4814.31 L 5970.10,4829.42 L 5993.42,4829.51 L 5993.48,4814.40 L 6016.80,4814.49 L 6016.32,4936.28 L 6007.12,4936.24 L 6007.03,4957.86 L 6010.27,4957.88 L 6009.68,5108.12 L 6007.68,5108.11 L 6007.61,5125.24 L 5818.02,5124.49 L 5818.10,5106.12 L 5814.86,5106.11 L 5814.97,5078.50 L 5705.37,5078.06 Z" />
    <text x="5861.09" y="4969.46" class="label">校長室</text>
    <path class="room" d="M 5812.82,5623.34 L 5813.33,5495.11 L 5815.34,5495.11 L 5815.41,5475.97 L 5813.40,5475.96 L 5813.58,5431.09 L 5840.01,5431.19 L 5839.92,5454.12 L 5910.90,5454.40 L 5910.24,5623.73 L 5854.28,5623.50 L 5854.34,5607.35 L 5830.51,5607.26 L 5830.44,5623.41 L 5812.82,5623.34 Z" />
    <text x="5861.86" y="5527.41" class="label">樓梯</text>
    <path class="room" d="M 5593.94,5282.51 L 5594.47,5147.57 L 5605.09,5147.61 L 5605.18,5125.66 L 5614.70,5125.70 L 5614.78,5106.55 L 5605.26,5106.51 L 5605.34,5084.57 L 5594.72,5084.53 L 5594.75,5077.62 L 5814.97,5078.50 L 5814.86,5106.11 L 5796.59,5106.04 L 5796.51,5127.66 L 5814.77,5127.73 L 5814.07,5305.33 L 5797.04,5305.26 L 5796.97,5322.39 L 5613.93,5321.66 L 5614.00,5304.53 L 5604.48,5304.50 L 5604.56,5282.55 L 5593.94,5282.51 Z" />
    <text x="5704.45" y="5200.01" class="label">會議室</text>
  </g>
  <g id="gis_room_AM_8F">
    <path class="room" d="M 5074.85,8542.95 L 5080.32,8510.86 L 5130.75,8519.55 L 5125.28,8551.64 L 5074.85,8542.95 Z" />
    <text x="5102.80" y="8531.25" class="label">封閉空間</text>
    <path class="room" d="M 5045.35,8334.35 L 5085.18,8100.70 L 5119.65,8106.64 L 5108.82,8170.19 L 5142.02,8175.91 L 5132.95,8229.08 L 5128.48,8228.31 L 5128.79,8226.49 L 5098.15,8221.21 L 5092.02,8257.16 L 5098.41,8258.26 L 5084.29,8341.06 L 5045.35,8334.35 Z" />
    <text x="5093.68" y="8220.88" class="label">陽臺</text>
    <path class="room" d="M 5905.45,8539.28 L 5933.44,8375.09 L 5970.47,8381.47 L 5969.38,8387.89 L 6001.93,8393.50 L 5998.98,8410.83 L 6013.03,8413.25 L 5989.08,8553.70 L 5905.45,8539.28 Z" />
    <text x="5959.24" y="8464.39" class="label">乙梯</text>
    <path class="room" d="M 5410.06,8565.70 L 5452.08,8319.21 L 5467.40,8321.85 L 5473.44,8286.42 L 5567.47,8302.63 L 5577.82,8317.34 L 5648.27,8329.48 L 5596.55,8632.86 L 5419.58,8602.36 L 5425.38,8568.34 L 5410.06,8565.70 Z" />
    <text x="5529.17" y="8459.64" class="label">國家太空中心</text>
    <path class="room" d="M 5596.55,8632.86 L 5648.27,8329.48 L 5718.41,8341.57 L 5733.32,8331.21 L 5787.53,8340.55 L 5781.49,8375.99 L 5796.81,8378.63 L 5754.79,8625.12 L 5739.47,8622.48 L 5733.67,8656.50 L 5596.55,8632.86 Z" />
    <text x="5696.68" y="8492.99" class="label">國家太空中心</text>
    <path class="room" d="M 5494.13,8072.07 L 5505.40,8005.95 L 5520.80,8008.61 L 5526.60,7974.59 L 5625.93,7991.71 L 5611.03,8079.13 L 5579.50,8073.70 L 5564.56,8084.21 L 5494.13,8072.07 Z" />
    <text x="5560.03" y="8029.40" class="label">國家太空中心</text>
    <path class="room" d="M 5611.03,8079.13 L 5625.93,7991.71 L 5740.84,8011.51 L 5723.77,8111.65 L 5653.16,8099.48 L 5642.56,8084.57 L 5611.03,8079.13 Z" />
    <text x="5675.94" y="8051.68" class="label">國家太空中心</text>
    <path class="room" d="M 5725.94,8098.94 L 5740.84,8011.51 L 5840.69,8028.72 L 5834.89,8062.74 L 5850.21,8065.38 L 5838.94,8131.50 L 5768.07,8119.29 L 5757.47,8104.38 L 5725.94,8098.94 Z" />
    <text x="5788.08" y="8071.51" class="label">國家太空中心</text>
    <path class="room" d="M 5838.94,8131.50 L 5850.21,8065.38 L 5865.53,8068.02 L 5871.33,8034.00 L 5970.67,8051.12 L 5955.76,8138.55 L 5924.23,8133.12 L 5909.29,8143.62 L 5838.94,8131.50 Z" />
    <text x="5904.80" y="8088.81" class="label">國家太空中心</text>
    <path class="room" d="M 5955.76,8138.55 L 5970.67,8051.12 L 6057.74,8066.13 L 6052.38,8097.58 L 6078.55,8102.09 L 6066.85,8170.78 L 5997.90,8158.90 L 5987.30,8143.99 L 5955.76,8138.55 Z" />
    <text x="6017.16" y="8110.95" class="label">國家太空中心</text>
    <path class="room" d="M 5040.49,8093.00 L 5070.47,7917.12 L 5147.72,7930.43 L 5145.42,7943.91 L 5147.34,7944.25 L 5119.65,8106.64 L 5040.49,8093.00 Z" />
    <text x="5094.11" y="8011.88" class="label">甲梯</text>
    <path class="room" d="M 6007.43,8220.92 L 6017.43,8162.26 L 6066.85,8170.78 L 6056.84,8229.44 L 6007.43,8220.92 Z" />
    <text x="6037.14" y="8195.85" class="label">儲藏室</text>
    <path class="room" d="M 5806.08,8288.78 L 5823.07,8189.15 L 5899.29,8202.28 L 5909.87,8217.32 L 5941.41,8222.76 L 5926.61,8309.55 L 5806.08,8288.78 Z" />
    <text x="5873.74" y="8249.35" class="label">國家太空中心</text>
    <path class="room" d="M 4970.70,8502.40 L 5020.58,8209.83 L 5065.26,8217.53 L 5045.35,8334.35 L 5058.12,8336.55 L 5034.92,8472.63 L 5061.09,8477.15 L 5056.39,8504.75 L 5050.01,8503.65 L 5047.95,8515.71 L 4970.70,8502.40 Z" />
    <text x="5017.98" y="8362.77" class="label">露臺</text>
    <path class="room" d="M 5591.78,8667.72 L 5597.69,8633.06 L 5633.44,8639.22 L 5627.53,8673.88 L 5591.78,8667.72 Z" />
    <text x="5612.61" y="8653.47" class="label">陽台</text>
    <path class="room" d="M 5476.87,8647.92 L 5482.78,8613.26 L 5518.53,8619.42 L 5512.62,8654.08 L 5476.87,8647.92 Z" />
    <text x="5497.70" y="8633.67" class="label">陽台</text>
    <path class="room" d="M 5361.96,8628.11 L 5367.87,8593.45 L 5388.94,8597.08 L 5388.61,8599.01 L 5403.29,8601.54 L 5397.71,8634.27 L 5361.96,8628.11 Z" />
    <text x="5382.63" y="8613.86" class="label">陽台</text>
    <path class="room" d="M 5247.05,8608.31 L 5252.96,8573.65 L 5288.71,8579.81 L 5282.80,8614.47 L 5247.05,8608.31 Z" />
    <text x="5267.88" y="8594.06" class="label">陽台</text>
    <path class="room" d="M 5078.38,8375.73 L 5098.41,8258.26 L 5122.67,8262.44 L 5128.48,8228.31 L 5214.97,8243.22 L 5209.06,8277.88 L 5189.91,8274.58 L 5175.91,8356.74 L 5158.03,8353.66 L 5152.10,8388.43 L 5078.38,8375.73 Z" />
    <text x="5146.68" y="8308.37" class="label">女廁</text>
    <path class="room" d="M 5933.44,8375.09 L 5944.17,8312.18 L 5981.19,8318.56 L 5970.47,8381.47 L 5933.44,8375.09 Z" />
    <text x="5957.32" y="8346.82" class="label">陽台</text>
    <path class="room" d="M 5051.22,8215.11 L 5060.63,8159.90 L 5074.67,8162.33 L 5065.26,8217.53 L 5051.22,8215.11 Z" />
    <text x="5062.95" y="8188.72" class="label">花臺</text>
    <path class="room" d="M 5212.25,8185.92 L 5224.72,8112.75 L 5272.61,8121.00 L 5260.13,8194.18 L 5212.25,8185.92 Z" />
    <text x="5242.43" y="8153.46" class="label">電力/弱電</text>
    <path class="room" d="M 5111.34,8155.43 L 5121.62,8095.09 L 5181.63,8105.43 L 5171.35,8165.77 L 5111.34,8155.43 Z" />
    <text x="5146.48" y="8130.43" class="label">行動不便兼親子廁所</text>
    <path class="room" d="M 5934.53,8044.90 L 5940.44,8010.23 L 5976.19,8016.40 L 5970.28,8051.06 L 5934.53,8044.90 Z" />
    <text x="5955.36" y="8030.65" class="label">陽台</text>
    <path class="room" d="M 5819.62,8025.09 L 5825.53,7990.43 L 5861.28,7996.59 L 5855.70,8029.33 L 5841.02,8026.80 L 5840.69,8028.72 L 5819.62,8025.09 Z" />
    <text x="5840.45" y="8009.88" class="label">陽台</text>
    <path class="room" d="M 5704.71,8005.29 L 5710.62,7970.63 L 5746.37,7976.79 L 5740.46,8011.45 L 5704.71,8005.29 Z" />
    <text x="5725.54" y="7991.04" class="label">陽台</text>
    <path class="room" d="M 5474.89,7965.68 L 5480.80,7931.01 L 5516.55,7937.18 L 5510.97,7969.91 L 5496.28,7967.38 L 5495.96,7969.31 L 5474.89,7965.68 Z" />
    <text x="5495.72" y="7950.46" class="label">陽台</text>
    <path class="room" d="M 5359.98,7945.87 L 5365.89,7911.21 L 5401.64,7917.37 L 5395.73,7952.03 L 5359.98,7945.87 Z" />
    <text x="5380.81" y="7931.62" class="label">陽台</text>
    <path class="room" d="M 5245.07,7926.07 L 5250.97,7891.41 L 5286.73,7897.57 L 5280.82,7932.23 L 5245.07,7926.07 Z" />
    <text x="5265.90" y="7911.82" class="label">陽台</text>
    <path class="room" d="M 5121.62,8095.09 L 5139.79,7988.54 L 5244.49,8006.58 L 5232.23,8078.47 L 5187.54,8070.77 L 5181.63,8105.43 L 5121.62,8095.09 Z" />
    <text x="5183.05" y="8046.98" class="label">男廁</text>
    <path class="room" d="M 5821.60,8707.33 L 5827.51,8672.67 L 5863.26,8678.83 L 5857.36,8713.49 L 5821.60,8707.33 Z" />
    <text x="5842.43" y="8693.08" class="label">陽台</text>
    <path class="room" d="M 5108.82,8170.19 L 5111.34,8155.43 L 5144.53,8161.15 L 5142.02,8175.91 L 5108.82,8170.19 Z" />
    <text x="5126.68" y="8165.67" class="label">資源回收</text>
    <path class="room" d="M 5142.02,8175.91 L 5144.53,8161.15 L 5171.35,8165.77 L 5168.83,8180.53 L 5142.02,8175.91 Z" />
    <text x="5156.68" y="8170.84" class="label">飲水</text>
    <path class="room" d="M 5056.39,8504.75 L 5066.35,8446.33 L 5141.04,8459.21 L 5130.75,8519.55 L 5080.32,8510.86 L 5080.65,8508.93 L 5056.39,8504.75 Z" />
    <text x="5098.71" y="8482.94" class="label">行動不便電梯L2</text>
    <path class="room" d="M 5926.61,8309.55 L 5941.41,8222.76 L 5972.93,8228.19 L 5987.89,8217.55 L 6056.84,8229.44 L 6039.93,8328.68 L 5944.17,8312.18 L 5944.10,8312.57 L 5926.61,8309.55 Z" />
    <text x="5991.73" y="8273.12" class="label">國家太空中心</text>
    <path class="room" d="M 5352.06,8210.53 L 5371.84,8094.47 L 5486.93,8114.31 L 5467.15,8230.36 L 5352.06,8210.53 Z" />
    <text x="5419.49" y="8162.42" class="label">會議室</text>
    <path class="room" d="M 5688.97,8255.66 L 5701.63,8181.43 L 5733.16,8186.87 L 5748.12,8176.23 L 5823.07,8189.15 L 5806.08,8288.78 L 5708.98,8272.04 L 5698.35,8257.28 L 5688.97,8255.66 Z" />
    <text x="5756.02" y="8232.50" class="label">國家太空中心</text>
    <path class="room" d="M 5754.79,8625.12 L 5796.81,8378.63 L 5812.13,8381.27 L 5818.04,8346.61 L 5846.39,8351.49 L 5844.38,8363.28 L 5882.36,8369.83 L 5897.26,8359.47 L 5935.00,8365.97 L 5901.73,8561.11 L 5985.36,8575.52 L 5970.13,8664.87 L 5956.09,8662.45 L 5950.72,8693.90 L 5764.31,8661.78 L 5770.11,8627.76 L 5754.79,8625.12 Z" />
    <text x="5870.08" y="8520.25" class="label">國家太空中心</text>
    <path class="room" d="M 5706.69,8687.53 L 5712.60,8652.86 L 5733.67,8656.50 L 5733.34,8658.42 L 5748.02,8660.95 L 5742.44,8693.69 L 5706.69,8687.53 Z" />
    <text x="5727.36" y="8673.28" class="label">陽台</text>
    <path class="room" d="M 5066.35,8446.33 L 5078.38,8375.73 L 5153.08,8388.60 L 5141.04,8459.21 L 5066.35,8446.33 Z" />
    <text x="5109.71" y="8417.47" class="label">緊急升降機L1/兼用行動不便電梯</text>
    <path class="room" d="M 5217.21,8567.49 L 5239.10,8439.11 L 5251.86,8441.31 L 5281.70,8266.30 L 5341.69,8276.64 L 5356.60,8266.29 L 5442.80,8281.14 L 5436.76,8316.57 L 5452.08,8319.21 L 5410.06,8565.70 L 5394.74,8563.06 L 5388.94,8597.08 L 5217.21,8567.49 Z" />
    <text x="5334.64" y="8431.68" class="label">國家太空中心</text>
    <path class="room" d="M 5589.80,7985.48 L 5595.71,7950.82 L 5631.46,7956.98 L 5625.55,7991.64 L 5589.80,7985.48 Z" />
    <text x="5610.63" y="7971.23" class="label">陽台</text>
    <path class="room" d="M 5139.79,7988.54 L 5147.34,7944.25 L 5176.07,7949.20 L 5181.87,7915.17 L 5495.96,7969.31 L 5490.16,8003.33 L 5505.40,8005.95 L 5486.93,8114.31 L 5371.84,8094.47 L 5352.06,8210.53 L 5260.05,8194.67 L 5272.61,8121.00 L 5226.34,8113.03 L 5244.49,8006.58 L 5139.79,7988.54 Z" />
    <text x="5322.59" y="8062.85" class="label">國家太空中心</text>
  </g>
  <g id="gis_room_B1D_8F">
    <path class="room" d="M 11915.25,2559.01 L 11948.56,2557.10 L 11953.40,2642.31 L 11920.09,2644.22 L 11915.25,2559.01 Z" />
    <text x="11934.33" y="2600.66" class="label">陽台</text>
    <path class="room" d="M 11693.24,2953.72 L 11726.54,2951.81 L 11731.39,3037.02 L 11698.08,3038.93 L 11693.24,2953.72 Z" />
    <text x="11712.31" y="2995.37" class="label">陽台</text>
    <path class="room" d="M 12520.85,2906.14 L 12554.16,2904.22 L 12559.00,2989.43 L 12525.70,2991.35 L 12520.85,2906.14 Z" />
    <text x="12539.93" y="2947.79" class="label">陽台</text>
    <path class="room" d="M 11713.44,2721.32 L 11785.99,2717.15 L 11794.94,2874.45 L 11722.38,2878.62 L 11713.44,2721.32 Z" />
    <text x="11754.19" y="2797.89" class="label">樓梯</text>
    <path class="room" d="M 11856.05,2793.37 L 11928.34,2789.21 L 11931.75,2849.12 L 11859.45,2853.28 L 11856.05,2793.37 Z" />
    <text x="11893.90" y="2821.25" class="label">電梯</text>
    <path class="room" d="M 12769.69,2607.15 L 12790.93,2605.92 L 12788.39,2561.13 L 12827.78,2558.86 L 12835.89,2701.59 L 12796.50,2703.85 L 12793.96,2659.20 L 12772.72,2660.42 L 12769.69,2607.15 Z" />
    <text x="12802.79" y="2631.36" class="label">陽台</text>
    <path class="room" d="M 12004.75,2664.96 L 12211.11,2653.09 L 12213.06,2687.23 L 12193.09,2688.38 L 12193.39,2693.73 L 12026.97,2703.30 L 12026.67,2697.95 L 12006.69,2699.09 L 12004.75,2664.96 Z" />
    <text x="12108.90" y="2678.20" class="label">陽台</text>
    <path class="room" d="M 11852.53,2731.46 L 11924.82,2727.30 L 11928.34,2789.21 L 11856.05,2793.37 L 11852.53,2731.46 Z" />
    <text x="11890.43" y="2760.34" class="label">電梯</text>
    <path class="room" d="M 11434.73,2752.79 L 11441.65,2752.40 L 11440.77,2737.00 L 11527.05,2732.04 L 11535.00,2871.93 L 11528.35,2872.31 L 11529.33,2889.72 L 11449.45,2894.31 L 11448.46,2876.91 L 11441.81,2877.29 L 11434.73,2752.79 Z" />
    <text x="11484.87" y="2813.17" class="label">廁所</text>
    <path class="room" d="M 12431.44,2680.05 L 12507.75,2675.66 L 12515.66,2814.88 L 12505.65,2815.45 L 12506.68,2833.53 L 12440.38,2837.34 L 12431.44,2680.05 Z" />
    <text x="12473.55" y="2756.50" class="label">樓梯</text>
    <path class="room" d="M 12254.72,2539.50 L 12288.03,2537.58 L 12292.87,2622.79 L 12259.57,2624.71 L 12254.72,2539.50 Z" />
    <text x="12273.80" y="2581.15" class="label">陽台</text>
    <path class="room" d="M 11388.88,2641.59 L 11428.27,2639.32 L 11430.82,2684.12 L 11452.06,2682.90 L 11455.09,2736.18 L 11440.77,2737.00 L 11440.51,2732.32 L 11427.19,2733.08 L 11428.34,2753.16 L 11434.73,2752.79 L 11436.39,2782.05 L 11397.00,2784.31 L 11388.88,2641.59 Z" />
    <text x="11421.99" y="2711.82" class="label">陽台</text>
    <path class="room" d="M 12694.09,2664.95 L 12793.96,2659.20 L 12801.74,2795.88 L 12795.05,2796.26 L 12796.23,2816.88 L 12709.71,2821.85 L 12708.54,2801.24 L 12701.86,2801.62 L 12694.09,2664.95 Z" />
    <text x="12747.91" y="2740.53" class="label">廁所</text>
    <path class="room" d="M 12116.84,2698.13 L 12193.39,2693.73 L 12193.85,2701.76 L 12210.49,2700.81 L 12218.98,2850.07 L 12125.78,2855.42 L 12116.84,2698.13 Z M 12210.49,2700.81 L 12218.98,2850.07 L 12210.49,2700.81 L 12210.49,2700.81 Z" />
    <text x="12167.91" y="2774.58" class="label">廁所</text>
    <path class="room" d="M 12297.60,2705.87 L 12366.96,2701.88 L 12370.48,2763.80 L 12301.12,2767.79 L 12297.60,2705.87 Z" />
    <text x="12334.04" y="2734.83" class="label">電梯</text>
    <path class="room" d="M 12301.12,2767.79 L 12370.48,2763.80 L 12373.89,2823.70 L 12304.52,2827.69 L 12301.12,2767.79 Z" />
    <text x="12337.50" y="2795.74" class="label">電梯</text>
    <path class="room" d="M 12010.79,2712.29 L 12027.43,2711.33 L 12026.97,2703.30 L 12116.84,2698.13 L 12125.78,2855.42 L 12019.27,2861.55 L 12010.79,2712.29 Z" />
    <path class="room" d="M 12010.79,2712.29 L 12027.43,2711.33 L 12026.97,2703.30 L 12027.43,2711.33 L 12010.79,2712.29 L 12010.79,2712.29 Z" />
    <text x="12068.28" y="2779.84" class="label">廁所</text>
  </g>
  <g id="gis_room_B2D_8F">
    <path class="room" d="M 14015.06,2405.01 L 14021.71,2404.63 L 14021.14,2394.59 L 14098.36,2390.15 L 14098.85,2398.85 L 14105.51,2398.47 L 14112.93,2528.90 L 14022.40,2534.10 L 14015.06,2405.01 Z" />
    <text x="14063.99" y="2462.12" class="label">寢室</text>
    <path class="room" d="M 14105.51,2398.47 L 14112.17,2398.09 L 14111.67,2389.38 L 14188.89,2384.94 L 14189.46,2394.99 L 14196.12,2394.60 L 14203.46,2523.69 L 14112.93,2528.90 L 14105.51,2398.47 Z" />
    <text x="14154.49" y="2456.92" class="label">寢室</text>
    <path class="room" d="M 14025.56,2589.75 L 14116.09,2584.54 L 14123.93,2722.42 L 14117.27,2722.81 L 14117.85,2732.98 L 14040.63,2737.42 L 14040.06,2727.24 L 14033.40,2727.63 L 14025.56,2589.75 Z" />
    <text x="14074.75" y="2660.98" class="label">寢室</text>
    <path class="room" d="M 12941.21,2556.23 L 12976.26,2554.21 L 12978.53,2594.11 L 13002.92,2592.71 L 13006.08,2648.35 L 12981.70,2649.75 L 12983.92,2688.68 L 12948.86,2690.70 L 12941.21,2556.23 Z" />
    <text x="12973.65" y="2622.46" class="label">曬衣間</text>
    <path class="room" d="M 13265.56,2844.96 L 13356.29,2839.75 L 13363.60,2968.26 L 13356.55,2968.67 L 13357.12,2978.70 L 13279.90,2983.14 L 13279.33,2973.10 L 13272.87,2973.47 L 13265.56,2844.96 Z" />
    <text x="13314.58" y="2911.45" class="label">寢室</text>
    <path class="room" d="M 13856.48,2810.99 L 13947.02,2805.79 L 13954.46,2934.29 L 13947.67,2934.68 L 13948.24,2944.72 L 13871.02,2949.16 L 13870.45,2939.12 L 13863.79,2939.50 L 13856.48,2810.99 Z" />
    <text x="13905.47" y="2877.47" class="label">寢室</text>
    <path class="room" d="M 13163.24,2639.32 L 13253.57,2634.12 L 13261.41,2772.01 L 13254.56,2772.40 L 13255.14,2782.58 L 13178.18,2787.00 L 13177.61,2776.82 L 13170.88,2777.21 L 13163.24,2639.32 Z" />
    <text x="13212.33" y="2710.56" class="label">寢室</text>
    <path class="room" d="M 13536.96,2829.36 L 13675.42,2821.40 L 13682.73,2949.91 L 13676.07,2950.30 L 13676.64,2960.34 L 13551.49,2967.53 L 13550.92,2957.49 L 13544.27,2957.87 L 13536.96,2829.36 Z" />
    <text x="13609.84" y="2894.47" class="label">寢室</text>
    <path class="room" d="M 13458.20,2622.36 L 13524.97,2618.52 L 13533.84,2774.48 L 13467.07,2778.32 L 13458.20,2622.36 Z" />
    <text x="13496.02" y="2698.42" class="label">寢室</text>
    <path class="room" d="M 13765.95,2816.20 L 13856.48,2810.99 L 13863.79,2939.50 L 13857.13,2939.89 L 13857.70,2949.93 L 13780.49,2954.37 L 13779.92,2944.33 L 13773.26,2944.71 L 13765.95,2816.20 Z" />
    <text x="13814.87" y="2882.68" class="label">寢室</text>
    <path class="room" d="M 12971.19,2465.02 L 12978.46,2464.60 L 12977.89,2454.56 L 13054.31,2450.17 L 13054.88,2460.21 L 13061.94,2459.80 L 13069.28,2588.89 L 12978.53,2594.11 L 12971.19,2465.02 Z" />
    <path class="room" d="M 12978.53,2594.11 L 13002.92,2592.71 L 13002.92,2592.71 L 12978.53,2594.11 Z" />
    <text x="13020.24" y="2522.14" class="label">寢室</text>
    <path class="room" d="M 13152.74,2454.58 L 13159.79,2454.18 L 13159.22,2444.14 L 13235.24,2439.77 L 13235.81,2449.81 L 13243.07,2449.39 L 13250.41,2578.48 L 13160.08,2583.67 L 13152.74,2454.58 Z" />
    <text x="13201.57" y="2511.72" class="label">寢室</text>
    <path class="room" d="M 14116.09,2584.54 L 14197.36,2579.87 L 14198.29,2595.80 L 14207.53,2595.27 L 14214.46,2717.22 L 14207.81,2717.60 L 14208.39,2727.78 L 14131.17,2732.21 L 14130.59,2722.04 L 14123.93,2722.42 L 14116.09,2584.54 Z" />
    <text x="14165.28" y="2656.04" class="label">廁所</text>
    <path class="room" d="M 13862.07,2599.14 L 13935.03,2594.95 L 13942.87,2732.83 L 13936.21,2733.21 L 13937.24,2751.29 L 13870.94,2755.10 L 13862.07,2599.14 Z" />
    <text x="13902.47" y="2675.02" class="label">樓梯</text>
    <path class="room" d="M 13061.94,2459.80 L 13068.99,2459.40 L 13068.42,2449.36 L 13145.11,2444.95 L 13145.68,2454.99 L 13152.74,2454.58 L 13160.08,2583.67 L 13069.28,2588.89 L 13061.94,2459.80 Z" />
    <text x="13111.01" y="2516.92" class="label">寢室</text>
    <path class="room" d="M 13935.03,2594.95 L 14025.56,2589.75 L 14033.40,2727.63 L 14026.74,2728.01 L 14027.32,2738.18 L 13950.10,2742.62 L 13949.53,2732.45 L 13942.87,2732.83 L 13935.03,2594.95 Z" />
    <text x="13984.21" y="2666.18" class="label">寢室</text>
    <path class="room" d="M 13446.43,2834.57 L 13536.96,2829.36 L 13544.27,2957.87 L 13537.61,2958.25 L 13538.18,2968.29 L 13460.96,2972.74 L 13460.39,2962.69 L 13453.73,2963.08 L 13446.43,2834.57 Z" />
    <text x="13495.35" y="2901.05" class="label">寢室</text>
    <path class="room" d="M 13243.07,2449.39 L 13250.33,2448.97 L 13249.75,2438.93 L 13326.30,2434.53 L 13326.87,2444.57 L 13333.79,2444.17 L 13341.14,2573.26 L 13250.41,2578.48 L 13243.07,2449.39 Z" />
    <text x="13292.10" y="2506.51" class="label">寢室</text>
    <path class="room" d="M 13833.99,2415.42 L 13840.65,2415.03 L 13840.08,2405.00 L 13917.30,2400.56 L 13917.87,2410.60 L 13924.53,2410.22 L 13931.86,2539.30 L 13841.33,2544.51 L 13833.99,2415.42 Z M 13917.87,2410.60 L 13917.87,2410.60 L 13924.53,2410.22 L 13924.53,2410.22 L 13917.87,2410.60 Z" />
    <text x="13882.93" y="2472.53" class="label">寢室</text>
    <path class="room" d="M 13356.29,2839.75 L 13446.43,2834.57 L 13453.73,2963.08 L 13447.08,2963.46 L 13447.65,2973.50 L 13370.43,2977.94 L 13369.86,2967.90 L 13363.60,2968.26 L 13356.29,2839.75 Z" />
    <text x="13405.01" y="2906.25" class="label">寢室</text>
    <path class="room" d="M 13524.97,2618.52 L 13663.43,2610.56 L 13672.30,2766.52 L 13533.84,2774.48 L 13524.97,2618.52 Z M 13643.46,2611.71 L 13644.22,2625.10 L 13664.19,2623.95 L 13663.43,2610.56 L 13643.46,2611.71 Z M 13653.35,2753.00 L 13654.18,2767.54 L 13672.30,2766.52 L 13671.47,2751.98 L 13653.35,2753.00 Z" />
    <path class="room" d="M 13524.97,2618.52 L 13544.94,2617.38 L 13545.70,2630.76 L 13525.73,2631.91 L 13524.97,2618.52 Z" />
    <path class="room" d="M 13533.01,2759.92 L 13551.13,2758.90 L 13551.96,2773.44 L 13533.84,2774.48 L 13533.01,2759.92 Z" />
    <text x="13598.63" y="2692.52" class="label">廁所</text>
    <path class="room" d="M 13734.47,2685.38 L 13801.04,2681.56 L 13804.44,2741.46 L 13737.88,2745.29 L 13734.47,2685.38 Z" />
    <text x="13769.46" y="2713.42" class="label">電梯</text>
    <path class="room" d="M 13730.95,2623.47 L 13797.52,2619.64 L 13801.04,2681.56 L 13734.47,2685.38 L 13730.95,2623.47 Z" />
    <text x="13766.00" y="2652.51" class="label">電梯</text>
    <path class="room" d="M 13930.61,2399.79 L 14007.83,2395.35 L 14008.40,2405.39 L 14015.06,2405.01 L 14022.40,2534.10 L 13931.86,2539.30 L 13924.53,2410.22 L 13931.18,2409.83 L 13930.61,2399.79 Z" />
    <text x="13973.46" y="2467.33" class="label">寢室</text>
    <path class="room" d="M 12982.62,2665.69 L 12991.87,2665.15 L 12990.96,2649.22 L 13072.44,2644.54 L 13080.23,2782.56 L 13073.23,2782.96 L 13073.80,2792.99 L 12997.12,2797.40 L 12996.53,2787.10 L 12989.53,2787.50 L 12982.62,2665.69 Z" />
    <path class="room" d="M 12983.61,2683.11 L 12983.92,2688.68 L 12983.92,2688.68 L 12983.61,2683.11 Z" />
    <text x="13031.42" y="2720.97" class="label">廁所</text>
    <path class="room" d="M 13675.42,2821.40 L 13765.95,2816.20 L 13773.26,2944.71 L 13766.60,2945.09 L 13767.17,2955.13 L 13689.96,2959.57 L 13689.38,2949.53 L 13682.73,2949.91 L 13675.42,2821.40 Z" />
    <text x="13724.34" y="2887.88" class="label">寢室</text>
    <path class="room" d="M 13663.43,2610.56 L 13730.00,2606.73 L 13738.87,2762.69 L 13672.30,2766.52 L 13663.43,2610.56 Z M 13671.47,2751.98 L 13672.30,2766.52 L 13671.47,2751.98 L 13671.47,2751.98 Z" />
    <text x="13701.15" y="2686.63" class="label">寢室</text>
    <path class="room" d="M 13072.44,2644.54 L 13163.24,2639.32 L 13170.88,2777.21 L 13163.89,2777.61 L 13164.47,2787.78 L 13087.79,2792.18 L 13087.21,2782.16 L 13080.23,2782.56 L 13072.44,2644.54 Z M 13163.24,2639.32 L 13170.88,2777.21 L 13170.88,2777.21 L 13163.24,2639.32 Z M 13163.89,2777.61 L 13164.47,2787.78 L 13164.47,2787.78 L 13163.89,2777.61 L 13163.89,2777.61 Z" />
    <text x="13121.66" y="2715.75" class="label">寢室</text>
    <path class="room" d="M 13475.74,2581.71 L 13708.90,2568.31 L 13711.15,2607.82 L 13477.99,2621.22 L 13475.74,2581.71 Z M 13643.46,2611.71 L 13643.46,2611.71 L 13663.43,2610.56 L 13643.46,2611.71 Z" />
    <text x="13593.44" y="2594.77" class="label">陽台</text>
    <path class="room" d="M 14179.09,2525.09 L 14203.46,2523.69 L 14201.19,2483.81 L 14236.26,2481.79 L 14243.91,2616.26 L 14208.84,2618.28 L 14206.62,2579.34 L 14182.25,2580.74 L 14179.09,2525.09 Z" />
    <text x="14211.50" y="2550.03" class="label">曬衣間</text>
    <path class="room" d="M 13396.31,2704.82 L 13462.68,2701.01 L 13466.08,2760.91 L 13399.71,2764.73 L 13396.31,2704.82 Z" />
    <text x="13431.19" y="2732.87" class="label">電梯</text>
    <path class="room" d="M 13392.79,2642.91 L 13459.16,2639.09 L 13462.68,2701.01 L 13396.31,2704.82 L 13392.79,2642.91 Z" />
    <text x="13427.73" y="2671.96" class="label">電梯</text>
    <path class="room" d="M 13253.57,2634.12 L 13326.20,2629.95 L 13335.07,2785.90 L 13268.90,2789.71 L 13267.87,2771.63 L 13261.41,2772.01 L 13253.57,2634.12 Z" />
    <text x="13294.32" y="2709.83" class="label">樓梯</text>
  </g>
  <g id="gis_room_CB_8F">
    <path class="room" d="M 8549.83,4039.53 L 8649.57,4039.36 L 8649.81,4183.81 L 8649.93,4253.10 L 8550.18,4253.27 L 8549.83,4039.53 Z" />
    <text x="8599.88" y="4146.31" class="label">會議室</text>
    <path class="room" d="M 7962.96,3888.38 L 8157.10,3888.05 L 8157.24,4005.15 L 8067.87,4005.30 L 8067.88,4013.24 L 7963.17,4013.42 L 7962.96,3888.38 Z" />
    <text x="8060.10" y="3950.73" class="label">林郁修研究室</text>
    <path class="room" d="M 8649.32,3886.44 L 8743.89,3886.28 L 8744.38,4183.65 L 8649.81,4183.81 L 8649.57,4039.36 L 8649.32,3886.44 Z" />
    <text x="8696.85" y="4035.04" class="label">自動化科技研究所辦公室</text>
    <path class="room" d="M 8452.61,3886.77 L 8549.57,3886.61 L 8549.83,4039.53 L 8550.18,4253.27 L 8453.22,4253.43 L 8452.61,3886.77 Z" />
    <text x="8501.40" y="4070.02" class="label">即時智慧型光機電系統研究室(I)</text>
    <path class="room" d="M 8456.21,6165.51 L 8553.36,6165.34 L 8553.77,6410.24 L 8456.61,6410.41 L 8456.21,6165.51 Z" />
    <text x="8504.99" y="6287.88" class="label">陳紅章老師實驗室</text>
    <path class="room" d="M 8258.10,3887.12 L 8355.42,3886.96 L 8355.62,4008.62 L 8258.30,4008.79 L 8258.10,3887.12 Z" />
    <text x="8306.86" y="3947.87" class="label">林志哲研究室</text>
    <path class="room" d="M 8744.21,4082.31 L 8834.63,4082.16 L 8834.93,4259.30 L 8744.51,4259.46 L 8744.21,4082.31 Z" />
    <text x="8789.57" y="4170.81" class="label">樓梯</text>
    <path class="room" d="M 8067.87,4005.30 L 8157.24,4005.15 L 8157.34,4126.32 L 8068.07,4126.43 L 8067.87,4005.30 Z" />
    <text x="8112.61" y="4065.79" class="label">樓梯</text>
    <path class="room" d="M 8254.94,4945.15 L 8361.94,4944.97 L 8362.14,5064.41 L 8255.14,5064.59 L 8254.94,4945.15 Z" />
    <text x="8308.54" y="5004.78" class="label">樓梯</text>
    <path class="room" d="M 8897.84,5165.76 L 9072.46,5165.46 L 9072.60,5248.86 L 8897.98,5249.15 L 8897.84,5165.76 Z" />
    <text x="8985.22" y="5207.31" class="label">樓梯</text>
    <path class="room" d="M 8553.36,6165.34 L 8650.52,6165.18 L 8650.93,6410.08 L 8553.77,6410.24 L 8553.36,6165.34 Z" />
    <text x="8602.14" y="6287.71" class="label">能源材料設計與製程實驗室</text>
    <path class="room" d="M 8157.10,3887.27 L 8258.10,3887.10 L 8258.71,4253.76 L 8157.54,4253.93 L 8157.10,3887.27 Z" />
    <text x="8207.90" y="4070.51" class="label">先進深度計算智慧聯網研究室(I)</text>
    <path class="room" d="M 8649.32,3886.44 L 8649.57,4039.36 L 8549.83,4039.53 L 8549.57,3886.61 L 8649.32,3886.44 Z" />
    <text x="8599.57" y="3962.98" class="label">所長辦公室</text>
    <path class="room" d="M 8160.72,6166.00 L 8285.60,6165.79 L 8286.21,6532.48 L 8161.33,6532.69 L 8160.72,6166.00 Z M 8160.95,6293.61 L 8160.94,6293.61 L 8161.14,6414.75 L 8160.95,6293.61 Z" />
    <path class="room" d="M 8160.82,6224.48 L 8160.84,6224.48 L 8160.95,6293.61 L 8160.94,6293.61 L 8160.82,6224.48 Z" />
    <text x="8223.47" y="6349.24" class="label">生物力學實驗室</text>
    <path class="room" d="M 8650.52,6165.18 L 8747.54,6165.01 L 8747.95,6409.92 L 8650.93,6410.08 L 8650.52,6165.18 Z" />
    <text x="8699.24" y="6287.55" class="label">永續工程研究室</text>
    <path class="room" d="M 8070.59,5017.62 L 8255.06,5017.31 L 8255.43,5239.13 L 8125.89,5239.34 L 8125.98,5294.57 L 8071.06,5294.66 L 8070.59,5017.62 Z" />
    <text x="8163.01" y="5155.99" class="label">文書組檔案室</text>
    <path class="room" d="M 8071.24,6414.90 L 8161.14,6414.75 L 8161.33,6532.65 L 7972.99,6532.97 L 7972.79,6415.10 L 8040.15,6414.99 L 8071.24,6414.90 Z" />
    <path class="room" d="M 8071.24,6414.90 L 8161.14,6414.75 L 8071.24,6414.93 L 7972.79,6415.14 L 7972.79,6415.10 L 8040.15,6414.99 L 8071.24,6414.90 Z" />
    <text x="8067.06" y="6473.86" class="label">陳文斌老師研究室</text>
    <path class="room" d="M 8650.93,6410.08 L 8747.95,6409.92 L 8747.96,6413.83 L 8748.16,6531.70 L 8651.13,6531.87 L 8650.93,6410.08 Z" />
    <text x="8699.54" y="6470.89" class="label">永續工程研究室</text>
    <path class="room" d="M 8456.61,6410.41 L 8553.77,6410.24 L 8553.97,6532.03 L 8456.82,6532.19 L 8456.61,6410.41 Z" />
    <text x="8505.29" y="6471.22" class="label">陳紅章老師實驗室</text>
    <path class="room" d="M 8258.30,4008.79 L 8355.62,4008.62 L 8356.03,4253.60 L 8258.71,4253.76 L 8258.30,4008.79 Z" />
    <text x="8307.17" y="4131.19" class="label">電腦整合製造與控制研究室(I)</text>
    <path class="room" d="M 8553.77,6410.24 L 8650.93,6410.08 L 8651.13,6531.87 L 8553.97,6532.03 L 8553.77,6410.24 Z" />
    <text x="8602.45" y="6471.06" class="label">李懿軒老師研究室</text>
    <path class="room" d="M 8747.54,6158.50 L 8844.17,6158.34 L 8844.47,6335.48 L 8747.83,6335.64 L 8747.54,6158.50 Z" />
    <text x="8796.00" y="6246.99" class="label">樓梯</text>
    <path class="room" d="M 7968.78,4013.41 L 8067.88,4013.24 L 8068.02,4096.34 L 7968.92,4096.51 L 7968.78,4013.41 Z" />
    <text x="8018.40" y="4054.88" class="label">女廁</text>
    <path class="room" d="M 8255.52,5294.35 L 8362.52,5294.17 L 8362.61,5347.97 L 8255.61,5348.15 L 8255.52,5294.35 Z" />
    <text x="8309.07" y="5321.16" class="label">電梯</text>
    <path class="room" d="M 7972.63,6324.04 L 8071.08,6323.92 L 8071.24,6414.93 L 7972.79,6415.14 L 7972.63,6324.04 Z" />
    <text x="8021.93" y="6369.53" class="label">女廁</text>
    <path class="room" d="M 7866.89,6224.98 L 8015.86,6224.73 L 8015.97,6290.64 L 7867.00,6290.89 L 7866.89,6224.98 Z" />
    <text x="7941.43" y="6257.81" class="label">電梯</text>
    <path class="room" d="M 7863.40,4130.03 L 8012.37,4129.78 L 8012.48,4195.69 L 7863.51,4195.94 L 7863.40,4130.03 Z" />
    <text x="7937.94" y="4162.86" class="label">電梯</text>
    <path class="room" d="M 8160.95,6293.61 L 8161.14,6414.75 L 8071.24,6414.93 L 8071.03,6293.80 L 8160.95,6293.61 Z" />
    <text x="8116.09" y="6354.27" class="label">樓梯</text>
    <path class="room" d="M 8285.60,6165.79 L 8456.21,6165.51 L 8456.82,6532.19 L 8286.21,6532.48 L 8285.60,6165.79 Z" />
    <text x="8371.21" y="6348.99" class="label">機電整合實驗室</text>
    <path class="room" d="M 7867.00,6290.89 L 7972.58,6290.71 L 7972.78,6412.75 L 7867.20,6412.93 L 7867.00,6290.89 Z M 7972.63,6324.04 L 7972.78,6412.75 L 7972.78,6412.75 L 7972.63,6324.04 L 7972.63,6324.04 Z" />
    <text x="7919.89" y="6351.82" class="label">男廁</text>
    <path class="room" d="M 7863.20,4007.60 L 7963.16,4007.43 L 7963.17,4013.42 L 7968.78,4013.41 L 7968.98,4129.86 L 7863.40,4130.03 L 7863.20,4007.60 Z" />
    <text x="7916.09" y="4068.73" class="label">先進深度計算智慧聯網研究室(II)</text>
    <path class="room" d="M 8747.83,6335.64 L 8796.54,6335.56 L 8796.67,6413.74 L 8747.96,6413.83 L 8747.83,6335.64 Z" />
    <text x="8772.25" y="6374.69" class="label">儲藏室</text>
    <path class="room" d="M 8452.61,3886.77 L 8453.22,4253.43 L 8356.03,4253.60 L 8355.42,3886.93 L 8452.61,3886.77 Z" />
    <text x="8404.32" y="4070.18" class="label">智慧型系統實驗室(I)</text>
    <path class="room" d="M 8744.08,4004.16 L 8792.66,4004.08 L 8792.79,4082.23 L 8744.21,4082.31 L 8744.08,4004.16 Z" />
    <text x="8768.43" y="4043.19" class="label">儲藏室</text>
  </g>
  <g id="gis_room_DB_8F">
    <path class="room" d="M 1895.02,5569.09 L 1895.50,5447.04 L 1956.71,5447.29 L 1956.63,5468.65 L 2004.30,5468.84 L 2003.93,5561.06 L 1997.46,5561.03 L 1997.42,5569.50 L 1895.02,5569.09 Z" />
    <text x="1949.66" y="5508.27" class="label">蘇育民講師研究室</text>
    <path class="room" d="M 944.76,5437.81 L 1040.61,5438.19 L 1040.15,5557.24 L 1033.68,5557.21 L 1033.59,5578.05 L 1040.06,5578.08 L 1039.91,5616.24 L 953.13,5615.90 L 953.28,5577.73 L 953.36,5556.89 L 944.29,5556.86 L 944.76,5437.81 Z" />
    <text x="992.45" y="5527.02" class="label">倉庫</text>
    <path class="room" d="M 1894.64,5749.49 L 1894.88,5688.27 L 1953.17,5688.50 L 1953.06,5715.85 L 1952.93,5749.72 L 1899.95,5749.51 L 1894.64,5749.49 Z" />
    <text x="1923.91" y="5719.00" class="label">電梯</text>
    <path class="room" d="M 2748.84,5882.00 L 2749.67,5670.82 L 2756.15,5670.84 L 2756.19,5660.42 L 2836.51,5660.74 L 2836.46,5671.16 L 2842.94,5671.19 L 2842.10,5884.80 L 2755.31,5884.46 L 2755.32,5882.02 L 2748.84,5882.00 Z" />
    <text x="2795.89" y="5772.61" class="label">全球城市與多重尺度建築研究室</text>
    <path class="room" d="M 1899.95,5749.51 L 1952.93,5749.72 L 1953.06,5715.85 L 2000.87,5716.04 L 2000.15,5899.05 L 1899.37,5898.65 L 1899.95,5749.51 Z" />
    <text x="1950.12" y="5807.45" class="label">樓梯</text>
    <path class="room" d="M 2837.19,5583.90 L 2837.27,5565.66 L 2896.21,5565.90 L 2896.15,5581.01 L 2886.82,5580.97 L 2886.62,5631.37 L 2932.48,5631.56 L 2931.86,5788.77 L 2842.48,5788.42 L 2842.94,5671.19 L 2849.42,5671.22 L 2849.50,5650.38 L 2849.61,5621.07 L 2843.14,5621.04 L 2843.28,5583.92 L 2837.19,5583.90 Z" />
    <text x="2884.84" y="5677.22" class="label">丙梯</text>
    <path class="room" d="M 855.46,5582.03 L 855.96,5453.09 L 865.03,5453.12 L 865.09,5437.49 L 944.76,5437.81 L 944.29,5556.86 L 940.41,5556.84 L 940.32,5577.68 L 940.17,5616.63 L 944.06,5616.64 L 943.95,5642.69 L 953.02,5642.73 L 952.94,5663.70 L 903.71,5663.50 L 903.80,5642.66 L 901.46,5642.65 L 901.63,5600.45 L 864.45,5600.30 L 864.52,5582.07 L 855.46,5582.03 Z" />
    <text x="904.24" y="5550.59" class="label">樓梯</text>
    <path class="room" d="M 1836.35,5749.26 L 1836.59,5688.04 L 1894.88,5688.27 L 1894.64,5749.49 L 1859.02,5749.35 L 1836.35,5749.26 Z" />
    <text x="1865.61" y="5718.76" class="label">電梯</text>
    <path class="room" d="M 2608.91,5883.88 L 2609.81,5659.84 L 2649.97,5660.00 L 2649.93,5670.42 L 2662.88,5670.48 L 2662.92,5660.06 L 2743.24,5660.37 L 2743.19,5670.79 L 2749.67,5670.82 L 2748.84,5882.00 L 2742.37,5881.97 L 2742.36,5884.41 L 2662.04,5884.09 L 2662.05,5881.65 L 2649.10,5881.60 L 2649.09,5884.04 L 2608.91,5883.88 Z" />
    <text x="2679.29" y="5772.13" class="label">建築史與構築理論研究室</text>
    <path class="room" d="M 1786.31,5560.19 L 1786.67,5467.98 L 1834.21,5468.16 L 1834.29,5446.80 L 1895.50,5447.04 L 1895.02,5569.09 L 1792.75,5568.69 L 1792.78,5560.22 L 1786.31,5560.19 Z" />
    <text x="1840.90" y="5507.95" class="label">建築系學會</text>
    <path class="room" d="M 2000.08,5917.93 L 2000.15,5899.05 L 2000.22,5881.46 L 2089.47,5881.82 L 2089.43,5892.37 L 2102.38,5892.42 L 2102.42,5881.87 L 2109.03,5881.90 L 2108.85,5928.78 L 2102.24,5928.76 L 2102.28,5918.34 L 2089.33,5918.29 L 2089.29,5928.71 L 2008.97,5928.39 L 2009.01,5917.97 L 2000.08,5917.93 Z" />
    <text x="2054.55" y="5905.12" class="label">陽台</text>
    <path class="room" d="M 944.06,5616.64 L 953.12,5616.68 L 953.13,5615.90 L 1039.91,5616.24 L 1039.76,5654.80 L 952.98,5654.46 L 953.02,5642.73 L 943.95,5642.69 L 944.06,5616.64 Z" />
    <text x="991.93" y="5635.35" class="label">陽台</text>
    <path class="room" d="M 1785.05,5880.61 L 1785.29,5820.04 L 1820.52,5820.18 L 1899.67,5820.50 L 1899.37,5898.65 L 1791.46,5898.22 L 1791.53,5880.64 L 1785.05,5880.61 Z" />
    <text x="1842.36" y="5859.35" class="label">女廁</text>
    <path class="room" d="M 2748.69,5920.90 L 2748.79,5895.02 L 2755.27,5895.05 L 2755.31,5884.46 L 2842.10,5884.80 L 2841.96,5921.27 L 2835.48,5921.25 L 2835.44,5931.67 L 2755.13,5931.35 L 2755.17,5920.93 L 2748.69,5920.90 Z" />
    <text x="2795.40" y="5908.06" class="label">陽台</text>
    <path class="room" d="M 1820.55,5820.18 L 1820.71,5780.46 L 1836.22,5780.52 L 1836.35,5749.26 L 1894.64,5749.49 L 1899.95,5749.51 L 1899.67,5820.50 L 1820.55,5820.18 Z" />
    <text x="1860.25" y="5784.88" class="label">男廁</text>
    <path class="room" d="M 2108.85,5928.78 L 2109.03,5881.90 L 2182.74,5882.19 L 2182.70,5892.74 L 2195.65,5892.79 L 2195.69,5882.24 L 2217.85,5882.33 L 2217.66,5929.22 L 2195.51,5929.13 L 2195.55,5918.71 L 2182.60,5918.66 L 2182.56,5929.08 L 2108.85,5928.78 Z" />
    <text x="2163.35" y="5905.56" class="label">陽台</text>
    <path class="room" d="M 2000.22,5881.46 L 2000.87,5716.04 L 2001.05,5667.85 L 2009.99,5667.89 L 2010.03,5657.47 L 2090.35,5657.78 L 2090.31,5668.20 L 2103.26,5668.26 L 2103.30,5657.84 L 2109.91,5657.86 L 2109.03,5881.90 L 2102.42,5881.87 L 2102.43,5879.39 L 2089.48,5879.34 L 2089.47,5881.82 L 2000.22,5881.46 Z" />
    <text x="2055.06" y="5769.68" class="label">都市生態研究室</text>
    <path class="room" d="M 2109.03,5881.90 L 2109.91,5657.86 L 2183.62,5658.15 L 2183.58,5668.58 L 2196.53,5668.63 L 2196.57,5658.21 L 2218.72,5658.29 L 2217.85,5882.33 L 2195.69,5882.24 L 2195.70,5879.89 L 2182.75,5879.71 L 2182.74,5882.19 L 2109.03,5881.90 Z" />
    <text x="2163.88" y="5770.09" class="label">建築空間與文化研究室(ASC)</text>
    <path class="room" d="M 2608.66,5929.77 L 2608.91,5883.81 L 2649.09,5884.04 L 2649.04,5894.72 L 2662.00,5894.68 L 2662.04,5884.09 L 2742.36,5884.41 L 2742.31,5895.00 L 2748.79,5895.02 L 2748.69,5920.90 L 2742.21,5920.88 L 2742.17,5931.30 L 2661.86,5930.98 L 2661.90,5920.56 L 2648.94,5920.51 L 2648.91,5929.98 L 2608.66,5929.77 Z" />
    <text x="2678.73" y="5907.56" class="label">陽台</text>
    <path class="room" d="M 945.06,5360.31 L 947.65,5360.32 L 947.86,5306.78 L 954.34,5306.81 L 954.41,5287.21 L 1015.36,5287.45 L 1015.30,5303.79 L 1034.67,5303.87 L 1034.65,5307.13 L 1047.61,5307.18 L 1047.62,5303.92 L 1127.94,5304.24 L 1127.92,5307.50 L 1140.88,5307.55 L 1140.89,5304.29 L 1221.21,5304.61 L 1221.19,5307.87 L 1234.15,5307.92 L 1234.16,5304.66 L 1314.48,5304.98 L 1314.46,5308.24 L 1327.42,5308.29 L 1327.43,5305.03 L 1407.75,5305.35 L 1407.73,5308.61 L 1420.69,5308.66 L 1420.70,5305.40 L 1501.01,5305.72 L 1501.00,5308.98 L 1513.96,5309.03 L 1513.97,5305.77 L 1594.28,5306.09 L 1594.27,5309.34 L 1607.23,5309.40 L 1607.24,5306.14 L 1687.55,5306.46 L 1687.54,5309.71 L 1700.49,5309.77 L 1700.51,5306.51 L 1719.87,5306.59 L 1719.94,5290.24 L 1780.89,5290.48 L 1780.81,5310.08 L 1787.29,5310.11 L 1786.67,5467.98 L 1786.31,5560.19 L 1779.83,5560.17 L 1779.75,5581.01 L 1786.22,5581.03 L 1785.97,5646.16 L 1779.49,5646.13 L 1779.45,5657.73 L 1039.76,5654.80 L 1039.91,5616.24 L 1040.07,5578.08 L 1046.55,5578.10 L 1046.63,5557.26 L 1040.15,5557.24 L 1040.61,5438.19 L 944.76,5437.81 L 945.06,5360.31 Z M 1040.15,5557.24 L 1040.15,5557.24 L 1046.63,5557.26 L 1040.15,5557.24 Z" />
    <text x="1366.02" y="5472.47" class="label">室外露台</text>
    <path class="room" d="M 2217.66,5929.22 L 2218.72,5658.29 L 2276.89,5658.52 L 2276.85,5668.94 L 2289.80,5669.00 L 2289.84,5658.58 L 2370.16,5658.89 L 2370.12,5669.31 L 2383.07,5669.36 L 2383.11,5658.95 L 2463.43,5659.26 L 2463.39,5669.68 L 2476.34,5669.74 L 2476.38,5659.32 L 2556.70,5659.63 L 2556.66,5670.05 L 2569.61,5670.10 L 2569.65,5659.68 L 2609.81,5659.84 L 2608.98,5870.98 L 2608.66,5929.77 L 2580.25,5929.65 L 2580.27,5923.49 L 2568.62,5923.44 L 2568.63,5920.19 L 2555.67,5920.14 L 2555.66,5923.39 L 2475.35,5923.08 L 2475.36,5919.82 L 2462.40,5919.77 L 2462.39,5923.02 L 2382.08,5922.70 L 2382.09,5919.45 L 2369.14,5919.40 L 2369.12,5922.65 L 2288.81,5922.34 L 2288.82,5919.08 L 2275.87,5919.03 L 2275.85,5922.28 L 2264.19,5922.24 L 2264.17,5929.40 L 2217.66,5929.22 Z" />
    <text x="2413.74" y="5794.03" class="label">視聽教室</text>
  </g>
  <g id="gis_room_EL_8F">
    <path class="room" d="M 14327.03,6800.35 L 14327.71,6629.98 L 14402.52,6630.29 L 14401.84,6800.65 L 14327.03,6800.35 Z" />
    <text x="14364.78" y="6715.32" class="label">楊恆隆老師研究室</text>
    <path class="room" d="M 14824.76,6727.71 L 14825.14,6631.97 L 14900.93,6632.28 L 14900.86,6647.91 L 14918.35,6647.98 L 14918.03,6728.08 L 14824.76,6727.71 Z" />
    <text x="14871.56" y="6680.03" class="label">緊急升降機</text>
    <path class="room" d="M 13650.33,7416.61 L 13650.60,7349.40 L 13654.22,7349.41 L 13654.28,7335.87 L 13685.37,7335.99 L 13685.60,7275.95 L 13781.08,7276.33 L 13780.64,7385.87 L 13755.38,7385.77 L 13755.32,7401.40 L 13712.57,7401.23 L 13712.59,7396.02 L 13684.09,7395.90 L 13684.01,7416.74 L 13650.33,7416.61 Z" />
    <text x="13715.70" y="7346.34" class="label">男廁</text>
    <path class="room" d="M 14923.80,7235.70 L 14924.05,7171.62 L 14925.99,7171.62 L 14926.10,7157.95 L 14978.57,7158.16 L 14977.48,7419.96 L 14925.01,7419.75 L 14925.12,7392.40 L 14942.61,7392.34 L 14943.23,7235.78 L 14923.80,7235.70 Z" />
    <text x="14951.18" y="7288.96" class="label">陽台</text>
    <path class="room" d="M 14401.84,6800.65 L 14402.52,6630.29 L 14469.56,6630.55 L 14469.49,6646.18 L 14477.27,6646.21 L 14476.65,6800.95 L 14401.84,6800.65 Z" />
    <text x="14439.55" y="6715.62" class="label">林世聰老師研究室</text>
    <path class="room" d="M 14690.47,7437.70 L 14690.54,7420.77 L 14910.76,7421.65 L 14910.69,7438.58 L 14690.47,7437.70 Z" />
    <text x="14800.61" y="7429.68" class="label">花台</text>
    <path class="room" d="M 14040.58,6613.21 L 14040.72,6578.04 L 14103.48,6578.29 L 14103.28,6629.09 L 14049.85,6628.87 L 14049.91,6613.25 L 14040.58,6613.21 Z" />
    <text x="14072.03" y="6603.56" class="label">陽台</text>
    <path class="room" d="M 13535.61,6944.64 L 13535.81,6892.53 L 13547.47,6892.58 L 13547.54,6876.95 L 13615.54,6877.22 L 13615.25,6950.82 L 13540.77,6950.52 L 13540.79,6944.66 L 13535.61,6944.64 Z" />
    <text x="13575.58" y="6913.88" class="label">無障礙電梯</text>
    <path class="room" d="M 13689.09,6951.11 L 13689.38,6877.52 L 13757.39,6877.79 L 13757.33,6893.42 L 13768.99,6893.47 L 13768.78,6945.57 L 13763.60,6945.55 L 13763.58,6951.41 L 13689.09,6951.11 Z" />
    <text x="13729.04" y="6914.46" class="label">無障礙電梯</text>
    <path class="room" d="M 14693.72,6615.82 L 14693.79,6598.89 L 14914.01,6599.77 L 14913.94,6616.70 L 14693.72,6615.82 Z" />
    <text x="14803.86" y="6607.79" class="label">花台</text>
    <path class="room" d="M 13522.34,6861.22 L 13523.20,6642.40 L 13548.46,6642.50 L 13548.52,6626.87 L 13758.38,6627.71 L 13758.32,6643.34 L 13783.58,6643.44 L 13782.71,6862.26 L 13757.45,6862.16 L 13757.39,6877.79 L 13726.04,6877.66 L 13726.18,6842.24 L 13577.99,6841.64 L 13577.99,6877.07 L 13547.54,6876.95 L 13547.60,6861.32 L 13522.34,6861.22 Z" />
    <text x="13652.96" y="6752.33" class="label">光電專業課程教學實驗室(I)</text>
    <path class="room" d="M 14026.09,7232.11 L 14235.03,7232.95 L 14234.81,7288.69 L 14257.09,7288.78 L 14256.70,7387.77 L 14245.04,7387.73 L 14244.93,7417.03 L 14234.69,7416.99 L 14234.62,7436.53 L 14060.77,7435.83 L 14060.85,7416.30 L 14046.73,7416.24 L 14046.85,7386.93 L 14025.47,7386.85 L 14026.09,7232.11 Z" />
    <text x="14141.28" y="7334.32" class="label">繞射光學暨光資訊處理實驗室(I)</text>
    <path class="room" d="M 14026.94,7015.63 L 14027.42,6894.50 L 14048.79,6894.59 L 14048.86,6878.96 L 14247.05,6879.75 L 14246.99,6895.38 L 14270.31,6895.47 L 14270.37,6879.84 L 14328.40,6880.07 L 14328.15,6943.90 L 14367.27,6944.05 L 14366.99,7016.99 L 14026.94,7015.63 Z" />
    <text x="14197.11" y="6947.98" class="label">光電精密量測實驗室(I)</text>
    <path class="room" d="M 14026.94,7015.63 L 14366.99,7016.99 L 14602.23,7017.93 L 14604.17,7017.94 L 14603.63,7154.71 L 14490.80,7154.25 L 14490.86,7138.62 L 14467.55,7138.53 L 14467.48,7154.16 L 14405.56,7153.91 L 14405.82,7090.09 L 14366.70,7089.93 L 14327.57,7089.78 L 14327.32,7153.60 L 14269.29,7153.37 L 14269.35,7137.74 L 14246.03,7137.64 L 14245.97,7153.28 L 14047.77,7152.48 L 14047.84,7136.85 L 14026.46,7136.77 L 14026.94,7015.63 Z" />
    <text x="14315.32" y="7085.17" class="label">光纖通訊系統實驗室</text>
    <path class="room" d="M 14476.95,6726.32 L 14477.27,6646.21 L 14492.81,6646.28 L 14492.93,6616.97 L 14679.47,6617.72 L 14679.35,6647.02 L 14708.50,6647.14 L 14708.32,6691.69 L 14680.73,6691.57 L 14680.59,6727.13 L 14476.95,6726.32 Z" />
    <text x="14592.72" y="6672.05" class="label">乙樓梯間</text>
    <path class="room" d="M 13615.25,6950.82 L 13615.54,6877.22 L 13689.38,6877.52 L 13689.09,6951.11 L 13615.25,6950.82 Z" />
    <text x="13652.32" y="6914.17" class="label">無障礙電梯</text>
    <path class="room" d="M 13472.45,6862.97 L 13473.34,6640.25 L 13521.30,6640.44 L 13521.26,6642.39 L 13523.20,6642.40 L 13522.34,6861.22 L 13520.39,6861.21 L 13520.39,6863.17 L 13472.45,6862.97 Z M 13521.26,6642.39 L 13521.26,6642.39 L 13521.30,6640.44 L 13521.27,6640.44 L 13521.26,6642.39 Z" />
    <text x="13497.83" y="6751.71" class="label">陽台/緊急進口</text>
    <path class="room" d="M 14252.23,6800.05 L 14252.84,6645.32 L 14271.30,6645.39 L 14271.36,6629.76 L 14327.71,6629.98 L 14327.03,6800.35 L 14252.23,6800.05 Z" />
    <text x="14289.97" y="6715.06" class="label">研究教師室</text>
    <path class="room" d="M 14102.61,6799.46 L 14103.28,6629.09 L 14178.09,6629.39 L 14177.42,6799.76 L 14102.61,6799.46 Z" />
    <text x="14140.35" y="6714.42" class="label">呂海涵老師研究室</text>
    <path class="room" d="M 14772.11,7169.45 L 14772.53,7063.55 L 14905.69,7064.08 L 14905.60,7088.18 L 14910.78,7088.20 L 14910.57,7140.30 L 14898.91,7140.26 L 14898.80,7169.95 L 14772.11,7169.45 Z" />
    <text x="14841.44" y="7116.75" class="label">高速數位光通訊系統實驗室</text>
    <path class="room" d="M 14178.09,6629.39 L 14178.29,6578.59 L 14253.10,6578.89 L 14252.96,6614.06 L 14248.10,6614.04 L 14248.04,6629.67 L 14178.09,6629.39 Z" />
    <text x="14215.59" y="6604.13" class="label">陽台</text>
    <path class="room" d="M 13615.42,7335.71 L 13615.65,7275.67 L 13685.60,7275.95 L 13685.37,7335.99 L 13615.42,7335.71 Z" />
    <text x="13650.51" y="7305.83" class="label">無障礙廁所</text>
    <path class="room" d="M 14027.80,6799.16 L 14028.41,6644.42 L 14049.78,6644.51 L 14049.85,6628.87 L 14103.28,6629.09 L 14102.61,6799.46 L 14027.80,6799.16 Z" />
    <text x="14065.54" y="6714.17" class="label">教師休息室</text>
    <path class="room" d="M 14327.71,6629.98 L 14327.91,6579.19 L 14402.72,6579.49 L 14402.52,6630.29 L 14327.71,6629.98 Z" />
    <text x="14365.21" y="6604.74" class="label">陽台/緊急進口</text>
    <path class="room" d="M 14253.10,6578.89 L 14327.91,6579.19 L 14327.71,6629.98 L 14271.36,6629.76 L 14271.42,6614.13 L 14252.96,6614.06 L 14253.10,6578.89 Z" />
    <text x="14290.44" y="6604.44" class="label">陽台</text>
    <path class="room" d="M 14257.09,7288.78 L 14279.38,7288.87 L 14279.60,7233.12 L 14474.94,7233.90 L 14474.33,7388.64 L 14466.56,7388.61 L 14466.44,7417.92 L 14452.32,7417.86 L 14452.24,7437.40 L 14278.40,7436.70 L 14278.48,7417.17 L 14268.25,7417.13 L 14268.36,7387.82 L 14256.70,7387.77 L 14257.09,7288.78 Z" />
    <text x="14365.82" y="7335.26" class="label">有機半導體元件實驗室(I)</text>
    <path class="room" d="M 14714.18,7405.23 L 14714.85,7234.86 L 14772.07,7235.09 L 14771.76,7313.63 L 14942.92,7314.12 L 14942.61,7392.47 L 14925.12,7392.40 L 14925.13,7390.45 L 14897.93,7390.34 L 14897.86,7405.97 L 14714.18,7405.23 Z M 14771.76,7313.63 L 14942.92,7314.32 L 14942.92,7314.12 L 14771.76,7313.63 Z" />
    <path class="room" d="M 14925.12,7392.40 L 14942.61,7392.34 L 14942.61,7392.47 L 14925.12,7392.40 Z" />
    <text x="14828.55" y="7320.42" class="label">繞射光學暨光資訊處理實驗室(II)</text>
    <path class="room" d="M 14024.50,7468.64 L 14024.70,7418.11 L 14046.72,7418.19 L 14046.73,7416.24 L 14060.85,7416.30 L 14060.77,7435.83 L 14234.62,7436.53 L 14234.69,7416.99 L 14244.93,7417.03 L 14244.92,7418.99 L 14268.24,7419.08 L 14268.25,7417.13 L 14278.48,7417.17 L 14278.40,7436.70 L 14452.24,7437.40 L 14452.32,7417.86 L 14466.44,7417.92 L 14466.43,7419.87 L 14489.75,7419.97 L 14489.76,7418.01 L 14496.11,7418.04 L 14496.03,7437.57 L 14669.87,7438.27 L 14669.95,7418.73 L 14676.30,7418.76 L 14676.29,7420.71 L 14690.49,7420.77 L 14690.47,7437.70 L 14910.69,7438.58 L 14910.76,7421.65 L 14923.06,7421.70 L 14922.93,7454.91 L 14705.95,7454.04 L 14705.88,7471.37 L 14024.50,7468.64 Z" />
    <text x="14473.78" y="7443.80" class="label">陽台</text>
    <path class="room" d="M 14772.88,6973.68 L 14773.30,6867.78 L 14899.99,6868.29 L 14899.87,6897.99 L 14911.53,6898.04 L 14911.33,6950.14 L 14906.14,6950.12 L 14906.05,6974.21 L 14772.88,6973.68 Z" />
    <text x="14842.21" y="6921.00" class="label">光電精密量測實驗室(II)</text>
    <path class="room" d="M 14366.99,7016.99 L 14367.27,6944.05 L 14406.39,6944.21 L 14406.65,6880.39 L 14468.57,6880.63 L 14468.63,6865.00 L 14491.95,6865.10 L 14491.88,6880.73 L 14678.42,6881.47 L 14678.05,6975.25 L 14687.25,6975.29 L 14687.08,7018.27 L 14604.17,7017.94 L 14602.23,7017.93 L 14366.99,7016.99 Z M 14468.51,6896.26 L 14491.82,6896.36 L 14491.95,6865.10 L 14468.63,6865.00 L 14468.51,6896.26 Z" />
    <text x="14527.12" y="6941.64" class="label">光電訊號處理實驗室(I)</text>
    <path class="room" d="M 14474.94,7233.90 L 14670.29,7234.69 L 14669.56,7418.73 L 14669.95,7418.73 L 14669.87,7438.27 L 14496.03,7437.57 L 14496.11,7418.04 L 14489.76,7418.01 L 14489.87,7388.71 L 14474.33,7388.64 L 14474.94,7233.90 Z" />
    <text x="14572.31" y="7336.09" class="label">雷射物理實驗室</text>
    <path class="room" d="M 14177.42,6799.76 L 14178.09,6629.39 L 14248.04,6629.67 L 14247.98,6645.30 L 14252.84,6645.32 L 14252.23,6800.05 L 14177.42,6799.76 Z" />
    <text x="14215.13" y="6714.72" class="label">徐巍峰老師研究室</text>
    <path class="room" d="M 13534.86,7134.80 L 13535.06,7082.70 L 13540.25,7082.72 L 13540.34,7058.62 L 13763.15,7059.52 L 13763.05,7083.61 L 13768.23,7083.63 L 13768.03,7135.73 L 13756.37,7135.69 L 13756.25,7164.99 L 13708.97,7164.80 L 13709.02,7151.78 L 13546.45,7151.13 L 13546.52,7134.85 L 13534.86,7134.80 Z" />
    <text x="13651.55" y="7111.81" class="label">甲樓梯間</text>
    <path class="room" d="M 14103.28,6629.09 L 14103.48,6578.29 L 14178.29,6578.59 L 14178.09,6629.39 L 14103.28,6629.09 Z" />
    <text x="14140.79" y="6603.84" class="label">陽台</text>
    <path class="room" d="M 14771.76,7313.63 L 14772.07,7235.09 L 14943.23,7235.78 L 14942.92,7314.32 L 14771.76,7313.63 Z" />
    <text x="14857.49" y="7274.71" class="label">有機半導體元件實驗室(II)</text>
    <path class="room" d="M 13520.27,7384.83 L 13520.70,7275.29 L 13615.65,7275.65 L 13615.36,7349.26 L 13650.60,7349.40 L 13650.33,7416.61 L 13616.65,7416.47 L 13616.73,7395.63 L 13588.23,7395.52 L 13588.21,7400.73 L 13545.47,7400.56 L 13545.53,7384.93 L 13520.27,7384.83 Z" />
    <text x="13585.43" y="7345.95" class="label">女廁</text>
  </g>
  <g id="gis_room_GB_8F">
    <path class="room" d="M 3729.30,5908.36 L 3729.71,5803.25 L 3736.19,5803.27 L 3736.20,5801.06 L 3816.51,5801.37 L 3816.50,5803.59 L 3822.98,5803.62 L 3822.57,5908.73 L 3729.30,5908.36 Z" />
    <text x="3776.14" y="5854.89" class="label">余盛延老師研究室</text>
    <path class="room" d="M 4008.52,6059.65 L 4008.77,5994.52 L 4015.25,5994.55 L 4015.30,5982.96 L 4095.61,5983.27 L 4095.56,5994.87 L 4102.04,5994.89 L 4101.79,6060.02 L 4095.31,6059.99 L 4095.30,6061.95 L 4014.99,6061.63 L 4014.99,6059.67 L 4008.52,6059.65 Z" />
    <text x="4055.28" y="6022.45" class="label">林含怡老師研究室</text>
    <path class="room" d="M 4194.51,6199.76 L 4194.97,6081.23 L 4201.45,6081.26 L 4201.50,6068.30 L 4274.43,6068.62 L 4274.33,6094.57 L 4260.34,6094.52 L 4260.22,6125.78 L 4274.21,6125.83 L 4273.86,6213.75 L 4221.01,6213.54 L 4221.03,6207.42 L 4200.95,6207.34 L 4200.99,6199.78 L 4194.51,6199.76 Z" />
    <text x="4234.47" y="6141.03" class="label">女廁</text>
    <path class="room" d="M 3402.28,5855.48 L 3402.46,5808.85 L 3404.02,5808.86 L 3404.06,5797.53 L 3443.44,5797.68 L 3443.43,5802.11 L 3446.54,5802.12 L 3446.32,5855.65 L 3402.28,5855.48 Z" />
    <text x="3424.41" y="5826.59" class="label">儲藏室</text>
    <path class="room" d="M 3542.76,5907.62 L 3543.17,5802.50 L 3549.65,5802.53 L 3549.66,5800.32 L 3629.97,5800.64 L 3629.96,5802.85 L 3636.44,5802.88 L 3636.03,5907.99 L 3542.76,5907.62 Z" />
    <text x="3589.60" y="5854.15" class="label">葛瑞斐老師研究室</text>
    <path class="room" d="M 5158.86,6048.07 L 5244.95,6048.41 L 5244.36,6198.88 L 5158.29,6198.54 L 5158.86,6048.07 Z" />
    <text x="5201.62" y="6123.47" class="label">樓梯</text>
    <path class="room" d="M 4499.94,5941.84 L 4500.72,5743.78 L 4600.47,5744.18 L 4599.69,5942.24 L 4499.94,5941.84 Z" />
    <text x="4550.21" y="5843.01" class="label">樓梯</text>
    <path class="room" d="M 4499.47,6061.60 L 4499.94,5941.84 L 4599.69,5942.24 L 4599.22,6061.99 L 4592.74,6061.97 L 4592.71,6069.86 L 4512.40,6069.54 L 4512.43,6061.65 L 4499.47,6061.60 Z" />
    <text x="4549.58" y="6005.85" class="label">施欣文老師研究室</text>
    <path class="room" d="M 3446.12,5907.23 L 3446.54,5802.12 L 3456.38,5802.16 L 3456.39,5799.95 L 3519.86,5800.20 L 3536.70,5800.27 L 3536.70,5802.48 L 3543.17,5802.50 L 3542.76,5907.62 L 3446.12,5907.23 Z" />
    <text x="3494.65" y="5853.78" class="label">英語文文學資源研討室</text>
    <path class="room" d="M 3728.70,6060.49 L 3728.96,5993.41 L 3735.44,5993.44 L 3735.49,5981.84 L 3815.80,5982.16 L 3815.76,5993.76 L 3822.23,5993.78 L 3821.98,6058.91 L 3815.50,6058.88 L 3815.49,6060.84 L 3728.70,6060.49 Z" />
    <text x="3775.47" y="6021.34" class="label">葉采青老師研究室</text>
    <path class="room" d="M 3542.17,6057.80 L 3542.43,5992.67 L 3548.90,5992.70 L 3548.95,5981.10 L 3629.26,5981.42 L 3629.22,5993.02 L 3635.69,5993.04 L 3635.44,6058.17 L 3628.96,6058.14 L 3628.95,6060.10 L 3548.64,6059.78 L 3548.65,6057.82 L 3542.17,6057.80 Z" />
    <text x="3588.93" y="6020.60" class="label">莊惠鈞老師研究室</text>
    <path class="room" d="M 4101.79,6060.02 L 4102.04,5994.89 L 4108.52,5994.92 L 4108.56,5983.33 L 4188.88,5983.65 L 4188.83,5995.24 L 4195.31,5995.26 L 4195.05,6060.39 L 4188.58,6060.36 L 4188.57,6062.32 L 4108.26,6062.00 L 4108.26,6060.04 L 4101.79,6060.02 Z" />
    <text x="4148.55" y="6022.82" class="label">陳心怡老師研究室</text>
    <path class="room" d="M 4411.54,6353.02 L 4412.05,6221.46 L 4418.53,6221.49 L 4418.61,6200.65 L 4412.14,6200.62 L 4412.60,6082.09 L 4419.08,6082.12 L 4419.13,6069.17 L 4499.44,6069.49 L 4499.39,6082.44 L 4512.35,6082.49 L 4512.40,6069.54 L 4592.71,6069.86 L 4592.66,6082.81 L 4605.62,6082.86 L 4605.70,6062.02 L 4599.22,6061.99 L 4599.53,5984.49 L 5214.55,5986.94 L 5214.31,6048.29 L 5158.86,6048.07 L 5158.27,6198.54 L 5207.28,6198.74 L 5158.29,6198.54 L 5207.28,6198.74 L 5207.02,6264.74 L 5158.05,6264.57 L 5157.74,6355.98 L 4411.54,6353.02 Z" />
    <text x="4813.04" y="6170.24" class="label">露台</text>
    <path class="room" d="M 3636.03,5907.99 L 3636.44,5802.88 L 3642.92,5802.90 L 3642.93,5800.69 L 3723.24,5801.01 L 3723.23,5803.22 L 3729.71,5803.25 L 3729.30,5908.36 L 3636.03,5907.99 Z" />
    <text x="3682.87" y="5854.52" class="label">張詠翔老師研究室</text>
    <path class="room" d="M 4104.97,5909.85 L 4105.38,5804.74 L 4109.27,5804.75 L 4109.27,5802.54 L 4189.59,5802.86 L 4189.58,5805.07 L 4196.06,5805.10 L 4195.64,5910.21 L 4104.97,5909.85 Z" />
    <text x="4150.51" y="5856.37" class="label">陳雅玫老師研究室</text>
    <path class="room" d="M 3822.57,5908.73 L 3822.98,5803.62 L 3829.46,5803.64 L 3829.46,5801.43 L 3909.78,5801.75 L 3909.77,5803.96 L 3921.43,5804.01 L 3921.02,5909.12 L 3822.57,5908.73 Z" />
    <text x="3872.00" y="5855.27" class="label">楊韻華老師研究室</text>
    <path class="room" d="M 4293.44,5911.90 L 4348.50,5912.12 L 4348.28,5968.13 L 4293.22,5967.91 L 4293.44,5911.90 Z" />
    <text x="4320.86" y="5940.01" class="label">電梯</text>
    <path class="room" d="M 4293.44,5911.90 L 4293.66,5855.89 L 4348.72,5856.11 L 4348.50,5912.12 L 4293.44,5911.90 Z" />
    <text x="4321.08" y="5884.01" class="label">電梯</text>
    <path class="room" d="M 3915.24,6061.23 L 3915.50,5994.15 L 3921.98,5994.18 L 3922.03,5982.59 L 4002.34,5982.90 L 4002.29,5994.50 L 4008.77,5994.52 L 4008.52,6059.65 L 4002.04,6059.62 L 4002.03,6061.58 L 3915.24,6061.23 Z" />
    <text x="3962.00" y="6022.08" class="label">儲藏室</text>
    <path class="room" d="M 3921.02,5909.12 L 3921.43,5804.01 L 3922.73,5804.01 L 3922.73,5801.80 L 4003.05,5802.12 L 4003.04,5804.33 L 4016.00,5804.38 L 4016.00,5802.17 L 4096.32,5802.49 L 4096.31,5804.70 L 4105.38,5804.74 L 4104.97,5909.85 L 3921.02,5909.12 Z" />
    <text x="4013.20" y="5855.82" class="label">英語文教學資源研討室</text>
    <path class="room" d="M 3635.44,6058.17 L 3635.69,5993.04 L 3642.17,5993.07 L 3642.22,5981.48 L 3722.53,5981.80 L 3722.49,5993.39 L 3728.96,5993.41 L 3728.70,6060.49 L 3641.91,6060.15 L 3641.92,6058.19 L 3635.44,6058.17 Z" />
    <text x="3682.20" y="6020.98" class="label">蔡逸萍老師研究室</text>
    <path class="room" d="M 3541.77,6159.26 L 3542.09,6078.64 L 3548.57,6078.66 L 3548.64,6059.78 L 3628.95,6060.10 L 3628.88,6078.98 L 3641.84,6079.03 L 3641.91,6060.15 L 3815.49,6060.84 L 3815.42,6079.72 L 3828.37,6079.77 L 3828.45,6060.89 L 4002.03,6061.58 L 4001.96,6080.46 L 4014.91,6080.51 L 4014.99,6061.63 L 4095.30,6061.95 L 4095.23,6080.83 L 4101.70,6080.86 L 4101.39,6161.49 L 3541.77,6159.26 Z" />
    <text x="3821.74" y="6110.63" class="label">露台</text>
    <path class="room" d="M 3456.39,5799.95 L 3456.46,5781.32 L 3519.94,5781.57 L 3519.86,5800.20 L 3456.39,5799.95 Z" />
    <text x="3488.16" y="5790.76" class="label">露台</text>
    <path class="room" d="M 4219.38,5802.97 L 4219.46,5784.35 L 4282.93,5784.60 L 4282.86,5803.23 L 4219.38,5802.97 Z" />
    <text x="4251.16" y="5793.79" class="label">露台</text>
    <path class="room" d="M 3630.05,5782.01 L 3630.18,5746.97 L 4109.48,5748.87 L 4109.35,5783.91 L 4096.39,5783.86 L 4096.32,5802.49 L 4016.00,5802.17 L 4016.08,5783.54 L 4003.12,5783.49 L 4003.05,5802.12 L 3922.73,5801.80 L 3922.81,5783.17 L 3909.85,5783.12 L 3909.78,5801.75 L 3829.46,5801.43 L 3829.54,5782.80 L 3816.59,5782.75 L 3816.51,5801.37 L 3736.20,5801.06 L 3736.27,5782.43 L 3723.32,5782.38 L 3723.24,5801.01 L 3642.93,5800.69 L 3643.00,5782.06 L 3630.05,5782.01 Z" />
    <text x="3869.76" y="5774.73" class="label">露台</text>
    <path class="room" d="M 4273.86,6213.75 L 4274.27,6110.01 L 4412.49,6110.56 L 4412.14,6200.62 L 4405.66,6200.60 L 4405.63,6208.15 L 4385.55,6208.07 L 4385.53,6214.19 L 4273.86,6213.75 Z" />
    <text x="4343.18" y="6162.10" class="label">男廁</text>
    <path class="room" d="M 3821.98,6058.91 L 3822.23,5993.78 L 3828.71,5993.81 L 3828.76,5982.22 L 3909.07,5982.53 L 3909.03,5994.13 L 3915.50,5994.15 L 3915.24,6061.23 L 3828.45,6060.89 L 3828.46,6058.93 L 3821.98,6058.91 Z" />
    <text x="3868.74" y="6021.72" class="label">林彥良老師研究室</text>
    <path class="room" d="M 3353.61,6011.57 L 3354.22,5855.29 L 3401.96,5855.48 L 3446.32,5855.65 L 3445.87,5971.45 L 3442.76,5971.44 L 3442.68,5992.28 L 3449.16,5992.30 L 3448.90,6057.43 L 3453.44,6057.45 L 3453.38,6070.21 L 3402.99,6070.01 L 3403.02,6062.85 L 3401.47,6062.84 L 3401.67,6011.55 L 3353.61,6011.57 Z" />
    <text x="3403.52" y="5962.75" class="label">樓梯</text>
    <path class="room" d="M 4195.64,5910.21 L 4196.06,5805.10 L 4202.54,5805.12 L 4202.54,5802.91 L 4282.86,5803.23 L 4282.85,5805.44 L 4293.86,5805.48 L 4293.78,5825.67 L 4293.77,5829.58 L 4293.66,5855.89 L 4293.45,5910.60 L 4195.64,5910.21 Z" />
    <text x="4244.75" y="5856.75" class="label">英語文專業資源研討室</text>
  </g>
  <g id="gis_room_HR_8F">
    <path class="room" d="M 3247.50,1331.11 L 3247.63,1297.24 L 3290.05,1297.41 L 3289.92,1331.28 L 3247.50,1331.11 Z" />
    <text x="3268.78" y="1314.26" class="label">電力</text>
    <path class="room" d="M 2293.36,1507.72 L 2293.97,1351.42 L 2317.94,1351.51 L 2318.03,1327.42 L 2393.81,1327.72 L 2393.16,1495.74 L 2358.18,1495.60 L 2358.03,1534.03 L 2317.22,1533.87 L 2317.32,1507.82 L 2293.36,1507.72 Z" />
    <text x="2343.59" y="1430.72" class="label">樓梯</text>
    <path class="room" d="M 3246.69,1535.77 L 3247.50,1331.11 L 3323.28,1331.41 L 3323.19,1355.50 L 3347.15,1355.60 L 3346.54,1511.90 L 3322.57,1511.80 L 3322.48,1536.07 L 3281.67,1535.91 L 3246.69,1535.77 Z M 3246.69,1535.77 L 3281.67,1535.91 L 3281.81,1499.09 L 3246.84,1498.96 L 3246.69,1535.77 Z" />
    <text x="3296.92" y="1433.59" class="label">樓梯</text>
    <path class="room" d="M 2548.16,1444.26 L 2548.65,1318.89 L 2560.96,1318.94 L 2560.93,1326.43 L 2626.35,1326.69 L 2626.25,1352.74 L 2639.20,1352.79 L 2638.84,1444.62 L 2548.16,1444.26 Z" />
    <text x="2593.68" y="1381.75" class="label">EMBA執行長辦公室</text>
    <path class="room" d="M 2347.83,1327.53 L 2348.49,1159.37 L 2457.50,1159.80 L 2460.69,1162.52 L 2460.05,1326.03 L 2444.99,1325.97 L 2444.98,1327.92 L 2393.81,1327.72 L 2393.88,1309.62 L 2357.20,1309.48 L 2357.13,1327.57 L 2347.83,1327.53 Z" />
    <text x="2404.26" y="1243.64" class="label">管理學院國際&amp;AACSB認證辦公室</text>
    <path class="room" d="M 3170.63,1771.71 L 3170.88,1707.89 L 3246.02,1708.19 L 3245.67,1796.11 L 3194.50,1795.90 L 3194.60,1771.81 L 3170.63,1771.71 Z" />
    <text x="3208.32" y="1752.00" class="label">行動不便者使用廁所</text>
    <path class="room" d="M 2904.00,1796.70 L 2905.11,1512.10 L 2988.35,1512.43 L 2988.25,1536.53 L 3014.16,1536.63 L 3014.25,1512.53 L 3169.70,1513.15 L 3169.61,1537.25 L 3171.55,1537.26 L 3170.63,1771.71 L 3168.69,1771.70 L 3168.59,1797.75 L 3013.14,1797.14 L 3013.24,1771.09 L 2987.33,1770.98 L 2987.23,1797.03 L 2904.00,1796.70 Z" />
    <text x="3037.77" y="1654.93" class="label">陽光講堂B廳/EMBA個案教室</text>
    <path class="room" d="M 2467.22,1768.92 L 2468.14,1534.47 L 2470.08,1534.47 L 2470.18,1510.38 L 2553.41,1510.71 L 2552.32,1787.49 L 2521.68,1787.37 L 2521.67,1791.90 L 2469.07,1791.69 L 2469.16,1768.93 L 2467.22,1768.92 Z" />
    <text x="2510.31" y="1651.14" class="label">EMBA班聯會/IMBA班聯會</text>
    <path class="room" d="M 3171.01,1511.20 L 3171.55,1371.48 L 3247.34,1371.78 L 3246.79,1511.50 L 3171.01,1511.20 Z" />
    <text x="3209.17" y="1441.49" class="label">管理學院EMBA資材室</text>
    <path class="room" d="M 3245.67,1796.11 L 3246.02,1708.19 L 3266.74,1708.27 L 3266.91,1664.65 L 3349.82,1664.96 L 3349.63,1715.11 L 3355.45,1715.13 L 3355.43,1720.34 L 3349.60,1720.32 L 3349.40,1772.42 L 3321.55,1772.31 L 3321.45,1796.41 L 3245.67,1796.11 Z" />
    <text x="3300.56" y="1730.53" class="label">男廁</text>
    <path class="room" d="M 2290.39,1768.22 L 2290.61,1712.22 L 2375.46,1712.56 L 2375.24,1770.52 L 2392.08,1770.59 L 2391.98,1794.67 L 2316.20,1794.37 L 2316.30,1768.32 L 2290.39,1768.22 Z" />
    <text x="2341.23" y="1753.45" class="label">電梯</text>
    <path class="room" d="M 3171.55,1371.48 L 3171.62,1354.90 L 3196.23,1355.00 L 3196.34,1328.95 L 3171.72,1328.85 L 3172.11,1230.45 L 3247.89,1230.75 L 3247.34,1371.78 L 3171.55,1371.48 Z" />
    <text x="3209.72" y="1301.11" class="label">管理學院EMBA社團辦公室</text>
    <path class="room" d="M 3289.92,1331.28 L 3290.05,1297.41 L 3349.32,1297.64 L 3349.20,1329.55 L 3323.29,1329.45 L 3323.28,1331.41 L 3289.92,1331.28 Z" />
    <text x="3319.62" y="1314.41" class="label">撒水</text>
    <path class="room" d="M 2976.99,1014.27 L 2993.95,955.94 L 3040.07,797.31 L 3047.97,800.04 L 3055.83,802.87 L 3063.65,805.80 L 3071.44,808.83 L 3079.19,811.95 L 3086.90,815.17 L 3094.57,818.49 L 3102.20,821.90 L 3109.79,825.40 L 3117.34,829.00 L 3124.84,832.69 L 3132.29,836.48 L 3139.70,840.35 L 3147.05,844.32 L 3154.36,848.38 L 3138.31,876.29 L 3149.51,882.84 L 3064.73,1029.15 L 3053.54,1022.59 L 3041.46,1043.44 L 3037.31,1041.19 L 3033.13,1038.98 L 3028.93,1036.81 L 3024.71,1034.69 L 3020.47,1032.61 L 3016.21,1030.58 L 3011.93,1028.59 L 3007.63,1026.64 L 3003.31,1024.74 L 2998.97,1022.88 L 2994.61,1021.07 L 2990.23,1019.30 L 2985.83,1017.57 L 2981.42,1015.90 L 2976.99,1014.27 Z" />
    <text x="3065.68" y="920.37" class="label">經營管理系辦公室</text>
    <path class="room" d="M 2912.87,934.52 L 2936.32,803.86 L 2949.07,806.18 L 2953.67,780.54 L 2954.86,774.47 L 2960.63,775.64 L 2966.38,776.87 L 2972.13,778.14 L 2977.86,779.46 L 2983.58,780.84 L 2989.30,782.26 L 2994.99,783.73 L 3000.68,785.26 L 3006.35,786.83 L 3012.01,788.45 L 3017.65,790.12 L 3023.28,791.85 L 3028.90,793.62 L 3034.49,795.44 L 3040.07,797.31 L 2993.95,955.94 L 2988.66,954.10 L 2983.36,952.32 L 2978.03,950.60 L 2972.69,948.93 L 2967.33,947.32 L 2961.95,945.78 L 2956.55,944.29 L 2951.14,942.86 L 2945.71,941.49 L 2940.28,940.17 L 2934.82,938.92 L 2929.35,937.73 L 2923.87,936.60 L 2918.38,935.53 L 2912.87,934.52 Z" />
    <text x="2976.47" y="865.21" class="label">主任辦公室</text>
    <path class="room" d="M 2820.20,1445.34 L 2820.56,1353.51 L 2833.52,1353.56 L 2833.62,1327.51 L 2989.07,1328.12 L 2988.97,1354.17 L 3001.92,1354.23 L 3001.56,1446.05 L 2820.20,1445.34 Z" />
    <text x="2911.06" y="1386.78" class="label">檔案庫房</text>
    <path class="room" d="M 2484.11,886.72 L 2506.56,873.78 L 2493.70,851.17 L 2490.73,845.75 L 2496.98,842.33 L 2503.27,838.98 L 2509.60,835.70 L 2515.95,832.48 L 2522.35,829.34 L 2528.77,826.26 L 2535.22,823.24 L 2541.71,820.30 L 2548.23,817.42 L 2554.77,814.62 L 2561.35,811.88 L 2567.95,809.21 L 2574.58,806.62 L 2581.24,804.09 L 2587.93,801.63 L 2663.92,1014.06 L 2659.68,1015.62 L 2655.45,1017.21 L 2651.24,1018.85 L 2647.05,1020.53 L 2642.87,1022.25 L 2638.71,1024.01 L 2634.57,1025.82 L 2630.44,1027.66 L 2626.34,1029.54 L 2622.25,1031.47 L 2618.18,1033.43 L 2614.13,1035.44 L 2610.10,1037.48 L 2606.09,1039.57 L 2602.10,1041.70 L 2590.23,1020.76 L 2567.74,1033.69 L 2484.11,886.72 Z M 2567.73,1033.68 L 2567.74,1033.69 L 2590.20,1020.77 L 2590.19,1020.76 L 2567.73,1033.68 Z" />
    <text x="2574.01" y="921.66" class="label">工業工程與管理系辦公室</text>
    <path class="room" d="M 2906.42,970.50 L 2912.87,934.52 L 2918.38,935.53 L 2923.87,936.60 L 2929.35,937.73 L 2934.82,938.92 L 2940.28,940.17 L 2945.71,941.49 L 2951.14,942.86 L 2956.55,944.29 L 2961.95,945.78 L 2967.33,947.32 L 2972.69,948.93 L 2978.03,950.60 L 2983.36,952.32 L 2988.66,954.10 L 2993.95,955.94 L 2976.99,1014.27 L 2972.93,1012.81 L 2968.86,1011.40 L 2964.78,1010.03 L 2960.69,1008.69 L 2956.58,1007.39 L 2952.46,1006.14 L 2948.33,1004.92 L 2944.19,1003.74 L 2940.03,1002.59 L 2935.87,1001.49 L 2931.70,1000.42 L 2927.51,999.40 L 2923.32,998.41 L 2919.12,997.46 L 2914.91,996.56 L 2919.17,972.82 L 2906.42,970.50 Z" />
    <text x="2950.18" y="974.39" class="label">多功能用途室</text>
    <path class="room" d="M 3259.14,1664.60 L 3259.39,1602.08 L 3332.45,1602.37 L 3332.36,1624.51 L 3346.10,1624.57 L 3346.02,1644.76 L 3345.94,1664.94 L 3259.14,1664.60 Z" />
    <text x="3302.62" y="1633.51" class="label">電梯</text>
    <path class="room" d="M 2822.00,986.69 L 2822.89,760.94 L 2830.00,761.00 L 2837.12,761.14 L 2844.23,761.36 L 2851.34,761.65 L 2858.45,762.02 L 2865.55,762.46 L 2872.65,762.98 L 2879.74,763.57 L 2886.83,764.24 L 2893.91,764.98 L 2900.97,765.79 L 2908.04,766.69 L 2915.09,767.65 L 2922.13,768.69 L 2929.16,769.81 L 2928.17,775.91 L 2923.57,801.55 L 2936.32,803.86 L 2906.42,970.50 L 2893.67,968.19 L 2889.41,991.93 L 2884.95,991.27 L 2880.48,990.66 L 2876.00,990.09 L 2871.52,989.56 L 2867.04,989.08 L 2862.55,988.64 L 2858.05,988.25 L 2853.55,987.90 L 2849.05,987.59 L 2844.55,987.33 L 2840.04,987.12 L 2835.53,986.94 L 2831.02,986.81 L 2826.51,986.73 L 2822.00,986.69 Z" />
    <text x="2879.16" y="876.43" class="label">院長辦公室</text>
    <path class="room" d="M 2552.32,1787.49 L 2553.41,1510.71 L 2625.63,1510.99 L 2625.53,1535.09 L 2638.49,1535.14 L 2637.57,1769.60 L 2624.61,1769.55 L 2624.54,1787.78 L 2552.32,1787.49 Z" />
    <text x="2595.40" y="1649.24" class="label">EMBA辦公室</text>
    <path class="room" d="M 2293.42,1325.37 L 2294.09,1156.55 L 2318.70,1156.65 L 2318.69,1159.25 L 2348.49,1159.37 L 2347.83,1327.53 L 2318.03,1327.42 L 2318.04,1325.46 L 2293.42,1325.37 Z" />
    <text x="2320.96" y="1242.04" class="label">陽台</text>
    <path class="room" d="M 2637.57,1769.60 L 2638.49,1535.14 L 2651.44,1535.19 L 2651.53,1511.10 L 2806.99,1511.71 L 2806.89,1535.81 L 2832.80,1535.91 L 2832.89,1511.82 L 2905.11,1512.10 L 2904.00,1796.70 L 2831.78,1796.42 L 2831.88,1770.37 L 2805.97,1770.26 L 2805.87,1796.32 L 2650.42,1795.70 L 2650.52,1769.65 L 2637.57,1769.60 Z" />
    <text x="2771.34" y="1653.90" class="label">陽光講堂A廳/EMBA個案教室</text>
    <path class="room" d="M 2291.07,1596.29 L 2315.03,1596.38 L 2315.03,1598.33 L 2375.91,1598.58 L 2375.68,1656.55 L 2290.83,1656.21 L 2291.07,1596.29 Z" />
    <text x="2333.37" y="1626.42" class="label">電梯</text>
    <path class="room" d="M 2290.61,1712.22 L 2290.83,1656.21 L 2375.68,1656.55 L 2375.46,1712.56 L 2290.61,1712.22 Z" />
    <text x="2333.15" y="1684.39" class="label">電梯</text>
    <path class="room" d="M 3063.84,1056.56 L 3075.92,1035.71 L 3064.73,1029.15 L 3149.51,882.84 L 3160.70,889.40 L 3173.74,866.89 L 3176.93,861.60 L 3178.45,862.53 L 3179.97,863.46 L 3181.49,864.40 L 3183.00,865.34 L 3184.51,866.28 L 3186.02,867.23 L 3187.52,868.18 L 3189.03,869.14 L 3190.53,870.10 L 3192.03,871.06 L 3193.52,872.03 L 3195.02,873.00 L 3196.51,873.98 L 3197.99,874.96 L 3199.48,875.94 L 3202.45,877.92 L 3205.40,879.92 L 3208.34,881.93 L 3211.27,883.96 L 3214.20,886.00 L 3217.11,888.05 L 3220.01,890.13 L 3222.90,892.22 L 3225.78,894.32 L 3228.64,896.44 L 3231.50,898.57 L 3234.35,900.72 L 3237.18,902.88 L 3240.00,905.06 L 3242.81,907.26 L 3177.68,993.36 L 3183.64,997.66 L 3189.56,1002.03 L 3195.44,1006.46 L 3201.26,1010.96 L 3207.04,1015.52 L 3212.76,1020.15 L 3218.43,1024.83 L 3224.06,1029.58 L 3229.63,1034.40 L 3235.14,1039.27 L 3240.61,1044.20 L 3246.02,1049.20 L 3251.37,1054.25 L 3256.67,1059.36 L 3261.92,1064.53 L 3270.21,1074.54 L 3193.54,1138.70 L 3185.25,1128.69 L 3166.81,1144.13 L 3160.78,1137.38 L 3154.62,1130.75 L 3148.33,1124.24 L 3141.92,1117.86 L 3135.38,1111.61 L 3128.73,1105.48 L 3121.95,1099.49 L 3115.07,1093.63 L 3108.06,1087.91 L 3100.95,1082.32 L 3093.73,1076.88 L 3086.41,1071.58 L 3078.98,1066.42 L 3071.46,1061.42 L 3063.84,1056.56 Z" />
    <text x="3167.02" y="1002.86" class="label">資訊與財金管理系辦公室</text>
    <path class="room" d="M 3177.68,993.36 L 3242.81,907.26 L 3246.88,910.39 L 3250.92,913.56 L 3254.93,916.77 L 3258.91,920.01 L 3262.86,923.29 L 3266.79,926.60 L 3270.69,929.94 L 3274.55,933.32 L 3278.39,936.73 L 3282.20,940.18 L 3285.98,943.66 L 3289.73,947.17 L 3293.45,950.71 L 3297.14,954.29 L 3300.79,957.90 L 3276.96,982.08 L 3279.23,984.35 L 3281.49,986.63 L 3283.74,988.93 L 3285.98,991.23 L 3288.21,993.54 L 3290.43,995.87 L 3292.64,998.20 L 3294.84,1000.54 L 3297.03,1002.89 L 3299.21,1005.26 L 3301.37,1007.63 L 3303.53,1010.01 L 3305.68,1012.41 L 3307.81,1014.81 L 3309.93,1017.22 L 3313.80,1013.99 L 3317.28,1018.19 L 3314.69,1020.36 L 3330.18,1039.08 L 3297.33,1066.58 L 3281.83,1047.86 L 3261.92,1064.53 L 3256.67,1059.36 L 3251.37,1054.25 L 3246.02,1049.20 L 3240.61,1044.20 L 3235.14,1039.27 L 3229.63,1034.40 L 3224.06,1029.58 L 3218.43,1024.83 L 3212.76,1020.15 L 3207.04,1015.52 L 3201.26,1010.96 L 3195.44,1006.46 L 3189.56,1002.03 L 3183.64,997.66 L 3177.68,993.36 Z" />
    <text x="3253.93" y="986.92" class="label">會議室</text>
    <path class="room" d="M 2638.84,1444.62 L 2639.20,1352.79 L 2652.16,1352.84 L 2652.26,1326.79 L 2807.71,1327.40 L 2807.61,1353.46 L 2820.56,1353.51 L 2820.20,1445.34 L 2638.84,1444.62 Z" />
    <text x="2729.70" y="1386.06" class="label">管理學院研討室(II)</text>
    <path class="room" d="M 2587.93,801.63 L 2594.64,799.25 L 2601.37,796.93 L 2608.13,794.69 L 2614.91,792.52 L 2621.71,790.42 L 2628.54,788.39 L 2635.38,786.44 L 2642.25,784.55 L 2649.13,782.74 L 2656.04,781.01 L 2662.96,779.34 L 2669.90,777.75 L 2676.85,776.24 L 2683.82,774.79 L 2690.81,773.42 L 2691.19,775.54 L 2691.57,777.65 L 2691.95,779.77 L 2692.33,781.88 L 2692.70,784.00 L 2693.08,786.11 L 2693.45,788.23 L 2693.82,790.35 L 2694.19,792.46 L 2694.55,794.58 L 2694.92,796.70 L 2695.28,798.82 L 2695.64,800.93 L 2696.00,803.05 L 2696.36,805.17 L 2709.12,802.96 L 2737.71,969.83 L 2724.94,972.05 L 2729.03,995.92 L 2724.61,996.82 L 2720.20,997.76 L 2715.80,998.75 L 2711.41,999.78 L 2707.03,1000.86 L 2702.66,1001.98 L 2698.31,1003.15 L 2693.96,1004.36 L 2689.63,1005.61 L 2685.31,1006.91 L 2681.00,1008.25 L 2676.71,1009.64 L 2672.43,1011.07 L 2668.17,1012.55 L 2663.92,1014.06 L 2587.93,801.63 Z M 2693.64,789.35 L 2696.35,805.17 L 2709.12,802.96 L 2696.36,805.17 L 2696.00,803.05 L 2695.64,800.93 L 2695.28,798.82 L 2694.92,796.70 L 2694.55,794.58 L 2694.19,792.46 L 2693.82,790.35 L 2693.64,789.35 Z" />
    <text x="2662.82" y="893.74" class="label">主任辦公室</text>
    <path class="room" d="M 2709.12,802.96 L 2721.89,800.75 L 2716.55,768.97 L 2723.59,767.91 L 2730.64,766.92 L 2737.69,766.01 L 2744.76,765.17 L 2751.84,764.41 L 2758.92,763.73 L 2766.01,763.12 L 2773.11,762.58 L 2780.21,762.12 L 2787.31,761.74 L 2794.43,761.43 L 2801.54,761.19 L 2808.65,761.03 L 2815.77,760.95 L 2822.89,760.94 L 2822.00,986.69 L 2817.49,986.69 L 2812.98,986.74 L 2808.47,986.84 L 2803.96,986.97 L 2799.45,987.15 L 2794.94,987.38 L 2790.44,987.65 L 2785.94,987.96 L 2781.44,988.32 L 2776.95,988.72 L 2772.46,989.17 L 2767.97,989.66 L 2763.49,990.20 L 2759.02,990.77 L 2754.55,991.40 L 2750.48,967.62 L 2737.71,969.83 L 2709.12,802.96 Z M 2709.12,802.96 L 2737.71,969.83 L 2737.71,969.83 L 2709.12,802.96 L 2709.12,802.96 Z" />
    <text x="2766.00" y="876.17" class="label">管理學院辦公室</text>
  </g>
  <g id="gis_room_LY_8F">
    <path class="room" d="M -23896.16,-3056.54 L -23890.44,-3078.60 L -23875.40,-3074.65 L -23871.15,-3091.04 L -23803.46,-3073.28 L -23813.44,-3034.84 L -23896.16,-3056.54 Z" />
    <text x="-23849.81" y="-3062.94" class="label">陽台</text>
    <path class="room" d="M -23788.66,-3076.13 L -23763.01,-3174.98 L -23645.81,-3144.22 L -23671.46,-3045.37 L -23788.66,-3076.13 Z" />
    <text x="-23717.23" y="-3110.17" class="label">空間6</text>
    <path class="room" d="M -23763.01,-3174.98 L -23749.90,-3225.48 L -23719.69,-3217.55 L -23707.30,-3265.27 L -23620.31,-3242.45 L -23630.74,-3202.28 L -23652.05,-3207.88 L -23657.93,-3185.19 L -23636.62,-3179.60 L -23645.81,-3144.22 L -23763.01,-3174.98 Z" />
    <text x="-23691.66" y="-3204.75" class="label">空間5</text>
    <path class="room" d="M -23877.98,-3098.22 L -23863.92,-3152.41 L -23855.77,-3150.28 L -23850.21,-3171.70 L -23858.36,-3173.84 L -23851.82,-3199.05 L -23803.56,-3186.38 L -23783.44,-3263.89 L -23742.70,-3253.20 L -23788.66,-3076.13 L -23801.82,-3079.58 L -23803.46,-3073.28 L -23871.15,-3091.04 L -23869.84,-3096.08 L -23877.98,-3098.22 Z" />
    <text x="-23810.34" y="-3168.58" class="label">空間8</text>
    <path class="room" d="M -23851.82,-3199.05 L -23844.29,-3228.03 L -23836.15,-3225.89 L -23830.58,-3247.32 L -23838.73,-3249.46 L -23824.66,-3303.65 L -23816.52,-3301.52 L -23810.96,-3322.94 L -23819.10,-3325.08 L -23811.58,-3354.07 L -23763.32,-3341.40 L -23803.56,-3186.38 L -23851.82,-3199.05 Z" />
    <text x="-23807.57" y="-3270.22" class="label">陽台</text>
    <path class="room" d="M -23811.58,-3354.07 L -23805.04,-3379.28 L -23796.89,-3377.14 L -23791.33,-3398.56 L -23799.48,-3400.70 L -23786.23,-3451.75 L -23775.57,-3448.95 L -23771.16,-3465.96 L -23725.40,-3453.96 L -23726.06,-3451.44 L -23693.47,-3442.88 L -23742.70,-3253.20 L -23783.44,-3263.89 L -23763.32,-3341.40 L -23811.58,-3354.07 Z" />
    <text x="-23752.52" y="-3359.58" class="label">空間7</text>
    <path class="room" d="M -23719.85,-3341.26 L -23693.47,-3442.88 L -23597.58,-3417.72 L -23600.69,-3405.75 L -23579.38,-3400.16 L -23602.65,-3310.51 L -23719.85,-3341.26 Z" />
    <text x="-23649.61" y="-3376.70" class="label">空間4</text>
    <path class="room" d="M -23726.06,-3451.44 L -23702.31,-3542.94 L -23553.15,-3503.80 L -23572.81,-3428.05 L -23593.49,-3433.48 L -23597.58,-3417.72 L -23726.06,-3451.44 Z" />
    <text x="-23639.60" y="-3480.33" class="label">樓梯</text>
    <path class="room" d="M -23520.50,-3335.57 L -23504.47,-3397.33 L -23449.32,-3382.86 L -23465.34,-3321.10 L -23520.50,-3335.57 Z" />
    <text x="-23484.91" y="-3359.21" class="label">電梯</text>
    <path class="room" d="M -23465.34,-3321.10 L -23449.32,-3382.86 L -23396.04,-3368.88 L -23398.82,-3358.16 L -23396.94,-3357.67 L -23406.76,-3319.86 L -23408.64,-3320.35 L -23412.07,-3307.12 L -23465.34,-3321.10 Z" />
    <text x="-23430.69" y="-3344.99" class="label">電梯</text>
    <path class="room" d="M -23708.72,-2981.78 L -23700.05,-3015.18 L -23623.59,-2995.11 L -23635.20,-2950.37 L -23690.98,-2965.01 L -23688.04,-2976.35 L -23708.72,-2981.78 Z" />
    <text x="-23666.15" y="-2982.78" class="label">無障礙廁所</text>
    <path class="room" d="M -23820.96,-3005.85 L -23801.82,-3079.58 L -23671.46,-3045.37 L -23680.62,-3010.08 L -23700.05,-3015.18 L -23708.72,-2981.78 L -23718.12,-2984.25 L -23721.06,-2972.90 L -23803.79,-2994.61 L -23802.16,-3000.92 L -23820.96,-3005.85 Z" />
    <text x="-23746.21" y="-3026.24" class="label">樓梯</text>
    <path class="room" d="M -23595.83,-3125.28 L -23567.35,-3235.01 L -23428.21,-3198.50 L -23438.90,-3157.33 L -23450.18,-3160.29 L -23458.69,-3127.52 L -23447.41,-3124.56 L -23452.97,-3103.14 L -23462.99,-3105.77 L -23466.72,-3091.40 L -23595.83,-3125.28 Z" />
    <text x="-23512.02" y="-3163.20" class="label">空間2</text>
    <path class="room" d="M -23496.15,-2936.77 L -23447.41,-3124.56 L -23436.12,-3121.60 L -23427.62,-3154.37 L -23438.90,-3157.33 L -23401.28,-3302.27 L -23390.00,-3299.31 L -23389.51,-3301.20 L -23357.55,-3292.81 L -23459.94,-2898.32 L -23491.90,-2906.71 L -23484.87,-2933.81 L -23496.15,-2936.77 Z" />
    <text x="-23426.85" y="-3100.30" class="label">陽台</text>
    <path class="room" d="M -23567.35,-3235.01 L -23539.92,-3340.67 L -23412.07,-3307.12 L -23412.56,-3305.23 L -23401.28,-3302.27 L -23428.21,-3198.50 L -23567.35,-3235.01 Z" />
    <text x="-23484.31" y="-3269.58" class="label">空間1</text>
    <path class="room" d="M -23620.07,-3031.89 L -23595.83,-3125.28 L -23466.72,-3091.40 L -23462.99,-3105.77 L -23452.97,-3103.14 L -23480.94,-2995.38 L -23620.07,-3031.89 Z" />
    <text x="-23536.52" y="-3060.33" class="label">空間3</text>
    <path class="room" d="M -23589.14,-2988.57 L -23580.59,-3021.53 L -23480.94,-2995.38 L -23496.15,-2936.77 L -23507.43,-2939.73 L -23512.99,-2918.30 L -23575.04,-2934.59 L -23562.82,-2981.66 L -23589.14,-2988.57 Z" />
    <text x="-23535.04" y="-2969.91" class="label">女廁</text>
  </g>
</svg>