<svg width="16000" height="9099" viewBox="0 0 16000 9099" xmlns="http://www.w3.org/2000/svg" xmlns:xlink="http://www.w3.org/1999/xlink">

    <style>
        .building { fill: #f0f4f8; stroke: #d1dce5; stroke-width: 2; }
        .room     { fill: #ffffff; fill-opacity: 0.8; stroke: #bcccdc; stroke-width: 1; }
        .label    { font-family: "Noto Sans TC", sans-serif; font-size: 24px; fill: #334e68; font-weight: 500; text-anchor: middle; dominant-baseline: middle; }
    </style>
      <g id="gis_gis_building_geom">
    <path class="building" d="M 2949.26,4010.03 L 4140.85,4021.56 L 4142.10,4292.67 L 4130.90,4292.64 L 4130.40,4356.44 L 3226.66,4355.84 L 3226.31,4812.55 L 3401.68,4811.80 L 3401.95,5141.81 L 2942.28,5141.31 L 2949.26,4010.03 Z" />
    <path class="building" d="M 7088.12,2560.89 L 7700.72,2562.04 L 7700.87,2481.66 L 8148.51,2483.00 L 8147.15,2562.88 L 8693.32,2563.92 L 8721.63,2695.28 L 8721.63,2695.28 L 8715.57,3280.48 L 8690.90,3280.61 L 8690.48,3403.55 L 7085.32,3389.98 L 7085.31,3204.63 L 7000.35,3203.97 L 7003.43,2738.84 L 7087.35,2738.26 L 7088.12,2560.89 Z" />
    <path class="building" d="M 4843.51,1956.47 L 4844.51,1787.79 L 4906.35,1787.49 L 4905.24,1712.44 L 5766.54,1719.44 L 5767.05,1759.83 L 6027.80,1762.57 L 6041.22,1778.35 L 6040.91,2113.44 L 5920.93,2113.62 L 5921.58,2180.69 L 4855.22,2175.20 L 4857.61,1956.59 L 4843.51,1956.47 Z" />
    <path class="building" d="M 3188.76,5839.04 L 3184.44,6132.85 L 3009.51,6131.08 L 3010.12,5838.90 L 3188.76,5839.04 Z" />
    <path class="building" d="M 8161.26,3799.06 L 8661.34,3802.64 L 8661.72,3865.86 L 8759.20,3866.25 L 8755.51,3995.61 L 8806.86,3995.16 L 8806.05,4079.95 L 8850.04,4079.42 L 8848.57,4261.53 L 8807.12,4260.63 L 8806.31,4341.05 L 8464.87,4337.40 L 8462.68,4793.00 L 8947.00,4797.31 L 8944.64,5163.38 L 9070.07,5164.43 L 9068.88,5256.28 L 8943.78,5254.69 L 8940.58,5624.81 L 8458.26,5621.41 L 8453.24,6072.52 L 9133.83,6077.89 L 9126.51,6745.48 L 8044.27,6736.86 L 8045.15,6541.70 L 7946.95,6541.19 L 7947.74,6409.27 L 7850.08,6409.19 L 7850.29,6387.18 L 7663.94,6386.98 L 7662.42,6294.92 L 7365.94,6294.05 L 7367.40,6164.56 L 7219.73,6164.20 L 7220.56,6079.32 L 7176.49,6078.82 L 7179.52,5914.56 L 7222.17,5914.94 L 7222.98,5832.54 L 7863.48,5840.16 L 7863.88,5617.56 L 7754.27,5617.59 L 7754.43,5521.38 L 7739.08,5522.23 L 7740.67,5376.11 L 7755.56,5376.17 L 7756.55,5277.27 L 7785.97,5276.79 L 7786.18,5127.15 L 7757.98,5127.35 L 7758.14,5028.99 L 7743.59,5028.70 L 7745.39,4886.44 L 7759.72,4886.75 L 7760.11,4786.55 L 7849.88,4787.63 L 7849.21,4560.97 L 7233.65,4557.12 L 7234.22,4480.71 L 7180.57,4480.46 L 7181.34,4311.50 L 7235.49,4311.75 L 7236.10,4231.20 L 7381.06,4231.84 L 7382.58,4106.09 L 7678.18,4106.93 L 7679.62,4016.64 L 7870.79,4014.88 L 7870.93,3994.82 L 7966.89,3995.55 L 7968.35,3863.10 L 8160.60,3863.87 L 8161.26,3799.06 Z" />
    <path class="building" d="M 1785.34,1818.91 L 1846.80,1820.11 L 1846.08,1868.88 L 1915.10,1869.87 L 1914.84,1881.19 L 1956.32,1881.91 L 1956.29,1947.64 L 1913.30,1947.43 L 1912.91,1964.27 L 1844.69,1963.82 L 1844.25,1993.82 L 2113.96,1996.73 L 2111.80,2313.15 L 1638.41,2309.74 L 1638.57,2369.36 L 1402.42,2370.43 L 1402.86,2308.05 L 913.25,2304.52 L 921.14,1983.86 L 1782.78,1993.15 L 1785.34,1818.91 Z" />
    <path class="building" d="M 1233.29,3176.04 L 1233.24,3086.16 L 1689.31,3086.09 L 1689.85,3178.73 L 2105.12,3181.86 L 2100.21,3742.07 L 811.22,3734.26 L 816.44,3173.49 L 1233.29,3176.04 Z" />
    <path class="building" d="M 4422.39,3825.20 L 4557.45,3823.98 L 4558.56,3948.97 L 4423.51,3950.19 L 4422.39,3825.20 Z" />
    <path class="building" d="M 5454.09,3024.68 L 5470.25,3024.58 L 5470.20,3032.77 L 5776.10,3034.35 L 5777.47,2956.96 L 5982.23,2956.10 L 5981.83,3035.41 L 6304.16,3037.07 L 6307.16,3777.27 L 6169.76,3776.65 L 6170.26,3825.65 L 5997.21,3824.78 L 5999.79,3339.48 L 5451.60,3336.55 L 5454.09,3024.68 Z" />
    <path class="building" d="M 810.23,4162.32 L 2094.03,4174.33 L 2089.09,4719.68 L 2050.10,4719.24 L 2050.20,4746.64 L 1713.11,4742.66 L 1713.39,4715.41 L 805.90,4705.09 L 810.23,4162.32 Z" />
    <path class="building" d="M 5154.02,4923.99 L 5174.31,4923.63 L 5174.75,4823.71 L 5156.69,4823.06 L 5158.73,4730.00 L 5153.87,4730.05 L 5153.30,4532.71 L 4982.76,4534.29 L 4982.12,4520.32 L 4753.21,4517.98 L 4752.95,4206.61 L 5867.58,4215.65 L 5865.18,4622.01 L 5896.39,4622.08 L 5894.82,4763.49 L 6306.89,4767.17 L 6301.07,5688.40 L 5887.43,5691.03 L 5886.89,5832.41 L 5854.54,5832.37 L 5853.47,6070.58 L 5399.78,6064.30 L 5405.55,5280.53 L 5376.56,5280.37 L 5376.79,5215.40 L 5151.84,5213.08 L 5151.97,5219.13 L 5154.02,4923.99 Z" />
    <path class="building" d="M 3393.95,5787.13 L 3442.50,5787.21 L 3442.68,5774.53 L 3630.52,5775.89 L 3631.48,5739.98 L 4112.97,5745.69 L 4113.00,5779.38 L 4284.12,5780.62 L 4284.41,5744.13 L 4286.78,5744.18 L 4286.73,5683.26 L 4511.51,5688.82 L 4511.10,5748.44 L 4600.29,5750.13 L 4600.37,5781.26 L 4984.14,5785.27 L 4983.80,5976.74 L 5219.32,5978.53 L 5219.88,6039.07 L 5265.74,6038.84 L 5260.63,6205.34 L 5217.18,6206.06 L 5217.99,6267.47 L 5167.99,6267.69 L 5166.59,6358.65 L 4403.43,6352.99 L 4402.67,6219.38 L 4187.82,6220.82 L 4189.74,6082.55 L 3392.66,6074.33 L 3392.93,6015.46 L 3346.48,6015.69 L 3345.67,5846.07 L 3393.69,5845.84 L 3393.95,5787.13 Z" />
    <path class="building" d="M 3480.58,1049.19 L 3478.99,999.72 L 3622.50,1000.51 L 3623.18,1050.84 L 3766.99,1052.51 L 3767.46,1154.80 L 3876.62,1155.69 L 3876.12,1302.54 L 4088.23,1299.59 L 4089.53,1365.74 L 4257.77,1366.48 L 4254.19,1531.73 L 3773.89,1529.93 L 3775.24,1614.55 L 3768.91,1632.60 L 3503.68,1632.43 L 3508.43,1214.67 L 3463.89,1214.91 L 3467.11,1049.03 L 3480.58,1049.19 Z" />
    <path class="building" d="M 936.26,5355.33 L 938.67,5282.05 L 1124.06,5283.51 L 1124.24,5251.09 L 1291.35,5250.09 L 1307.39,5242.52 L 1325.18,5238.63 L 1356.16,5233.68 L 1377.43,5232.40 L 1405.24,5235.72 L 1428.02,5240.86 L 1440.65,5244.93 L 1460.13,5252.19 L 1607.57,5253.53 L 1607.60,5288.52 L 1776.51,5290.71 L 1776.60,5240.34 L 2103.44,5244.81 L 2103.50,5356.82 L 2205.45,5356.56 L 2205.38,5378.57 L 2282.83,5379.22 L 2285.51,5565.09 L 2894.09,5569.40 L 2893.37,5633.72 L 2936.68,5633.51 L 2937.52,5803.75 L 2846.36,5804.20 L 2846.34,5953.33 L 2559.91,5955.61 L 2546.09,5965.10 L 2519.95,5972.97 L 2488.77,5982.33 L 2463.81,5984.39 L 2436.80,5986.16 L 2402.61,5984.38 L 2377.54,5982.72 L 2340.87,5977.26 L 2314.70,5972.21 L 2285.31,5960.47 L 2259.99,5947.24 L 1985.67,5944.67 L 1985.29,5908.44 L 1769.65,5909.19 L 1773.26,5665.81 L 1597.93,5664.92 L 1599.05,5851.91 L 1024.38,5845.83 L 1022.48,5808.99 L 1001.29,5809.19 L 1000.42,5661.87 L 882.09,5661.27 L 883.76,5439.25 L 856.33,5438.30 L 859.12,5355.29 L 936.26,5355.33 Z" />
    <path class="building" d="M 13529.99,6560.54 L 14941.59,6571.40 L 14932.04,7144.65 L 14992.06,7145.75 L 14993.21,7490.04 L 14952.13,7489.30 L 14951.20,7527.87 L 13628.49,7517.89 L 13629.06,7497.74 L 13464.17,7496.13 L 13468.50,7115.25 L 13528.85,7116.51 L 13530.83,6851.87 L 13480.99,6851.93 L 13479.73,6621.87 L 13530.11,6622.39 L 13529.99,6560.54 Z" />
    <path class="building" d="M 5093.05,7797.46 L 5095.59,7780.54 L 6087.61,7941.33 L 6022.66,8306.95 L 5960.86,8299.45 L 5951.07,8349.55 L 4941.17,8184.55 L 4984.12,7921.91 L 5034.25,7929.51 L 5057.02,7792.95 L 5093.05,7797.46 Z" />
    <path class="building" d="M 924.06,1000.40 L 1568.36,1012.99 L 1566.57,922.99 L 1880.10,928.66 L 1881.99,1019.12 L 2136.51,1024.09 L 2121.00,1825.46 L 908.59,1801.77 L 924.06,1000.40 Z" />
    <path class="building" d="M 3553.73,1653.86 L 4853.30,1652.82 L 4852.16,1787.86 L 4844.51,1787.79 L 4843.51,1956.47 L 4850.75,1956.53 L 4849.40,2118.29 L 4411.37,2114.16 L 4411.76,2160.24 L 4465.88,2160.87 L 4465.14,2276.87 L 4231.13,2277.71 L 4231.03,2158.16 L 4287.83,2158.82 L 4287.44,2113.00 L 3550.76,2106.07 L 3553.73,1653.86 Z" />
    <path class="building" d="M 2268.76,1003.93 L 2280.78,984.64 L 2301.22,961.02 L 2328.14,932.78 L 2376.93,892.39 L 2432.02,852.59 L 2456.33,836.30 L 2492.30,816.65 L 2492.65,812.32 L 2497.05,801.30 L 2505.95,790.96 L 2517.92,784.39 L 2534.43,781.93 L 2543.82,782.04 L 2553.79,783.27 L 2558.23,785.09 L 2561.34,783.57 L 2614.81,766.10 L 2654.80,754.95 L 2736.40,738.94 L 2774.76,736.02 L 2819.06,734.40 L 2864.17,735.02 L 2912.73,739.61 L 2955.40,745.85 L 2999.31,756.53 L 3064.54,776.64 L 3111.23,795.03 L 3147.21,812.60 L 3190.74,836.66 L 3245.03,874.91 L 3335.46,950.82 L 3362.11,979.42 L 3379.06,1004.60 L 3316.60,1050.11 L 3330.09,1064.69 L 3312.34,1077.80 L 3355.45,1126.80 L 3354.12,1319.70 L 3355.49,1799.51 L 2657.61,1799.22 L 2649.90,2029.27 L 3171.26,2031.80 L 3172.51,1971.58 L 3282.84,1972.96 L 3284.07,2032.35 L 3345.52,2032.65 L 3344.64,2341.85 L 3195.08,2340.34 L 3194.82,2358.50 L 3161.99,2359.41 L 3162.40,2340.50 L 2293.87,2340.13 L 2291.91,1914.68 L 2445.18,1915.40 L 2446.50,1799.14 L 2286.94,1799.08 L 2288.75,1126.37 L 2343.08,1060.46 L 2268.76,1003.93 Z" />
    <path class="building" d="M 2375.15,3011.39 L 2703.50,3012.59 L 2706.21,2927.10 L 2908.80,2929.26 L 2907.77,3013.34 L 3224.19,3014.50 L 3221.87,3314.69 L 2675.53,3316.31 L 2672.14,3806.07 L 2611.01,3805.78 L 2611.50,3752.93 L 2369.52,3750.98 L 2375.15,3011.39 Z" />
    <path class="building" d="M 3481.73,3013.15 L 4216.24,3018.45 L 4216.72,2932.76 L 4466.90,2931.38 L 4468.50,3020.27 L 5200.00,3025.54 L 5196.12,3341.16 L 4532.93,3336.21 L 4533.28,3456.98 L 4146.26,3455.47 L 4145.86,3333.24 L 3480.74,3325.73 L 3481.73,3013.15 Z" />
    <path class="building" d="M 2359.65,4017.52 L 2682.41,4014.00 L 2683.31,4054.59 L 2674.47,4054.84 L 2667.93,4437.03 L 2763.04,4437.67 L 2761.52,4667.51 L 2664.01,4666.86 L 2654.87,5374.86 L 2660.54,5374.70 L 2659.91,5389.96 L 2344.25,5388.14 L 2359.65,4017.52 Z" />
    <path class="building" d="M 3502.33,4517.98 L 3587.32,4518.98 L 3587.05,4474.73 L 3922.02,4476.01 L 3922.52,4509.52 L 4982.12,4520.32 L 4982.76,4534.29 L 5153.30,4532.71 L 5153.87,4730.05 L 5158.73,4730.00 L 5156.69,4823.06 L 5174.75,4823.71 L 5174.31,4923.63 L 5154.02,4923.99 L 5151.97,5219.13 L 5071.20,5219.60 L 5070.35,5272.40 L 4665.04,5270.50 L 4665.31,5225.67 L 3579.55,5215.95 L 3579.14,5204.15 L 3499.71,5204.74 L 3500.84,4914.76 L 3479.18,4914.22 L 3480.73,4807.81 L 3501.94,4807.89 L 3502.33,4517.98 Z" />
    <path class="building" d="M 11448.31,2608.09 L 11443.96,2519.88 L 11936.57,2495.70 L 11937.54,2522.91 L 11969.51,2521.23 L 11973.77,2620.44 L 11941.10,2622.40 L 11943.56,2691.25 L 12023.28,2687.38 L 12021.53,2652.29 L 12212.21,2643.62 L 12214.73,2678.07 L 12292.75,2675.69 L 12289.42,2607.07 L 12255.82,2608.91 L 12251.93,2505.72 L 12284.43,2504.26 L 12283.18,2478.69 L 13428.92,2422.45 L 13435.62,2613.62 L 13468.77,2612.12 L 13467.35,2556.10 L 13646.50,2547.86 L 13649.47,2603.90 L 13684.37,2602.32 L 13671.86,2410.52 L 14152.96,2386.91 L 14170.11,2736.81 L 13904.32,2750.00 L 13914.52,2942.80 L 13340.66,2974.61 L 13352.87,3252.74 L 12426.20,3299.52 L 12409.53,3017.41 L 11743.24,3054.12 L 11741.45,3028.15 L 11711.32,3029.36 L 11704.20,2926.92 L 11734.35,2925.31 L 11729.77,2858.79 L 11461.38,2873.15 L 11457.02,2784.77 L 11415.95,2786.12 L 11410.15,2609.07 L 11448.31,2608.09 Z" />
  </g>
  <g id="gis_room_AM_14F">
    <path class="room" d="M 5671.67,8101.96 L 5688.62,8002.51 L 5700.88,8004.63 L 5699.13,8014.90 L 5728.50,8019.96 L 5730.25,8009.69 L 5764.72,8015.63 L 5762.97,8025.90 L 5768.45,8026.84 L 5753.24,8116.02 L 5671.67,8101.96 Z" />
    <text x="5720.06" y="8059.27" class="label">郭宏杉老師</text>
    <path class="room" d="M 5809.69,8522.78 L 5836.59,8365.00 L 5881.28,8372.70 L 5883.68,8358.58 L 5911.14,8363.31 L 5906.65,8389.63 L 5913.67,8390.84 L 5888.85,8536.42 L 5809.69,8522.78 Z" />
    <text x="5861.68" y="8447.50" class="label">乙梯</text>
    <path class="room" d="M 5421.55,8058.85 L 5436.75,7969.68 L 5447.60,7971.55 L 5449.35,7961.28 L 5471.06,7965.02 L 5469.31,7975.29 L 5496.76,7980.02 L 5493.59,7998.63 L 5520.92,8003.35 L 5508.89,8073.91 L 5421.55,8058.85 Z" />
    <text x="5471.24" y="8017.59" class="label">陳春山老師</text>
    <path class="room" d="M 5394.41,8218.04 L 5414.11,8102.50 L 5549.46,8125.83 L 5529.76,8241.37 L 5394.41,8218.04 Z" />
    <text x="5471.94" y="8171.94" class="label">智權協商會議室</text>
    <path class="room" d="M 5079.82,8340.29 L 5094.82,8252.35 L 5118.43,8256.43 L 5123.36,8227.54 L 5215.93,8243.49 L 5210.02,8278.16 L 5190.87,8274.85 L 5176.86,8357.02 L 5079.82,8340.29 Z" />
    <text x="5147.88" y="8292.28" class="label">女廁</text>
    <path class="room" d="M 5590.10,8087.90 L 5605.30,7998.72 L 5613.58,8000.15 L 5615.34,7989.88 L 5649.81,7995.82 L 5648.06,8006.09 L 5677.42,8011.16 L 5679.17,8000.88 L 5688.62,8002.51 L 5671.67,8101.96 L 5590.10,8087.90 Z" />
    <text x="5639.36" y="8045.92" class="label">李傑清老師</text>
    <path class="room" d="M 5837.18,8130.49 L 5849.21,8059.92 L 5863.85,8062.45 L 5868.78,8033.56 L 5879.63,8035.43 L 5877.88,8045.70 L 5907.25,8050.77 L 5909.00,8040.50 L 5930.70,8044.24 L 5928.95,8054.51 L 5937.25,8055.94 L 5922.05,8145.11 L 5837.18,8130.49 Z" />
    <text x="5887.22" y="8089.34" class="label">蘇倚德老師</text>
    <path class="room" d="M 5262.73,8300.46 L 5269.10,8263.12 L 5306.62,8269.59 L 5304.72,8280.76 L 5399.10,8297.03 L 5391.72,8340.36 L 5268.74,8319.16 L 5271.67,8302.00 L 5262.73,8300.46 Z" />
    <text x="5330.92" y="8301.74" class="label">儲藏室1</text>
    <path class="room" d="M 4970.68,8502.53 L 5000.66,8326.65 L 5158.98,8353.94 L 5153.08,8388.60 L 5073.91,8374.96 L 5051.92,8503.98 L 5050.01,8503.65 L 5047.92,8515.84 L 4970.68,8502.53 Z" />
    <text x="5064.83" y="8421.25" class="label">甲梯</text>
    <path class="room" d="M 5061.88,8445.56 L 5073.91,8374.96 L 5153.08,8388.60 L 5141.04,8459.21 L 5061.88,8445.56 Z" />
    <text x="5107.48" y="8417.08" class="label">緊急升降機L1兼用行動不便電梯</text>
    <path class="room" d="M 5753.24,8116.02 L 5768.45,8026.84 L 5792.33,8030.96 L 5794.09,8020.69 L 5815.79,8024.43 L 5814.04,8034.70 L 5841.49,8039.43 L 5838.32,8058.05 L 5849.21,8059.92 L 5837.18,8130.49 L 5753.24,8116.02 Z" />
    <text x="5801.23" y="8075.59" class="label">陳志遠老師</text>
    <path class="room" d="M 5664.28,8264.55 L 5683.97,8149.01 L 5914.61,8188.76 L 5894.91,8304.30 L 5664.28,8264.55 Z M 5895.01,8303.71 L 5902.89,8257.49 L 5914.61,8188.76 L 5902.89,8257.49 L 5895.01,8303.71 Z" />
    <text x="5789.44" y="8226.66" class="label">問題導向學習教室</text>
    <path class="room" d="M 5883.68,8358.58 L 5892.99,8303.97 L 5894.91,8304.30 L 5895.01,8303.71 L 5944.17,8312.18 L 5935.08,8365.46 L 5911.47,8361.39 L 5911.14,8363.31 L 5883.68,8358.58 Z" />
    <text x="5913.93" y="8334.58" class="label">陽臺</text>
    <path class="room" d="M 5213.85,8186.31 L 5226.32,8113.13 L 5274.20,8121.39 L 5261.73,8194.56 L 5213.85,8186.31 Z" />
    <text x="5244.02" y="8153.85" class="label">電力/弱電</text>
    <path class="room" d="M 5261.63,8195.16 L 5274.20,8121.39 L 5273.56,8121.28 L 5288.12,8035.86 L 5475.18,8068.09 L 5467.74,8111.74 L 5414.11,8102.50 L 5394.41,8218.04 L 5261.63,8195.16 Z" />
    <text x="5368.40" y="8126.95" class="label">智慧財產權研究所辦公室</text>
    <path class="room" d="M 5217.21,8567.49 L 5225.60,8518.27 L 5239.01,8520.58 L 5270.23,8337.45 L 5265.76,8336.67 L 5268.74,8319.16 L 5391.72,8340.36 L 5401.01,8285.86 L 5443.38,8293.16 L 5440.18,8311.88 L 5442.10,8312.21 L 5398.33,8568.97 L 5396.41,8568.64 L 5393.24,8587.25 L 5365.79,8582.52 L 5364.04,8592.79 L 5329.57,8586.85 L 5331.32,8576.58 L 5301.95,8571.52 L 5300.20,8581.79 L 5278.49,8578.05 L 5280.25,8567.78 L 5250.88,8562.72 L 5249.13,8572.99 L 5217.21,8567.49 Z" />
    <text x="5330.29" y="8439.32" class="label">智慧講堂</text>
    <path class="room" d="M 5051.92,8503.98 L 5061.88,8445.56 L 5141.04,8459.21 L 5130.76,8519.49 L 5075.22,8509.92 L 5075.54,8508.05 L 5051.92,8503.98 Z" />
    <text x="5096.48" y="8482.53" class="label">行動不便電梯L2</text>
    <path class="room" d="M 5109.15,8168.27 L 5148.21,7939.11 L 5171.83,7943.18 L 5174.79,7925.85 L 5253.95,7939.49 L 5254.17,7938.21 L 5268.85,7940.74 L 5270.60,7930.47 L 5305.08,7936.41 L 5273.56,8121.28 L 5226.32,8113.13 L 5213.85,8186.31 L 5109.15,8168.27 Z" />
    <text x="5207.11" y="8056.08" class="label">陽臺</text>
    <path class="room" d="M 5529.76,8241.37 L 5538.30,8191.30 L 5619.20,8205.24 L 5610.66,8255.31 L 5529.76,8241.37 Z" />
    <text x="5574.48" y="8223.31" class="label">資訊室</text>
    <path class="room" d="M 5864.00,8180.04 L 5871.44,8136.39 L 5922.05,8145.11 L 5914.61,8188.76 L 5864.00,8180.04 Z" />
    <text x="5893.03" y="8162.58" class="label">儲藏室2</text>
    <path class="room" d="M 5508.89,8073.91 L 5520.92,8003.35 L 5519.12,8003.03 L 5524.05,7974.15 L 5534.90,7976.02 L 5533.15,7986.29 L 5562.51,7991.35 L 5564.26,7981.08 L 5585.97,7984.82 L 5584.22,7995.09 L 5605.30,7998.72 L 5590.10,8087.90 L 5508.89,8073.91 Z" />
    <text x="5557.10" y="8031.03" class="label">賴名亮老師</text>
    <path class="room" d="M 5398.33,8568.97 L 5442.10,8312.21 L 5465.72,8316.28 L 5466.05,8314.35 L 5785.25,8369.37 L 5784.92,8371.29 L 5810.45,8375.69 L 5815.38,8346.81 L 5839.00,8350.88 L 5807.29,8536.90 L 5903.05,8553.40 L 5885.62,8655.59 L 5862.01,8651.52 L 5859.27,8667.57 L 5825.43,8661.74 L 5823.68,8672.01 L 5789.21,8666.07 L 5790.96,8655.80 L 5759.68,8650.41 L 5762.42,8634.36 L 5744.54,8631.28 L 5741.80,8647.32 L 5710.52,8641.94 L 5708.77,8652.20 L 5674.30,8646.26 L 5676.05,8635.99 L 5646.68,8630.93 L 5644.93,8641.20 L 5623.23,8637.46 L 5624.98,8627.19 L 5595.61,8622.13 L 5593.86,8632.40 L 5559.39,8626.46 L 5561.14,8616.19 L 5531.77,8611.13 L 5530.02,8621.40 L 5508.32,8617.65 L 5510.07,8607.39 L 5480.70,8602.32 L 5478.95,8612.59 L 5444.48,8606.65 L 5446.23,8596.38 L 5418.78,8591.65 L 5421.95,8573.04 L 5398.33,8568.97 Z" />
    <text x="5650.69" y="8492.11" class="label">露臺</text>
    <path class="room" d="M 5288.12,8035.86 L 5303.33,7946.68 L 5332.69,7951.74 L 5334.44,7941.47 L 5356.15,7945.21 L 5354.40,7955.48 L 5383.76,7960.54 L 5385.51,7950.27 L 5419.99,7956.22 L 5418.24,7966.48 L 5436.75,7969.68 L 5421.55,8058.85 L 5288.12,8035.86 Z" />
    <text x="5362.44" y="8000.16" class="label">所長辦公室</text>
  </g>
  <g id="gis_room_HR_14F">
    <path class="room" d="M 2818.93,1770.32 L 2819.59,1600.33 L 3171.30,1601.73 L 3170.63,1771.71 L 3168.69,1771.70 L 3168.59,1797.75 L 3013.14,1797.14 L 3013.24,1771.09 L 2987.33,1770.98 L 2987.23,1797.03 L 2831.78,1796.42 L 2831.88,1770.37 L 2818.93,1770.32 Z" />
    <text x="2995.11" y="1699.04" class="label">無線與寬頻網路實驗室/軟體安全實驗室</text>
    <path class="room" d="M 3222.98,1470.59 L 3223.08,1446.62 L 3247.04,1446.72 L 3246.95,1470.68 L 3222.98,1470.59 Z" />
    <text x="3235.01" y="1458.65" class="label">撒水</text>
    <path class="room" d="M 3222.89,1494.95 L 3222.98,1470.59 L 3246.95,1470.68 L 3246.85,1495.04 L 3222.89,1494.95 Z" />
    <text x="3234.92" y="1482.81" class="label">電力</text>
    <path class="room" d="M 2291.41,1507.71 L 2292.03,1351.41 L 2317.94,1351.51 L 2318.04,1325.46 L 2393.82,1325.76 L 2393.01,1532.21 L 2317.23,1531.91 L 2317.32,1507.82 L 2291.41,1507.71 Z" />
    <text x="2342.62" y="1428.84" class="label">特別安全梯</text>
    <path class="room" d="M 3246.69,1535.60 L 3247.50,1329.15 L 3323.29,1329.46 L 3323.19,1355.50 L 3349.09,1355.60 L 3348.48,1511.91 L 3322.57,1511.80 L 3322.48,1535.90 L 3246.69,1535.60 Z" />
    <text x="3297.89" y="1432.53" class="label">特別安全梯</text>
    <path class="room" d="M 2468.48,1447.20 L 2468.65,1404.21 L 2627.99,1404.84 L 2627.82,1447.83 L 2468.48,1447.20 Z" />
    <text x="2548.23" y="1426.02" class="label">陽台</text>
    <path class="room" d="M 3170.63,1771.71 L 3170.88,1707.89 L 3242.13,1708.17 L 3241.78,1798.04 L 3194.50,1797.86 L 3194.60,1771.81 L 3170.63,1771.71 Z" />
    <text x="3206.38" y="1752.97" class="label">無障礙廁所</text>
    <path class="room" d="M 3259.14,1664.60 L 3259.39,1602.08 L 3332.45,1602.37 L 3332.36,1624.51 L 3348.04,1624.58 L 3347.88,1664.95 L 3259.14,1664.60 Z" />
    <text x="3303.59" y="1633.52" class="label">電梯</text>
    <path class="room" d="M 2290.83,1656.21 L 2291.07,1596.29 L 2315.03,1596.38 L 2315.03,1598.33 L 2379.80,1598.59 L 2379.57,1656.57 L 2290.83,1656.21 Z" />
    <text x="2335.32" y="1626.43" class="label">電梯</text>
    <path class="room" d="M 2290.39,1768.22 L 2290.61,1712.86 L 2379.35,1713.21 L 2379.12,1770.53 L 2316.29,1770.29 L 2316.30,1768.32 L 2290.39,1768.22 Z" />
    <text x="2334.87" y="1741.70" class="label">電梯</text>
    <path class="room" d="M 2290.61,1712.86 L 2290.83,1656.21 L 2379.57,1656.57 L 2379.35,1713.21 L 2290.61,1712.86 Z" />
    <text x="2335.09" y="1684.71" class="label">電梯</text>
    <path class="room" d="M 2316.20,1794.37 L 2316.29,1770.29 L 2392.08,1770.59 L 2391.98,1794.67 L 2316.20,1794.37 Z" />
    <text x="2354.14" y="1782.48" class="label">封閉空間</text>
    <path class="room" d="M 3241.78,1798.04 L 3242.13,1708.17 L 3266.74,1708.27 L 3266.91,1664.63 L 3347.88,1664.95 L 3347.46,1772.41 L 3321.55,1772.31 L 3321.45,1798.36 L 3241.78,1798.04 Z" />
    <text x="3294.83" y="1731.50" class="label">男廁</text>
    <path class="room" d="M 2467.22,1768.92 L 2467.89,1598.94 L 2819.59,1600.33 L 2818.93,1770.32 L 2805.97,1770.26 L 2805.87,1796.32 L 2650.42,1795.70 L 2650.52,1769.65 L 2624.61,1769.55 L 2624.52,1793.64 L 2469.07,1793.03 L 2469.16,1768.93 L 2467.22,1768.92 Z" />
    <text x="2643.41" y="1697.63" class="label">機器人視覺實驗室/音訊信號處理實驗室</text>
    <path class="room" d="M 3001.31,1510.53 L 3001.92,1354.23 L 3014.87,1354.28 L 3014.98,1328.23 L 3170.43,1328.84 L 3170.32,1354.89 L 3183.28,1354.94 L 3182.67,1511.25 L 3169.71,1511.20 L 3169.62,1535.29 L 3014.17,1534.68 L 3014.26,1510.58 L 3001.31,1510.53 Z" />
    <text x="3092.29" y="1431.76" class="label">網路資訊檢索實驗室</text>
    <path class="room" d="M 2627.58,1509.05 L 2628.19,1352.74 L 2652.16,1352.84 L 2652.26,1326.79 L 2807.71,1327.40 L 2807.61,1353.46 L 2833.52,1353.56 L 2833.62,1327.51 L 2989.07,1328.12 L 2988.97,1354.17 L 3001.92,1354.23 L 3001.31,1510.53 L 2988.35,1510.48 L 2988.26,1534.57 L 2832.81,1533.96 L 2832.90,1509.86 L 2806.99,1509.76 L 2806.90,1533.86 L 2651.45,1533.24 L 2651.54,1509.14 L 2627.58,1509.05 Z" />
    <text x="2814.75" y="1430.68" class="label">互動媒體實驗室/計算機圖學實驗室</text>
  </g>
</svg>