<svg width="16000" height="9099" viewBox="0 0 16000 9099" xmlns="http://www.w3.org/2000/svg" xmlns:xlink="http://www.w3.org/1999/xlink">

    <style>
        .building { fill: #f0f4f8; stroke: #d1dce5; stroke-width: 2; }
        .room     { fill: #ffffff; fill-opacity: 0.8; stroke: #bcccdc; stroke-width: 1; }
        .label    { font-family: "Noto Sans TC", sans-serif; font-size: 24px; fill: #334e68; font-weight: 500; text-anchor: middle; dominant-baseline: middle; }
    </style>
      <g id="gis_gis_building_geom">
    <path class="building" d="M 2949.26,4010.03 L 4140.85,4021.56 L 4142.10,4292.67 L 4130.90,4292.64 L 4130.40,4356.44 L 3226.66,4355.84 L 3226.31,4812.55 L 3401.68,4811.80 L 3401.95,5141.81 L 2942.28,5141.31 L 2949.26,4010.03 Z" />
    <path class="building" d="M 7088.12,2560.89 L 7700.72,2562.04 L 7700.87,2481.66 L 8148.51,2483.00 L 8147.15,2562.88 L 8693.32,2563.92 L 8721.63,2695.28 L 8721.63,2695.28 L 8715.57,3280.48 L 8690.90,3280.61 L 8690.48,3403.55 L 7085.32,3389.98 L 7085.31,3204.63 L 7000.35,3203.97 L 7003.43,2738.84 L 7087.35,2738.26 L 7088.12,2560.89 Z" />
    <path class="building" d="M 4843.51,1956.47 L 4844.51,1787.79 L 4906.35,1787.49 L 4905.24,1712.44 L 5766.54,1719.44 L 5767.05,1759.83 L 6027.80,1762.57 L 6041.22,1778.35 L 6040.91,2113.44 L 5920.93,2113.62 L 5921.58,2180.69 L 4855.22,2175.20 L 4857.61,1956.59 L 4843.51,1956.47 Z" />
    <path class="building" d="M 3188.76,5839.04 L 3184.44,6132.85 L 3009.51,6131.08 L 3010.12,5838.90 L 3188.76,5839.04 Z" />
    <path class="building" d="M 8161.26,3799.06 L 8661.34,3802.64 L 8661.72,3865.86 L 8759.20,3866.25 L 8755.51,3995.61 L 8806.86,3995.16 L 8806.05,4079.95 L 8850.04,4079.42 L 8848.57,4261.53 L 8807.12,4260.63 L 8806.31,4341.05 L 8464.87,4337.40 L 8462.68,4793.00 L 8947.00,4797.31 L 8944.64,5163.38 L 9070.07,5164.43 L 9068.88,5256.28 L 8943.78,5254.69 L 8940.58,5624.81 L 8458.26,5621.41 L 8453.24,6072.52 L 9133.83,6077.89 L 9126.51,6745.48 L 8044.27,6736.86 L 8045.15,6541.70 L 7946.95,6541.19 L 7947.74,6409.27 L 7850.08,6409.19 L 7850.29,6387.18 L 7663.94,6386.98 L 7662.42,6294.92 L 7365.94,6294.05 L 7367.40,6164.56 L 7219.73,6164.20 L 7220.56,6079.32 L 7176.49,6078.82 L 7179.52,5914.56 L 7222.17,5914.94 L 7222.98,5832.54 L 7863.48,5840.16 L 7863.88,5617.56 L 7754.27,5617.59 L 7754.43,5521.38 L 7739.08,5522.23 L 7740.67,5376.11 L 7755.56,5376.17 L 7756.55,5277.27 L 7785.97,5276.79 L 7786.18,5127.15 L 7757.98,5127.35 L 7758.14,5028.99 L 7743.59,5028.70 L 7745.39,4886.44 L 7759.72,4886.75 L 7760.11,4786.55 L 7849.88,4787.63 L 7849.21,4560.97 L 7233.65,4557.12 L 7234.22,4480.71 L 7180.57,4480.46 L 7181.34,4311.50 L 7235.49,4311.75 L 7236.10,4231.20 L 7381.06,4231.84 L 7382.58,4106.09 L 7678.18,4106.93 L 7679.62,4016.64 L 7870.79,4014.88 L 7870.93,3994.82 L 7966.89,3995.55 L 7968.35,3863.10 L 8160.60,3863.87 L 8161.26,3799.06 Z" />
    <path class="building" d="M 1785.34,1818.91 L 1846.80,1820.11 L 1846.08,1868.88 L 1915.10,1869.87 L 1914.84,1881.19 L 1956.32,1881.91 L 1956.29,1947.64 L 1913.30,1947.43 L 1912.91,1964.27 L 1844.69,1963.82 L 1844.25,1993.82 L 2113.96,1996.73 L 2111.80,2313.15 L 1638.41,2309.74 L 1638.57,2369.36 L 1402.42,2370.43 L 1402.86,2308.05 L 913.25,2304.52 L 921.14,1983.86 L 1782.78,1993.15 L 1785.34,1818.91 Z" />
    <path class="building" d="M 1233.29,3176.04 L 1233.24,3086.16 L 1689.31,3086.09 L 1689.85,3178.73 L 2105.12,3181.86 L 2100.21,3742.07 L 811.22,3734.26 L 816.44,3173.49 L 1233.29,3176.04 Z" />
    <path class="building" d="M 4422.39,3825.20 L 4557.45,3823.98 L 4558.56,3948.97 L 4423.51,3950.19 L 4422.39,3825.20 Z" />
    <path class="building" d="M 5454.09,3024.68 L 5470.25,3024.58 L 5470.20,3032.77 L 5776.10,3034.35 L 5777.47,2956.96 L 5982.23,2956.10 L 5981.83,3035.41 L 6304.16,3037.07 L 6307.16,3777.27 L 6169.76,3776.65 L 6170.26,3825.65 L 5997.21,3824.78 L 5999.79,3339.48 L 5451.60,3336.55 L 5454.09,3024.68 Z" />
    <path class="building" d="M 810.23,4162.32 L 2094.03,4174.33 L 2089.09,4719.68 L 2050.10,4719.24 L 2050.20,4746.64 L 1713.11,4742.66 L 1713.39,4715.41 L 805.90,4705.09 L 810.23,4162.32 Z" />
    <path class="building" d="M 5154.02,4923.99 L 5174.31,4923.63 L 5174.75,4823.71 L 5156.69,4823.06 L 5158.73,4730.00 L 5153.87,4730.05 L 5153.30,4532.71 L 4982.76,4534.29 L 4982.12,4520.32 L 4753.21,4517.98 L 4752.95,4206.61 L 5867.58,4215.65 L 5865.18,4622.01 L 5896.39,4622.08 L 5894.82,4763.49 L 6306.89,4767.17 L 6301.07,5688.40 L 5887.43,5691.03 L 5886.89,5832.41 L 5854.54,5832.37 L 5853.47,6070.58 L 5399.78,6064.30 L 5405.55,5280.53 L 5376.56,5280.37 L 5376.79,5215.40 L 5151.84,5213.08 L 5151.97,5219.13 L 5154.02,4923.99 Z" />
    <path class="building" d="M 3393.95,5787.13 L 3442.50,5787.21 L 3442.68,5774.53 L 3630.52,5775.89 L 3631.48,5739.98 L 4112.97,5745.69 L 4113.00,5779.38 L 4284.12,5780.62 L 4284.41,5744.13 L 4286.78,5744.18 L 4286.73,5683.26 L 4511.51,5688.82 L 4511.10,5748.44 L 4600.29,5750.13 L 4600.37,5781.26 L 4984.14,5785.27 L 4983.80,5976.74 L 5219.32,5978.53 L 5219.88,6039.07 L 5265.74,6038.84 L 5260.63,6205.34 L 5217.18,6206.06 L 5217.99,6267.47 L 5167.99,6267.69 L 5166.59,6358.65 L 4403.43,6352.99 L 4402.67,6219.38 L 4187.82,6220.82 L 4189.74,6082.55 L 3392.66,6074.33 L 3392.93,6015.46 L 3346.48,6015.69 L 3345.67,5846.07 L 3393.69,5845.84 L 3393.95,5787.13 Z" />
    <path class="building" d="M 3480.58,1049.19 L 3478.99,999.72 L 3622.50,1000.51 L 3623.18,1050.84 L 3766.99,1052.51 L 3767.46,1154.80 L 3876.62,1155.69 L 3876.12,1302.54 L 4088.23,1299.59 L 4089.53,1365.74 L 4257.77,1366.48 L 4254.19,1531.73 L 3773.89,1529.93 L 3775.24,1614.55 L 3768.91,1632.60 L 3503.68,1632.43 L 3508.43,1214.67 L 3463.89,1214.91 L 3467.11,1049.03 L 3480.58,1049.19 Z" />
    <path class="building" d="M 936.26,5355.33 L 938.67,5282.05 L 1124.06,5283.51 L 1124.24,5251.09 L 1291.35,5250.09 L 1307.39,5242.52 L 1325.18,5238.63 L 1356.16,5233.68 L 1377.43,5232.40 L 1405.24,5235.72 L 1428.02,5240.86 L 1440.65,5244.93 L 1460.13,5252.19 L 1607.57,5253.53 L 1607.60,5288.52 L 1776.51,5290.71 L 1776.60,5240.34 L 2103.44,5244.81 L 2103.50,5356.82 L 2205.45,5356.56 L 2205.38,5378.57 L 2282.83,5379.22 L 2285.51,5565.09 L 2894.09,5569.40 L 2893.37,5633.72 L 2936.68,5633.51 L 2937.52,5803.75 L 2846.36,5804.20 L 2846.34,5953.33 L 2559.91,5955.61 L 2546.09,5965.10 L 2519.95,5972.97 L 2488.77,5982.33 L 2463.81,5984.39 L 2436.80,5986.16 L 2402.61,5984.38 L 2377.54,5982.72 L 2340.87,5977.26 L 2314.70,5972.21 L 2285.31,5960.47 L 2259.99,5947.24 L 1985.67,5944.67 L 1985.29,5908.44 L 1769.65,5909.19 L 1773.26,5665.81 L 1597.93,5664.92 L 1599.05,5851.91 L 1024.38,5845.83 L 1022.48,5808.99 L 1001.29,5809.19 L 1000.42,5661.87 L 882.09,5661.27 L 883.76,5439.25 L 856.33,5438.30 L 859.12,5355.29 L 936.26,5355.33 Z" />
    <path class="building" d="M 13529.99,6560.54 L 14941.59,6571.40 L 14932.04,7144.65 L 14992.06,7145.75 L 14993.21,7490.04 L 14952.13,7489.30 L 14951.20,7527.87 L 13628.49,7517.89 L 13629.06,7497.74 L 13464.17,7496.13 L 13468.50,7115.25 L 13528.85,7116.51 L 13530.83,6851.87 L 13480.99,6851.93 L 13479.73,6621.87 L 13530.11,6622.39 L 13529.99,6560.54 Z" />
    <path class="building" d="M 5093.05,7797.46 L 5095.59,7780.54 L 6087.61,7941.33 L 6022.66,8306.95 L 5960.86,8299.45 L 5951.07,8349.55 L 4941.17,8184.55 L 4984.12,7921.91 L 5034.25,7929.51 L 5057.02,7792.95 L 5093.05,7797.46 Z" />
    <path class="building" d="M 924.06,1000.40 L 1568.36,1012.99 L 1566.57,922.99 L 1880.10,928.66 L 1881.99,1019.12 L 2136.51,1024.09 L 2121.00,1825.46 L 908.59,1801.77 L 924.06,1000.40 Z" />
    <path class="building" d="M 3553.73,1653.86 L 4853.30,1652.82 L 4852.16,1787.86 L 4844.51,1787.79 L 4843.51,1956.47 L 4850.75,1956.53 L 4849.40,2118.29 L 4411.37,2114.16 L 4411.76,2160.24 L 4465.88,2160.87 L 4465.14,2276.87 L 4231.13,2277.71 L 4231.03,2158.16 L 4287.83,2158.82 L 4287.44,2113.00 L 3550.76,2106.07 L 3553.73,1653.86 Z" />
    <path class="building" d="M 2268.76,1003.93 L 2280.78,984.64 L 2301.22,961.02 L 2328.14,932.78 L 2376.93,892.39 L 2432.02,852.59 L 2456.33,836.30 L 2492.30,816.65 L 2492.65,812.32 L 2497.05,801.30 L 2505.95,790.96 L 2517.92,784.39 L 2534.43,781.93 L 2543.82,782.04 L 2553.79,783.27 L 2558.23,785.09 L 2561.34,783.57 L 2614.81,766.10 L 2654.80,754.95 L 2736.40,738.94 L 2774.76,736.02 L 2819.06,734.40 L 2864.17,735.02 L 2912.73,739.61 L 2955.40,745.85 L 2999.31,756.53 L 3064.54,776.64 L 3111.23,795.03 L 3147.21,812.60 L 3190.74,836.66 L 3245.03,874.91 L 3335.46,950.82 L 3362.11,979.42 L 3379.06,1004.60 L 3316.60,1050.11 L 3330.09,1064.69 L 3312.34,1077.80 L 3355.45,1126.80 L 3354.12,1319.70 L 3355.49,1799.51 L 2657.61,1799.22 L 2649.90,2029.27 L 3171.26,2031.80 L 3172.51,1971.58 L 3282.84,1972.96 L 3284.07,2032.35 L 3345.52,2032.65 L 3344.64,2341.85 L 3195.08,2340.34 L 3194.82,2358.50 L 3161.99,2359.41 L 3162.40,2340.50 L 2293.87,2340.13 L 2291.91,1914.68 L 2445.18,1915.40 L 2446.50,1799.14 L 2286.94,1799.08 L 2288.75,1126.37 L 2343.08,1060.46 L 2268.76,1003.93 Z" />
    <path class="building" d="M 2375.15,3011.39 L 2703.50,3012.59 L 2706.21,2927.10 L 2908.80,2929.26 L 2907.77,3013.34 L 3224.19,3014.50 L 3221.87,3314.69 L 2675.53,3316.31 L 2672.14,3806.07 L 2611.01,3805.78 L 2611.50,3752.93 L 2369.52,3750.98 L 2375.15,3011.39 Z" />
    <path class="building" d="M 3481.73,3013.15 L 4216.24,3018.45 L 4216.72,2932.76 L 4466.90,2931.38 L 4468.50,3020.27 L 5200.00,3025.54 L 5196.12,3341.16 L 4532.93,3336.21 L 4533.28,3456.98 L 4146.26,3455.47 L 4145.86,3333.24 L 3480.74,3325.73 L 3481.73,3013.15 Z" />
    <path class="building" d="M 2359.65,4017.52 L 2682.41,4014.00 L 2683.31,4054.59 L 2674.47,4054.84 L 2667.93,4437.03 L 2763.04,4437.67 L 2761.52,4667.51 L 2664.01,4666.86 L 2654.87,5374.86 L 2660.54,5374.70 L 2659.91,5389.96 L 2344.25,5388.14 L 2359.65,4017.52 Z" />
    <path class="building" d="M 3502.33,4517.98 L 3587.32,4518.98 L 3587.05,4474.73 L 3922.02,4476.01 L 3922.52,4509.52 L 4982.12,4520.32 L 4982.76,4534.29 L 5153.30,4532.71 L 5153.87,4730.05 L 5158.73,4730.00 L 5156.69,4823.06 L 5174.75,4823.71 L 5174.31,4923.63 L 5154.02,4923.99 L 5151.97,5219.13 L 5071.20,5219.60 L 5070.35,5272.40 L 4665.04,5270.50 L 4665.31,5225.67 L 3579.55,5215.95 L 3579.14,5204.15 L 3499.71,5204.74 L 3500.84,4914.76 L 3479.18,4914.22 L 3480.73,4807.81 L 3501.94,4807.89 L 3502.33,4517.98 Z" />
    <path class="building" d="M 11448.31,2608.09 L 11443.96,2519.88 L 11936.57,2495.70 L 11937.54,2522.91 L 11969.51,2521.23 L 11973.77,2620.44 L 11941.10,2622.40 L 11943.56,2691.25 L 12023.28,2687.38 L 12021.53,2652.29 L 12212.21,2643.62 L 12214.73,2678.07 L 12292.75,2675.69 L 12289.42,2607.07 L 12255.82,2608.91 L 12251.93,2505.72 L 12284.43,2504.26 L 12283.18,2478.69 L 13428.92,2422.45 L 13435.62,2613.62 L 13468.77,2612.12 L 13467.35,2556.10 L 13646.50,2547.86 L 13649.47,2603.90 L 13684.37,2602.32 L 13671.86,2410.52 L 14152.96,2386.91 L 14170.11,2736.81 L 13904.32,2750.00 L 13914.52,2942.80 L 13340.66,2974.61 L 13352.87,3252.74 L 12426.20,3299.52 L 12409.53,3017.41 L 11743.24,3054.12 L 11741.45,3028.15 L 11711.32,3029.36 L 11704.20,2926.92 L 11734.35,2925.31 L 11729.77,2858.79 L 11461.38,2873.15 L 11457.02,2784.77 L 11415.95,2786.12 L 11410.15,2609.07 L 11448.31,2608.09 Z" />
  </g>
  <g id="gis_room_A4T_RF">
    <path class="room" d="M 2654.17,4656.45 L 2654.99,4448.05 L 2743.08,4448.40 L 2742.26,4656.80 L 2654.17,4656.45 Z" />
    <text x="2698.63" y="4552.43" class="label">樓梯</text>
  </g>
  <g id="gis_room_A5T_R1">
    <path class="room" d="M 4134.42,1531.36 L 4135.29,1308.99 L 4333.35,1309.78 L 4332.48,1532.15 L 4134.42,1531.36 Z M 4254.24,1424.09 L 4332.90,1424.40 L 4333.35,1309.78 L 4254.69,1309.47 L 4254.24,1424.09 Z" />
    <text x="4233.88" y="1420.57" class="label">晒衣場</text>
    <path class="room" d="M 4254.24,1424.09 L 4254.69,1309.47 L 4333.35,1309.78 L 4332.90,1424.40 L 4254.24,1424.09 Z" />
    <text x="4293.79" y="1366.93" class="label">樓梯</text>
    <path class="room" d="M 3565.52,1154.83 L 3566.16,989.80 L 3776.01,990.63 L 3775.36,1155.67 L 3565.52,1154.83 Z M 3565.78,1087.80 L 3661.62,1088.18 L 3662.01,990.18 L 3566.16,989.80 L 3565.78,1087.80 Z" />
    <path class="room" d="M 3565.52,1154.83 L 3565.52,1154.80 L 3775.36,1155.63 L 3775.36,1155.67 L 3565.52,1154.83 Z" />
    <text x="3670.76" y="1072.73" class="label">樓梯</text>
  </g>
  <g id="gis_room_A5T_R2">
  </g>
  <g id="gis_room_AD_RF">
    <path class="room" d="M 5797.81,5619.50 L 5798.30,5495.05 L 5815.34,5495.11 L 5815.41,5475.97 L 5798.38,5475.90 L 5798.67,5400.55 L 6023.56,5401.44 L 6023.26,5476.79 L 6006.23,5476.73 L 6006.15,5496.10 L 6023.19,5495.94 L 6022.69,5620.40 L 5797.81,5619.50 Z" />
    <text x="5910.68" y="5510.47" class="label">平台</text>
    <path class="room" d="M 5799.99,5065.02 L 5800.42,4957.04 L 5818.68,4957.12 L 5818.77,4935.50 L 5800.50,4935.42 L 5800.93,4825.36 L 6025.82,4826.25 L 6025.39,4936.31 L 6007.12,4936.24 L 6007.03,4957.86 L 6025.30,4957.94 L 6024.88,5065.92 L 5799.99,5065.02 Z" />
    <text x="5912.91" y="4945.64" class="label">平台</text>
    <path class="room" d="M 5750.65,5222.59 L 5750.71,5207.49 L 5751.71,5192.42 L 5753.64,5177.44 L 5756.50,5162.62 L 5760.27,5148.00 L 5764.94,5133.65 L 5770.49,5119.62 L 5776.90,5105.96 L 5777.06,5064.93 L 6047.81,5066.01 L 6047.64,5107.04 L 6053.95,5120.74 L 6059.39,5134.82 L 6063.95,5149.21 L 6067.61,5163.86 L 6070.34,5178.70 L 6072.16,5193.70 L 6073.04,5208.77 L 6072.97,5223.87 L 6071.98,5238.94 L 6070.05,5253.92 L 6067.19,5268.74 L 6063.42,5283.36 L 6058.75,5297.71 L 6053.20,5311.75 L 6046.78,5325.40 L 6046.49,5401.53 L 5775.75,5400.46 L 5776.04,5324.33 L 5769.74,5310.62 L 5764.30,5296.54 L 5759.74,5282.16 L 5756.08,5267.51 L 5753.34,5252.66 L 5751.53,5237.67 L 5750.65,5222.59 Z M 5796.51,5127.66 L 5818.01,5127.74 L 5818.10,5106.12 L 5796.59,5106.04 L 5796.51,5127.66 Z M 5796.97,5324.41 L 5816.01,5324.48 L 5816.08,5305.34 L 5797.04,5305.26 L 5796.97,5324.41 Z M 6006.82,5325.24 L 6025.86,5325.32 L 6025.94,5306.17 L 6006.90,5306.10 L 6006.82,5325.24 Z M 6007.60,5127.26 L 6026.64,5127.34 L 6026.72,5108.19 L 6007.68,5108.11 L 6007.60,5127.26 Z" />
    <text x="5911.85" y="5233.23" class="label">冷卻水塔區</text>
  </g>
  <g id="gis_room_AM_R1">
    <path class="room" d="M 5083.87,8316.54 L 5109.15,8168.27 L 5213.85,8186.31 L 5257.83,7928.27 L 5356.15,7945.21 L 5354.29,7956.12 L 5383.65,7961.18 L 5385.51,7950.27 L 5471.06,7965.02 L 5469.20,7975.93 L 5499.20,7981.10 L 5501.06,7970.19 L 5585.96,7984.82 L 5584.03,7995.72 L 5613.48,8000.80 L 5615.34,7989.88 L 5988.16,8054.14 L 5930.16,8394.34 L 5913.56,8391.48 L 5888.85,8536.42 L 5809.69,8522.78 L 5834.40,8377.84 L 5466.05,8314.35 L 5467.91,8303.44 L 5465.99,8303.11 L 5493.79,8140.07 L 5495.70,8140.40 L 5497.89,8127.56 L 5485.12,8125.36 L 5484.79,8127.29 L 5295.83,8094.72 L 5296.16,8092.80 L 5283.39,8090.59 L 5281.20,8103.43 L 5283.12,8103.76 L 5255.33,8266.80 L 5253.41,8266.47 L 5251.22,8279.31 L 5263.99,8281.51 L 5264.32,8279.59 L 5453.28,8312.15 L 5452.95,8314.08 L 5463.81,8315.95 L 5429.23,8518.79 L 5428.59,8518.68 L 5416.77,8588.00 L 5404.00,8585.80 L 5401.81,8598.64 L 5219.23,8567.17 L 5223.17,8544.06 L 5221.26,8543.74 L 5223.85,8528.54 L 5237.25,8530.85 L 5270.23,8337.43 L 5256.82,8335.12 L 5254.96,8346.03 L 5233.90,8342.40 L 5235.51,8332.90 L 5201.68,8327.07 L 5210.02,8278.16 L 5190.23,8274.75 L 5179.94,8335.08 L 5104.61,8322.10 L 5104.94,8320.17 L 5083.87,8316.54 Z" />
    <text x="5536.01" y="8263.45" class="label">屋頂平台</text>
    <path class="room" d="M 4970.68,8502.53 L 5000.66,8326.65 L 5077.91,8339.96 L 5077.58,8341.89 L 5080.90,8342.46 L 5075.32,8375.20 L 5073.91,8374.96 L 5051.92,8503.98 L 5050.01,8503.65 L 5047.92,8515.84 L 4970.68,8502.53 Z" />
    <text x="5025.79" y="8421.25" class="label">甲梯</text>
  </g>
  <g id="gis_room_AM_R2">
    <path class="room" d="M 5083.87,8316.54 L 5109.15,8168.27 L 5213.85,8186.31 L 5257.83,7928.27 L 5988.16,8054.14 L 5930.16,8394.34 L 5464.13,8314.02 L 5416.77,8588.00 L 5404.00,8585.80 L 5401.81,8598.64 L 5219.24,8567.17 L 5223.17,8544.06 L 5220.62,8543.63 L 5249.95,8371.60 L 5252.50,8372.04 L 5256.88,8346.36 L 5233.90,8342.40 L 5233.46,8344.97 L 5104.50,8322.74 L 5104.94,8320.17 L 5083.87,8316.54 Z" />
    <text x="5536.01" y="8263.45" class="label">屋頂平台</text>
    <path class="room" d="M 5131.83,8470.84 L 5152.73,8348.23 L 5212.74,8358.58 L 5209.24,8379.12 L 5227.11,8382.20 L 5209.71,8484.26 L 5131.83,8470.84 Z" />
    <text x="5179.47" y="8416.25" class="label">日用水箱</text>
    <path class="room" d="M 5071.56,8492.83 L 5076.92,8461.38 L 5209.71,8484.26 L 5202.60,8525.98 L 5184.72,8522.90 L 5181.22,8543.44 L 5084.19,8526.72 L 5089.44,8495.91 L 5071.56,8492.83 Z" />
    <text x="5140.64" y="8502.41" class="label">日用水箱</text>
  </g>
  <g id="gis_room_AM_R3">
    <path class="room" d="M 5044.53,8535.74 L 5081.96,8316.21 L 5253.05,8345.70 L 5215.62,8565.23 L 5044.53,8535.74 Z" />
    <text x="5148.79" y="8440.72" class="label">屋頂平台</text>
  </g>
  <g id="gis_room_B1D_R1">
    <path class="room" d="M 11713.44,2721.32 L 11785.99,2717.15 L 11794.94,2874.45 L 11722.38,2878.62 L 11713.44,2721.32 Z" />
    <text x="11754.19" y="2797.89" class="label">樓梯</text>
    <path class="room" d="M 11852.53,2731.46 L 11924.82,2727.30 L 11928.34,2789.21 L 11856.05,2793.37 L 11852.53,2731.46 Z" />
    <text x="11890.43" y="2760.34" class="label">電梯</text>
    <path class="room" d="M 12301.12,2767.79 L 12370.48,2763.80 L 12373.89,2823.70 L 12304.52,2827.69 L 12301.12,2767.79 Z" />
    <text x="12337.50" y="2795.74" class="label">電梯</text>
    <path class="room" d="M 11856.05,2793.37 L 11928.34,2789.21 L 11931.75,2849.12 L 11859.45,2853.28 L 11856.05,2793.37 Z" />
    <text x="11893.90" y="2821.25" class="label">電梯</text>
    <path class="room" d="M 12297.60,2705.87 L 12366.96,2701.88 L 12370.48,2763.80 L 12301.12,2767.79 L 12297.60,2705.87 Z" />
    <text x="12334.04" y="2734.83" class="label">電梯</text>
    <path class="room" d="M 12431.44,2680.05 L 12507.75,2675.66 L 12516.69,2832.95 L 12440.38,2837.34 L 12431.44,2680.05 Z" />
    <text x="12474.07" y="2756.50" class="label">樓梯</text>
  </g>
  <g id="gis_room_B1D_R2">
    <path class="room" d="M 12463.93,2678.18 L 12502.09,2675.99 L 12511.03,2833.28 L 12472.88,2835.47 L 12463.93,2678.18 Z" />
    <text x="12487.48" y="2755.73" class="label">樓梯</text>
    <path class="room" d="M 11707.78,2721.65 L 11744.06,2719.57 L 11753.00,2876.86 L 11716.72,2878.94 L 11707.78,2721.65 Z" />
    <text x="11730.39" y="2799.25" class="label">樓梯</text>
  </g>
  <g id="gis_room_B2D_R1">
  </g>
  <g id="gis_room_CK_RF">
    <path class="room" d="M 7141.59,3237.53 L 7141.78,3190.04 L 7147.73,3190.07 L 7147.73,3188.50 L 7185.05,3188.65 L 7184.86,3237.71 L 7141.59,3237.53 Z" />
    <text x="7163.32" y="3213.10" class="label">機坑</text>
    <path class="room" d="M 8443.52,2802.09 L 8444.20,2631.27 L 8445.75,2631.28 L 8445.78,2625.25 L 8632.54,2626.00 L 8632.52,2632.02 L 8638.51,2632.04 L 8637.84,2802.86 L 8631.85,2802.84 L 8631.84,2804.40 L 8584.32,2804.21 L 8445.05,2803.66 L 8445.06,2802.09 L 8443.52,2802.09 Z" />
    <text x="8541.02" y="2714.83" class="label">樓梯</text>
    <path class="room" d="M 8441.41,3334.74 L 8442.08,3164.06 L 8443.63,3164.07 L 8443.64,3162.51 L 8630.43,3163.25 L 8630.42,3164.82 L 8636.41,3164.84 L 8635.74,3335.52 L 8629.75,3335.49 L 8629.72,3341.56 L 8442.93,3340.82 L 8442.96,3334.75 L 8441.41,3334.74 Z" />
    <text x="8538.91" y="3252.03" class="label">樓梯</text>
    <path class="room" d="M 7184.47,3335.81 L 7185.05,3188.65 L 7268.85,3188.99 L 7268.84,3190.55 L 7270.40,3190.56 L 7269.85,3330.08 L 7268.29,3330.07 L 7268.27,3336.14 L 7184.47,3335.81 Z" />
    <text x="7227.44" y="3262.40" class="label">樓梯</text>
    <path class="room" d="M 7272.62,2626.61 L 7278.61,2626.63 L 7278.63,2622.19 L 7401.59,2622.64 L 7401.55,2630.91 L 7407.59,2630.94 L 7407.06,2766.75 L 7401.02,2766.72 L 7401.01,2768.28 L 7279.94,2767.80 L 7279.95,2766.24 L 7272.10,2766.21 L 7272.62,2626.61 Z" />
    <text x="7339.84" y="2695.24" class="label">水塔(事務組)</text>
    <path class="room" d="M 7143.45,2765.70 L 7144.00,2626.10 L 7149.95,2626.12 L 7149.97,2620.10 L 7271.09,2620.58 L 7271.06,2626.60 L 7272.62,2626.61 L 7272.10,2766.21 L 7270.51,2766.20 L 7270.51,2767.76 L 7149.39,2767.28 L 7149.40,2765.72 L 7143.45,2765.70 Z" />
    <path class="room" d="M 7149.97,2620.10 L 7149.97,2620.10 L 7149.95,2626.12 L 7149.97,2620.10 Z" />
    <text x="7208.03" y="2693.93" class="label">樓梯</text>
  </g>
  <g id="gis_room_DB_RF">
    <path class="room" d="M 1871.93,5901.80 L 1872.53,5749.40 L 1952.93,5749.72 L 1953.17,5688.50 L 1997.05,5688.68 L 1996.21,5902.29 L 1871.93,5901.80 Z" />
    <text x="1934.49" y="5795.39" class="label">樓梯</text>
  </g>
  <g id="gis_room_EL_R1">
    <path class="room" d="M 13531.69,7125.41 L 13531.99,7049.21 L 13792.37,7050.25 L 13792.07,7126.45 L 13770.70,7126.36 L 13770.58,7155.67 L 13719.41,7155.46 L 13719.46,7142.44 L 13553.00,7141.77 L 13553.07,7125.49 L 13531.69,7125.41 Z" />
    <text x="13662.03" y="7102.44" class="label">甲樓梯間(特別安全梯)</text>
    <path class="room" d="M 13531.33,7380.70 L 13532.22,7156.67 L 13552.94,7156.75 L 13553.00,7141.77 L 13609.35,7142.00 L 13609.06,7215.59 L 13565.67,7215.42 L 13565.05,7370.41 L 13756.77,7371.18 L 13757.19,7266.20 L 13770.14,7266.25 L 13769.69,7381.65 L 13767.10,7381.64 L 13767.00,7405.09 L 13696.40,7404.81 L 13696.40,7405.46 L 13625.15,7405.17 L 13625.16,7404.52 L 13554.56,7404.24 L 13554.65,7380.79 L 13531.33,7380.70 Z" />
    <text x="13650.74" y="7273.62" class="label">花台</text>
    <path class="room" d="M 14835.20,6718.37 L 14835.64,6608.96 L 14915.30,6609.28 L 14915.19,6638.58 L 14928.79,6638.64 L 14928.47,6718.74 L 14835.20,6718.37 Z" />
    <text x="14882.00" y="6663.85" class="label">電梯</text>
    <path class="room" d="M 13627.20,7215.66 L 13627.49,7142.07 L 13665.06,7142.22 L 13664.76,7215.81 L 13627.20,7215.66 Z" />
    <text x="13646.13" y="7178.94" class="label">封閉空間</text>
    <path class="room" d="M 14487.39,6715.02 L 14487.74,6629.06 L 14499.39,6629.10 L 14499.48,6607.61 L 14689.90,6608.37 L 14689.79,6637.68 L 14713.11,6637.77 L 14713.22,6608.47 L 14735.11,6608.56 L 14734.68,6717.97 L 14491.27,6716.99 L 14491.28,6715.04 L 14487.39,6715.02 Z" />
    <text x="14611.25" y="6662.79" class="label">乙樓梯間(特別安全梯)</text>
    <path class="room" d="M 14038.05,7426.36 L 14038.14,7403.57 L 14059.77,7403.65 L 14059.85,7385.42 L 14256.75,7386.20 L 14256.67,7404.44 L 14277.40,7404.52 L 14277.47,7386.29 L 14474.37,7387.08 L 14474.30,7405.31 L 14495.03,7405.39 L 14495.10,7387.16 L 14677.75,7387.89 L 14677.71,7399.61 L 14691.95,7399.67 L 14691.93,7406.18 L 14713.69,7406.27 L 14713.60,7429.06 L 14038.05,7426.36 Z" />
    <text x="14375.87" y="7407.24" class="label">花台</text>
    <path class="room" d="M 14928.18,6792.98 L 14928.47,6718.74 L 14955.71,6718.85 L 14955.41,6793.09 L 14928.18,6792.98 Z" />
    <text x="14941.94" y="6755.92" class="label">陽台</text>
    <path class="room" d="M 13565.05,7370.41 L 13565.67,7215.42 L 13609.06,7215.59 L 13609.06,7214.94 L 13627.20,7215.01 L 13627.20,7215.66 L 13664.76,7215.81 L 13664.77,7215.16 L 13670.60,7215.19 L 13719.17,7215.38 L 13719.41,7155.46 L 13770.58,7155.67 L 13770.57,7157.62 L 13793.89,7157.71 L 13794.01,7126.45 L 13792.07,7126.45 L 13793.03,6884.18 L 13794.97,6884.19 L 13795.00,6876.37 L 14041.13,6877.36 L 14041.12,6879.96 L 14061.84,6880.05 L 14061.93,6859.21 L 14059.34,6859.19 L 14059.59,6793.55 L 14084.21,6793.65 L 14084.81,6640.47 L 14487.68,6642.08 L 14487.39,6715.02 L 14478.33,6714.99 L 14478.28,6728.01 L 14487.34,6728.05 L 14487.29,6741.73 L 14556.59,6742.00 L 14556.69,6717.25 L 14734.68,6717.97 L 14734.39,6792.21 L 14834.91,6792.61 L 14835.20,6718.37 L 14928.47,6718.74 L 14927.92,6857.46 L 14914.32,6857.40 L 14914.20,6888.66 L 14913.90,6964.86 L 14790.18,6964.37 L 14789.83,7054.24 L 14913.54,7054.73 L 14913.22,7136.14 L 14910.63,7136.13 L 14910.54,7156.97 L 14913.14,7156.98 L 14912.23,7386.22 L 14909.64,7386.21 L 14909.63,7388.82 L 14725.03,7388.08 L 14724.99,7399.80 L 14712.68,7399.75 L 14712.74,7385.42 L 14692.01,7385.34 L 14691.95,7399.67 L 14677.71,7399.61 L 14677.75,7387.89 L 14495.10,7387.16 L 14495.11,7384.55 L 14474.38,7384.47 L 14474.37,7387.08 L 14277.47,7386.29 L 14277.48,7383.68 L 14256.76,7383.60 L 14256.75,7386.20 L 14059.85,7385.42 L 14059.85,7382.81 L 14057.26,7382.80 L 14057.80,7246.56 L 13770.22,7245.41 L 13770.14,7266.25 L 13757.19,7266.20 L 13756.77,7371.18 L 13565.05,7370.41 Z" />
    <text x="14246.76" y="7020.14" class="label">屋頂平台</text>
    <path class="room" d="M 13778.90,6852.86 L 13779.25,6764.94 L 14038.33,6765.98 L 14038.87,6629.87 L 14062.83,6629.96 L 14062.93,6605.87 L 14259.83,6606.66 L 14259.73,6630.75 L 14280.46,6630.84 L 14280.56,6606.74 L 14476.16,6607.52 L 14476.08,6629.01 L 14487.74,6629.06 L 14487.68,6642.08 L 14084.81,6640.47 L 14084.21,6793.65 L 14059.59,6793.55 L 14059.34,6859.19 L 14041.20,6859.12 L 14041.13,6877.36 L 13795.00,6876.37 L 13795.09,6852.93 L 13778.90,6852.86 Z" />
    <text x="14133.32" y="6741.61" class="label">花台</text>
  </g>
  <g id="gis_room_EL_R2">
    <path class="room" d="M 13520.25,7390.04 L 13521.13,7166.01 L 13542.51,7166.09 L 13542.57,7151.12 L 13760.19,7151.98 L 13760.13,7166.96 L 13783.45,7167.06 L 13783.58,7135.80 L 13781.63,7135.79 L 13782.59,6893.52 L 13784.53,6893.53 L 13784.62,6872.69 L 14030.74,6873.67 L 14031.75,6618.38 L 14465.71,6620.12 L 14465.64,6638.35 L 14477.30,6638.40 L 14476.96,6724.36 L 14467.89,6724.33 L 14467.84,6737.35 L 14480.79,6737.40 L 14480.84,6726.33 L 14700.41,6727.21 L 14699.86,6865.93 L 14678.48,6865.84 L 14678.36,6897.10 L 14701.68,6897.20 L 14701.70,6891.33 L 14903.78,6892.14 L 14903.76,6898.00 L 14921.90,6898.08 L 14919.85,7416.48 L 14028.61,7412.91 L 14029.16,7274.06 L 13777.82,7273.06 L 13777.38,7391.07 L 13756.66,7390.98 L 13756.56,7414.43 L 13544.12,7413.58 L 13544.21,7390.13 L 13520.25,7390.04 Z" />
    <text x="14221.07" y="7017.43" class="label">平台</text>
    <path class="room" d="M 13521.56,7058.55 L 13522.21,6892.48 L 13543.59,6892.57 L 13543.70,6863.26 L 13761.33,6864.13 L 13761.21,6893.44 L 13782.59,6893.52 L 13781.93,7059.59 L 13521.56,7058.55 Z" />
    <text x="13652.07" y="6961.43" class="label">水箱</text>
    <path class="room" d="M 14699.86,6865.93 L 14700.41,6727.21 L 14925.81,6728.11 L 14925.26,6866.83 L 14903.88,6866.74 L 14903.78,6892.14 L 14701.70,6891.33 L 14701.80,6865.94 L 14699.86,6865.93 Z" />
    <text x="14812.83" y="6809.68" class="label">中水水箱</text>
    <path class="room" d="M 14476.96,6724.36 L 14477.30,6638.40 L 14488.96,6638.45 L 14489.04,6616.95 L 14679.47,6617.72 L 14679.35,6647.02 L 14702.67,6647.11 L 14702.78,6617.81 L 14746.18,6617.98 L 14745.75,6727.39 L 14480.84,6726.33 L 14480.84,6724.38 L 14476.96,6724.36 Z" />
    <text x="14611.57" y="6672.17" class="label">乙樓梯間(特別安全梯)</text>
    <path class="room" d="M 13521.26,7134.75 L 13521.56,7058.55 L 13781.93,7059.59 L 13781.63,7135.79 L 13760.26,7135.70 L 13760.19,7151.98 L 13542.57,7151.12 L 13542.63,7134.83 L 13521.26,7134.75 Z" />
    <text x="13651.59" y="7105.27" class="label">甲樓梯間(特別安全梯)</text>
  </g>
  <g id="gis_room_EL_RF">
    <path class="room" d="M 14475.41,6722.01 L 14475.83,6617.29 L 14925.85,6619.09 L 14925.43,6723.81 L 14475.41,6722.01 Z" />
    <text x="14700.63" y="6670.55" class="label">屋頂</text>
    <path class="room" d="M 13525.43,7159.77 L 13525.83,7058.96 L 13781.54,7059.98 L 13781.14,7160.80 L 13525.43,7159.77 Z" />
    <text x="13653.49" y="7109.88" class="label">屋頂</text>
  </g>
  <g id="gis_room_GB_RF">
    <path class="room" d="M 4424.34,5871.26 L 4425.08,5682.31 L 4524.50,5682.71 L 4523.75,5871.65 L 4424.34,5871.26 Z" />
    <text x="4474.42" y="5776.98" class="label">樓梯</text>
  </g>
  <g id="gis_room_LY_R1">
    <path class="room" d="M -23859.46,-3081.91 L -23763.12,-3453.08 L -23710.47,-3439.27 L -23720.61,-3400.20 L -23713.72,-3398.39 L -23799.92,-3066.29 L -23859.46,-3081.91 Z" />
    <text x="-23784.97" y="-3259.69" class="label">陽台</text>
    <path class="room" d="M -23723.12,-3462.78 L -23699.37,-3554.28 L -23551.46,-3515.47 L -23557.05,-3493.92 L -23570.84,-3497.54 L -23587.85,-3432.00 L -23593.49,-3433.48 L -23594.63,-3429.07 L -23723.12,-3462.78 Z" />
    <text x="-23637.29" y="-3491.67" class="label">樓梯</text>
  </g>
  <g id="gis_room_LY_RF">
    <path class="room" d="M -23723.77,-3460.26 L -23699.37,-3554.28 L -23551.46,-3515.47 L -23557.05,-3493.92 L -23574.60,-3498.52 L -23591.61,-3432.98 L -23593.49,-3433.48 L -23595.29,-3426.54 L -23723.77,-3460.26 Z" />
    <text x="-23637.61" y="-3490.41" class="label">平台</text>
    <path class="room" d="M -23549.06,-3163.63 L -23530.57,-3234.84 L -23416.51,-3204.91 L -23434.99,-3133.70 L -23549.06,-3163.63 Z" />
    <text x="-23482.78" y="-3184.27" class="label">平台</text>
  </g>
</svg>