<svg width="16000" height="9099" viewBox="0 0 16000 9099" xmlns="http://www.w3.org/2000/svg" xmlns:xlink="http://www.w3.org/1999/xlink">

    <style>
        .building { fill: #f0f4f8; stroke: #d1dce5; stroke-width: 2; }
        .room     { fill: #ffffff; fill-opacity: 0.8; stroke: #bcccdc; stroke-width: 1; }
        .label    { font-family: "Noto Sans TC", sans-serif; font-size: 24px; fill: #334e68; font-weight: 500; text-anchor: middle; dominant-baseline: middle; }
    </style>
      <g id="gis_gis_building_geom">
    <path class="building" d="M 2949.26,4010.03 L 4140.85,4021.56 L 4142.10,4292.67 L 4130.90,4292.64 L 4130.40,4356.44 L 3226.66,4355.84 L 3226.31,4812.55 L 3401.68,4811.80 L 3401.95,5141.81 L 2942.28,5141.31 L 2949.26,4010.03 Z" />
    <path class="building" d="M 7088.12,2560.89 L 7700.72,2562.04 L 7700.87,2481.66 L 8148.51,2483.00 L 8147.15,2562.88 L 8693.32,2563.92 L 8721.63,2695.28 L 8721.63,2695.28 L 8715.57,3280.48 L 8690.90,3280.61 L 8690.48,3403.55 L 7085.32,3389.98 L 7085.31,3204.63 L 7000.35,3203.97 L 7003.43,2738.84 L 7087.35,2738.26 L 7088.12,2560.89 Z" />
    <path class="building" d="M 4843.51,1956.47 L 4844.51,1787.79 L 4906.35,1787.49 L 4905.24,1712.44 L 5766.54,1719.44 L 5767.05,1759.83 L 6027.80,1762.57 L 6041.22,1778.35 L 6040.91,2113.44 L 5920.93,2113.62 L 5921.58,2180.69 L 4855.22,2175.20 L 4857.61,1956.59 L 4843.51,1956.47 Z" />
    <path class="building" d="M 3188.76,5839.04 L 3184.44,6132.85 L 3009.51,6131.08 L 3010.12,5838.90 L 3188.76,5839.04 Z" />
    <path class="building" d="M 8161.26,3799.06 L 8661.34,3802.64 L 8661.72,3865.86 L 8759.20,3866.25 L 8755.51,3995.61 L 8806.86,3995.16 L 8806.05,4079.95 L 8850.04,4079.42 L 8848.57,4261.53 L 8807.12,4260.63 L 8806.31,4341.05 L 8464.87,4337.40 L 8462.68,4793.00 L 8947.00,4797.31 L 8944.64,5163.38 L 9070.07,5164.43 L 9068.88,5256.28 L 8943.78,5254.69 L 8940.58,5624.81 L 8458.26,5621.41 L 8453.24,6072.52 L 9133.83,6077.89 L 9126.51,6745.48 L 8044.27,6736.86 L 8045.15,6541.70 L 7946.95,6541.19 L 7947.74,6409.27 L 7850.08,6409.19 L 7850.29,6387.18 L 7663.94,6386.98 L 7662.42,6294.92 L 7365.94,6294.05 L 7367.40,6164.56 L 7219.73,6164.20 L 7220.56,6079.32 L 7176.49,6078.82 L 7179.52,5914.56 L 7222.17,5914.94 L 7222.98,5832.54 L 7863.48,5840.16 L 7863.88,5617.56 L 7754.27,5617.59 L 7754.43,5521.38 L 7739.08,5522.23 L 7740.67,5376.11 L 7755.56,5376.17 L 7756.55,5277.27 L 7785.97,5276.79 L 7786.18,5127.15 L 7757.98,5127.35 L 7758.14,5028.99 L 7743.59,5028.70 L 7745.39,4886.44 L 7759.72,4886.75 L 7760.11,4786.55 L 7849.88,4787.63 L 7849.21,4560.97 L 7233.65,4557.12 L 7234.22,4480.71 L 7180.57,4480.46 L 7181.34,4311.50 L 7235.49,4311.75 L 7236.10,4231.20 L 7381.06,4231.84 L 7382.58,4106.09 L 7678.18,4106.93 L 7679.62,4016.64 L 7870.79,4014.88 L 7870.93,3994.82 L 7966.89,3995.55 L 7968.35,3863.10 L 8160.60,3863.87 L 8161.26,3799.06 Z" />
    <path class="building" d="M 1785.34,1818.91 L 1846.80,1820.11 L 1846.08,1868.88 L 1915.10,1869.87 L 1914.84,1881.19 L 1956.32,1881.91 L 1956.29,1947.64 L 1913.30,1947.43 L 1912.91,1964.27 L 1844.69,1963.82 L 1844.25,1993.82 L 2113.96,1996.73 L 2111.80,2313.15 L 1638.41,2309.74 L 1638.57,2369.36 L 1402.42,2370.43 L 1402.86,2308.05 L 913.25,2304.52 L 921.14,1983.86 L 1782.78,1993.15 L 1785.34,1818.91 Z" />
    <path class="building" d="M 1233.29,3176.04 L 1233.24,3086.16 L 1689.31,3086.09 L 1689.85,3178.73 L 2105.12,3181.86 L 2100.21,3742.07 L 811.22,3734.26 L 816.44,3173.49 L 1233.29,3176.04 Z" />
    <path class="building" d="M 4422.39,3825.20 L 4557.45,3823.98 L 4558.56,3948.97 L 4423.51,3950.19 L 4422.39,3825.20 Z" />
    <path class="building" d="M 5454.09,3024.68 L 5470.25,3024.58 L 5470.20,3032.77 L 5776.10,3034.35 L 5777.47,2956.96 L 5982.23,2956.10 L 5981.83,3035.41 L 6304.16,3037.07 L 6307.16,3777.27 L 6169.76,3776.65 L 6170.26,3825.65 L 5997.21,3824.78 L 5999.79,3339.48 L 5451.60,3336.55 L 5454.09,3024.68 Z" />
    <path class="building" d="M 810.23,4162.32 L 2094.03,4174.33 L 2089.09,4719.68 L 2050.10,4719.24 L 2050.20,4746.64 L 1713.11,4742.66 L 1713.39,4715.41 L 805.90,4705.09 L 810.23,4162.32 Z" />
    <path class="building" d="M 5154.02,4923.99 L 5174.31,4923.63 L 5174.75,4823.71 L 5156.69,4823.06 L 5158.73,4730.00 L 5153.87,4730.05 L 5153.30,4532.71 L 4982.76,4534.29 L 4982.12,4520.32 L 4753.21,4517.98 L 4752.95,4206.61 L 5867.58,4215.65 L 5865.18,4622.01 L 5896.39,4622.08 L 5894.82,4763.49 L 6306.89,4767.17 L 6301.07,5688.40 L 5887.43,5691.03 L 5886.89,5832.41 L 5854.54,5832.37 L 5853.47,6070.58 L 5399.78,6064.30 L 5405.55,5280.53 L 5376.56,5280.37 L 5376.79,5215.40 L 5151.84,5213.08 L 5151.97,5219.13 L 5154.02,4923.99 Z" />
    <path class="building" d="M 3393.95,5787.13 L 3442.50,5787.21 L 3442.68,5774.53 L 3630.52,5775.89 L 3631.48,5739.98 L 4112.97,5745.69 L 4113.00,5779.38 L 4284.12,5780.62 L 4284.41,5744.13 L 4286.78,5744.18 L 4286.73,5683.26 L 4511.51,5688.82 L 4511.10,5748.44 L 4600.29,5750.13 L 4600.37,5781.26 L 4984.14,5785.27 L 4983.80,5976.74 L 5219.32,5978.53 L 5219.88,6039.07 L 5265.74,6038.84 L 5260.63,6205.34 L 5217.18,6206.06 L 5217.99,6267.47 L 5167.99,6267.69 L 5166.59,6358.65 L 4403.43,6352.99 L 4402.67,6219.38 L 4187.82,6220.82 L 4189.74,6082.55 L 3392.66,6074.33 L 3392.93,6015.46 L 3346.48,6015.69 L 3345.67,5846.07 L 3393.69,5845.84 L 3393.95,5787.13 Z" />
    <path class="building" d="M 3480.58,1049.19 L 3478.99,999.72 L 3622.50,1000.51 L 3623.18,1050.84 L 3766.99,1052.51 L 3767.46,1154.80 L 3876.62,1155.69 L 3876.12,1302.54 L 4088.23,1299.59 L 4089.53,1365.74 L 4257.77,1366.48 L 4254.19,1531.73 L 3773.89,1529.93 L 3775.24,1614.55 L 3768.91,1632.60 L 3503.68,1632.43 L 3508.43,1214.67 L 3463.89,1214.91 L 3467.11,1049.03 L 3480.58,1049.19 Z" />
    <path class="building" d="M 936.26,5355.33 L 938.67,5282.05 L 1124.06,5283.51 L 1124.24,5251.09 L 1291.35,5250.09 L 1307.39,5242.52 L 1325.18,5238.63 L 1356.16,5233.68 L 1377.43,5232.40 L 1405.24,5235.72 L 1428.02,5240.86 L 1440.65,5244.93 L 1460.13,5252.19 L 1607.57,5253.53 L 1607.60,5288.52 L 1776.51,5290.71 L 1776.60,5240.34 L 2103.44,5244.81 L 2103.50,5356.82 L 2205.45,5356.56 L 2205.38,5378.57 L 2282.83,5379.22 L 2285.51,5565.09 L 2894.09,5569.40 L 2893.37,5633.72 L 2936.68,5633.51 L 2937.52,5803.75 L 2846.36,5804.20 L 2846.34,5953.33 L 2559.91,5955.61 L 2546.09,5965.10 L 2519.95,5972.97 L 2488.77,5982.33 L 2463.81,5984.39 L 2436.80,5986.16 L 2402.61,5984.38 L 2377.54,5982.72 L 2340.87,5977.26 L 2314.70,5972.21 L 2285.31,5960.47 L 2259.99,5947.24 L 1985.67,5944.67 L 1985.29,5908.44 L 1769.65,5909.19 L 1773.26,5665.81 L 1597.93,5664.92 L 1599.05,5851.91 L 1024.38,5845.83 L 1022.48,5808.99 L 1001.29,5809.19 L 1000.42,5661.87 L 882.09,5661.27 L 883.76,5439.25 L 856.33,5438.30 L 859.12,5355.29 L 936.26,5355.33 Z" />
    <path class="building" d="M 13529.99,6560.54 L 14941.59,6571.40 L 14932.04,7144.65 L 14992.06,7145.75 L 14993.21,7490.04 L 14952.13,7489.30 L 14951.20,7527.87 L 13628.49,7517.89 L 13629.06,7497.74 L 13464.17,7496.13 L 13468.50,7115.25 L 13528.85,7116.51 L 13530.83,6851.87 L 13480.99,6851.93 L 13479.73,6621.87 L 13530.11,6622.39 L 13529.99,6560.54 Z" />
    <path class="building" d="M 5093.05,7797.46 L 5095.59,7780.54 L 6087.61,7941.33 L 6022.66,8306.95 L 5960.86,8299.45 L 5951.07,8349.55 L 4941.17,8184.55 L 4984.12,7921.91 L 5034.25,7929.51 L 5057.02,7792.95 L 5093.05,7797.46 Z" />
    <path class="building" d="M 924.06,1000.40 L 1568.36,1012.99 L 1566.57,922.99 L 1880.10,928.66 L 1881.99,1019.12 L 2136.51,1024.09 L 2121.00,1825.46 L 908.59,1801.77 L 924.06,1000.40 Z" />
    <path class="building" d="M 3553.73,1653.86 L 4853.30,1652.82 L 4852.16,1787.86 L 4844.51,1787.79 L 4843.51,1956.47 L 4850.75,1956.53 L 4849.40,2118.29 L 4411.37,2114.16 L 4411.76,2160.24 L 4465.88,2160.87 L 4465.14,2276.87 L 4231.13,2277.71 L 4231.03,2158.16 L 4287.83,2158.82 L 4287.44,2113.00 L 3550.76,2106.07 L 3553.73,1653.86 Z" />
    <path class="building" d="M 2268.76,1003.93 L 2280.78,984.64 L 2301.22,961.02 L 2328.14,932.78 L 2376.93,892.39 L 2432.02,852.59 L 2456.33,836.30 L 2492.30,816.65 L 2492.65,812.32 L 2497.05,801.30 L 2505.95,790.96 L 2517.92,784.39 L 2534.43,781.93 L 2543.82,782.04 L 2553.79,783.27 L 2558.23,785.09 L 2561.34,783.57 L 2614.81,766.10 L 2654.80,754.95 L 2736.40,738.94 L 2774.76,736.02 L 2819.06,734.40 L 2864.17,735.02 L 2912.73,739.61 L 2955.40,745.85 L 2999.31,756.53 L 3064.54,776.64 L 3111.23,795.03 L 3147.21,812.60 L 3190.74,836.66 L 3245.03,874.91 L 3335.46,950.82 L 3362.11,979.42 L 3379.06,1004.60 L 3316.60,1050.11 L 3330.09,1064.69 L 3312.34,1077.80 L 3355.45,1126.80 L 3354.12,1319.70 L 3355.49,1799.51 L 2657.61,1799.22 L 2649.90,2029.27 L 3171.26,2031.80 L 3172.51,1971.58 L 3282.84,1972.96 L 3284.07,2032.35 L 3345.52,2032.65 L 3344.64,2341.85 L 3195.08,2340.34 L 3194.82,2358.50 L 3161.99,2359.41 L 3162.40,2340.50 L 2293.87,2340.13 L 2291.91,1914.68 L 2445.18,1915.40 L 2446.50,1799.14 L 2286.94,1799.08 L 2288.75,1126.37 L 2343.08,1060.46 L 2268.76,1003.93 Z" />
    <path class="building" d="M 2375.15,3011.39 L 2703.50,3012.59 L 2706.21,2927.10 L 2908.80,2929.26 L 2907.77,3013.34 L 3224.19,3014.50 L 3221.87,3314.69 L 2675.53,3316.31 L 2672.14,3806.07 L 2611.01,3805.78 L 2611.50,3752.93 L 2369.52,3750.98 L 2375.15,3011.39 Z" />
    <path class="building" d="M 3481.73,3013.15 L 4216.24,3018.45 L 4216.72,2932.76 L 4466.90,2931.38 L 4468.50,3020.27 L 5200.00,3025.54 L 5196.12,3341.16 L 4532.93,3336.21 L 4533.28,3456.98 L 4146.26,3455.47 L 4145.86,3333.24 L 3480.74,3325.73 L 3481.73,3013.15 Z" />
    <path class="building" d="M 2359.65,4017.52 L 2682.41,4014.00 L 2683.31,4054.59 L 2674.47,4054.84 L 2667.93,4437.03 L 2763.04,4437.67 L 2761.52,4667.51 L 2664.01,4666.86 L 2654.87,5374.86 L 2660.54,5374.70 L 2659.91,5389.96 L 2344.25,5388.14 L 2359.65,4017.52 Z" />
    <path class="building" d="M 3502.33,4517.98 L 3587.32,4518.98 L 3587.05,4474.73 L 3922.02,4476.01 L 3922.52,4509.52 L 4982.12,4520.32 L 4982.76,4534.29 L 5153.30,4532.71 L 5153.87,4730.05 L 5158.73,4730.00 L 5156.69,4823.06 L 5174.75,4823.71 L 5174.31,4923.63 L 5154.02,4923.99 L 5151.97,5219.13 L 5071.20,5219.60 L 5070.35,5272.40 L 4665.04,5270.50 L 4665.31,5225.67 L 3579.55,5215.95 L 3579.14,5204.15 L 3499.71,5204.74 L 3500.84,4914.76 L 3479.18,4914.22 L 3480.73,4807.81 L 3501.94,4807.89 L 3502.33,4517.98 Z" />
    <path class="building" d="M 11448.31,2608.09 L 11443.96,2519.88 L 11936.57,2495.70 L 11937.54,2522.91 L 11969.51,2521.23 L 11973.77,2620.44 L 11941.10,2622.40 L 11943.56,2691.25 L 12023.28,2687.38 L 12021.53,2652.29 L 12212.21,2643.62 L 12214.73,2678.07 L 12292.75,2675.69 L 12289.42,2607.07 L 12255.82,2608.91 L 12251.93,2505.72 L 12284.43,2504.26 L 12283.18,2478.69 L 13428.92,2422.45 L 13435.62,2613.62 L 13468.77,2612.12 L 13467.35,2556.10 L 13646.50,2547.86 L 13649.47,2603.90 L 13684.37,2602.32 L 13671.86,2410.52 L 14152.96,2386.91 L 14170.11,2736.81 L 13904.32,2750.00 L 13914.52,2942.80 L 13340.66,2974.61 L 13352.87,3252.74 L 12426.20,3299.52 L 12409.53,3017.41 L 11743.24,3054.12 L 11741.45,3028.15 L 11711.32,3029.36 L 11704.20,2926.92 L 11734.35,2925.31 L 11729.77,2858.79 L 11461.38,2873.15 L 11457.02,2784.77 L 11415.95,2786.12 L 11410.15,2609.07 L 11448.31,2608.09 Z" />
  </g>
  <g id="gis_room_AD_9F">
    <path class="room" d="M 5809.57,4935.46 L 5810.05,4813.67 L 5833.37,4813.76 L 5833.31,4828.87 L 5856.63,4828.97 L 5856.68,4813.86 L 5970.16,4814.31 L 5970.10,4829.42 L 5993.42,4829.51 L 5993.48,4814.40 L 6016.80,4814.49 L 6016.32,4936.28 L 6007.12,4936.24 L 6007.11,4939.50 L 5818.75,4938.75 L 5818.77,4935.50 L 5809.57,4935.46 Z" />
    <text x="5913.18" y="4876.59" class="label">倉庫</text>
    <path class="room" d="M 6116.23,5486.74 L 6116.93,5308.55 L 6208.97,5308.92 L 6208.91,5326.05 L 6218.43,5326.09 L 6218.34,5348.03 L 6228.96,5348.07 L 6228.54,5455.66 L 6217.92,5455.62 L 6217.83,5477.57 L 6208.31,5477.53 L 6208.27,5487.10 L 6116.23,5486.74 Z" />
    <text x="6172.60" y="5397.83" class="label">貴賓室</text>
    <path class="room" d="M 5706.32,5563.52 L 5707.04,5378.56 L 5798.76,5378.93 L 5798.56,5431.03 L 5813.58,5431.09 L 5813.40,5475.96 L 5796.37,5475.89 L 5796.29,5495.04 L 5813.33,5495.11 L 5813.12,5548.32 L 5797.58,5548.25 L 5797.51,5563.88 L 5706.32,5563.52 Z" />
    <text x="5759.95" y="5471.22" class="label">男廁</text>
    <path class="room" d="M 5910.24,5623.73 L 5910.90,5454.40 L 5981.89,5454.68 L 5981.98,5431.76 L 6015.92,5431.89 L 6015.75,5476.76 L 6006.23,5476.73 L 6006.15,5495.87 L 6015.67,5495.91 L 6015.17,5624.14 L 5990.04,5624.04 L 5990.10,5607.89 L 5966.26,5607.80 L 5966.20,5623.95 L 5910.24,5623.73 Z" />
    <text x="5963.08" y="5527.95" class="label">樓梯</text>
    <path class="room" d="M 5812.82,5623.34 L 5813.33,5495.11 L 5815.34,5495.11 L 5815.41,5475.97 L 5813.40,5475.96 L 5813.58,5431.09 L 5840.01,5431.19 L 5839.92,5454.12 L 5910.90,5454.40 L 5910.24,5623.73 L 5854.28,5623.50 L 5854.34,5607.35 L 5830.51,5607.26 L 5830.44,5623.41 L 5812.82,5623.34 Z" />
    <text x="5861.86" y="5527.41" class="label">樓梯</text>
    <path class="room" d="M 6015.53,5532.97 L 6015.67,5495.91 L 6025.19,5495.95 L 6025.27,5476.80 L 6015.75,5476.76 L 6015.92,5431.89 L 6116.45,5432.29 L 6116.00,5546.39 L 6039.31,5546.09 L 6039.36,5533.06 L 6015.53,5532.97 Z" />
    <text x="6065.99" y="5489.14" class="label">女廁</text>
    <path class="room" d="M 5839.92,5454.12 L 5840.21,5379.09 L 5911.20,5379.37 L 5910.90,5454.40 L 5839.92,5454.12 Z" />
    <text x="5875.56" y="5416.75" class="label">電梯</text>
    <path class="room" d="M 5910.90,5454.40 L 5911.20,5379.37 L 5982.19,5379.66 L 5981.89,5454.68 L 5910.90,5454.40 Z" />
    <text x="5946.55" y="5417.03" class="label">電梯</text>
    <path class="room" d="M 5593.94,5282.51 L 5594.47,5147.57 L 5605.09,5147.61 L 5605.18,5125.66 L 5614.70,5125.70 L 5614.78,5106.55 L 5605.26,5106.51 L 5605.34,5084.57 L 5594.72,5084.53 L 5595.14,4976.94 L 5605.77,4976.98 L 5605.85,4956.27 L 5616.60,4956.31 L 5616.64,4945.50 L 5705.90,4945.86 L 5706.14,4882.82 L 5782.83,4883.12 L 5782.78,4896.14 L 5809.72,4896.25 L 5809.57,4935.46 L 5797.26,4935.41 L 5797.18,4957.03 L 5818.68,4957.12 L 5818.75,4938.75 L 6007.11,4939.50 L 6007.03,4957.86 L 6028.54,4957.95 L 6028.62,4936.33 L 6016.32,4936.28 L 6016.46,4900.46 L 6040.29,4900.56 L 6040.36,4883.62 L 6117.31,4883.93 L 6117.06,4947.49 L 6209.16,4947.86 L 6209.12,4958.67 L 6219.87,4958.71 L 6219.79,4979.42 L 6230.41,4979.46 L 6229.99,5087.05 L 6219.37,5087.01 L 6219.28,5108.95 L 6209.76,5108.92 L 6209.69,5126.05 L 6181.39,5125.93 L 6180.67,5308.81 L 6116.93,5308.55 L 6116.65,5380.19 L 6023.64,5379.82 L 6023.86,5325.31 L 6025.86,5325.32 L 6025.94,5306.17 L 6023.93,5306.16 L 6023.97,5295.16 L 5799.09,5294.26 L 5799.05,5305.27 L 5797.04,5305.26 L 5796.97,5324.41 L 5814.00,5324.48 L 5813.79,5378.99 L 5707.04,5378.56 L 5707.33,5306.92 L 5613.99,5306.55 L 5614.00,5304.53 L 5604.48,5304.50 L 5604.56,5282.55 L 5593.94,5282.51 Z M 5796.51,5127.66 L 5818.01,5127.74 L 5818.10,5106.12 L 5796.59,5106.04 L 5796.51,5127.66 Z M 6007.60,5127.26 L 6026.64,5127.34 L 6026.72,5108.19 L 6007.68,5108.11 L 6007.60,5127.26 Z" />
    <text x="5912.18" y="5131.50" class="label">國際會議廳</text>
  </g>
  <g id="gis_room_AM_9F">
    <path class="room" d="M 5704.71,8005.29 L 5710.62,7970.63 L 5746.37,7976.79 L 5740.46,8011.45 L 5704.71,8005.29 Z" />
    <text x="5725.54" y="7991.04" class="label">陽台</text>
    <path class="room" d="M 5247.05,8608.31 L 5252.96,8573.65 L 5288.71,8579.81 L 5282.80,8614.47 L 5247.05,8608.31 Z" />
    <text x="5267.88" y="8594.06" class="label">陽台</text>
    <path class="room" d="M 5121.62,8095.09 L 5139.79,7988.54 L 5244.49,8006.58 L 5232.23,8078.47 L 5187.54,8070.77 L 5181.63,8105.43 L 5121.62,8095.09 Z" />
    <text x="5183.05" y="8046.98" class="label">男廁</text>
    <path class="room" d="M 5933.44,8375.09 L 5944.17,8312.18 L 5981.19,8318.56 L 5970.47,8381.47 L 5933.44,8375.09 Z" />
    <text x="5957.32" y="8346.82" class="label">陽台</text>
    <path class="room" d="M 5139.79,7988.54 L 5147.34,7944.25 L 5176.07,7949.20 L 5181.87,7915.17 L 5395.64,7952.02 L 5351.59,8210.45 L 5309.53,8203.20 L 5298.95,8188.16 L 5263.21,8182.00 L 5273.56,8121.28 L 5226.32,8113.13 L 5244.49,8006.58 L 5139.79,7988.54 Z" />
    <text x="5267.71" y="8062.81" class="label">光寶-北科聯合研發中心</text>
    <path class="room" d="M 5525.81,8122.37 L 5550.31,7978.68 L 5840.69,8028.72 L 5834.89,8062.74 L 5863.97,8067.76 L 5825.72,8292.16 L 5746.53,8278.53 L 5735.94,8263.50 L 5700.60,8257.41 L 5717.98,8155.49 L 5525.81,8122.37 Z" />
    <text x="5694.89" y="8135.42" class="label">福壽實業AI數位轉型研發中心</text>
    <path class="room" d="M 5821.60,8707.33 L 5827.51,8672.67 L 5863.26,8678.83 L 5857.36,8713.49 L 5821.60,8707.33 Z" />
    <text x="5842.43" y="8693.08" class="label">陽台</text>
    <path class="room" d="M 5074.85,8542.95 L 5080.32,8510.86 L 5130.76,8519.55 L 5125.28,8551.64 L 5074.85,8542.95 Z" />
    <text x="5102.80" y="8531.25" class="label">封閉空間</text>
    <path class="room" d="M 5078.38,8375.73 L 5098.41,8258.26 L 5122.67,8262.44 L 5128.47,8228.42 L 5215.93,8243.49 L 5210.02,8278.16 L 5190.87,8274.85 L 5176.86,8357.02 L 5158.99,8353.94 L 5153.08,8388.60 L 5078.38,8375.73 Z" />
    <text x="5147.16" y="8308.51" class="label">女廁</text>
    <path class="room" d="M 5827.90,8279.32 L 5863.97,8067.76 L 5865.53,8068.02 L 5871.33,8034.00 L 6057.74,8066.13 L 6053.26,8092.45 L 6079.43,8096.96 L 6039.93,8328.68 L 5944.17,8312.18 L 5944.10,8312.57 L 5873.79,8300.45 L 5863.21,8285.41 L 5827.90,8279.32 Z" />
    <text x="5953.67" y="8181.34" class="label">友達-北科大研發中心</text>
    <path class="room" d="M 5213.21,8186.20 L 5225.68,8113.02 L 5273.56,8121.28 L 5261.09,8194.45 L 5213.21,8186.20 Z" />
    <text x="5243.39" y="8153.74" class="label">電力/弱電</text>
    <path class="room" d="M 5065.26,8217.53 L 5085.18,8100.70 L 5119.65,8106.64 L 5100.07,8221.54 L 5098.15,8221.21 L 5097.82,8223.14 L 5065.26,8217.53 Z" />
    <text x="5092.46" y="8161.92" class="label">陽臺</text>
    <path class="room" d="M 5245.07,7926.07 L 5250.97,7891.41 L 5286.73,7897.57 L 5280.82,7932.23 L 5245.07,7926.07 Z" />
    <text x="5265.90" y="7911.82" class="label">陽台</text>
    <path class="room" d="M 5066.35,8446.33 L 5078.38,8375.73 L 5153.08,8388.60 L 5141.04,8459.21 L 5066.35,8446.33 Z" />
    <text x="5109.71" y="8417.47" class="label">緊急升降機L1/兼用行動不便電梯</text>
    <path class="room" d="M 5476.87,8647.92 L 5482.78,8613.26 L 5518.53,8619.42 L 5512.62,8654.08 L 5476.87,8647.92 Z" />
    <text x="5497.70" y="8633.67" class="label">陽台</text>
    <path class="room" d="M 5934.53,8044.90 L 5940.44,8010.23 L 5976.19,8016.40 L 5970.28,8051.06 L 5934.53,8044.90 Z" />
    <text x="5955.36" y="8030.65" class="label">陽台</text>
    <path class="room" d="M 5056.39,8504.75 L 5066.35,8446.33 L 5141.04,8459.21 L 5130.76,8519.55 L 5080.32,8510.86 L 5080.65,8508.93 L 5056.39,8504.75 Z" />
    <text x="5098.71" y="8482.94" class="label">行動不便電梯L2</text>
    <path class="room" d="M 5108.82,8170.19 L 5111.34,8155.43 L 5144.53,8161.15 L 5142.02,8175.91 L 5108.82,8170.19 Z" />
    <text x="5126.68" y="8165.67" class="label">資源回收</text>
    <path class="room" d="M 5051.22,8215.11 L 5060.63,8159.90 L 5074.67,8162.33 L 5065.26,8217.53 L 5051.22,8215.11 Z" />
    <text x="5062.95" y="8188.72" class="label">花臺</text>
    <path class="room" d="M 5819.62,8025.09 L 5825.53,7990.43 L 5861.28,7996.59 L 5855.70,8029.33 L 5841.02,8026.80 L 5840.69,8028.72 L 5819.62,8025.09 Z" />
    <text x="5840.45" y="8009.88" class="label">陽台</text>
    <path class="room" d="M 5589.80,7985.48 L 5595.71,7950.82 L 5631.46,7956.98 L 5625.55,7991.64 L 5589.80,7985.48 Z" />
    <text x="5610.63" y="7971.23" class="label">陽台</text>
    <path class="room" d="M 5474.89,7965.68 L 5480.80,7931.01 L 5516.55,7937.18 L 5510.97,7969.91 L 5496.28,7967.38 L 5495.96,7969.31 L 5474.89,7965.68 Z" />
    <text x="5495.72" y="7950.46" class="label">陽台</text>
    <path class="room" d="M 5359.98,7945.87 L 5365.89,7911.21 L 5401.64,7917.37 L 5395.73,7952.03 L 5359.98,7945.87 Z" />
    <text x="5380.81" y="7931.62" class="label">陽台</text>
    <path class="room" d="M 5040.49,8093.00 L 5070.48,7917.12 L 5147.72,7930.43 L 5145.42,7943.91 L 5147.34,7944.25 L 5119.65,8106.64 L 5040.49,8093.00 Z" />
    <text x="5094.11" y="8011.88" class="label">甲梯</text>
    <path class="room" d="M 5905.45,8539.28 L 5933.44,8375.09 L 5970.47,8381.47 L 5969.38,8387.89 L 6001.93,8393.50 L 5999.86,8405.69 L 6013.90,8408.11 L 5989.08,8553.70 L 5905.45,8539.28 Z" />
    <text x="5959.68" y="8464.39" class="label">乙梯</text>
    <path class="room" d="M 5361.96,8628.11 L 5367.87,8593.45 L 5388.94,8597.08 L 5388.61,8599.01 L 5403.29,8601.54 L 5397.71,8634.27 L 5361.96,8628.11 Z" />
    <text x="5382.63" y="8613.86" class="label">陽台</text>
    <path class="room" d="M 5142.02,8175.91 L 5144.53,8161.15 L 5171.35,8165.77 L 5168.83,8180.53 L 5142.02,8175.91 Z" />
    <text x="5156.68" y="8170.84" class="label">飲水</text>
    <path class="room" d="M 5111.34,8155.43 L 5121.62,8095.09 L 5181.63,8105.43 L 5171.35,8165.77 L 5111.34,8155.43 Z" />
    <text x="5146.48" y="8130.43" class="label">行動不便兼親子廁所</text>
    <path class="room" d="M 5351.59,8210.45 L 5395.73,7952.03 L 5495.96,7969.31 L 5490.16,8003.33 L 5520.80,8008.61 L 5526.60,7974.59 L 5550.31,7978.68 L 5508.44,8224.26 L 5473.13,8218.18 L 5458.18,8228.82 L 5351.59,8210.45 Z" />
    <text x="5450.95" y="8090.42" class="label">智慧節能研發中心</text>
    <path class="room" d="M 5706.69,8687.53 L 5712.60,8652.86 L 5733.67,8656.50 L 5733.34,8658.42 L 5748.02,8660.95 L 5742.44,8693.69 L 5706.69,8687.53 Z" />
    <text x="5727.36" y="8673.28" class="label">陽台</text>
    <path class="room" d="M 5217.21,8567.49 L 5239.10,8439.11 L 5251.86,8441.31 L 5281.70,8266.30 L 5341.69,8276.64 L 5356.60,8266.29 L 5442.80,8281.14 L 5436.76,8316.57 L 5452.08,8319.21 L 5410.06,8565.70 L 5394.74,8563.06 L 5388.94,8597.08 L 5217.21,8567.49 Z" />
    <text x="5334.64" y="8431.68" class="label">半導體廠務設備研發中心</text>
    <path class="room" d="M 5591.78,8667.72 L 5597.69,8633.06 L 5633.44,8639.22 L 5627.53,8673.88 L 5591.78,8667.72 Z" />
    <text x="5612.61" y="8653.47" class="label">陽台</text>
    <path class="room" d="M 5410.06,8565.70 L 5452.08,8319.21 L 5467.40,8321.85 L 5471.25,8299.26 L 5507.78,8305.56 L 5522.74,8294.92 L 5650.43,8316.92 L 5596.57,8632.87 L 5419.58,8602.36 L 5425.38,8568.34 L 5410.06,8565.70 Z" />
    <text x="5530.24" y="8463.89" class="label">Sunbird-北科大能源管理研發中心</text>
    <path class="room" d="M 5596.57,8632.87 L 5650.43,8316.92 L 5737.80,8331.98 L 5748.38,8347.02 L 5785.34,8353.39 L 5781.49,8375.99 L 5812.13,8381.27 L 5818.17,8345.84 L 5885.72,8357.48 L 5896.30,8372.52 L 5932.81,8378.81 L 5901.73,8561.11 L 5985.36,8575.52 L 5969.25,8670.01 L 5955.21,8667.59 L 5950.72,8693.90 L 5764.31,8661.78 L 5770.11,8627.76 L 5739.47,8622.48 L 5733.67,8656.50 L 5596.57,8632.87 Z" />
    <text x="5790.97" y="8505.41" class="label">離岸風電工程研究中心</text>
  </g>
  <g id="gis_room_B1D_9F">
    <path class="room" d="M 11713.44,2721.32 L 11785.99,2717.15 L 11794.94,2874.45 L 11722.38,2878.62 L 11713.44,2721.32 Z" />
    <text x="11754.19" y="2797.89" class="label">樓梯</text>
    <path class="room" d="M 12431.44,2680.05 L 12507.75,2675.66 L 12515.66,2814.88 L 12505.65,2815.45 L 12506.68,2833.53 L 12440.38,2837.34 L 12431.44,2680.05 Z" />
    <text x="12473.55" y="2756.50" class="label">樓梯</text>
    <path class="room" d="M 11434.73,2752.79 L 11441.65,2752.40 L 11440.77,2737.00 L 11527.05,2732.04 L 11535.00,2871.93 L 11528.35,2872.31 L 11529.33,2889.72 L 11449.45,2894.31 L 11448.46,2876.91 L 11441.81,2877.29 L 11434.73,2752.79 Z" />
    <text x="11484.87" y="2813.17" class="label">廁所</text>
    <path class="room" d="M 12301.12,2767.79 L 12370.48,2763.80 L 12373.89,2823.70 L 12304.52,2827.69 L 12301.12,2767.79 Z" />
    <text x="12337.50" y="2795.74" class="label">電梯</text>
    <path class="room" d="M 11915.25,2559.01 L 11948.56,2557.10 L 11953.40,2642.31 L 11920.09,2644.22 L 11915.25,2559.01 Z" />
    <text x="11934.33" y="2600.66" class="label">陽台</text>
    <path class="room" d="M 12254.72,2539.50 L 12288.03,2537.58 L 12292.87,2622.79 L 12259.57,2624.71 L 12254.72,2539.50 Z" />
    <text x="12273.80" y="2581.15" class="label">陽台</text>
    <path class="room" d="M 12694.09,2664.95 L 12793.96,2659.20 L 12801.74,2795.88 L 12795.05,2796.26 L 12796.23,2816.88 L 12709.71,2821.85 L 12708.54,2801.24 L 12701.86,2801.62 L 12694.09,2664.95 Z" />
    <text x="12747.91" y="2740.53" class="label">廁所</text>
    <path class="room" d="M 11693.24,2953.72 L 11726.54,2951.81 L 11731.39,3037.02 L 11698.08,3038.93 L 11693.24,2953.72 Z" />
    <text x="11712.31" y="2995.37" class="label">陽台</text>
    <path class="room" d="M 12520.85,2906.14 L 12554.16,2904.22 L 12559.00,2989.43 L 12525.70,2991.35 L 12520.85,2906.14 Z" />
    <text x="12539.93" y="2947.79" class="label">陽台</text>
    <path class="room" d="M 11856.05,2793.37 L 11928.34,2789.21 L 11931.75,2849.12 L 11859.45,2853.28 L 11856.05,2793.37 Z" />
    <text x="11893.90" y="2821.25" class="label">電梯</text>
    <path class="room" d="M 12297.60,2705.87 L 12366.96,2701.88 L 12370.48,2763.80 L 12301.12,2767.79 L 12297.60,2705.87 Z" />
    <text x="12334.04" y="2734.83" class="label">電梯</text>
    <path class="room" d="M 11852.53,2731.46 L 11924.82,2727.30 L 11928.34,2789.21 L 11856.05,2793.37 L 11852.53,2731.46 Z" />
    <text x="11890.43" y="2760.34" class="label">電梯</text>
    <path class="room" d="M 12004.75,2664.96 L 12211.11,2653.09 L 12213.06,2687.23 L 12193.09,2688.38 L 12193.39,2693.73 L 12026.97,2703.30 L 12026.67,2697.95 L 12006.69,2699.09 L 12004.75,2664.96 Z" />
    <text x="12108.90" y="2678.20" class="label">陽台</text>
    <path class="room" d="M 12116.84,2698.13 L 12193.39,2693.73 L 12193.85,2701.76 L 12210.49,2700.81 L 12218.98,2850.07 L 12125.78,2855.42 L 12116.84,2698.13 Z M 12210.49,2700.81 L 12218.98,2850.07 L 12210.49,2700.81 L 12210.49,2700.81 Z" />
    <text x="12167.91" y="2774.58" class="label">廁所</text>
    <path class="room" d="M 11388.88,2641.59 L 11428.27,2639.32 L 11430.82,2684.12 L 11452.06,2682.90 L 11455.09,2736.18 L 11440.77,2737.00 L 11440.51,2732.32 L 11427.19,2733.08 L 11428.34,2753.16 L 11434.73,2752.79 L 11436.39,2782.05 L 11397.00,2784.31 L 11388.88,2641.59 Z" />
    <text x="11421.99" y="2711.82" class="label">陽台</text>
    <path class="room" d="M 12769.69,2607.15 L 12790.93,2605.92 L 12788.39,2561.13 L 12827.78,2558.86 L 12835.89,2701.59 L 12796.50,2703.85 L 12793.96,2659.20 L 12772.72,2660.42 L 12769.69,2607.15 Z" />
    <text x="12802.79" y="2631.36" class="label">陽台</text>
    <path class="room" d="M 12010.79,2712.29 L 12027.43,2711.33 L 12026.97,2703.30 L 12116.84,2698.13 L 12125.78,2855.42 L 12019.27,2861.55 L 12010.79,2712.29 Z" />
    <path class="room" d="M 12010.79,2712.29 L 12027.43,2711.33 L 12026.97,2703.30 L 12026.97,2703.30 L 12027.43,2711.33 L 12010.79,2712.29 L 12010.79,2712.29 Z" />
    <text x="12068.28" y="2779.84" class="label">廁所</text>
  </g>
  <g id="gis_room_B2D_9F">
    <path class="room" d="M 13985.74,2584.03 L 14076.28,2578.83 L 14084.12,2716.71 L 14077.46,2717.09 L 14078.04,2727.27 L 14000.82,2731.71 L 14000.24,2721.53 L 13993.58,2721.92 L 13985.74,2584.03 Z" />
    <text x="14034.93" y="2655.27" class="label">寢室</text>
    <path class="room" d="M 14065.70,2392.76 L 14072.35,2392.37 L 14071.86,2383.67 L 14149.08,2379.23 L 14149.65,2389.27 L 14156.30,2388.89 L 14163.64,2517.98 L 14073.11,2523.18 L 14065.70,2392.76 Z" />
    <text x="14114.67" y="2451.21" class="label">寢室</text>
    <path class="room" d="M 13975.24,2399.30 L 13981.90,2398.92 L 13981.33,2388.88 L 14058.54,2384.44 L 14059.04,2393.14 L 14065.70,2392.76 L 14073.11,2523.18 L 13982.58,2528.39 L 13975.24,2399.30 Z" />
    <text x="14024.18" y="2456.41" class="label">寢室</text>
    <path class="room" d="M 13726.14,2810.48 L 13816.67,2805.28 L 13823.97,2933.79 L 13817.32,2934.17 L 13817.89,2944.21 L 13740.67,2948.65 L 13740.10,2938.61 L 13733.44,2939.00 L 13726.14,2810.48 Z" />
    <text x="13775.06" y="2876.97" class="label">寢室</text>
    <path class="room" d="M 13635.60,2815.69 L 13726.14,2810.48 L 13733.44,2939.00 L 13726.79,2939.38 L 13727.36,2949.42 L 13650.14,2953.86 L 13649.57,2943.82 L 13642.91,2944.20 L 13635.60,2815.69 Z" />
    <text x="13684.52" y="2882.17" class="label">寢室</text>
    <path class="room" d="M 13352.97,2637.20 L 13419.34,2633.38 L 13422.86,2695.29 L 13356.49,2699.11 L 13352.97,2637.20 Z" />
    <text x="13387.91" y="2666.25" class="label">電梯</text>
    <path class="room" d="M 13694.65,2679.67 L 13761.22,2675.84 L 13764.63,2735.75 L 13698.06,2739.57 L 13694.65,2679.67 Z" />
    <text x="13729.64" y="2707.71" class="label">電梯</text>
    <path class="room" d="M 13691.13,2617.76 L 13757.70,2613.93 L 13761.22,2675.84 L 13694.65,2679.67 L 13691.13,2617.76 Z" />
    <text x="13726.18" y="2646.80" class="label">電梯</text>
    <path class="room" d="M 14139.27,2519.38 L 14163.64,2517.98 L 14161.38,2478.09 L 14196.45,2476.08 L 14204.09,2610.55 L 14169.02,2612.56 L 14166.81,2573.62 L 14142.43,2575.02 L 14139.27,2519.38 Z" />
    <text x="14171.68" y="2544.32" class="label">曬衣間</text>
    <path class="room" d="M 13406.61,2828.85 L 13497.14,2823.65 L 13504.45,2952.16 L 13497.79,2952.54 L 13498.36,2962.58 L 13421.15,2967.02 L 13420.58,2956.98 L 13413.92,2957.36 L 13406.61,2828.85 Z" />
    <text x="13455.53" y="2895.34" class="label">寢室</text>
    <path class="room" d="M 13112.92,2448.87 L 13119.98,2448.46 L 13119.41,2438.43 L 13195.43,2434.05 L 13196.00,2444.09 L 13203.25,2443.68 L 13210.59,2572.76 L 13120.26,2577.96 L 13112.92,2448.87 Z" />
    <text x="13161.76" y="2506.01" class="label">寢室</text>
    <path class="room" d="M 13203.25,2443.68 L 13210.51,2443.26 L 13209.94,2433.22 L 13286.49,2428.82 L 13287.06,2438.86 L 13293.98,2438.46 L 13301.32,2567.55 L 13210.59,2572.76 L 13203.25,2443.68 Z" />
    <text x="13252.29" y="2500.79" class="label">寢室</text>
    <path class="room" d="M 12901.39,2550.52 L 12936.45,2548.50 L 12938.72,2588.40 L 12963.10,2586.99 L 12966.27,2642.64 L 12941.88,2644.04 L 12944.11,2682.97 L 12909.04,2684.99 L 12901.39,2550.52 Z" />
    <text x="12933.83" y="2616.74" class="label">曬衣間</text>
    <path class="room" d="M 12942.80,2659.97 L 12952.05,2659.44 L 12951.15,2643.51 L 13032.63,2638.82 L 13040.41,2776.85 L 13033.42,2777.25 L 13033.99,2787.28 L 12957.30,2791.69 L 12956.72,2781.39 L 12949.71,2781.79 L 12942.80,2659.97 Z M 12943.79,2677.40 L 12944.11,2682.97 L 12944.11,2682.97 L 12943.79,2677.40 Z" />
    <text x="12991.60" y="2715.26" class="label">廁所</text>
    <path class="room" d="M 13225.75,2839.25 L 13316.47,2834.03 L 13323.78,2962.55 L 13316.73,2962.95 L 13317.30,2972.99 L 13240.08,2977.43 L 13239.51,2967.39 L 13233.05,2967.76 L 13225.75,2839.25 Z" />
    <text x="13274.76" y="2905.73" class="label">寢室</text>
    <path class="room" d="M 13816.67,2805.28 L 13907.20,2800.08 L 13914.64,2928.58 L 13907.85,2928.97 L 13908.42,2939.01 L 13831.20,2943.45 L 13830.63,2933.41 L 13823.97,2933.79 L 13816.67,2805.28 Z" />
    <text x="13865.65" y="2871.76" class="label">寢室</text>
    <path class="room" d="M 13497.14,2823.65 L 13635.60,2815.69 L 13642.91,2944.20 L 13636.25,2944.58 L 13636.83,2954.62 L 13511.68,2961.82 L 13511.11,2951.78 L 13504.45,2952.16 L 13497.14,2823.65 Z" />
    <text x="13570.03" y="2888.75" class="label">寢室</text>
    <path class="room" d="M 13316.47,2834.03 L 13406.61,2828.85 L 13413.92,2957.36 L 13407.26,2957.75 L 13407.83,2967.79 L 13330.61,2972.23 L 13330.04,2962.19 L 13323.78,2962.55 L 13316.47,2834.03 Z" />
    <text x="13365.20" y="2900.54" class="label">寢室</text>
    <path class="room" d="M 13356.49,2699.11 L 13422.86,2695.29 L 13426.27,2755.20 L 13359.90,2759.01 L 13356.49,2699.11 Z" />
    <text x="13391.38" y="2727.15" class="label">電梯</text>
    <path class="room" d="M 13623.62,2604.85 L 13690.18,2601.02 L 13699.05,2756.98 L 13632.48,2760.80 L 13623.62,2604.85 Z" />
    <path class="room" d="M 13631.66,2746.26 L 13631.66,2746.26 L 13632.48,2760.80 L 13631.66,2746.26 Z" />
    <text x="13661.33" y="2680.91" class="label">寢室</text>
    <path class="room" d="M 13213.76,2628.41 L 13286.38,2624.24 L 13295.25,2780.19 L 13229.08,2783.99 L 13228.06,2765.92 L 13221.60,2766.29 L 13213.76,2628.41 Z" />
    <text x="13254.50" y="2704.12" class="label">樓梯</text>
    <path class="room" d="M 13022.12,2454.09 L 13029.18,2453.69 L 13028.61,2443.65 L 13105.29,2439.24 L 13105.86,2449.28 L 13112.92,2448.87 L 13120.26,2577.96 L 13029.46,2583.18 L 13022.12,2454.09 Z" />
    <text x="13071.19" y="2511.21" class="label">寢室</text>
    <path class="room" d="M 13794.18,2409.71 L 13800.83,2409.32 L 13800.26,2399.28 L 13877.48,2394.85 L 13878.05,2404.89 L 13884.71,2404.50 L 13892.05,2533.59 L 13801.52,2538.79 L 13794.18,2409.71 Z M 13878.05,2404.89 L 13878.05,2404.89 L 13884.71,2404.50 L 13884.71,2404.50 L 13878.05,2404.89 Z" />
    <text x="13843.11" y="2466.82" class="label">寢室</text>
    <path class="room" d="M 13895.21,2589.24 L 13985.74,2584.03 L 13993.58,2721.92 L 13986.93,2722.30 L 13987.51,2732.47 L 13910.29,2736.91 L 13909.71,2726.74 L 13903.05,2727.12 L 13895.21,2589.24 Z" />
    <text x="13944.40" y="2660.47" class="label">寢室</text>
    <path class="room" d="M 14076.28,2578.83 L 14157.54,2574.16 L 14158.47,2590.08 L 14167.71,2589.55 L 14174.65,2711.51 L 14167.99,2711.89 L 14168.57,2722.06 L 14091.35,2726.50 L 14090.77,2716.33 L 14084.12,2716.71 L 14076.28,2578.83 Z" />
    <text x="14125.46" y="2650.33" class="label">廁所</text>
    <path class="room" d="M 13032.63,2638.82 L 13123.42,2633.61 L 13131.07,2771.50 L 13124.08,2771.90 L 13124.65,2782.06 L 13047.97,2786.47 L 13047.40,2776.44 L 13040.41,2776.85 L 13032.63,2638.82 Z M 13123.42,2633.61 L 13131.07,2771.50 L 13131.07,2771.50 L 13123.42,2633.61 Z M 13124.08,2771.90 L 13124.65,2782.06 L 13124.65,2782.06 L 13124.08,2771.90 L 13124.08,2771.90 Z" />
    <text x="13081.85" y="2710.04" class="label">寢室</text>
    <path class="room" d="M 13123.42,2633.61 L 13213.76,2628.41 L 13221.60,2766.29 L 13214.74,2766.69 L 13215.32,2776.86 L 13138.37,2781.29 L 13137.79,2771.11 L 13131.07,2771.50 L 13123.42,2633.61 Z" />
    <text x="13172.51" y="2704.85" class="label">寢室</text>
    <path class="room" d="M 12931.38,2459.31 L 12938.65,2458.89 L 12938.08,2448.85 L 13014.49,2444.46 L 13015.07,2454.50 L 13022.12,2454.09 L 13029.46,2583.18 L 12938.72,2588.40 L 12931.38,2459.31 Z" />
    <path class="room" d="M 12938.72,2588.40 L 12963.10,2586.99 L 12963.10,2586.99 L 12938.72,2588.40 Z" />
    <text x="12980.42" y="2516.43" class="label">寢室</text>
    <path class="room" d="M 13822.25,2593.43 L 13895.21,2589.24 L 13903.05,2727.12 L 13896.39,2727.50 L 13897.42,2745.57 L 13831.12,2749.39 L 13822.25,2593.43 Z" />
    <text x="13862.65" y="2669.31" class="label">樓梯</text>
    <path class="room" d="M 13884.71,2404.50 L 13891.36,2404.12 L 13890.79,2394.08 L 13968.01,2389.64 L 13968.58,2399.68 L 13975.24,2399.30 L 13982.58,2528.39 L 13892.05,2533.59 L 13884.71,2404.50 Z" />
    <path class="room" d="M 13884.71,2404.50 L 13891.36,2404.12 L 13891.08,2399.10 L 13891.36,2404.12 L 13884.71,2404.50 L 13884.71,2404.50 Z" />
    <text x="13933.64" y="2461.62" class="label">寢室</text>
    <path class="room" d="M 13418.39,2616.65 L 13485.16,2612.81 L 13494.02,2768.76 L 13427.25,2772.60 L 13418.39,2616.65 Z" />
    <text x="13456.20" y="2692.71" class="label">寢室</text>
    <path class="room" d="M 13485.16,2612.81 L 13623.62,2604.85 L 13632.48,2760.80 L 13494.02,2768.76 L 13485.16,2612.81 Z M 13603.64,2606.00 L 13604.41,2619.38 L 13624.38,2618.24 L 13623.62,2604.85 L 13603.64,2606.00 Z M 13613.54,2747.28 L 13614.36,2761.82 L 13632.48,2760.80 L 13631.66,2746.26 L 13613.54,2747.28 Z" />
    <path class="room" d="M 13485.16,2612.81 L 13505.13,2611.66 L 13505.89,2625.05 L 13485.92,2626.20 L 13485.16,2612.81 Z" />
    <path class="room" d="M 13493.19,2754.20 L 13511.32,2753.18 L 13512.14,2767.72 L 13494.02,2768.76 L 13493.19,2754.20 Z" />
    <text x="13558.82" y="2686.81" class="label">廁所</text>
  </g>
  <g id="gis_room_DB_9F">
    <path class="room" d="M 1791.46,5898.22 L 1791.53,5880.64 L 1785.05,5880.61 L 1785.44,5780.32 L 1860.97,5780.62 L 1861.09,5749.36 L 1899.95,5749.51 L 1899.37,5898.65 L 1791.46,5898.22 Z" />
    <text x="1842.50" y="5824.00" class="label">健康環境實驗室</text>
    <path class="room" d="M 2000.27,5868.57 L 2000.87,5716.04 L 2001.05,5667.85 L 2009.99,5667.89 L 2010.08,5647.05 L 2003.60,5647.02 L 2003.85,5581.90 L 2010.33,5581.92 L 2010.38,5569.55 L 2837.24,5572.83 L 2837.19,5583.90 L 2843.28,5583.92 L 2843.14,5621.04 L 2836.66,5621.02 L 2836.46,5671.16 L 2842.94,5671.19 L 2842.48,5788.42 L 2914.57,5788.70 L 2914.24,5872.19 L 2000.27,5868.57 Z" />
    <text x="2457.42" y="5720.87" class="label">平台</text>
    <path class="room" d="M 1899.95,5749.51 L 1952.93,5749.72 L 1953.06,5715.85 L 2000.87,5716.04 L 2000.15,5899.05 L 1899.37,5898.65 L 1899.95,5749.51 Z" />
    <text x="1950.12" y="5807.45" class="label">樓梯</text>
    <path class="room" d="M 2837.19,5583.90 L 2837.27,5565.66 L 2896.21,5565.90 L 2896.15,5581.01 L 2886.82,5580.97 L 2886.62,5631.37 L 2932.48,5631.56 L 2931.86,5788.77 L 2842.48,5788.42 L 2842.94,5671.19 L 2849.42,5671.22 L 2849.50,5650.38 L 2849.61,5621.07 L 2843.14,5621.04 L 2843.28,5583.92 L 2837.19,5583.90 Z" />
    <text x="2884.84" y="5677.22" class="label">樓梯</text>
    <path class="room" d="M 1785.44,5780.32 L 1785.89,5667.00 L 1792.36,5667.02 L 1792.45,5646.18 L 1785.97,5646.16 L 1786.22,5581.03 L 1792.70,5581.06 L 1792.78,5560.22 L 1786.31,5560.19 L 1786.67,5467.98 L 1834.21,5468.16 L 1834.29,5446.80 L 1956.71,5447.29 L 1956.63,5468.65 L 2004.30,5468.84 L 2003.93,5561.06 L 1997.46,5561.03 L 1997.38,5581.87 L 2003.85,5581.90 L 2003.60,5647.02 L 1997.12,5647.00 L 1997.04,5667.84 L 2001.05,5667.85 L 2000.87,5716.04 L 1953.06,5715.85 L 1953.17,5688.50 L 1821.07,5687.98 L 1820.71,5780.46 L 1785.44,5780.32 Z" />
    <text x="1894.87" y="5613.63" class="label">建築設計與理論研究室</text>
  </g>
  <g id="gis_room_EL_9F">
    <path class="room" d="M 14035.85,6797.40 L 14036.46,6642.66 L 14057.83,6642.74 L 14057.90,6627.11 L 14111.33,6627.33 L 14110.66,6797.69 L 14035.85,6797.40 Z" />
    <text x="14073.59" y="6712.40" class="label">蔡淑雲老師研究室</text>
    <path class="room" d="M 14780.16,7167.68 L 14780.58,7061.79 L 14913.74,7062.32 L 14913.65,7086.42 L 14918.83,7086.44 L 14918.62,7138.54 L 14906.97,7138.49 L 14906.85,7168.19 L 14780.16,7167.68 Z" />
    <text x="14849.49" y="7114.99" class="label">光學薄膜實驗室(III)</text>
    <path class="room" d="M 14260.28,6798.29 L 14260.89,6643.55 L 14279.35,6643.63 L 14279.41,6628.00 L 14335.76,6628.22 L 14335.08,6798.59 L 14260.28,6798.29 Z" />
    <text x="14298.02" y="6713.29" class="label">陳美杏老師研究室</text>
    <path class="room" d="M 14409.90,6798.89 L 14410.57,6628.52 L 14477.61,6628.79 L 14477.54,6644.42 L 14485.32,6644.45 L 14484.71,6799.19 L 14409.90,6798.89 Z" />
    <text x="14447.61" y="6713.86" class="label">李穎玟老師研究室</text>
    <path class="room" d="M 14780.93,6971.92 L 14781.35,6866.02 L 14908.04,6866.53 L 14907.92,6896.23 L 14919.58,6896.27 L 14919.38,6948.38 L 14914.19,6948.35 L 14914.10,6972.45 L 14780.93,6971.92 Z" />
    <text x="14850.26" y="6919.24" class="label">光纖與雷射光學研究室</text>
    <path class="room" d="M 14482.99,7232.14 L 14678.34,7232.93 L 14677.61,7416.97 L 14678.00,7416.97 L 14677.92,7436.51 L 14504.08,7435.81 L 14504.16,7416.27 L 14497.81,7416.25 L 14497.93,7386.94 L 14482.38,7386.88 L 14482.99,7232.14 Z" />
    <text x="14580.36" y="7334.33" class="label">近代奈米光子實驗室</text>
    <path class="room" d="M 14335.76,6628.22 L 14335.96,6577.42 L 14410.77,6577.73 L 14410.57,6628.52 L 14335.76,6628.22 Z" />
    <text x="14373.26" y="6602.97" class="label">陽台/緊急進口</text>
    <path class="room" d="M 14110.66,6797.69 L 14111.33,6627.33 L 14186.14,6627.62 L 14185.47,6797.99 L 14110.66,6797.69 Z" />
    <text x="14148.40" y="6712.66" class="label">陳建銘老師研究室</text>
    <path class="room" d="M 14410.57,6628.52 L 14410.77,6577.73 L 14487.13,6578.03 L 14487.00,6613.20 L 14477.67,6613.16 L 14477.61,6628.79 L 14410.57,6628.52 Z" />
    <text x="14448.85" y="6603.26" class="label">陽台</text>
    <path class="room" d="M 14186.14,6627.62 L 14186.34,6576.83 L 14261.15,6577.13 L 14261.01,6612.29 L 14256.16,6612.28 L 14256.09,6627.90 L 14186.14,6627.62 Z" />
    <text x="14223.65" y="6602.37" class="label">陽台</text>
    <path class="room" d="M 13480.51,6861.21 L 13481.39,6638.48 L 13529.36,6638.68 L 13529.31,6640.63 L 13531.25,6640.64 L 13530.39,6859.46 L 13528.44,6859.45 L 13528.44,6861.40 L 13480.51,6861.21 Z M 13529.31,6640.63 L 13529.31,6640.63 L 13529.36,6638.68 L 13529.32,6638.68 L 13529.31,6640.63 Z" />
    <text x="13505.88" y="6749.94" class="label">陽台/緊急進口</text>
    <path class="room" d="M 14261.15,6577.13 L 14335.96,6577.42 L 14335.76,6628.22 L 14279.41,6628.00 L 14279.47,6612.37 L 14261.01,6612.29 L 14261.15,6577.13 Z" />
    <text x="14298.49" y="6602.68" class="label">陽台</text>
    <path class="room" d="M 13531.49,6574.21 L 13793.83,6575.26 L 14111.53,6576.53 L 14111.33,6627.33 L 14057.90,6627.11 L 14057.96,6611.48 L 14034.64,6611.39 L 14034.58,6625.72 L 13793.64,6624.75 L 13793.69,6610.42 L 13779.45,6610.37 L 13779.51,6593.44 L 13543.75,6592.49 L 13543.68,6609.43 L 13531.37,6609.38 L 13531.49,6574.21 Z" />
    <text x="13821.45" y="6600.77" class="label">平台</text>
    <path class="room" d="M 13623.47,7333.95 L 13623.70,7273.91 L 13693.65,7274.18 L 13693.42,7334.23 L 13623.47,7333.95 Z" />
    <text x="13658.56" y="7304.07" class="label">無障礙廁所</text>
    <path class="room" d="M 13543.68,6609.43 L 13543.75,6592.49 L 13779.51,6593.44 L 13779.45,6610.37 L 13543.68,6609.43 Z" />
    <text x="13661.60" y="6601.43" class="label">花台</text>
    <path class="room" d="M 13542.91,7133.04 L 13543.11,7080.94 L 13548.30,7080.96 L 13548.39,7056.86 L 13771.20,7057.75 L 13771.10,7081.85 L 13776.29,7081.87 L 13776.08,7133.97 L 13764.42,7133.92 L 13764.31,7163.23 L 13717.02,7163.04 L 13717.07,7150.02 L 13554.50,7149.37 L 13554.57,7133.09 L 13542.91,7133.04 Z" />
    <text x="13659.60" y="7110.05" class="label">甲樓梯間</text>
    <path class="room" d="M 14185.47,6797.99 L 14186.14,6627.62 L 14256.09,6627.90 L 14256.03,6643.54 L 14260.89,6643.55 L 14260.28,6798.29 L 14185.47,6797.99 Z" />
    <text x="14223.18" y="6712.96" class="label">鄭鈺潔老師研究室</text>
    <path class="room" d="M 14034.14,7230.35 L 14243.08,7231.18 L 14242.86,7286.93 L 14265.14,7287.02 L 14264.75,7386.01 L 14253.09,7385.96 L 14252.98,7415.27 L 14242.74,7415.23 L 14242.67,7434.77 L 14068.82,7434.07 L 14068.90,7414.53 L 14054.78,7414.48 L 14054.90,7385.17 L 14033.52,7385.09 L 14034.14,7230.35 Z" />
    <text x="14149.33" y="7332.56" class="label">生醫奈米光學實驗室</text>
    <path class="room" d="M 14485.00,6724.56 L 14485.32,6644.45 L 14500.86,6644.51 L 14500.98,6615.21 L 14687.52,6615.95 L 14687.40,6645.26 L 14716.55,6645.38 L 14716.37,6689.92 L 14688.78,6689.81 L 14688.64,6725.37 L 14485.00,6724.56 Z" />
    <text x="14600.77" y="6670.29" class="label">乙樓梯間</text>
    <path class="room" d="M 13658.38,7414.85 L 13658.65,7347.64 L 13662.28,7347.65 L 13662.33,7334.11 L 13693.42,7334.23 L 13693.65,7274.18 L 13789.13,7274.57 L 13788.69,7384.11 L 13763.43,7384.01 L 13763.37,7399.64 L 13720.62,7399.47 L 13720.64,7394.26 L 13692.14,7394.14 L 13692.06,7414.98 L 13658.38,7414.85 Z" />
    <text x="13723.75" y="7344.58" class="label">男廁</text>
    <path class="room" d="M 13528.32,7383.07 L 13528.75,7273.52 L 13623.70,7273.89 L 13623.41,7347.50 L 13658.65,7347.64 L 13658.38,7414.85 L 13624.70,7414.71 L 13624.78,7393.87 L 13596.28,7393.76 L 13596.27,7398.97 L 13553.52,7398.80 L 13553.58,7383.17 L 13528.32,7383.07 Z" />
    <text x="13593.48" y="7344.19" class="label">女廁</text>
    <path class="room" d="M 14931.85,7233.94 L 14932.10,7169.86 L 14934.04,7169.86 L 14934.15,7156.19 L 14986.61,7156.40 L 14985.53,7418.20 L 14933.06,7417.99 L 14933.17,7390.64 L 14950.66,7390.58 L 14951.28,7234.02 L 14931.85,7233.94 Z" />
    <text x="14959.23" y="7287.19" class="label">陽台</text>
    <path class="room" d="M 14832.82,6725.95 L 14833.19,6630.21 L 14908.98,6630.52 L 14908.91,6646.15 L 14926.40,6646.21 L 14926.09,6726.32 L 14832.82,6725.95 Z" />
    <text x="14879.61" y="6678.27" class="label">緊急升降機</text>
    <path class="room" d="M 13543.66,6942.87 L 13543.86,6890.77 L 13555.52,6890.82 L 13555.59,6875.19 L 13623.59,6875.46 L 13623.30,6949.05 L 13548.82,6948.76 L 13548.84,6942.89 L 13543.66,6942.87 Z" />
    <text x="13583.63" y="6912.12" class="label">無障礙電梯</text>
    <path class="room" d="M 14034.99,7013.87 L 14035.47,6892.74 L 14056.84,6892.82 L 14056.91,6877.19 L 14255.10,6877.99 L 14255.04,6893.62 L 14278.36,6893.71 L 14278.42,6878.08 L 14336.45,6878.31 L 14336.20,6942.13 L 14375.32,6942.29 L 14375.03,7015.23 L 14034.99,7013.87 Z" />
    <text x="14205.16" y="6946.21" class="label">光纖與雷射光學實驗室</text>
    <path class="room" d="M 13697.14,6949.35 L 13697.43,6875.76 L 13765.44,6876.03 L 13765.38,6891.66 L 13777.04,6891.71 L 13776.83,6943.81 L 13771.65,6943.78 L 13771.63,6949.65 L 13697.14,6949.35 Z" />
    <text x="13737.09" y="6912.70" class="label">無障礙電梯</text>
    <path class="room" d="M 13623.30,6949.05 L 13623.59,6875.46 L 13697.43,6875.76 L 13697.14,6949.35 L 13623.30,6949.05 Z" />
    <text x="13660.37" y="6912.40" class="label">無障礙電梯</text>
    <path class="room" d="M 14032.55,7466.88 L 14032.75,7416.34 L 14054.77,7416.43 L 14054.78,7414.48 L 14068.90,7414.53 L 14068.82,7434.07 L 14242.67,7434.77 L 14242.74,7415.23 L 14252.98,7415.27 L 14252.97,7417.22 L 14276.29,7417.32 L 14276.30,7415.36 L 14286.53,7415.41 L 14286.45,7434.94 L 14460.29,7435.64 L 14460.37,7416.10 L 14474.52,7416.16 L 14474.45,7418.11 L 14497.80,7418.20 L 14497.81,7416.25 L 14504.16,7416.27 L 14504.08,7435.81 L 14677.92,7436.51 L 14678.00,7416.97 L 14688.23,7417.01 L 14688.23,7418.97 L 14714.13,7419.07 L 14713.93,7469.60 L 14032.55,7466.88 Z M 14474.49,7417.13 L 14474.52,7416.16 L 14474.49,7416.16 L 14474.49,7417.13 Z" />
    <text x="14373.34" y="7442.04" class="label">陽台</text>
    <path class="room" d="M 14111.33,6627.33 L 14111.53,6576.53 L 14186.34,6576.83 L 14186.14,6627.62 L 14111.33,6627.33 Z" />
    <text x="14148.84" y="6602.08" class="label">陽台</text>
    <path class="room" d="M 14335.08,6798.59 L 14335.76,6628.22 L 14410.57,6628.52 L 14409.90,6798.89 L 14335.08,6798.59 Z" />
    <text x="14372.83" y="6713.56" class="label">王子建老師研究室</text>
    <path class="room" d="M 14034.99,7013.87 L 14375.03,7015.23 L 14374.75,7088.17 L 14335.62,7088.02 L 14335.37,7151.84 L 14277.34,7151.61 L 14277.40,7135.97 L 14254.08,7135.88 L 14254.02,7151.51 L 14055.82,7150.72 L 14055.89,7135.09 L 14034.51,7135.01 L 14034.99,7013.87 Z" />
    <text x="14204.77" y="7082.85" class="label">光子技術實驗室</text>
    <path class="room" d="M 14375.03,7015.23 L 14610.28,7016.17 L 14612.22,7016.18 L 14611.68,7152.94 L 14498.85,7152.49 L 14498.91,7136.86 L 14475.60,7136.77 L 14475.53,7152.40 L 14413.62,7152.15 L 14413.87,7088.33 L 14374.75,7088.17 L 14375.03,7015.23 Z" />
    <text x="14493.48" y="7084.09" class="label">積體光電量測實驗室</text>
    <path class="room" d="M 14722.25,7398.26 L 14722.90,7233.10 L 14951.28,7234.02 L 14950.66,7390.71 L 14933.17,7390.64 L 14933.18,7388.68 L 14905.98,7388.57 L 14905.93,7398.99 L 14722.25,7398.26 Z M 14933.17,7390.64 L 14950.66,7390.71 L 14951.28,7234.02 L 14951.28,7234.02 L 14950.66,7390.58 L 14933.17,7390.64 Z" />
    <text x="14836.76" y="7316.05" class="label">光學系統開發實驗室</text>
    <path class="room" d="M 14375.03,7015.23 L 14375.32,6942.29 L 14414.44,6942.45 L 14495.80,6942.77 L 14495.51,7015.71 L 14375.03,7015.23 Z" />
    <text x="14435.41" y="6979.00" class="label">積體光電實驗室</text>
    <path class="room" d="M 13530.39,6859.46 L 13531.25,6640.64 L 13556.51,6640.74 L 13556.57,6625.11 L 13766.43,6625.95 L 13766.37,6641.58 L 13791.63,6641.68 L 13790.76,6860.50 L 13765.50,6860.40 L 13765.44,6876.03 L 13734.09,6875.90 L 13734.23,6840.47 L 13586.04,6839.88 L 13586.04,6875.31 L 13555.59,6875.19 L 13555.65,6859.56 L 13530.39,6859.46 Z" />
    <text x="13661.01" y="6750.57" class="label">光學設計與模擬教學實驗室</text>
    <path class="room" d="M 14414.44,6942.45 L 14414.70,6878.62 L 14476.62,6878.87 L 14476.68,6863.24 L 14500.00,6863.33 L 14499.93,6878.97 L 14686.47,6879.71 L 14686.10,6973.49 L 14695.30,6973.53 L 14695.13,7016.51 L 14495.51,7015.71 L 14495.80,6942.77 L 14414.44,6942.45 Z M 14476.56,6894.50 L 14499.87,6894.60 L 14500.00,6863.33 L 14476.68,6863.24 L 14476.56,6894.50 Z" />
    <text x="14554.87" y="6939.88" class="label">積體光電實驗室</text>
    <path class="room" d="M 14265.14,7287.02 L 14287.43,7287.11 L 14287.64,7231.36 L 14482.99,7232.14 L 14482.38,7386.88 L 14474.59,7386.85 L 14474.51,7416.16 L 14460.37,7416.10 L 14460.29,7435.64 L 14286.45,7434.94 L 14286.53,7415.41 L 14276.30,7415.36 L 14276.41,7386.06 L 14264.75,7386.01 L 14265.14,7287.02 Z M 14474.49,7416.16 L 14474.51,7416.16 L 14474.55,7401.50 L 14474.49,7416.16 Z" />
    <text x="14373.87" y="7333.50" class="label">液晶非線性光學實驗室</text>
  </g>
  <g id="gis_room_GB_9F">
    <path class="room" d="M 4196.38,6218.65 L 4196.99,6062.35 L 4412.68,6063.21 L 4412.60,6082.09 L 4423.61,6082.14 L 4423.07,6219.55 L 4196.38,6218.65 Z" />
    <text x="4309.99" y="6140.95" class="label">綜合工藝教室</text>
    <path class="room" d="M 4299.67,5974.84 L 4299.90,5915.90 L 4353.02,5916.11 L 4352.75,5984.04 L 4301.58,5983.83 L 4301.62,5974.84 L 4299.67,5974.84 Z" />
    <text x="4326.34" y="5949.97" class="label">電梯</text>
    <path class="room" d="M 4300.14,5856.96 L 4353.25,5857.17 L 4353.02,5916.11 L 4299.90,5915.90 L 4300.14,5856.96 Z" />
    <text x="4326.58" y="5886.53" class="label">電梯</text>
    <path class="room" d="M 4300.14,5856.96 L 4300.28,5821.27 L 4366.60,5821.53 L 4366.46,5857.22 L 4300.14,5856.96 Z" />
    <text x="4333.37" y="5839.25" class="label">封閉空間</text>
    <path class="room" d="M 4509.19,6061.64 L 4509.68,5937.51 L 4602.95,5937.88 L 4602.46,6062.01 L 4592.74,6061.97 L 4592.74,6064.18 L 4518.90,6063.89 L 4518.91,6061.67 L 4509.19,6061.64 Z" />
    <text x="4556.07" y="6000.84" class="label">綜合工藝教室</text>
    <path class="room" d="M 4291.24,5713.65 L 4510.56,5714.52 L 4509.99,5857.79 L 4366.46,5857.22 L 4366.60,5821.53 L 4300.28,5821.27 L 4300.34,5805.51 L 4302.28,5805.52 L 4302.36,5784.68 L 4290.96,5784.63 L 4291.24,5713.65 Z" />
    <text x="4400.76" y="5785.72" class="label">陶瓷工藝創意實驗室</text>
    <path class="room" d="M 3357.49,6013.82 L 3358.10,5857.52 L 3451.63,5857.89 L 3451.01,6014.19 L 3357.49,6013.82 Z" />
    <text x="3404.56" y="5935.86" class="label">樓梯</text>
    <path class="room" d="M 4509.68,5937.51 L 4510.43,5745.39 L 4603.70,5745.76 L 4602.95,5937.88 L 4509.68,5937.51 Z" />
    <text x="4556.69" y="5841.63" class="label">樓梯</text>
    <path class="room" d="M 3399.29,5857.68 L 3399.54,5793.47 L 3451.88,5793.68 L 3451.92,5783.26 L 4289.40,5786.58 L 4289.33,5805.47 L 4300.34,5805.51 L 4299.67,5974.84 L 4288.66,5974.79 L 4288.58,5995.63 L 4301.53,5995.69 L 4301.58,5983.83 L 4352.75,5984.04 L 4353.25,5857.17 L 4509.99,5857.79 L 4509.69,5935.55 L 4509.19,6061.64 L 4505.95,6061.62 L 4505.94,6063.84 L 4425.63,6063.52 L 4425.64,6061.30 L 4412.68,6061.25 L 4412.68,6063.21 L 4196.99,6062.35 L 4196.93,6077.07 L 3398.44,6073.90 L 3398.68,6013.99 L 3451.01,6014.19 L 3451.63,5857.89 L 3399.29,5857.68 Z" />
    <text x="3954.22" y="5930.16" class="label">屋頂避難平台</text>
  </g>
  <g id="gis_room_HR_9F">
    <path class="room" d="M 3001.31,1510.53 L 3001.92,1354.23 L 3014.87,1354.28 L 3014.98,1328.23 L 3080.40,1328.49 L 3080.42,1321.00 L 3092.73,1321.05 L 3091.89,1534.98 L 3014.17,1534.68 L 3014.26,1510.58 L 3001.31,1510.53 Z" />
    <text x="3047.02" y="1427.99" class="label">朴維鎮老師研究室</text>
    <path class="room" d="M 3000.29,1771.03 L 3000.95,1601.06 L 3091.63,1601.41 L 3090.86,1797.45 L 3013.14,1797.14 L 3013.24,1771.09 L 3000.29,1771.03 Z" />
    <text x="3045.96" y="1699.25" class="label">黃乾怡老師研究室</text>
    <path class="room" d="M 2637.57,1769.60 L 2638.23,1599.62 L 2728.91,1599.98 L 2728.14,1796.01 L 2650.42,1795.70 L 2650.52,1769.65 L 2637.57,1769.60 Z" />
    <text x="2683.24" y="1697.81" class="label">財務資訊管理研究室</text>
    <path class="room" d="M 2819.95,1509.81 L 2820.56,1353.51 L 2833.52,1353.56 L 2833.62,1327.51 L 2911.34,1327.82 L 2910.53,1534.27 L 2832.81,1533.96 L 2832.90,1509.86 L 2819.95,1509.81 Z" />
    <text x="2865.64" y="1430.89" class="label">科技與策略管理研究室</text>
    <path class="room" d="M 2467.22,1768.92 L 2467.89,1598.94 L 2547.55,1599.26 L 2546.79,1793.33 L 2469.07,1793.03 L 2469.16,1768.93 L 2467.22,1768.92 Z" />
    <text x="2507.39" y="1696.14" class="label">行銷研究與消費需求分析研究室</text>
    <path class="room" d="M 2293.42,1325.37 L 2294.09,1156.55 L 2318.70,1156.65 L 2318.69,1159.25 L 2348.49,1159.37 L 2347.83,1327.53 L 2318.03,1327.42 L 2318.04,1325.46 L 2293.42,1325.37 Z" />
    <text x="2320.96" y="1242.04" class="label">陽台</text>
    <path class="room" d="M 2291.41,1507.71 L 2291.93,1376.42 L 2293.87,1376.43 L 2293.97,1351.42 L 2317.94,1351.51 L 2318.03,1327.42 L 2393.81,1327.72 L 2393.16,1495.74 L 2358.18,1495.60 L 2358.03,1532.08 L 2317.23,1531.91 L 2317.32,1507.82 L 2291.41,1507.71 Z" />
    <text x="2342.61" y="1429.75" class="label">特別安全梯</text>
    <path class="room" d="M 3246.84,1498.96 L 3247.50,1331.11 L 3323.28,1331.41 L 3323.19,1355.50 L 3349.09,1355.60 L 3348.48,1511.91 L 3322.57,1511.80 L 3322.48,1535.90 L 3281.67,1535.74 L 3281.81,1499.09 L 3246.84,1498.96 Z" />
    <text x="3297.97" y="1433.51" class="label">特別安全梯</text>
    <path class="room" d="M 2546.79,1793.33 L 2547.55,1599.26 L 2638.23,1599.62 L 2637.57,1769.60 L 2624.61,1769.55 L 2624.52,1793.64 L 2546.79,1793.33 Z" />
    <text x="2592.51" y="1696.45" class="label">張瑋倫老師研究室</text>
    <path class="room" d="M 2910.53,1534.27 L 2911.34,1327.82 L 2989.07,1328.12 L 2988.97,1354.17 L 3001.92,1354.23 L 3001.31,1510.53 L 2988.35,1510.48 L 2988.26,1534.57 L 2910.53,1534.27 Z" />
    <text x="2956.23" y="1431.19" class="label">智慧分析研究室</text>
    <path class="room" d="M 2290.39,1768.22 L 2290.61,1712.22 L 2375.46,1712.56 L 2375.24,1770.52 L 2392.08,1770.59 L 2391.98,1794.67 L 2316.20,1794.37 L 2316.30,1768.32 L 2290.39,1768.22 Z" />
    <text x="2341.23" y="1753.45" class="label">電梯</text>
    <path class="room" d="M 2729.17,1533.55 L 2729.98,1327.10 L 2807.71,1327.40 L 2807.61,1353.46 L 2820.56,1353.51 L 2819.95,1509.81 L 2806.99,1509.76 L 2806.90,1533.86 L 2729.17,1533.55 Z" />
    <text x="2774.87" y="1430.48" class="label">全球金融與企業治理研究室</text>
    <path class="room" d="M 3247.50,1331.11 L 3247.63,1297.24 L 3290.05,1297.41 L 3289.92,1331.28 L 3247.50,1331.11 Z" />
    <text x="3268.78" y="1314.26" class="label">電力</text>
    <path class="room" d="M 3118.52,1096.52 L 3219.30,976.71 L 3224.10,980.85 L 3228.87,985.04 L 3233.58,989.28 L 3238.26,993.57 L 3242.88,997.91 L 3247.46,1002.30 L 3252.00,1006.74 L 3256.49,1011.22 L 3260.93,1015.75 L 3265.32,1020.33 L 3269.67,1024.95 L 3273.97,1029.62 L 3278.22,1034.34 L 3282.42,1039.10 L 3286.57,1043.90 L 3261.92,1064.53 L 3270.21,1074.54 L 3193.54,1138.70 L 3185.25,1128.69 L 3166.82,1144.12 L 3163.82,1140.73 L 3160.79,1137.37 L 3157.73,1134.04 L 3154.63,1130.74 L 3151.50,1127.47 L 3148.34,1124.23 L 3145.15,1121.02 L 3141.92,1117.84 L 3138.67,1114.70 L 3135.38,1111.59 L 3132.07,1108.51 L 3128.73,1105.46 L 3125.35,1102.44 L 3121.95,1099.46 L 3118.52,1096.52 Z" />
    <text x="3202.54" y="1060.42" class="label">研究室</text>
    <path class="room" d="M 2979.88,1015.30 L 3033.86,867.97 L 3039.79,870.21 L 3045.69,872.50 L 3051.57,874.86 L 3057.43,877.28 L 3063.25,879.76 L 3069.06,882.30 L 3074.83,884.90 L 3080.58,887.57 L 3086.30,890.29 L 3091.99,893.08 L 3097.66,895.92 L 3103.29,898.83 L 3108.89,901.79 L 3114.46,904.82 L 3119.99,907.90 L 3103.85,935.76 L 3115.05,942.31 L 3064.73,1029.15 L 3053.54,1022.59 L 3041.47,1043.42 L 3037.50,1041.27 L 3033.50,1039.15 L 3029.49,1037.08 L 3025.45,1035.04 L 3021.40,1033.05 L 3017.33,1031.09 L 3013.24,1029.17 L 3009.13,1027.29 L 3005.00,1025.46 L 3000.86,1023.66 L 2996.69,1021.91 L 2992.52,1020.20 L 2988.32,1018.53 L 2984.11,1016.89 L 2979.88,1015.30 Z M 3103.85,935.76 L 3116.90,913.25 L 3116.90,913.25 L 3103.85,935.76 Z" />
    <text x="3049.94" y="955.70" class="label">王貞淑老師研究室</text>
    <path class="room" d="M 3289.92,1331.28 L 3290.05,1297.41 L 3349.32,1297.64 L 3349.20,1329.55 L 3323.29,1329.45 L 3323.28,1331.41 L 3289.92,1331.28 Z" />
    <text x="3319.62" y="1314.41" class="label">撒水</text>
    <path class="room" d="M 2464.78,860.67 L 2468.06,858.79 L 2469.57,857.92 L 2471.08,857.05 L 2472.60,856.18 L 2474.11,855.31 L 2475.62,854.44 L 2477.13,853.57 L 2478.64,852.70 L 2480.15,851.83 L 2481.66,850.96 L 2483.17,850.09 L 2484.68,849.22 L 2486.20,848.35 L 2487.71,847.48 L 2489.22,846.62 L 2490.73,845.75 L 2493.36,844.30 L 2495.99,842.87 L 2498.63,841.45 L 2501.27,840.04 L 2503.92,838.64 L 2506.58,837.25 L 2509.25,835.88 L 2511.91,834.52 L 2514.59,833.17 L 2517.27,831.83 L 2519.96,830.50 L 2522.65,829.19 L 2525.35,827.88 L 2528.05,826.59 L 2530.76,825.31 L 2535.29,823.21 L 2539.83,821.14 L 2544.38,819.11 L 2548.95,817.11 L 2553.54,815.14 L 2558.14,813.21 L 2562.75,811.31 L 2567.37,809.44 L 2572.02,807.61 L 2576.67,805.82 L 2581.33,804.06 L 2586.01,802.33 L 2590.70,800.64 L 2595.41,798.98 L 2600.12,797.36 L 2606.06,795.37 L 2612.01,793.44 L 2617.98,791.56 L 2623.97,789.74 L 2629.97,787.98 L 2635.99,786.27 L 2642.03,784.61 L 2648.08,783.02 L 2654.14,781.48 L 2660.22,779.99 L 2666.31,778.57 L 2672.42,777.19 L 2678.54,775.88 L 2684.66,774.62 L 2690.80,773.42 L 2716.54,768.96 L 2718.50,768.66 L 2720.45,768.37 L 2722.40,768.08 L 2724.36,767.79 L 2726.31,767.51 L 2728.27,767.24 L 2730.23,766.97 L 2732.19,766.71 L 2734.15,766.46 L 2736.11,766.21 L 2738.07,765.96 L 2740.03,765.72 L 2741.99,765.49 L 2743.95,765.27 L 2745.91,765.05 L 2749.26,764.68 L 2752.60,764.34 L 2755.95,764.01 L 2759.29,763.69 L 2762.64,763.40 L 2765.99,763.12 L 2769.35,762.86 L 2772.70,762.61 L 2776.06,762.38 L 2779.41,762.17 L 2782.77,761.97 L 2786.12,761.80 L 2789.48,761.63 L 2792.84,761.49 L 2796.20,761.36 L 2800.13,761.23 L 2804.06,761.12 L 2807.99,761.04 L 2811.92,760.98 L 2815.85,760.95 L 2819.78,760.93 L 2823.71,760.94 L 2827.64,760.97 L 2831.57,761.03 L 2835.50,761.10 L 2839.43,761.21 L 2843.36,761.33 L 2847.29,761.48 L 2851.21,761.65 L 2855.14,761.84 L 2856.55,761.91 L 2857.95,761.99 L 2859.35,762.07 L 2860.76,762.15 L 2862.16,762.24 L 2863.57,762.33 L 2864.97,762.42 L 2866.38,762.52 L 2867.78,762.61 L 2869.18,762.71 L 2870.58,762.82 L 2871.99,762.92 L 2873.39,763.04 L 2874.79,763.15 L 2876.20,763.26 L 2877.97,763.41 L 2879.74,763.57 L 2881.51,763.73 L 2883.29,763.89 L 2885.06,764.06 L 2886.83,764.24 L 2888.60,764.41 L 2890.37,764.60 L 2892.14,764.78 L 2893.91,764.98 L 2895.67,765.17 L 2897.44,765.38 L 2899.21,765.58 L 2900.97,765.79 L 2902.74,766.01 L 2904.51,766.23 L 2906.27,766.45 L 2908.04,766.68 L 2909.80,766.92 L 2911.56,767.16 L 2913.33,767.40 L 2915.09,767.65 L 2916.85,767.90 L 2918.61,768.16 L 2920.37,768.42 L 2922.13,768.69 L 2923.89,768.96 L 2925.65,769.24 L 2927.40,769.52 L 2929.16,769.81 L 2930.77,770.10 L 2932.38,770.39 L 2934.00,770.68 L 2935.61,770.98 L 2937.22,771.27 L 2938.84,771.56 L 2940.45,771.86 L 2942.06,772.15 L 2943.68,772.44 L 2945.29,772.73 L 2946.90,773.03 L 2948.51,773.32 L 2950.13,773.61 L 2951.74,773.90 L 2953.35,774.20 L 2956.30,774.78 L 2959.24,775.37 L 2962.18,775.98 L 2965.12,776.60 L 2968.06,777.24 L 2970.99,777.88 L 2973.92,778.55 L 2976.85,779.22 L 2979.77,779.91 L 2982.69,780.62 L 2985.61,781.33 L 2988.52,782.06 L 2991.43,782.80 L 2994.34,783.56 L 2997.24,784.33 L 3001.05,785.36 L 3004.84,786.41 L 3008.63,787.48 L 3012.42,788.57 L 3016.19,789.69 L 3019.97,790.83 L 3023.73,791.99 L 3027.49,793.17 L 3031.24,794.37 L 3034.98,795.60 L 3038.72,796.85 L 3042.45,798.12 L 3046.17,799.41 L 3049.88,800.72 L 3053.59,802.05 L 3060.53,804.62 L 3067.44,807.26 L 3074.33,809.98 L 3081.18,812.77 L 3088.00,815.64 L 3094.80,818.58 L 3101.55,821.60 L 3108.28,824.69 L 3114.97,827.86 L 3121.63,831.10 L 3128.25,834.41 L 3134.83,837.79 L 3141.38,841.25 L 3147.89,844.78 L 3154.36,848.37 L 3155.86,849.26 L 3157.37,850.14 L 3158.87,851.02 L 3160.38,851.90 L 3161.89,852.78 L 3163.39,853.67 L 3164.89,854.55 L 3166.40,855.43 L 3167.91,856.31 L 3169.41,857.19 L 3170.91,858.07 L 3172.42,858.95 L 3173.92,859.84 L 3175.43,860.72 L 3176.94,861.60 L 3185.98,867.20 L 3194.93,872.95 L 3203.80,878.83 L 3212.57,884.86 L 3221.25,891.02 L 3229.83,897.32 L 3238.30,903.75 L 3246.68,910.32 L 3254.96,917.01 L 3263.13,923.84 L 3271.19,930.80 L 3279.14,937.88 L 3286.98,945.09 L 3294.71,952.41 L 3302.32,959.86 L 3281.47,981.02 L 3283.89,983.46 L 3286.30,985.91 L 3288.70,988.37 L 3291.08,990.85 L 3293.46,993.34 L 3295.82,995.84 L 3298.16,998.35 L 3300.50,1000.87 L 3302.82,1003.40 L 3305.13,1005.95 L 3307.43,1008.51 L 3309.71,1011.08 L 3311.98,1013.66 L 3314.24,1016.25 L 3316.48,1018.86 L 3286.57,1043.90 L 3278.22,1034.34 L 3269.67,1024.95 L 3260.94,1015.75 L 3252.01,1006.74 L 3242.89,997.92 L 3233.59,989.29 L 3224.11,980.86 L 3214.46,972.63 L 3204.64,964.62 L 3194.65,956.80 L 3184.50,949.21 L 3174.19,941.83 L 3163.73,934.67 L 3153.13,927.73 L 3142.38,921.02 L 3139.28,926.36 L 3116.90,913.25 L 3119.99,907.90 L 3108.89,901.80 L 3097.66,895.93 L 3086.31,890.30 L 3074.85,884.91 L 3063.27,879.76 L 3051.59,874.87 L 3039.81,870.22 L 3027.94,865.82 L 3015.97,861.67 L 3003.92,857.78 L 2991.80,854.14 L 2979.59,850.76 L 2967.33,847.64 L 2954.99,844.78 L 2942.61,842.18 L 2942.53,842.59 L 2942.45,842.99 L 2942.37,843.40 L 2942.29,843.80 L 2942.21,844.21 L 2942.14,844.62 L 2942.06,845.02 L 2941.99,845.43 L 2941.92,845.83 L 2941.85,846.24 L 2941.78,846.64 L 2941.71,847.05 L 2941.64,847.46 L 2941.58,847.87 L 2941.51,848.27 L 2939.82,847.93 L 2938.13,847.59 L 2936.43,847.26 L 2934.73,846.93 L 2933.04,846.61 L 2931.34,846.29 L 2929.64,845.98 L 2927.94,845.67 L 2926.24,845.37 L 2924.54,845.07 L 2922.84,844.77 L 2921.13,844.49 L 2919.43,844.20 L 2917.72,843.92 L 2916.01,843.65 L 2917.11,837.56 L 2910.86,836.58 L 2904.60,835.67 L 2898.33,834.82 L 2892.05,834.04 L 2885.76,833.32 L 2879.47,832.67 L 2873.17,832.09 L 2866.87,831.57 L 2860.56,831.13 L 2854.24,830.75 L 2847.92,830.43 L 2841.60,830.18 L 2835.28,830.00 L 2828.95,829.89 L 2822.63,829.84 L 2816.30,829.84 L 2809.97,829.90 L 2803.65,830.03 L 2797.32,830.23 L 2791.00,830.49 L 2784.68,830.83 L 2778.36,831.22 L 2772.05,831.69 L 2765.75,832.22 L 2759.45,832.82 L 2753.16,833.48 L 2746.87,834.22 L 2740.59,835.01 L 2734.32,835.88 L 2728.06,836.81 L 2728.08,836.94 L 2728.15,837.34 L 2728.21,837.74 L 2728.27,838.13 L 2728.33,838.53 L 2728.40,838.93 L 2728.47,839.33 L 2728.53,839.73 L 2728.60,840.13 L 2728.67,840.52 L 2728.74,840.92 L 2728.81,841.32 L 2728.88,841.72 L 2728.96,842.11 L 2729.03,842.51 L 2729.11,842.91 L 2727.40,843.17 L 2725.69,843.43 L 2723.99,843.70 L 2722.28,843.98 L 2720.58,844.26 L 2718.87,844.54 L 2717.17,844.83 L 2715.47,845.13 L 2713.77,845.43 L 2712.07,845.73 L 2710.37,846.04 L 2708.67,846.36 L 2706.97,846.68 L 2705.27,847.00 L 2703.58,847.33 L 2703.51,846.92 L 2703.45,846.51 L 2703.39,846.11 L 2703.32,845.70 L 2703.26,845.29 L 2703.19,844.89 L 2703.12,844.48 L 2703.05,844.07 L 2702.98,843.67 L 2702.91,843.26 L 2702.84,842.85 L 2702.76,842.45 L 2702.69,842.04 L 2702.61,841.64 L 2702.53,841.23 L 2696.32,842.45 L 2690.13,843.73 L 2683.94,845.08 L 2677.78,846.49 L 2671.62,847.97 L 2665.49,849.51 L 2659.37,851.12 L 2653.26,852.79 L 2647.18,854.53 L 2641.11,856.33 L 2635.06,858.20 L 2629.04,860.13 L 2623.03,862.12 L 2617.04,864.18 L 2611.08,866.30 L 2606.67,867.91 L 2602.28,869.56 L 2597.89,871.24 L 2593.52,872.96 L 2589.17,874.71 L 2584.83,876.49 L 2580.50,878.31 L 2576.18,880.16 L 2571.88,882.05 L 2567.60,883.97 L 2563.33,885.92 L 2559.07,887.91 L 2554.84,889.93 L 2550.62,891.98 L 2546.41,894.07 L 2544.95,894.80 L 2543.49,895.54 L 2542.03,896.28 L 2540.58,897.03 L 2539.13,897.78 L 2537.68,898.53 L 2536.23,899.29 L 2534.78,900.05 L 2533.34,900.82 L 2531.90,901.58 L 2530.46,902.36 L 2529.02,903.13 L 2527.59,903.92 L 2526.15,904.70 L 2524.72,905.49 L 2498.77,920.42 L 2464.78,860.67 Z M 2548.25,893.16 L 2550.29,892.14 L 2549.96,892.30 L 2548.25,893.16 Z M 2552.49,891.07 L 2554.53,890.08 L 2554.23,890.22 L 2552.49,891.07 Z M 2556.75,889.02 L 2558.79,888.04 L 2558.51,888.17 L 2556.75,889.02 Z M 2561.03,887.00 L 2563.07,886.04 L 2562.81,886.16 L 2561.03,887.00 Z M 2565.32,885.01 L 2567.36,884.08 L 2567.13,884.18 L 2565.32,885.01 Z M 2569.63,883.06 L 2571.67,882.15 L 2571.46,882.24 L 2569.63,883.06 Z M 2573.96,881.14 L 2575.99,880.25 L 2575.80,880.33 L 2573.96,881.14 Z M 2578.31,879.25 L 2580.33,878.38 L 2580.16,878.45 L 2578.31,879.25 Z M 2582.68,877.39 L 2584.68,876.55 L 2584.54,876.61 L 2582.68,877.39 Z M 2587.06,875.57 L 2589.05,874.76 L 2588.93,874.80 L 2587.06,875.57 Z M 2591.48,873.78 L 2593.43,873.00 L 2593.33,873.03 L 2591.48,873.78 Z M 2942.61,842.18 L 2954.98,844.78 L 2948.81,843.45 L 2942.61,842.18 Z M 2955.02,844.79 L 2967.30,847.64 L 2961.16,846.18 L 2955.02,844.79 Z M 2967.37,847.65 L 2979.57,850.75 L 2973.46,849.17 L 2967.37,847.65 Z M 2979.64,850.77 L 2991.77,854.13 L 2985.69,852.42 L 2979.64,850.77 Z M 2991.85,854.16 L 3003.91,857.77 L 3003.91,857.77 L 2997.85,855.92 L 2991.85,854.16 Z M 3003.98,857.79 L 3015.96,861.66 L 3015.95,861.66 L 3009.94,859.68 L 3003.98,857.79 Z M 3016.02,861.69 L 3027.93,865.81 L 3027.91,865.81 L 3021.94,863.70 L 3016.02,861.69 Z M 3027.97,865.83 L 3033.85,868.01 L 3033.86,867.97 L 3027.97,865.83 Z M 3033.85,868.01 L 3039.81,870.22 L 3051.59,874.87 L 3063.27,879.76 L 3074.85,884.91 L 3086.31,890.30 L 3097.66,895.93 L 3108.89,901.80 L 3119.99,907.90 L 3114.46,904.82 L 3108.89,901.79 L 3103.29,898.83 L 3097.66,895.92 L 3091.99,893.08 L 3086.30,890.29 L 3080.58,887.57 L 3074.83,884.90 L 3069.06,882.30 L 3063.25,879.76 L 3057.43,877.28 L 3051.57,874.86 L 3045.69,872.50 L 3039.79,870.21 L 3033.86,867.97 L 3033.85,868.01 Z M 3142.38,921.02 L 3153.13,927.73 L 3163.73,934.67 L 3174.19,941.83 L 3184.50,949.21 L 3194.65,956.80 L 3204.64,964.62 L 3214.46,972.63 L 3219.28,976.74 L 3224.10,980.85 L 3219.30,976.71 L 3214.45,972.63 L 3209.56,968.59 L 3204.63,964.61 L 3199.66,960.68 L 3194.64,956.80 L 3189.59,952.97 L 3184.50,949.20 L 3179.36,945.49 L 3174.19,941.82 L 3168.98,938.22 L 3163.73,934.66 L 3158.45,931.17 L 3153.13,927.73 L 3147.77,924.34 L 3142.38,921.02 Z M 3224.13,980.88 L 3233.57,989.28 L 3228.87,985.04 L 3224.13,980.88 Z M 3233.62,989.32 L 3242.87,997.89 L 3238.26,993.57 L 3233.62,989.32 Z M 3242.92,997.95 L 3251.98,1006.71 L 3247.46,1002.30 L 3242.92,997.95 Z M 3252.04,1006.78 L 3260.91,1015.73 L 3256.49,1011.22 L 3252.04,1006.78 Z M 3260.97,1015.79 L 3269.65,1024.93 L 3265.32,1020.33 L 3260.97,1015.79 Z M 3269.70,1024.98 L 3278.20,1034.32 L 3273.97,1029.62 L 3269.70,1024.98 Z M 3278.23,1034.35 L 3286.57,1043.90 L 3282.42,1039.10 L 3278.23,1034.35 Z" />
    <text x="2890.63" y="902.42" class="label">陽台</text>
    <path class="room" d="M 2547.81,1532.83 L 2548.65,1318.89 L 2560.96,1318.94 L 2560.93,1326.43 L 2626.35,1326.69 L 2626.25,1352.74 L 2639.20,1352.79 L 2638.59,1509.09 L 2625.63,1509.04 L 2625.54,1533.14 L 2547.81,1532.83 Z" />
    <text x="2593.51" y="1426.01" class="label">科技創新管理與創業研究室</text>
    <path class="room" d="M 3241.78,1798.04 L 3242.13,1708.17 L 3266.74,1708.27 L 3266.91,1664.63 L 3347.88,1664.95 L 3347.46,1772.41 L 3321.55,1772.31 L 3321.45,1798.36 L 3241.78,1798.04 Z" />
    <text x="3294.83" y="1731.50" class="label">女廁</text>
    <path class="room" d="M 3090.86,1797.45 L 3091.63,1601.41 L 3171.30,1601.73 L 3170.63,1771.71 L 3168.69,1771.70 L 3168.59,1797.75 L 3090.86,1797.45 Z" />
    <text x="3131.08" y="1699.58" class="label">鄭辰仰老師研究室</text>
    <path class="room" d="M 2638.59,1509.09 L 2639.20,1352.79 L 2652.16,1352.84 L 2652.26,1326.79 L 2729.98,1327.10 L 2729.17,1533.55 L 2651.45,1533.24 L 2651.54,1509.14 L 2638.59,1509.09 Z" />
    <text x="2684.29" y="1430.17" class="label">金融投資與風險管理</text>
    <path class="room" d="M 2290.83,1656.21 L 2291.06,1598.24 L 2375.91,1598.58 L 2375.68,1656.55 L 2290.83,1656.21 Z" />
    <text x="2333.37" y="1627.39" class="label">電梯</text>
    <path class="room" d="M 3170.63,1771.71 L 3170.88,1707.89 L 3242.13,1708.17 L 3241.78,1798.04 L 3194.50,1797.86 L 3194.60,1771.81 L 3170.63,1771.71 Z" />
    <text x="3206.38" y="1752.97" class="label">無障礙廁所</text>
    <path class="room" d="M 3259.14,1664.60 L 3259.39,1602.08 L 3332.45,1602.37 L 3332.36,1624.51 L 3348.04,1624.58 L 3347.88,1664.95 L 3259.14,1664.60 Z" />
    <text x="3303.59" y="1633.52" class="label">電梯</text>
    <path class="room" d="M 2720.74,870.79 L 2733.51,868.58 L 2728.06,836.81 L 2734.32,835.88 L 2740.59,835.01 L 2746.87,834.22 L 2753.16,833.48 L 2759.45,832.82 L 2765.75,832.22 L 2772.05,831.69 L 2778.36,831.22 L 2784.68,830.83 L 2791.00,830.49 L 2797.32,830.23 L 2803.65,830.03 L 2809.97,829.90 L 2816.30,829.84 L 2822.63,829.84 L 2822.00,986.67 L 2817.49,986.67 L 2812.98,986.72 L 2808.47,986.82 L 2803.96,986.95 L 2799.45,987.13 L 2794.94,987.36 L 2790.44,987.63 L 2785.94,987.94 L 2781.44,988.30 L 2776.94,988.71 L 2772.46,989.15 L 2767.97,989.64 L 2763.49,990.18 L 2759.02,990.76 L 2754.55,991.38 L 2750.48,967.62 L 2737.71,969.83 L 2720.74,870.79 Z" />
    <text x="2771.68" y="910.61" class="label">鄭麗珍老師研究室</text>
    <path class="room" d="M 2290.61,1712.22 L 2290.83,1656.21 L 2375.68,1656.55 L 2375.46,1712.56 L 2290.61,1712.22 Z" />
    <text x="2333.15" y="1684.39" class="label">電梯</text>
    <path class="room" d="M 3281.83,1047.86 L 3314.69,1020.36 L 3331.34,1040.48 L 3298.49,1067.98 L 3281.83,1047.86 Z" />
    <text x="3306.59" y="1044.17" class="label">封閉空間</text>
    <path class="room" d="M 2611.08,866.30 L 2617.04,864.18 L 2623.03,862.12 L 2629.04,860.13 L 2635.06,858.20 L 2641.11,856.33 L 2647.18,854.53 L 2653.26,852.79 L 2659.37,851.12 L 2665.49,849.51 L 2671.62,847.97 L 2677.78,846.49 L 2683.94,845.08 L 2690.13,843.73 L 2696.32,842.45 L 2702.53,841.23 L 2707.97,873.00 L 2720.74,870.79 L 2737.71,969.83 L 2724.94,972.05 L 2729.01,995.80 L 2724.59,996.72 L 2720.19,997.68 L 2715.79,998.68 L 2711.40,999.73 L 2707.02,1000.82 L 2702.65,1001.95 L 2698.30,1003.12 L 2693.95,1004.34 L 2689.62,1005.60 L 2685.30,1006.91 L 2680.99,1008.25 L 2676.70,1009.64 L 2672.42,1011.07 L 2668.15,1012.54 L 2663.90,1014.05 L 2611.08,866.30 Z" />
    <text x="2674.39" y="927.64" class="label">吳牧恩老師研究室</text>
    <path class="room" d="M 2347.83,1327.53 L 2348.49,1159.37 L 2457.50,1159.80 L 2460.69,1162.52 L 2460.05,1326.03 L 2444.99,1325.97 L 2444.89,1352.02 L 2470.80,1352.12 L 2470.18,1508.42 L 2444.28,1508.32 L 2444.27,1510.27 L 2393.10,1510.07 L 2393.88,1311.19 L 2358.75,1311.05 L 2358.69,1327.58 L 2347.83,1327.53 Z" />
    <text x="2409.31" y="1334.82" class="label">AHR9F004</text>
    <path class="room" d="M 2728.14,1796.01 L 2728.91,1599.98 L 2819.59,1600.34 L 2818.93,1770.32 L 2805.97,1770.26 L 2805.87,1796.32 L 2728.14,1796.01 Z" />
    <text x="2773.87" y="1698.15" class="label">林鳳儀老師研究室</text>
    <path class="room" d="M 2822.63,829.84 L 2828.95,829.89 L 2835.28,830.01 L 2841.60,830.19 L 2847.92,830.44 L 2854.24,830.75 L 2860.56,831.13 L 2866.87,831.58 L 2873.17,832.10 L 2879.47,832.68 L 2885.76,833.33 L 2892.05,834.04 L 2898.33,834.82 L 2904.60,835.67 L 2910.86,836.58 L 2917.11,837.56 L 2911.42,869.29 L 2924.16,871.60 L 2906.42,970.50 L 2893.67,968.19 L 2889.42,991.91 L 2884.95,991.26 L 2880.48,990.64 L 2876.01,990.07 L 2871.53,989.55 L 2867.04,989.06 L 2862.55,988.63 L 2858.06,988.23 L 2853.56,987.88 L 2849.06,987.58 L 2844.56,987.31 L 2840.05,987.10 L 2835.54,986.93 L 2831.04,986.80 L 2826.52,986.71 L 2822.01,986.67 L 2822.63,829.84 Z" />
    <text x="2873.09" y="910.88" class="label">許嘉裕老師研究室</text>
    <path class="room" d="M 2502.15,918.48 L 2524.73,905.49 L 2526.11,904.72 L 2527.50,903.96 L 2528.89,903.21 L 2530.28,902.45 L 2531.67,901.71 L 2533.07,900.96 L 2534.47,900.22 L 2535.86,899.48 L 2537.27,898.75 L 2538.67,898.01 L 2540.07,897.29 L 2541.48,896.56 L 2542.89,895.85 L 2544.30,895.13 L 2545.71,894.42 L 2549.96,892.30 L 2554.23,890.22 L 2558.51,888.17 L 2562.81,886.16 L 2567.13,884.18 L 2571.46,882.24 L 2575.80,880.33 L 2580.16,878.45 L 2584.54,876.61 L 2588.93,874.80 L 2593.33,873.03 L 2597.75,871.30 L 2602.18,869.60 L 2606.62,867.93 L 2611.08,866.30 L 2663.90,1014.05 L 2659.66,1015.61 L 2655.44,1017.20 L 2651.23,1018.84 L 2647.03,1020.52 L 2642.86,1022.25 L 2638.70,1024.01 L 2634.56,1025.81 L 2630.43,1027.65 L 2626.33,1029.54 L 2622.24,1031.46 L 2618.17,1033.43 L 2614.12,1035.43 L 2610.09,1037.47 L 2606.08,1039.56 L 2602.10,1041.68 L 2590.19,1020.76 L 2567.70,1033.69 L 2518.07,946.46 L 2540.55,933.52 L 2527.69,910.91 L 2505.20,923.85 L 2502.15,918.48 Z M 2505.20,923.85 L 2505.20,923.85 L 2527.69,910.91 L 2505.20,923.85 Z M 2611.08,866.30 L 2663.90,1014.05 L 2611.08,866.30 L 2611.08,866.30 L 2611.08,866.30 Z" />
    <text x="2583.02" y="953.99" class="label">陳煒朋老師研究室</text>
    <path class="room" d="M 2909.50,1796.73 L 2910.27,1600.70 L 3000.95,1601.06 L 3000.29,1771.03 L 2987.33,1770.98 L 2987.23,1797.03 L 2909.50,1796.73 Z" />
    <text x="2955.23" y="1698.87" class="label">應國卿老師研究室</text>
    <path class="room" d="M 2906.42,970.50 L 2924.16,871.60 L 2936.91,873.91 L 2942.61,842.18 L 2948.81,843.45 L 2954.99,844.78 L 2961.16,846.18 L 2967.32,847.64 L 2973.46,849.17 L 2979.59,850.76 L 2985.69,852.42 L 2991.78,854.14 L 2997.85,855.92 L 3003.91,857.77 L 3009.94,859.68 L 3015.95,861.66 L 3021.94,863.70 L 3027.91,865.81 L 3033.86,867.97 L 2979.88,1015.30 L 2975.64,1013.76 L 2971.39,1012.25 L 2967.12,1010.79 L 2962.83,1009.37 L 2958.54,1007.99 L 2954.23,1006.65 L 2949.90,1005.36 L 2945.57,1004.10 L 2941.22,1002.89 L 2936.86,1001.73 L 2932.49,1000.60 L 2928.11,999.52 L 2923.72,998.48 L 2919.32,997.49 L 2914.91,996.54 L 2919.17,972.82 L 2906.42,970.50 Z" />
    <text x="2970.14" y="928.74" class="label">丁秀儀老師研究室</text>
    <path class="room" d="M 2818.93,1770.32 L 2819.59,1600.34 L 2910.27,1600.70 L 2909.50,1796.73 L 2831.78,1796.42 L 2831.88,1770.37 L 2818.93,1770.32 Z" />
    <text x="2864.60" y="1698.53" class="label">行為財務與金融創新研究室</text>
    <path class="room" d="M 3063.85,1056.54 L 3075.92,1035.71 L 3064.73,1029.15 L 3115.05,942.31 L 3126.24,948.87 L 3142.38,921.02 L 3147.77,924.34 L 3153.13,927.73 L 3158.45,931.17 L 3163.73,934.66 L 3168.98,938.22 L 3174.19,941.82 L 3179.36,945.49 L 3184.50,949.20 L 3189.59,952.97 L 3194.64,956.80 L 3199.66,960.68 L 3204.63,964.61 L 3209.56,968.59 L 3214.45,972.63 L 3219.30,976.71 L 3118.52,1096.52 L 3115.06,1093.60 L 3111.58,1090.73 L 3108.06,1087.88 L 3104.52,1085.07 L 3100.95,1082.30 L 3097.35,1079.56 L 3093.73,1076.86 L 3090.09,1074.19 L 3086.41,1071.56 L 3082.71,1068.96 L 3078.99,1066.40 L 3075.24,1063.88 L 3071.47,1061.40 L 3067.67,1058.95 L 3063.85,1056.54 Z M 3118.52,1096.52 L 3118.52,1096.52 L 3118.52,1096.52 L 3219.30,976.71 L 3219.30,976.71 L 3118.52,1096.52 Z" />
    <text x="3141.58" y="1008.77" class="label">我愛交易實驗室</text>
  </g>
  <g id="gis_room_LY_9F">
    <path class="room" d="M -23465.34,-3321.10 L -23449.32,-3382.86 L -23396.04,-3368.88 L -23398.82,-3358.16 L -23396.94,-3357.67 L -23406.76,-3319.86 L -23408.64,-3320.35 L -23412.07,-3307.12 L -23465.34,-3321.10 Z" />
    <text x="-23430.69" y="-3344.99" class="label">電梯</text>
    <path class="room" d="M -23520.50,-3335.57 L -23504.47,-3397.33 L -23449.32,-3382.86 L -23465.34,-3321.10 L -23520.50,-3335.57 Z" />
    <text x="-23484.91" y="-3359.21" class="label">電梯</text>
    <path class="room" d="M -23719.85,-3341.26 L -23693.47,-3442.88 L -23597.58,-3417.72 L -23600.69,-3405.75 L -23579.38,-3400.16 L -23602.65,-3310.51 L -23719.85,-3341.26 Z" />
    <text x="-23649.61" y="-3376.70" class="label">空間4</text>
    <path class="room" d="M -23811.58,-3354.07 L -23805.04,-3379.28 L -23796.89,-3377.14 L -23791.33,-3398.56 L -23799.48,-3400.70 L -23786.23,-3451.75 L -23775.57,-3448.95 L -23771.16,-3465.96 L -23725.40,-3453.96 L -23726.06,-3451.44 L -23693.47,-3442.88 L -23737.51,-3273.20 L -23767.59,-3281.09 L -23762.71,-3299.91 L -23773.36,-3302.71 L -23763.32,-3341.40 L -23811.58,-3354.07 Z" />
    <text x="-23752.52" y="-3369.58" class="label">空間7</text>
    <path class="room" d="M -23801.96,-3192.56 L -23773.36,-3302.71 L -23762.71,-3299.91 L -23767.59,-3281.09 L -23620.31,-3242.45 L -23630.74,-3202.28 L -23652.05,-3207.88 L -23657.93,-3185.19 L -23636.62,-3179.60 L -23645.81,-3144.22 L -23793.09,-3182.87 L -23791.30,-3189.76 L -23801.96,-3192.56 Z" />
    <text x="-23711.13" y="-3223.47" class="label">空間5</text>
    <path class="room" d="M -23831.04,-3080.51 L -23801.96,-3192.56 L -23791.30,-3189.76 L -23793.09,-3182.87 L -23645.81,-3144.22 L -23671.46,-3045.37 L -23801.82,-3079.58 L -23803.46,-3073.28 L -23831.04,-3080.51 Z" />
    <text x="-23738.42" y="-3118.96" class="label">空間6</text>
    <path class="room" d="M -23595.70,-3125.78 L -23567.35,-3235.01 L -23428.21,-3198.50 L -23438.90,-3157.33 L -23450.18,-3160.29 L -23458.69,-3127.52 L -23447.41,-3124.56 L -23452.97,-3103.14 L -23462.99,-3105.77 L -23466.59,-3091.90 L -23595.70,-3125.78 Z" />
    <text x="-23511.96" y="-3163.46" class="label">空間2</text>
    <path class="room" d="M -23820.96,-3005.85 L -23801.82,-3079.58 L -23671.46,-3045.37 L -23680.62,-3010.08 L -23700.05,-3015.18 L -23708.72,-2981.78 L -23718.12,-2984.25 L -23721.06,-2972.90 L -23803.79,-2994.61 L -23802.16,-3000.92 L -23820.96,-3005.85 Z" />
    <text x="-23746.21" y="-3026.24" class="label">樓梯</text>
    <path class="room" d="M -23589.14,-2988.57 L -23580.59,-3021.53 L -23480.94,-2995.38 L -23496.15,-2936.77 L -23507.43,-2939.73 L -23512.99,-2918.30 L -23575.04,-2934.59 L -23562.82,-2981.66 L -23589.14,-2988.57 Z" />
    <text x="-23535.04" y="-2969.91" class="label">男廁</text>
    <path class="room" d="M -23620.07,-3031.89 L -23595.70,-3125.78 L -23466.59,-3091.90 L -23462.99,-3105.77 L -23452.97,-3103.14 L -23480.94,-2995.38 L -23620.07,-3031.89 Z" />
    <text x="-23536.52" y="-3060.58" class="label">空間3</text>
    <path class="room" d="M -23896.16,-3056.54 L -23890.44,-3078.60 L -23875.40,-3074.65 L -23869.84,-3096.08 L -23877.98,-3098.22 L -23863.92,-3152.41 L -23855.77,-3150.28 L -23850.21,-3171.70 L -23858.36,-3173.84 L -23844.29,-3228.03 L -23836.15,-3225.89 L -23830.58,-3247.32 L -23838.73,-3249.46 L -23824.66,-3303.65 L -23816.52,-3301.52 L -23810.96,-3322.94 L -23819.10,-3325.08 L -23811.58,-3354.07 L -23763.32,-3341.40 L -23831.04,-3080.51 L -23803.46,-3073.28 L -23813.44,-3034.84 L -23896.16,-3056.54 Z" />
    <text x="-23829.74" y="-3194.45" class="label">陽台</text>
    <path class="room" d="M -23666.54,-2958.60 L -23654.93,-3003.34 L -23589.75,-2986.24 L -23601.36,-2941.49 L -23666.54,-2958.60 Z" />
    <text x="-23628.14" y="-2972.42" class="label">影印室</text>
    <path class="room" d="M -23726.06,-3451.44 L -23702.31,-3542.94 L -23553.15,-3503.80 L -23572.81,-3428.05 L -23593.49,-3433.48 L -23597.58,-3417.72 L -23726.06,-3451.44 Z" />
    <text x="-23639.60" y="-3480.33" class="label">樓梯</text>
    <path class="room" d="M -23496.15,-2936.77 L -23447.41,-3124.56 L -23436.12,-3121.60 L -23427.62,-3154.37 L -23438.90,-3157.33 L -23401.28,-3302.27 L -23390.00,-3299.31 L -23389.51,-3301.20 L -23357.55,-3292.81 L -23459.94,-2898.32 L -23491.90,-2906.71 L -23484.87,-2933.81 L -23496.15,-2936.77 Z" />
    <text x="-23426.85" y="-3100.30" class="label">陽台</text>
    <path class="room" d="M -23567.35,-3235.01 L -23539.92,-3340.67 L -23412.07,-3307.12 L -23412.56,-3305.23 L -23401.28,-3302.27 L -23428.21,-3198.50 L -23567.35,-3235.01 Z" />
    <text x="-23484.31" y="-3269.58" class="label">空間1</text>
  </g>
</svg>