<svg width="16000" height="9099" viewBox="0 0 16000 9099" xmlns="http://www.w3.org/2000/svg" xmlns:xlink="http://www.w3.org/1999/xlink">

    <style>
        .building { fill: #f0f4f8; stroke: #d1dce5; stroke-width: 2; }
        .room     { fill: #ffffff; fill-opacity: 0.8; stroke: #bcccdc; stroke-width: 1; }
        .label    { font-family: "Noto Sans TC", sans-serif; font-size: 24px; fill: #334e68; font-weight: 500; text-anchor: middle; dominant-baseline: middle; }
    </style>
      <g id="gis_gis_building_geom">
    <path class="building" d="M 2949.26,4010.03 L 4140.85,4021.56 L 4142.10,4292.67 L 4130.90,4292.64 L 4130.40,4356.44 L 3226.66,4355.84 L 3226.31,4812.55 L 3401.68,4811.80 L 3401.95,5141.81 L 2942.28,5141.31 L 2949.26,4010.03 Z" />
    <path class="building" d="M 7088.12,2560.89 L 7700.72,2562.04 L 7700.87,2481.66 L 8148.51,2483.00 L 8147.15,2562.88 L 8693.32,2563.92 L 8721.63,2695.28 L 8721.63,2695.28 L 8715.57,3280.48 L 8690.90,3280.61 L 8690.48,3403.55 L 7085.32,3389.98 L 7085.31,3204.63 L 7000.35,3203.97 L 7003.43,2738.84 L 7087.35,2738.26 L 7088.12,2560.89 Z" />
    <path class="building" d="M 4843.51,1956.47 L 4844.51,1787.79 L 4906.35,1787.49 L 4905.24,1712.44 L 5766.54,1719.44 L 5767.05,1759.83 L 6027.80,1762.57 L 6041.22,1778.35 L 6040.91,2113.44 L 5920.93,2113.62 L 5921.58,2180.69 L 4855.22,2175.20 L 4857.61,1956.59 L 4843.51,1956.47 Z" />
    <path class="building" d="M 3188.76,5839.04 L 3184.44,6132.85 L 3009.51,6131.08 L 3010.12,5838.90 L 3188.76,5839.04 Z" />
    <path class="building" d="M 8161.26,3799.06 L 8661.34,3802.64 L 8661.72,3865.86 L 8759.20,3866.25 L 8755.51,3995.61 L 8806.86,3995.16 L 8806.05,4079.95 L 8850.04,4079.42 L 8848.57,4261.53 L 8807.12,4260.63 L 8806.31,4341.05 L 8464.87,4337.40 L 8462.68,4793.00 L 8947.00,4797.31 L 8944.64,5163.38 L 9070.07,5164.43 L 9068.88,5256.28 L 8943.78,5254.69 L 8940.58,5624.81 L 8458.26,5621.41 L 8453.24,6072.52 L 9133.83,6077.89 L 9126.51,6745.48 L 8044.27,6736.86 L 8045.15,6541.70 L 7946.95,6541.19 L 7947.74,6409.27 L 7850.08,6409.19 L 7850.29,6387.18 L 7663.94,6386.98 L 7662.42,6294.92 L 7365.94,6294.05 L 7367.40,6164.56 L 7219.73,6164.20 L 7220.56,6079.32 L 7176.49,6078.82 L 7179.52,5914.56 L 7222.17,5914.94 L 7222.98,5832.54 L 7863.48,5840.16 L 7863.88,5617.56 L 7754.27,5617.59 L 7754.43,5521.38 L 7739.08,5522.23 L 7740.67,5376.11 L 7755.56,5376.17 L 7756.55,5277.27 L 7785.97,5276.79 L 7786.18,5127.15 L 7757.98,5127.35 L 7758.14,5028.99 L 7743.59,5028.70 L 7745.39,4886.44 L 7759.72,4886.75 L 7760.11,4786.55 L 7849.88,4787.63 L 7849.21,4560.97 L 7233.65,4557.12 L 7234.22,4480.71 L 7180.57,4480.46 L 7181.34,4311.50 L 7235.49,4311.75 L 7236.10,4231.20 L 7381.06,4231.84 L 7382.58,4106.09 L 7678.18,4106.93 L 7679.62,4016.64 L 7870.79,4014.88 L 7870.93,3994.82 L 7966.89,3995.55 L 7968.35,3863.10 L 8160.60,3863.87 L 8161.26,3799.06 Z" />
    <path class="building" d="M 1785.34,1818.91 L 1846.80,1820.11 L 1846.08,1868.88 L 1915.10,1869.87 L 1914.84,1881.19 L 1956.32,1881.91 L 1956.29,1947.64 L 1913.30,1947.43 L 1912.91,1964.27 L 1844.69,1963.82 L 1844.25,1993.82 L 2113.96,1996.73 L 2111.80,2313.15 L 1638.41,2309.74 L 1638.57,2369.36 L 1402.42,2370.43 L 1402.86,2308.05 L 913.25,2304.52 L 921.14,1983.86 L 1782.78,1993.15 L 1785.34,1818.91 Z" />
    <path class="building" d="M 1233.29,3176.04 L 1233.24,3086.16 L 1689.31,3086.09 L 1689.85,3178.73 L 2105.12,3181.86 L 2100.21,3742.07 L 811.22,3734.26 L 816.44,3173.49 L 1233.29,3176.04 Z" />
    <path class="building" d="M 4422.39,3825.20 L 4557.45,3823.98 L 4558.56,3948.97 L 4423.51,3950.19 L 4422.39,3825.20 Z" />
    <path class="building" d="M 5454.09,3024.68 L 5470.25,3024.58 L 5470.20,3032.77 L 5776.10,3034.35 L 5777.47,2956.96 L 5982.23,2956.10 L 5981.83,3035.41 L 6304.16,3037.07 L 6307.16,3777.27 L 6169.76,3776.65 L 6170.26,3825.65 L 5997.21,3824.78 L 5999.79,3339.48 L 5451.60,3336.55 L 5454.09,3024.68 Z" />
    <path class="building" d="M 810.23,4162.32 L 2094.03,4174.33 L 2089.09,4719.68 L 2050.10,4719.24 L 2050.20,4746.64 L 1713.11,4742.66 L 1713.39,4715.41 L 805.90,4705.09 L 810.23,4162.32 Z" />
    <path class="building" d="M 5154.02,4923.99 L 5174.31,4923.63 L 5174.75,4823.71 L 5156.69,4823.06 L 5158.73,4730.00 L 5153.87,4730.05 L 5153.30,4532.71 L 4982.76,4534.29 L 4982.12,4520.32 L 4753.21,4517.98 L 4752.95,4206.61 L 5867.58,4215.65 L 5865.18,4622.01 L 5896.39,4622.08 L 5894.82,4763.49 L 6306.89,4767.17 L 6301.07,5688.40 L 5887.43,5691.03 L 5886.89,5832.41 L 5854.54,5832.37 L 5853.47,6070.58 L 5399.78,6064.30 L 5405.55,5280.53 L 5376.56,5280.37 L 5376.79,5215.40 L 5151.84,5213.08 L 5151.97,5219.13 L 5154.02,4923.99 Z" />
    <path class="building" d="M 3393.95,5787.13 L 3442.50,5787.21 L 3442.68,5774.53 L 3630.52,5775.89 L 3631.48,5739.98 L 4112.97,5745.69 L 4113.00,5779.38 L 4284.12,5780.62 L 4284.41,5744.13 L 4286.78,5744.18 L 4286.73,5683.26 L 4511.51,5688.82 L 4511.10,5748.44 L 4600.29,5750.13 L 4600.37,5781.26 L 4984.14,5785.27 L 4983.80,5976.74 L 5219.32,5978.53 L 5219.88,6039.07 L 5265.74,6038.84 L 5260.63,6205.34 L 5217.18,6206.06 L 5217.99,6267.47 L 5167.99,6267.69 L 5166.59,6358.65 L 4403.43,6352.99 L 4402.67,6219.38 L 4187.82,6220.82 L 4189.74,6082.55 L 3392.66,6074.33 L 3392.93,6015.46 L 3346.48,6015.69 L 3345.67,5846.07 L 3393.69,5845.84 L 3393.95,5787.13 Z" />
    <path class="building" d="M 3480.58,1049.19 L 3478.99,999.72 L 3622.50,1000.51 L 3623.18,1050.84 L 3766.99,1052.51 L 3767.46,1154.80 L 3876.62,1155.69 L 3876.12,1302.54 L 4088.23,1299.59 L 4089.53,1365.74 L 4257.77,1366.48 L 4254.19,1531.73 L 3773.89,1529.93 L 3775.24,1614.55 L 3768.91,1632.60 L 3503.68,1632.43 L 3508.43,1214.67 L 3463.89,1214.91 L 3467.11,1049.03 L 3480.58,1049.19 Z" />
    <path class="building" d="M 936.26,5355.33 L 938.67,5282.05 L 1124.06,5283.51 L 1124.24,5251.09 L 1291.35,5250.09 L 1307.39,5242.52 L 1325.18,5238.63 L 1356.16,5233.68 L 1377.43,5232.40 L 1405.24,5235.72 L 1428.02,5240.86 L 1440.65,5244.93 L 1460.13,5252.19 L 1607.57,5253.53 L 1607.60,5288.52 L 1776.51,5290.71 L 1776.60,5240.34 L 2103.44,5244.81 L 2103.50,5356.82 L 2205.45,5356.56 L 2205.38,5378.57 L 2282.83,5379.22 L 2285.51,5565.09 L 2894.09,5569.40 L 2893.37,5633.72 L 2936.68,5633.51 L 2937.52,5803.75 L 2846.36,5804.20 L 2846.34,5953.33 L 2559.91,5955.61 L 2546.09,5965.10 L 2519.95,5972.97 L 2488.77,5982.33 L 2463.81,5984.39 L 2436.80,5986.16 L 2402.61,5984.38 L 2377.54,5982.72 L 2340.87,5977.26 L 2314.70,5972.21 L 2285.31,5960.47 L 2259.99,5947.24 L 1985.67,5944.67 L 1985.29,5908.44 L 1769.65,5909.19 L 1773.26,5665.81 L 1597.93,5664.92 L 1599.05,5851.91 L 1024.38,5845.83 L 1022.48,5808.99 L 1001.29,5809.19 L 1000.42,5661.87 L 882.09,5661.27 L 883.76,5439.25 L 856.33,5438.30 L 859.12,5355.29 L 936.26,5355.33 Z" />
    <path class="building" d="M 13529.99,6560.54 L 14941.59,6571.40 L 14932.04,7144.65 L 14992.06,7145.75 L 14993.21,7490.04 L 14952.13,7489.30 L 14951.20,7527.87 L 13628.49,7517.89 L 13629.06,7497.74 L 13464.17,7496.13 L 13468.50,7115.25 L 13528.85,7116.51 L 13530.83,6851.87 L 13480.99,6851.93 L 13479.73,6621.87 L 13530.11,6622.39 L 13529.99,6560.54 Z" />
    <path class="building" d="M 5093.05,7797.46 L 5095.59,7780.54 L 6087.61,7941.33 L 6022.66,8306.95 L 5960.86,8299.45 L 5951.07,8349.55 L 4941.17,8184.55 L 4984.12,7921.91 L 5034.25,7929.51 L 5057.02,7792.95 L 5093.05,7797.46 Z" />
    <path class="building" d="M 924.06,1000.40 L 1568.36,1012.99 L 1566.57,922.99 L 1880.10,928.66 L 1881.99,1019.12 L 2136.51,1024.09 L 2121.00,1825.46 L 908.59,1801.77 L 924.06,1000.40 Z" />
    <path class="building" d="M 3553.73,1653.86 L 4853.30,1652.82 L 4852.16,1787.86 L 4844.51,1787.79 L 4843.51,1956.47 L 4850.75,1956.53 L 4849.40,2118.29 L 4411.37,2114.16 L 4411.76,2160.24 L 4465.88,2160.87 L 4465.14,2276.87 L 4231.13,2277.71 L 4231.03,2158.16 L 4287.83,2158.82 L 4287.44,2113.00 L 3550.76,2106.07 L 3553.73,1653.86 Z" />
    <path class="building" d="M 2268.76,1003.93 L 2280.78,984.64 L 2301.22,961.02 L 2328.14,932.78 L 2376.93,892.39 L 2432.02,852.59 L 2456.33,836.30 L 2492.30,816.65 L 2492.65,812.32 L 2497.05,801.30 L 2505.95,790.96 L 2517.92,784.39 L 2534.43,781.93 L 2543.82,782.04 L 2553.79,783.27 L 2558.23,785.09 L 2561.34,783.57 L 2614.81,766.10 L 2654.80,754.95 L 2736.40,738.94 L 2774.76,736.02 L 2819.06,734.40 L 2864.17,735.02 L 2912.73,739.61 L 2955.40,745.85 L 2999.31,756.53 L 3064.54,776.64 L 3111.23,795.03 L 3147.21,812.60 L 3190.74,836.66 L 3245.03,874.91 L 3335.46,950.82 L 3362.11,979.42 L 3379.06,1004.60 L 3316.60,1050.11 L 3330.09,1064.69 L 3312.34,1077.80 L 3355.45,1126.80 L 3354.12,1319.70 L 3355.49,1799.51 L 2657.61,1799.22 L 2649.90,2029.27 L 3171.26,2031.80 L 3172.51,1971.58 L 3282.84,1972.96 L 3284.07,2032.35 L 3345.52,2032.65 L 3344.64,2341.85 L 3195.08,2340.34 L 3194.82,2358.50 L 3161.99,2359.41 L 3162.40,2340.50 L 2293.87,2340.13 L 2291.91,1914.68 L 2445.18,1915.40 L 2446.50,1799.14 L 2286.94,1799.08 L 2288.75,1126.37 L 2343.08,1060.46 L 2268.76,1003.93 Z" />
    <path class="building" d="M 2375.15,3011.39 L 2703.50,3012.59 L 2706.21,2927.10 L 2908.80,2929.26 L 2907.77,3013.34 L 3224.19,3014.50 L 3221.87,3314.69 L 2675.53,3316.31 L 2672.14,3806.07 L 2611.01,3805.78 L 2611.50,3752.93 L 2369.52,3750.98 L 2375.15,3011.39 Z" />
    <path class="building" d="M 3481.73,3013.15 L 4216.24,3018.45 L 4216.72,2932.76 L 4466.90,2931.38 L 4468.50,3020.27 L 5200.00,3025.54 L 5196.12,3341.16 L 4532.93,3336.21 L 4533.28,3456.98 L 4146.26,3455.47 L 4145.86,3333.24 L 3480.74,3325.73 L 3481.73,3013.15 Z" />
    <path class="building" d="M 2359.65,4017.52 L 2682.41,4014.00 L 2683.31,4054.59 L 2674.47,4054.84 L 2667.93,4437.03 L 2763.04,4437.67 L 2761.52,4667.51 L 2664.01,4666.86 L 2654.87,5374.86 L 2660.54,5374.70 L 2659.91,5389.96 L 2344.25,5388.14 L 2359.65,4017.52 Z" />
    <path class="building" d="M 3502.33,4517.98 L 3587.32,4518.98 L 3587.05,4474.73 L 3922.02,4476.01 L 3922.52,4509.52 L 4982.12,4520.32 L 4982.76,4534.29 L 5153.30,4532.71 L 5153.87,4730.05 L 5158.73,4730.00 L 5156.69,4823.06 L 5174.75,4823.71 L 5174.31,4923.63 L 5154.02,4923.99 L 5151.97,5219.13 L 5071.20,5219.60 L 5070.35,5272.40 L 4665.04,5270.50 L 4665.31,5225.67 L 3579.55,5215.95 L 3579.14,5204.15 L 3499.71,5204.74 L 3500.84,4914.76 L 3479.18,4914.22 L 3480.73,4807.81 L 3501.94,4807.89 L 3502.33,4517.98 Z" />
    <path class="building" d="M 11448.31,2608.09 L 11443.96,2519.88 L 11936.57,2495.70 L 11937.54,2522.91 L 11969.51,2521.23 L 11973.77,2620.44 L 11941.10,2622.40 L 11943.56,2691.25 L 12023.28,2687.38 L 12021.53,2652.29 L 12212.21,2643.62 L 12214.73,2678.07 L 12292.75,2675.69 L 12289.42,2607.07 L 12255.82,2608.91 L 12251.93,2505.72 L 12284.43,2504.26 L 12283.18,2478.69 L 13428.92,2422.45 L 13435.62,2613.62 L 13468.77,2612.12 L 13467.35,2556.10 L 13646.50,2547.86 L 13649.47,2603.90 L 13684.37,2602.32 L 13671.86,2410.52 L 14152.96,2386.91 L 14170.11,2736.81 L 13904.32,2750.00 L 13914.52,2942.80 L 13340.66,2974.61 L 13352.87,3252.74 L 12426.20,3299.52 L 12409.53,3017.41 L 11743.24,3054.12 L 11741.45,3028.15 L 11711.32,3029.36 L 11704.20,2926.92 L 11734.35,2925.31 L 11729.77,2858.79 L 11461.38,2873.15 L 11457.02,2784.77 L 11415.95,2786.12 L 11410.15,2609.07 L 11448.31,2608.09 Z" />
  </g>
  <g id="gis_room_A6T_B4">
    <path class="room" d="M 2314.53,2315.49 L 2315.11,2167.65 L 2441.68,2168.15 L 2441.56,2198.11 L 2467.47,2198.21 L 2467.00,2316.09 L 2445.63,2316.01 L 2445.55,2337.50 L 2316.00,2336.98 L 2316.09,2315.49 L 2314.53,2315.49 Z" />
    <text x="2391.00" y="2252.57" class="label">營繕組倉庫</text>
    <path class="room" d="M 2311.44,1914.94 L 2311.80,1824.43 L 2318.01,1824.45 L 2318.02,1822.49 L 2395.75,1822.79 L 2395.38,1917.23 L 2317.65,1916.92 L 2317.66,1914.97 L 2311.44,1914.94 Z" />
    <text x="2353.60" y="1869.86" class="label">儲藏室</text>
    <path class="room" d="M 3173.01,2318.89 L 3173.34,2234.88 L 3324.25,2235.48 L 3324.17,2256.97 L 3335.83,2257.02 L 3335.68,2294.79 L 3329.21,2294.76 L 3329.02,2341.00 L 3194.30,2340.47 L 3194.38,2318.98 L 3173.01,2318.89 Z" />
    <text x="3254.42" y="2287.94" class="label">樓梯</text>
    <path class="room" d="M 3235.90,2138.87 L 3236.31,2034.54 L 3325.04,2034.89 L 3324.96,2056.38 L 3326.51,2056.39 L 3326.31,2107.97 L 3298.85,2107.86 L 3298.72,2139.12 L 3235.90,2138.87 Z" />
    <text x="3281.20" y="2086.83" class="label">男廁</text>
    <path class="room" d="M 2305.01,2167.61 L 2305.25,2106.39 L 2375.47,2106.67 L 2375.23,2167.89 L 2305.01,2167.61 Z" />
    <text x="2340.24" y="2137.14" class="label">電梯</text>
    <path class="room" d="M 3266.32,1978.65 L 3266.54,1922.64 L 3327.04,1922.88 L 3326.82,1978.88 L 3266.32,1978.65 Z" />
    <text x="3296.68" y="1950.76" class="label">行動不便者使用廁所</text>
    <path class="room" d="M 2375.23,2167.89 L 2375.47,2106.67 L 2441.92,2106.93 L 2441.68,2168.15 L 2375.23,2167.89 Z" />
    <text x="2408.57" y="2137.41" class="label">電梯</text>
    <path class="room" d="M 2378.46,1937.35 L 2378.54,1917.16 L 2399.91,1917.25 L 2399.83,1937.44 L 2378.46,1937.35 Z" />
    <text x="2389.18" y="1927.30" class="label">機電</text>
    <path class="room" d="M 2467.31,2239.24 L 2467.72,2134.39 L 2519.53,2134.60 L 2519.12,2239.45 L 2467.31,2239.24 Z" />
    <text x="2493.42" y="2186.92" class="label">控制室</text>
    <path class="room" d="M 3236.66,1945.05 L 3237.24,1796.83 L 3327.53,1797.18 L 3327.50,1805.00 L 3325.95,1804.99 L 3325.85,1828.44 L 3334.14,1828.47 L 3333.77,1922.90 L 3266.54,1922.64 L 3266.45,1945.17 L 3236.66,1945.05 Z" />
    <text x="3285.40" y="1871.00" class="label">女廁</text>
    <path class="room" d="M 2467.00,2316.09 L 2467.31,2239.24 L 2519.12,2239.45 L 2519.53,2134.60 L 2467.72,2134.39 L 2468.04,2052.98 L 2469.98,2052.99 L 2469.99,2051.04 L 2628.03,2051.66 L 2628.02,2053.62 L 2651.34,2053.71 L 2651.35,2051.75 L 2809.39,2052.38 L 2809.38,2054.34 L 2832.70,2054.43 L 2832.71,2052.47 L 2990.75,2053.10 L 2990.74,2055.05 L 3014.06,2055.15 L 3014.06,2053.19 L 3172.11,2053.82 L 3172.10,2055.77 L 3174.04,2055.78 L 3173.01,2318.89 L 3171.07,2318.88 L 3170.98,2340.38 L 3012.94,2339.75 L 3013.02,2318.26 L 2989.71,2318.16 L 2989.62,2339.66 L 2831.58,2339.03 L 2831.67,2317.54 L 2808.35,2317.44 L 2808.26,2338.94 L 2650.22,2338.31 L 2650.31,2316.82 L 2626.99,2316.73 L 2626.91,2338.22 L 2468.86,2337.59 L 2468.95,2316.10 L 2467.00,2316.09 Z M 2628.02,2053.62 L 2651.34,2053.71 L 2651.34,2053.71 L 2628.02,2053.62 Z M 2809.38,2054.34 L 2832.70,2054.43 L 2832.70,2054.43 L 2809.38,2054.34 L 2809.38,2054.34 Z" />
    <text x="2820.52" y="2195.71" class="label">哈佛講堂</text>
  </g>
  <g id="gis_room_AM_B4">
    <path class="room" d="M 4998.89,8294.63 L 5006.11,8252.27 L 5096.77,8267.89 L 5089.55,8310.25 L 4998.89,8294.63 Z" />
    <text x="5047.83" y="8281.26" class="label">進氣口</text>
    <path class="room" d="M 5061.31,8475.86 L 5071.60,8415.52 L 5146.29,8428.40 L 5136.00,8488.74 L 5061.31,8475.86 Z" />
    <text x="5103.80" y="8452.13" class="label">緊急升降機L2</text>
    <path class="room" d="M 5170.62,8324.23 L 5172.70,8312.03 L 5221.22,8320.39 L 5219.14,8332.59 L 5170.62,8324.23 Z" />
    <text x="5195.92" y="8322.31" class="label">電力/弱電</text>
    <path class="room" d="M 5057.18,8541.89 L 5074.52,8544.87 L 5077.47,8527.54 L 5125.99,8535.91 L 5120.19,8569.93 L 5070.60,8561.38 L 5057.18,8541.89 Z" />
    <text x="5091.59" y="8548.73" class="label">進氣</text>
    <path class="room" d="M 5070.60,8561.38 L 5147.64,8574.66 L 5153.44,8540.64 L 5198.59,8548.42 L 5179.22,8662.03 L 5140.28,8655.32 L 5139.29,8661.16 L 5070.60,8561.38 Z" />
    <text x="5134.60" y="8601.33" class="label">機電設備空間</text>
    <path class="room" d="M 5961.36,8283.03 L 5971.56,8223.20 L 6047.15,8236.23 L 6036.95,8296.05 L 5961.36,8283.03 Z" />
    <text x="6004.25" y="8259.63" class="label">行動不便電梯L4</text>
    <path class="room" d="M 5373.47,8884.42 L 5398.97,8734.84 L 5414.82,8742.78 L 5431.61,8748.43 L 5449.02,8751.70 L 5466.71,8752.51 L 5484.34,8750.84 L 5501.57,8746.74 L 5518.07,8740.28 L 5533.53,8731.58 L 5547.63,8720.82 L 5560.12,8708.20 L 5570.75,8693.96 L 5579.32,8678.37 L 5585.65,8661.74 L 5589.64,8644.40 L 5591.20,8626.66 L 5738.28,8629.43 L 5733.34,8658.42 L 5735.48,8658.79 L 5729.50,8690.92 L 5719.78,8722.10 L 5706.46,8751.91 L 5689.71,8779.93 L 5669.79,8805.75 L 5646.97,8829.02 L 5621.56,8849.41 L 5593.93,8866.63 L 5564.47,8880.44 L 5533.59,8890.64 L 5501.73,8897.09 L 5469.33,8899.71 L 5436.85,8898.45 L 5404.74,8893.33 L 5373.47,8884.42 Z M 5401.26,8892.34 L 5404.74,8893.33 L 5408.55,8893.94 L 5401.26,8892.34 Z M 5435.14,8898.18 L 5436.85,8898.45 L 5437.26,8898.47 L 5435.14,8898.18 Z M 5465.94,8899.58 L 5469.33,8899.71 L 5473.38,8899.38 L 5465.94,8899.58 Z M 5498.90,8897.32 L 5501.73,8897.09 L 5502.52,8896.93 L 5498.90,8897.32 Z M 5530.54,8891.26 L 5533.59,8890.64 L 5537.61,8889.31 L 5530.54,8891.26 Z M 5561.10,8881.55 L 5564.47,8880.44 L 5565.56,8879.93 L 5561.10,8881.55 Z M 5591.38,8867.83 L 5593.93,8866.63 L 5597.62,8864.33 L 5591.38,8867.83 Z M 5618.18,8851.52 L 5621.56,8849.41 L 5622.79,8848.42 L 5618.18,8851.52 Z M 5645.02,8830.58 L 5646.97,8829.02 L 5650.03,8825.89 L 5645.02,8830.58 Z M 5666.83,8808.77 L 5669.79,8805.75 L 5670.98,8804.22 L 5666.83,8808.77 Z" />
    <text x="5555.88" y="8763.18" class="label">車道</text>
    <path class="room" d="M 5071.60,8415.52 L 5083.64,8344.92 L 5158.33,8357.79 L 5146.29,8428.40 L 5071.60,8415.52 Z" />
    <text x="5114.96" y="8386.66" class="label">緊急升降機L1兼用行動不便電梯</text>
    <path class="room" d="M 5051.19,8149.74 L 5090.80,7917.37 L 5177.63,7932.33 L 5168.21,7987.54 L 5201.41,7993.26 L 5171.21,8170.42 L 5051.19,8149.74 Z" />
    <text x="5126.30" y="8043.90" class="label">日用水箱</text>
    <path class="room" d="M 4964.64,8495.54 L 4998.89,8294.63 L 5164.24,8323.13 L 5158.11,8357.75 L 5083.64,8344.92 L 5056.39,8504.75 L 5050.01,8503.65 L 5045.63,8529.32 L 4980.51,8518.10 L 4983.79,8498.84 L 4964.64,8495.54 Z" />
    <text x="5064.44" y="8411.98" class="label">丁梯</text>
    <path class="room" d="M 5006.11,8252.27 L 5012.13,8216.96 L 5031.29,8220.26 L 5039.16,8174.04 L 5020.01,8170.74 L 5065.53,7903.72 L 5084.68,7907.02 L 5092.56,7860.80 L 5073.41,7857.50 L 5088.95,7766.35 L 5108.10,7769.65 L 5111.38,7750.39 L 5176.51,7761.62 L 5173.46,7779.57 L 5219.40,7787.51 L 5222.46,7769.54 L 5513.57,7819.71 L 5510.51,7837.68 L 5556.47,7845.60 L 5559.54,7827.63 L 5858.30,7879.12 L 5855.24,7897.10 L 5901.20,7905.02 L 5904.27,7887.05 L 6083.02,7917.85 L 6079.96,7935.83 L 6097.83,7938.91 L 6080.76,8039.04 L 6062.89,8035.96 L 6057.63,8066.77 L 6075.51,8069.85 L 6047.15,8236.23 L 5971.56,8223.20 L 5971.73,8222.17 L 5918.37,8212.98 L 5907.82,8274.86 L 5961.19,8284.05 L 5961.36,8283.03 L 6036.95,8296.05 L 6027.36,8352.29 L 6006.68,8348.72 L 6001.42,8379.53 L 6022.11,8383.10 L 5973.96,8665.53 L 5956.55,8662.53 L 5950.83,8693.26 L 5968.71,8696.34 L 5948.68,8813.81 L 5739.29,8777.72 L 5742.46,8759.11 L 5722.03,8755.59 L 5718.86,8774.20 L 5696.01,8770.26 L 5700.10,8763.46 L 5704.00,8756.54 L 5707.69,8749.51 L 5711.18,8742.38 L 5714.47,8735.15 L 5717.55,8727.83 L 5720.41,8720.42 L 5723.06,8712.93 L 5725.50,8705.37 L 5727.72,8697.74 L 5729.72,8690.04 L 5731.49,8682.30 L 5733.05,8674.50 L 5734.38,8666.67 L 5735.48,8658.79 L 5763.98,8663.70 L 5770.11,8627.76 L 5739.47,8622.48 L 5738.28,8629.43 L 5591.20,8626.66 L 5589.64,8644.40 L 5585.65,8661.74 L 5579.32,8678.37 L 5570.75,8693.96 L 5560.12,8708.20 L 5547.63,8720.82 L 5533.53,8731.58 L 5518.07,8740.28 L 5501.57,8746.74 L 5484.34,8750.84 L 5466.71,8752.51 L 5449.02,8751.70 L 5431.61,8748.43 L 5414.82,8742.78 L 5398.97,8734.84 L 5371.51,8895.92 L 5318.20,8886.73 L 5302.23,8897.85 L 5151.11,8678.33 L 5177.64,8682.90 L 5181.14,8662.36 L 5179.22,8662.03 L 5234.92,8335.31 L 5219.14,8332.59 L 5221.22,8320.39 L 5172.70,8312.03 L 5174.01,8304.33 L 5092.94,8290.35 L 5096.77,8267.89 L 5006.11,8252.27 Z M 5051.19,8149.74 L 5171.21,8170.42 L 5201.41,7993.26 L 5168.21,7987.54 L 5177.63,7932.33 L 5090.80,7917.37 L 5051.19,8149.74 Z M 5073.41,7857.50 L 5092.56,7860.80 L 5086.33,7897.39 L 5151.44,7908.61 L 5156.80,7877.16 L 5150.68,7913.10 L 5181.32,7918.38 L 5187.45,7882.44 L 5181.65,7916.46 L 5243.57,7927.13 L 5269.07,7777.57 L 5222.46,7769.54 L 5219.40,7787.51 L 5173.46,7779.57 L 5176.50,7761.62 L 5111.38,7750.39 L 5108.10,7769.65 L 5088.95,7766.35 L 5073.41,7857.50 Z M 5097.28,8226.35 L 5127.92,8231.63 L 5134.05,8195.68 L 5103.40,8190.40 L 5097.28,8226.35 Z M 5373.80,8716.71 L 5394.23,8720.23 L 5397.73,8699.69 L 5377.30,8696.17 L 5373.80,8716.71 Z M 5388.61,8599.01 L 5419.25,8604.29 L 5425.38,8568.34 L 5394.74,8563.06 L 5388.61,8599.01 Z M 5442.01,8285.76 L 5472.65,8291.04 L 5478.78,8255.10 L 5448.14,8249.82 L 5442.01,8285.76 Z M 5495.41,7972.52 L 5526.05,7977.80 L 5532.18,7941.85 L 5501.54,7936.57 L 5495.41,7972.52 Z M 5510.51,7837.68 L 5556.47,7845.60 L 5510.51,7837.68 L 5510.51,7837.68 Z M 5696.01,8770.26 L 5718.83,8774.20 L 5696.01,8770.26 L 5696.01,8770.26 L 5696.01,8770.26 Z M 5706.21,8752.33 L 5706.46,8751.91 L 5706.63,8751.53 L 5706.21,8752.33 Z M 5719.61,8722.48 L 5719.78,8722.10 L 5719.88,8721.80 L 5719.61,8722.48 Z M 5729.43,8691.17 L 5729.50,8690.92 L 5729.54,8690.74 L 5729.43,8691.17 Z M 5786.74,8345.18 L 5817.38,8350.46 L 5823.51,8314.51 L 5792.87,8309.23 L 5786.74,8345.18 Z M 5840.14,8031.93 L 5870.78,8037.21 L 5876.91,8001.27 L 5846.27,7995.99 L 5840.14,8031.93 Z M 5855.24,7897.10 L 5901.20,7905.02 L 5904.27,7887.05 L 5901.20,7905.02 L 5855.24,7897.10 Z M 5950.83,8693.26 L 5968.71,8696.34 L 5950.83,8693.26 L 5956.55,8662.53 L 5973.96,8665.53 L 5956.09,8662.45 L 5950.83,8693.26 Z" />
    <text x="5551.97" y="8324.12" class="label">停車空間</text>
  </g>
  <g id="gis_room_HR_B4">
    <path class="room" d="M 2311.88,1507.79 L 2312.49,1351.49 L 2317.94,1351.51 L 2318.03,1327.42 L 2393.81,1327.72 L 2393.16,1495.74 L 2360.77,1495.62 L 2360.63,1532.08 L 2317.23,1531.91 L 2317.32,1507.82 L 2311.88,1507.79 Z" />
    <text x="2352.85" y="1429.75" class="label">特別安全梯</text>
    <path class="room" d="M 3259.15,1663.30 L 3259.39,1602.08 L 3335.17,1602.38 L 3334.93,1663.60 L 3259.15,1663.30 Z" />
    <text x="3297.16" y="1632.84" class="label">電梯</text>
    <path class="room" d="M 2303.79,1656.16 L 2304.01,1598.29 L 2379.80,1598.59 L 2379.57,1656.46 L 2303.79,1656.16 Z" />
    <text x="2341.79" y="1627.38" class="label">電梯</text>
    <path class="room" d="M 2446.67,1394.10 L 2446.83,1352.02 L 2470.80,1352.12 L 2470.89,1328.02 L 2626.34,1328.64 L 2626.25,1352.74 L 2650.60,1352.83 L 2650.44,1394.90 L 2446.67,1394.10 Z" />
    <text x="2548.63" y="1361.46" class="label">管弦樂社</text>
    <path class="room" d="M 2303.56,1713.01 L 2303.79,1656.16 L 2379.57,1656.46 L 2379.35,1713.32 L 2303.56,1713.01 Z" />
    <text x="2341.57" y="1684.74" class="label">電梯</text>
    <path class="room" d="M 2463.33,1768.90 L 2463.61,1699.22 L 2493.01,1699.34 L 2493.50,1574.69 L 2464.09,1574.57 L 2464.25,1534.45 L 2470.08,1534.47 L 2470.22,1509.99 L 2625.63,1510.60 L 2625.53,1535.09 L 2649.89,1535.19 L 2648.96,1769.64 L 2624.61,1769.55 L 2624.52,1793.64 L 2469.07,1793.03 L 2469.16,1768.93 L 2463.33,1768.90 Z" />
    <text x="2556.61" y="1651.81" class="label">音樂性社團隔音練習室</text>
    <path class="room" d="M 2893.06,1600.24 L 2982.12,1600.59 L 2981.49,1772.52 L 2987.32,1772.55 L 2987.24,1795.08 L 2892.34,1794.70 L 2893.06,1600.24 Z" />
    <text x="2939.83" y="1697.66" class="label">工業工程系學會</text>
    <path class="room" d="M 2446.26,1508.33 L 2446.47,1454.66 L 2571.74,1455.16 L 2571.52,1510.39 L 2470.22,1509.99 L 2470.22,1508.42 L 2446.26,1508.33 Z" />
    <text x="2509.00" y="1482.53" class="label">小排練室</text>
    <path class="room" d="M 3119.79,1687.61 L 3120.06,1619.11 L 3171.23,1619.31 L 3171.05,1665.28 L 3119.79,1687.61 Z" />
    <text x="3145.51" y="1653.36" class="label">樓梯</text>
    <path class="room" d="M 2446.43,1454.66 L 2446.67,1394.10 L 2650.44,1394.90 L 2650.20,1455.47 L 2446.43,1454.66 Z" />
    <text x="2548.43" y="1424.78" class="label">管弦樂社</text>
    <path class="room" d="M 3246.84,1499.13 L 3247.50,1331.10 L 3323.28,1331.40 L 3323.19,1355.50 L 3328.11,1355.52 L 3327.49,1511.82 L 3322.57,1511.80 L 3322.48,1535.90 L 3279.08,1535.73 L 3279.22,1499.26 L 3246.84,1499.13 Z" />
    <text x="3287.47" y="1433.50" class="label">特別安全梯</text>
    <path class="room" d="M 3273.39,1796.21 L 3273.63,1735.00 L 3329.21,1735.22 L 3329.06,1772.34 L 3321.55,1772.31 L 3321.45,1796.41 L 3273.39,1796.21 Z" />
    <text x="3301.30" y="1765.70" class="label">資源回收處理室</text>
    <path class="room" d="M 2446.93,1325.97 L 2447.13,1275.83 L 2469.15,1275.91 L 2469.64,1151.89 L 2471.74,1149.38 L 2651.40,1150.09 L 2650.70,1326.78 L 2626.35,1326.69 L 2626.34,1328.64 L 2470.89,1328.02 L 2470.90,1326.07 L 2446.93,1325.97 Z M 2449.82,1325.99 L 2470.90,1326.07 L 2470.90,1326.07 L 2449.82,1325.99 Z M 2626.35,1326.69 L 2650.70,1326.78 L 2626.35,1326.69 L 2626.35,1326.69 Z" />
    <text x="2549.16" y="1239.01" class="label">社團活動空間</text>
    <path class="room" d="M 2715.18,1533.88 L 2715.77,1383.83 L 2809.04,1384.20 L 2809.16,1353.46 L 2833.52,1353.56 L 2833.61,1329.46 L 2924.29,1329.82 L 2923.49,1534.71 L 2832.81,1534.35 L 2832.90,1509.86 L 2806.99,1509.76 L 2806.90,1534.25 L 2715.18,1533.88 Z" />
    <text x="2819.73" y="1432.08" class="label">社團活動空間</text>
    <path class="room" d="M 2912.01,1158.92 L 3107.36,1159.69 L 3106.69,1330.54 L 3014.97,1330.18 L 3014.98,1328.23 L 2989.07,1328.12 L 2989.06,1330.08 L 2911.33,1329.77 L 2912.01,1158.92 Z" />
    <text x="3009.34" y="1244.73" class="label">社團活動空間</text>
    <path class="room" d="M 2716.65,1158.14 L 2912.01,1158.92 L 2911.33,1329.77 L 2833.61,1329.46 L 2833.62,1327.51 L 2807.71,1327.40 L 2807.70,1329.36 L 2715.99,1328.99 L 2716.65,1158.14 Z M 2807.71,1327.40 L 2833.62,1327.51 L 2833.62,1327.51 L 2807.71,1327.40 Z" />
    <text x="2814.00" y="1243.96" class="label">社團活動空間</text>
    <path class="room" d="M 3171.27,1511.20 L 3171.88,1354.90 L 3196.23,1355.00 L 3196.33,1330.90 L 3247.50,1331.10 L 3246.86,1494.05 L 3246.69,1535.60 L 3222.99,1535.51 L 3195.53,1535.40 L 3195.62,1511.30 L 3171.27,1511.20 Z" />
    <text x="3209.38" y="1433.25" class="label">電資學士班系學會</text>
    <path class="room" d="M 2571.52,1510.39 L 2571.74,1455.16 L 2650.24,1455.47 L 2650.03,1509.14 L 2625.63,1509.04 L 2625.63,1510.60 L 2571.52,1510.39 Z" />
    <text x="2610.88" y="1482.88" class="label">排練室前室</text>
    <path class="room" d="M 2575.00,840.66 L 2577.80,839.53 L 2580.61,838.41 L 2583.42,837.31 L 2586.24,836.22 L 2589.06,835.14 L 2591.89,834.07 L 2594.73,833.02 L 2597.56,831.98 L 2600.41,830.96 L 2603.26,829.94 L 2606.11,828.94 L 2608.96,827.96 L 2611.83,826.99 L 2614.69,826.03 L 2617.56,825.08 L 2631.31,867.56 L 2627.85,868.70 L 2624.41,869.86 L 2620.97,871.04 L 2617.53,872.25 L 2614.11,873.47 L 2610.69,874.71 L 2607.28,875.98 L 2603.88,877.27 L 2600.48,878.57 L 2597.10,879.90 L 2593.72,881.24 L 2590.35,882.61 L 2586.98,883.99 L 2583.63,885.40 L 2580.28,886.83 L 2575.00,840.66 Z" />
    <text x="2603.15" y="855.95" class="label">樓梯</text>
    <path class="room" d="M 2714.16,1794.00 L 2714.92,1599.53 L 2804.00,1599.88 L 2803.36,1771.82 L 2805.96,1771.83 L 2805.88,1794.36 L 2714.16,1794.00 Z" />
    <text x="2760.06" y="1696.95" class="label">資訊與財金管理系學會</text>
    <path class="room" d="M 2804.00,1599.88 L 2893.06,1600.24 L 2892.34,1794.70 L 2831.78,1794.46 L 2831.88,1770.37 L 2805.97,1770.26 L 2805.96,1771.83 L 2803.36,1771.82 L 2804.00,1599.88 Z" />
    <text x="2848.21" y="1697.29" class="label">經營管理系學會</text>
    <path class="room" d="M 2924.29,1329.82 L 2989.06,1330.08 L 2988.97,1354.17 L 3014.87,1354.28 L 3014.97,1330.18 L 3106.69,1330.54 L 3106.04,1493.75 L 3057.47,1493.56 L 3057.30,1535.24 L 3014.17,1535.07 L 3014.26,1510.58 L 2988.35,1510.48 L 2988.26,1534.97 L 2923.49,1534.71 L 2924.29,1329.82 Z" />
    <text x="3015.09" y="1432.53" class="label">大型社團活動空間</text>
    <path class="room" d="M 2303.35,1768.27 L 2303.56,1713.01 L 2379.35,1713.32 L 2379.04,1792.67 L 2316.21,1792.42 L 2316.30,1768.32 L 2303.35,1768.27 Z" />
    <text x="2341.35" y="1752.84" class="label">電梯</text>
    <path class="room" d="M 3171.98,1328.85 L 3172.67,1154.21 L 3181.92,1165.38 L 3201.83,1148.72 L 3185.25,1128.69 L 3172.73,1139.18 L 3172.84,1110.15 L 3325.70,1110.76 L 3325.61,1134.59 L 3324.05,1134.58 L 3323.95,1160.63 L 3325.50,1160.64 L 3325.33,1205.46 L 3309.27,1205.39 L 3308.97,1279.25 L 3247.70,1279.00 L 3247.50,1331.10 L 3196.33,1330.90 L 3196.34,1328.95 L 3171.98,1328.85 Z" />
    <text x="3248.84" y="1220.63" class="label">品管班/工地主任班辦公室</text>
    <path class="room" d="M 2347.53,995.48 L 2355.67,987.10 L 2363.96,978.86 L 2372.39,970.77 L 2380.96,962.83 L 2389.67,955.05 L 2398.52,947.43 L 2407.50,939.97 L 2416.62,932.66 L 2425.86,925.53 L 2435.22,918.55 L 2444.71,911.75 L 2454.32,905.12 L 2464.04,898.66 L 2473.87,892.38 L 2483.82,886.27 L 2484.07,886.72 L 2506.56,873.78 L 2506.31,873.33 L 2510.79,870.93 L 2515.28,868.55 L 2519.80,866.20 L 2524.32,863.88 L 2528.86,861.59 L 2533.41,859.32 L 2537.97,857.08 L 2542.55,854.86 L 2547.14,852.67 L 2551.74,850.51 L 2556.35,848.38 L 2560.98,846.27 L 2565.62,844.19 L 2570.27,842.14 L 2574.93,840.12 L 2580.28,886.83 L 2583.63,885.40 L 2586.98,883.99 L 2590.35,882.61 L 2593.72,881.24 L 2597.10,879.90 L 2600.48,878.57 L 2603.88,877.27 L 2607.28,875.98 L 2610.69,874.71 L 2614.11,873.47 L 2617.53,872.25 L 2620.97,871.04 L 2624.41,869.86 L 2627.85,868.70 L 2631.31,867.56 L 2617.56,825.08 L 2622.72,823.41 L 2627.90,821.79 L 2633.09,820.21 L 2638.29,818.68 L 2643.51,817.18 L 2648.73,815.73 L 2653.97,814.33 L 2659.22,812.97 L 2664.49,811.65 L 2669.76,810.37 L 2675.04,809.14 L 2680.33,807.96 L 2685.64,806.81 L 2690.95,805.72 L 2696.27,804.66 L 2696.35,805.17 L 2698.01,804.89 L 2726.60,971.76 L 2724.94,972.05 L 2726.81,982.93 L 2595.64,1030.34 L 2590.19,1020.76 L 2567.70,1033.69 L 2574.13,1045.00 L 2517.59,1085.65 L 2498.87,1063.11 L 2380.14,1062.64 L 2381.49,1061.04 L 2363.19,1045.47 L 2381.17,1024.09 L 2347.53,995.48 Z" />
    <text x="2537.17" y="945.16" class="label">陽台</text>
    <path class="room" d="M 2982.12,1600.59 L 3071.16,1600.94 L 3070.40,1795.41 L 3013.14,1795.18 L 3013.24,1771.09 L 2987.33,1770.98 L 2987.32,1772.55 L 2981.49,1772.52 L 2982.12,1600.59 Z M 2987.33,1770.98 L 3013.24,1771.09 L 2987.33,1770.98 L 2987.33,1770.98 Z" />
    <text x="3026.32" y="1698.00" class="label">資訊工程系學會</text>
    <path class="room" d="M 3308.97,1279.25 L 3309.27,1205.39 L 3325.33,1205.46 L 3325.04,1279.31 L 3308.97,1279.25 Z" />
    <text x="3317.15" y="1242.35" class="label">電力/撒水</text>
    <path class="room" d="M 2698.01,804.89 L 2721.89,800.75 L 2721.62,799.21 L 2731.27,797.83 L 2740.95,796.60 L 2750.64,795.50 L 2760.34,794.55 L 2770.05,793.75 L 2779.78,793.08 L 2789.52,792.56 L 2799.26,792.18 L 2809.00,791.94 L 2818.75,791.85 L 2828.50,791.90 L 2838.25,792.10 L 2847.99,792.44 L 2857.73,792.92 L 2867.46,793.54 L 2866.29,1090.48 L 2730.53,1089.94 L 2730.90,997.45 L 2754.87,993.30 L 2750.48,967.62 L 2726.60,971.76 L 2698.01,804.89 Z M 2730.90,997.45 L 2754.87,993.30 L 2754.87,993.30 L 2730.90,997.45 L 2730.90,997.45 Z" />
    <text x="2782.74" y="941.17" class="label">影像監測實驗室</text>
    <path class="room" d="M 2866.29,1090.48 L 2867.46,793.54 L 2871.23,793.82 L 2875.01,794.13 L 2878.78,794.45 L 2882.55,794.80 L 2886.31,795.16 L 2890.08,795.55 L 2893.84,795.96 L 2897.60,796.39 L 2901.36,796.85 L 2905.11,797.32 L 2908.87,797.82 L 2912.61,798.33 L 2916.36,798.87 L 2920.10,799.43 L 2923.84,800.01 L 2923.57,801.55 L 2949.07,806.18 L 2949.34,804.64 L 2962.58,807.49 L 2975.75,810.60 L 2988.86,813.99 L 3001.89,817.64 L 3014.86,821.56 L 3027.73,825.75 L 3040.53,830.19 L 3053.22,834.89 L 3065.83,839.86 L 3078.32,845.08 L 3090.71,850.55 L 3102.99,856.27 L 3115.15,862.25 L 3127.19,868.47 L 3139.10,874.93 L 3138.31,876.29 L 3160.70,889.40 L 3161.48,888.05 L 3172.95,895.28 L 3184.27,902.74 L 3195.43,910.43 L 3206.44,918.34 L 3217.29,926.48 L 3227.97,934.84 L 3238.47,943.42 L 3248.81,952.21 L 3258.96,961.20 L 3268.93,970.40 L 3278.71,979.81 L 3288.30,989.41 L 3297.70,999.21 L 3306.89,1009.19 L 3315.88,1019.36 L 3314.69,1020.36 L 3326.00,1034.03 L 3325.70,1110.76 L 3172.84,1110.15 L 3172.91,1091.70 L 2866.29,1090.48 Z M 2889.07,993.83 L 2914.57,998.45 L 2919.17,972.82 L 2893.67,968.19 L 2889.07,993.83 Z M 2923.57,801.55 L 2949.07,806.18 L 2923.57,801.55 L 2923.57,801.55 Z M 3040.49,1045.10 L 3062.88,1058.22 L 3075.92,1035.71 L 3053.54,1022.59 L 3040.49,1045.10 Z M 3261.92,1064.53 L 3278.49,1084.55 L 3298.41,1067.88 L 3281.83,1047.86 L 3261.92,1064.53 Z" />
    <text x="3096.15" y="952.15" class="label">材料實驗室</text>
  </g>
</svg>