<svg width="16000" height="9099" viewBox="0 0 16000 9099" xmlns="http://www.w3.org/2000/svg" xmlns:xlink="http://www.w3.org/1999/xlink">

    <style>
        .building { fill: #f0f4f8; stroke: #d1dce5; stroke-width: 2; }
        .room     { fill: #ffffff; fill-opacity: 0.8; stroke: #bcccdc; stroke-width: 1; }
        .label    { font-family: "Noto Sans TC", sans-serif; font-size: 24px; fill: #334e68; font-weight: 500; text-anchor: middle; dominant-baseline: middle; }
    </style>
      <g id="gis_gis_building_geom">
    <path class="building" d="M 2949.26,4010.03 L 4140.85,4021.56 L 4142.10,4292.67 L 4130.90,4292.64 L 4130.40,4356.44 L 3226.66,4355.84 L 3226.31,4812.55 L 3401.68,4811.80 L 3401.95,5141.81 L 2942.28,5141.31 L 2949.26,4010.03 Z" />
    <path class="building" d="M 7088.12,2560.89 L 7700.72,2562.04 L 7700.87,2481.66 L 8148.51,2483.00 L 8147.15,2562.88 L 8693.32,2563.92 L 8721.63,2695.28 L 8721.63,2695.28 L 8715.57,3280.48 L 8690.90,3280.61 L 8690.48,3403.55 L 7085.32,3389.98 L 7085.31,3204.63 L 7000.35,3203.97 L 7003.43,2738.84 L 7087.35,2738.26 L 7088.12,2560.89 Z" />
    <path class="building" d="M 4843.51,1956.47 L 4844.51,1787.79 L 4906.35,1787.49 L 4905.24,1712.44 L 5766.54,1719.44 L 5767.05,1759.83 L 6027.80,1762.57 L 6041.22,1778.35 L 6040.91,2113.44 L 5920.93,2113.62 L 5921.58,2180.69 L 4855.22,2175.20 L 4857.61,1956.59 L 4843.51,1956.47 Z" />
    <path class="building" d="M 3188.76,5839.04 L 3184.44,6132.85 L 3009.51,6131.08 L 3010.12,5838.90 L 3188.76,5839.04 Z" />
    <path class="building" d="M 8161.26,3799.06 L 8661.34,3802.64 L 8661.72,3865.86 L 8759.20,3866.25 L 8755.51,3995.61 L 8806.86,3995.16 L 8806.05,4079.95 L 8850.04,4079.42 L 8848.57,4261.53 L 8807.12,4260.63 L 8806.31,4341.05 L 8464.87,4337.40 L 8462.68,4793.00 L 8947.00,4797.31 L 8944.64,5163.38 L 9070.07,5164.43 L 9068.88,5256.28 L 8943.78,5254.69 L 8940.58,5624.81 L 8458.26,5621.41 L 8453.24,6072.52 L 9133.83,6077.89 L 9126.51,6745.48 L 8044.27,6736.86 L 8045.15,6541.70 L 7946.95,6541.19 L 7947.74,6409.27 L 7850.08,6409.19 L 7850.29,6387.18 L 7663.94,6386.98 L 7662.42,6294.92 L 7365.94,6294.05 L 7367.40,6164.56 L 7219.73,6164.20 L 7220.56,6079.32 L 7176.49,6078.82 L 7179.52,5914.56 L 7222.17,5914.94 L 7222.98,5832.54 L 7863.48,5840.16 L 7863.88,5617.56 L 7754.27,5617.59 L 7754.43,5521.38 L 7739.08,5522.23 L 7740.67,5376.11 L 7755.56,5376.17 L 7756.55,5277.27 L 7785.97,5276.79 L 7786.18,5127.15 L 7757.98,5127.35 L 7758.14,5028.99 L 7743.59,5028.70 L 7745.39,4886.44 L 7759.72,4886.75 L 7760.11,4786.55 L 7849.88,4787.63 L 7849.21,4560.97 L 7233.65,4557.12 L 7234.22,4480.71 L 7180.57,4480.46 L 7181.34,4311.50 L 7235.49,4311.75 L 7236.10,4231.20 L 7381.06,4231.84 L 7382.58,4106.09 L 7678.18,4106.93 L 7679.62,4016.64 L 7870.79,4014.88 L 7870.93,3994.82 L 7966.89,3995.55 L 7968.35,3863.10 L 8160.60,3863.87 L 8161.26,3799.06 Z" />
    <path class="building" d="M 1785.34,1818.91 L 1846.80,1820.11 L 1846.08,1868.88 L 1915.10,1869.87 L 1914.84,1881.19 L 1956.32,1881.91 L 1956.29,1947.64 L 1913.30,1947.43 L 1912.91,1964.27 L 1844.69,1963.82 L 1844.25,1993.82 L 2113.96,1996.73 L 2111.80,2313.15 L 1638.41,2309.74 L 1638.57,2369.36 L 1402.42,2370.43 L 1402.86,2308.05 L 913.25,2304.52 L 921.14,1983.86 L 1782.78,1993.15 L 1785.34,1818.91 Z" />
    <path class="building" d="M 1233.29,3176.04 L 1233.24,3086.16 L 1689.31,3086.09 L 1689.85,3178.73 L 2105.12,3181.86 L 2100.21,3742.07 L 811.22,3734.26 L 816.44,3173.49 L 1233.29,3176.04 Z" />
    <path class="building" d="M 4422.39,3825.20 L 4557.45,3823.98 L 4558.56,3948.97 L 4423.51,3950.19 L 4422.39,3825.20 Z" />
    <path class="building" d="M 5454.09,3024.68 L 5470.25,3024.58 L 5470.20,3032.77 L 5776.10,3034.35 L 5777.47,2956.96 L 5982.23,2956.10 L 5981.83,3035.41 L 6304.16,3037.07 L 6307.16,3777.27 L 6169.76,3776.65 L 6170.26,3825.65 L 5997.21,3824.78 L 5999.79,3339.48 L 5451.60,3336.55 L 5454.09,3024.68 Z" />
    <path class="building" d="M 810.23,4162.32 L 2094.03,4174.33 L 2089.09,4719.68 L 2050.10,4719.24 L 2050.20,4746.64 L 1713.11,4742.66 L 1713.39,4715.41 L 805.90,4705.09 L 810.23,4162.32 Z" />
    <path class="building" d="M 5154.02,4923.99 L 5174.31,4923.63 L 5174.75,4823.71 L 5156.69,4823.06 L 5158.73,4730.00 L 5153.87,4730.05 L 5153.30,4532.71 L 4982.76,4534.29 L 4982.12,4520.32 L 4753.21,4517.98 L 4752.95,4206.61 L 5867.58,4215.65 L 5865.18,4622.01 L 5896.39,4622.08 L 5894.82,4763.49 L 6306.89,4767.17 L 6301.07,5688.40 L 5887.43,5691.03 L 5886.89,5832.41 L 5854.54,5832.37 L 5853.47,6070.58 L 5399.78,6064.30 L 5405.55,5280.53 L 5376.56,5280.37 L 5376.79,5215.40 L 5151.84,5213.08 L 5151.97,5219.13 L 5154.02,4923.99 Z" />
    <path class="building" d="M 3393.95,5787.13 L 3442.50,5787.21 L 3442.68,5774.53 L 3630.52,5775.89 L 3631.48,5739.98 L 4112.97,5745.69 L 4113.00,5779.38 L 4284.12,5780.62 L 4284.41,5744.13 L 4286.78,5744.18 L 4286.73,5683.26 L 4511.51,5688.82 L 4511.10,5748.44 L 4600.29,5750.13 L 4600.37,5781.26 L 4984.14,5785.27 L 4983.80,5976.74 L 5219.32,5978.53 L 5219.88,6039.07 L 5265.74,6038.84 L 5260.63,6205.34 L 5217.18,6206.06 L 5217.99,6267.47 L 5167.99,6267.69 L 5166.59,6358.65 L 4403.43,6352.99 L 4402.67,6219.38 L 4187.82,6220.82 L 4189.74,6082.55 L 3392.66,6074.33 L 3392.93,6015.46 L 3346.48,6015.69 L 3345.67,5846.07 L 3393.69,5845.84 L 3393.95,5787.13 Z" />
    <path class="building" d="M 3480.58,1049.19 L 3478.99,999.72 L 3622.50,1000.51 L 3623.18,1050.84 L 3766.99,1052.51 L 3767.46,1154.80 L 3876.62,1155.69 L 3876.12,1302.54 L 4088.23,1299.59 L 4089.53,1365.74 L 4257.77,1366.48 L 4254.19,1531.73 L 3773.89,1529.93 L 3775.24,1614.55 L 3768.91,1632.60 L 3503.68,1632.43 L 3508.43,1214.67 L 3463.89,1214.91 L 3467.11,1049.03 L 3480.58,1049.19 Z" />
    <path class="building" d="M 936.26,5355.33 L 938.67,5282.05 L 1124.06,5283.51 L 1124.24,5251.09 L 1291.35,5250.09 L 1307.39,5242.52 L 1325.18,5238.63 L 1356.16,5233.68 L 1377.43,5232.40 L 1405.24,5235.72 L 1428.02,5240.86 L 1440.65,5244.93 L 1460.13,5252.19 L 1607.57,5253.53 L 1607.60,5288.52 L 1776.51,5290.71 L 1776.60,5240.34 L 2103.44,5244.81 L 2103.50,5356.82 L 2205.45,5356.56 L 2205.38,5378.57 L 2282.83,5379.22 L 2285.51,5565.09 L 2894.09,5569.40 L 2893.37,5633.72 L 2936.68,5633.51 L 2937.52,5803.75 L 2846.36,5804.20 L 2846.34,5953.33 L 2559.91,5955.61 L 2546.09,5965.10 L 2519.95,5972.97 L 2488.77,5982.33 L 2463.81,5984.39 L 2436.80,5986.16 L 2402.61,5984.38 L 2377.54,5982.72 L 2340.87,5977.26 L 2314.70,5972.21 L 2285.31,5960.47 L 2259.99,5947.24 L 1985.67,5944.67 L 1985.29,5908.44 L 1769.65,5909.19 L 1773.26,5665.81 L 1597.93,5664.92 L 1599.05,5851.91 L 1024.38,5845.83 L 1022.48,5808.99 L 1001.29,5809.19 L 1000.42,5661.87 L 882.09,5661.27 L 883.76,5439.25 L 856.33,5438.30 L 859.12,5355.29 L 936.26,5355.33 Z" />
    <path class="building" d="M 13529.99,6560.54 L 14941.59,6571.40 L 14932.04,7144.65 L 14992.06,7145.75 L 14993.21,7490.04 L 14952.13,7489.30 L 14951.20,7527.87 L 13628.49,7517.89 L 13629.06,7497.74 L 13464.17,7496.13 L 13468.50,7115.25 L 13528.85,7116.51 L 13530.83,6851.87 L 13480.99,6851.93 L 13479.73,6621.87 L 13530.11,6622.39 L 13529.99,6560.54 Z" />
    <path class="building" d="M 5093.05,7797.46 L 5095.59,7780.54 L 6087.61,7941.33 L 6022.66,8306.95 L 5960.86,8299.45 L 5951.07,8349.55 L 4941.17,8184.55 L 4984.12,7921.91 L 5034.25,7929.51 L 5057.02,7792.95 L 5093.05,7797.46 Z" />
    <path class="building" d="M 924.06,1000.40 L 1568.36,1012.99 L 1566.57,922.99 L 1880.10,928.66 L 1881.99,1019.12 L 2136.51,1024.09 L 2121.00,1825.46 L 908.59,1801.77 L 924.06,1000.40 Z" />
    <path class="building" d="M 3553.73,1653.86 L 4853.30,1652.82 L 4852.16,1787.86 L 4844.51,1787.79 L 4843.51,1956.47 L 4850.75,1956.53 L 4849.40,2118.29 L 4411.37,2114.16 L 4411.76,2160.24 L 4465.88,2160.87 L 4465.14,2276.87 L 4231.13,2277.71 L 4231.03,2158.16 L 4287.83,2158.82 L 4287.44,2113.00 L 3550.76,2106.07 L 3553.73,1653.86 Z" />
    <path class="building" d="M 2268.76,1003.93 L 2280.78,984.64 L 2301.22,961.02 L 2328.14,932.78 L 2376.93,892.39 L 2432.02,852.59 L 2456.33,836.30 L 2492.30,816.65 L 2492.65,812.32 L 2497.05,801.30 L 2505.95,790.96 L 2517.92,784.39 L 2534.43,781.93 L 2543.82,782.04 L 2553.79,783.27 L 2558.23,785.09 L 2561.34,783.57 L 2614.81,766.10 L 2654.80,754.95 L 2736.40,738.94 L 2774.76,736.02 L 2819.06,734.40 L 2864.17,735.02 L 2912.73,739.61 L 2955.40,745.85 L 2999.31,756.53 L 3064.54,776.64 L 3111.23,795.03 L 3147.21,812.60 L 3190.74,836.66 L 3245.03,874.91 L 3335.46,950.82 L 3362.11,979.42 L 3379.06,1004.60 L 3316.60,1050.11 L 3330.09,1064.69 L 3312.34,1077.80 L 3355.45,1126.80 L 3354.12,1319.70 L 3355.49,1799.51 L 2657.61,1799.22 L 2649.90,2029.27 L 3171.26,2031.80 L 3172.51,1971.58 L 3282.84,1972.96 L 3284.07,2032.35 L 3345.52,2032.65 L 3344.64,2341.85 L 3195.08,2340.34 L 3194.82,2358.50 L 3161.99,2359.41 L 3162.40,2340.50 L 2293.87,2340.13 L 2291.91,1914.68 L 2445.18,1915.40 L 2446.50,1799.14 L 2286.94,1799.08 L 2288.75,1126.37 L 2343.08,1060.46 L 2268.76,1003.93 Z" />
    <path class="building" d="M 2375.15,3011.39 L 2703.50,3012.59 L 2706.21,2927.10 L 2908.80,2929.26 L 2907.77,3013.34 L 3224.19,3014.50 L 3221.87,3314.69 L 2675.53,3316.31 L 2672.14,3806.07 L 2611.01,3805.78 L 2611.50,3752.93 L 2369.52,3750.98 L 2375.15,3011.39 Z" />
    <path class="building" d="M 3481.73,3013.15 L 4216.24,3018.45 L 4216.72,2932.76 L 4466.90,2931.38 L 4468.50,3020.27 L 5200.00,3025.54 L 5196.12,3341.16 L 4532.93,3336.21 L 4533.28,3456.98 L 4146.26,3455.47 L 4145.86,3333.24 L 3480.74,3325.73 L 3481.73,3013.15 Z" />
    <path class="building" d="M 2359.65,4017.52 L 2682.41,4014.00 L 2683.31,4054.59 L 2674.47,4054.84 L 2667.93,4437.03 L 2763.04,4437.67 L 2761.52,4667.51 L 2664.01,4666.86 L 2654.87,5374.86 L 2660.54,5374.70 L 2659.91,5389.96 L 2344.25,5388.14 L 2359.65,4017.52 Z" />
    <path class="building" d="M 3502.33,4517.98 L 3587.32,4518.98 L 3587.05,4474.73 L 3922.02,4476.01 L 3922.52,4509.52 L 4982.12,4520.32 L 4982.76,4534.29 L 5153.30,4532.71 L 5153.87,4730.05 L 5158.73,4730.00 L 5156.69,4823.06 L 5174.75,4823.71 L 5174.31,4923.63 L 5154.02,4923.99 L 5151.97,5219.13 L 5071.20,5219.60 L 5070.35,5272.40 L 4665.04,5270.50 L 4665.31,5225.67 L 3579.55,5215.95 L 3579.14,5204.15 L 3499.71,5204.74 L 3500.84,4914.76 L 3479.18,4914.22 L 3480.73,4807.81 L 3501.94,4807.89 L 3502.33,4517.98 Z" />
    <path class="building" d="M 11448.31,2608.09 L 11443.96,2519.88 L 11936.57,2495.70 L 11937.54,2522.91 L 11969.51,2521.23 L 11973.77,2620.44 L 11941.10,2622.40 L 11943.56,2691.25 L 12023.28,2687.38 L 12021.53,2652.29 L 12212.21,2643.62 L 12214.73,2678.07 L 12292.75,2675.69 L 12289.42,2607.07 L 12255.82,2608.91 L 12251.93,2505.72 L 12284.43,2504.26 L 12283.18,2478.69 L 13428.92,2422.45 L 13435.62,2613.62 L 13468.77,2612.12 L 13467.35,2556.10 L 13646.50,2547.86 L 13649.47,2603.90 L 13684.37,2602.32 L 13671.86,2410.52 L 14152.96,2386.91 L 14170.11,2736.81 L 13904.32,2750.00 L 13914.52,2942.80 L 13340.66,2974.61 L 13352.87,3252.74 L 12426.20,3299.52 L 12409.53,3017.41 L 11743.24,3054.12 L 11741.45,3028.15 L 11711.32,3029.36 L 11704.20,2926.92 L 11734.35,2925.31 L 11729.77,2858.79 L 11461.38,2873.15 L 11457.02,2784.77 L 11415.95,2786.12 L 11410.15,2609.07 L 11448.31,2608.09 Z" />
  </g>
  <g id="gis_room_A6T_B2">
    <path class="room" d="M 3025.00,1883.91 L 3072.62,1884.09 L 3117.77,2147.65 L 3069.89,2147.46 L 3029.47,1909.97 L 3029.19,1908.37 L 3025.00,1883.91 Z" />
    <text x="3071.38" y="2015.78" class="label">無障礙坡道</text>
    <path class="room" d="M 3247.74,2092.54 L 3248.41,1921.27 L 3325.49,1921.57 L 3325.41,1942.41 L 3326.96,1942.42 L 3326.37,2092.86 L 3247.74,2092.54 Z" />
    <text x="3287.35" y="2007.06" class="label">女廁</text>
    <path class="room" d="M 2310.99,2028.91 L 2311.35,1938.39 L 2317.57,1938.41 L 2317.57,1936.46 L 2398.80,1936.78 L 2398.91,1907.47 L 2469.25,1907.75 L 2469.22,1915.57 L 2447.20,1915.48 L 2447.11,1938.93 L 2467.19,1939.00 L 2466.83,2029.53 L 2446.75,2029.45 L 2446.67,2050.94 L 2399.39,2050.76 L 2399.47,2030.57 L 2317.21,2030.24 L 2317.21,2028.94 L 2310.99,2028.91 Z" />
    <text x="2390.12" y="1979.21" class="label">樓梯</text>
    <path class="room" d="M 3193.24,2114.60 L 3193.74,1988.26 L 3248.15,1988.47 L 3247.74,2092.54 L 3245.79,2092.54 L 3245.71,2114.81 L 3193.24,2114.60 Z" />
    <text x="3220.69" y="2051.53" class="label">樓梯</text>
    <path class="room" d="M 2304.56,2281.58 L 2304.80,2220.36 L 2375.03,2220.64 L 2374.79,2281.86 L 2304.56,2281.58 Z" />
    <text x="2339.80" y="2251.11" class="label">電梯</text>
    <path class="room" d="M 2647.92,2430.78 L 2648.04,2398.87 L 2797.01,2399.46 L 2797.71,2222.32 L 3028.57,2223.23 L 3028.21,2258.76 L 3061.63,2453.91 L 3012.49,2453.72 L 3012.58,2432.23 L 2989.26,2432.13 L 2989.17,2453.63 L 2831.13,2453.00 L 2831.22,2431.51 L 2807.90,2431.42 L 2807.82,2452.91 L 2649.78,2452.28 L 2649.86,2430.79 L 2647.92,2430.78 Z M 3028.21,2258.76 L 3029.35,2265.42 L 3028.21,2258.76 L 3028.21,2258.76 Z" />
    <text x="2854.77" y="2338.11" class="label">六教碩士生研究室</text>
    <path class="room" d="M 2314.31,2372.08 L 2314.67,2281.62 L 2441.23,2282.12 L 2441.47,2220.90 L 2648.74,2221.73 L 2647.92,2430.78 L 2626.54,2430.70 L 2626.46,2452.19 L 2468.42,2451.56 L 2468.50,2430.07 L 2445.18,2429.98 L 2445.10,2451.47 L 2355.28,2451.11 L 2355.59,2372.24 L 2314.31,2372.08 Z" />
    <text x="2481.52" y="2336.55" class="label">防災中心及中央監控室</text>
    <path class="room" d="M 3172.56,2432.86 L 3172.85,2359.92 L 3183.86,2359.96 L 3183.90,2348.89 L 3323.81,2349.45 L 3323.72,2370.94 L 3335.38,2370.99 L 3335.23,2408.76 L 3328.76,2408.73 L 3328.61,2454.97 L 3193.82,2454.44 L 3193.94,2432.95 L 3172.56,2432.86 Z" />
    <path class="room" d="M 3328.58,2454.97 L 3328.76,2408.73 L 3328.61,2454.97 L 3328.58,2454.97 Z" />
    <path class="room" d="M 3193.82,2454.44 L 3193.94,2432.95 L 3193.85,2454.44 L 3193.82,2454.44 Z" />
    <text x="3253.97" y="2401.93" class="label">特別安全梯</text>
    <path class="room" d="M 2378.01,2050.67 L 2378.09,2030.48 L 2399.47,2030.57 L 2399.39,2050.76 L 2378.01,2050.67 Z" />
    <text x="2388.74" y="2040.62" class="label">機電</text>
    <path class="room" d="M 2374.79,2281.86 L 2375.03,2220.64 L 2441.47,2220.90 L 2441.23,2282.12 L 2374.79,2281.86 Z" />
    <text x="2408.13" y="2251.38" class="label">電梯</text>
    <path class="room" d="M 2648.04,2398.87 L 2648.74,2221.73 L 2797.71,2222.32 L 2797.01,2399.46 L 2648.04,2398.87 Z" />
    <text x="2722.88" y="2310.59" class="label">六教碩士生研究室</text>
  </g>
  <g id="gis_room_AM_B2">
    <path class="room" d="M 5061.31,8475.86 L 5071.60,8415.52 L 5146.29,8428.40 L 5136.00,8488.74 L 5061.31,8475.86 Z" />
    <text x="5103.80" y="8452.13" class="label">緊急升降機L2</text>
    <path class="room" d="M 5057.18,8541.89 L 5074.52,8544.87 L 5077.47,8527.54 L 5125.99,8535.91 L 5120.30,8569.28 L 5070.08,8560.63 L 5057.18,8541.89 Z" />
    <text x="5091.59" y="8548.41" class="label">進氣</text>
    <path class="room" d="M 5961.36,8283.03 L 5971.56,8223.20 L 6047.15,8236.23 L 6036.95,8296.05 L 5961.36,8283.03 Z" />
    <text x="6004.25" y="8259.63" class="label">行動不便電梯L4</text>
    <path class="room" d="M 4964.64,8495.54 L 4998.89,8294.63 L 5164.24,8323.13 L 5158.33,8357.79 L 5083.64,8344.92 L 5056.39,8504.75 L 5050.01,8503.65 L 5045.63,8529.32 L 4980.51,8518.10 L 4983.79,8498.84 L 4964.64,8495.54 Z" />
    <text x="5064.44" y="8411.98" class="label">丁梯</text>
    <path class="room" d="M 5071.60,8415.52 L 5083.64,8344.92 L 5158.33,8357.79 L 5146.29,8428.40 L 5071.60,8415.52 Z" />
    <text x="5114.96" y="8386.66" class="label">緊急升降機L1兼用行動不便電梯</text>
    <path class="room" d="M 5070.08,8560.63 L 5147.75,8574.01 L 5153.44,8540.64 L 5200.18,8548.69 L 5198.09,8556.47 L 5196.24,8564.31 L 5194.61,8572.20 L 5193.21,8580.14 L 5192.04,8588.11 L 5191.11,8596.12 L 5190.40,8604.14 L 5189.93,8612.19 L 5189.70,8620.25 L 5189.70,8628.30 L 5189.94,8636.36 L 5190.40,8644.40 L 5191.11,8652.43 L 5192.04,8660.44 L 5193.21,8668.41 L 5180.48,8666.22 L 5181.14,8662.36 L 5140.28,8655.32 L 5139.29,8661.16 L 5070.08,8560.63 Z" />
    <text x="5135.13" y="8604.52" class="label">機電設備空間</text>
    <path class="room" d="M 5151.11,8678.33 L 5177.64,8682.90 L 5180.48,8666.22 L 5193.21,8668.41 L 5202.98,8709.07 L 5218.75,8747.77 L 5240.17,8783.62 L 5266.74,8815.80 L 5297.85,8843.57 L 5332.78,8866.28 L 5370.73,8883.41 L 5410.83,8894.56 L 5452.13,8899.49 L 5493.71,8898.06 L 5534.59,8890.33 L 5573.83,8876.46 L 5610.54,8856.78 L 5643.85,8831.74 L 5673.02,8801.91 L 5722.54,8810.45 L 5711.92,8872.74 L 5697.24,8870.21 L 5692.66,8897.04 L 5366.22,8915.35 L 5369.59,8895.59 L 5318.20,8886.73 L 5302.23,8897.85 L 5151.11,8678.33 Z" />
    <text x="5436.82" y="8790.78" class="label">排氣口</text>
    <path class="room" d="M 5170.62,8324.23 L 5172.70,8312.03 L 5221.22,8320.39 L 5219.14,8332.59 L 5170.62,8324.23 Z" />
    <text x="5195.92" y="8322.31" class="label">電力/弱電</text>
    <path class="room" d="M 4998.89,8294.63 L 5006.11,8252.27 L 5096.77,8267.89 L 5089.55,8310.25 L 4998.89,8294.63 Z" />
    <text x="5047.83" y="8281.26" class="label">進氣口</text>
    <path class="room" d="M 5063.02,7918.48 L 5065.53,7903.72 L 5084.68,7907.02 L 5092.56,7860.80 L 5073.41,7857.50 L 5088.95,7766.35 L 5108.10,7769.65 L 5111.38,7750.39 L 5176.50,7761.62 L 5173.44,7779.59 L 5219.40,7787.51 L 5222.46,7769.54 L 5513.57,7819.71 L 5510.51,7837.68 L 5556.47,7845.60 L 5559.54,7827.63 L 5858.30,7879.12 L 5855.24,7897.10 L 5901.20,7905.02 L 5904.27,7887.05 L 6083.02,7917.85 L 6079.96,7935.83 L 6097.83,7938.91 L 6080.76,8039.04 L 6062.89,8035.96 L 6057.63,8066.77 L 6075.51,8069.85 L 6047.15,8236.23 L 5971.56,8223.20 L 5971.73,8222.17 L 5928.58,8214.74 L 5918.03,8276.62 L 5961.18,8284.06 L 5959.66,8293.04 L 6035.24,8306.07 L 6027.36,8352.29 L 6006.68,8348.72 L 6001.42,8379.53 L 6022.11,8383.10 L 5973.96,8665.53 L 5956.09,8662.45 L 5950.83,8693.26 L 5968.71,8696.34 L 5950.00,8806.11 L 5740.60,8770.02 L 5742.46,8759.11 L 5722.03,8755.59 L 5721.71,8757.51 L 5704.98,8754.63 L 5708.08,8748.65 L 5711.04,8742.59 L 5713.85,8736.46 L 5716.50,8730.27 L 5719.01,8724.01 L 5721.36,8717.70 L 5723.56,8711.32 L 5725.60,8704.90 L 5727.49,8698.42 L 5729.22,8691.91 L 5730.78,8685.35 L 5732.19,8678.75 L 5733.44,8672.12 L 5734.52,8665.47 L 5735.45,8658.78 L 5763.98,8663.70 L 5770.11,8627.76 L 5739.47,8622.48 L 5738.28,8629.43 L 5591.16,8626.66 L 5589.28,8646.33 L 5584.41,8665.49 L 5576.67,8683.66 L 5566.25,8700.42 L 5553.40,8715.37 L 5538.40,8728.16 L 5521.63,8738.48 L 5503.49,8746.08 L 5484.40,8750.79 L 5464.81,8752.50 L 5445.20,8751.16 L 5426.02,8746.80 L 5407.74,8739.53 L 5390.79,8729.52 L 5375.56,8717.02 L 5394.23,8720.23 L 5397.73,8699.69 L 5377.30,8696.17 L 5374.01,8715.50 L 5366.46,8707.32 L 5359.66,8698.52 L 5353.63,8689.16 L 5348.44,8679.31 L 5344.12,8669.04 L 5340.71,8658.43 L 5338.22,8647.56 L 5336.68,8636.52 L 5336.10,8625.38 L 5336.48,8614.24 L 5337.83,8603.17 L 5340.13,8592.26 L 5343.36,8581.60 L 5347.50,8571.25 L 5352.52,8561.31 L 5202.94,8535.53 L 5258.68,8208.58 L 5248.47,8206.81 L 5290.92,7957.76 L 5063.02,7918.48 Z M 5150.68,7913.10 L 5181.32,7918.38 L 5187.45,7882.44 L 5156.80,7877.16 L 5150.68,7913.10 Z M 5388.61,8599.01 L 5419.25,8604.29 L 5425.38,8568.34 L 5394.74,8563.06 L 5388.61,8599.01 Z M 5442.01,8285.76 L 5472.65,8291.04 L 5478.78,8255.10 L 5448.14,8249.82 L 5442.01,8285.76 Z M 5495.41,7972.52 L 5526.05,7977.80 L 5532.18,7941.85 L 5501.54,7936.57 L 5495.41,7972.52 Z M 5740.60,8770.02 L 5950.00,8806.11 L 5740.60,8770.02 L 5740.60,8770.02 Z M 5786.74,8345.18 L 5817.38,8350.46 L 5823.51,8314.51 L 5792.87,8309.23 L 5786.74,8345.18 Z M 5840.14,8031.93 L 5870.78,8037.21 L 5876.91,8001.27 L 5846.27,7995.99 L 5840.14,8031.93 Z" />
    <text x="5580.42" y="8278.25" class="label">防空避難室兼停車空間</text>
    <path class="room" d="M 5190.63,8647.54 L 5190.94,8597.68 L 5200.18,8548.69 L 5201.42,8544.44 L 5202.94,8535.53 L 5352.52,8561.31 L 5347.50,8571.25 L 5343.36,8581.60 L 5340.13,8592.26 L 5337.83,8603.17 L 5336.48,8614.24 L 5336.10,8625.38 L 5336.68,8636.52 L 5338.22,8647.56 L 5340.71,8658.43 L 5344.12,8669.04 L 5348.44,8679.31 L 5353.63,8689.16 L 5359.66,8698.52 L 5366.46,8707.32 L 5374.01,8715.50 L 5373.80,8716.71 L 5375.56,8717.02 L 5390.79,8729.52 L 5407.74,8739.53 L 5426.02,8746.80 L 5445.20,8751.16 L 5464.81,8752.50 L 5484.40,8750.79 L 5503.49,8746.08 L 5521.63,8738.48 L 5538.40,8728.16 L 5553.40,8715.37 L 5566.25,8700.42 L 5576.67,8683.66 L 5584.41,8665.49 L 5589.28,8646.33 L 5591.16,8626.66 L 5738.28,8629.43 L 5733.34,8658.42 L 5735.45,8658.78 L 5734.52,8665.47 L 5733.44,8672.12 L 5732.19,8678.75 L 5730.78,8685.35 L 5729.22,8691.91 L 5727.49,8698.42 L 5725.60,8704.90 L 5723.56,8711.32 L 5721.36,8717.70 L 5719.01,8724.01 L 5716.50,8730.27 L 5713.85,8736.46 L 5711.04,8742.59 L 5708.08,8748.65 L 5704.98,8754.63 L 5721.71,8757.51 L 5718.53,8776.13 L 5719.49,8776.29 L 5713.92,8808.96 L 5673.02,8801.91 L 5637.74,8836.97 L 5596.76,8865.05 L 5551.42,8885.24 L 5503.20,8896.89 L 5453.68,8899.60 L 5404.49,8893.29 L 5357.23,8878.17 L 5313.46,8854.72 L 5274.61,8823.73 L 5241.96,8786.21 L 5216.56,8743.38 L 5199.26,8696.65 L 5190.63,8647.54 Z M 5190.63,8647.54 L 5190.73,8648.13 L 5190.63,8646.99 L 5190.63,8647.54 Z M 5190.93,8598.06 L 5191.00,8597.38 L 5190.94,8597.68 L 5190.93,8598.06 Z M 5197.27,8685.28 L 5199.26,8696.65 L 5201.34,8702.26 L 5197.27,8685.28 Z M 5212.61,8732.70 L 5216.56,8743.38 L 5217.84,8745.53 L 5212.61,8732.70 Z M 5241.07,8784.71 L 5241.96,8786.21 L 5248.77,8794.04 L 5241.07,8784.71 Z M 5271.08,8819.68 L 5274.61,8823.73 L 5284.17,8831.35 L 5271.08,8819.68 Z M 5306.64,8849.28 L 5313.46,8854.72 L 5322.26,8859.43 L 5306.64,8849.28 Z M 5347.11,8872.74 L 5357.23,8878.17 L 5363.72,8880.24 L 5347.11,8872.74 Z M 5392.80,8889.55 L 5404.49,8893.29 L 5407.74,8893.71 L 5392.80,8889.55 Z M 5452.68,8899.47 L 5453.68,8899.60 L 5461.62,8899.16 L 5452.68,8899.47 Z M 5498.62,8897.14 L 5503.20,8896.89 L 5514.98,8894.04 L 5498.62,8897.14 Z M 5543.75,8887.09 L 5551.42,8885.24 L 5560.75,8881.09 L 5543.75,8887.09 Z M 5587.08,8869.36 L 5596.76,8865.05 L 5602.67,8861.00 L 5587.08,8869.36 Z M 5628.21,8843.50 L 5637.74,8836.97 L 5640.36,8834.37 L 5628.21,8843.50 Z" />
    <text x="5464.46" y="8717.56" class="label">車道</text>
  </g>
  <g id="gis_room_CK_B2">
    <path class="room" d="M 7200.80,3330.89 L 7201.51,3151.50 L 7340.74,3152.05 L 7340.74,3153.59 L 7342.29,3153.59 L 7341.63,3321.70 L 7340.03,3321.69 L 7340.00,3331.45 L 7200.80,3330.89 Z" />
    <text x="7271.55" y="3241.47" class="label">樓梯</text>
    <path class="room" d="M 8132.42,3444.76 L 8132.58,3402.33 L 8368.41,3403.27 L 8368.15,3468.46 L 8133.88,3467.53 L 8133.97,3444.76 L 8132.42,3444.76 Z" />
    <text x="8250.41" y="3435.40" class="label">封閉空間</text>
    <path class="room" d="M 7598.02,3465.40 L 7598.28,3400.21 L 7726.14,3400.72 L 7725.97,3443.14 L 7724.42,3443.13 L 7724.33,3465.90 L 7598.02,3465.40 Z" />
    <text x="7662.08" y="3433.05" class="label">封閉空間</text>
    <path class="room" d="M 7730.95,2606.65 L 7731.16,2553.12 L 7878.25,2553.70 L 7878.04,2607.19 L 7857.30,2607.11 L 7857.29,2608.72 L 7748.44,2608.28 L 7748.45,2606.68 L 7730.95,2606.65 Z M 7730.95,2606.65 L 7748.45,2606.68 L 7730.95,2606.61 L 7730.95,2606.65 Z" />
    <text x="7804.60" y="2580.92" class="label">樓梯</text>
    <path class="room" d="M 7149.39,3206.01 L 7149.60,3152.82 L 7159.39,3152.86 L 7159.39,3151.33 L 7201.51,3151.50 L 7201.29,3206.22 L 7149.39,3206.01 Z" />
    <text x="7175.45" y="3178.78" class="label">電梯</text>
    <path class="room" d="M 8380.05,3256.68 L 8380.44,3157.72 L 8390.44,3157.76 L 8390.45,3156.23 L 8506.75,3156.70 L 8506.74,3158.23 L 8518.30,3158.27 L 8517.91,3257.23 L 8380.05,3256.68 Z" />
    <text x="8449.18" y="3206.73" class="label">社團空間</text>
    <path class="room" d="M 8247.27,2693.64 L 8247.50,2634.73 L 8266.69,2634.81 L 8266.78,2612.04 L 8314.31,2612.23 L 8313.99,2693.90 L 8247.27,2693.64 Z" />
    <text x="8280.79" y="2652.97" class="label">桌球隊校隊</text>
    <path class="room" d="M 7151.06,2782.77 L 7151.71,2617.31 L 7161.50,2617.35 L 7161.53,2607.60 L 7342.89,2608.32 L 7342.85,2618.08 L 7344.45,2618.08 L 7343.70,2783.54 L 7342.20,2783.53 L 7342.16,2792.69 L 7160.81,2791.96 L 7160.85,2782.81 L 7151.06,2782.77 Z" />
    <text x="7247.76" y="2700.14" class="label">樓梯</text>
    <path class="room" d="M 8246.94,2776.62 L 8247.27,2693.58 L 8313.99,2693.90 L 8380.71,2694.16 L 8380.38,2777.16 L 8246.94,2776.62 Z M 8247.27,2693.64 L 8313.99,2693.90 L 8313.99,2693.90 L 8247.27,2693.58 L 8247.27,2693.64 Z" />
    <text x="8313.83" y="2735.37" class="label">桌球隊校隊</text>
    <path class="room" d="M 7343.70,2783.53 L 7344.45,2618.08 L 7355.87,2618.13 L 7355.91,2608.37 L 7468.61,2608.82 L 7468.52,2631.59 L 7489.26,2631.67 L 7489.35,2608.90 L 7598.16,2609.33 L 7598.07,2632.10 L 7618.81,2632.19 L 7618.90,2609.42 L 7727.70,2609.85 L 7727.61,2632.62 L 7748.35,2632.70 L 7748.43,2608.28 L 7857.29,2608.67 L 7857.19,2633.14 L 7877.93,2633.22 L 7878.03,2608.80 L 7986.83,2609.23 L 7986.74,2633.65 L 7988.29,2633.66 L 7988.06,2692.60 L 8117.60,2693.11 L 8247.27,2693.64 L 8246.94,2776.62 L 7987.73,2775.59 L 7987.69,2786.10 L 7986.13,2786.09 L 7986.08,2799.15 L 7987.64,2799.16 L 7986.45,3101.22 L 7986.28,3143.10 L 7984.86,3143.09 L 7984.81,3156.15 L 7986.23,3156.15 L 7985.91,3236.71 L 7947.31,3236.56 L 7947.03,3307.97 L 7916.47,3307.84 L 7916.36,3335.42 L 7875.17,3335.25 L 7875.26,3310.81 L 7854.52,3310.72 L 7854.43,3335.18 L 7745.59,3334.75 L 7745.68,3310.29 L 7724.94,3310.21 L 7724.84,3334.67 L 7616.04,3334.24 L 7616.14,3309.77 L 7595.40,3309.69 L 7595.30,3334.15 L 7515.15,3333.83 L 7486.50,3333.44 L 7486.60,3309.26 L 7465.86,3309.18 L 7465.76,3333.16 L 7353.02,3331.62 L 7353.06,3321.74 L 7341.63,3321.70 L 7342.29,3153.59 L 7353.77,3153.64 L 7353.82,3140.58 L 7342.35,3140.53 L 7342.75,3037.66 L 7352.85,3037.70 L 7352.90,3024.61 L 7342.80,3024.56 L 7343.23,2915.13 L 7353.33,2915.17 L 7353.38,2902.15 L 7343.28,2902.11 L 7343.70,2796.59 L 7355.17,2796.64 L 7355.22,2783.58 L 7343.70,2783.53 Z M 7466.47,3154.09 L 7479.49,3154.14 L 7479.55,3141.08 L 7466.52,3141.03 L 7466.47,3154.09 Z M 7466.92,3038.16 L 7479.95,3038.21 L 7480.00,3025.15 L 7466.98,3025.10 L 7466.92,3038.16 Z M 7467.41,2915.62 L 7480.43,2915.67 L 7480.48,2902.62 L 7467.46,2902.56 L 7467.41,2915.62 Z M 7467.87,2797.09 L 7480.90,2797.14 L 7480.95,2784.08 L 7467.92,2784.03 L 7467.87,2797.09 Z M 7734.20,2916.68 L 7747.23,2916.73 L 7747.28,2903.68 L 7734.25,2903.63 L 7734.20,2916.68 Z M 7863.79,2917.20 L 7876.81,2917.25 L 7876.87,2904.19 L 7863.84,2904.14 L 7863.79,2917.20 Z M 7864.25,2798.66 L 7877.28,2798.72 L 7877.33,2785.66 L 7864.31,2785.61 L 7864.25,2798.66 Z M 7862.86,3158.12 L 7875.80,3158.18 L 7875.90,3134.82 L 7862.96,3134.77 L 7862.86,3158.12 Z" />
    <path class="room" d="M 7748.43,2608.28 L 7748.44,2608.28 L 7748.35,2632.70 L 7748.43,2608.28 Z" />
    <text x="7794.45" y="2971.85" class="label">桌球教室</text>
    <path class="room" d="M 8313.99,2693.90 L 8314.31,2612.23 L 8379.48,2612.49 L 8379.42,2627.42 L 8380.97,2627.42 L 8380.71,2694.16 L 8313.99,2693.90 Z" />
    <text x="8347.48" y="2653.20" class="label">桌球隊校隊</text>
    <path class="room" d="M 8117.83,2634.22 L 8137.02,2634.29 L 8137.11,2611.52 L 8246.04,2611.96 L 8245.95,2634.73 L 8247.50,2634.73 L 8247.27,2693.63 L 8117.60,2693.11 L 8117.83,2634.22 Z" />
    <text x="8182.55" y="2652.58" class="label">男廁</text>
    <path class="room" d="M 8007.57,2609.32 L 8007.79,2554.22 L 8134.09,2554.72 L 8133.88,2608.25 L 8116.38,2608.19 L 8116.37,2609.75 L 8007.57,2609.32 Z" />
    <text x="8070.83" y="2581.98" class="label">樓梯</text>
    <path class="room" d="M 8368.48,3384.99 L 8368.67,3337.23 L 8376.62,3337.26 L 8376.62,3338.83 L 8389.56,3338.88 L 8389.56,3337.31 L 8453.78,3337.57 L 8453.59,3385.33 L 8368.48,3384.99 Z" />
    <text x="8411.13" y="3361.28" class="label">樓梯</text>
    <path class="room" d="M 7988.06,2692.60 L 7988.29,2633.66 L 8007.48,2633.73 L 8007.57,2609.32 L 8116.37,2609.75 L 8116.28,2634.21 L 8117.83,2634.22 L 8117.60,2693.11 L 7988.06,2692.60 Z" />
    <text x="8052.94" y="2651.22" class="label">女廁</text>
    <path class="room" d="M 7020.11,3139.26 L 7020.52,3036.39 L 7030.30,3036.43 L 7030.35,3023.38 L 7020.57,3023.34 L 7021.00,2913.84 L 7030.79,2913.89 L 7030.84,2900.83 L 7021.05,2900.80 L 7021.46,2795.32 L 7031.25,2795.36 L 7031.29,2785.55 L 7147.80,2786.01 L 7147.77,2795.81 L 7160.79,2795.86 L 7160.81,2791.96 L 7241.64,2792.29 L 7240.22,3151.65 L 7159.39,3151.33 L 7159.44,3139.85 L 7152.93,3139.82 L 7153.33,3036.91 L 7159.85,3036.94 L 7159.90,3023.84 L 7153.38,3023.81 L 7153.41,3016.72 L 7070.50,3016.39 L 7069.98,3149.25 L 7029.86,3149.09 L 7029.90,3139.30 L 7020.11,3139.26 Z M 7147.30,2914.35 L 7160.33,2914.40 L 7160.38,2901.39 L 7147.35,2901.33 L 7147.30,2914.35 Z" />
    <text x="7130.87" y="2968.60" class="label">健訓社/熱舞社/燈光音響組</text>
    <path class="room" d="M 7731.16,2553.12 L 7731.37,2499.71 L 7748.87,2499.78 L 7748.96,2477.01 L 7857.81,2477.44 L 7857.72,2500.21 L 7878.46,2500.29 L 7878.55,2477.53 L 7987.35,2477.96 L 7987.26,2500.73 L 8008.00,2500.81 L 8008.09,2478.04 L 8116.89,2478.48 L 8116.80,2501.24 L 8134.30,2501.31 L 8134.09,2554.72 L 8007.79,2554.22 L 8007.58,2607.71 L 7986.84,2607.63 L 7986.83,2609.23 L 7878.03,2608.80 L 7878.25,2553.70 L 7731.16,2553.12 Z" />
    <text x="7932.73" y="2543.12" class="label">攀岩社</text>
    <path class="room" d="M 7986.45,3101.22 L 7987.64,2799.16 L 7999.11,2799.20 L 7999.16,2786.15 L 7987.69,2786.10 L 7987.73,2775.59 L 8246.94,2776.62 L 8380.38,2777.16 L 8380.35,2786.41 L 8378.79,2786.41 L 8378.70,2809.76 L 8380.26,2809.77 L 8379.10,3102.79 L 8316.92,3102.54 L 7986.45,3101.22 Z M 8114.66,3044.66 L 8127.69,3044.71 L 8127.74,3031.65 L 8114.71,3031.60 L 8114.66,3044.66 Z M 8115.63,2799.67 L 8128.65,2799.72 L 8128.70,2786.66 L 8115.68,2786.61 L 8115.63,2799.67 Z M 8245.30,2800.18 L 8258.32,2800.23 L 8258.37,2787.18 L 8245.35,2787.12 L 8245.30,2800.18 Z M 8244.33,3045.17 L 8257.36,3045.23 L 8257.41,3032.17 L 8244.38,3032.12 L 8244.33,3045.17 Z" />
    <text x="8183.42" y="2939.19" class="label">多功能舞蹈教室</text>
    <path class="room" d="M 8649.38,2801.76 L 8650.93,2801.77 L 8650.98,2788.74 L 8649.43,2788.73 L 8650.08,2623.32 L 8651.64,2623.33 L 8651.69,2610.32 L 8705.85,2610.53 L 8702.99,3336.87 L 8648.83,3336.65 L 8648.86,3326.94 L 8647.31,3326.93 L 8647.97,3158.79 L 8649.53,3158.79 L 8649.58,3145.78 L 8648.02,3145.78 L 8648.41,3046.78 L 8649.97,3046.79 L 8650.02,3033.78 L 8648.46,3033.77 L 8648.93,2916.49 L 8650.48,2916.49 L 8650.53,2903.48 L 8648.98,2903.48 L 8649.38,2801.76 Z M 8650.93,2801.75 L 8650.93,2801.75 L 8650.98,2788.74 L 8650.93,2801.75 Z" />
    <text x="8676.58" y="2973.59" class="label">樓梯</text>
    <path class="room" d="M 7985.91,3236.71 L 7986.23,3156.15 L 7997.84,3156.20 L 7997.89,3143.14 L 7986.28,3143.10 L 7986.45,3101.22 L 8316.92,3102.54 L 8316.61,3180.69 L 8380.35,3180.94 L 8380.05,3256.68 L 8517.91,3257.23 L 8517.64,3326.38 L 8506.08,3326.33 L 8506.04,3337.78 L 8389.56,3337.31 L 8389.63,3320.57 L 8376.69,3320.51 L 8376.62,3337.26 L 8368.67,3337.23 L 8256.30,3336.78 L 8256.34,3325.37 L 8243.23,3325.31 L 8243.18,3336.70 L 8134.25,3336.27 L 8134.35,3311.88 L 8113.61,3311.80 L 8113.51,3336.18 L 8004.71,3335.75 L 8004.81,3311.32 L 7985.62,3311.24 L 7985.91,3236.71 Z" />
    <text x="8251.77" y="3219.50" class="label">社團空間</text>
    <path class="room" d="M 7148.94,3320.93 L 7149.39,3206.01 L 7201.29,3206.22 L 7200.80,3330.89 L 7158.69,3330.73 L 7158.73,3320.97 L 7148.94,3320.93 Z" />
    <text x="7175.12" y="3268.45" class="label">倉庫(學務處)</text>
    <path class="room" d="M 7514.89,3399.87 L 7515.15,3333.83 L 7595.30,3334.15 L 7595.30,3335.72 L 7616.04,3335.80 L 7616.04,3334.24 L 7724.84,3334.67 L 7724.84,3336.23 L 7745.58,3336.31 L 7745.59,3334.75 L 7854.43,3335.18 L 7854.42,3336.75 L 7875.16,3336.83 L 7875.17,3335.27 L 7916.36,3335.42 L 7916.47,3307.84 L 7947.03,3307.97 L 7946.92,3335.52 L 7983.97,3335.67 L 7983.96,3337.26 L 8004.70,3337.35 L 8004.71,3335.75 L 8113.51,3336.18 L 8113.51,3337.78 L 8134.25,3337.86 L 8134.25,3336.27 L 8243.18,3336.70 L 8243.18,3338.30 L 8256.29,3338.35 L 8256.30,3336.78 L 8368.67,3337.23 L 8368.41,3403.24 L 8132.58,3402.30 L 8132.42,3444.76 L 8113.23,3444.68 L 8113.14,3467.42 L 8004.19,3466.98 L 8004.28,3444.25 L 7983.54,3444.16 L 7983.45,3466.90 L 7874.65,3466.47 L 7874.74,3443.73 L 7854.00,3443.65 L 7853.91,3466.38 L 7745.07,3465.95 L 7745.16,3443.18 L 7725.97,3443.14 L 7726.14,3400.68 L 7514.89,3399.87 Z" />
    <text x="7941.78" y="3387.63" class="label">樓梯</text>
    <path class="room" d="M 7070.50,3016.39 L 7153.41,3016.72 L 7153.38,3023.81 L 7146.87,3023.79 L 7146.82,3036.88 L 7153.33,3036.91 L 7152.93,3139.82 L 7146.41,3139.80 L 7146.37,3149.56 L 7069.98,3149.25 L 7070.50,3016.39 Z" />
    <text x="7111.70" y="3082.97" class="label">倉庫(學務處)</text>
  </g>
  <g id="gis_room_EL_B2">
    <path class="room" d="M 13580.26,7243.27 L 13580.56,7167.07 L 13803.37,7167.96 L 13803.07,7244.16 L 13792.71,7244.12 L 13792.64,7260.40 L 13590.56,7259.59 L 13590.63,7243.31 L 13580.26,7243.27 Z" />
    <text x="13691.82" y="7213.74" class="label">甲樓梯間</text>
    <path class="room" d="M 13655.48,7059.26 L 13655.77,6985.67 L 13729.61,6985.97 L 13729.31,7059.56 L 13655.48,7059.26 Z" />
    <text x="13692.54" y="7022.61" class="label">電梯</text>
    <path class="room" d="M 13729.31,7059.56 L 13729.61,6985.97 L 13793.73,6986.22 L 13793.66,7001.85 L 13804.03,7001.89 L 13803.80,7059.86 L 13729.31,7059.56 Z" />
    <text x="13766.67" y="7022.91" class="label">電梯</text>
    <path class="room" d="M 14845.69,7130.45 L 14846.57,6906.42 L 14958.63,6906.87 L 14958.36,6975.25 L 14936.33,6975.16 L 14936.19,7011.63 L 14949.14,7011.68 L 14948.96,7058.57 L 14946.37,7058.56 L 14946.26,7084.61 L 14957.92,7084.66 L 14957.74,7130.90 L 14845.69,7130.45 Z" />
    <text x="14902.16" y="7018.66" class="label">乙樓梯間</text>
    <path class="room" d="M 14844.49,7432.63 L 14844.67,7387.05 L 14956.72,7387.49 L 14956.54,7433.08 L 14844.49,7432.63 Z" />
    <text x="14900.61" y="7410.06" class="label">進風口</text>
    <path class="room" d="M 14864.99,6836.16 L 14865.39,6733.91 L 14932.10,6734.18 L 14932.02,6756.32 L 14959.22,6756.43 L 14958.90,6836.53 L 14864.99,6836.16 Z" />
    <text x="14912.10" y="6785.22" class="label">乙電梯</text>
    <path class="room" d="M 14731.58,7649.05 L 14732.06,7529.22 L 14956.19,7530.12 L 14955.63,7670.79 L 14747.04,7669.95 L 14747.13,7649.11 L 14731.58,7649.05 Z M 14933.62,7660.28 L 14946.58,7660.33 L 14946.62,7649.91 L 14933.66,7649.86 L 14933.62,7660.28 Z" />
    <text x="14843.89" y="7600.00" class="label">儲藏室</text>
    <path class="room" d="M 14082.36,6721.66 L 14082.87,6591.41 L 14093.23,6591.45 L 14093.32,6570.61 L 14082.96,6570.57 L 14083.70,6383.01 L 14094.06,6383.05 L 14094.14,6363.51 L 14508.67,6365.17 L 14508.59,6384.71 L 14529.32,6384.79 L 14529.39,6365.25 L 14740.76,6366.10 L 14737.83,6724.28 L 14719.70,6724.21 L 14719.57,6755.47 L 14533.03,6754.72 L 14533.08,6742.56 L 14542.92,6731.96 L 14551.44,6720.27 L 14558.53,6707.65 L 14564.08,6694.28 L 14568.02,6680.33 L 14570.30,6666.02 L 14570.88,6651.54 L 14569.75,6637.09 L 14566.93,6622.88 L 14562.46,6609.10 L 14556.40,6595.95 L 14548.83,6583.61 L 14539.87,6572.26 L 14529.64,6562.05 L 14518.28,6553.13 L 14514.22,6550.43 L 14510.06,6547.91 L 14505.80,6545.55 L 14501.45,6543.36 L 14497.02,6541.36 L 14492.51,6539.53 L 14487.93,6537.88 L 14483.29,6536.42 L 14478.59,6535.14 L 14473.86,6534.06 L 14469.07,6533.16 L 14464.26,6532.46 L 14459.43,6531.96 L 14454.57,6531.64 L 14449.71,6531.53 L 14369.40,6531.29 L 14350.20,6532.74 L 14331.47,6537.22 L 14313.68,6544.62 L 14297.28,6554.75 L 14282.67,6567.35 L 14270.22,6582.12 L 14260.24,6598.68 L 14252.98,6616.61 L 14248.64,6635.46 L 14247.30,6654.77 L 14249.01,6674.06 L 14253.73,6692.82 L 14261.33,6710.61 L 14271.63,6726.96 L 14284.37,6741.48 L 14284.32,6753.73 L 14097.78,6752.98 L 14097.90,6721.72 L 14082.36,6721.66 Z M 14290.96,6383.84 L 14311.69,6383.92 L 14311.73,6373.50 L 14291.00,6373.42 L 14290.96,6383.84 Z M 14720.21,6593.96 L 14730.57,6594.00 L 14730.66,6573.16 L 14720.29,6573.12 L 14720.21,6593.96 Z M 14721.03,6385.56 L 14731.40,6385.60 L 14731.44,6375.18 L 14721.08,6375.14 L 14721.03,6385.56 Z" />
    <text x="14411.56" y="6559.49" class="label">車道</text>
    <path class="room" d="M 14734.25,6974.35 L 14734.52,6905.97 L 14846.57,6906.42 L 14845.11,7277.63 L 14748.60,7277.25 L 14748.71,7247.94 L 14738.35,7247.90 L 14738.66,7169.75 L 14736.72,7169.74 L 14737.06,7083.78 L 14739.00,7083.78 L 14739.31,7005.63 L 14749.67,7005.67 L 14749.80,6974.41 L 14734.25,6974.35 Z" />
    <text x="14790.41" y="7091.80" class="label">億光B2儲藏室</text>
    <path class="room" d="M 13396.55,7512.16 L 13397.49,7273.80 L 13416.92,7273.93 L 13416.98,7258.25 L 13559.47,7258.82 L 13559.41,7274.45 L 13590.50,7274.57 L 13590.56,7259.59 L 13792.64,7260.40 L 13792.58,7275.38 L 13823.67,7275.50 L 13824.11,7166.09 L 13822.16,7166.09 L 13822.50,7080.12 L 13824.45,7080.13 L 13824.88,6970.72 L 13793.79,6970.59 L 13793.73,6986.22 L 13655.77,6985.67 L 13655.48,7059.26 L 13580.99,7058.97 L 13581.22,7001.00 L 13591.58,7001.05 L 13591.71,6969.79 L 13560.62,6969.66 L 13560.19,7077.12 L 13398.27,7076.47 L 13400.25,6574.35 L 13573.84,6575.05 L 13573.80,6584.16 L 13593.23,6584.24 L 13593.19,6594.66 L 13591.25,6594.66 L 13590.75,6719.69 L 13561.61,6719.58 L 13561.48,6750.84 L 13592.57,6750.96 L 13592.59,6745.75 L 13794.67,6746.56 L 13794.65,6751.77 L 13825.74,6751.90 L 13825.87,6720.64 L 13810.32,6720.57 L 13810.84,6590.32 L 13821.20,6590.36 L 13821.28,6571.48 L 13995.51,6572.17 L 13994.80,6750.62 L 14066.70,6750.91 L 14066.69,6752.86 L 14315.41,6753.85 L 14315.53,6722.59 L 14284.44,6722.47 L 14284.37,6741.48 L 14271.63,6726.96 L 14261.34,6710.60 L 14253.74,6692.82 L 14249.03,6674.06 L 14247.32,6654.78 L 14248.66,6635.47 L 14253.01,6616.61 L 14260.26,6598.69 L 14270.23,6582.13 L 14282.68,6567.37 L 14297.29,6554.76 L 14313.69,6544.63 L 14331.48,6537.23 L 14350.20,6532.75 L 14369.40,6531.29 L 14449.71,6531.53 L 14468.91,6533.14 L 14487.62,6537.78 L 14505.36,6545.33 L 14521.69,6555.60 L 14536.21,6568.34 L 14548.55,6583.21 L 14558.40,6599.86 L 14565.51,6617.86 L 14569.70,6636.77 L 14570.88,6656.10 L 14569.01,6675.38 L 14564.14,6694.12 L 14556.39,6711.86 L 14545.95,6728.14 L 14533.08,6742.56 L 14533.16,6723.46 L 14502.07,6723.34 L 14501.94,6754.60 L 14735.12,6755.53 L 14734.25,6974.35 L 14718.71,6974.29 L 14718.27,7083.70 L 14737.06,7083.78 L 14736.72,7169.74 L 14717.93,7169.67 L 14717.50,7279.08 L 14748.59,7279.20 L 14748.60,7277.25 L 14845.11,7277.63 L 14844.49,7432.63 L 14956.54,7433.08 L 14956.32,7498.86 L 14929.08,7498.75 L 14929.04,7509.17 L 14752.86,7508.46 L 14752.91,7498.04 L 14716.64,7497.90 L 14716.51,7529.16 L 14732.06,7529.22 L 14731.58,7649.05 L 14716.04,7648.99 L 14715.95,7669.83 L 13822.13,7666.25 L 13822.09,7645.41 L 13806.67,7645.35 L 13807.14,7525.52 L 13822.69,7525.58 L 13822.81,7494.32 L 13791.72,7494.20 L 13791.68,7504.62 L 13589.60,7503.81 L 13589.64,7493.39 L 13558.55,7493.27 L 13558.47,7512.81 L 13396.55,7512.16 Z M 13405.65,7503.08 L 13416.01,7503.12 L 13416.05,7492.70 L 13405.69,7492.66 L 13405.65,7503.08 Z M 13407.64,7000.31 L 13418.00,7000.35 L 13418.12,6969.09 L 13407.76,6969.05 L 13407.64,7000.31 Z M 13408.62,6750.23 L 13418.99,6750.27 L 13419.11,6719.01 L 13408.75,6718.97 L 13408.62,6750.23 Z M 13409.24,6593.93 L 13419.61,6593.97 L 13419.65,6583.55 L 13409.28,6583.51 L 13409.24,6593.93 Z M 13562.10,6594.54 L 13593.19,6594.66 L 13593.23,6584.24 L 13562.14,6584.12 L 13562.10,6594.54 Z M 14063.11,7656.80 L 14094.20,7656.92 L 14094.24,7646.50 L 14063.15,7646.38 L 14063.11,7656.80 Z M 14063.63,7526.55 L 14094.72,7526.67 L 14094.84,7495.41 L 14063.75,7495.29 L 14063.63,7526.55 Z M 14064.62,7276.47 L 14095.71,7276.59 L 14095.83,7245.33 L 14064.74,7245.21 L 14064.62,7276.47 Z M 14065.70,7002.94 L 14096.79,7003.07 L 14096.91,6971.81 L 14065.82,6971.68 L 14065.70,7002.94 Z M 14280.74,7657.67 L 14311.83,7657.79 L 14311.87,7647.37 L 14280.78,7647.25 L 14280.74,7657.67 Z M 14281.26,7527.42 L 14312.35,7527.54 L 14312.47,7496.28 L 14281.38,7496.16 L 14281.26,7527.42 Z M 14282.25,7277.34 L 14313.34,7277.46 L 14313.46,7246.20 L 14282.37,7246.08 L 14282.25,7277.34 Z M 14283.33,7003.81 L 14314.42,7003.93 L 14314.54,6972.67 L 14283.45,6972.55 L 14283.33,7003.81 Z M 14290.14,6592.24 L 14310.86,6592.32 L 14310.95,6571.48 L 14290.22,6571.40 L 14290.14,6592.24 Z M 14498.37,7658.54 L 14529.46,7658.66 L 14529.50,7648.24 L 14498.41,7648.12 L 14498.37,7658.54 Z M 14498.88,7528.29 L 14529.97,7528.41 L 14530.10,7497.15 L 14499.01,7497.03 L 14498.88,7528.29 Z M 14499.87,7278.21 L 14530.96,7278.33 L 14531.09,7247.07 L 14500.00,7246.95 L 14499.87,7278.21 Z M 14500.96,7004.68 L 14532.05,7004.81 L 14532.17,6973.55 L 14501.08,6973.42 L 14500.96,7004.68 Z M 14507.77,6593.11 L 14528.49,6593.19 L 14528.57,6572.35 L 14507.85,6572.27 L 14507.77,6593.11 Z M 14520.37,6554.77 L 14523.93,6557.57 L 14521.69,6555.60 L 14520.37,6554.77 Z M 14533.99,6566.39 L 14537.49,6569.88 L 14536.21,6568.34 L 14533.99,6566.39 Z M 14544.64,6729.60 L 14545.95,6728.14 L 14547.69,6725.41 L 14544.64,6729.60 Z M 14548.00,6582.55 L 14548.63,6583.35 L 14548.55,6583.21 L 14548.00,6582.55 Z M 14557.51,6598.37 L 14559.57,6602.82 L 14558.40,6599.86 L 14557.51,6598.37 Z M 14564.35,6614.95 L 14565.95,6619.87 L 14565.51,6617.86 L 14564.35,6614.95 Z M 14564.10,6694.21 L 14564.14,6694.12 L 14564.30,6693.52 L 14564.10,6694.21 Z M 14568.50,6677.36 L 14569.01,6675.38 L 14569.33,6672.16 L 14568.50,6677.36 Z M 14569.52,6635.92 L 14569.71,6636.92 L 14569.70,6636.77 L 14569.52,6635.92 Z M 13822.09,7645.41 L 13822.11,7655.83 L 13822.17,7655.83 L 13822.21,7645.41 L 13822.09,7645.41 Z M 14554.62,6714.61 L 14556.39,6711.86 L 14557.16,6710.09 L 14554.62,6714.61 Z M 14570.57,6659.38 L 14570.88,6656.10 L 14570.77,6654.25 L 14570.57,6659.38 Z" />
    <text x="14176.54" y="7100.56" class="label">停車場</text>
  </g>
  <g id="gis_room_HR_B2">
    <path class="room" d="M 2312.40,1507.80 L 2313.01,1351.50 L 2317.94,1351.51 L 2318.03,1327.68 L 2393.81,1327.98 L 2393.16,1495.74 L 2360.77,1495.62 L 2360.63,1532.08 L 2317.23,1531.91 L 2317.32,1507.82 L 2312.40,1507.80 Z" />
    <text x="2353.11" y="1429.88" class="label">特別安全梯</text>
    <path class="room" d="M 3183.58,1278.75 L 3183.87,1204.50 L 3309.27,1205.00 L 3308.97,1279.25 L 3183.58,1278.75 Z" />
    <text x="3246.42" y="1241.88" class="label">吸煙室</text>
    <path class="room" d="M 2317.25,1130.59 L 2317.64,1030.03 L 2327.81,1017.95 L 2360.45,1045.70 L 2344.97,1064.10 L 2359.82,1076.73 L 2359.60,1132.71 L 2318.80,1132.55 L 2318.80,1130.60 L 2317.25,1130.59 Z" />
    <text x="2338.85" y="1075.33" class="label">廁所</text>
    <path class="room" d="M 3274.85,1796.61 L 3275.16,1718.07 L 3319.17,1718.24 L 3329.44,1718.28 L 3329.22,1772.34 L 3318.96,1772.30 L 3318.86,1796.79 L 3274.85,1796.61 Z" />
    <text x="3302.14" y="1757.43" class="label">無障礙廁所</text>
    <path class="room" d="M 3259.15,1663.30 L 3259.39,1602.08 L 3335.17,1602.38 L 3334.93,1663.60 L 3259.15,1663.30 Z" />
    <text x="3297.16" y="1632.84" class="label">電梯</text>
    <path class="room" d="M 3309.12,1242.12 L 3309.27,1205.00 L 3325.33,1205.07 L 3325.18,1242.19 L 3309.12,1242.12 Z" />
    <path class="room" d="M 3309.12,1242.12 L 3309.12,1242.12 L 3325.18,1242.19 L 3325.18,1242.19 L 3309.12,1242.12 Z" />
    <text x="3317.23" y="1223.59" class="label">電力</text>
    <path class="room" d="M 2649.60,1509.13 L 2649.93,1424.26 L 2651.43,1424.67 L 2652.93,1425.06 L 2654.43,1425.45 L 2655.94,1425.83 L 2657.44,1426.20 L 2658.95,1426.57 L 2660.46,1426.93 L 2661.97,1427.28 L 2663.48,1427.63 L 2664.99,1427.97 L 2666.51,1428.31 L 2668.02,1428.63 L 2669.54,1428.95 L 2671.06,1429.26 L 2672.58,1429.57 L 2714.04,1429.32 L 2755.49,1429.45 L 2755.13,1522.58 L 2651.49,1522.17 L 2651.54,1509.14 L 2649.60,1509.13 Z" />
    <text x="2702.54" y="1473.42" class="label">門廳</text>
    <path class="room" d="M 2303.79,1656.16 L 2304.01,1598.29 L 2379.80,1598.59 L 2379.57,1656.46 L 2303.79,1656.16 Z" />
    <text x="2341.79" y="1627.38" class="label">電梯</text>
    <path class="room" d="M 3290.02,1718.13 L 3290.24,1663.42 L 3328.45,1663.57 L 3328.24,1718.28 L 3290.02,1718.13 Z" />
    <text x="3309.24" y="1690.85" class="label">排氣發電機</text>
    <path class="room" d="M 2303.56,1713.01 L 2303.79,1656.16 L 2379.57,1656.46 L 2379.35,1713.32 L 2303.56,1713.01 Z" />
    <text x="2341.57" y="1684.74" class="label">電梯</text>
    <path class="room" d="M 2303.35,1768.27 L 2303.56,1713.01 L 2379.35,1713.32 L 2379.03,1794.62 L 2318.79,1794.38 L 2318.89,1768.33 L 2303.35,1768.27 Z" />
    <text x="2341.35" y="1753.82" class="label">電梯</text>
    <path class="room" d="M 3114.87,1456.92 L 3115.17,1381.23 L 3116.28,1380.72 L 3116.92,1380.40 L 3118.67,1379.53 L 3122.15,1377.80 L 3129.12,1374.34 L 3143.05,1367.42 L 3144.04,1366.92 L 3144.80,1366.53 L 3146.53,1365.61 L 3147.75,1364.96 L 3149.27,1364.15 L 3150.79,1363.34 L 3152.30,1362.51 L 3153.82,1361.69 L 3155.33,1360.86 L 3156.84,1360.03 L 3158.35,1359.20 L 3159.85,1358.36 L 3161.36,1357.52 L 3162.86,1356.67 L 3164.36,1355.82 L 3165.85,1354.97 L 3167.35,1354.11 L 3168.84,1353.25 L 3170.34,1352.38 L 3170.32,1354.89 L 3194.29,1354.99 L 3193.89,1457.24 L 3114.87,1456.92 Z" />
    <text x="3154.58" y="1404.81" class="label">儲藏室</text>
    <path class="room" d="M 2525.45,1454.59 L 2525.75,1378.90 L 2535.12,1383.28 L 2537.31,1384.12 L 2549.14,1388.63 L 2572.79,1397.65 L 2620.13,1415.68 L 2627.54,1417.91 L 2634.98,1420.06 L 2644.94,1422.89 L 2649.93,1424.26 L 2649.81,1455.08 L 2525.45,1454.59 Z" />
    <text x="2587.69" y="1416.99" class="label">儲藏室</text>
    <path class="room" d="M 2989.97,1593.20 L 2990.19,1536.54 L 3014.16,1536.63 L 3014.26,1510.58 L 2990.29,1510.49 L 2990.51,1456.43 L 3147.25,1457.05 L 3146.72,1593.82 L 2989.97,1593.20 Z" />
    <text x="3068.61" y="1525.12" class="label">貴賓室</text>
    <path class="room" d="M 2755.13,1522.58 L 2755.49,1429.45 L 2885.03,1429.96 L 2884.67,1523.09 L 2755.13,1522.58 Z M 2806.94,1522.78 L 2832.85,1522.89 L 2832.90,1509.86 L 2806.99,1509.76 L 2806.94,1522.78 Z" />
    <text x="2820.08" y="1476.27" class="label">控制室</text>
    <path class="room" d="M 3097.01,973.45 L 3149.51,882.84 L 3160.70,889.40 L 3161.42,888.16 L 3167.18,891.73 L 3172.90,895.36 L 3178.58,899.05 L 3184.23,902.80 L 3189.84,906.61 L 3195.41,910.47 L 3200.94,914.39 L 3206.43,918.37 L 3211.87,922.41 L 3217.28,926.50 L 3222.64,930.65 L 3227.96,934.85 L 3233.24,939.11 L 3238.47,943.42 L 3243.66,947.79 L 3175.31,1029.04 L 3170.40,1024.91 L 3165.44,1020.85 L 3160.44,1016.83 L 3155.39,1012.88 L 3150.30,1008.99 L 3145.15,1005.16 L 3139.97,1001.39 L 3134.75,997.68 L 3129.48,994.03 L 3124.17,990.44 L 3118.81,986.92 L 3113.42,983.45 L 3107.99,980.05 L 3102.52,976.72 L 3097.01,973.45 Z" />
    <text x="3170.33" y="955.94" class="label">IPOWER社/正言社</text>
    <path class="room" d="M 3010.29,932.37 L 3046.88,832.51 L 3053.22,834.90 L 3059.53,837.35 L 3065.82,839.86 L 3072.08,842.45 L 3078.31,845.09 L 3084.52,847.80 L 3090.70,850.58 L 3096.85,853.41 L 3102.97,856.32 L 3109.06,859.28 L 3115.11,862.31 L 3121.14,865.40 L 3127.14,868.55 L 3133.10,871.77 L 3139.03,875.05 L 3138.31,876.29 L 3149.51,882.84 L 3097.01,973.45 L 3091.46,970.24 L 3085.88,967.10 L 3080.26,964.02 L 3074.60,961.01 L 3068.91,958.07 L 3063.19,955.20 L 3057.43,952.38 L 3051.64,949.64 L 3045.82,946.97 L 3039.97,944.36 L 3034.09,941.83 L 3028.19,939.36 L 3022.25,936.96 L 3016.28,934.63 L 3010.29,932.37 Z" />
    <text x="3079.90" y="902.98" class="label">橋藝社/光鹽社</text>
    <path class="room" d="M 3235.69,1089.02 L 3263.16,1066.03 L 3278.49,1084.55 L 3298.41,1067.88 L 3283.07,1049.36 L 3315.93,1021.87 L 3327.55,1035.90 L 3327.16,1134.60 L 3324.05,1134.58 L 3323.95,1160.63 L 3327.06,1160.65 L 3326.88,1205.07 L 3247.99,1204.76 L 3248.39,1104.29 L 3247.56,1103.26 L 3246.73,1102.23 L 3245.89,1101.20 L 3245.05,1100.18 L 3244.22,1099.15 L 3243.38,1098.13 L 3242.53,1097.11 L 3241.68,1096.09 L 3240.83,1095.07 L 3239.98,1094.06 L 3239.13,1093.05 L 3238.27,1092.04 L 3237.41,1091.03 L 3236.56,1090.03 L 3235.69,1089.02 Z" />
    <text x="3281.62" y="1113.47" class="label">男廁</text>
    <path class="room" d="M 2709.12,802.96 L 2721.89,800.75 L 2721.65,799.34 L 2728.34,798.35 L 2735.04,797.44 L 2741.76,796.59 L 2748.48,795.81 L 2755.21,795.10 L 2761.94,794.46 L 2768.69,793.89 L 2775.44,793.39 L 2782.19,792.96 L 2788.94,792.60 L 2795.70,792.31 L 2802.47,792.09 L 2809.23,791.95 L 2816.00,791.87 L 2822.76,791.86 L 2822.35,898.28 L 2815.95,898.29 L 2809.55,898.38 L 2803.15,898.54 L 2796.76,898.78 L 2790.37,899.09 L 2783.98,899.47 L 2777.60,899.93 L 2771.22,900.47 L 2764.85,901.08 L 2758.49,901.76 L 2752.14,902.52 L 2745.80,903.36 L 2739.46,904.27 L 2733.14,905.25 L 2726.82,906.30 L 2709.12,802.96 Z" />
    <text x="2765.94" y="849.08" class="label">空調室</text>
    <path class="room" d="M 3246.84,1499.13 L 3247.50,1331.10 L 3279.88,1331.23 L 3323.28,1331.40 L 3323.19,1355.50 L 3328.11,1355.52 L 3327.49,1511.82 L 3322.57,1511.80 L 3322.48,1535.90 L 3279.08,1535.73 L 3279.22,1499.26 L 3246.84,1499.13 Z" />
    <text x="3287.47" y="1433.50" class="label">特別安全梯</text>
    <path class="room" d="M 2822.35,898.28 L 2822.76,791.86 L 2829.53,791.92 L 2836.30,792.05 L 2843.06,792.26 L 2849.82,792.53 L 2856.58,792.87 L 2863.33,793.28 L 2870.08,793.77 L 2876.82,794.32 L 2883.56,794.94 L 2890.29,795.63 L 2897.02,796.40 L 2903.73,797.23 L 2910.44,798.13 L 2917.14,799.10 L 2923.82,800.14 L 2923.57,801.55 L 2936.32,803.86 L 2917.80,907.06 L 2911.50,905.95 L 2905.18,904.92 L 2898.86,903.96 L 2892.52,903.08 L 2886.17,902.27 L 2879.81,901.54 L 2873.45,900.88 L 2867.08,900.29 L 2860.70,899.78 L 2854.32,899.34 L 2847.93,898.98 L 2841.54,898.69 L 2835.14,898.48 L 2828.75,898.34 L 2822.35,898.28 Z" />
    <text x="2879.33" y="849.46" class="label">集美好社</text>
    <path class="room" d="M 2463.33,1768.90 L 2463.68,1679.55 L 2500.34,1679.70 L 2500.69,1591.26 L 2649.27,1591.85 L 2649.50,1535.18 L 2651.44,1535.19 L 2651.49,1522.17 L 2806.94,1522.78 L 2806.89,1535.81 L 2832.80,1535.91 L 2832.85,1522.89 L 2988.30,1523.50 L 2988.25,1536.53 L 2990.19,1536.54 L 2989.97,1593.20 L 3171.33,1593.92 L 3170.63,1771.71 L 3168.69,1771.70 L 3168.59,1796.19 L 3075.34,1795.82 L 3071.15,1771.32 L 3020.64,1771.11 L 3024.83,1795.62 L 3013.14,1795.57 L 3013.24,1771.09 L 2987.33,1770.98 L 2987.23,1795.47 L 2831.78,1794.85 L 2831.88,1770.37 L 2805.97,1770.26 L 2805.88,1794.75 L 2650.42,1794.14 L 2650.52,1769.65 L 2624.61,1769.55 L 2624.52,1794.03 L 2469.06,1793.42 L 2469.16,1768.93 L 2463.33,1768.90 Z" />
    <text x="2817.33" y="1659.18" class="label">交誼廳</text>
    <path class="room" d="M 2446.43,1454.27 L 2446.83,1352.02 L 2470.80,1352.12 L 2470.81,1349.61 L 2494.51,1363.03 L 2496.98,1364.36 L 2498.72,1365.24 L 2512.23,1372.08 L 2518.98,1375.51 L 2522.36,1377.22 L 2524.66,1378.38 L 2525.75,1378.90 L 2525.45,1454.59 L 2446.43,1454.27 Z" />
    <text x="2486.09" y="1402.10" class="label">儲藏室</text>
    <path class="room" d="M 2445.89,1591.04 L 2445.96,1574.50 L 2500.76,1574.71 L 2500.69,1591.26 L 2445.89,1591.04 Z" />
    <text x="2473.32" y="1582.88" class="label">電信</text>
    <path class="room" d="M 2363.19,1045.47 L 2381.17,1024.09 L 2382.15,1024.92 L 2386.44,1020.51 L 2390.78,1016.15 L 2395.17,1011.83 L 2399.59,1007.56 L 2404.07,1003.33 L 2408.58,999.14 L 2413.13,995.01 L 2417.73,990.92 L 2422.36,986.87 L 2427.04,982.87 L 2431.75,978.92 L 2436.51,975.02 L 2441.30,971.16 L 2446.13,967.36 L 2451.00,963.60 L 2457.40,958.78 L 2463.86,954.04 L 2470.38,949.39 L 2476.97,944.82 L 2483.61,940.35 L 2490.31,935.96 L 2497.06,931.65 L 2503.87,927.44 L 2510.74,923.32 L 2517.66,919.29 L 2524.63,915.35 L 2531.65,911.50 L 2538.72,907.74 L 2545.84,904.08 L 2553.00,900.51 L 2563.39,895.54 L 2573.88,890.76 L 2584.45,886.19 L 2595.10,881.82 L 2605.84,877.65 L 2616.65,873.68 L 2627.53,869.92 L 2638.48,866.36 L 2649.50,863.01 L 2660.57,859.88 L 2671.71,856.95 L 2682.89,854.23 L 2694.12,851.73 L 2705.41,849.44 L 2716.72,847.36 L 2725.15,896.55 L 2684.18,905.37 L 2648.49,915.68 L 2630.64,922.11 L 2612.24,928.83 L 2611.02,929.28 L 2609.84,929.80 L 2585.35,940.72 L 2575.79,944.99 L 2541.71,963.11 L 2508.96,983.53 L 2477.69,1006.18 L 2448.03,1030.94 L 2420.15,1057.70 L 2392.83,1087.74 L 2373.12,1070.98 L 2381.49,1061.04 L 2363.19,1045.47 Z" />
    <text x="2544.17" y="967.55" class="label">陽台</text>
    <path class="room" d="M 2884.67,1523.09 L 2885.03,1429.96 L 2969.98,1430.30 L 2971.36,1430.00 L 2972.74,1429.69 L 2974.12,1429.38 L 2975.50,1429.07 L 2976.88,1428.76 L 2978.26,1428.44 L 2979.63,1428.12 L 2981.01,1427.80 L 2982.39,1427.47 L 2983.76,1427.15 L 2985.14,1426.81 L 2986.51,1426.48 L 2987.88,1426.14 L 2989.26,1425.80 L 2990.63,1425.46 L 2990.29,1510.49 L 2988.35,1510.48 L 2988.30,1523.50 L 2884.67,1523.09 Z" />
    <text x="2937.65" y="1474.48" class="label">門廳</text>
    <path class="room" d="M 2917.80,907.06 L 2936.32,803.86 L 2949.07,806.18 L 2949.32,804.77 L 2955.94,806.14 L 2962.56,807.59 L 2969.16,809.10 L 2975.74,810.68 L 2982.30,812.32 L 2988.85,814.04 L 2995.38,815.82 L 3001.89,817.68 L 3008.38,819.59 L 3014.85,821.58 L 3021.30,823.63 L 3027.73,825.75 L 3034.14,827.94 L 3040.52,830.19 L 3046.88,832.51 L 3010.29,932.37 L 3004.28,930.18 L 2998.23,928.06 L 2992.17,926.02 L 2986.08,924.04 L 2979.97,922.13 L 2973.84,920.30 L 2967.68,918.54 L 2961.51,916.85 L 2955.32,915.23 L 2949.10,913.69 L 2942.88,912.21 L 2936.63,910.81 L 2930.37,909.49 L 2924.09,908.24 L 2917.80,907.06 Z" />
    <text x="2982.34" y="868.12" class="label">電子競技社/陽光大使</text>
    <path class="room" d="M 2316.84,1233.63 L 2317.15,1156.64 L 2318.70,1156.65 L 2318.80,1132.55 L 2394.58,1132.85 L 2394.18,1233.94 L 2316.84,1233.63 Z" />
    <text x="2355.71" y="1183.24" class="label">貴賓室</text>
    <path class="room" d="M 2457.94,1326.02 L 2458.59,1160.73 L 2460.69,1162.52 L 2477.43,1142.63 L 2465.17,1132.21 L 2471.47,1125.26 L 2477.90,1118.44 L 2484.47,1111.74 L 2491.17,1105.18 L 2497.99,1098.75 L 2504.94,1092.45 L 2512.01,1086.29 L 2519.19,1080.28 L 2526.50,1074.41 L 2533.91,1068.68 L 2541.44,1063.10 L 2549.08,1057.67 L 2556.82,1052.39 L 2564.66,1047.27 L 2572.60,1042.30 L 2580.57,1056.30 L 2603.06,1043.37 L 2595.08,1029.36 L 2603.37,1025.00 L 2611.74,1020.80 L 2620.18,1016.76 L 2628.71,1012.90 L 2637.31,1009.20 L 2645.98,1005.67 L 2654.71,1002.32 L 2663.51,999.14 L 2672.38,996.13 L 2681.29,993.30 L 2690.26,990.65 L 2699.29,988.17 L 2708.35,985.87 L 2717.46,983.75 L 2726.62,981.81 L 2729.34,997.72 L 2754.87,993.30 L 2752.15,977.39 L 2761.42,976.14 L 2770.71,975.07 L 2780.02,974.19 L 2789.34,973.49 L 2798.68,972.97 L 2808.03,972.64 L 2817.38,972.49 L 2826.73,972.53 L 2836.08,972.75 L 2845.42,973.15 L 2854.76,973.75 L 2864.08,974.52 L 2873.38,975.48 L 2882.66,976.62 L 2891.92,977.95 L 2889.07,993.83 L 2914.57,998.45 L 2917.42,982.57 L 2926.55,984.58 L 2935.65,986.77 L 2944.70,989.14 L 2953.70,991.69 L 2962.65,994.42 L 2971.55,997.32 L 2980.38,1000.40 L 2989.16,1003.65 L 2997.87,1007.07 L 3006.51,1010.67 L 3015.08,1014.43 L 3023.57,1018.37 L 3031.99,1022.47 L 3040.32,1026.73 L 3048.57,1031.16 L 3040.49,1045.10 L 3062.88,1058.22 L 3070.96,1044.28 L 3078.86,1049.31 L 3086.66,1054.49 L 3094.36,1059.83 L 3101.95,1065.32 L 3109.43,1070.96 L 3116.81,1076.75 L 3124.06,1082.68 L 3131.20,1088.75 L 3138.22,1094.96 L 3145.12,1101.31 L 3151.89,1107.80 L 3158.54,1114.41 L 3165.05,1121.16 L 3171.43,1128.04 L 3177.68,1135.04 L 3165.34,1145.36 L 3181.92,1165.38 L 3184.03,1163.61 L 3183.38,1328.90 L 3170.43,1328.84 L 3170.34,1352.38 L 3168.60,1353.39 L 3166.86,1354.39 L 3165.13,1355.38 L 3163.39,1356.37 L 3161.64,1357.35 L 3159.89,1358.33 L 3158.14,1359.31 L 3156.39,1360.28 L 3154.64,1361.24 L 3152.88,1362.20 L 3151.12,1363.16 L 3149.35,1364.11 L 3147.59,1365.05 L 3145.82,1365.99 L 3144.04,1366.92 L 3116.25,1380.73 L 3105.76,1385.55 L 3020.54,1417.25 L 3017.20,1418.24 L 3013.86,1419.21 L 3010.51,1420.17 L 3007.16,1421.10 L 3003.80,1422.03 L 3000.44,1422.93 L 2997.07,1423.82 L 2993.70,1424.69 L 2990.32,1425.54 L 2986.94,1426.37 L 2983.56,1427.19 L 2980.17,1428.00 L 2976.78,1428.78 L 2973.38,1429.55 L 2969.98,1430.30 L 2821.28,1429.71 L 2746.93,1429.41 L 2717.85,1429.30 L 2672.58,1429.57 L 2670.81,1429.21 L 2669.04,1428.85 L 2667.27,1428.47 L 2665.50,1428.08 L 2663.73,1427.69 L 2661.97,1427.28 L 2660.21,1426.87 L 2658.45,1426.45 L 2656.69,1426.02 L 2654.93,1425.57 L 2653.18,1425.13 L 2651.43,1424.67 L 2649.68,1424.20 L 2647.94,1423.72 L 2646.19,1423.23 L 2644.45,1422.75 L 2642.70,1422.26 L 2640.96,1421.76 L 2639.21,1421.27 L 2637.47,1420.77 L 2635.73,1420.28 L 2633.99,1419.77 L 2632.25,1419.27 L 2630.51,1418.76 L 2628.77,1418.25 L 2627.03,1417.74 L 2625.29,1417.22 L 2623.55,1416.71 L 2621.82,1416.18 L 2620.08,1415.66 L 2610.37,1411.96 L 2600.66,1408.27 L 2589.74,1404.10 L 2578.82,1399.94 L 2535.14,1383.29 L 2534.43,1382.97 L 2533.73,1382.64 L 2533.03,1382.32 L 2532.33,1382.00 L 2531.64,1381.67 L 2530.94,1381.35 L 2530.24,1381.02 L 2529.54,1380.69 L 2528.84,1380.37 L 2528.14,1380.04 L 2527.45,1379.71 L 2526.75,1379.38 L 2526.05,1379.05 L 2525.36,1378.72 L 2524.66,1378.38 L 2496.98,1364.36 L 2496.76,1364.24 L 2496.54,1364.12 L 2496.32,1364.01 L 2496.09,1363.89 L 2495.87,1363.77 L 2495.65,1363.66 L 2495.43,1363.54 L 2495.21,1363.42 L 2494.99,1363.30 L 2494.77,1363.17 L 2494.56,1363.05 L 2494.34,1362.93 L 2494.12,1362.81 L 2493.90,1362.68 L 2493.68,1362.56 L 2492.05,1361.63 L 2491.23,1361.17 L 2490.42,1360.71 L 2483.88,1357.01 L 2470.81,1349.61 L 2470.90,1326.07 L 2457.94,1326.02 Z M 2525.76,1378.91 L 2526.05,1379.05 L 2526.75,1379.38 L 2527.45,1379.71 L 2528.14,1380.04 L 2528.84,1380.37 L 2529.54,1380.69 L 2530.24,1381.02 L 2530.94,1381.35 L 2531.64,1381.67 L 2532.33,1382.00 L 2533.03,1382.32 L 2533.73,1382.64 L 2534.43,1382.97 L 2534.96,1383.21 L 2525.76,1378.91 Z M 2626.25,1352.74 L 2652.16,1352.84 L 2652.26,1326.79 L 2626.35,1326.69 L 2626.25,1352.74 Z M 2645.10,1422.93 L 2646.19,1423.23 L 2647.94,1423.72 L 2649.68,1424.20 L 2649.86,1424.24 L 2645.10,1422.93 Z M 2807.61,1353.46 L 2833.52,1353.56 L 2833.62,1327.51 L 2807.71,1327.40 L 2807.61,1353.46 Z M 2988.97,1354.17 L 3014.87,1354.28 L 3014.98,1328.23 L 2989.07,1328.12 L 2988.97,1354.17 Z M 2484.89,1357.58 L 2490.42,1360.71 L 2491.23,1361.17 L 2492.05,1361.63 L 2493.68,1362.56 L 2493.90,1362.68 L 2494.12,1362.81 L 2494.34,1362.93 L 2494.56,1363.05 L 2494.77,1363.17 L 2494.99,1363.30 L 2495.21,1363.42 L 2495.43,1363.54 L 2495.65,1363.66 L 2495.87,1363.77 L 2496.09,1363.89 L 2496.32,1364.01 L 2496.54,1364.12 L 2496.76,1364.24 L 2496.98,1364.36 L 2494.51,1363.03 L 2484.89,1357.58 Z M 2535.14,1383.29 L 2578.82,1399.94 L 2582.19,1401.23 L 2572.79,1397.65 L 2549.14,1388.63 L 2537.31,1384.12 L 2535.14,1383.29 Z M 2594.07,1405.75 L 2600.66,1408.27 L 2608.68,1411.32 L 2594.07,1405.75 Z M 2635.06,1420.08 L 2635.73,1420.28 L 2637.47,1420.77 L 2639.21,1421.27 L 2640.96,1421.76 L 2642.70,1422.26 L 2644.45,1422.75 L 2644.89,1422.87 L 2635.06,1420.08 Z" />
    <text x="2820.99" y="1201.39" class="label">國際會議廳</text>
    <path class="room" d="M 2990.51,1456.43 L 2990.63,1425.46 L 2992.47,1425.01 L 2994.31,1424.56 L 2996.15,1424.09 L 2997.98,1423.62 L 2999.82,1423.15 L 3001.65,1422.66 L 3003.48,1422.17 L 3005.31,1421.67 L 3007.14,1421.17 L 3008.96,1420.65 L 3010.79,1420.14 L 3012.61,1419.61 L 3014.43,1419.08 L 3016.24,1418.54 L 3018.06,1417.99 L 3020.54,1417.25 L 3020.63,1417.22 L 3020.71,1417.19 L 3020.79,1417.16 L 3020.87,1417.14 L 3020.95,1417.11 L 3021.04,1417.08 L 3021.12,1417.05 L 3021.20,1417.02 L 3021.28,1416.99 L 3021.36,1416.96 L 3021.44,1416.92 L 3021.52,1416.89 L 3021.61,1416.86 L 3021.69,1416.83 L 3021.76,1416.80 L 3104.54,1386.00 L 3104.62,1385.97 L 3104.71,1385.94 L 3104.79,1385.91 L 3104.87,1385.88 L 3104.95,1385.85 L 3105.03,1385.82 L 3105.11,1385.79 L 3105.19,1385.76 L 3105.27,1385.73 L 3105.36,1385.70 L 3105.44,1385.67 L 3105.52,1385.64 L 3105.60,1385.61 L 3105.68,1385.58 L 3105.76,1385.55 L 3115.17,1381.23 L 3114.87,1456.92 L 2990.51,1456.43 Z" />
    <text x="3052.84" y="1419.08" class="label">儲藏室</text>
    <path class="room" d="M 3308.97,1279.25 L 3309.12,1242.12 L 3325.18,1242.19 L 3325.04,1279.31 L 3308.97,1279.25 Z" />
    <text x="3317.08" y="1260.72" class="label">撒水</text>
    <path class="room" d="M 3175.31,1029.04 L 3243.66,947.79 L 3248.81,952.21 L 3253.90,956.68 L 3258.95,961.21 L 3263.96,965.79 L 3268.92,970.42 L 3273.83,975.10 L 3278.69,979.83 L 3283.50,984.61 L 3288.26,989.44 L 3292.98,994.32 L 3297.64,999.25 L 3302.25,1004.23 L 3306.81,1009.26 L 3311.32,1014.33 L 3315.78,1019.45 L 3314.69,1020.36 L 3315.93,1021.87 L 3283.07,1049.36 L 3281.83,1047.86 L 3261.92,1064.53 L 3263.16,1066.03 L 3235.69,1089.02 L 3231.96,1084.74 L 3228.18,1080.49 L 3224.36,1076.29 L 3220.50,1072.12 L 3216.60,1067.99 L 3212.65,1063.91 L 3208.66,1059.86 L 3204.63,1055.86 L 3200.56,1051.90 L 3196.45,1047.98 L 3192.30,1044.11 L 3188.11,1040.27 L 3183.88,1036.49 L 3179.61,1032.74 L 3175.31,1029.04 Z" />
    <text x="3245.62" y="1018.40" class="label">轉學生聯誼會/桌遊社</text>
    <path class="room" d="M 2489.35,830.21 L 2489.39,827.99 L 2489.55,825.77 L 2489.83,823.57 L 2490.22,821.38 L 2490.74,819.22 L 2491.37,817.09 L 2492.12,815.00 L 2492.97,812.96 L 2493.94,810.96 L 2495.01,809.02 L 2496.19,807.13 L 2497.47,805.32 L 2498.84,803.58 L 2500.30,801.92 L 2501.85,800.34 L 2503.49,798.84 L 2505.20,797.44 L 2506.99,796.13 L 2508.84,794.92 L 2510.76,793.82 L 2512.73,792.82 L 2515.31,791.61 L 2517.89,790.41 L 2520.47,789.22 L 2523.06,788.04 L 2525.66,786.87 L 2528.26,785.71 L 2530.86,784.57 L 2533.47,783.43 L 2536.08,782.30 L 2538.70,781.18 L 2541.32,780.08 L 2543.94,778.98 L 2546.57,777.89 L 2549.21,776.82 L 2551.85,775.75 L 2556.54,773.88 L 2561.25,772.05 L 2565.97,770.25 L 2570.71,768.48 L 2575.45,766.75 L 2580.21,765.05 L 2584.98,763.38 L 2589.76,761.74 L 2594.56,760.14 L 2599.36,758.58 L 2604.17,757.04 L 2609.00,755.54 L 2613.83,754.08 L 2618.68,752.65 L 2623.53,751.25 L 2627.76,750.06 L 2632.00,748.90 L 2636.25,747.76 L 2640.50,746.65 L 2644.76,745.57 L 2649.03,744.51 L 2653.30,743.48 L 2657.58,742.47 L 2661.86,741.49 L 2666.15,740.54 L 2670.45,739.61 L 2674.75,738.71 L 2679.06,737.83 L 2683.37,736.98 L 2687.69,736.16 L 2695.02,778.97 L 2691.95,779.50 L 2696.35,805.17 L 2709.12,802.96 L 2716.72,847.36 L 2712.53,848.10 L 2708.33,848.88 L 2704.15,849.68 L 2699.96,850.51 L 2695.79,851.38 L 2691.62,852.27 L 2687.45,853.19 L 2683.29,854.14 L 2679.14,855.12 L 2675.00,856.13 L 2670.86,857.16 L 2666.73,858.23 L 2662.61,859.33 L 2658.50,860.45 L 2654.39,861.60 L 2647.43,863.63 L 2640.50,865.73 L 2633.59,867.92 L 2626.70,870.19 L 2619.85,872.55 L 2613.02,874.98 L 2606.22,877.50 L 2599.46,880.10 L 2592.72,882.77 L 2586.01,885.53 L 2579.34,888.37 L 2572.70,891.29 L 2566.10,894.28 L 2559.53,897.36 L 2553.00,900.51 L 2551.47,897.79 L 2549.33,898.07 L 2547.17,898.24 L 2545.00,898.29 L 2542.84,898.23 L 2540.68,898.06 L 2538.54,897.76 L 2536.41,897.36 L 2534.31,896.85 L 2532.23,896.22 L 2530.19,895.49 L 2528.20,894.64 L 2526.25,893.70 L 2524.35,892.65 L 2522.51,891.50 L 2520.73,890.26 L 2519.90,889.63 L 2519.08,888.97 L 2518.29,888.29 L 2517.50,887.60 L 2516.74,886.88 L 2516.00,886.14 L 2515.27,885.39 L 2514.56,884.61 L 2513.88,883.82 L 2513.21,883.01 L 2512.57,882.18 L 2511.94,881.34 L 2511.34,880.48 L 2510.76,879.61 L 2510.21,878.72 L 2502.85,865.22 L 2494.28,849.37 L 2493.28,847.39 L 2492.39,845.36 L 2491.60,843.28 L 2490.93,841.17 L 2490.38,839.02 L 2489.94,836.84 L 2489.63,834.64 L 2489.43,832.43 L 2489.35,830.21 Z M 2562.27,896.07 L 2564.30,895.13 L 2563.39,895.54 L 2562.27,896.07 Z M 2573.45,890.96 L 2574.91,890.32 L 2573.88,890.76 L 2573.45,890.96 Z M 2583.32,886.68 L 2585.01,885.96 L 2584.45,886.19 L 2583.32,886.68 Z M 2594.29,882.15 L 2596.29,881.35 L 2595.10,881.82 L 2594.29,882.15 Z M 2605.32,877.85 L 2605.98,877.59 L 2605.84,877.65 L 2605.32,877.85 Z M 2615.54,874.09 L 2617.68,873.32 L 2616.65,873.68 L 2615.54,874.09 Z M 2693.73,851.82 L 2694.47,851.66 L 2694.12,851.73 L 2693.73,851.82 Z M 2627.22,870.03 L 2628.41,869.63 L 2627.53,869.92 L 2627.22,870.03 Z M 2637.26,866.76 L 2639.19,866.15 L 2638.48,866.36 L 2637.26,866.76 Z M 2648.77,863.24 L 2650.73,862.67 L 2649.50,863.01 L 2648.77,863.24 Z M 2660.19,859.99 L 2660.95,859.78 L 2660.57,859.88 L 2660.19,859.99 Z M 2705.12,849.50 L 2705.79,849.37 L 2705.41,849.44 L 2705.12,849.50 Z" />
    <text x="2603.04" y="818.33" class="label">樓梯</text>
  </g>
  <g id="gis_room_PK_B2">
    <path class="room" d="M 5327.61,3070.55 L 5328.16,2931.18 L 5339.82,2931.22 L 5339.90,2909.34 L 5402.08,2909.59 L 5402.00,2931.47 L 5413.66,2931.52 L 5413.11,3070.89 L 5406.63,3070.86 L 5406.61,3077.37 L 5334.06,3077.09 L 5334.09,3070.57 L 5327.61,3070.55 Z" />
    <text x="5370.63" y="2993.36" class="label">樓梯</text>
    <path class="room" d="M 6900.03,2637.61 L 6900.27,2577.27 L 6986.67,2577.62 L 6986.61,2593.90 L 6988.17,2593.91 L 6987.99,2637.96 L 6900.03,2637.61 Z" />
    <text x="6944.10" y="2607.62" class="label">女廁</text>
    <path class="room" d="M 6803.41,2500.04 L 6803.63,2444.68 L 6814.64,2444.73 L 6814.69,2433.00 L 6859.38,2433.18 L 6859.12,2500.26 L 6803.41,2500.04 Z" />
    <text x="6831.40" y="2466.63" class="label">電梯</text>
    <path class="room" d="M 2646.63,2856.97 L 2646.84,2803.31 L 2648.40,2803.31 L 2648.49,2779.87 L 2646.94,2779.86 L 2647.16,2723.59 L 2889.92,2724.55 L 2889.39,2857.93 L 2646.63,2856.97 Z M 2806.44,2803.94 L 2829.76,2804.03 L 2829.85,2780.58 L 2806.53,2780.49 L 2806.44,2803.94 Z" />
    <text x="2768.28" y="2790.76" class="label">配電室</text>
    <path class="room" d="M 6895.44,2521.25 L 6895.78,2433.32 L 6996.05,2433.72 L 6996.02,2440.24 L 7002.50,2440.26 L 7002.18,2521.67 L 6895.44,2521.25 Z" />
    <text x="6948.97" y="2477.50" class="label">樓梯</text>
    <path class="room" d="M 5030.86,2601.10 L 5031.51,2436.07 L 5118.95,2436.42 L 5118.94,2437.98 L 5120.88,2437.99 L 5120.37,2568.24 L 5118.43,2568.24 L 5118.34,2591.68 L 5120.28,2591.69 L 5120.24,2601.46 L 5030.86,2601.10 Z" />
    <text x="5075.87" y="2518.77" class="label">樓梯</text>
    <path class="room" d="M 1566.40,2510.90 L 1740.14,2511.59 L 1740.14,2513.15 L 1763.46,2513.24 L 1763.46,2511.68 L 2029.54,2512.73 L 2029.54,2514.30 L 2048.71,2514.37 L 2048.12,2664.42 L 1762.87,2663.29 L 1762.87,2661.73 L 1739.56,2661.64 L 1739.55,2663.20 L 1644.63,2662.82 L 1601.47,2579.01 L 1566.40,2510.90 Z" />
    <text x="1807.55" y="2587.66" class="label">汽機車出入口車道</text>
    <path class="room" d="M 2310.56,2932.22 L 2311.07,2801.97 L 2314.18,2801.99 L 2314.27,2780.49 L 2443.81,2781.01 L 2443.72,2802.50 L 2467.04,2802.59 L 2467.12,2781.10 L 2519.59,2781.31 L 2518.98,2936.18 L 2466.52,2935.97 L 2466.53,2932.84 L 2443.21,2932.75 L 2443.20,2935.88 L 2313.66,2935.36 L 2313.67,2932.24 L 2310.56,2932.22 Z" />
    <text x="2415.08" y="2858.33" class="label">台電配電室</text>
    <path class="room" d="M 2313.44,2595.53 L 2313.75,2515.42 L 2315.30,2515.43 L 2315.40,2491.99 L 2313.84,2491.98 L 2314.00,2452.90 L 2315.55,2452.91 L 2315.56,2450.95 L 2445.10,2451.47 L 2445.09,2453.42 L 2468.41,2453.52 L 2468.42,2451.56 L 2626.46,2452.19 L 2626.45,2454.14 L 2649.77,2454.23 L 2649.78,2452.28 L 2807.82,2452.91 L 2807.81,2454.86 L 2824.00,2454.93 L 2823.45,2596.25 L 2572.78,2595.26 L 2572.79,2593.30 L 2546.88,2593.20 L 2546.87,2596.46 L 2467.85,2596.14 L 2467.86,2594.19 L 2444.54,2594.10 L 2444.53,2596.05 L 2313.44,2595.53 Z" />
    <text x="2568.72" y="2523.70" class="label">汽車車道</text>
    <path class="room" d="M 6802.87,2637.19 L 6803.02,2599.68 L 6814.03,2599.72 L 6814.12,2576.93 L 6865.94,2577.14 L 6865.82,2608.92 L 6900.14,2609.06 L 6900.03,2637.58 L 6802.87,2637.19 Z" />
    <text x="6851.51" y="2607.26" class="label">男廁</text>
    <path class="room" d="M 3332.52,3099.10 L 3333.07,2959.73 L 3344.73,2959.77 L 3344.82,2937.89 L 3407.00,2938.14 L 3406.91,2960.02 L 3418.57,2960.07 L 3418.02,3099.44 L 3411.54,3099.41 L 3411.52,3105.92 L 3338.98,3105.63 L 3339.00,3099.12 L 3332.52,3099.10 Z M 3406.91,2960.02 L 3407.00,2938.14 L 3407.00,2938.14 L 3406.91,2960.02 Z" />
    <text x="3375.55" y="3021.91" class="label">樓梯</text>
    <path class="room" d="M 7123.56,3937.36 L 7123.75,3889.17 L 7147.07,3889.26 L 7147.15,3868.42 L 7292.24,3869.00 L 7292.16,3889.84 L 7295.26,3889.85 L 7295.07,3938.05 L 7291.97,3938.04 L 7291.93,3947.93 L 7146.84,3947.36 L 7146.88,3937.46 L 7123.56,3937.36 Z" />
    <text x="7209.41" y="3908.18" class="label">樓梯</text>
    <path class="room" d="M 6416.80,4061.94 L 6417.20,3959.30 L 6420.05,3959.31 L 6420.15,3935.22 L 6609.88,3936.01 L 6609.63,3939.30 L 6609.46,3942.59 L 6609.37,3945.89 L 6609.37,3949.19 L 6609.46,3952.49 L 6609.63,3955.78 L 6609.88,3959.07 L 6610.22,3962.35 L 6610.64,3965.62 L 6611.15,3968.88 L 6611.74,3972.12 L 6612.42,3975.34 L 6613.17,3978.55 L 6614.01,3981.74 L 6614.93,3984.91 L 6615.41,3986.45 L 6615.91,3987.98 L 6616.43,3989.51 L 6616.97,3991.03 L 6617.53,3992.55 L 6618.10,3994.06 L 6618.70,3995.56 L 6619.31,3997.05 L 6619.94,3998.54 L 6620.60,4000.01 L 6621.27,4001.48 L 6621.96,4002.94 L 6622.66,4004.39 L 6623.39,4005.83 L 6624.13,4007.27 L 6624.89,4008.69 L 6625.67,4010.10 L 6626.47,4011.51 L 6627.28,4012.90 L 6628.12,4014.28 L 6628.97,4015.65 L 6629.83,4017.01 L 6630.72,4018.36 L 6631.62,4019.70 L 6632.54,4021.02 L 6633.47,4022.34 L 6634.42,4023.64 L 6635.39,4024.93 L 6636.37,4026.21 L 6637.37,4027.48 L 6636.27,4028.78 L 6638.37,4030.56 L 6644.69,4035.94 L 6652.70,4043.53 L 6669.90,4057.38 L 6670.52,4056.64 L 6671.11,4057.00 L 6671.70,4057.35 L 6672.30,4057.70 L 6672.89,4058.04 L 6673.49,4058.39 L 6674.09,4058.73 L 6674.69,4059.06 L 6675.29,4059.40 L 6675.89,4059.73 L 6676.50,4060.05 L 6677.10,4060.38 L 6677.71,4060.70 L 6678.32,4061.01 L 6678.94,4061.33 L 6679.55,4061.64 L 6681.49,4062.59 L 6683.45,4063.51 L 6685.42,4064.40 L 6687.41,4065.25 L 6689.41,4066.07 L 6691.43,4066.86 L 6693.46,4067.61 L 6695.50,4068.32 L 6697.55,4069.00 L 6699.62,4069.65 L 6701.69,4070.26 L 6703.78,4070.83 L 6705.87,4071.37 L 6707.98,4071.87 L 6710.09,4072.34 L 6712.15,4072.75 L 6714.22,4073.12 L 6716.30,4073.47 L 6718.38,4073.78 L 6720.47,4074.07 L 6722.56,4074.31 L 6724.66,4074.53 L 6726.76,4074.72 L 6728.86,4074.87 L 6730.96,4074.99 L 6733.06,4075.07 L 6735.17,4075.12 L 6737.28,4075.14 L 6739.38,4075.13 L 6741.49,4075.09 L 6772.90,4075.21 L 6801.68,4075.32 L 6803.61,4075.38 L 6805.54,4075.41 L 6807.46,4075.40 L 6809.39,4075.38 L 6811.32,4075.32 L 6813.25,4075.24 L 6815.17,4075.13 L 6817.09,4074.99 L 6819.01,4074.82 L 6820.93,4074.63 L 6822.85,4074.41 L 6824.76,4074.16 L 6826.67,4073.88 L 6828.57,4073.58 L 6830.47,4073.25 L 6834.34,4072.48 L 6838.17,4071.58 L 6841.98,4070.56 L 6845.75,4069.43 L 6849.49,4068.17 L 6853.19,4066.80 L 6856.84,4065.32 L 6860.45,4063.72 L 6864.00,4062.01 L 6867.50,4060.19 L 6870.94,4058.26 L 6874.32,4056.23 L 6877.64,4054.09 L 6880.88,4051.84 L 6884.06,4049.50 L 6887.20,4047.03 L 6890.26,4044.46 L 6893.24,4041.80 L 6896.13,4039.04 L 6898.94,4036.19 L 6901.65,4033.25 L 6904.28,4030.23 L 6906.80,4027.13 L 6909.23,4023.96 L 6911.56,4020.70 L 6913.79,4017.37 L 6915.91,4013.98 L 6917.92,4010.52 L 6919.83,4007.00 L 6921.62,4003.42 L 6922.38,4001.80 L 6923.12,4000.18 L 6923.84,3998.55 L 6924.53,3996.91 L 6925.21,3995.25 L 6925.86,3993.59 L 6926.48,3991.92 L 6927.08,3990.24 L 6927.66,3988.55 L 6928.22,3986.86 L 6928.75,3985.15 L 6929.25,3983.44 L 6929.74,3981.73 L 6930.20,3980.00 L 6930.64,3978.27 L 6932.97,3978.29 L 6933.02,3965.93 L 6933.10,3946.51 L 7123.52,3947.26 L 7123.47,3960.81 L 7125.02,3960.82 L 7124.62,4064.75 L 7123.06,4064.74 L 7123.00,4080.73 L 7111.71,4091.99 L 7112.81,4093.10 L 6937.75,4267.73 L 6935.72,4267.72 L 6935.72,4266.16 L 6912.41,4266.07 L 6912.40,4267.63 L 6775.75,4267.09 L 6676.64,4266.69 L 6676.64,4265.13 L 6653.32,4265.04 L 6653.32,4266.60 L 6602.07,4266.40 L 6428.39,4090.38 L 6429.49,4089.27 L 6418.29,4077.93 L 6418.36,4061.94 L 6416.80,4061.94 Z M 6636.27,4028.78 L 6636.55,4029.02 L 6636.59,4029.05 L 6636.62,4029.08 L 6636.66,4029.11 L 6636.69,4029.14 L 6636.73,4029.17 L 6636.76,4029.19 L 6636.80,4029.22 L 6636.27,4028.78 Z M 6636.27,4028.78 L 6637.37,4027.48 L 6637.29,4027.56 L 6637.22,4027.64 L 6637.14,4027.73 L 6637.07,4027.82 L 6637.00,4027.90 L 6636.92,4027.99 L 6636.85,4028.07 L 6636.77,4028.16 L 6636.70,4028.25 L 6636.63,4028.33 L 6636.56,4028.42 L 6636.49,4028.51 L 6636.42,4028.60 L 6636.34,4028.69 L 6636.27,4028.78 Z M 6636.80,4029.22 L 6636.83,4029.26 L 6636.87,4029.29 L 6636.90,4029.32 L 6636.94,4029.35 L 6636.97,4029.38 L 6637.01,4029.41 L 6637.04,4029.44 L 6637.08,4029.47 L 6637.11,4029.50 L 6637.15,4029.53 L 6637.18,4029.56 L 6637.22,4029.58 L 6637.25,4029.61 L 6637.29,4029.64 L 6637.32,4029.67 L 6636.80,4029.22 Z M 6637.33,4029.67 L 6637.39,4029.73 L 6637.46,4029.79 L 6637.53,4029.85 L 6637.60,4029.92 L 6637.67,4029.98 L 6637.74,4030.04 L 6637.81,4030.10 L 6637.88,4030.15 L 6637.95,4030.22 L 6638.02,4030.27 L 6638.09,4030.33 L 6638.16,4030.39 L 6638.23,4030.45 L 6638.30,4030.51 L 6638.37,4030.56 L 6637.33,4029.67 Z M 6638.38,4030.57 L 6638.51,4030.69 L 6638.65,4030.81 L 6638.79,4030.93 L 6638.92,4031.05 L 6639.06,4031.17 L 6639.20,4031.30 L 6639.34,4031.42 L 6639.48,4031.53 L 6639.62,4031.65 L 6639.76,4031.77 L 6639.90,4031.89 L 6640.05,4032.01 L 6640.19,4032.12 L 6640.33,4032.24 L 6640.46,4032.34 L 6638.38,4030.57 Z M 6640.49,4032.36 L 6640.75,4032.60 L 6641.02,4032.84 L 6641.30,4033.09 L 6641.57,4033.33 L 6641.85,4033.57 L 6642.13,4033.81 L 6642.41,4034.05 L 6642.69,4034.29 L 6642.97,4034.53 L 6643.25,4034.76 L 6643.53,4035.00 L 6643.82,4035.23 L 6644.10,4035.46 L 6644.39,4035.69 L 6644.66,4035.91 L 6640.49,4032.36 Z M 6645.00,4036.23 L 6652.70,4043.53 L 6653.25,4044.02 L 6653.81,4044.50 L 6654.37,4044.98 L 6654.93,4045.45 L 6655.50,4045.93 L 6656.07,4046.40 L 6656.64,4046.86 L 6657.22,4047.33 L 6657.79,4047.78 L 6658.37,4048.24 L 6658.96,4048.69 L 6659.54,4049.14 L 6660.13,4049.59 L 6660.72,4050.03 L 6661.31,4050.47 L 6661.34,4050.49 L 6652.70,4043.53 L 6645.00,4036.23 Z M 6679.94,4061.83 L 6681.33,4062.51 L 6681.44,4062.57 L 6679.94,4061.83 Z M 6681.86,4062.77 L 6683.18,4063.39 L 6683.37,4063.48 L 6681.86,4062.77 Z M 6683.82,4063.68 L 6685.05,4064.24 L 6685.32,4064.36 L 6683.82,4063.68 Z M 6685.80,4064.56 L 6686.93,4065.05 L 6687.27,4065.19 L 6685.80,4064.56 Z M 6687.79,4065.41 L 6688.82,4065.84 L 6689.23,4066.00 L 6687.79,4065.41 Z M 6689.80,4066.23 L 6690.72,4066.59 L 6691.19,4066.77 L 6689.80,4066.23 Z M 6691.83,4067.01 L 6692.64,4067.31 L 6693.16,4067.50 L 6691.83,4067.01 Z M 6693.87,4067.75 L 6694.57,4068.00 L 6695.13,4068.19 L 6693.87,4067.75 Z M 6695.92,4068.46 L 6696.51,4068.66 L 6697.08,4068.85 L 6695.92,4068.46 Z M 6697.99,4069.14 L 6698.46,4069.29 L 6699.04,4069.47 L 6697.99,4069.14 Z M 6700.03,4069.77 L 6700.44,4069.89 L 6701.07,4070.08 L 6700.03,4069.77 Z M 6702.07,4070.36 L 6702.44,4070.47 L 6703.11,4070.65 L 6702.07,4070.36 Z M 6704.12,4070.92 L 6704.44,4071.00 L 6705.17,4071.19 L 6704.12,4070.92 Z M 6706.17,4071.44 L 6706.45,4071.51 L 6707.25,4071.70 L 6706.17,4071.44 Z M 6708.22,4071.92 L 6708.47,4071.98 L 6709.35,4072.17 L 6708.22,4071.92 Z M 6710.25,4072.37 L 6710.50,4072.42 L 6712.53,4072.83 L 6714.57,4073.20 L 6716.62,4073.54 L 6718.67,4073.84 L 6720.73,4074.11 L 6722.78,4074.35 L 6724.85,4074.55 L 6725.70,4074.62 L 6724.66,4074.53 L 6722.56,4074.31 L 6720.47,4074.07 L 6718.38,4073.78 L 6716.30,4073.47 L 6714.22,4073.12 L 6712.15,4072.75 L 6710.25,4072.37 Z M 6820.76,4074.65 L 6821.31,4074.60 L 6822.02,4074.50 L 6820.93,4074.63 L 6820.76,4074.65 Z M 6827.41,4073.77 L 6827.93,4073.69 L 6828.29,4073.63 L 6827.41,4073.77 Z M 6840.38,4070.99 L 6840.99,4070.84 L 6841.32,4070.74 L 6840.38,4070.99 Z M 6846.87,4069.05 L 6847.38,4068.90 L 6847.96,4068.69 L 6846.87,4069.05 Z M 6853.50,4066.68 L 6853.67,4066.62 L 6854.10,4066.44 L 6853.50,4066.68 Z M 6859.33,4064.22 L 6859.82,4064.01 L 6860.04,4063.90 L 6859.33,4064.22 Z M 6865.30,4061.33 L 6865.84,4061.07 L 6866.33,4060.80 L 6865.30,4061.33 Z M 6871.42,4057.97 L 6871.68,4057.83 L 6872.19,4057.51 L 6871.42,4057.97 Z M 6877.06,4054.46 L 6877.36,4054.27 L 6877.45,4054.21 L 6877.06,4054.46 Z M 6882.31,4050.79 L 6882.83,4050.42 L 6883.22,4050.12 L 6882.31,4050.79 Z M 6887.78,4046.54 L 6888.10,4046.29 L 6888.61,4045.85 L 6887.78,4046.54 Z M 6897.51,4037.64 L 6897.95,4037.21 L 6898.57,4036.56 L 6897.51,4037.64 Z M 6899.15,4035.95 L 6899.52,4035.58 L 6901.06,4033.91 L 6901.45,4033.48 L 6899.15,4035.95 Z M 6901.91,4032.96 L 6902.57,4032.21 L 6904.06,4030.49 L 6904.19,4030.33 L 6901.91,4032.96 Z M 6904.42,4030.05 L 6904.56,4029.89 L 6904.76,4029.65 L 6905.51,4028.75 L 6906.69,4027.28 L 6905.29,4028.99 L 6904.42,4030.05 Z M 6906.84,4027.08 L 6906.93,4026.97 L 6907.24,4026.57 L 6907.38,4026.40 L 6907.56,4026.16 L 6908.32,4025.17 L 6909.04,4024.21 L 6908.12,4025.41 L 6907.10,4026.74 L 6906.84,4027.08 Z M 6909.36,4023.78 L 6909.68,4023.35 L 6909.95,4022.97 L 6910.06,4022.82 L 6910.23,4022.58 L 6911.00,4021.50 L 6911.41,4020.91 L 6909.36,4023.78 Z M 6911.73,4020.45 L 6912.29,4019.63 L 6912.53,4019.27 L 6912.63,4019.14 L 6912.78,4018.91 L 6913.55,4017.74 L 6913.72,4017.48 L 6913.14,4018.34 L 6912.13,4019.85 L 6911.73,4020.45 Z M 6913.92,4017.16 L 6914.77,4015.82 L 6914.98,4015.49 L 6915.06,4015.37 L 6915.19,4015.15 L 6915.88,4014.02 L 6913.92,4017.16 Z M 6915.91,4013.97 L 6915.96,4013.89 L 6917.12,4011.93 L 6917.29,4011.63 L 6917.36,4011.52 L 6917.47,4011.31 L 6917.77,4010.79 L 6917.36,4011.49 L 6916.75,4012.54 L 6915.91,4013.97 Z M 6918.01,4010.35 L 6918.24,4009.95 L 6919.32,4007.95 L 6919.47,4007.68 L 6919.52,4007.58 L 6919.62,4007.39 L 6919.69,4007.26 L 6919.66,4007.31 L 6919.11,4008.32 L 6918.01,4010.35 Z M 6919.97,4006.72 L 6920.37,4005.94 L 6921.39,4003.90 L 6921.50,4003.66 L 6921.54,4003.58 L 6921.57,4003.51 L 6921.23,4004.19 L 6919.97,4006.72 Z M 6923.23,3999.95 L 6923.31,3999.78 L 6923.48,3999.38 L 6923.23,3999.95 Z M 6924.06,3998.02 L 6924.21,3997.69 L 6924.34,3997.38 L 6924.06,3998.02 Z M 6926.61,3991.57 L 6926.69,3991.33 L 6926.83,3990.94 L 6926.61,3991.57 Z M 6927.31,3989.57 L 6927.45,3989.19 L 6927.53,3988.93 L 6927.31,3989.57 Z M 6929.39,3982.98 L 6929.48,3982.67 L 6929.58,3982.31 L 6929.39,3982.98 Z M 6929.96,3980.89 L 6930.07,3980.48 L 6930.13,3980.28 L 6929.96,3980.89 Z M 6930.63,3978.28 L 6932.97,3978.29 L 6930.64,3978.27 L 6930.63,3978.28 Z M 6933.02,3965.93 L 6933.10,3965.37 L 6933.17,3964.80 L 6933.25,3964.24 L 6933.32,3963.68 L 6933.39,3963.11 L 6933.45,3962.55 L 6933.52,3961.98 L 6933.58,3961.42 L 6933.64,3960.85 L 6933.69,3960.29 L 6933.75,3959.72 L 6933.80,3959.16 L 6933.85,3958.59 L 6933.89,3958.03 L 6933.94,3957.46 L 6934.04,3956.07 L 6934.12,3954.67 L 6934.18,3953.28 L 6934.24,3951.88 L 6934.27,3950.49 L 6934.29,3949.09 L 6934.30,3947.70 L 6934.29,3946.51 L 6933.10,3946.51 L 6933.02,3965.93 Z" />
    <text x="6770.91" y="4101.47" class="label">汽車車道</text>
    <path class="room" d="M 7860.68,3868.66 L 7861.36,3694.09 L 7883.64,3694.18 L 7883.71,3675.95 L 8149.28,3677.00 L 8149.20,3695.27 L 8172.52,3695.36 L 8172.59,3677.10 L 8231.63,3677.45 L 8288.74,3769.96 L 8354.17,3888.86 L 8171.76,3888.13 L 8171.83,3869.90 L 8148.51,3869.80 L 8148.44,3888.04 L 7882.88,3886.98 L 7882.96,3868.75 L 7860.68,3868.66 Z" />
    <text x="8107.42" y="3782.40" class="label">汽機車出入口車道</text>
    <path class="room" d="M 2048.12,2664.42 L 2048.71,2514.37 L 2052.85,2514.39 L 2052.86,2512.83 L 2143.02,2513.19 L 2143.01,2514.75 L 2166.33,2514.84 L 2166.34,2513.28 L 2291.99,2513.77 L 2291.99,2515.34 L 2313.75,2515.42 L 2313.44,2595.53 L 2444.53,2596.05 L 2444.45,2617.54 L 2467.77,2617.63 L 2467.85,2596.14 L 2546.87,2596.46 L 2546.78,2619.25 L 2572.69,2619.35 L 2572.78,2595.26 L 2823.45,2596.25 L 2824.00,2454.93 L 2831.13,2454.95 L 2831.13,2453.00 L 2989.17,2453.63 L 2989.17,2455.58 L 3012.49,2455.67 L 3012.49,2453.72 L 3170.53,2454.35 L 3170.53,2456.30 L 3193.84,2456.39 L 3193.82,2454.44 L 3328.58,2454.97 L 3328.57,2456.93 L 3346.70,2457.00 L 3346.81,2429.39 L 3408.99,2429.63 L 3408.98,2431.19 L 3432.30,2431.29 L 3432.31,2429.72 L 3693.98,2430.76 L 3693.98,2432.33 L 3717.30,2432.42 L 3717.30,2430.86 L 3978.98,2431.89 L 3978.97,2433.46 L 4002.29,2433.55 L 4002.29,2431.99 L 4263.97,2433.03 L 4263.96,2434.59 L 4287.28,2434.68 L 4287.29,2433.12 L 4548.96,2434.16 L 4548.95,2435.72 L 4572.27,2435.81 L 4572.28,2434.25 L 4833.95,2435.29 L 4833.95,2436.85 L 4857.27,2436.95 L 4857.27,2435.38 L 5031.51,2436.07 L 5030.86,2601.10 L 5120.24,2601.46 L 5120.28,2591.69 L 5118.34,2591.68 L 5118.43,2568.24 L 5120.37,2568.24 L 5120.72,2479.02 L 5207.51,2479.37 L 5207.68,2436.77 L 5403.94,2437.55 L 5403.93,2439.12 L 5427.25,2439.21 L 5427.26,2437.65 L 5688.93,2438.69 L 5688.92,2440.25 L 5712.24,2440.34 L 5712.25,2438.78 L 5973.92,2439.82 L 5973.92,2441.38 L 5997.23,2441.48 L 5997.24,2439.91 L 6129.37,2440.44 L 6129.37,2442.00 L 6152.68,2442.09 L 6152.69,2440.53 L 6400.11,2441.51 L 6400.11,2443.08 L 6426.02,2443.18 L 6426.02,2441.62 L 6735.89,2442.80 L 6735.68,2494.95 L 6803.43,2495.22 L 6803.12,2573.63 L 6788.23,2573.57 L 6788.13,2599.62 L 6789.68,2599.63 L 6789.05,2758.54 L 6787.50,2758.53 L 6787.40,2784.58 L 6788.95,2784.59 L 6788.45,2912.23 L 6786.90,2912.23 L 6786.79,2938.28 L 6788.35,2938.28 L 6787.52,3149.29 L 6785.96,3149.29 L 6785.86,3175.34 L 6787.41,3175.34 L 6786.59,3386.35 L 6785.03,3386.34 L 6784.93,3412.40 L 6786.48,3412.40 L 6785.74,3601.27 L 6784.19,3601.26 L 6784.07,3629.92 L 6812.57,3630.03 L 6812.58,3628.47 L 6913.62,3628.87 L 6913.61,3630.43 L 6939.52,3630.53 L 6939.53,3628.97 L 7124.77,3629.71 L 7124.77,3631.27 L 7138.88,3631.33 L 7138.65,3690.07 L 7292.94,3690.69 L 7292.93,3691.86 L 7316.25,3691.95 L 7316.32,3673.72 L 7482.14,3674.38 L 7482.07,3692.61 L 7505.38,3692.70 L 7505.45,3674.47 L 7671.27,3675.13 L 7671.20,3693.36 L 7694.51,3693.46 L 7694.58,3675.22 L 7860.40,3675.88 L 7860.33,3694.09 L 7861.36,3694.09 L 7860.68,3868.66 L 7859.64,3868.65 L 7859.57,3886.89 L 7693.75,3886.23 L 7693.83,3867.99 L 7670.51,3867.90 L 7670.44,3886.14 L 7504.62,3885.48 L 7504.70,3867.24 L 7481.38,3867.15 L 7481.31,3885.38 L 7303.83,3884.68 L 7303.90,3866.44 L 7292.25,3866.40 L 7292.24,3869.00 L 7147.15,3868.42 L 7147.16,3865.82 L 7123.84,3865.72 L 7123.52,3947.26 L 6934.29,3946.51 L 6934.21,3943.04 L 6934.03,3939.56 L 6933.76,3936.10 L 6933.40,3932.64 L 6932.94,3929.19 L 6932.39,3925.76 L 6931.74,3922.34 L 6931.00,3918.95 L 6930.17,3915.57 L 6929.26,3912.22 L 6928.24,3908.89 L 6927.15,3905.60 L 6925.95,3902.33 L 6924.68,3899.10 L 6923.31,3895.90 L 6921.86,3892.75 L 6920.33,3889.63 L 6918.71,3886.56 L 6917.01,3883.54 L 6915.22,3880.56 L 6913.36,3877.63 L 6911.42,3874.75 L 6909.40,3871.93 L 6907.30,3869.16 L 6905.13,3866.45 L 6902.89,3863.81 L 6900.58,3861.22 L 6898.19,3858.70 L 6895.75,3856.25 L 6893.23,3853.86 L 6890.66,3851.55 L 6888.02,3849.31 L 6885.32,3847.14 L 6882.57,3845.05 L 6879.76,3843.03 L 6876.90,3841.09 L 6873.99,3839.23 L 6871.02,3837.45 L 6868.01,3835.75 L 6864.96,3834.13 L 6861.86,3832.60 L 6858.72,3831.16 L 6855.55,3829.80 L 6852.33,3828.53 L 6849.09,3827.34 L 6847.46,3826.78 L 6845.82,3826.25 L 6844.17,3825.73 L 6842.52,3825.24 L 6840.86,3824.78 L 6839.19,3824.33 L 6837.53,3823.91 L 6835.85,3823.51 L 6834.16,3823.13 L 6832.48,3822.78 L 6830.78,3822.45 L 6829.09,3822.14 L 6827.39,3821.86 L 6825.69,3821.60 L 6823.98,3821.36 L 6822.91,3821.22 L 6821.85,3821.10 L 6820.79,3820.98 L 6819.72,3820.87 L 6818.66,3820.77 L 6817.59,3820.68 L 6816.52,3820.60 L 6815.46,3820.52 L 6814.39,3820.46 L 6813.32,3820.41 L 6812.25,3820.36 L 6811.18,3820.32 L 6810.11,3820.30 L 6809.04,3820.28 L 6807.97,3820.27 L 6798.22,3820.30 L 6769.44,3820.38 L 6746.40,3820.44 L 6744.97,3820.33 L 6743.53,3820.24 L 6740.65,3820.11 L 6736.67,3820.03 L 6732.69,3820.08 L 6728.72,3820.25 L 6724.75,3820.55 L 6720.79,3820.97 L 6716.85,3821.52 L 6712.92,3822.19 L 6709.02,3822.99 L 6705.14,3823.91 L 6701.30,3824.95 L 6697.49,3826.11 L 6693.72,3827.39 L 6689.99,3828.79 L 6686.31,3830.31 L 6682.67,3831.94 L 6680.68,3832.89 L 6678.70,3833.88 L 6676.74,3834.90 L 6674.80,3835.96 L 6672.88,3837.05 L 6670.98,3838.18 L 6669.09,3839.34 L 6667.23,3840.53 L 6665.39,3841.75 L 6663.57,3843.00 L 6661.77,3844.29 L 6659.99,3845.61 L 6658.24,3846.96 L 6656.51,3848.33 L 6654.81,3849.75 L 6653.12,3851.18 L 6651.47,3852.65 L 6649.84,3854.15 L 6648.24,3855.67 L 6646.66,3857.23 L 6645.11,3858.81 L 6643.59,3860.42 L 6642.09,3862.05 L 6640.63,3863.71 L 6639.19,3865.39 L 6637.78,3867.10 L 6636.41,3868.84 L 6635.06,3870.60 L 6633.74,3872.38 L 6632.46,3874.18 L 6631.20,3876.01 L 6629.98,3877.85 L 6628.79,3879.72 L 6627.63,3881.61 L 6626.51,3883.52 L 6625.42,3885.45 L 6624.36,3887.40 L 6623.33,3889.36 L 6622.34,3891.35 L 6621.39,3893.35 L 6620.47,3895.37 L 6619.58,3897.40 L 6618.73,3899.45 L 6617.92,3901.51 L 6617.14,3903.59 L 6616.40,3905.68 L 6615.69,3907.78 L 6615.02,3909.89 L 6614.39,3912.02 L 6613.79,3914.16 L 6613.23,3916.30 L 6612.71,3918.46 L 6612.22,3920.62 L 6611.78,3922.80 L 6611.37,3924.98 L 6610.99,3927.17 L 6610.66,3929.36 L 6610.37,3931.56 L 6610.11,3933.76 L 6609.89,3935.97 L 6420.15,3935.22 L 6420.16,3933.26 L 6418.60,3933.26 L 6419.80,3629.77 L 6421.35,3629.78 L 6421.45,3603.73 L 6419.90,3603.72 L 6420.66,3410.95 L 6422.21,3410.95 L 6422.31,3384.90 L 6420.76,3384.90 L 6421.59,3173.89 L 6423.14,3173.89 L 6423.25,3147.85 L 6421.69,3147.84 L 6422.51,2940.74 L 6424.06,2940.74 L 6424.17,2912.09 L 6395.67,2911.97 L 6395.67,2913.54 L 6150.83,2912.56 L 6150.84,2911.00 L 6127.52,2910.91 L 6127.52,2912.47 L 5995.38,2911.95 L 5995.39,2910.38 L 5972.07,2910.29 L 5972.07,2911.85 L 5710.39,2910.81 L 5710.40,2909.25 L 5687.08,2909.16 L 5687.07,2910.72 L 5425.40,2909.68 L 5425.41,2908.12 L 5402.09,2908.02 L 5402.08,2909.59 L 5339.90,2909.34 L 5339.91,2907.78 L 5316.59,2907.69 L 5316.59,2909.25 L 5140.41,2908.55 L 5140.41,2906.99 L 5117.10,2906.89 L 5117.09,2908.46 L 4855.42,2907.42 L 4855.42,2905.85 L 4832.11,2905.76 L 4832.10,2907.32 L 4570.42,2906.28 L 4570.43,2904.72 L 4549.06,2904.64 L 4549.57,2774.38 L 4547.62,2774.38 L 4547.63,2772.42 L 4467.96,2772.11 L 4467.44,2905.88 L 4285.43,2905.15 L 4285.44,2903.59 L 4262.12,2903.50 L 4262.12,2905.06 L 4000.44,2904.02 L 4000.45,2902.46 L 3977.13,2902.37 L 3977.12,2903.93 L 3715.45,2902.89 L 3715.46,2901.33 L 3692.14,2901.23 L 3692.13,2902.81 L 3419.31,2936.62 L 3407.00,2936.57 L 3407.00,2938.14 L 3344.82,2937.89 L 3344.82,2936.33 L 3321.50,2936.24 L 3321.50,2937.80 L 3191.96,2937.28 L 3191.96,2935.72 L 3168.64,2935.63 L 3168.64,2937.19 L 3010.60,2936.56 L 3010.60,2935.00 L 2987.29,2934.91 L 2987.28,2936.47 L 2829.24,2935.85 L 2829.25,2934.28 L 2805.93,2934.19 L 2805.92,2935.75 L 2647.88,2935.12 L 2647.89,2933.56 L 2624.57,2933.47 L 2624.56,2935.03 L 2518.99,2934.62 L 2519.59,2781.31 L 2467.12,2781.10 L 2467.13,2779.15 L 2443.82,2779.05 L 2443.81,2781.01 L 2314.27,2780.49 L 2314.27,2778.54 L 2312.72,2778.53 L 2312.92,2726.43 L 2314.48,2726.44 L 2314.57,2702.99 L 2291.25,2702.90 L 2291.24,2704.46 L 2165.59,2703.97 L 2165.60,2702.40 L 2142.28,2702.31 L 2142.27,2703.87 L 2052.11,2703.52 L 2052.12,2701.95 L 2050.82,2701.95 L 2050.97,2664.44 L 2048.12,2664.42 Z M 2291.25,2702.90 L 2314.57,2702.99 L 2314.57,2702.99 L 2291.25,2702.90 Z M 2546.78,2619.25 L 2546.87,2596.46 L 2546.87,2596.46 L 2546.78,2619.25 Z M 2625.08,2803.22 L 2646.84,2803.31 L 2646.63,2856.97 L 2889.39,2857.93 L 2889.92,2724.55 L 2647.16,2723.59 L 2646.94,2779.86 L 2625.17,2779.77 L 2625.08,2803.22 Z M 2883.59,2620.59 L 2909.50,2620.69 L 2909.60,2594.64 L 2883.69,2594.53 L 2883.59,2620.59 Z M 2987.80,2804.66 L 3011.12,2804.75 L 3011.21,2781.30 L 2987.89,2781.21 L 2987.80,2804.66 Z M 2988.52,2619.70 L 3011.84,2619.79 L 3011.93,2596.35 L 2988.62,2596.25 L 2988.52,2619.70 Z M 3169.16,2805.38 L 3192.47,2805.47 L 3192.57,2782.02 L 3169.25,2781.93 L 3169.16,2805.38 Z M 3169.88,2620.42 L 3193.20,2620.51 L 3193.29,2597.06 L 3169.97,2596.97 L 3169.88,2620.42 Z M 3322.02,2805.98 L 3345.33,2806.07 L 3345.43,2782.63 L 3322.11,2782.54 L 3322.02,2805.98 Z M 3322.74,2621.03 L 3346.06,2621.12 L 3346.15,2597.67 L 3322.83,2597.58 L 3322.74,2621.03 Z M 3407.51,2806.32 L 3430.83,2806.41 L 3430.92,2782.97 L 3407.61,2782.88 L 3407.51,2806.32 Z M 3408.24,2621.36 L 3431.56,2621.46 L 3431.65,2598.01 L 3408.33,2597.92 L 3408.24,2621.36 Z M 3692.65,2770.98 L 3715.97,2771.08 L 3716.06,2747.63 L 3692.74,2747.54 L 3692.65,2770.98 Z M 3693.37,2586.02 L 3716.69,2586.12 L 3716.78,2562.67 L 3693.47,2562.58 L 3693.37,2586.02 Z M 3912.75,2473.57 L 3980.11,2473.84 L 3980.26,2433.46 L 3978.97,2433.46 L 3978.98,2431.89 L 3912.91,2431.63 L 3912.75,2473.57 Z M 3977.64,2772.11 L 4000.96,2772.21 L 4001.05,2748.76 L 3977.73,2748.67 L 3977.64,2772.11 Z M 3978.37,2587.16 L 4001.68,2587.25 L 4001.78,2563.80 L 3978.46,2563.71 L 3978.37,2587.16 Z M 4262.63,2773.25 L 4285.95,2773.34 L 4286.04,2749.89 L 4262.73,2749.80 L 4262.63,2773.25 Z M 4263.36,2588.29 L 4286.68,2588.38 L 4286.77,2564.93 L 4263.45,2564.84 L 4263.36,2588.29 Z M 4547.62,2774.38 L 4570.94,2774.47 L 4571.03,2751.02 L 4547.72,2750.93 L 4547.62,2774.38 Z M 4548.35,2589.42 L 4571.67,2589.51 L 4571.76,2566.06 L 4548.44,2565.97 L 4548.35,2589.42 Z M 4832.62,2775.51 L 4855.93,2775.60 L 4856.03,2752.16 L 4832.71,2752.06 L 4832.62,2775.51 Z M 4833.34,2590.55 L 4856.66,2590.64 L 4856.75,2567.20 L 4833.43,2567.11 L 4833.34,2590.55 Z M 5117.61,2776.64 L 5140.93,2776.73 L 5141.02,2753.29 L 5117.70,2753.19 L 5117.61,2776.64 Z M 5118.34,2591.68 L 5141.65,2591.78 L 5141.75,2568.33 L 5118.43,2568.24 L 5118.34,2591.68 Z M 5402.60,2777.77 L 5425.92,2777.86 L 5426.01,2754.42 L 5402.69,2754.33 L 5402.60,2777.77 Z M 5403.33,2592.82 L 5426.65,2592.91 L 5426.74,2569.46 L 5403.42,2569.37 L 5403.33,2592.82 Z M 5687.59,2778.91 L 5710.91,2779.00 L 5711.00,2755.55 L 5687.69,2755.46 L 5687.59,2778.91 Z M 5688.32,2593.95 L 5711.64,2594.04 L 5711.73,2570.59 L 5688.41,2570.50 L 5688.32,2593.95 Z M 5972.58,2780.04 L 5995.90,2780.13 L 5995.99,2756.69 L 5972.68,2756.59 L 5972.58,2780.04 Z M 5973.31,2595.08 L 5996.63,2595.17 L 5996.72,2571.73 L 5973.40,2571.64 L 5973.31,2595.08 Z M 6128.03,2780.66 L 6151.35,2780.75 L 6151.44,2757.30 L 6128.13,2757.21 L 6128.03,2780.66 Z M 6128.76,2595.70 L 6152.08,2595.79 L 6152.17,2572.34 L 6128.85,2572.25 L 6128.76,2595.70 Z M 6398.77,2784.34 L 6424.68,2784.44 L 6424.78,2758.39 L 6398.87,2758.29 L 6398.77,2784.34 Z M 6399.50,2598.08 L 6425.41,2598.18 L 6425.51,2572.13 L 6399.60,2572.03 L 6399.50,2598.08 Z M 6610.53,3930.32 L 6610.58,3929.95 L 6610.56,3930.11 L 6610.53,3930.32 Z M 6611.47,3924.41 L 6611.54,3924.04 L 6611.50,3924.25 L 6611.47,3924.41 Z M 6614.14,3912.89 L 6614.24,3912.54 L 6614.20,3912.69 L 6614.14,3912.89 Z M 6615.89,3907.18 L 6616.01,3906.81 L 6615.94,3907.02 L 6615.89,3907.18 Z M 6622.65,3890.73 L 6622.83,3890.38 L 6622.73,3890.57 L 6622.65,3890.73 Z M 6642.63,3861.46 L 6642.91,3861.15 L 6642.76,3861.31 L 6642.63,3861.46 Z M 6652.06,3852.13 L 6652.31,3851.91 L 6652.18,3852.02 L 6652.06,3852.13 Z M 6675.88,3835.37 L 6676.15,3835.22 L 6676.03,3835.29 L 6675.88,3835.37 Z M 6695.51,3826.78 L 6696.50,3826.45 L 6696.07,3826.58 L 6695.51,3826.78 Z M 6738.50,3820.06 L 6739.55,3820.09 L 6739.09,3820.06 L 6738.50,3820.06 Z M 6798.22,3820.30 L 6807.94,3820.27 L 6807.94,3820.27 L 6798.22,3820.30 Z M 6853.00,3828.79 L 6853.73,3829.08 L 6853.29,3828.89 L 6853.00,3828.79 Z M 6897.03,3857.53 L 6897.84,3858.35 L 6897.38,3857.87 L 6897.03,3857.53 Z M 6898.68,3859.21 L 6900.10,3860.71 L 6899.40,3859.96 L 6899.31,3859.87 L 6899.27,3859.83 L 6898.68,3859.21 Z M 6900.91,3861.60 L 6902.36,3863.22 L 6901.37,3862.09 L 6900.91,3861.60 Z M 6903.02,3863.96 L 6903.07,3864.02 L 6904.97,3866.27 L 6903.30,3864.27 L 6903.16,3864.13 L 6903.10,3864.05 L 6903.02,3863.96 Z M 6907.77,3869.78 L 6909.12,3871.56 L 6908.76,3871.07 L 6907.77,3869.78 Z M 6924.72,3899.21 L 6925.90,3902.18 L 6925.68,3901.62 L 6925.15,3900.25 L 6924.72,3899.21 Z M 6928.29,3909.03 L 6929.21,3912.06 L 6929.01,3911.38 L 6928.58,3909.97 L 6928.29,3909.03 Z M 6930.18,3915.60 L 6930.98,3918.86 L 6930.93,3918.61 L 6930.57,3917.14 L 6930.20,3915.67 L 6930.18,3915.60 Z M 6934.04,3939.67 L 6934.20,3942.89 L 6934.17,3942.12 L 6934.10,3940.72 L 6934.04,3939.67 Z M 3407.00,2938.14 L 3407.00,2938.14 L 3407.00,2936.57 L 3407.00,2938.14 Z M 6620.13,3896.13 L 6620.27,3895.81 L 6620.21,3895.94 L 6620.13,3896.13 Z M 6631.62,3875.39 L 6631.85,3875.06 L 6631.73,3875.23 L 6631.62,3875.39 Z M 6688.75,3829.30 L 6689.48,3829.00 L 6689.23,3829.09 L 6688.75,3829.30 Z M 6702.55,3824.61 L 6703.59,3824.33 L 6703.04,3824.46 L 6702.55,3824.61 Z M 6709.78,3822.83 L 6710.70,3822.65 L 6710.13,3822.75 L 6709.78,3822.83 Z M 6717.14,3821.48 L 6717.68,3821.41 L 6717.30,3821.45 L 6717.14,3821.48 Z M 6731.26,3820.14 L 6732.09,3820.10 L 6731.80,3820.10 L 6731.26,3820.14 Z M 6859.19,3831.37 L 6859.80,3831.65 L 6859.41,3831.47 L 6859.19,3831.37 Z M 6865.24,3834.29 L 6865.69,3834.52 L 6865.39,3834.35 L 6865.24,3834.29 Z M 6882.08,3844.69 L 6882.39,3844.92 L 6882.30,3844.85 L 6882.08,3844.69 Z M 6887.24,3848.68 L 6887.70,3849.05 L 6887.55,3848.92 L 6887.24,3848.68 Z M 6892.23,3852.96 L 6892.78,3853.45 L 6892.58,3853.26 L 6892.23,3852.96 Z M 6905.15,3866.47 L 6906.38,3868.01 L 6906.93,3868.70 L 6907.16,3868.98 L 6906.99,3868.77 L 6906.82,3868.55 L 6906.74,3868.45 L 6906.57,3868.23 L 6905.17,3866.50 L 6905.15,3866.47 Z M 6909.82,3872.52 L 6909.92,3872.66 L 6910.51,3873.49 L 6911.03,3874.21 L 6910.48,3873.42 L 6910.27,3873.14 L 6910.18,3873.01 L 6909.99,3872.75 L 6909.82,3872.52 Z M 6911.72,3875.20 L 6912.92,3876.97 L 6912.15,3875.81 L 6911.72,3875.20 Z M 6913.53,3877.90 L 6914.95,3880.13 L 6913.75,3878.24 L 6913.53,3877.90 Z M 6915.26,3880.62 L 6916.13,3882.06 L 6916.62,3882.89 L 6916.92,3883.38 L 6916.81,3883.19 L 6916.55,3882.76 L 6916.44,3882.56 L 6916.24,3882.25 L 6915.31,3880.70 L 6915.26,3880.62 Z M 6917.37,3884.18 L 6918.50,3886.20 L 6918.25,3885.72 L 6917.37,3884.18 Z M 6919.05,3887.21 L 6919.50,3888.07 L 6920.03,3889.08 L 6919.63,3888.28 L 6919.35,3887.77 L 6919.24,3887.54 L 6919.05,3887.21 Z M 6920.59,3890.16 L 6921.52,3892.05 L 6920.95,3890.88 L 6920.59,3890.16 Z M 6922.02,3893.08 L 6923.26,3895.78 L 6922.84,3894.84 L 6922.22,3893.50 L 6922.02,3893.08 Z M 6923.35,3895.98 L 6923.92,3897.33 L 6924.32,3898.27 L 6924.65,3899.04 L 6924.59,3898.89 L 6924.19,3897.93 L 6924.16,3897.86 L 6924.13,3897.80 L 6924.02,3897.53 L 6923.44,3896.18 L 6923.35,3895.98 Z M 6926.01,3902.48 L 6926.15,3902.88 L 6926.46,3903.71 L 6927.11,3905.50 L 6926.71,3904.38 L 6926.29,3903.22 L 6926.27,3903.17 L 6926.26,3903.14 L 6926.21,3903.00 L 6926.01,3902.48 Z M 6927.16,3905.65 L 6928.02,3908.23 L 6928.18,3908.69 L 6928.22,3908.81 L 6928.14,3908.56 L 6927.68,3907.16 L 6927.21,3905.77 L 6927.16,3905.65 Z M 6929.29,3912.35 L 6929.61,3913.52 L 6929.89,3914.53 L 6930.16,3915.50 L 6929.81,3914.21 L 6929.78,3914.08 L 6929.77,3914.05 L 6929.76,3914.01 L 6929.42,3912.79 L 6929.29,3912.35 Z M 6931.04,3919.09 L 6931.10,3919.37 L 6931.26,3920.12 L 6931.71,3922.18 L 6931.58,3921.57 L 6931.26,3920.09 L 6931.17,3919.68 L 6931.15,3919.60 L 6931.13,3919.51 L 6931.04,3919.09 Z M 6931.77,3922.50 L 6932.36,3925.62 L 6932.31,3925.31 L 6932.29,3925.21 L 6932.27,3925.11 L 6932.17,3924.54 L 6931.88,3923.06 L 6931.77,3922.50 Z M 6932.40,3925.84 L 6932.93,3929.14 L 6932.91,3929.03 L 6932.68,3927.53 L 6932.43,3926.03 L 6932.40,3925.84 Z M 6932.95,3929.29 L 6933.15,3930.77 L 6933.23,3931.40 L 6933.38,3932.49 L 6933.32,3932.03 L 6933.18,3930.94 L 6933.17,3930.86 L 6933.16,3930.80 L 6933.13,3930.53 L 6932.95,3929.29 Z M 6933.42,3932.81 L 6933.74,3935.93 L 6933.66,3935.04 L 6933.50,3933.53 L 6933.42,3932.81 Z M 6933.77,3936.21 L 6934.03,3939.50 L 6934.02,3939.33 L 6933.92,3937.94 L 6933.80,3936.55 L 6933.77,3936.21 Z M 6934.21,3943.15 L 6934.29,3946.45 L 6934.29,3946.30 L 6934.27,3944.91 L 6934.23,3943.51 L 6934.21,3943.15 Z" />
    <path class="room" d="M 6420.76,3384.90 L 6421.59,3173.89 L 6423.14,3173.89 L 6423.16,3170.12 L 6488.58,3170.38 L 6487.72,3388.68 L 6422.30,3388.42 L 6422.31,3384.90 L 6420.76,3384.90 Z" />
    <text x="4954.74" y="3188.32" class="label">停車場</text>
  </g>
</svg>