<svg width="16000" height="9099" viewBox="0 0 16000 9099" xmlns="http://www.w3.org/2000/svg" xmlns:xlink="http://www.w3.org/1999/xlink">

    <style>
        .building { fill: #f0f4f8; stroke: #d1dce5; stroke-width: 2; }
        .room     { fill: #ffffff; fill-opacity: 0.8; stroke: #bcccdc; stroke-width: 1; }
        .label    { font-family: "Noto Sans TC", sans-serif; font-size: 24px; fill: #334e68; font-weight: 500; text-anchor: middle; dominant-baseline: middle; }
    </style>
      <g id="gis_gis_building_geom">
    <path class="building" d="M 2949.26,4010.03 L 4140.85,4021.56 L 4142.10,4292.67 L 4130.90,4292.64 L 4130.40,4356.44 L 3226.66,4355.84 L 3226.31,4812.55 L 3401.68,4811.80 L 3401.95,5141.81 L 2942.28,5141.31 L 2949.26,4010.03 Z" />
    <path class="building" d="M 7088.12,2560.89 L 7700.72,2562.04 L 7700.87,2481.66 L 8148.51,2483.00 L 8147.15,2562.88 L 8693.32,2563.92 L 8721.63,2695.28 L 8721.63,2695.28 L 8715.57,3280.48 L 8690.90,3280.61 L 8690.48,3403.55 L 7085.32,3389.98 L 7085.31,3204.63 L 7000.35,3203.97 L 7003.43,2738.84 L 7087.35,2738.26 L 7088.12,2560.89 Z" />
    <path class="building" d="M 4843.51,1956.47 L 4844.51,1787.79 L 4906.35,1787.49 L 4905.24,1712.44 L 5766.54,1719.44 L 5767.05,1759.83 L 6027.80,1762.57 L 6041.22,1778.35 L 6040.91,2113.44 L 5920.93,2113.62 L 5921.58,2180.69 L 4855.22,2175.20 L 4857.61,1956.59 L 4843.51,1956.47 Z" />
    <path class="building" d="M 3188.76,5839.04 L 3184.44,6132.85 L 3009.51,6131.08 L 3010.12,5838.90 L 3188.76,5839.04 Z" />
    <path class="building" d="M 8161.26,3799.06 L 8661.34,3802.64 L 8661.72,3865.86 L 8759.20,3866.25 L 8755.51,3995.61 L 8806.86,3995.16 L 8806.05,4079.95 L 8850.04,4079.42 L 8848.57,4261.53 L 8807.12,4260.63 L 8806.31,4341.05 L 8464.87,4337.40 L 8462.68,4793.00 L 8947.00,4797.31 L 8944.64,5163.38 L 9070.07,5164.43 L 9068.88,5256.28 L 8943.78,5254.69 L 8940.58,5624.81 L 8458.26,5621.41 L 8453.24,6072.52 L 9133.83,6077.89 L 9126.51,6745.48 L 8044.27,6736.86 L 8045.15,6541.70 L 7946.95,6541.19 L 7947.74,6409.27 L 7850.08,6409.19 L 7850.29,6387.18 L 7663.94,6386.98 L 7662.42,6294.92 L 7365.94,6294.05 L 7367.40,6164.56 L 7219.73,6164.20 L 7220.56,6079.32 L 7176.49,6078.82 L 7179.52,5914.56 L 7222.17,5914.94 L 7222.98,5832.54 L 7863.48,5840.16 L 7863.88,5617.56 L 7754.27,5617.59 L 7754.43,5521.38 L 7739.08,5522.23 L 7740.67,5376.11 L 7755.56,5376.17 L 7756.55,5277.27 L 7785.97,5276.79 L 7786.18,5127.15 L 7757.98,5127.35 L 7758.14,5028.99 L 7743.59,5028.70 L 7745.39,4886.44 L 7759.72,4886.75 L 7760.11,4786.55 L 7849.88,4787.63 L 7849.21,4560.97 L 7233.65,4557.12 L 7234.22,4480.71 L 7180.57,4480.46 L 7181.34,4311.50 L 7235.49,4311.75 L 7236.10,4231.20 L 7381.06,4231.84 L 7382.58,4106.09 L 7678.18,4106.93 L 7679.62,4016.64 L 7870.79,4014.88 L 7870.93,3994.82 L 7966.89,3995.55 L 7968.35,3863.10 L 8160.60,3863.87 L 8161.26,3799.06 Z" />
    <path class="building" d="M 1785.34,1818.91 L 1846.80,1820.11 L 1846.08,1868.88 L 1915.10,1869.87 L 1914.84,1881.19 L 1956.32,1881.91 L 1956.29,1947.64 L 1913.30,1947.43 L 1912.91,1964.27 L 1844.69,1963.82 L 1844.25,1993.82 L 2113.96,1996.73 L 2111.80,2313.15 L 1638.41,2309.74 L 1638.57,2369.36 L 1402.42,2370.43 L 1402.86,2308.05 L 913.25,2304.52 L 921.14,1983.86 L 1782.78,1993.15 L 1785.34,1818.91 Z" />
    <path class="building" d="M 1233.29,3176.04 L 1233.24,3086.16 L 1689.31,3086.09 L 1689.85,3178.73 L 2105.12,3181.86 L 2100.21,3742.07 L 811.22,3734.26 L 816.44,3173.49 L 1233.29,3176.04 Z" />
    <path class="building" d="M 4422.39,3825.20 L 4557.45,3823.98 L 4558.56,3948.97 L 4423.51,3950.19 L 4422.39,3825.20 Z" />
    <path class="building" d="M 5454.09,3024.68 L 5470.25,3024.58 L 5470.20,3032.77 L 5776.10,3034.35 L 5777.47,2956.96 L 5982.23,2956.10 L 5981.83,3035.41 L 6304.16,3037.07 L 6307.16,3777.27 L 6169.76,3776.65 L 6170.26,3825.65 L 5997.21,3824.78 L 5999.79,3339.48 L 5451.60,3336.55 L 5454.09,3024.68 Z" />
    <path class="building" d="M 810.23,4162.32 L 2094.03,4174.33 L 2089.09,4719.68 L 2050.10,4719.24 L 2050.20,4746.64 L 1713.11,4742.66 L 1713.39,4715.41 L 805.90,4705.09 L 810.23,4162.32 Z" />
    <path class="building" d="M 5154.02,4923.99 L 5174.31,4923.63 L 5174.75,4823.71 L 5156.69,4823.06 L 5158.73,4730.00 L 5153.87,4730.05 L 5153.30,4532.71 L 4982.76,4534.29 L 4982.12,4520.32 L 4753.21,4517.98 L 4752.95,4206.61 L 5867.58,4215.65 L 5865.18,4622.01 L 5896.39,4622.08 L 5894.82,4763.49 L 6306.89,4767.17 L 6301.07,5688.40 L 5887.43,5691.03 L 5886.89,5832.41 L 5854.54,5832.37 L 5853.47,6070.58 L 5399.78,6064.30 L 5405.55,5280.53 L 5376.56,5280.37 L 5376.79,5215.40 L 5151.84,5213.08 L 5151.97,5219.13 L 5154.02,4923.99 Z" />
    <path class="building" d="M 3393.95,5787.13 L 3442.50,5787.21 L 3442.68,5774.53 L 3630.52,5775.89 L 3631.48,5739.98 L 4112.97,5745.69 L 4113.00,5779.38 L 4284.12,5780.62 L 4284.41,5744.13 L 4286.78,5744.18 L 4286.73,5683.26 L 4511.51,5688.82 L 4511.10,5748.44 L 4600.29,5750.13 L 4600.37,5781.26 L 4984.14,5785.27 L 4983.80,5976.74 L 5219.32,5978.53 L 5219.88,6039.07 L 5265.74,6038.84 L 5260.63,6205.34 L 5217.18,6206.06 L 5217.99,6267.47 L 5167.99,6267.69 L 5166.59,6358.65 L 4403.43,6352.99 L 4402.67,6219.38 L 4187.82,6220.82 L 4189.74,6082.55 L 3392.66,6074.33 L 3392.93,6015.46 L 3346.48,6015.69 L 3345.67,5846.07 L 3393.69,5845.84 L 3393.95,5787.13 Z" />
    <path class="building" d="M 3480.58,1049.19 L 3478.99,999.72 L 3622.50,1000.51 L 3623.18,1050.84 L 3766.99,1052.51 L 3767.46,1154.80 L 3876.62,1155.69 L 3876.12,1302.54 L 4088.23,1299.59 L 4089.53,1365.74 L 4257.77,1366.48 L 4254.19,1531.73 L 3773.89,1529.93 L 3775.24,1614.55 L 3768.91,1632.60 L 3503.68,1632.43 L 3508.43,1214.67 L 3463.89,1214.91 L 3467.11,1049.03 L 3480.58,1049.19 Z" />
    <path class="building" d="M 936.26,5355.33 L 938.67,5282.05 L 1124.06,5283.51 L 1124.24,5251.09 L 1291.35,5250.09 L 1307.39,5242.52 L 1325.18,5238.63 L 1356.16,5233.68 L 1377.43,5232.40 L 1405.24,5235.72 L 1428.02,5240.86 L 1440.65,5244.93 L 1460.13,5252.19 L 1607.57,5253.53 L 1607.60,5288.52 L 1776.51,5290.71 L 1776.60,5240.34 L 2103.44,5244.81 L 2103.50,5356.82 L 2205.45,5356.56 L 2205.38,5378.57 L 2282.83,5379.22 L 2285.51,5565.09 L 2894.09,5569.40 L 2893.37,5633.72 L 2936.68,5633.51 L 2937.52,5803.75 L 2846.36,5804.20 L 2846.34,5953.33 L 2559.91,5955.61 L 2546.09,5965.10 L 2519.95,5972.97 L 2488.77,5982.33 L 2463.81,5984.39 L 2436.80,5986.16 L 2402.61,5984.38 L 2377.54,5982.72 L 2340.87,5977.26 L 2314.70,5972.21 L 2285.31,5960.47 L 2259.99,5947.24 L 1985.67,5944.67 L 1985.29,5908.44 L 1769.65,5909.19 L 1773.26,5665.81 L 1597.93,5664.92 L 1599.05,5851.91 L 1024.38,5845.83 L 1022.48,5808.99 L 1001.29,5809.19 L 1000.42,5661.87 L 882.09,5661.27 L 883.76,5439.25 L 856.33,5438.30 L 859.12,5355.29 L 936.26,5355.33 Z" />
    <path class="building" d="M 13529.99,6560.54 L 14941.59,6571.40 L 14932.04,7144.65 L 14992.06,7145.75 L 14993.21,7490.04 L 14952.13,7489.30 L 14951.20,7527.87 L 13628.49,7517.89 L 13629.06,7497.74 L 13464.17,7496.13 L 13468.50,7115.25 L 13528.85,7116.51 L 13530.83,6851.87 L 13480.99,6851.93 L 13479.73,6621.87 L 13530.11,6622.39 L 13529.99,6560.54 Z" />
    <path class="building" d="M 5093.05,7797.46 L 5095.59,7780.54 L 6087.61,7941.33 L 6022.66,8306.95 L 5960.86,8299.45 L 5951.07,8349.55 L 4941.17,8184.55 L 4984.12,7921.91 L 5034.25,7929.51 L 5057.02,7792.95 L 5093.05,7797.46 Z" />
    <path class="building" d="M 924.06,1000.40 L 1568.36,1012.99 L 1566.57,922.99 L 1880.10,928.66 L 1881.99,1019.12 L 2136.51,1024.09 L 2121.00,1825.46 L 908.59,1801.77 L 924.06,1000.40 Z" />
    <path class="building" d="M 3553.73,1653.86 L 4853.30,1652.82 L 4852.16,1787.86 L 4844.51,1787.79 L 4843.51,1956.47 L 4850.75,1956.53 L 4849.40,2118.29 L 4411.37,2114.16 L 4411.76,2160.24 L 4465.88,2160.87 L 4465.14,2276.87 L 4231.13,2277.71 L 4231.03,2158.16 L 4287.83,2158.82 L 4287.44,2113.00 L 3550.76,2106.07 L 3553.73,1653.86 Z" />
    <path class="building" d="M 2268.76,1003.93 L 2280.78,984.64 L 2301.22,961.02 L 2328.14,932.78 L 2376.93,892.39 L 2432.02,852.59 L 2456.33,836.30 L 2492.30,816.65 L 2492.65,812.32 L 2497.05,801.30 L 2505.95,790.96 L 2517.92,784.39 L 2534.43,781.93 L 2543.82,782.04 L 2553.79,783.27 L 2558.23,785.09 L 2561.34,783.57 L 2614.81,766.10 L 2654.80,754.95 L 2736.40,738.94 L 2774.76,736.02 L 2819.06,734.40 L 2864.17,735.02 L 2912.73,739.61 L 2955.40,745.85 L 2999.31,756.53 L 3064.54,776.64 L 3111.23,795.03 L 3147.21,812.60 L 3190.74,836.66 L 3245.03,874.91 L 3335.46,950.82 L 3362.11,979.42 L 3379.06,1004.60 L 3316.60,1050.11 L 3330.09,1064.69 L 3312.34,1077.80 L 3355.45,1126.80 L 3354.12,1319.70 L 3355.49,1799.51 L 2657.61,1799.22 L 2649.90,2029.27 L 3171.26,2031.80 L 3172.51,1971.58 L 3282.84,1972.96 L 3284.07,2032.35 L 3345.52,2032.65 L 3344.64,2341.85 L 3195.08,2340.34 L 3194.82,2358.50 L 3161.99,2359.41 L 3162.40,2340.50 L 2293.87,2340.13 L 2291.91,1914.68 L 2445.18,1915.40 L 2446.50,1799.14 L 2286.94,1799.08 L 2288.75,1126.37 L 2343.08,1060.46 L 2268.76,1003.93 Z" />
    <path class="building" d="M 2375.15,3011.39 L 2703.50,3012.59 L 2706.21,2927.10 L 2908.80,2929.26 L 2907.77,3013.34 L 3224.19,3014.50 L 3221.87,3314.69 L 2675.53,3316.31 L 2672.14,3806.07 L 2611.01,3805.78 L 2611.50,3752.93 L 2369.52,3750.98 L 2375.15,3011.39 Z" />
    <path class="building" d="M 3481.73,3013.15 L 4216.24,3018.45 L 4216.72,2932.76 L 4466.90,2931.38 L 4468.50,3020.27 L 5200.00,3025.54 L 5196.12,3341.16 L 4532.93,3336.21 L 4533.28,3456.98 L 4146.26,3455.47 L 4145.86,3333.24 L 3480.74,3325.73 L 3481.73,3013.15 Z" />
    <path class="building" d="M 2359.65,4017.52 L 2682.41,4014.00 L 2683.31,4054.59 L 2674.47,4054.84 L 2667.93,4437.03 L 2763.04,4437.67 L 2761.52,4667.51 L 2664.01,4666.86 L 2654.87,5374.86 L 2660.54,5374.70 L 2659.91,5389.96 L 2344.25,5388.14 L 2359.65,4017.52 Z" />
    <path class="building" d="M 3502.33,4517.98 L 3587.32,4518.98 L 3587.05,4474.73 L 3922.02,4476.01 L 3922.52,4509.52 L 4982.12,4520.32 L 4982.76,4534.29 L 5153.30,4532.71 L 5153.87,4730.05 L 5158.73,4730.00 L 5156.69,4823.06 L 5174.75,4823.71 L 5174.31,4923.63 L 5154.02,4923.99 L 5151.97,5219.13 L 5071.20,5219.60 L 5070.35,5272.40 L 4665.04,5270.50 L 4665.31,5225.67 L 3579.55,5215.95 L 3579.14,5204.15 L 3499.71,5204.74 L 3500.84,4914.76 L 3479.18,4914.22 L 3480.73,4807.81 L 3501.94,4807.89 L 3502.33,4517.98 Z" />
    <path class="building" d="M 11448.31,2608.09 L 11443.96,2519.88 L 11936.57,2495.70 L 11937.54,2522.91 L 11969.51,2521.23 L 11973.77,2620.44 L 11941.10,2622.40 L 11943.56,2691.25 L 12023.28,2687.38 L 12021.53,2652.29 L 12212.21,2643.62 L 12214.73,2678.07 L 12292.75,2675.69 L 12289.42,2607.07 L 12255.82,2608.91 L 12251.93,2505.72 L 12284.43,2504.26 L 12283.18,2478.69 L 13428.92,2422.45 L 13435.62,2613.62 L 13468.77,2612.12 L 13467.35,2556.10 L 13646.50,2547.86 L 13649.47,2603.90 L 13684.37,2602.32 L 13671.86,2410.52 L 14152.96,2386.91 L 14170.11,2736.81 L 13904.32,2750.00 L 13914.52,2942.80 L 13340.66,2974.61 L 13352.87,3252.74 L 12426.20,3299.52 L 12409.53,3017.41 L 11743.24,3054.12 L 11741.45,3028.15 L 11711.32,3029.36 L 11704.20,2926.92 L 11734.35,2925.31 L 11729.77,2858.79 L 11461.38,2873.15 L 11457.02,2784.77 L 11415.95,2786.12 L 11410.15,2609.07 L 11448.31,2608.09 Z" />
  </g>
  <g id="gis_room_AD_10F">
    <path class="room" d="M 6057.87,5424.50 L 6058.08,5372.40 L 6116.68,5372.64 L 6116.48,5424.74 L 6057.87,5424.50 Z" />
    <text x="6087.28" y="5398.57" class="label">女廁</text>
    <path class="room" d="M 5910.27,5616.17 L 5910.93,5446.84 L 5981.92,5447.13 L 5982.01,5424.20 L 6015.95,5424.34 L 6015.75,5476.76 L 6006.23,5476.73 L 6006.15,5495.87 L 6015.67,5495.91 L 6015.20,5616.59 L 5990.07,5616.49 L 5990.13,5600.34 L 5966.29,5600.24 L 5966.23,5616.39 L 5910.27,5616.17 Z" />
    <text x="5963.11" y="5520.40" class="label">樓梯</text>
    <path class="room" d="M 5812.86,5615.78 L 5813.33,5495.11 L 5815.34,5495.11 L 5815.41,5475.97 L 5813.40,5475.96 L 5813.61,5423.53 L 5840.04,5423.64 L 5839.95,5446.56 L 5910.93,5446.84 L 5910.27,5616.17 L 5854.31,5615.95 L 5854.37,5599.80 L 5830.54,5599.70 L 5830.47,5615.85 L 5812.86,5615.78 Z" />
    <text x="5861.90" y="5519.85" class="label">樓梯</text>
    <path class="room" d="M 5910.93,5446.84 L 5911.23,5371.82 L 5982.22,5372.10 L 5981.92,5447.13 L 5910.93,5446.84 Z" />
    <text x="5946.58" y="5409.47" class="label">電梯</text>
    <path class="room" d="M 5839.95,5446.56 L 5840.24,5371.54 L 5911.23,5371.82 L 5910.93,5446.84 L 5839.95,5446.56 Z" />
    <text x="5875.59" y="5409.19" class="label">電梯</text>
    <path class="room" d="M 5903.48,5102.17 L 5904.01,4968.79 L 6010.23,4969.21 L 6009.71,5102.59 L 5903.48,5102.17 Z" />
    <text x="5956.85" y="5035.69" class="label">辦公室</text>
    <path class="room" d="M 5814.10,5299.80 L 5814.77,5127.73 L 5818.01,5127.74 L 5818.10,5106.12 L 5814.86,5106.11 L 5814.88,5101.81 L 6009.71,5102.59 L 6009.68,5108.12 L 6007.68,5108.11 L 6007.60,5127.26 L 6009.61,5127.27 L 6008.93,5300.57 L 5814.10,5299.80 Z" />
    <text x="5911.90" y="5201.19" class="label">辦公室</text>
    <path class="room" d="M 6057.63,5486.50 L 6057.87,5424.50 L 6116.48,5424.74 L 6116.23,5486.74 L 6057.63,5486.50 Z" />
    <text x="6087.05" y="5455.62" class="label">淋浴間</text>
    <path class="room" d="M 6015.56,5525.41 L 6015.67,5495.91 L 6025.19,5495.95 L 6025.23,5486.38 L 6116.23,5486.74 L 6116.03,5538.84 L 6039.34,5538.53 L 6039.39,5525.51 L 6015.56,5525.41 Z" />
    <text x="6065.89" y="5512.61" class="label">男廁</text>
    <path class="room" d="M 5808.03,4931.15 L 5808.52,4806.11 L 5826.14,4806.18 L 5826.09,4819.21 L 5849.93,4819.30 L 5849.98,4806.28 L 5975.37,4806.78 L 5975.32,4819.80 L 5999.16,4819.89 L 5999.21,4806.87 L 6016.83,4806.94 L 6016.34,4931.98 L 6010.38,4931.96 L 6010.36,4936.26 L 6007.12,4936.24 L 6007.03,4957.86 L 6010.27,4957.88 L 6010.23,4969.21 L 5904.01,4968.79 L 5903.48,5102.17 L 5814.88,5101.81 L 5815.44,4957.10 L 5818.68,4957.12 L 5818.77,4935.50 L 5815.53,4935.48 L 5815.55,4931.18 L 5808.03,4931.15 Z" />
    <text x="5912.43" y="4954.14" class="label">會議室</text>
    <path class="room" d="M 5596.29,5475.10 L 5596.89,5323.62 L 5613.92,5323.68 L 5614.00,5304.53 L 5596.97,5304.47 L 5597.67,5125.63 L 5614.70,5125.70 L 5614.78,5106.55 L 5597.74,5106.48 L 5598.33,4956.24 L 5616.60,4956.31 L 5616.68,4934.69 L 5598.42,4934.62 L 5598.44,4930.32 L 5708.80,4930.76 L 5709.02,4874.75 L 5785.97,4875.06 L 5785.91,4891.99 L 5808.19,4892.08 L 5808.03,4931.15 L 5815.55,4931.18 L 5815.53,4935.48 L 5797.26,4935.41 L 5797.18,4957.03 L 5815.44,4957.10 L 5814.86,5106.11 L 5796.59,5106.04 L 5796.51,5127.66 L 5814.77,5127.73 L 5814.10,5299.80 L 5806.58,5299.76 L 5806.56,5305.30 L 5797.04,5305.26 L 5796.97,5324.41 L 5806.49,5324.45 L 5806.10,5423.50 L 5813.61,5423.53 L 5813.40,5475.96 L 5796.37,5475.89 L 5796.29,5495.04 L 5813.33,5495.11 L 5813.15,5540.76 L 5797.60,5540.70 L 5797.54,5556.33 L 5706.35,5555.97 L 5706.63,5485.11 L 5613.29,5484.74 L 5613.33,5475.16 L 5596.29,5475.10 Z" />
    <text x="5705.92" y="5215.54" class="label">平台</text>
    <path class="room" d="M 6008.93,5300.57 L 6009.61,5127.27 L 6026.64,5127.34 L 6026.72,5108.19 L 6009.68,5108.12 L 6010.16,4986.66 L 6116.90,4987.09 L 6117.12,4932.38 L 6227.49,4932.82 L 6227.47,4937.12 L 6209.20,4937.05 L 6209.12,4958.67 L 6227.38,4958.74 L 6226.79,5108.99 L 6209.76,5108.92 L 6209.68,5128.06 L 6226.72,5128.13 L 6226.01,5306.97 L 6208.98,5306.90 L 6208.91,5326.05 L 6225.94,5326.11 L 6225.34,5477.60 L 6208.31,5477.53 L 6208.27,5487.10 L 6116.23,5486.74 L 6116.68,5372.64 L 6016.16,5372.24 L 6016.34,5325.28 L 6025.86,5325.32 L 6025.94,5306.17 L 6016.42,5306.13 L 6016.44,5300.60 L 6008.93,5300.57 Z" />
    <text x="6118.21" y="5209.74" class="label">平台</text>
  </g>
  <g id="gis_room_AM_10F">
    <path class="room" d="M 5213.21,8186.20 L 5225.68,8113.02 L 5273.56,8121.28 L 5261.09,8194.45 L 5213.21,8186.20 Z" />
    <text x="5243.39" y="8153.74" class="label">電力/弱電</text>
    <path class="room" d="M 5040.49,8093.00 L 5070.48,7917.12 L 5147.72,7930.43 L 5145.42,7943.91 L 5147.34,7944.25 L 5119.65,8106.64 L 5040.49,8093.00 Z" />
    <text x="5094.11" y="8011.88" class="label">甲梯</text>
    <path class="room" d="M 5056.39,8504.75 L 5066.35,8446.33 L 5141.04,8459.21 L 5130.75,8519.55 L 5080.32,8510.86 L 5080.65,8508.93 L 5056.39,8504.75 Z" />
    <text x="5098.71" y="8482.94" class="label">行動不便電梯L2</text>
    <path class="room" d="M 5066.35,8446.33 L 5078.38,8375.73 L 5153.08,8388.60 L 5141.04,8459.21 L 5066.35,8446.33 Z" />
    <text x="5109.71" y="8417.47" class="label">緊急升降機L1/兼用行動不便電梯</text>
    <path class="room" d="M 5217.21,8567.49 L 5239.10,8439.11 L 5251.86,8441.31 L 5281.70,8266.30 L 5339.13,8276.21 L 5354.04,8265.84 L 5442.80,8281.14 L 5436.76,8316.57 L 5452.08,8319.21 L 5410.06,8565.70 L 5394.74,8563.06 L 5388.94,8597.08 L 5217.21,8567.49 Z" />
    <text x="5334.64" y="8431.46" class="label">台達北科聯合研發中心</text>
    <path class="room" d="M 5410.06,8565.70 L 5452.08,8319.21 L 5467.40,8321.85 L 5471.30,8298.98 L 5505.19,8304.82 L 5520.15,8294.19 L 5551.53,8299.60 L 5531.79,8415.38 L 5667.61,8438.79 L 5633.44,8639.22 L 5419.58,8602.36 L 5425.38,8568.34 L 5410.06,8565.70 Z" />
    <text x="5538.83" y="8466.70" class="label">宏碁-北科大研發中心</text>
    <path class="room" d="M 5078.38,8375.73 L 5098.41,8258.26 L 5122.67,8262.44 L 5128.47,8228.42 L 5215.93,8243.49 L 5210.02,8278.16 L 5190.87,8274.85 L 5176.86,8357.02 L 5158.98,8353.94 L 5153.08,8388.60 L 5078.38,8375.73 Z" />
    <text x="5147.16" y="8308.51" class="label">女廁</text>
    <path class="room" d="M 5139.79,7988.54 L 5147.34,7944.25 L 5176.07,7949.20 L 5181.87,7915.17 L 5395.64,7952.02 L 5351.59,8210.44 L 5309.52,8203.19 L 5298.95,8188.16 L 5263.21,8182.00 L 5273.56,8121.28 L 5226.32,8113.13 L 5244.49,8006.58 L 5139.79,7988.54 Z" />
    <text x="5267.71" y="8062.81" class="label">研發中心</text>
    <path class="room" d="M 5798.26,8287.03 L 5836.45,8063.01 L 5865.53,8068.02 L 5871.33,8034.00 L 6057.74,8066.13 L 6053.26,8092.45 L 6079.43,8096.96 L 6039.93,8328.69 L 5798.26,8287.03 Z" />
    <text x="5938.84" y="8181.35" class="label">技專校院招生聯合會</text>
    <path class="room" d="M 5351.59,8210.44 L 5395.64,7952.02 L 5495.96,7969.31 L 5490.16,8003.33 L 5520.80,8008.61 L 5526.60,7974.59 L 5550.31,7978.68 L 5508.44,8224.26 L 5473.13,8218.18 L 5458.18,8228.81 L 5351.59,8210.44 Z" />
    <text x="5450.95" y="8090.42" class="label">智慧健康產業研發中心</text>
    <path class="room" d="M 4970.68,8502.53 L 5000.66,8326.65 L 5084.29,8341.06 L 5056.39,8504.75 L 5050.01,8503.65 L 5047.92,8515.84 L 4970.68,8502.53 Z" />
    <text x="5027.49" y="8421.25" class="label">甲梯</text>
    <path class="room" d="M 5108.82,8170.19 L 5111.34,8155.43 L 5144.53,8161.15 L 5142.02,8175.91 L 5108.82,8170.19 Z" />
    <text x="5126.68" y="8165.67" class="label">資源回收</text>
    <path class="room" d="M 5932.84,8390.18 L 5936.67,8367.71 L 6004.34,8379.38 L 6000.51,8401.84 L 5932.84,8390.18 Z" />
    <text x="5968.59" y="8384.78" class="label">封閉空間</text>
    <path class="room" d="M 5045.35,8334.35 L 5085.18,8100.70 L 5119.65,8106.64 L 5108.82,8170.19 L 5142.02,8175.91 L 5132.93,8229.19 L 5128.47,8228.42 L 5128.79,8226.49 L 5098.15,8221.21 L 5092.02,8257.16 L 5098.41,8258.26 L 5084.29,8341.06 L 5045.35,8334.35 Z" />
    <text x="5093.68" y="8220.88" class="label">陽臺</text>
    <path class="room" d="M 5121.62,8095.09 L 5139.79,7988.54 L 5244.49,8006.58 L 5232.23,8078.47 L 5187.54,8070.77 L 5181.63,8105.43 L 5121.62,8095.09 Z" />
    <text x="5183.05" y="8046.98" class="label">男廁</text>
    <path class="room" d="M 5040.71,8276.73 L 5060.63,8159.90 L 5074.67,8162.33 L 5054.76,8279.15 L 5040.71,8276.73 Z" />
    <text x="5057.69" y="8219.53" class="label">花臺</text>
    <path class="room" d="M 5821.60,8707.33 L 5827.51,8672.67 L 5863.26,8678.83 L 5857.36,8713.49 L 5821.60,8707.33 Z" />
    <text x="5842.43" y="8693.08" class="label">陽台</text>
    <path class="room" d="M 5245.07,7926.07 L 5250.97,7891.41 L 5286.73,7897.57 L 5280.82,7932.23 L 5245.07,7926.07 Z" />
    <text x="5265.90" y="7911.82" class="label">陽台</text>
    <path class="room" d="M 5359.98,7945.87 L 5365.89,7911.21 L 5401.64,7917.37 L 5395.73,7952.03 L 5359.98,7945.87 Z" />
    <text x="5380.81" y="7931.62" class="label">陽台</text>
    <path class="room" d="M 5474.89,7965.68 L 5480.80,7931.01 L 5516.55,7937.18 L 5510.97,7969.91 L 5496.28,7967.38 L 5495.96,7969.31 L 5474.89,7965.68 Z" />
    <text x="5495.72" y="7950.46" class="label">陽台</text>
    <path class="room" d="M 5589.80,7985.48 L 5595.71,7950.82 L 5631.46,7956.98 L 5625.55,7991.64 L 5589.80,7985.48 Z" />
    <text x="5610.63" y="7971.23" class="label">陽台</text>
    <path class="room" d="M 5704.71,8005.29 L 5710.62,7970.63 L 5746.37,7976.79 L 5740.46,8011.45 L 5704.71,8005.29 Z" />
    <text x="5725.54" y="7991.04" class="label">陽台</text>
    <path class="room" d="M 5591.78,8667.72 L 5597.69,8633.06 L 5633.44,8639.22 L 5627.53,8673.88 L 5591.78,8667.72 Z" />
    <text x="5612.61" y="8653.47" class="label">陽台</text>
    <path class="room" d="M 5074.85,8542.95 L 5080.32,8510.86 L 5130.75,8519.55 L 5125.28,8551.64 L 5074.85,8542.95 Z" />
    <text x="5102.80" y="8531.25" class="label">封閉空間</text>
    <path class="room" d="M 5476.87,8647.92 L 5482.78,8613.26 L 5518.53,8619.42 L 5512.62,8654.08 L 5476.87,8647.92 Z" />
    <text x="5497.70" y="8633.67" class="label">陽台</text>
    <path class="room" d="M 5361.96,8628.11 L 5367.87,8593.45 L 5388.94,8597.08 L 5388.61,8599.01 L 5403.29,8601.54 L 5397.71,8634.27 L 5361.96,8628.11 Z" />
    <text x="5382.63" y="8613.86" class="label">陽台</text>
    <path class="room" d="M 5247.05,8608.31 L 5252.96,8573.65 L 5288.71,8579.81 L 5282.80,8614.47 L 5247.05,8608.31 Z" />
    <text x="5267.88" y="8594.06" class="label">陽台</text>
    <path class="room" d="M 5706.69,8687.53 L 5712.60,8652.86 L 5733.67,8656.50 L 5733.34,8658.42 L 5748.02,8660.95 L 5742.44,8693.69 L 5706.69,8687.53 Z" />
    <text x="5727.36" y="8673.28" class="label">陽台</text>
    <path class="room" d="M 5934.53,8044.90 L 5940.44,8010.23 L 5976.19,8016.40 L 5970.28,8051.06 L 5934.53,8044.90 Z" />
    <text x="5955.36" y="8030.65" class="label">陽台</text>
    <path class="room" d="M 5508.44,8224.26 L 5550.31,7978.68 L 5840.69,8028.72 L 5834.89,8062.74 L 5836.45,8063.01 L 5800.38,8274.57 L 5765.08,8268.49 L 5750.12,8279.12 L 5578.49,8249.47 L 5567.97,8234.52 L 5508.44,8224.26 Z" />
    <text x="5674.56" y="8128.90" class="label">智慧鐵道產業人才學院研發中心</text>
    <path class="room" d="M 5819.62,8025.09 L 5825.53,7990.43 L 5861.28,7996.59 L 5855.70,8029.33 L 5841.02,8026.80 L 5840.69,8028.72 L 5819.62,8025.09 Z" />
    <text x="5840.45" y="8009.88" class="label">陽台</text>
    <path class="room" d="M 5891.35,8359.90 L 5900.76,8304.70 L 5981.19,8318.56 L 5971.78,8373.77 L 5891.35,8359.90 Z" />
    <text x="5936.27" y="8339.23" class="label">陽台</text>
    <path class="room" d="M 5142.02,8175.91 L 5144.53,8161.15 L 5171.35,8165.77 L 5168.83,8180.53 L 5142.02,8175.91 Z" />
    <text x="5156.68" y="8170.84" class="label">飲水</text>
    <path class="room" d="M 5809.69,8522.78 L 5839.00,8350.88 L 5856.87,8353.96 L 5855.34,8362.95 L 5889.81,8368.89 L 5891.35,8359.90 L 5936.67,8367.71 L 5932.84,8390.18 L 6000.51,8401.84 L 5999.86,8405.69 L 6013.90,8408.11 L 5989.08,8553.70 L 5905.45,8539.28 L 5903.05,8553.40 L 5886.45,8550.54 L 5888.85,8536.42 L 5809.69,8522.78 Z" />
    <text x="5911.80" y="8452.29" class="label">乙梯</text>
    <path class="room" d="M 5111.34,8155.43 L 5121.62,8095.09 L 5181.63,8105.43 L 5171.35,8165.77 L 5111.34,8155.43 Z" />
    <text x="5146.48" y="8130.43" class="label">行動不便兼親子廁所</text>
    <path class="room" d="M 5633.44,8639.22 L 5667.61,8438.79 L 5667.99,8438.86 L 5687.73,8323.08 L 5739.77,8332.11 L 5750.35,8347.15 L 5785.38,8353.19 L 5781.49,8375.99 L 5812.13,8381.27 L 5817.93,8347.25 L 5839.00,8350.88 L 5807.18,8537.54 L 5886.34,8551.18 L 5886.45,8550.54 L 5903.05,8553.40 L 5901.73,8561.11 L 5985.36,8575.52 L 5969.25,8670.01 L 5955.21,8667.59 L 5950.72,8693.90 L 5764.31,8661.78 L 5770.11,8627.76 L 5739.47,8622.48 L 5733.67,8656.50 L 5633.44,8639.22 Z" />
    <text x="5809.40" y="8508.49" class="label">台車-北科軌道車輛智慧科技聯合研究中心</text>
  </g>
  <g id="gis_room_B1D_10F">
    <path class="room" d="M 12301.12,2767.79 L 12370.48,2763.80 L 12373.89,2823.70 L 12304.52,2827.69 L 12301.12,2767.79 Z" />
    <text x="12337.50" y="2795.74" class="label">電梯</text>
    <path class="room" d="M 12004.75,2664.96 L 12211.11,2653.09 L 12213.06,2687.23 L 12193.09,2688.38 L 12193.39,2693.73 L 12026.97,2703.30 L 12026.67,2697.95 L 12006.69,2699.09 L 12004.75,2664.96 Z" />
    <text x="12108.90" y="2678.20" class="label">陽台</text>
    <path class="room" d="M 12694.09,2664.95 L 12793.96,2659.20 L 12801.74,2795.88 L 12795.05,2796.26 L 12796.23,2816.88 L 12709.71,2821.85 L 12708.54,2801.24 L 12701.86,2801.62 L 12694.09,2664.95 Z" />
    <text x="12747.91" y="2740.53" class="label">廁所</text>
    <path class="room" d="M 11388.88,2641.59 L 11428.27,2639.32 L 11430.82,2684.12 L 11452.06,2682.90 L 11455.09,2736.18 L 11440.77,2737.00 L 11440.51,2732.32 L 11427.19,2733.08 L 11428.34,2753.16 L 11434.73,2752.79 L 11436.39,2782.05 L 11397.00,2784.31 L 11388.88,2641.59 Z" />
    <text x="11421.99" y="2711.82" class="label">陽台</text>
    <path class="room" d="M 12431.44,2680.05 L 12507.75,2675.66 L 12515.66,2814.88 L 12505.65,2815.45 L 12506.68,2833.53 L 12440.38,2837.34 L 12431.44,2680.05 Z" />
    <text x="12473.55" y="2756.50" class="label">樓梯</text>
    <path class="room" d="M 11856.05,2793.37 L 11928.34,2789.21 L 11931.75,2849.12 L 11859.45,2853.28 L 11856.05,2793.37 Z" />
    <text x="11893.90" y="2821.25" class="label">電梯</text>
    <path class="room" d="M 12520.85,2906.14 L 12554.16,2904.22 L 12559.00,2989.43 L 12525.70,2991.35 L 12520.85,2906.14 Z" />
    <text x="12539.93" y="2947.79" class="label">陽台</text>
    <path class="room" d="M 11852.53,2731.46 L 11924.82,2727.30 L 11928.34,2789.21 L 11856.05,2793.37 L 11852.53,2731.46 Z" />
    <text x="11890.43" y="2760.34" class="label">電梯</text>
    <path class="room" d="M 12297.60,2705.87 L 12366.96,2701.88 L 12370.48,2763.80 L 12301.12,2767.79 L 12297.60,2705.87 Z" />
    <text x="12334.04" y="2734.83" class="label">電梯</text>
    <path class="room" d="M 12254.72,2539.50 L 12288.03,2537.58 L 12292.87,2622.79 L 12259.57,2624.71 L 12254.72,2539.50 Z" />
    <text x="12273.80" y="2581.15" class="label">陽台</text>
    <path class="room" d="M 11915.25,2559.01 L 11948.56,2557.10 L 11953.40,2642.31 L 11920.09,2644.22 L 11915.25,2559.01 Z" />
    <text x="11934.33" y="2600.66" class="label">陽台</text>
    <path class="room" d="M 12769.69,2607.15 L 12790.93,2605.92 L 12788.39,2561.13 L 12827.78,2558.86 L 12835.89,2701.59 L 12796.50,2703.85 L 12793.96,2659.20 L 12772.72,2660.42 L 12769.69,2607.15 Z" />
    <text x="12802.79" y="2631.36" class="label">陽台</text>
    <path class="room" d="M 12116.84,2698.13 L 12193.39,2693.73 L 12193.85,2701.76 L 12210.49,2700.81 L 12218.98,2850.07 L 12125.78,2855.42 L 12116.84,2698.13 Z M 12210.49,2700.81 L 12218.98,2850.07 L 12210.49,2700.81 L 12210.49,2700.81 Z" />
    <text x="12167.91" y="2774.58" class="label">廁所</text>
    <path class="room" d="M 12010.79,2712.29 L 12027.43,2711.33 L 12026.97,2703.30 L 12116.84,2698.13 L 12125.78,2855.42 L 12019.27,2861.55 L 12010.79,2712.29 Z" />
    <path class="room" d="M 12010.79,2712.29 L 12027.43,2711.33 L 12026.97,2703.30 L 12027.43,2711.33 L 12010.79,2712.29 L 12010.79,2712.29 Z" />
    <text x="12068.28" y="2779.84" class="label">廁所</text>
    <path class="room" d="M 11693.24,2953.72 L 11726.54,2951.81 L 11731.39,3037.02 L 11698.08,3038.93 L 11693.24,2953.72 Z" />
    <text x="11712.31" y="2995.37" class="label">陽台</text>
    <path class="room" d="M 11434.73,2752.79 L 11441.65,2752.40 L 11440.77,2737.00 L 11527.05,2732.04 L 11535.00,2871.93 L 11528.35,2872.31 L 11529.33,2889.72 L 11449.45,2894.31 L 11448.46,2876.91 L 11441.81,2877.29 L 11434.73,2752.79 Z" />
    <text x="11484.87" y="2813.17" class="label">廁所</text>
    <path class="room" d="M 11713.44,2721.32 L 11785.99,2717.15 L 11794.94,2874.45 L 11722.38,2878.62 L 11713.44,2721.32 Z" />
    <text x="11754.19" y="2797.89" class="label">樓梯</text>
  </g>
  <g id="gis_room_B2D_10F">
    <path class="room" d="M 14105.51,2398.47 L 14112.17,2398.09 L 14111.67,2389.38 L 14188.89,2384.94 L 14189.46,2394.99 L 14196.12,2394.60 L 14203.46,2523.69 L 14112.93,2528.90 L 14105.51,2398.47 Z" />
    <text x="14154.49" y="2456.92" class="label">寢室</text>
    <path class="room" d="M 13475.74,2581.71 L 13708.90,2568.31 L 13711.15,2607.82 L 13477.99,2621.22 L 13475.74,2581.71 Z M 13643.46,2611.71 L 13643.46,2611.71 L 13663.43,2610.56 L 13643.46,2611.71 Z" />
    <text x="13593.44" y="2594.77" class="label">陽台</text>
    <path class="room" d="M 13253.57,2634.12 L 13326.20,2629.95 L 13335.07,2785.90 L 13268.90,2789.71 L 13267.87,2771.63 L 13261.41,2772.01 L 13253.57,2634.12 Z" />
    <text x="13294.32" y="2709.83" class="label">樓梯</text>
    <path class="room" d="M 13265.56,2844.96 L 13356.29,2839.75 L 13363.60,2968.26 L 13356.55,2968.67 L 13357.12,2978.70 L 13279.90,2983.14 L 13279.33,2973.10 L 13272.87,2973.47 L 13265.56,2844.96 Z" />
    <text x="13314.58" y="2911.45" class="label">寢室</text>
    <path class="room" d="M 13163.24,2639.32 L 13253.57,2634.12 L 13261.41,2772.01 L 13254.56,2772.40 L 13255.14,2782.58 L 13178.18,2787.00 L 13177.61,2776.82 L 13170.88,2777.21 L 13163.24,2639.32 Z" />
    <text x="13212.33" y="2710.56" class="label">寢室</text>
    <path class="room" d="M 13856.48,2810.99 L 13947.02,2805.79 L 13954.46,2934.29 L 13947.67,2934.68 L 13948.24,2944.72 L 13871.02,2949.16 L 13870.45,2939.12 L 13863.79,2939.50 L 13856.48,2810.99 Z" />
    <text x="13905.47" y="2877.47" class="label">寢室</text>
    <path class="room" d="M 14015.06,2405.01 L 14021.71,2404.63 L 14021.14,2394.59 L 14098.36,2390.15 L 14098.85,2398.85 L 14105.51,2398.47 L 14112.93,2528.90 L 14022.40,2534.10 L 14015.06,2405.01 Z" />
    <text x="14063.99" y="2462.12" class="label">寢室</text>
    <path class="room" d="M 13396.31,2704.82 L 13462.68,2701.01 L 13466.08,2760.91 L 13399.71,2764.73 L 13396.31,2704.82 Z" />
    <text x="13431.19" y="2732.87" class="label">電梯</text>
    <path class="room" d="M 13935.03,2594.95 L 14025.56,2589.75 L 14033.40,2727.63 L 14026.74,2728.01 L 14027.32,2738.18 L 13950.10,2742.62 L 13949.53,2732.45 L 13942.87,2732.83 L 13935.03,2594.95 Z" />
    <text x="13984.21" y="2666.18" class="label">寢室</text>
    <path class="room" d="M 13734.47,2685.38 L 13801.04,2681.56 L 13804.44,2741.46 L 13737.88,2745.29 L 13734.47,2685.38 Z" />
    <text x="13769.46" y="2713.42" class="label">電梯</text>
    <path class="room" d="M 14179.09,2525.09 L 14203.46,2523.69 L 14201.19,2483.81 L 14236.26,2481.79 L 14243.91,2616.26 L 14208.84,2618.28 L 14206.62,2579.34 L 14182.25,2580.74 L 14179.09,2525.09 Z" />
    <text x="14211.50" y="2550.03" class="label">曬衣間</text>
    <path class="room" d="M 12941.21,2556.23 L 12976.26,2554.21 L 12978.53,2594.11 L 13002.92,2592.71 L 13006.08,2648.35 L 12981.70,2649.75 L 12983.92,2688.68 L 12948.86,2690.70 L 12941.21,2556.23 Z" />
    <text x="12973.65" y="2622.46" class="label">曬衣間</text>
    <path class="room" d="M 13458.20,2622.36 L 13524.97,2618.52 L 13533.84,2774.48 L 13467.07,2778.32 L 13458.20,2622.36 Z" />
    <text x="13496.02" y="2698.42" class="label">寢室</text>
    <path class="room" d="M 13446.43,2834.57 L 13536.96,2829.36 L 13544.27,2957.87 L 13537.61,2958.25 L 13538.18,2968.29 L 13460.96,2972.74 L 13460.39,2962.69 L 13453.73,2963.08 L 13446.43,2834.57 Z" />
    <text x="13495.35" y="2901.05" class="label">寢室</text>
    <path class="room" d="M 13765.95,2816.20 L 13856.48,2810.99 L 13863.79,2939.50 L 13857.13,2939.89 L 13857.70,2949.93 L 13780.49,2954.37 L 13779.92,2944.33 L 13773.26,2944.71 L 13765.95,2816.20 Z" />
    <text x="13814.87" y="2882.68" class="label">寢室</text>
    <path class="room" d="M 13243.07,2449.39 L 13250.33,2448.97 L 13249.75,2438.93 L 13326.30,2434.53 L 13326.87,2444.57 L 13333.79,2444.17 L 13341.14,2573.26 L 13250.41,2578.48 L 13243.07,2449.39 Z" />
    <text x="13292.10" y="2506.51" class="label">寢室</text>
    <path class="room" d="M 13675.42,2821.40 L 13765.95,2816.20 L 13773.26,2944.71 L 13766.60,2945.09 L 13767.17,2955.13 L 13689.96,2959.57 L 13689.38,2949.53 L 13682.73,2949.91 L 13675.42,2821.40 Z" />
    <text x="13724.34" y="2887.88" class="label">寢室</text>
    <path class="room" d="M 13356.29,2839.75 L 13446.43,2834.57 L 13453.73,2963.08 L 13447.08,2963.46 L 13447.65,2973.50 L 13370.43,2977.94 L 13369.86,2967.90 L 13363.60,2968.26 L 13356.29,2839.75 Z" />
    <text x="13405.01" y="2906.25" class="label">寢室</text>
    <path class="room" d="M 13833.99,2415.42 L 13840.65,2415.03 L 13840.08,2405.00 L 13917.30,2400.56 L 13917.87,2410.60 L 13924.53,2410.22 L 13931.86,2539.30 L 13841.33,2544.51 L 13833.99,2415.42 Z M 13917.87,2410.60 L 13917.87,2410.60 L 13924.53,2410.22 L 13924.53,2410.22 L 13917.87,2410.60 Z" />
    <text x="13882.93" y="2472.53" class="label">寢室</text>
    <path class="room" d="M 13152.74,2454.58 L 13159.79,2454.18 L 13159.22,2444.14 L 13235.24,2439.77 L 13235.81,2449.81 L 13243.07,2449.39 L 13250.41,2578.48 L 13160.08,2583.67 L 13152.74,2454.58 Z" />
    <text x="13201.57" y="2511.72" class="label">寢室</text>
    <path class="room" d="M 13930.61,2399.79 L 14007.83,2395.35 L 14008.40,2405.39 L 14015.06,2405.01 L 14022.40,2534.10 L 13931.86,2539.30 L 13924.53,2410.22 L 13931.18,2409.83 L 13930.61,2399.79 Z" />
    <text x="13973.46" y="2467.33" class="label">寢室</text>
    <path class="room" d="M 14025.56,2589.75 L 14116.09,2584.54 L 14123.93,2722.42 L 14117.27,2722.81 L 14117.85,2732.98 L 14040.63,2737.42 L 14040.06,2727.24 L 14033.40,2727.63 L 14025.56,2589.75 Z" />
    <text x="14074.75" y="2660.98" class="label">寢室</text>
    <path class="room" d="M 13536.96,2829.36 L 13675.42,2821.40 L 13682.73,2949.91 L 13676.07,2950.30 L 13676.64,2960.34 L 13551.49,2967.53 L 13550.92,2957.49 L 13544.27,2957.87 L 13536.96,2829.36 Z" />
    <text x="13609.84" y="2894.47" class="label">休憩區</text>
    <path class="room" d="M 13392.79,2642.91 L 13459.16,2639.09 L 13462.68,2701.01 L 13396.31,2704.82 L 13392.79,2642.91 Z" />
    <text x="13427.73" y="2671.96" class="label">電梯</text>
    <path class="room" d="M 13730.95,2623.47 L 13797.52,2619.64 L 13801.04,2681.56 L 13734.47,2685.38 L 13730.95,2623.47 Z" />
    <text x="13766.00" y="2652.51" class="label">電梯</text>
    <path class="room" d="M 14116.09,2584.54 L 14197.36,2579.87 L 14198.29,2595.80 L 14207.53,2595.27 L 14214.46,2717.22 L 14207.81,2717.60 L 14208.39,2727.78 L 14131.17,2732.21 L 14130.59,2722.04 L 14123.93,2722.42 L 14116.09,2584.54 Z" />
    <text x="14165.28" y="2656.04" class="label">廁所</text>
    <path class="room" d="M 13663.43,2610.56 L 13730.00,2606.73 L 13738.87,2762.69 L 13672.30,2766.52 L 13663.43,2610.56 Z M 13671.47,2751.98 L 13672.30,2766.52 L 13671.47,2751.98 L 13671.47,2751.98 Z" />
    <text x="13701.15" y="2686.63" class="label">寢室</text>
    <path class="room" d="M 13862.07,2599.14 L 13935.03,2594.95 L 13942.87,2732.83 L 13936.21,2733.21 L 13937.24,2751.29 L 13870.94,2755.10 L 13862.07,2599.14 Z" />
    <text x="13902.47" y="2675.02" class="label">樓梯</text>
    <path class="room" d="M 12982.62,2665.69 L 12991.87,2665.15 L 12990.96,2649.22 L 13072.44,2644.54 L 13080.23,2782.56 L 13073.23,2782.96 L 13073.80,2792.99 L 12997.12,2797.40 L 12996.53,2787.10 L 12989.53,2787.50 L 12982.62,2665.69 Z" />
    <path class="room" d="M 12983.61,2683.11 L 12983.92,2688.68 L 12983.92,2688.68 L 12983.61,2683.11 Z" />
    <text x="13031.42" y="2720.97" class="label">廁所</text>
    <path class="room" d="M 13072.44,2644.54 L 13163.24,2639.32 L 13170.88,2777.21 L 13163.89,2777.61 L 13164.47,2787.78 L 13087.79,2792.18 L 13087.21,2782.16 L 13080.23,2782.56 L 13072.44,2644.54 Z M 13163.24,2639.32 L 13170.88,2777.21 L 13170.88,2777.21 L 13163.24,2639.32 Z M 13163.89,2777.61 L 13164.47,2787.78 L 13164.47,2787.78 L 13163.89,2777.61 L 13163.89,2777.61 Z" />
    <text x="13121.66" y="2715.75" class="label">寢室</text>
    <path class="room" d="M 13524.97,2618.52 L 13663.43,2610.56 L 13672.30,2766.52 L 13533.84,2774.48 L 13524.97,2618.52 Z M 13643.46,2611.71 L 13644.22,2625.10 L 13664.19,2623.95 L 13663.43,2610.56 L 13643.46,2611.71 Z M 13653.35,2753.00 L 13654.18,2767.54 L 13672.30,2766.52 L 13671.47,2751.98 L 13653.35,2753.00 Z" />
    <path class="room" d="M 13524.97,2618.52 L 13544.94,2617.38 L 13545.70,2630.76 L 13525.73,2631.91 L 13524.97,2618.52 Z" />
    <path class="room" d="M 13533.01,2759.92 L 13551.13,2758.90 L 13551.96,2773.44 L 13533.84,2774.48 L 13533.01,2759.92 Z" />
    <text x="13598.63" y="2692.52" class="label">廁所</text>
    <path class="room" d="M 13061.94,2459.80 L 13068.99,2459.40 L 13068.42,2449.36 L 13145.11,2444.95 L 13145.68,2454.99 L 13152.74,2454.58 L 13160.08,2583.67 L 13069.28,2588.89 L 13061.94,2459.80 Z" />
    <text x="13111.01" y="2516.92" class="label">寢室</text>
    <path class="room" d="M 12971.19,2465.02 L 12978.46,2464.60 L 12977.89,2454.56 L 13054.31,2450.17 L 13054.88,2460.21 L 13061.94,2459.80 L 13069.28,2588.89 L 12978.53,2594.11 L 12971.19,2465.02 Z" />
    <path class="room" d="M 12978.53,2594.11 L 13002.92,2592.71 L 13002.92,2592.71 L 12978.53,2594.11 Z" />
    <text x="13020.24" y="2522.14" class="label">寢室</text>
  </g>
  <g id="gis_room_EL_10F">
    <path class="room" d="M 14104.28,6622.90 L 14104.48,6572.10 L 14179.29,6572.40 L 14179.09,6623.20 L 14104.28,6622.90 Z" />
    <text x="14141.78" y="6597.65" class="label">陽台</text>
    <path class="room" d="M 14328.71,6623.79 L 14328.91,6573.00 L 14403.72,6573.30 L 14403.52,6624.10 L 14328.71,6623.79 Z" />
    <text x="14366.21" y="6598.55" class="label">陽台/緊急進口</text>
    <path class="room" d="M 14179.09,6623.20 L 14179.29,6572.40 L 14254.10,6572.70 L 14253.96,6607.87 L 14249.10,6607.85 L 14249.04,6623.48 L 14179.09,6623.20 Z" />
    <text x="14216.60" y="6597.94" class="label">陽台</text>
    <path class="room" d="M 14403.52,6624.10 L 14403.72,6573.30 L 14480.08,6573.47 L 14479.94,6608.77 L 14470.62,6608.73 L 14470.56,6624.36 L 14403.52,6624.10 Z" />
    <text x="14441.80" y="6598.83" class="label">陽台</text>
    <path class="room" d="M 14028.80,6792.97 L 14029.41,6638.23 L 14050.78,6638.31 L 14050.84,6622.68 L 14104.28,6622.90 L 14103.61,6793.27 L 14028.80,6792.97 Z" />
    <text x="14066.54" y="6707.98" class="label">教師研究室</text>
    <path class="room" d="M 14477.95,6720.13 L 14478.27,6640.02 L 14493.81,6640.09 L 14493.93,6610.78 L 14680.47,6611.53 L 14680.35,6640.83 L 14709.50,6640.95 L 14709.32,6685.49 L 14681.73,6685.38 L 14681.59,6720.94 L 14477.95,6720.13 Z" />
    <text x="14593.72" y="6665.86" class="label">乙樓梯間</text>
    <path class="room" d="M 13616.42,7329.52 L 13616.65,7269.48 L 13686.60,7269.76 L 13686.37,7329.80 L 13616.42,7329.52 Z" />
    <text x="13651.51" y="7299.64" class="label">無障礙廁所</text>
    <path class="room" d="M 14924.80,7229.51 L 14925.05,7165.43 L 14926.99,7165.44 L 14927.10,7151.76 L 14979.56,7151.97 L 14978.48,7413.77 L 14926.01,7413.56 L 14926.12,7386.21 L 14943.61,7386.28 L 14944.23,7229.59 L 14924.80,7229.51 Z" />
    <text x="14952.18" y="7282.77" class="label">陽台</text>
    <path class="room" d="M 14825.77,6721.52 L 14826.14,6625.79 L 14901.92,6626.09 L 14901.86,6641.72 L 14919.35,6641.79 L 14919.03,6721.89 L 14825.77,6721.52 Z" />
    <text x="14872.56" y="6673.84" class="label">緊急升降機</text>
    <path class="room" d="M 13536.61,6938.45 L 13536.81,6886.35 L 13548.47,6886.39 L 13548.54,6870.76 L 13616.54,6871.03 L 13616.25,6944.63 L 13541.77,6944.33 L 13541.79,6938.47 L 13536.61,6938.45 Z" />
    <text x="13576.57" y="6907.69" class="label">無障礙電梯</text>
    <path class="room" d="M 14103.61,6793.27 L 14104.28,6622.90 L 14179.09,6623.20 L 14178.42,6793.56 L 14103.61,6793.27 Z" />
    <text x="14141.35" y="6708.23" class="label">陳殿榮老師研究室</text>
    <path class="room" d="M 13690.09,6944.92 L 13690.38,6871.33 L 13758.39,6871.60 L 13758.33,6887.23 L 13769.99,6887.28 L 13769.78,6939.38 L 13764.60,6939.36 L 13764.58,6945.22 L 13690.09,6944.92 Z" />
    <text x="13730.04" y="6908.27" class="label">無障礙電梯</text>
    <path class="room" d="M 14402.84,6794.46 L 14403.52,6624.10 L 14470.56,6624.36 L 14470.49,6639.99 L 14478.27,6640.02 L 14477.65,6794.76 L 14402.84,6794.46 Z" />
    <text x="14440.56" y="6709.43" class="label">任貽均老師研究室</text>
    <path class="room" d="M 14258.09,7282.59 L 14280.37,7282.68 L 14280.59,7226.93 L 14475.94,7227.72 L 14475.33,7382.45 L 14467.54,7382.42 L 14467.46,7411.73 L 14453.32,7411.67 L 14453.24,7431.21 L 14279.40,7430.51 L 14279.48,7410.98 L 14269.24,7410.94 L 14269.36,7381.63 L 14257.70,7381.58 L 14258.09,7282.59 Z" />
    <path class="room" d="M 14467.44,7411.73 L 14467.50,7397.08 L 14467.46,7411.73 L 14467.44,7411.73 Z" />
    <text x="14366.82" y="7329.07" class="label">顯示與雷射應用實驗室</text>
    <path class="room" d="M 14715.17,7399.04 L 14715.85,7228.67 L 14944.23,7229.59 L 14943.61,7386.28 L 14926.12,7386.21 L 14926.13,7384.26 L 14898.92,7384.15 L 14898.86,7399.78 L 14715.17,7399.04 Z" />
    <text x="14829.70" y="7314.23" class="label">光電材料與元件實驗室</text>
    <path class="room" d="M 14773.88,6967.49 L 14774.30,6861.60 L 14900.99,6862.10 L 14900.87,6891.80 L 14912.53,6891.85 L 14912.33,6943.95 L 14907.14,6943.93 L 14907.05,6968.02 L 14773.88,6967.49 Z" />
    <text x="14843.21" y="6914.81" class="label">液態晶體研究室(I)</text>
    <path class="room" d="M 14328.03,6794.16 L 14328.71,6623.79 L 14403.52,6624.10 L 14402.84,6794.46 L 14328.03,6794.16 Z" />
    <text x="14365.78" y="6709.13" class="label">洪魏寬老師研究室</text>
    <path class="room" d="M 13616.25,6944.63 L 13616.54,6871.03 L 13690.38,6871.33 L 13690.09,6944.92 L 13616.25,6944.63 Z" />
    <text x="13653.32" y="6907.98" class="label">無障礙電梯</text>
    <path class="room" d="M 14773.11,7163.26 L 14773.53,7057.36 L 14906.69,7057.89 L 14906.60,7081.99 L 14911.78,7082.01 L 14911.57,7134.11 L 14899.92,7134.07 L 14899.80,7163.76 L 14773.11,7163.26 Z" />
    <text x="14842.44" y="7110.56" class="label">光電訊號處理實驗室(II)</text>
    <path class="room" d="M 14254.10,6572.70 L 14328.91,6573.00 L 14328.71,6623.79 L 14272.36,6623.57 L 14272.42,6607.94 L 14253.96,6607.87 L 14254.10,6572.70 Z" />
    <text x="14291.44" y="6598.25" class="label">陽台</text>
    <path class="room" d="M 14367.98,7010.80 L 14368.27,6937.86 L 14407.39,6938.02 L 14407.65,6874.20 L 14469.57,6874.44 L 14469.63,6858.81 L 14492.94,6858.91 L 14492.88,6874.54 L 14679.42,6875.28 L 14679.05,6969.07 L 14688.25,6969.10 L 14688.07,7012.47 L 14603.23,7012.14 L 14603.23,7011.74 L 14367.98,7010.80 Z M 14469.50,6890.07 L 14492.82,6890.17 L 14492.94,6858.91 L 14469.63,6858.81 L 14469.50,6890.07 Z" />
    <text x="14528.11" y="6935.64" class="label">光學薄膜實驗室(I)</text>
    <path class="room" d="M 13521.27,7378.64 L 13521.70,7269.10 L 13616.65,7269.47 L 13616.36,7343.07 L 13651.60,7343.21 L 13651.33,7410.42 L 13617.65,7410.29 L 13617.73,7389.45 L 13589.23,7389.33 L 13589.21,7394.54 L 13546.46,7394.37 L 13546.53,7378.74 L 13521.27,7378.64 Z" />
    <text x="13586.43" y="7339.76" class="label">女廁</text>
    <path class="room" d="M 13533.38,7426.88 L 13533.45,7409.95 L 13769.21,7410.89 L 13769.15,7427.82 L 13533.38,7426.88 Z" />
    <text x="13651.30" y="7418.89" class="label">花台</text>
    <path class="room" d="M 13473.46,6856.78 L 13474.34,6634.06 L 13522.30,6634.25 L 13522.26,6636.20 L 13524.20,6636.21 L 13523.34,6855.03 L 13521.39,6855.02 L 13521.38,6856.98 L 13473.46,6856.78 Z M 13522.26,6636.20 L 13522.26,6636.20 L 13522.30,6634.25 L 13522.26,6634.25 L 13522.26,6636.20 Z" />
    <text x="13498.83" y="6745.52" class="label">陽台/緊急進口</text>
    <path class="room" d="M 13651.33,7410.42 L 13651.60,7343.21 L 13655.22,7343.22 L 13655.28,7329.68 L 13686.37,7329.80 L 13686.60,7269.76 L 13782.07,7270.14 L 13781.64,7379.68 L 13756.38,7379.58 L 13756.32,7395.21 L 13713.57,7395.04 L 13713.59,7389.83 L 13685.09,7389.71 L 13685.01,7410.55 L 13651.33,7410.42 Z" />
    <text x="13716.70" y="7340.16" class="label">男廁</text>
    <path class="room" d="M 14178.42,6793.56 L 14179.09,6623.20 L 14249.04,6623.48 L 14248.98,6639.11 L 14253.84,6639.13 L 14253.22,6793.87 L 14178.42,6793.56 Z" />
    <text x="14216.13" y="6708.53" class="label">瓦蘇德萬研究教師室</text>
    <path class="room" d="M 14253.22,6793.87 L 14253.84,6639.13 L 14272.30,6639.20 L 14272.36,6623.57 L 14328.71,6623.79 L 14328.03,6794.16 L 14253.22,6793.87 Z" />
    <text x="14290.97" y="6708.87" class="label">陳堯輝老師研究室</text>
    <path class="room" d="M 13523.34,6855.03 L 13524.20,6636.21 L 13549.46,6636.31 L 13549.52,6620.68 L 13759.38,6621.52 L 13759.32,6637.15 L 13784.58,6637.25 L 13783.71,6856.07 L 13758.45,6855.97 L 13758.39,6871.60 L 13727.04,6871.48 L 13727.18,6836.05 L 13578.99,6835.46 L 13578.99,6870.88 L 13548.54,6870.76 L 13548.60,6855.13 L 13523.34,6855.03 Z" />
    <text x="13653.96" y="6746.14" class="label">光電專業課程教學實驗室(II)</text>
    <path class="room" d="M 14027.08,7225.92 L 14236.03,7226.76 L 14235.81,7282.50 L 14258.09,7282.59 L 14257.70,7381.58 L 14246.04,7381.54 L 14245.93,7410.84 L 14235.69,7410.80 L 14235.62,7430.34 L 14061.77,7429.64 L 14061.85,7410.11 L 14047.73,7410.05 L 14047.85,7380.74 L 14026.47,7380.66 L 14027.08,7225.92 Z" />
    <text x="14142.28" y="7328.13" class="label">光通訊與綠能光電元件實驗室</text>
    <path class="room" d="M 14027.94,7009.44 L 14028.42,6888.31 L 14049.79,6888.40 L 14049.85,6872.77 L 14248.05,6873.56 L 14247.99,6889.19 L 14271.31,6889.28 L 14271.37,6873.65 L 14329.40,6873.88 L 14329.15,6937.71 L 14368.27,6937.86 L 14367.98,7010.80 L 14027.94,7009.44 Z" />
    <text x="14198.11" y="6941.78" class="label">液態晶體實驗室(II)</text>
    <path class="room" d="M 14367.98,7010.80 L 14603.23,7011.74 L 14603.23,7012.14 L 14605.17,7012.14 L 14604.63,7148.52 L 14491.80,7148.06 L 14491.86,7132.43 L 14468.55,7132.34 L 14468.48,7147.97 L 14406.56,7147.72 L 14406.82,7083.90 L 14367.69,7083.74 L 14367.98,7010.80 Z" />
    <text x="14486.43" y="7079.66" class="label">光學薄膜實驗室(II)</text>
    <path class="room" d="M 13535.86,7128.61 L 13536.06,7076.51 L 13541.24,7076.53 L 13541.34,7052.44 L 13764.15,7053.33 L 13764.05,7077.42 L 13769.23,7077.44 L 13769.03,7129.54 L 13757.37,7129.50 L 13757.26,7158.80 L 13709.97,7158.61 L 13710.02,7145.59 L 13547.45,7144.94 L 13547.51,7128.66 L 13535.86,7128.61 Z" />
    <text x="13652.55" y="7105.62" class="label">甲樓梯間</text>
    <path class="room" d="M 14041.58,6607.02 L 14041.72,6571.85 L 14104.48,6572.10 L 14104.28,6622.90 L 14050.84,6622.68 L 14050.91,6607.05 L 14041.58,6607.02 Z" />
    <text x="14073.03" y="6597.37" class="label">陽台</text>
    <path class="room" d="M 14027.94,7009.44 L 14367.98,7010.80 L 14367.69,7083.74 L 14328.57,7083.59 L 14328.32,7147.41 L 14270.29,7147.18 L 14270.35,7131.55 L 14247.03,7131.45 L 14246.97,7147.09 L 14048.77,7146.29 L 14048.84,7130.66 L 14027.46,7130.58 L 14027.94,7009.44 Z" />
    <text x="14197.72" y="7078.43" class="label">液態晶體實驗室(I)</text>
    <path class="room" d="M 14475.94,7227.72 L 14671.29,7228.50 L 14670.56,7412.54 L 14670.95,7412.54 L 14670.87,7432.08 L 14497.03,7431.38 L 14497.11,7411.85 L 14490.76,7411.82 L 14490.87,7382.52 L 14475.33,7382.45 L 14475.94,7227.72 Z" />
    <text x="14573.31" y="7329.90" class="label">光電物理實驗室</text>
    <path class="room" d="M 13521.14,7409.90 L 13533.45,7409.95 L 13533.38,7426.88 L 13769.15,7427.82 L 13769.21,7410.89 L 13783.46,7410.95 L 13783.52,7396.62 L 14024.46,7397.58 L 14024.41,7411.91 L 14047.72,7412.00 L 14047.73,7410.05 L 14061.85,7410.11 L 14061.77,7429.64 L 14235.62,7430.34 L 14235.69,7410.80 L 14245.95,7410.88 L 14245.90,7412.84 L 14269.24,7412.89 L 14269.24,7410.94 L 14279.48,7410.98 L 14279.40,7430.51 L 14453.24,7431.21 L 14453.32,7411.67 L 14467.44,7411.73 L 14467.43,7413.68 L 14490.75,7413.78 L 14490.76,7411.82 L 14497.11,7411.85 L 14497.03,7431.38 L 14670.87,7432.08 L 14670.95,7412.54 L 14677.30,7412.57 L 14677.29,7414.52 L 14706.56,7414.64 L 14706.36,7465.44 L 14025.50,7462.71 L 14025.56,7445.78 L 13783.33,7444.81 L 13783.33,7444.16 L 13521.01,7443.11 L 13521.14,7409.90 Z M 14245.93,7410.88 L 14245.92,7411.86 L 14245.95,7410.88 L 14245.93,7410.88 Z M 14279.40,7430.51 L 14453.24,7431.21 L 14453.32,7411.67 L 14467.44,7411.73 L 14467.44,7411.73 L 14453.32,7411.67 L 14453.24,7431.21 L 14279.40,7430.51 L 14279.40,7430.51 Z" />
    <text x="14113.79" y="7431.03" class="label">陽台</text>
  </g>
  <g id="gis_room_HR_10F">
    <path class="room" d="M 2467.22,1768.92 L 2467.89,1598.94 L 2547.55,1599.26 L 2546.78,1795.29 L 2469.06,1794.98 L 2469.16,1768.93 L 2467.22,1768.92 Z" />
    <text x="2507.39" y="1697.11" class="label">吳斯偉老師研究室</text>
    <path class="room" d="M 2910.53,1534.27 L 2911.34,1327.82 L 2924.30,1327.87 L 2989.07,1328.12 L 2988.97,1354.17 L 3001.92,1354.23 L 3001.31,1510.53 L 2988.35,1510.48 L 2988.26,1534.57 L 2910.53,1534.27 Z" />
    <text x="2956.23" y="1431.19" class="label">陳協慶老師研究室</text>
    <path class="room" d="M 2547.81,1532.83 L 2548.62,1326.38 L 2626.35,1326.69 L 2626.25,1352.74 L 2639.20,1352.79 L 2638.59,1509.09 L 2625.63,1509.04 L 2625.54,1533.14 L 2547.81,1532.83 Z" />
    <text x="2593.51" y="1429.76" class="label">梁曉帆老師研究室</text>
    <path class="room" d="M 2446.22,1508.33 L 2446.83,1352.02 L 2470.80,1352.12 L 2470.90,1326.07 L 2548.62,1326.38 L 2547.81,1532.83 L 2470.09,1532.52 L 2470.18,1508.42 L 2446.22,1508.33 Z" />
    <text x="2497.42" y="1429.45" class="label">陳柏瑄老師研究室</text>
    <path class="room" d="M 3000.29,1771.03 L 3000.95,1601.05 L 3086.13,1601.39 L 3085.36,1797.42 L 3013.14,1797.14 L 3013.24,1771.09 L 3000.29,1771.03 Z" />
    <text x="3043.21" y="1699.24" class="label">范書愷老師研究室</text>
    <path class="room" d="M 2626.56,1769.55 L 2627.22,1599.57 L 2723.41,1599.95 L 2722.64,1795.98 L 2650.42,1795.70 L 2650.52,1769.65 L 2626.56,1769.55 Z" />
    <text x="2674.98" y="1697.78" class="label">趙莊敏老師研究室</text>
    <path class="room" d="M 2638.59,1509.09 L 2639.20,1352.79 L 2652.16,1352.84 L 2652.26,1326.79 L 2729.98,1327.10 L 2729.17,1533.55 L 2651.45,1533.24 L 2651.54,1509.14 L 2638.59,1509.09 Z" />
    <text x="2684.29" y="1430.17" class="label">陳育威老師研究室</text>
    <path class="room" d="M 3091.89,1534.98 L 3092.70,1328.53 L 3170.43,1328.84 L 3170.32,1354.89 L 3183.16,1354.94 L 3182.54,1511.25 L 3169.71,1511.20 L 3169.62,1535.29 L 3091.89,1534.98 Z" />
    <text x="3137.53" y="1431.91" class="label">吳忠敏老師研究室</text>
    <path class="room" d="M 3247.50,1331.11 L 3247.63,1297.24 L 3290.05,1297.41 L 3289.92,1331.28 L 3247.50,1331.11 Z" />
    <text x="3268.78" y="1314.26" class="label">電力</text>
    <path class="room" d="M 2290.83,1656.21 L 2291.07,1596.29 L 2315.03,1596.38 L 2315.03,1598.33 L 2379.80,1598.59 L 2379.57,1656.57 L 2290.83,1656.21 Z" />
    <text x="2335.31" y="1626.43" class="label">電梯</text>
    <path class="room" d="M 2393.73,1349.86 L 2394.15,1241.62 L 2469.23,1152.38 L 2510.13,1187.17 L 2517.19,1179.01 L 2560.07,1215.48 L 2559.66,1318.93 L 2548.65,1318.89 L 2548.62,1326.38 L 2444.99,1325.97 L 2444.90,1350.06 L 2393.73,1349.86 Z" />
    <text x="2476.90" y="1251.22" class="label">露台/陽台</text>
    <path class="room" d="M 2291.41,1507.71 L 2292.03,1351.41 L 2317.94,1351.51 L 2318.03,1327.42 L 2393.81,1327.72 L 2393.16,1495.74 L 2358.18,1495.60 L 2358.03,1532.08 L 2317.23,1531.91 L 2317.32,1507.82 L 2291.41,1507.71 Z" />
    <text x="2342.61" y="1429.75" class="label">特別安全梯</text>
    <path class="room" d="M 3246.84,1498.96 L 3247.50,1331.11 L 3323.28,1331.41 L 3323.19,1355.50 L 3349.09,1355.60 L 3348.48,1511.91 L 3322.57,1511.80 L 3322.48,1535.90 L 3281.67,1535.74 L 3281.81,1499.09 L 3246.84,1498.96 Z" />
    <text x="3297.97" y="1433.51" class="label">特別安全梯</text>
    <path class="room" d="M 3241.80,1798.04 L 3242.15,1708.17 L 3266.74,1708.27 L 3266.91,1664.63 L 3345.94,1664.95 L 3345.51,1772.40 L 3321.55,1772.31 L 3321.45,1798.36 L 3241.80,1798.04 Z" />
    <text x="3293.87" y="1731.50" class="label">男廁</text>
    <path class="room" d="M 3170.63,1771.71 L 3170.88,1707.89 L 3242.15,1708.17 L 3241.80,1798.04 L 3194.50,1797.86 L 3194.60,1771.81 L 3170.63,1771.71 Z" />
    <text x="3206.39" y="1752.97" class="label">無障礙廁所</text>
    <path class="room" d="M 3092.70,1328.53 L 3092.73,1321.05 L 3081.72,1321.00 L 3082.13,1217.55 L 3125.29,1181.42 L 3129.78,1186.65 L 3170.98,1152.17 L 3181.92,1165.38 L 3247.84,1245.01 L 3247.41,1353.25 L 3196.24,1353.04 L 3196.34,1328.95 L 3092.70,1328.53 Z" />
    <text x="3164.78" y="1252.71" class="label">露台/陽台</text>
    <path class="room" d="M 3085.36,1797.42 L 3086.13,1601.39 L 3171.30,1601.73 L 3170.63,1771.71 L 3168.69,1771.70 L 3168.59,1797.75 L 3085.36,1797.42 Z" />
    <text x="3128.33" y="1699.57" class="label">車振華老師研究室</text>
    <path class="room" d="M 2546.78,1795.29 L 2547.55,1599.26 L 2627.22,1599.57 L 2626.56,1769.55 L 2624.61,1769.55 L 2624.51,1795.59 L 2546.78,1795.29 Z" />
    <text x="2587.00" y="1697.43" class="label">高淩菁老師研究室</text>
    <path class="room" d="M 2290.61,1712.22 L 2290.83,1656.21 L 2379.57,1656.57 L 2379.35,1712.57 L 2290.61,1712.22 Z" />
    <text x="2335.09" y="1684.39" class="label">電梯</text>
    <path class="room" d="M 2904.00,1796.70 L 2904.77,1600.67 L 3000.95,1601.05 L 3000.29,1771.03 L 2987.33,1770.98 L 2987.23,1797.03 L 2904.00,1796.70 Z" />
    <text x="2952.47" y="1698.85" class="label">黃瀅瑛老師研究室</text>
    <path class="room" d="M 2722.64,1795.98 L 2723.41,1599.95 L 2819.59,1600.33 L 2818.93,1770.32 L 2805.97,1770.26 L 2805.87,1796.32 L 2722.64,1795.98 Z M 2818.93,1770.32 L 2818.93,1770.32 L 2819.59,1600.33 L 2818.93,1770.32 Z" />
    <text x="2771.12" y="1698.13" class="label">林志平老師研究室</text>
    <path class="room" d="M 3001.31,1510.53 L 3001.92,1354.23 L 3014.87,1354.28 L 3014.98,1328.23 L 3092.70,1328.53 L 3091.89,1534.98 L 3014.17,1534.68 L 3014.26,1510.58 L 3001.31,1510.53 Z" />
    <text x="3047.00" y="1431.61" class="label">陳建丞老師研究室</text>
    <path class="room" d="M 2820.56,1353.51 L 2833.52,1353.56 L 2833.62,1327.51 L 2911.34,1327.82 L 2910.53,1534.27 L 2832.81,1533.96 L 2832.90,1509.86 L 2819.95,1509.81 L 2820.56,1353.51 Z" />
    <text x="2865.64" y="1430.89" class="label">耿慶瑞老師研究室</text>
    <path class="room" d="M 3289.92,1331.28 L 3290.05,1297.41 L 3349.32,1297.64 L 3349.20,1329.55 L 3323.29,1329.45 L 3323.28,1331.41 L 3289.92,1331.28 Z" />
    <text x="3319.62" y="1314.41" class="label">撒水</text>
    <path class="room" d="M 2729.17,1533.55 L 2729.98,1327.10 L 2742.94,1327.15 L 2807.71,1327.40 L 2807.61,1353.46 L 2820.56,1353.51 L 2819.95,1509.81 L 2806.99,1509.76 L 2806.90,1533.86 L 2729.17,1533.55 Z" />
    <text x="2774.87" y="1430.48" class="label">蔡佩芳老師研究室</text>
    <path class="room" d="M 2436.41,990.67 L 2480.86,956.65 L 2528.27,926.96 L 2578.23,901.84 L 2630.31,881.52 L 2684.04,866.18 L 2738.97,855.96 L 2794.60,850.93 L 2850.46,851.16 L 2906.05,856.62 L 2960.90,867.28 L 3014.51,883.04 L 3066.43,903.77 L 3116.19,929.29 L 3163.37,959.36 L 3207.54,993.73 L 3128.38,1087.84 L 3093.24,1060.46 L 3055.72,1036.50 L 3016.13,1016.18 L 2974.82,999.66 L 2932.16,987.10 L 2888.52,978.61 L 2844.27,974.25 L 2799.82,974.08 L 2755.55,978.08 L 2711.84,986.23 L 2669.08,998.45 L 2627.65,1014.63 L 2587.90,1034.65 L 2550.19,1058.31 L 2514.84,1085.41 L 2436.41,990.67 Z" />
    <text x="2821.98" y="969.39" class="label">屋頂花園</text>
    <path class="room" d="M 2290.39,1768.22 L 2290.61,1712.22 L 2379.35,1712.57 L 2379.12,1770.54 L 2395.96,1770.60 L 2395.87,1794.69 L 2316.20,1794.37 L 2316.30,1768.32 L 2290.39,1768.22 Z" />
    <text x="2343.18" y="1753.45" class="label">電梯</text>
    <path class="room" d="M 2818.93,1770.32 L 2819.59,1600.33 L 2904.77,1600.67 L 2904.00,1796.70 L 2831.78,1796.42 L 2831.88,1770.37 L 2818.93,1770.32 Z" />
    <text x="2861.85" y="1698.52" class="label">邱志洲老師研究室</text>
    <path class="room" d="M 3259.14,1664.60 L 3259.39,1602.08 L 3332.45,1602.37 L 3332.36,1624.51 L 3348.04,1624.58 L 3347.88,1664.95 L 3259.14,1664.60 Z" />
    <text x="3303.59" y="1633.52" class="label">電梯</text>
  </g>
  <g id="gis_room_LY_10F">
    <path class="room" d="M -23877.98,-3098.22 L -23863.92,-3152.41 L -23855.77,-3150.28 L -23850.21,-3171.70 L -23858.36,-3173.84 L -23844.29,-3228.03 L -23836.15,-3225.89 L -23835.00,-3230.31 L -23771.08,-3213.53 L -23771.41,-3212.27 L -23746.34,-3205.69 L -23745.36,-3209.47 L -23657.60,-3186.45 L -23657.93,-3185.19 L -23636.62,-3179.60 L -23671.46,-3045.37 L -23801.82,-3079.58 L -23803.46,-3073.28 L -23871.15,-3091.04 L -23869.84,-3096.08 L -23877.98,-3098.22 Z" />
    <text x="-23757.30" y="-3137.84" class="label">空間5</text>
    <path class="room" d="M -23896.16,-3056.54 L -23890.44,-3078.60 L -23875.40,-3074.65 L -23871.15,-3091.04 L -23803.46,-3073.28 L -23813.44,-3034.84 L -23896.16,-3056.54 Z" />
    <text x="-23849.81" y="-3062.94" class="label">陽台</text>
    <path class="room" d="M -23838.73,-3249.46 L -23824.66,-3303.65 L -23816.52,-3301.52 L -23810.96,-3322.94 L -23819.10,-3325.08 L -23812.07,-3352.18 L -23605.87,-3298.07 L -23630.74,-3202.28 L -23652.05,-3207.88 L -23657.60,-3186.45 L -23745.36,-3209.47 L -23742.41,-3220.82 L -23767.48,-3227.40 L -23771.08,-3213.53 L -23835.00,-3230.31 L -23830.58,-3247.32 L -23838.73,-3249.46 Z" />
    <text x="-23722.30" y="-3269.31" class="label">空間4</text>
    <path class="room" d="M -23812.07,-3352.18 L -23805.04,-3379.28 L -23796.89,-3377.14 L -23791.33,-3398.56 L -23799.48,-3400.70 L -23786.23,-3451.75 L -23775.57,-3448.95 L -23771.16,-3465.96 L -23725.40,-3453.96 L -23726.06,-3451.44 L -23597.58,-3417.72 L -23600.69,-3405.75 L -23579.38,-3400.16 L -23605.87,-3298.07 L -23812.07,-3352.18 Z" />
    <text x="-23695.72" y="-3382.02" class="label">空間3</text>
    <path class="room" d="M -23520.50,-3335.57 L -23504.47,-3397.33 L -23449.32,-3382.86 L -23465.34,-3321.10 L -23520.50,-3335.57 Z" />
    <text x="-23484.91" y="-3359.21" class="label">電梯</text>
    <path class="room" d="M -23726.06,-3451.44 L -23702.31,-3542.94 L -23553.15,-3503.80 L -23572.81,-3428.05 L -23593.49,-3433.48 L -23597.58,-3417.72 L -23726.06,-3451.44 Z" />
    <text x="-23639.60" y="-3480.33" class="label">樓梯</text>
    <path class="room" d="M -23465.34,-3321.10 L -23449.32,-3382.86 L -23396.04,-3368.88 L -23398.82,-3358.16 L -23396.94,-3357.67 L -23406.76,-3319.86 L -23408.64,-3320.35 L -23412.07,-3307.12 L -23465.34,-3321.10 Z" />
    <text x="-23430.69" y="-3344.99" class="label">電梯</text>
    <path class="room" d="M -23496.15,-2936.77 L -23447.41,-3124.56 L -23436.12,-3121.60 L -23427.62,-3154.37 L -23438.90,-3157.33 L -23401.28,-3302.27 L -23390.00,-3299.31 L -23389.51,-3301.20 L -23357.55,-3292.81 L -23459.94,-2898.32 L -23491.90,-2906.71 L -23484.87,-2933.81 L -23496.15,-2936.77 Z" />
    <text x="-23426.85" y="-3100.30" class="label">陽台</text>
    <path class="room" d="M -23589.95,-3184.04 L -23548.70,-3342.97 L -23412.07,-3307.12 L -23412.56,-3305.23 L -23401.28,-3302.27 L -23438.90,-3157.33 L -23450.18,-3160.29 L -23453.32,-3148.19 L -23589.95,-3184.04 Z" />
    <text x="-23495.62" y="-3245.58" class="label">空間1</text>
    <path class="room" d="M -23628.84,-3034.19 L -23589.95,-3184.04 L -23453.32,-3148.19 L -23458.69,-3127.52 L -23447.41,-3124.56 L -23480.94,-2995.38 L -23628.84,-3034.19 Z" />
    <text x="-23538.13" y="-3089.71" class="label">空間2</text>
    <path class="room" d="M -23666.54,-2958.60 L -23654.93,-3003.34 L -23589.75,-2986.24 L -23601.36,-2941.49 L -23666.54,-2958.60 Z" />
    <text x="-23628.14" y="-2972.42" class="label">男廁</text>
    <path class="room" d="M -23608.55,-2991.17 L -23599.39,-3026.46 L -23480.94,-2995.38 L -23496.15,-2936.77 L -23507.43,-2939.73 L -23512.99,-2918.30 L -23575.04,-2934.59 L -23562.82,-2981.66 L -23589.14,-2988.57 L -23589.75,-2986.24 L -23608.55,-2991.17 Z" />
    <text x="-23544.74" y="-2972.38" class="label">女廁</text>
    <path class="room" d="M -23820.96,-3005.85 L -23801.82,-3079.58 L -23671.46,-3045.37 L -23680.62,-3010.08 L -23700.05,-3015.18 L -23708.72,-2981.78 L -23718.12,-2984.25 L -23721.06,-2972.90 L -23803.79,-2994.61 L -23802.16,-3000.92 L -23820.96,-3005.85 Z" />
    <text x="-23746.21" y="-3026.24" class="label">樓梯</text>
  </g>
</svg>