<svg width="16000" height="9099" viewBox="0 0 16000 9099" xmlns="http://www.w3.org/2000/svg" xmlns:xlink="http://www.w3.org/1999/xlink">

    <style>
        .building { fill: #f0f4f8; stroke: #d1dce5; stroke-width: 2; }
        .room     { fill: #ffffff; fill-opacity: 0.8; stroke: #bcccdc; stroke-width: 1; }
        .label    { font-family: "Noto Sans TC", sans-serif; font-size: 24px; fill: #334e68; font-weight: 500; text-anchor: middle; dominant-baseline: middle; }
    </style>
      <g id="gis_gis_building_geom">
    <path class="building" d="M 2949.26,4010.03 L 4140.85,4021.56 L 4142.10,4292.67 L 4130.90,4292.64 L 4130.40,4356.44 L 3226.66,4355.84 L 3226.31,4812.55 L 3401.68,4811.80 L 3401.95,5141.81 L 2942.28,5141.31 L 2949.26,4010.03 Z" />
    <path class="building" d="M 7088.12,2560.89 L 7700.72,2562.04 L 7700.87,2481.66 L 8148.51,2483.00 L 8147.15,2562.88 L 8693.32,2563.92 L 8721.63,2695.28 L 8721.63,2695.28 L 8715.57,3280.48 L 8690.90,3280.61 L 8690.48,3403.55 L 7085.32,3389.98 L 7085.31,3204.63 L 7000.35,3203.97 L 7003.43,2738.84 L 7087.35,2738.26 L 7088.12,2560.89 Z" />
    <path class="building" d="M 4843.51,1956.47 L 4844.51,1787.79 L 4906.35,1787.49 L 4905.24,1712.44 L 5766.54,1719.44 L 5767.05,1759.83 L 6027.80,1762.57 L 6041.22,1778.35 L 6040.91,2113.44 L 5920.93,2113.62 L 5921.58,2180.69 L 4855.22,2175.20 L 4857.61,1956.59 L 4843.51,1956.47 Z" />
    <path class="building" d="M 3188.76,5839.04 L 3184.44,6132.85 L 3009.51,6131.08 L 3010.12,5838.90 L 3188.76,5839.04 Z" />
    <path class="building" d="M 8161.26,3799.06 L 8661.34,3802.64 L 8661.72,3865.86 L 8759.20,3866.25 L 8755.51,3995.61 L 8806.86,3995.16 L 8806.05,4079.95 L 8850.04,4079.42 L 8848.57,4261.53 L 8807.12,4260.63 L 8806.31,4341.05 L 8464.87,4337.40 L 8462.68,4793.00 L 8947.00,4797.31 L 8944.64,5163.38 L 9070.07,5164.43 L 9068.88,5256.28 L 8943.78,5254.69 L 8940.58,5624.81 L 8458.26,5621.41 L 8453.24,6072.52 L 9133.83,6077.89 L 9126.51,6745.48 L 8044.27,6736.86 L 8045.15,6541.70 L 7946.95,6541.19 L 7947.74,6409.27 L 7850.08,6409.19 L 7850.29,6387.18 L 7663.94,6386.98 L 7662.42,6294.92 L 7365.94,6294.05 L 7367.40,6164.56 L 7219.73,6164.20 L 7220.56,6079.32 L 7176.49,6078.82 L 7179.52,5914.56 L 7222.17,5914.94 L 7222.98,5832.54 L 7863.48,5840.16 L 7863.88,5617.56 L 7754.27,5617.59 L 7754.43,5521.38 L 7739.08,5522.23 L 7740.67,5376.11 L 7755.56,5376.17 L 7756.55,5277.27 L 7785.97,5276.79 L 7786.18,5127.15 L 7757.98,5127.35 L 7758.14,5028.99 L 7743.59,5028.70 L 7745.39,4886.44 L 7759.72,4886.75 L 7760.11,4786.55 L 7849.88,4787.63 L 7849.21,4560.97 L 7233.65,4557.12 L 7234.22,4480.71 L 7180.57,4480.46 L 7181.34,4311.50 L 7235.49,4311.75 L 7236.10,4231.20 L 7381.06,4231.84 L 7382.58,4106.09 L 7678.18,4106.93 L 7679.62,4016.64 L 7870.79,4014.88 L 7870.93,3994.82 L 7966.89,3995.55 L 7968.35,3863.10 L 8160.60,3863.87 L 8161.26,3799.06 Z" />
    <path class="building" d="M 1785.34,1818.91 L 1846.80,1820.11 L 1846.08,1868.88 L 1915.10,1869.87 L 1914.84,1881.19 L 1956.32,1881.91 L 1956.29,1947.64 L 1913.30,1947.43 L 1912.91,1964.27 L 1844.69,1963.82 L 1844.25,1993.82 L 2113.96,1996.73 L 2111.80,2313.15 L 1638.41,2309.74 L 1638.57,2369.36 L 1402.42,2370.43 L 1402.86,2308.05 L 913.25,2304.52 L 921.14,1983.86 L 1782.78,1993.15 L 1785.34,1818.91 Z" />
    <path class="building" d="M 1233.29,3176.04 L 1233.24,3086.16 L 1689.31,3086.09 L 1689.85,3178.73 L 2105.12,3181.86 L 2100.21,3742.07 L 811.22,3734.26 L 816.44,3173.49 L 1233.29,3176.04 Z" />
    <path class="building" d="M 4422.39,3825.20 L 4557.45,3823.98 L 4558.56,3948.97 L 4423.51,3950.19 L 4422.39,3825.20 Z" />
    <path class="building" d="M 5454.09,3024.68 L 5470.25,3024.58 L 5470.20,3032.77 L 5776.10,3034.35 L 5777.47,2956.96 L 5982.23,2956.10 L 5981.83,3035.41 L 6304.16,3037.07 L 6307.16,3777.27 L 6169.76,3776.65 L 6170.26,3825.65 L 5997.21,3824.78 L 5999.79,3339.48 L 5451.60,3336.55 L 5454.09,3024.68 Z" />
    <path class="building" d="M 810.23,4162.32 L 2094.03,4174.33 L 2089.09,4719.68 L 2050.10,4719.24 L 2050.20,4746.64 L 1713.11,4742.66 L 1713.39,4715.41 L 805.90,4705.09 L 810.23,4162.32 Z" />
    <path class="building" d="M 5154.02,4923.99 L 5174.31,4923.63 L 5174.75,4823.71 L 5156.69,4823.06 L 5158.73,4730.00 L 5153.87,4730.05 L 5153.30,4532.71 L 4982.76,4534.29 L 4982.12,4520.32 L 4753.21,4517.98 L 4752.95,4206.61 L 5867.58,4215.65 L 5865.18,4622.01 L 5896.39,4622.08 L 5894.82,4763.49 L 6306.89,4767.17 L 6301.07,5688.40 L 5887.43,5691.03 L 5886.89,5832.41 L 5854.54,5832.37 L 5853.47,6070.58 L 5399.78,6064.30 L 5405.55,5280.53 L 5376.56,5280.37 L 5376.79,5215.40 L 5151.84,5213.08 L 5151.97,5219.13 L 5154.02,4923.99 Z" />
    <path class="building" d="M 3393.95,5787.13 L 3442.50,5787.21 L 3442.68,5774.53 L 3630.52,5775.89 L 3631.48,5739.98 L 4112.97,5745.69 L 4113.00,5779.38 L 4284.12,5780.62 L 4284.41,5744.13 L 4286.78,5744.18 L 4286.73,5683.26 L 4511.51,5688.82 L 4511.10,5748.44 L 4600.29,5750.13 L 4600.37,5781.26 L 4984.14,5785.27 L 4983.80,5976.74 L 5219.32,5978.53 L 5219.88,6039.07 L 5265.74,6038.84 L 5260.63,6205.34 L 5217.18,6206.06 L 5217.99,6267.47 L 5167.99,6267.69 L 5166.59,6358.65 L 4403.43,6352.99 L 4402.67,6219.38 L 4187.82,6220.82 L 4189.74,6082.55 L 3392.66,6074.33 L 3392.93,6015.46 L 3346.48,6015.69 L 3345.67,5846.07 L 3393.69,5845.84 L 3393.95,5787.13 Z" />
    <path class="building" d="M 3480.58,1049.19 L 3478.99,999.72 L 3622.50,1000.51 L 3623.18,1050.84 L 3766.99,1052.51 L 3767.46,1154.80 L 3876.62,1155.69 L 3876.12,1302.54 L 4088.23,1299.59 L 4089.53,1365.74 L 4257.77,1366.48 L 4254.19,1531.73 L 3773.89,1529.93 L 3775.24,1614.55 L 3768.91,1632.60 L 3503.68,1632.43 L 3508.43,1214.67 L 3463.89,1214.91 L 3467.11,1049.03 L 3480.58,1049.19 Z" />
    <path class="building" d="M 936.26,5355.33 L 938.67,5282.05 L 1124.06,5283.51 L 1124.24,5251.09 L 1291.35,5250.09 L 1307.39,5242.52 L 1325.18,5238.63 L 1356.16,5233.68 L 1377.43,5232.40 L 1405.24,5235.72 L 1428.02,5240.86 L 1440.65,5244.93 L 1460.13,5252.19 L 1607.57,5253.53 L 1607.60,5288.52 L 1776.51,5290.71 L 1776.60,5240.34 L 2103.44,5244.81 L 2103.50,5356.82 L 2205.45,5356.56 L 2205.38,5378.57 L 2282.83,5379.22 L 2285.51,5565.09 L 2894.09,5569.40 L 2893.37,5633.72 L 2936.68,5633.51 L 2937.52,5803.75 L 2846.36,5804.20 L 2846.34,5953.33 L 2559.91,5955.61 L 2546.09,5965.10 L 2519.95,5972.97 L 2488.77,5982.33 L 2463.81,5984.39 L 2436.80,5986.16 L 2402.61,5984.38 L 2377.54,5982.72 L 2340.87,5977.26 L 2314.70,5972.21 L 2285.31,5960.47 L 2259.99,5947.24 L 1985.67,5944.67 L 1985.29,5908.44 L 1769.65,5909.19 L 1773.26,5665.81 L 1597.93,5664.92 L 1599.05,5851.91 L 1024.38,5845.83 L 1022.48,5808.99 L 1001.29,5809.19 L 1000.42,5661.87 L 882.09,5661.27 L 883.76,5439.25 L 856.33,5438.30 L 859.12,5355.29 L 936.26,5355.33 Z" />
    <path class="building" d="M 13529.99,6560.54 L 14941.59,6571.40 L 14932.04,7144.65 L 14992.06,7145.75 L 14993.21,7490.04 L 14952.13,7489.30 L 14951.20,7527.87 L 13628.49,7517.89 L 13629.06,7497.74 L 13464.17,7496.13 L 13468.50,7115.25 L 13528.85,7116.51 L 13530.83,6851.87 L 13480.99,6851.93 L 13479.73,6621.87 L 13530.11,6622.39 L 13529.99,6560.54 Z" />
    <path class="building" d="M 5093.05,7797.46 L 5095.59,7780.54 L 6087.61,7941.33 L 6022.66,8306.95 L 5960.86,8299.45 L 5951.07,8349.55 L 4941.17,8184.55 L 4984.12,7921.91 L 5034.25,7929.51 L 5057.02,7792.95 L 5093.05,7797.46 Z" />
    <path class="building" d="M 924.06,1000.40 L 1568.36,1012.99 L 1566.57,922.99 L 1880.10,928.66 L 1881.99,1019.12 L 2136.51,1024.09 L 2121.00,1825.46 L 908.59,1801.77 L 924.06,1000.40 Z" />
    <path class="building" d="M 3553.73,1653.86 L 4853.30,1652.82 L 4852.16,1787.86 L 4844.51,1787.79 L 4843.51,1956.47 L 4850.75,1956.53 L 4849.40,2118.29 L 4411.37,2114.16 L 4411.76,2160.24 L 4465.88,2160.87 L 4465.14,2276.87 L 4231.13,2277.71 L 4231.03,2158.16 L 4287.83,2158.82 L 4287.44,2113.00 L 3550.76,2106.07 L 3553.73,1653.86 Z" />
    <path class="building" d="M 2268.76,1003.93 L 2280.78,984.64 L 2301.22,961.02 L 2328.14,932.78 L 2376.93,892.39 L 2432.02,852.59 L 2456.33,836.30 L 2492.30,816.65 L 2492.65,812.32 L 2497.05,801.30 L 2505.95,790.96 L 2517.92,784.39 L 2534.43,781.93 L 2543.82,782.04 L 2553.79,783.27 L 2558.23,785.09 L 2561.34,783.57 L 2614.81,766.10 L 2654.80,754.95 L 2736.40,738.94 L 2774.76,736.02 L 2819.06,734.40 L 2864.17,735.02 L 2912.73,739.61 L 2955.40,745.85 L 2999.31,756.53 L 3064.54,776.64 L 3111.23,795.03 L 3147.21,812.60 L 3190.74,836.66 L 3245.03,874.91 L 3335.46,950.82 L 3362.11,979.42 L 3379.06,1004.60 L 3316.60,1050.11 L 3330.09,1064.69 L 3312.34,1077.80 L 3355.45,1126.80 L 3354.12,1319.70 L 3355.49,1799.51 L 2657.61,1799.22 L 2649.90,2029.27 L 3171.26,2031.80 L 3172.51,1971.58 L 3282.84,1972.96 L 3284.07,2032.35 L 3345.52,2032.65 L 3344.64,2341.85 L 3195.08,2340.34 L 3194.82,2358.50 L 3161.99,2359.41 L 3162.40,2340.50 L 2293.87,2340.13 L 2291.91,1914.68 L 2445.18,1915.40 L 2446.50,1799.14 L 2286.94,1799.08 L 2288.75,1126.37 L 2343.08,1060.46 L 2268.76,1003.93 Z" />
    <path class="building" d="M 2375.15,3011.39 L 2703.50,3012.59 L 2706.21,2927.10 L 2908.80,2929.26 L 2907.77,3013.34 L 3224.19,3014.50 L 3221.87,3314.69 L 2675.53,3316.31 L 2672.14,3806.07 L 2611.01,3805.78 L 2611.50,3752.93 L 2369.52,3750.98 L 2375.15,3011.39 Z" />
    <path class="building" d="M 3481.73,3013.15 L 4216.24,3018.45 L 4216.72,2932.76 L 4466.90,2931.38 L 4468.50,3020.27 L 5200.00,3025.54 L 5196.12,3341.16 L 4532.93,3336.21 L 4533.28,3456.98 L 4146.26,3455.47 L 4145.86,3333.24 L 3480.74,3325.73 L 3481.73,3013.15 Z" />
    <path class="building" d="M 2359.65,4017.52 L 2682.41,4014.00 L 2683.31,4054.59 L 2674.47,4054.84 L 2667.93,4437.03 L 2763.04,4437.67 L 2761.52,4667.51 L 2664.01,4666.86 L 2654.87,5374.86 L 2660.54,5374.70 L 2659.91,5389.96 L 2344.25,5388.14 L 2359.65,4017.52 Z" />
    <path class="building" d="M 3502.33,4517.98 L 3587.32,4518.98 L 3587.05,4474.73 L 3922.02,4476.01 L 3922.52,4509.52 L 4982.12,4520.32 L 4982.76,4534.29 L 5153.30,4532.71 L 5153.87,4730.05 L 5158.73,4730.00 L 5156.69,4823.06 L 5174.75,4823.71 L 5174.31,4923.63 L 5154.02,4923.99 L 5151.97,5219.13 L 5071.20,5219.60 L 5070.35,5272.40 L 4665.04,5270.50 L 4665.31,5225.67 L 3579.55,5215.95 L 3579.14,5204.15 L 3499.71,5204.74 L 3500.84,4914.76 L 3479.18,4914.22 L 3480.73,4807.81 L 3501.94,4807.89 L 3502.33,4517.98 Z" />
    <path class="building" d="M 11448.31,2608.09 L 11443.96,2519.88 L 11936.57,2495.70 L 11937.54,2522.91 L 11969.51,2521.23 L 11973.77,2620.44 L 11941.10,2622.40 L 11943.56,2691.25 L 12023.28,2687.38 L 12021.53,2652.29 L 12212.21,2643.62 L 12214.73,2678.07 L 12292.75,2675.69 L 12289.42,2607.07 L 12255.82,2608.91 L 12251.93,2505.72 L 12284.43,2504.26 L 12283.18,2478.69 L 13428.92,2422.45 L 13435.62,2613.62 L 13468.77,2612.12 L 13467.35,2556.10 L 13646.50,2547.86 L 13649.47,2603.90 L 13684.37,2602.32 L 13671.86,2410.52 L 14152.96,2386.91 L 14170.11,2736.81 L 13904.32,2750.00 L 13914.52,2942.80 L 13340.66,2974.61 L 13352.87,3252.74 L 12426.20,3299.52 L 12409.53,3017.41 L 11743.24,3054.12 L 11741.45,3028.15 L 11711.32,3029.36 L 11704.20,2926.92 L 11734.35,2925.31 L 11729.77,2858.79 L 11461.38,2873.15 L 11457.02,2784.77 L 11415.95,2786.12 L 11410.15,2609.07 L 11448.31,2608.09 Z" />
  </g>
  <g id="gis_room_A6T_B3">
    <path class="room" d="M 2375.23,2167.89 L 2375.47,2106.67 L 2441.92,2106.93 L 2441.68,2168.15 L 2375.23,2167.89 Z" />
    <text x="2408.57" y="2137.41" class="label">電梯</text>
    <path class="room" d="M 3195.28,1925.56 L 3195.47,1876.12 L 3247.29,1876.32 L 3247.00,1949.90 L 3195.28,1925.56 Z" />
    <text x="3221.29" y="1913.01" class="label">樓梯</text>
    <path class="room" d="M 2311.44,1914.94 L 2311.80,1824.42 L 2318.01,1824.44 L 2318.02,1822.49 L 2447.56,1823.00 L 2447.56,1824.95 L 2468.93,1825.04 L 2468.58,1915.56 L 2447.20,1915.48 L 2447.12,1936.97 L 2399.83,1936.78 L 2399.91,1917.25 L 2317.65,1916.92 L 2317.66,1914.97 L 2311.44,1914.94 Z" />
    <text x="2390.19" y="1879.73" class="label">樓梯</text>
    <path class="room" d="M 2305.01,2167.61 L 2305.25,2106.39 L 2375.47,2106.67 L 2375.23,2167.89 L 2305.01,2167.61 Z" />
    <text x="2340.24" y="2137.14" class="label">電梯</text>
    <path class="room" d="M 3173.34,2234.88 L 3174.04,2055.78 L 3195.42,2055.87 L 3195.50,2034.35 L 3325.04,2034.93 L 3324.96,2056.38 L 3326.51,2056.39 L 3326.34,2100.67 L 3298.88,2100.56 L 3298.76,2131.17 L 3235.93,2130.92 L 3235.52,2235.12 L 3173.34,2234.88 Z M 3174.04,2055.78 L 3195.42,2055.87 L 3174.04,2055.78 L 3174.04,2055.78 Z" />
    <text x="3249.93" y="2134.74" class="label">吾印良品影印行</text>
    <path class="room" d="M 3173.01,2318.89 L 3173.34,2234.88 L 3324.25,2235.48 L 3324.17,2256.97 L 3335.83,2257.02 L 3335.68,2294.79 L 3329.21,2294.76 L 3329.02,2341.00 L 3194.30,2340.47 L 3194.38,2318.98 L 3173.01,2318.89 Z" />
    <text x="3254.42" y="2287.94" class="label">特別安全梯</text>
    <path class="room" d="M 2378.46,1937.35 L 2378.54,1917.16 L 2399.91,1917.25 L 2399.83,1937.44 L 2378.46,1937.35 Z" />
    <text x="2389.18" y="1927.30" class="label">機電</text>
    <path class="room" d="M 3092.44,2053.50 L 3093.45,1794.30 L 3106.41,1794.35 L 3106.40,1796.31 L 3174.67,1796.58 L 3174.64,1804.39 L 3173.08,1804.38 L 3172.99,1827.83 L 3196.31,1827.92 L 3196.40,1804.48 L 3194.85,1804.47 L 3194.88,1796.66 L 3197.73,1796.67 L 3197.74,1794.71 L 3324.69,1795.22 L 3324.68,1797.17 L 3327.53,1797.18 L 3327.50,1805.00 L 3325.95,1804.99 L 3325.85,1828.44 L 3327.41,1828.44 L 3326.82,1978.88 L 3266.32,1978.65 L 3266.10,2034.65 L 3195.50,2034.35 L 3195.51,2032.42 L 3172.19,2032.33 L 3172.11,2053.82 L 3092.44,2053.50 Z M 3195.28,1925.56 L 3247.00,1949.90 L 3247.29,1876.32 L 3195.47,1876.12 L 3195.28,1925.56 Z" />
    <text x="3209.98" y="1924.06" class="label">平台</text>
  </g>
  <g id="gis_room_AM_B3">
    <path class="room" d="M 5071.60,8415.52 L 5083.64,8344.92 L 5158.33,8357.79 L 5146.29,8428.40 L 5071.60,8415.52 Z" />
    <text x="5114.96" y="8386.66" class="label">緊急升降機L1兼用行動不便電梯</text>
    <path class="room" d="M 5061.31,8475.86 L 5071.58,8415.61 L 5146.28,8428.48 L 5136.00,8488.74 L 5061.31,8475.86 Z" />
    <text x="5103.80" y="8452.17" class="label">行動不便電梯L2</text>
    <path class="room" d="M 5057.18,8541.89 L 5074.52,8544.87 L 5077.47,8527.54 L 5125.99,8535.91 L 5120.30,8569.28 L 5070.08,8560.63 L 5057.18,8541.89 Z" />
    <text x="5091.59" y="8548.41" class="label">進氣</text>
    <path class="room" d="M 5961.39,8283.03 L 5971.59,8223.21 L 6047.15,8236.23 L 6036.95,8296.05 L 5961.39,8283.03 Z" />
    <text x="6004.27" y="8259.63" class="label">行動不便電梯L4</text>
    <path class="room" d="M 5170.62,8324.23 L 5172.70,8312.03 L 5221.22,8320.39 L 5219.14,8332.59 L 5170.62,8324.23 Z" />
    <text x="5195.92" y="8322.31" class="label">電力/弱電</text>
    <path class="room" d="M 4998.89,8294.63 L 5006.11,8252.27 L 5096.77,8267.89 L 5089.55,8310.25 L 4998.89,8294.63 Z" />
    <text x="5047.83" y="8281.26" class="label">進氣口</text>
    <path class="room" d="M 4964.64,8495.54 L 4998.89,8294.63 L 5164.24,8323.13 L 5158.33,8357.79 L 5083.64,8344.92 L 5056.39,8504.75 L 5050.01,8503.65 L 5045.63,8529.32 L 4980.51,8518.10 L 4983.79,8498.84 L 4964.64,8495.54 Z M 4998.89,8294.63 L 5089.55,8310.25 L 5089.55,8310.25 L 4998.89,8294.63 L 4998.89,8294.63 Z" />
    <text x="5064.44" y="8411.98" class="label">丁梯</text>
    <path class="room" d="M 5151.11,8678.33 L 5177.64,8682.90 L 5180.48,8666.22 L 5193.21,8668.41 L 5202.97,8709.07 L 5218.75,8747.77 L 5240.17,8783.62 L 5266.74,8815.81 L 5297.85,8843.57 L 5332.78,8866.28 L 5370.73,8883.41 L 5410.82,8894.57 L 5452.13,8899.49 L 5493.71,8898.07 L 5534.59,8890.33 L 5573.83,8876.47 L 5610.54,8856.78 L 5643.86,8831.74 L 5673.02,8801.91 L 5722.54,8810.45 L 5711.92,8872.74 L 5697.24,8870.21 L 5692.66,8897.04 L 5366.22,8915.35 L 5369.59,8895.59 L 5318.20,8886.73 L 5302.23,8897.85 L 5151.11,8678.33 Z" />
    <text x="5436.82" y="8790.78" class="label">排氣口</text>
    <path class="room" d="M 5070.08,8560.63 L 5147.75,8574.01 L 5153.44,8540.64 L 5198.59,8548.42 L 5193.61,8577.72 L 5192.65,8583.72 L 5191.83,8589.73 L 5191.14,8595.77 L 5190.58,8601.81 L 5190.15,8607.87 L 5189.86,8613.94 L 5189.70,8620.01 L 5189.67,8626.08 L 5189.78,8632.16 L 5190.02,8638.22 L 5190.39,8644.29 L 5190.90,8650.34 L 5191.54,8656.38 L 5192.31,8662.40 L 5193.21,8668.41 L 5180.48,8666.22 L 5181.14,8662.36 L 5140.28,8655.32 L 5139.29,8661.16 L 5070.08,8560.63 Z" />
    <text x="5134.34" y="8604.52" class="label">機電設備空間</text>
    <path class="room" d="M 5189.66,8625.46 L 5193.59,8577.75 L 5198.59,8548.42 L 5342.58,8583.81 L 5339.93,8592.94 L 5337.96,8602.25 L 5336.69,8611.67 L 5336.11,8621.16 L 5336.23,8630.67 L 5337.05,8640.15 L 5338.57,8649.53 L 5340.78,8658.78 L 5343.66,8667.84 L 5347.20,8676.66 L 5351.38,8685.19 L 5356.18,8693.39 L 5361.57,8701.20 L 5367.52,8708.60 L 5374.00,8715.53 L 5373.80,8716.71 L 5375.53,8717.01 L 5390.76,8729.52 L 5407.72,8739.54 L 5426.00,8746.81 L 5445.18,8751.17 L 5464.80,8752.51 L 5484.40,8750.81 L 5503.49,8746.10 L 5521.65,8738.50 L 5538.42,8728.18 L 5553.42,8715.39 L 5566.29,8700.44 L 5576.71,8683.67 L 5584.46,8665.50 L 5589.33,8646.34 L 5591.21,8626.66 L 5738.28,8629.43 L 5733.34,8658.42 L 5735.45,8658.79 L 5734.52,8665.47 L 5733.44,8672.12 L 5732.19,8678.75 L 5730.79,8685.35 L 5729.22,8691.91 L 5727.49,8698.42 L 5725.61,8704.90 L 5723.56,8711.32 L 5721.37,8717.70 L 5719.01,8724.02 L 5716.51,8730.27 L 5713.85,8736.47 L 5711.04,8742.59 L 5708.09,8748.65 L 5704.98,8754.63 L 5721.71,8757.51 L 5718.53,8776.13 L 5719.49,8776.29 L 5713.92,8808.96 L 5673.02,8801.91 L 5639.27,8835.69 L 5600.20,8863.07 L 5557.02,8883.24 L 5511.01,8895.58 L 5463.57,8899.73 L 5416.14,8895.56 L 5370.14,8883.19 L 5326.96,8863.00 L 5287.91,8835.61 L 5254.17,8801.82 L 5226.76,8762.67 L 5206.50,8719.34 L 5194.01,8673.14 L 5189.66,8625.46 Z M 5189.66,8625.46 L 5189.68,8625.60 L 5189.68,8625.29 L 5189.66,8625.46 Z M 5193.58,8577.87 L 5193.61,8577.72 L 5198.59,8548.42 L 5198.59,8548.42 L 5193.59,8577.75 L 5193.58,8577.87 Z M 5193.80,8670.88 L 5194.01,8673.14 L 5197.02,8684.28 L 5193.80,8670.88 Z M 5205.20,8714.52 L 5206.50,8719.34 L 5211.66,8730.38 L 5205.20,8714.52 Z M 5223.54,8755.80 L 5226.76,8762.67 L 5232.84,8771.35 L 5223.54,8755.80 Z M 5248.48,8793.68 L 5254.17,8801.82 L 5260.06,8807.72 L 5248.48,8793.68 Z M 5279.61,8827.29 L 5287.91,8835.61 L 5292.65,8838.93 L 5279.61,8827.29 Z M 5317.08,8856.07 L 5326.96,8863.00 L 5329.75,8864.31 L 5317.08,8856.07 Z M 5366.94,8881.70 L 5370.14,8883.19 L 5370.42,8883.27 L 5366.94,8881.70 Z M 5413.73,8894.91 L 5416.14,8895.56 L 5427.68,8896.57 L 5413.73,8894.91 Z M 5458.39,8899.28 L 5463.57,8899.73 L 5475.45,8898.69 L 5458.39,8899.28 Z M 5503.28,8896.26 L 5511.01,8895.58 L 5520.95,8892.91 L 5503.28,8896.26 Z M 5547.29,8885.85 L 5557.02,8883.24 L 5564.29,8879.84 L 5547.29,8885.85 Z M 5589.50,8868.07 L 5600.20,8863.07 L 5604.70,8859.92 L 5589.50,8868.07 Z M 5629.55,8842.49 L 5639.27,8835.69 L 5641.24,8833.71 L 5629.55,8842.49 Z" />
    <text x="5463.97" y="8724.08" class="label">車道</text>
    <path class="room" d="M 5006.11,8252.27 L 5012.13,8216.96 L 5031.29,8220.26 L 5039.16,8174.04 L 5020.01,8170.74 L 5065.53,7903.72 L 5084.68,7907.02 L 5092.56,7860.80 L 5073.41,7857.50 L 5088.95,7766.35 L 5108.10,7769.65 L 5111.38,7750.39 L 5176.50,7761.62 L 5173.44,7779.59 L 5219.40,7787.52 L 5222.46,7769.54 L 5513.57,7819.71 L 5510.51,7837.69 L 5556.47,7845.60 L 5559.54,7827.63 L 5858.30,7879.12 L 5855.24,7897.10 L 5901.20,7905.02 L 5904.27,7887.05 L 6083.02,7917.85 L 6079.96,7935.83 L 6097.83,7938.91 L 6080.76,8039.04 L 6062.89,8035.96 L 6057.63,8066.77 L 6075.51,8069.85 L 6047.15,8236.23 L 5971.59,8223.21 L 5971.73,8222.17 L 5920.92,8213.42 L 5908.71,8285.05 L 6035.11,8306.83 L 6027.36,8352.29 L 6006.68,8348.72 L 6001.42,8379.53 L 6022.11,8383.10 L 5973.96,8665.53 L 5956.09,8662.45 L 5950.83,8693.26 L 5968.71,8696.34 L 5950.00,8806.11 L 5740.60,8770.02 L 5742.46,8759.11 L 5722.03,8755.59 L 5721.71,8757.51 L 5704.98,8754.63 L 5708.09,8748.65 L 5711.04,8742.59 L 5713.85,8736.47 L 5716.51,8730.27 L 5719.01,8724.02 L 5721.37,8717.70 L 5723.56,8711.32 L 5725.61,8704.90 L 5727.49,8698.42 L 5729.22,8691.91 L 5730.79,8685.35 L 5732.19,8678.75 L 5733.44,8672.12 L 5734.52,8665.47 L 5735.45,8658.79 L 5763.98,8663.70 L 5770.11,8627.76 L 5739.47,8622.48 L 5738.28,8629.43 L 5591.18,8626.66 L 5589.30,8646.34 L 5584.43,8665.50 L 5576.70,8683.67 L 5566.27,8700.44 L 5553.41,8715.39 L 5538.41,8728.18 L 5521.64,8738.50 L 5503.49,8746.11 L 5484.39,8750.82 L 5464.80,8752.52 L 5445.18,8751.17 L 5426.00,8746.81 L 5407.71,8739.54 L 5390.76,8729.52 L 5375.53,8717.01 L 5394.23,8720.23 L 5397.73,8699.69 L 5377.30,8696.17 L 5374.00,8715.53 L 5367.52,8708.60 L 5361.57,8701.20 L 5356.18,8693.39 L 5351.38,8685.19 L 5347.20,8676.66 L 5343.66,8667.84 L 5340.78,8658.78 L 5338.57,8649.53 L 5337.05,8640.15 L 5336.23,8630.67 L 5336.11,8621.16 L 5336.69,8611.67 L 5337.96,8602.25 L 5339.93,8592.94 L 5342.58,8583.81 L 5198.59,8548.42 L 5182.81,8545.70 L 5221.22,8320.39 L 5172.70,8312.03 L 5174.01,8304.33 L 5092.94,8290.35 L 5096.77,8267.89 L 5006.11,8252.27 Z M 5097.28,8226.35 L 5127.92,8231.63 L 5134.05,8195.68 L 5103.40,8190.40 L 5097.28,8226.35 Z M 5150.68,7913.10 L 5181.32,7918.38 L 5187.45,7882.44 L 5156.80,7877.16 L 5150.68,7913.10 Z M 5172.70,8312.03 L 5221.22,8320.39 L 5172.70,8312.03 L 5172.70,8312.03 Z M 5182.81,8545.70 L 5182.81,8545.70 L 5219.14,8332.59 L 5219.14,8332.59 L 5182.81,8545.70 Z M 5375.53,8717.01 L 5390.76,8729.52 L 5407.71,8739.54 L 5426.00,8746.81 L 5445.18,8751.17 L 5464.80,8752.52 L 5484.39,8750.82 L 5503.49,8746.11 L 5511.80,8742.62 L 5503.49,8746.10 L 5484.40,8750.81 L 5464.80,8752.51 L 5445.18,8751.17 L 5426.00,8746.81 L 5407.72,8739.54 L 5390.76,8729.52 L 5375.53,8717.01 Z M 5388.61,8599.01 L 5419.25,8604.29 L 5425.38,8568.34 L 5394.74,8563.06 L 5388.61,8599.01 Z M 5442.01,8285.76 L 5472.65,8291.04 L 5478.78,8255.10 L 5448.14,8249.82 L 5442.01,8285.76 Z M 5495.41,7972.52 L 5526.05,7977.80 L 5532.18,7941.85 L 5501.54,7936.57 L 5495.41,7972.52 Z M 5510.51,7837.69 L 5556.47,7845.61 L 5559.54,7827.63 L 5556.47,7845.60 L 5510.51,7837.69 Z M 5786.74,8345.18 L 5817.38,8350.46 L 5823.51,8314.51 L 5792.87,8309.23 L 5786.74,8345.18 Z M 5840.14,8031.93 L 5870.78,8037.21 L 5876.91,8001.27 L 5846.27,7995.99 L 5840.14,8031.93 Z" />
    <text x="5551.97" y="8278.25" class="label">停車空間</text>
  </g>
  <g id="gis_room_EL_B3">
    <path class="room" d="M 13610.90,6701.54 L 13611.48,6554.36 L 13786.33,6555.06 L 13786.14,6604.55 L 13853.53,6604.82 L 13853.14,6702.51 L 13610.90,6701.54 Z" />
    <text x="13732.22" y="6628.43" class="label">水箱</text>
    <path class="room" d="M 14845.69,7130.45 L 14846.57,6906.42 L 14958.63,6906.87 L 14958.36,6975.25 L 14936.33,6975.16 L 14936.19,7011.63 L 14949.14,7011.68 L 14948.96,7058.57 L 14946.37,7058.56 L 14946.26,7084.61 L 14957.92,7084.66 L 14957.74,7130.90 L 14845.69,7130.45 Z" />
    <text x="14902.16" y="7018.66" class="label">乙樓梯間</text>
    <path class="room" d="M 13580.26,7243.27 L 13580.56,7167.07 L 13803.37,7167.96 L 13803.07,7244.16 L 13792.71,7244.12 L 13792.64,7260.40 L 13590.56,7259.59 L 13590.63,7243.31 L 13580.26,7243.27 Z" />
    <text x="13691.82" y="7213.74" class="label">甲樓梯間</text>
    <path class="room" d="M 14864.99,6836.16 L 14865.39,6733.91 L 14932.10,6734.18 L 14932.02,6756.32 L 14959.22,6756.43 L 14958.90,6836.53 L 14864.99,6836.16 Z" />
    <text x="14912.10" y="6785.22" class="label">乙電梯</text>
    <path class="room" d="M 13655.48,7059.26 L 13655.77,6985.67 L 13729.61,6985.97 L 13729.31,7059.56 L 13655.48,7059.26 Z" />
    <text x="13692.54" y="7022.61" class="label">電梯</text>
    <path class="room" d="M 13729.31,7059.56 L 13729.61,6985.97 L 13793.73,6986.22 L 13793.66,7001.85 L 13804.03,7001.89 L 13803.80,7059.86 L 13729.31,7059.56 Z" />
    <text x="13766.67" y="7022.91" class="label">電梯</text>
    <path class="room" d="M 13611.48,6554.36 L 13612.10,6399.36 L 13976.11,6400.81 L 13975.49,6555.81 L 13611.48,6554.36 Z" />
    <text x="13793.79" y="6477.59" class="label">水箱</text>
    <path class="room" d="M 14844.49,7432.63 L 14844.67,7387.05 L 14956.72,7387.49 L 14956.54,7433.08 L 14844.49,7432.63 Z" />
    <text x="14900.61" y="7410.06" class="label">進風口</text>
    <path class="room" d="M 14082.36,6721.66 L 14082.87,6591.66 L 14093.23,6591.45 L 14093.32,6570.61 L 14082.96,6570.57 L 14083.70,6383.01 L 14094.06,6383.05 L 14094.14,6363.51 L 14508.67,6365.17 L 14508.59,6384.71 L 14518.94,6384.75 L 14518.28,6553.13 L 14514.22,6550.43 L 14510.06,6547.91 L 14505.80,6545.55 L 14501.45,6543.36 L 14497.02,6541.36 L 14492.51,6539.53 L 14487.93,6537.88 L 14483.29,6536.42 L 14478.59,6535.14 L 14473.86,6534.06 L 14469.07,6533.16 L 14464.26,6532.46 L 14459.43,6531.96 L 14454.57,6531.64 L 14449.71,6531.53 L 14369.40,6531.29 L 14350.20,6532.74 L 14331.47,6537.22 L 14313.68,6544.62 L 14297.28,6554.75 L 14282.67,6567.35 L 14270.22,6582.12 L 14260.24,6598.68 L 14252.98,6616.61 L 14248.64,6635.46 L 14247.30,6654.77 L 14249.01,6674.06 L 14253.73,6692.82 L 14261.33,6710.61 L 14271.63,6726.96 L 14284.37,6741.48 L 14284.32,6753.73 L 14097.78,6752.98 L 14097.90,6721.72 L 14082.36,6721.66 Z M 14290.96,6383.84 L 14311.69,6383.92 L 14311.73,6373.50 L 14291.00,6373.42 L 14290.96,6383.84 Z" />
    <text x="14300.65" y="6558.62" class="label">車道</text>
    <path class="room" d="M 14734.25,6974.35 L 14734.52,6905.97 L 14846.57,6906.42 L 14845.11,7277.63 L 14748.60,7277.25 L 14748.71,7247.94 L 14738.35,7247.90 L 14738.66,7169.75 L 14736.72,7169.74 L 14737.06,7083.78 L 14739.00,7083.78 L 14739.31,7005.63 L 14749.67,7005.67 L 14749.80,6974.41 L 14734.25,6974.35 Z" />
    <text x="14790.41" y="7091.80" class="label">億光B3儲藏室</text>
    <path class="room" d="M 13396.55,7512.16 L 13397.49,7273.80 L 13416.92,7273.93 L 13416.98,7258.25 L 13559.47,7258.82 L 13559.41,7274.45 L 13590.50,7274.57 L 13590.56,7259.59 L 13792.64,7260.40 L 13792.58,7275.43 L 13823.67,7275.60 L 13824.11,7166.09 L 13822.16,7166.09 L 13822.50,7080.12 L 13824.45,7080.13 L 13824.88,6970.72 L 13793.79,6970.59 L 13793.73,6986.22 L 13655.77,6985.67 L 13655.48,7059.26 L 13580.99,7058.97 L 13581.22,7001.00 L 13591.58,7001.05 L 13591.71,6969.79 L 13560.62,6969.66 L 13560.19,7077.12 L 13398.27,7076.47 L 13400.25,6574.35 L 13573.84,6575.05 L 13573.80,6584.16 L 13562.14,6584.12 L 13562.10,6594.54 L 13564.04,6594.55 L 13563.55,6719.59 L 13561.61,6719.58 L 13561.48,6750.84 L 13592.57,6750.96 L 13592.59,6745.75 L 13794.67,6746.56 L 13794.65,6751.77 L 13825.74,6751.90 L 13825.81,6736.27 L 14066.75,6737.23 L 14066.69,6753.12 L 14315.40,6754.12 L 14315.53,6722.59 L 14284.44,6722.47 L 14284.37,6741.48 L 14271.63,6726.96 L 14261.33,6710.61 L 14253.73,6692.82 L 14249.01,6674.06 L 14247.30,6654.77 L 14248.64,6635.46 L 14252.98,6616.61 L 14260.24,6598.68 L 14270.22,6582.12 L 14282.67,6567.35 L 14297.28,6554.75 L 14313.68,6544.62 L 14331.47,6537.22 L 14350.20,6532.74 L 14369.40,6531.29 L 14449.71,6531.53 L 14454.57,6531.64 L 14459.43,6531.96 L 14464.26,6532.46 L 14469.07,6533.16 L 14473.86,6534.06 L 14478.59,6535.14 L 14483.29,6536.42 L 14487.93,6537.88 L 14492.51,6539.53 L 14497.02,6541.36 L 14501.45,6543.36 L 14505.80,6545.55 L 14510.06,6547.91 L 14514.22,6550.43 L 14518.28,6553.13 L 14518.20,6572.31 L 14528.56,6572.35 L 14528.53,6582.77 L 14720.25,6583.54 L 14720.21,6593.96 L 14739.64,6594.04 L 14739.13,6724.29 L 14719.70,6724.21 L 14719.57,6755.47 L 14735.12,6755.53 L 14734.25,6974.35 L 14718.71,6974.29 L 14718.27,7083.70 L 14737.06,7083.78 L 14736.72,7169.74 L 14717.93,7169.67 L 14717.50,7279.08 L 14748.59,7279.20 L 14748.60,7277.25 L 14845.11,7277.63 L 14844.49,7432.63 L 14956.54,7433.08 L 14956.32,7498.86 L 14929.08,7498.75 L 14929.04,7509.17 L 14752.86,7508.46 L 14752.91,7498.04 L 14716.64,7497.90 L 14716.51,7529.16 L 14732.06,7529.22 L 14731.58,7649.05 L 14716.04,7648.99 L 14715.95,7669.83 L 13822.13,7666.25 L 13822.09,7645.41 L 13806.67,7645.35 L 13807.14,7525.52 L 13822.69,7525.58 L 13822.81,7494.32 L 13791.72,7494.20 L 13791.68,7504.62 L 13589.60,7503.81 L 13589.64,7493.39 L 13558.55,7493.27 L 13558.47,7512.81 L 13396.55,7512.16 Z M 13405.65,7503.08 L 13416.01,7503.12 L 13416.05,7492.70 L 13405.69,7492.66 L 13405.65,7503.08 Z M 13407.64,7000.31 L 13418.00,7000.35 L 13418.12,6969.09 L 13407.76,6969.05 L 13407.64,7000.31 Z M 13408.62,6750.23 L 13418.99,6750.27 L 13419.11,6719.01 L 13408.75,6718.97 L 13408.62,6750.23 Z M 13409.24,6593.93 L 13419.61,6593.97 L 13419.65,6583.55 L 13409.28,6583.51 L 13409.24,6593.93 Z M 14063.11,7656.80 L 14094.20,7656.92 L 14094.24,7646.50 L 14063.15,7646.38 L 14063.11,7656.80 Z M 14063.63,7526.55 L 14094.72,7526.67 L 14094.84,7495.41 L 14063.75,7495.29 L 14063.63,7526.55 Z M 14064.62,7276.47 L 14095.71,7276.59 L 14095.83,7245.33 L 14064.74,7245.21 L 14064.62,7276.47 Z M 14065.70,7002.94 L 14096.79,7003.07 L 14096.91,6971.81 L 14065.82,6971.68 L 14065.70,7002.94 Z M 14280.74,7657.67 L 14311.83,7657.79 L 14311.87,7647.37 L 14280.78,7647.25 L 14280.74,7657.67 Z M 14281.26,7527.42 L 14312.35,7527.54 L 14312.47,7496.28 L 14281.38,7496.16 L 14281.26,7527.42 Z M 14282.25,7277.34 L 14313.34,7277.46 L 14313.46,7246.20 L 14282.37,7246.08 L 14282.25,7277.34 Z M 14283.33,7003.81 L 14314.42,7003.93 L 14314.54,6972.67 L 14283.45,6972.55 L 14283.33,7003.81 Z M 14290.14,6592.24 L 14310.86,6592.32 L 14310.95,6571.48 L 14290.22,6571.40 L 14290.14,6592.24 Z M 14498.37,7658.54 L 14529.46,7658.66 L 14529.50,7648.24 L 14498.41,7648.12 L 14498.37,7658.54 Z M 14498.88,7528.29 L 14529.97,7528.41 L 14530.10,7497.15 L 14499.01,7497.03 L 14498.88,7528.29 Z M 14499.87,7278.21 L 14530.96,7278.33 L 14531.09,7247.07 L 14500.00,7246.95 L 14499.87,7278.21 Z M 14500.96,7004.68 L 14532.05,7004.81 L 14532.17,6973.55 L 14501.08,6973.42 L 14500.96,7004.68 Z M 14501.94,6754.60 L 14533.03,6754.72 L 14533.16,6723.46 L 14502.07,6723.34 L 14501.94,6754.60 Z M 14507.77,6593.11 L 14528.49,6593.19 L 14528.53,6582.77 L 14528.56,6572.35 L 14518.20,6572.31 L 14507.85,6572.27 L 14507.77,6593.11 Z M 13822.09,7645.41 L 13822.11,7655.83 L 13822.17,7655.83 L 13822.21,7645.41 L 13822.09,7645.41 Z" />
    <text x="14176.54" y="7100.56" class="label">停車場兼防空避難室</text>
  </g>
  <g id="gis_room_HR_B3">
    <path class="room" d="M 3308.97,1279.25 L 3309.27,1205.39 L 3325.33,1205.46 L 3325.04,1279.31 L 3308.97,1279.25 Z" />
    <text x="3317.15" y="1242.35" class="label">電力/撒水</text>
    <path class="room" d="M 3259.15,1663.30 L 3259.39,1602.08 L 3335.17,1602.38 L 3334.93,1663.60 L 3259.15,1663.30 Z" />
    <text x="3297.16" y="1632.84" class="label">電梯</text>
    <path class="room" d="M 2303.35,1768.27 L 2303.56,1713.01 L 2379.35,1713.32 L 2379.04,1792.67 L 2316.21,1792.42 L 2316.30,1768.32 L 2303.35,1768.27 Z" />
    <text x="2341.35" y="1752.84" class="label">電梯</text>
    <path class="room" d="M 3246.84,1499.13 L 3247.50,1331.10 L 3323.28,1331.40 L 3323.19,1355.50 L 3328.11,1355.52 L 3327.49,1511.82 L 3322.57,1511.80 L 3322.48,1535.90 L 3279.08,1535.73 L 3279.22,1499.26 L 3246.84,1499.13 Z" />
    <text x="3287.47" y="1433.50" class="label">特別安全梯</text>
    <path class="room" d="M 2463.33,1768.90 L 2463.63,1693.23 L 2500.81,1693.38 L 2501.27,1574.72 L 2464.09,1574.57 L 2464.25,1534.45 L 2470.08,1534.48 L 2470.09,1533.17 L 2625.54,1533.79 L 2625.53,1535.09 L 2650.15,1535.19 L 2650.02,1566.45 L 2649.23,1769.64 L 2624.61,1769.54 L 2624.52,1793.64 L 2469.07,1793.03 L 2469.16,1768.93 L 2463.33,1768.90 Z M 2463.63,1693.23 L 2500.81,1693.38 L 2500.81,1693.38 L 2463.63,1693.23 L 2463.63,1693.23 Z M 2625.53,1535.09 L 2650.15,1535.19 L 2650.15,1535.19 L 2625.53,1535.09 L 2625.53,1535.09 Z" />
    <text x="2556.74" y="1663.41" class="label">資工系空間</text>
    <path class="room" d="M 3122.16,1745.47 L 3122.66,1618.47 L 3171.23,1618.66 L 3170.74,1745.66 L 3122.16,1745.47 Z" />
    <text x="3146.69" y="1682.07" class="label">樓梯</text>
    <path class="room" d="M 2818.93,1770.32 L 2819.61,1597.21 L 3071.56,1598.21 L 3070.79,1795.41 L 3013.14,1795.18 L 3013.24,1771.09 L 2987.33,1770.98 L 2987.24,1795.08 L 2831.78,1794.46 L 2831.88,1770.37 L 2818.93,1770.32 Z" />
    <text x="2945.24" y="1696.31" class="label">影印出圖店</text>
    <path class="room" d="M 2470.18,1510.38 L 2498.58,1510.49 L 2498.99,1406.29 L 2650.65,1406.89 L 2650.25,1509.14 L 2625.63,1509.04 L 2625.54,1533.79 L 2470.09,1533.17 L 2470.18,1510.38 Z" />
    <text x="2560.37" y="1470.04" class="label">資財系學生研究室</text>
    <path class="room" d="M 2819.61,1597.21 L 2819.84,1535.86 L 2832.80,1535.91 L 2832.90,1509.86 L 2819.95,1509.81 L 2820.35,1407.56 L 3072.31,1408.56 L 3071.56,1598.21 L 2819.61,1597.21 Z M 2988.25,1536.53 L 3014.16,1536.63 L 3014.26,1510.58 L 2988.35,1510.48 L 2988.25,1536.53 Z" />
    <text x="2945.96" y="1502.89" class="label">工設展覽教室</text>
    <path class="room" d="M 2303.79,1656.16 L 2304.01,1598.29 L 2379.80,1598.59 L 2379.57,1656.46 L 2303.79,1656.16 Z" />
    <text x="2341.79" y="1627.38" class="label">電梯</text>
    <path class="room" d="M 2649.23,1768.99 L 2650.02,1565.80 L 2704.43,1566.01 L 2819.72,1566.47 L 2819.61,1595.13 L 2818.93,1769.66 L 2805.97,1769.61 L 2805.88,1793.71 L 2650.42,1795.05 L 2650.52,1769.00 L 2649.23,1768.99 Z" />
    <text x="2734.48" y="1680.42" class="label">資工系研究室</text>
    <path class="room" d="M 3127.06,1486.54 L 3127.67,1330.63 L 3170.42,1330.80 L 3170.32,1354.89 L 3196.23,1355.00 L 3196.33,1330.90 L 3247.50,1331.10 L 3246.89,1487.02 L 3194.68,1486.81 L 3127.06,1486.54 Z M 3194.68,1486.81 L 3246.89,1487.02 L 3246.89,1487.02 L 3194.68,1486.81 L 3194.68,1486.81 Z M 3196.23,1355.00 L 3196.23,1355.00 L 3196.33,1330.90 L 3196.33,1330.90 L 3196.23,1355.00 Z" />
    <text x="3187.28" y="1408.82" class="label">儲藏室</text>
    <path class="room" d="M 2704.43,1566.01 L 2705.06,1407.10 L 2820.35,1407.56 L 2819.95,1509.81 L 2806.99,1509.76 L 2806.89,1535.81 L 2819.84,1535.86 L 2819.72,1566.47 L 2704.43,1566.01 Z" />
    <text x="2762.39" y="1486.79" class="label">資財系學生研究室</text>
    <path class="room" d="M 2303.56,1713.01 L 2303.79,1656.16 L 2379.57,1656.46 L 2379.35,1713.32 L 2303.56,1713.01 Z" />
    <text x="2341.57" y="1684.74" class="label">電梯</text>
    <path class="room" d="M 2311.88,1507.79 L 2312.49,1351.49 L 2317.94,1351.51 L 2318.03,1327.42 L 2393.81,1327.72 L 2393.16,1495.74 L 2360.77,1495.62 L 2360.63,1532.08 L 2317.23,1531.91 L 2317.32,1507.82 L 2311.88,1507.79 Z" />
    <text x="2352.85" y="1429.75" class="label">特別安全梯</text>
    <path class="room" d="M 2488.58,828.80 L 2488.95,824.20 L 2489.82,819.68 L 2491.18,815.28 L 2493.02,811.05 L 2495.31,807.06 L 2498.03,803.34 L 2501.13,799.95 L 2504.59,796.92 L 2508.36,794.30 L 2512.40,792.11 L 2523.63,786.93 L 2534.94,781.94 L 2546.33,777.15 L 2557.81,772.55 L 2569.36,768.15 L 2580.98,763.94 L 2592.68,759.94 L 2604.44,756.14 L 2616.26,752.54 L 2628.14,749.15 L 2640.08,745.96 L 2652.07,742.97 L 2664.11,740.19 L 2676.19,737.62 L 2688.32,735.25 L 2695.79,778.84 L 2691.95,779.50 L 2696.35,805.17 L 2698.27,804.84 L 2705.76,848.58 L 2699.68,849.78 L 2693.62,851.04 L 2687.57,852.36 L 2681.53,853.75 L 2675.50,855.20 L 2669.49,856.70 L 2663.50,858.27 L 2657.52,859.90 L 2651.56,861.59 L 2645.61,863.34 L 2639.69,865.16 L 2633.78,867.03 L 2627.89,868.96 L 2622.02,870.96 L 2616.17,873.01 L 2615.18,873.36 L 2614.18,873.72 L 2613.18,874.08 L 2612.19,874.44 L 2611.19,874.81 L 2610.20,875.17 L 2609.21,875.54 L 2608.21,875.91 L 2607.22,876.28 L 2606.23,876.65 L 2605.24,877.03 L 2604.25,877.40 L 2603.26,877.78 L 2602.27,878.16 L 2601.28,878.54 L 2598.65,879.56 L 2596.03,880.60 L 2593.41,881.64 L 2590.80,882.70 L 2588.20,883.77 L 2585.59,884.85 L 2583.00,885.95 L 2580.41,887.06 L 2577.82,888.17 L 2575.24,889.31 L 2572.66,890.45 L 2570.09,891.60 L 2567.52,892.77 L 2564.96,893.95 L 2562.41,895.14 L 2558.55,896.71 L 2554.54,897.89 L 2550.45,898.66 L 2546.29,899.02 L 2542.13,898.95 L 2537.98,898.46 L 2533.91,897.55 L 2529.96,896.24 L 2526.15,894.53 L 2522.53,892.45 L 2519.14,890.01 L 2516.00,887.25 L 2513.16,884.18 L 2510.65,880.84 L 2508.47,877.26 L 2494.22,850.86 L 2492.13,846.75 L 2490.51,842.44 L 2489.37,837.98 L 2488.72,833.41 L 2488.58,828.80 Z" />
    <text x="2597.17" y="817.13" class="label">樓梯</text>
  </g>
  <g id="gis_room_PK_B3">
    <path class="room" d="M 5031.30,2487.13 L 5031.95,2322.10 L 5119.39,2322.45 L 5119.39,2324.01 L 5121.33,2324.02 L 5120.82,2454.27 L 5118.88,2454.27 L 5118.78,2477.71 L 5120.73,2477.72 L 5120.69,2487.49 L 5031.30,2487.13 Z" />
    <text x="5076.32" y="2404.80" class="label">樓梯</text>
    <path class="room" d="M 3332.97,2985.13 L 3333.52,2845.76 L 3345.18,2845.80 L 3345.26,2823.92 L 3407.44,2824.17 L 3407.36,2846.05 L 3419.02,2846.10 L 3418.47,2985.47 L 3411.99,2985.44 L 3411.97,2991.95 L 3339.42,2991.66 L 3339.45,2985.15 L 3332.97,2985.13 Z" />
    <text x="3375.99" y="2907.94" class="label">樓梯</text>
    <path class="room" d="M 5328.06,2956.58 L 5328.61,2817.21 L 5340.26,2817.25 L 5340.35,2795.76 L 5402.53,2796.01 L 5402.44,2817.50 L 5414.10,2817.55 L 5413.55,2956.92 L 5407.08,2956.89 L 5407.05,2963.40 L 5334.51,2963.11 L 5334.54,2956.60 L 5328.06,2956.58 Z" />
    <text x="5371.08" y="2879.58" class="label">樓梯</text>
    <path class="room" d="M 6859.48,2407.13 L 6859.83,2319.21 L 7002.97,2319.78 L 7002.63,2407.70 L 6859.48,2407.13 Z M 6996.47,2326.27 L 7002.95,2326.29 L 7002.97,2319.78 L 6996.50,2319.75 L 6996.47,2326.27 Z" />
    <text x="6931.23" y="2363.45" class="label">樓梯</text>
    <path class="room" d="M 7125.95,3823.40 L 7126.14,3775.21 L 7147.52,3775.29 L 7147.60,3754.45 L 7292.69,3755.03 L 7292.60,3775.87 L 7294.16,3775.88 L 7293.97,3824.07 L 7292.41,3824.06 L 7292.36,3837.35 L 7147.27,3836.77 L 7147.33,3823.49 L 7125.95,3823.40 Z" />
    <text x="7210.06" y="3795.90" class="label">樓梯</text>
    <path class="room" d="M 6803.32,2523.22 L 6803.47,2485.71 L 6814.48,2485.76 L 6814.57,2462.96 L 6865.74,2463.16 L 6865.62,2494.94 L 6900.59,2495.09 L 6900.48,2523.61 L 6803.32,2523.22 Z" />
    <text x="6851.96" y="2493.29" class="label">男廁</text>
    <path class="room" d="M 6900.48,2523.61 L 6900.72,2463.30 L 6995.93,2463.68 L 6995.87,2479.96 L 6997.42,2479.97 L 6997.25,2524.00 L 6900.48,2523.61 Z" />
    <text x="6948.95" y="2493.65" class="label">女廁</text>
    <path class="room" d="M 6803.86,2386.07 L 6804.08,2330.71 L 6815.09,2330.75 L 6815.14,2319.03 L 6859.83,2319.21 L 6859.57,2386.29 L 6803.86,2386.07 Z" />
    <text x="6831.85" y="2352.66" class="label">電梯</text>
    <path class="room" d="M 2588.70,2338.07 L 2626.91,2338.22 L 2626.90,2340.17 L 2650.21,2340.26 L 2650.22,2338.31 L 2808.26,2338.94 L 2808.26,2340.89 L 2831.57,2340.98 L 2831.58,2339.03 L 2989.62,2339.66 L 2989.62,2341.61 L 3012.93,2341.70 L 3012.94,2339.75 L 3170.98,2340.38 L 3170.97,2342.33 L 3194.29,2342.42 L 3194.30,2340.47 L 3329.02,2341.00 L 3329.01,2342.96 L 3347.15,2343.03 L 3347.26,2315.41 L 3409.44,2315.66 L 3409.43,2317.23 L 3432.75,2317.32 L 3432.76,2315.75 L 3694.43,2316.79 L 3694.43,2318.35 L 3698.44,2318.37 L 3697.93,2448.62 L 3693.91,2448.61 L 3693.91,2450.58 L 3432.09,2486.01 L 3432.10,2484.04 L 3408.78,2483.95 L 3408.76,2488.51 L 3346.58,2488.26 L 3346.60,2483.70 L 3323.28,2483.61 L 3323.26,2488.17 L 3193.72,2487.65 L 3193.74,2483.09 L 3170.42,2483.00 L 3170.41,2484.95 L 3012.37,2484.33 L 3012.38,2482.37 L 2989.06,2482.28 L 2989.05,2484.24 L 2910.04,2483.92 L 2910.05,2480.67 L 2884.14,2480.56 L 2884.12,2485.12 L 2661.80,2484.24 L 2588.70,2338.07 Z" />
    <text x="3143.57" y="2401.96" class="label">汽車車道</text>
    <path class="room" d="M 6417.25,3947.97 L 6417.65,3845.33 L 6420.50,3845.34 L 6420.56,3831.15 L 6609.69,3831.90 L 6609.75,3837.78 L 6610.08,3843.65 L 6610.68,3849.49 L 6611.54,3855.31 L 6612.66,3861.08 L 6614.05,3866.78 L 6615.71,3872.42 L 6617.61,3877.98 L 6619.77,3883.44 L 6622.18,3888.80 L 6624.83,3894.04 L 6627.71,3899.15 L 6630.83,3904.12 L 6634.17,3908.94 L 6637.73,3913.61 L 6636.72,3914.81 L 6670.35,3943.41 L 6670.89,3942.77 L 6674.84,3945.08 L 6678.87,3947.24 L 6682.97,3949.26 L 6687.15,3951.13 L 6691.39,3952.84 L 6695.69,3954.40 L 6700.04,3955.81 L 6704.44,3957.05 L 6708.88,3958.14 L 6713.35,3959.06 L 6717.86,3959.82 L 6722.39,3960.42 L 6726.94,3960.85 L 6731.50,3961.12 L 6736.07,3961.22 L 6807.38,3961.51 L 6820.70,3960.86 L 6833.87,3958.80 L 6846.76,3955.37 L 6859.22,3950.61 L 6871.11,3944.55 L 6882.31,3937.27 L 6892.68,3928.86 L 6902.12,3919.39 L 6910.52,3908.98 L 6917.79,3897.74 L 6923.85,3885.80 L 6928.62,3873.29 L 6932.07,3860.34 L 6934.15,3847.10 L 6934.83,3833.71 L 7123.97,3834.47 L 7123.92,3846.84 L 7125.47,3846.85 L 7125.06,3950.78 L 7123.51,3950.78 L 7123.45,3966.76 L 7112.16,3978.02 L 7113.26,3979.13 L 6938.20,4153.76 L 6936.17,4153.75 L 6936.17,4152.19 L 6912.86,4152.10 L 6912.85,4153.66 L 6677.08,4152.72 L 6677.09,4151.16 L 6653.77,4151.07 L 6653.77,4152.63 L 6602.51,4152.43 L 6428.83,3976.40 L 6429.94,3975.30 L 6418.74,3963.96 L 6418.80,3947.97 L 6417.25,3947.97 Z M 6612.91,3862.07 L 6612.94,3862.32 L 6613.05,3862.68 L 6612.91,3862.07 Z M 6618.48,3880.18 L 6618.61,3880.61 L 6618.81,3881.02 L 6618.48,3880.18 Z M 6626.76,3897.46 L 6626.94,3897.83 L 6627.11,3898.08 L 6626.76,3897.46 Z M 6807.38,3961.51 L 6814.20,3961.35 L 6820.42,3960.87 L 6807.38,3961.51 Z M 6820.80,3960.84 L 6821.00,3960.82 L 6827.76,3959.93 L 6833.39,3958.88 L 6820.80,3960.84 Z M 6834.06,3958.75 L 6834.46,3958.68 L 6841.09,3957.06 L 6846.13,3955.54 L 6834.06,3958.75 Z M 6847.03,3955.27 L 6847.62,3955.09 L 6854.04,3952.77 L 6858.51,3950.88 L 6847.03,3955.27 Z M 6859.56,3950.43 L 6860.32,3950.11 L 6866.45,3947.11 L 6870.36,3944.93 L 6859.56,3950.43 Z M 6871.50,3944.29 L 6872.42,3943.78 L 6878.20,3940.14 L 6881.55,3937.76 L 6871.50,3944.29 Z M 6882.73,3936.92 L 6883.77,3936.19 L 6889.13,3931.95 L 6891.96,3929.44 L 6882.73,3936.92 Z M 6893.12,3928.41 L 6894.25,3927.42 L 6899.12,3922.62 L 6899.02,3922.50 L 6893.12,3928.41 Z M 6899.02,3922.50 L 6899.12,3922.62 L 6902.10,3919.41 L 6899.02,3922.50 Z M 6902.13,3919.37 L 6902.17,3919.33 L 6905.10,3915.95 L 6907.92,3912.45 L 6910.48,3909.03 L 6902.13,3919.37 Z M 6910.54,3908.95 L 6910.60,3908.87 L 6913.17,3905.18 L 6915.60,3901.41 L 6917.74,3897.83 L 6910.54,3908.95 Z M 6917.81,3897.70 L 6917.90,3897.56 L 6920.06,3893.63 L 6922.08,3889.62 L 6923.79,3885.91 L 6917.81,3897.70 Z M 6923.87,3885.74 L 6923.96,3885.55 L 6925.70,3881.41 L 6927.29,3877.21 L 6928.57,3873.43 L 6923.87,3885.74 Z M 6928.65,3873.21 L 6928.73,3872.95 L 6930.03,3868.65 L 6931.17,3864.31 L 6933.42,3864.32 L 6933.47,3852.55 L 6933.96,3848.29 L 6933.47,3851.43 L 6932.07,3860.34 L 6931.02,3864.31 L 6928.65,3873.21 Z M 6934.19,3846.36 L 6934.36,3844.88 L 6934.79,3837.16 L 6934.78,3834.75 L 6934.19,3846.36 Z" />
    <text x="6771.36" y="3992.45" class="label">汽車車道</text>
    <path class="room" d="M 2312.56,2818.26 L 2313.07,2688.01 L 2314.63,2688.01 L 2314.72,2664.57 L 2313.17,2664.56 L 2313.47,2586.41 L 2315.03,2586.42 L 2315.12,2562.97 L 2313.56,2562.97 L 2313.80,2503.05 L 2315.35,2503.06 L 2315.44,2479.61 L 2313.89,2479.61 L 2314.20,2401.45 L 2315.75,2401.46 L 2315.84,2378.01 L 2314.29,2378.01 L 2314.44,2338.93 L 2316.00,2338.94 L 2316.00,2336.98 L 2445.55,2337.50 L 2445.54,2339.45 L 2468.86,2339.54 L 2468.86,2337.59 L 2588.70,2338.07 L 2661.80,2484.24 L 2884.12,2485.12 L 2884.14,2480.56 L 2910.05,2480.67 L 2910.04,2483.92 L 2989.05,2484.24 L 2989.06,2482.28 L 3012.38,2482.37 L 3012.37,2484.33 L 3170.41,2484.95 L 3170.42,2483.00 L 3193.74,2483.09 L 3193.72,2487.65 L 3323.26,2488.17 L 3323.28,2483.61 L 3346.60,2483.70 L 3346.58,2488.26 L 3408.76,2488.51 L 3408.78,2483.95 L 3432.10,2484.04 L 3432.09,2486.01 L 3693.91,2450.58 L 3693.91,2448.61 L 3697.93,2448.62 L 3698.44,2318.37 L 3717.74,2318.45 L 3717.75,2316.88 L 3919.32,2317.69 L 3919.16,2358.32 L 3987.04,2358.59 L 3987.19,2319.52 L 4002.74,2319.58 L 4002.74,2318.02 L 4264.42,2319.05 L 4264.41,2320.62 L 4287.73,2320.71 L 4287.73,2319.15 L 4549.41,2320.19 L 4549.40,2321.75 L 4572.72,2321.84 L 4572.73,2320.28 L 4834.40,2321.32 L 4834.40,2322.88 L 4857.71,2322.97 L 4857.72,2321.41 L 5031.95,2322.10 L 5031.30,2487.13 L 5120.69,2487.49 L 5120.73,2477.72 L 5142.10,2477.80 L 5142.19,2454.36 L 5120.82,2454.27 L 5121.17,2365.05 L 5207.96,2365.40 L 5208.13,2322.80 L 5404.39,2323.58 L 5404.38,2325.15 L 5427.70,2325.24 L 5427.70,2323.68 L 5689.38,2324.71 L 5689.37,2326.28 L 5712.69,2326.37 L 5712.69,2324.81 L 5974.37,2325.85 L 5974.36,2327.41 L 5997.68,2327.50 L 5997.69,2325.94 L 6129.82,2326.47 L 6129.81,2328.03 L 6153.13,2328.12 L 6153.14,2326.56 L 6400.56,2327.54 L 6400.56,2329.11 L 6426.47,2329.21 L 6426.47,2327.65 L 6736.34,2328.88 L 6736.13,2380.98 L 6803.88,2381.25 L 6803.57,2459.66 L 6788.68,2459.60 L 6788.57,2485.65 L 6790.13,2485.66 L 6789.50,2644.57 L 6787.95,2644.56 L 6787.85,2670.61 L 6789.40,2670.62 L 6788.90,2798.26 L 6787.34,2798.26 L 6787.24,2824.31 L 6788.80,2824.31 L 6787.97,3035.32 L 6786.41,3035.32 L 6786.31,3061.37 L 6787.86,3061.37 L 6787.03,3272.38 L 6785.48,3272.38 L 6785.38,3298.43 L 6786.93,3298.43 L 6786.19,3487.30 L 6784.63,3487.29 L 6784.52,3515.95 L 6813.02,3516.06 L 6813.03,3514.50 L 6914.07,3514.90 L 6914.06,3516.46 L 6939.97,3516.57 L 6939.98,3515.00 L 7125.22,3515.74 L 7125.21,3517.30 L 7139.72,3517.36 L 7139.51,3571.81 L 7293.40,3572.42 L 7293.40,3573.98 L 7294.95,3573.99 L 7294.25,3752.43 L 7292.70,3752.43 L 7292.69,3755.03 L 7147.60,3754.45 L 7147.61,3751.85 L 7124.29,3751.76 L 7124.20,3775.20 L 7126.14,3775.21 L 7125.95,3823.40 L 7124.01,3823.39 L 7123.97,3834.47 L 6934.83,3833.71 L 6934.13,3820.41 L 6932.05,3807.26 L 6928.62,3794.40 L 6923.87,3781.97 L 6917.86,3770.10 L 6910.66,3758.92 L 6902.33,3748.56 L 6892.98,3739.13 L 6882.70,3730.73 L 6871.61,3723.46 L 6859.82,3717.38 L 6847.47,3712.57 L 6834.68,3709.09 L 6821.61,3706.96 L 6808.38,3706.21 L 6737.14,3705.93 L 6723.94,3706.57 L 6710.88,3708.58 L 6698.10,3711.95 L 6685.74,3716.63 L 6673.93,3722.58 L 6662.80,3729.74 L 6652.47,3738.02 L 6643.05,3747.33 L 6634.64,3757.57 L 6627.34,3768.64 L 6621.22,3780.41 L 6616.35,3792.76 L 6612.78,3805.55 L 6610.56,3818.64 L 6609.69,3831.90 L 6420.56,3831.15 L 6420.61,3819.29 L 6419.05,3819.29 L 6420.24,3515.80 L 6421.80,3515.81 L 6421.90,3489.76 L 6420.35,3489.75 L 6421.11,3296.98 L 6422.66,3296.98 L 6422.76,3270.93 L 6421.21,3270.93 L 6421.21,3269.62 L 6482.10,3269.87 L 6482.92,3061.46 L 6422.03,3061.22 L 6422.04,3059.92 L 6423.59,3059.93 L 6423.69,3033.87 L 6422.14,3033.87 L 6422.95,2826.77 L 6424.51,2826.77 L 6424.62,2798.12 L 6396.12,2798.00 L 6396.12,2799.57 L 6151.28,2798.59 L 6151.29,2797.03 L 6127.97,2796.94 L 6127.96,2798.50 L 5995.83,2797.97 L 5995.84,2796.41 L 5972.52,2796.32 L 5972.51,2797.88 L 5710.84,2796.84 L 5710.85,2795.28 L 5687.53,2795.19 L 5687.52,2796.75 L 5425.85,2795.71 L 5425.85,2794.15 L 5402.54,2794.05 L 5402.53,2796.01 L 5340.35,2795.76 L 5340.36,2793.81 L 5317.04,2793.71 L 5317.03,2795.28 L 5140.86,2794.58 L 5140.86,2793.01 L 5117.54,2792.92 L 5117.54,2794.48 L 4855.86,2793.45 L 4855.87,2791.88 L 4832.55,2791.79 L 4832.55,2793.35 L 4570.87,2792.31 L 4570.88,2790.75 L 4549.50,2790.67 L 4550.02,2660.41 L 4548.07,2660.41 L 4548.08,2658.45 L 4468.41,2658.13 L 4467.89,2791.90 L 4285.88,2791.18 L 4285.89,2789.62 L 4262.57,2789.53 L 4262.56,2791.09 L 4000.89,2790.05 L 4000.89,2788.49 L 3977.58,2788.40 L 3977.57,2789.96 L 3715.90,2788.92 L 3715.90,2787.36 L 3692.59,2787.26 L 3692.58,2788.84 L 3419.76,2822.65 L 3407.45,2822.60 L 3407.44,2824.17 L 3345.26,2823.92 L 3345.27,2822.36 L 3321.95,2822.26 L 3321.95,2823.83 L 3192.41,2823.31 L 3192.41,2821.75 L 3169.09,2821.66 L 3169.09,2823.22 L 3011.05,2822.59 L 3011.05,2821.03 L 2987.73,2820.94 L 2987.73,2822.50 L 2829.69,2821.87 L 2829.69,2820.31 L 2806.38,2820.22 L 2806.37,2821.78 L 2648.33,2821.16 L 2648.34,2819.59 L 2625.02,2819.50 L 2625.01,2821.06 L 2466.97,2820.44 L 2466.98,2818.87 L 2443.66,2818.78 L 2443.65,2820.34 L 2314.11,2819.83 L 2314.12,2818.27 L 2312.56,2818.26 Z M 2444.17,2688.53 L 2467.49,2688.62 L 2467.58,2665.18 L 2444.26,2665.08 L 2444.17,2688.53 Z M 2444.90,2503.57 L 2468.21,2503.66 L 2468.30,2480.22 L 2444.99,2480.12 L 2444.90,2503.57 Z M 2547.23,2505.28 L 2573.14,2505.38 L 2573.24,2479.33 L 2547.33,2479.23 L 2547.23,2505.28 Z M 2625.53,2689.25 L 2648.85,2689.34 L 2648.94,2665.89 L 2625.62,2665.80 L 2625.53,2689.25 Z M 2806.89,2689.97 L 2830.20,2690.06 L 2830.30,2666.61 L 2806.98,2666.52 L 2806.89,2689.97 Z M 2884.04,2506.61 L 2909.95,2506.72 L 2910.05,2480.67 L 2884.14,2480.56 L 2884.04,2506.61 Z M 2988.24,2690.69 L 3011.56,2690.78 L 3011.65,2667.33 L 2988.34,2667.24 L 2988.24,2690.69 Z M 2988.97,2505.73 L 3012.29,2505.82 L 3012.38,2482.37 L 2989.06,2482.28 L 2988.97,2505.73 Z M 3169.60,2691.41 L 3192.92,2691.50 L 3193.01,2668.05 L 3169.69,2667.96 L 3169.60,2691.41 Z M 3170.33,2506.45 L 3193.65,2506.54 L 3193.74,2483.09 L 3170.42,2483.00 L 3170.33,2506.45 Z M 3322.46,2692.01 L 3345.78,2692.10 L 3345.87,2668.66 L 3322.56,2668.57 L 3322.46,2692.01 Z M 3323.19,2507.05 L 3346.51,2507.15 L 3346.60,2483.70 L 3323.28,2483.61 L 3323.19,2507.05 Z M 3407.96,2692.35 L 3431.28,2692.44 L 3431.37,2669.00 L 3408.05,2668.90 L 3407.96,2692.35 Z M 3408.69,2507.39 L 3432.01,2507.49 L 3432.10,2484.04 L 3408.78,2483.95 L 3408.69,2507.39 Z M 3685.32,2656.98 L 3716.41,2657.10 L 3716.50,2633.66 L 3685.42,2633.54 L 3685.32,2656.98 Z M 3693.82,2472.05 L 3717.14,2472.15 L 3717.23,2448.70 L 3693.91,2448.61 L 3693.82,2472.05 Z M 3978.09,2658.14 L 4001.41,2658.24 L 4001.50,2634.79 L 3978.18,2634.70 L 3978.09,2658.14 Z M 3978.81,2473.18 L 4002.13,2473.28 L 4002.22,2449.83 L 3978.91,2449.74 L 3978.81,2473.18 Z M 4262.57,2789.53 L 4285.89,2789.62 L 4285.89,2789.62 L 4262.57,2789.53 Z M 4263.08,2659.27 L 4286.40,2659.37 L 4286.49,2635.92 L 4263.17,2635.83 L 4263.08,2659.27 Z M 4263.81,2474.32 L 4287.12,2474.41 L 4287.22,2450.96 L 4263.90,2450.87 L 4263.81,2474.32 Z M 4548.07,2660.41 L 4571.39,2660.50 L 4571.48,2637.05 L 4548.16,2636.96 L 4548.07,2660.41 Z M 4548.80,2475.45 L 4572.12,2475.54 L 4572.21,2452.10 L 4548.89,2452.00 L 4548.80,2475.45 Z M 4833.06,2661.54 L 4856.38,2661.63 L 4856.47,2638.18 L 4833.16,2638.09 L 4833.06,2661.54 Z M 4833.79,2476.58 L 4857.11,2476.67 L 4857.20,2453.23 L 4833.88,2453.13 L 4833.79,2476.58 Z M 5118.06,2662.67 L 5141.38,2662.76 L 5141.47,2639.32 L 5118.15,2639.23 L 5118.06,2662.67 Z M 5317.04,2793.71 L 5340.36,2793.81 L 5317.04,2793.71 L 5317.04,2793.71 Z M 5403.05,2663.80 L 5426.37,2663.90 L 5426.46,2640.45 L 5403.14,2640.36 L 5403.05,2663.80 Z M 5403.78,2478.84 L 5427.09,2478.94 L 5427.19,2455.49 L 5403.87,2455.40 L 5403.78,2478.84 Z M 5688.04,2664.93 L 5711.36,2665.03 L 5711.45,2641.58 L 5688.13,2641.49 L 5688.04,2664.93 Z M 5688.77,2479.98 L 5712.08,2480.07 L 5712.18,2456.62 L 5688.86,2456.53 L 5688.77,2479.98 Z M 5973.03,2666.07 L 5996.35,2666.16 L 5996.44,2642.72 L 5973.12,2642.62 L 5973.03,2666.07 Z M 5973.76,2481.11 L 5997.08,2481.20 L 5997.17,2457.76 L 5973.85,2457.66 L 5973.76,2481.11 Z M 6127.97,2796.94 L 6151.29,2797.03 L 6151.29,2797.03 L 6127.97,2796.94 Z M 6128.48,2666.69 L 6151.80,2666.78 L 6151.89,2643.33 L 6128.57,2643.24 L 6128.48,2666.69 Z M 6129.21,2481.73 L 6152.53,2481.82 L 6152.62,2458.38 L 6129.30,2458.28 L 6129.21,2481.73 Z M 6399.21,2670.37 L 6425.12,2670.47 L 6425.23,2644.42 L 6399.32,2644.32 L 6399.21,2670.37 Z M 6399.95,2484.11 L 6425.86,2484.21 L 6425.96,2458.16 L 6400.05,2458.06 L 6399.95,2484.11 Z M 6610.02,3824.25 L 6610.03,3826.76 L 6610.32,3822.23 L 6610.02,3824.25 Z M 6625.91,3771.39 L 6626.98,3769.32 L 6626.69,3769.75 L 6625.91,3771.39 Z M 6636.46,3755.35 L 6639.22,3751.99 L 6637.43,3753.93 L 6636.46,3755.35 Z M 6715.74,3707.83 L 6720.23,3707.14 L 6718.14,3707.29 L 6715.74,3707.83 Z M 6808.38,3706.21 L 6821.26,3706.94 L 6815.20,3706.42 L 6808.38,3706.21 L 6808.38,3706.21 Z M 6834.93,3709.16 L 6846.74,3712.38 L 6842.06,3710.92 L 6835.44,3709.26 L 6834.93,3709.16 Z M 6883.23,3731.16 L 6892.25,3738.54 L 6889.90,3736.42 L 6884.57,3732.13 L 6883.23,3731.16 Z M 6893.52,3739.68 L 6899.72,3745.93 L 6901.56,3747.79 L 6899.82,3745.83 L 6894.98,3740.99 L 6893.52,3739.68 Z M 6924.17,3782.77 L 6928.28,3793.53 L 6927.68,3791.62 L 6924.92,3784.41 L 6924.17,3782.77 Z M 6612.82,3805.41 L 6612.98,3804.82 L 6612.84,3805.31 L 6612.82,3805.41 Z M 6617.80,3789.08 L 6619.48,3784.82 L 6618.43,3787.00 L 6617.80,3789.08 Z M 6648.66,3741.78 L 6651.25,3739.22 L 6650.39,3739.90 L 6648.66,3741.78 Z M 6664.37,3728.73 L 6667.55,3726.68 L 6665.30,3727.98 L 6664.37,3728.73 Z M 6679.51,3719.77 L 6683.33,3717.85 L 6681.81,3718.44 L 6679.51,3719.77 Z M 6698.99,3711.72 L 6701.51,3711.05 L 6699.56,3711.49 L 6698.99,3711.72 Z M 6821.74,3706.98 L 6834.10,3708.99 L 6828.75,3707.95 L 6822.00,3707.00 L 6821.74,3706.98 Z M 6847.81,3712.71 L 6859.02,3717.07 L 6854.97,3715.32 L 6848.57,3712.95 L 6847.81,3712.71 Z M 6860.25,3717.60 L 6870.79,3723.04 L 6867.34,3721.08 L 6861.24,3718.03 L 6860.25,3717.60 Z M 6872.10,3723.78 L 6881.91,3730.22 L 6879.03,3728.14 L 6873.28,3724.45 L 6872.10,3723.78 Z M 6903.04,3749.45 L 6910.31,3758.50 L 6909.71,3757.63 L 6904.94,3751.58 L 6903.04,3749.45 Z M 6911.26,3759.86 L 6917.55,3769.62 L 6914.11,3763.97 L 6911.26,3759.86 Z M 6917.95,3770.27 L 6923.31,3780.86 L 6921.73,3777.38 L 6918.12,3770.56 L 6917.95,3770.27 Z M 6928.93,3795.58 L 6931.97,3806.98 L 6931.88,3806.47 L 6930.00,3798.98 L 6928.93,3795.58 Z M 6932.17,3808.03 L 6933.97,3819.40 L 6933.30,3814.06 L 6932.17,3808.03 Z M 6934.15,3820.87 L 6934.77,3832.53 L 6934.76,3829.44 L 6934.26,3821.73 L 6934.15,3820.87 Z" />
    <text x="4803.76" y="3075.67" class="label">停車場</text>
  </g>
</svg>